# MagicaVoxel @ Ephtracy

# group
o 

# material
mtllib player.vox.mtl
usemtl palette

# normals
vn -1 0 0
vn 1 0 0
vn 0 0 1
vn 0 0 -1
vn 0 -1 0
vn 0 1 0

# texcoords
vt 0.0332031 0.5
vt 0.306641 0.5
vt 0.373047 0.5
vt 0.537109 0.5
vt 0.806641 0.5
vt 0.810547 0.5
vt 0.916016 0.5
vt 0.927734 0.5
vt 0.939453 0.5
vt 0.958984 0.5
vt 0.962891 0.5
vt 0.974609 0.5
vt 0.990234 0.5

# verts
v -2 0 -2.38419e-07
v -2 0 -0.1
v -2 0.1 -2.38419e-07
v -2 0.1 -0.1
v -2 3.4 0.0999999
v -2 3.4 -0.2
v -2 3.7 0.0999999
v -2 3.7 -0.2
v -1.9 3.3 -2.38419e-07
v -1.9 3.3 -0.1
v -1.9 3.4 -2.38419e-07
v -1.9 3.4 -0.1
v -0.9 3.3 0.0999999
v -0.9 3.3 -2.38419e-07
v -0.9 3.3 -0.1
v -0.9 3.3 -0.2
v -0.9 3.4 0.0999999
v -0.9 3.4 -2.38419e-07
v -0.9 3.4 -0.1
v -0.9 3.4 -0.2
v -0.9 3.7 -2.38419e-07
v -0.9 3.7 -0.1
v -0.9 3.8 -2.38419e-07
v -0.9 3.8 -0.1
v -0.8 2.8 -2.38419e-07
v -0.8 2.8 -0.1
v -0.8 2.9 0.0999999
v -0.8 2.9 -2.38419e-07
v -0.8 2.9 -0.1
v -0.8 2.9 -0.2
v -0.8 3 0.0999999
v -0.8 3 -2.38419e-07
v -0.8 3.3 0.0999999
v -0.8 3.3 -0.2
v -0.8 3.4 0.2
v -0.8 3.4 0.0999999
v -0.8 3.4 -0.2
v -0.8 3.4 -0.3
v -0.8 3.7 0.2
v -0.8 3.7 0.0999999
v -0.8 3.7 -2.38419e-07
v -0.8 3.7 -0.1
v -0.8 3.7 -0.2
v -0.8 3.7 -0.3
v -0.8 3.8 0.0999999
v -0.8 3.8 -2.38419e-07
v -0.8 3.8 -0.1
v -0.8 3.8 -0.2
v -0.7 0.4 0.0999999
v -0.7 0.4 -0.2
v -0.7 1.3 0.0999999
v -0.7 1.3 -0.2
v -0.7 1.4 0.0999999
v -0.7 1.4 -0.2
v -0.7 2.1 0.0999999
v -0.7 2.1 -2.38419e-07
v -0.7 2.1 -0.1
v -0.7 2.1 -0.2
v -0.7 2.2 -2.38419e-07
v -0.7 2.2 -0.1
v -0.7 2.3 0.0999999
v -0.7 2.3 -2.38419e-07
v -0.7 2.3 -0.1
v -0.7 2.3 -0.2
v -0.7 2.4 0.2
v -0.7 2.4 0.0999999
v -0.7 2.4 -0.2
v -0.7 2.4 -0.3
v -0.7 2.5 0.2
v -0.7 2.5 0.0999999
v -0.7 2.5 -2.38419e-07
v -0.7 2.5 -0.1
v -0.7 2.6 -2.38419e-07
v -0.7 2.6 -0.1
v -0.7 2.8 -2.38419e-07
v -0.7 2.8 -0.1
v -0.7 2.9 0.0999999
v -0.7 2.9 -2.38419e-07
v -0.7 2.9 -0.1
v -0.7 2.9 -0.2
v -0.7 3 0.0999999
v -0.7 3.2 -0.2
v -0.7 3.2 -0.3
v -0.7 3.3 -0.2
v -0.7 3.3 -0.3
v -0.7 3.4 0.2
v -0.7 3.4 0.0999999
v -0.7 3.4 -0.2
v -0.7 3.4 -0.3
v -0.7 3.7 0.2
v -0.7 3.7 0.0999999
v -0.7 3.7 -0.2
v -0.7 3.7 -0.3
v -0.7 3.8 0.2
v -0.7 3.8 0.0999999
v -0.7 3.8 -2.38419e-07
v -0.7 3.8 -0.1
v -0.7 3.8 -0.2
v -0.7 3.8 -0.3
v -0.7 3.9 0.0999999
v -0.7 3.9 -2.38419e-07
v -0.7 3.9 -0.1
v -0.7 3.9 -0.2
v -0.6 0 0.4
v -0.6 0 -0.3
v -0.6 0.1 0.4
v -0.6 0.1 -0.3
v -0.6 0.2 0.4
v -0.6 0.2 0.2
v -0.6 0.3 0.2
v -0.6 0.3 0.0999999
v -0.6 0.3 -0.2
v -0.6 0.3 -0.3
v -0.6 0.4 0.2
v -0.6 0.4 0.0999999
v -0.6 0.4 -0.2
v -0.6 0.4 -0.3
v -0.6 1.3 0.2
v -0.6 1.3 0.0999999
v -0.6 1.3 -0.2
v -0.6 1.3 -0.3
v -0.6 1.4 0.2
v -0.6 1.4 0.0999999
v -0.6 1.4 -0.2
v -0.6 1.4 -0.3
v -0.6 2.1 0.2
v -0.6 2.1 0.0999999
v -0.6 2.1 -2.38419e-07
v -0.6 2.1 -0.1
v -0.6 2.1 -0.2
v -0.6 2.1 -0.3
v -0.6 2.2 0.2
v -0.6 2.2 0.0999999
v -0.6 2.2 -2.38419e-07
v -0.6 2.2 -0.1
v -0.6 2.2 -0.2
v -0.6 2.2 -0.3
v -0.6 2.3 0.0999999
v -0.6 2.3 -2.38419e-07
v -0.6 2.3 -0.1
v -0.6 2.3 -0.2
v -0.6 2.3 -0.3
v -0.6 2.3 -0.4
v -0.6 2.4 0.2
v -0.6 2.4 0.0999999
v -0.6 2.4 -0.2
v -0.6 2.4 -0.3
v -0.6 2.5 0.3
v -0.6 2.5 0.2
v -0.6 2.7 0.3
v -0.6 2.7 0.2
v -0.6 2.7 -0.3
v -0.6 2.7 -0.4
v -0.6 2.8 0.3
v -0.6 2.8 0.2
v -0.6 2.8 -0.3
v -0.6 2.8 -0.4
v -0.6 3.2 -0.3
v -0.6 3.3 0.3
v -0.6 3.3 0.2
v -0.6 3.3 -0.3
v -0.6 3.4 0.3
v -0.6 3.4 0.2
v -0.6 3.7 0.3
v -0.6 3.7 0.2
v -0.6 3.7 -0.3
v -0.6 3.7 -0.4
v -0.6 3.8 0.2
v -0.6 3.8 0.0999999
v -0.6 3.8 -0.2
v -0.6 3.8 -0.3
v -0.6 3.9 0.2
v -0.6 3.9 0.0999999
v -0.6 3.9 -0.2
v -0.6 3.9 -0.3
v -0.5 2.1 0.2
v -0.5 2.1 0.0999999
v -0.5 2.1 -0.2
v -0.5 2.1 -0.3
v -0.5 2.2 0.2
v -0.5 2.2 0.0999999
v -0.5 2.2 -0.2
v -0.5 2.2 -0.3
v -0.5 2.2 -0.4
v -0.5 2.3 -0.3
v -0.5 2.3 -0.4
v -0.5 2.4 0.3
v -0.5 2.4 0.2
v -0.5 2.5 0.3
v -0.5 2.5 0.2
v -0.5 3.7 0.3
v -0.5 3.7 0.2
v -0.5 3.7 -0.3
v -0.5 3.7 -0.4
v -0.5 3.8 0.3
v -0.5 3.8 0.2
v -0.5 3.8 -0.3
v -0.5 3.8 -0.4
v -0.4 2.3 0.3
v -0.4 2.3 0.2
v -0.4 2.4 0.3
v -0.4 2.4 0.2
v -0.4 4.1 0.3
v -0.4 4.1 -0.4
v -0.4 4.5 0.3
v -0.4 4.5 0.2
v -0.4 4.5 -0.3
v -0.4 4.5 -0.4
v -0.4 4.6 0.2
v -0.4 4.6 -0.3
v -0.3 3.9 0.2
v -0.3 3.9 -0.3
v -0.3 4 0.3
v -0.3 4 0.2
v -0.3 4 -0.3
v -0.3 4 -0.4
v -0.3 4.1 0.3
v -0.3 4.1 -0.4
v -0.3 4.1 -0.5
v -0.3 4.3 0.4
v -0.3 4.3 0.3
v -0.3 4.5 0.4
v -0.3 4.5 0.3
v -0.3 4.5 0.2
v -0.3 4.5 -0.3
v -0.3 4.5 -0.4
v -0.3 4.5 -0.5
v -0.3 4.6 0.3
v -0.3 4.6 0.2
v -0.3 4.6 -0.3
v -0.3 4.6 -0.4
v -0.3 4.7 0.2
v -0.3 4.7 -0.3
v -0.2 0 -2.38419e-07
v -0.2 0 -0.1
v -0.2 0.1 -2.38419e-07
v -0.2 0.1 -0.1
v -0.2 3.9 0.3
v -0.2 3.9 0.2
v -0.2 3.9 -0.3
v -0.2 3.9 -0.4
v -0.2 4 0.3
v -0.2 4 0.2
v -0.2 4 -0.3
v -0.2 4 -0.4
v -0.2 4.5 0.4
v -0.2 4.5 0.3
v -0.2 4.5 -0.4
v -0.2 4.5 -0.5
v -0.2 4.6 0.4
v -0.2 4.6 0.3
v -0.2 4.6 0.2
v -0.2 4.6 -0.3
v -0.2 4.6 -0.4
v -0.2 4.6 -0.5
v -0.2 4.7 0.3
v -0.2 4.7 0.2
v -0.2 4.7 -0.3
v -0.2 4.7 -0.4
v 2.38419e-07 0 2
v 2.38419e-07 0 -2.38419e-07
v 2.38419e-07 0 -0.1
v 2.38419e-07 0 -2
v 2.38419e-07 0.1 2
v 2.38419e-07 0.1 -2.38419e-07
v 2.38419e-07 0.1 -0.1
v 2.38419e-07 0.1 -2
v 0.1 1.9 0.2
v 0.1 1.9 0.0999999
v 0.1 1.9 -0.2
v 0.1 1.9 -0.3
v 0.1 2 0.2
v 0.1 2 0.0999999
v 0.1 2 -0.2
v 0.1 2 -0.3
v 0.2 1.7 0.0999999
v 0.2 1.7 -0.2
v 0.2 1.8 0.2
v 0.2 1.8 0.0999999
v 0.2 1.8 -0.2
v 0.2 1.8 -0.3
v 0.2 1.9 0.2
v 0.2 1.9 0.0999999
v 0.2 1.9 -0.2
v 0.2 1.9 -0.3
v 0.3 0.4 0.0999999
v 0.3 0.4 -0.2
v 0.3 1.3 0.0999999
v 0.3 1.3 -0.2
v 0.3 1.4 0.0999999
v 0.3 1.4 -0.2
v 0.3 1.7 0.2
v 0.3 1.7 0.0999999
v 0.3 1.7 -0.2
v 0.3 1.7 -0.3
v 0.3 1.8 0.2
v 0.3 1.8 0.0999999
v 0.3 1.8 -0.2
v 0.3 1.8 -0.3
v 0.3 4.3 0.4
v 0.3 4.3 0.3
v 0.3 4.5 0.4
v 0.3 4.5 0.3
v 0.4 0 0.4
v 0.4 0 -0.3
v 0.4 0.1 0.4
v 0.4 0.1 -0.3
v 0.4 0.2 0.4
v 0.4 0.2 0.2
v 0.4 0.3 0.2
v 0.4 0.3 0.0999999
v 0.4 0.3 -0.2
v 0.4 0.3 -0.3
v 0.4 0.4 0.2
v 0.4 0.4 0.0999999
v 0.4 0.4 -0.2
v 0.4 0.4 -0.3
v 0.4 1.3 0.2
v 0.4 1.3 0.0999999
v 0.4 1.3 -0.2
v 0.4 1.3 -0.3
v 0.4 1.4 0.2
v 0.4 1.4 0.0999999
v 0.4 1.4 -0.2
v 0.4 1.4 -0.3
v 0.4 1.7 0.2
v 0.4 1.7 0.0999999
v 0.4 1.7 -0.2
v 0.4 1.7 -0.3
v 0.8 0 -2.38419e-07
v 0.8 0 -0.1
v 0.8 0.1 -2.38419e-07
v 0.8 0.1 -0.1
v -0.7 0 -2.38419e-07
v -0.7 0 -0.1
v -0.7 0.1 -2.38419e-07
v -0.7 0.1 -0.1
v -0.3 0 0.4
v -0.3 0 -0.3
v -0.3 0.1 0.4
v -0.3 0.1 -0.3
v -0.3 0.2 0.4
v -0.3 0.2 0.2
v -0.3 0.3 0.2
v -0.3 0.3 0.0999999
v -0.3 0.3 -0.2
v -0.3 0.3 -0.3
v -0.3 0.4 0.2
v -0.3 0.4 0.0999999
v -0.3 0.4 -0.2
v -0.3 0.4 -0.3
v -0.3 1.3 0.2
v -0.3 1.3 0.0999999
v -0.3 1.3 -0.2
v -0.3 1.3 -0.3
v -0.3 1.4 0.2
v -0.3 1.4 0.0999999
v -0.3 1.4 -0.2
v -0.3 1.4 -0.3
v -0.3 1.7 0.2
v -0.3 1.7 0.0999999
v -0.3 1.7 -0.2
v -0.3 1.7 -0.3
v -0.2 0.4 0.0999999
v -0.2 0.4 -0.2
v -0.2 1.3 0.0999999
v -0.2 1.3 -0.2
v -0.2 1.4 0.0999999
v -0.2 1.4 -0.2
v -0.2 1.7 0.2
v -0.2 1.7 0.0999999
v -0.2 1.7 -0.2
v -0.2 1.7 -0.3
v -0.2 1.8 0.2
v -0.2 1.8 0.0999999
v -0.2 1.8 -0.2
v -0.2 1.8 -0.3
v -0.2 4.3 0.4
v -0.2 4.3 0.3
v -0.2 4.5 0.4
v -0.2 4.5 0.3
v -0.0999999 1.7 0.0999999
v -0.0999999 1.7 -0.2
v -0.0999999 1.8 0.2
v -0.0999999 1.8 0.0999999
v -0.0999999 1.8 -0.2
v -0.0999999 1.8 -0.3
v -0.0999999 1.9 0.2
v -0.0999999 1.9 0.0999999
v -0.0999999 1.9 -0.2
v -0.0999999 1.9 -0.3
v 2.38419e-07 1.9 0.2
v 2.38419e-07 1.9 0.0999999
v 2.38419e-07 1.9 -0.2
v 2.38419e-07 1.9 -0.3
v 2.38419e-07 2 0.2
v 2.38419e-07 2 0.0999999
v 2.38419e-07 2 -0.2
v 2.38419e-07 2 -0.3
v 0.1 0 2
v 0.1 0 -2.38419e-07
v 0.1 0 -0.1
v 0.1 0 -2
v 0.1 0.1 2
v 0.1 0.1 -2.38419e-07
v 0.1 0.1 -0.1
v 0.1 0.1 -2
v 0.3 0 -2.38419e-07
v 0.3 0 -0.1
v 0.3 0.1 -2.38419e-07
v 0.3 0.1 -0.1
v 0.3 3.9 0.3
v 0.3 3.9 0.2
v 0.3 3.9 -0.3
v 0.3 3.9 -0.4
v 0.3 4 0.3
v 0.3 4 0.2
v 0.3 4 -0.3
v 0.3 4 -0.4
v 0.3 4.5 0.4
v 0.3 4.5 0.3
v 0.3 4.5 -0.4
v 0.3 4.5 -0.5
v 0.3 4.6 0.4
v 0.3 4.6 0.3
v 0.3 4.6 0.2
v 0.3 4.6 -0.3
v 0.3 4.6 -0.4
v 0.3 4.6 -0.5
v 0.3 4.7 0.3
v 0.3 4.7 0.2
v 0.3 4.7 -0.3
v 0.3 4.7 -0.4
v 0.4 3.9 0.2
v 0.4 3.9 -0.3
v 0.4 4 0.3
v 0.4 4 0.2
v 0.4 4 -0.3
v 0.4 4 -0.4
v 0.4 4.1 0.3
v 0.4 4.1 -0.4
v 0.4 4.1 -0.5
v 0.4 4.3 0.4
v 0.4 4.3 0.3
v 0.4 4.5 0.4
v 0.4 4.5 0.3
v 0.4 4.5 0.2
v 0.4 4.5 -0.3
v 0.4 4.5 -0.4
v 0.4 4.5 -0.5
v 0.4 4.6 0.3
v 0.4 4.6 0.2
v 0.4 4.6 -0.3
v 0.4 4.6 -0.4
v 0.4 4.7 0.2
v 0.4 4.7 -0.3
v 0.5 2.3 0.3
v 0.5 2.3 0.2
v 0.5 2.4 0.3
v 0.5 2.4 0.2
v 0.5 4.1 0.3
v 0.5 4.1 -0.4
v 0.5 4.5 0.3
v 0.5 4.5 0.2
v 0.5 4.5 -0.3
v 0.5 4.5 -0.4
v 0.5 4.6 0.2
v 0.5 4.6 -0.3
v 0.6 2.1 0.2
v 0.6 2.1 0.0999999
v 0.6 2.1 -0.2
v 0.6 2.1 -0.3
v 0.6 2.2 0.2
v 0.6 2.2 0.0999999
v 0.6 2.2 -0.2
v 0.6 2.2 -0.3
v 0.6 2.2 -0.4
v 0.6 2.3 -0.3
v 0.6 2.3 -0.4
v 0.6 2.4 0.3
v 0.6 2.4 0.2
v 0.6 2.5 0.3
v 0.6 2.5 0.2
v 0.6 3.7 0.3
v 0.6 3.7 0.2
v 0.6 3.7 -0.3
v 0.6 3.7 -0.4
v 0.6 3.8 0.3
v 0.6 3.8 0.2
v 0.6 3.8 -0.3
v 0.6 3.8 -0.4
v 0.7 0 0.4
v 0.7 0 -0.3
v 0.7 0.1 0.4
v 0.7 0.1 -0.3
v 0.7 0.2 0.4
v 0.7 0.2 0.2
v 0.7 0.3 0.2
v 0.7 0.3 0.0999999
v 0.7 0.3 -0.2
v 0.7 0.3 -0.3
v 0.7 0.4 0.2
v 0.7 0.4 0.0999999
v 0.7 0.4 -0.2
v 0.7 0.4 -0.3
v 0.7 1.3 0.2
v 0.7 1.3 0.0999999
v 0.7 1.3 -0.2
v 0.7 1.3 -0.3
v 0.7 1.4 0.2
v 0.7 1.4 0.0999999
v 0.7 1.4 -0.2
v 0.7 1.4 -0.3
v 0.7 2.1 0.2
v 0.7 2.1 0.0999999
v 0.7 2.1 -2.38419e-07
v 0.7 2.1 -0.1
v 0.7 2.1 -0.2
v 0.7 2.1 -0.3
v 0.7 2.2 0.2
v 0.7 2.2 0.0999999
v 0.7 2.2 -2.38419e-07
v 0.7 2.2 -0.1
v 0.7 2.2 -0.2
v 0.7 2.2 -0.3
v 0.7 2.3 0.0999999
v 0.7 2.3 -2.38419e-07
v 0.7 2.3 -0.1
v 0.7 2.3 -0.2
v 0.7 2.3 -0.3
v 0.7 2.3 -0.4
v 0.7 2.4 0.2
v 0.7 2.4 0.0999999
v 0.7 2.4 -0.2
v 0.7 2.4 -0.3
v 0.7 2.5 0.3
v 0.7 2.5 0.2
v 0.7 2.5 -0.3
v 0.7 2.6 -0.3
v 0.7 2.9 0.2
v 0.7 2.9 -0.3
v 0.7 2.9 -0.4
v 0.7 3 0.2
v 0.7 3 -0.3
v 0.7 3 -0.4
v 0.7 3.1 0.2
v 0.7 3.2 0.2
v 0.7 3.2 -0.3
v 0.7 3.3 -0.3
v 0.7 3.7 0.3
v 0.7 3.7 0.2
v 0.7 3.7 -0.3
v 0.7 3.7 -0.4
v 0.7 3.8 0.2
v 0.7 3.8 0.0999999
v 0.7 3.8 -0.2
v 0.7 3.8 -0.3
v 0.7 3.9 0.2
v 0.7 3.9 0.0999999
v 0.7 3.9 -0.2
v 0.7 3.9 -0.3
v 0.8 0.4 0.0999999
v 0.8 0.4 -0.2
v 0.8 1.3 0.0999999
v 0.8 1.3 -0.2
v 0.8 1.4 0.0999999
v 0.8 1.4 -0.2
v 0.8 2.1 0.0999999
v 0.8 2.1 -2.38419e-07
v 0.8 2.1 -0.1
v 0.8 2.1 -0.2
v 0.8 2.2 -2.38419e-07
v 0.8 2.2 -0.1
v 0.8 2.3 0.0999999
v 0.8 2.3 -2.38419e-07
v 0.8 2.3 -0.1
v 0.8 2.3 -0.2
v 0.8 2.4 0.2
v 0.8 2.4 0.0999999
v 0.8 2.4 -0.2
v 0.8 2.4 -0.3
v 0.8 2.5 -2.38419e-07
v 0.8 2.5 -0.1
v 0.8 2.5 -0.2
v 0.8 2.5 -0.3
v 0.8 2.6 -2.38419e-07
v 0.8 2.6 -0.1
v 0.8 2.6 -0.2
v 0.8 2.6 -0.3
v 0.8 2.8 -2.38419e-07
v 0.8 2.8 -0.1
v 0.8 2.9 0.2
v 0.8 2.9 0.0999999
v 0.8 2.9 -2.38419e-07
v 0.8 2.9 -0.1
v 0.8 2.9 -0.2
v 0.8 3 0.2
v 0.8 3 0.0999999
v 0.8 3.1 0.2
v 0.8 3.1 0.0999999
v 0.8 3.2 0.2
v 0.8 3.2 0.0999999
v 0.8 3.2 -0.2
v 0.8 3.2 -0.3
v 0.8 3.3 -0.2
v 0.8 3.3 -0.3
v 0.8 3.4 0.2
v 0.8 3.4 0.0999999
v 0.8 3.4 -0.2
v 0.8 3.4 -0.3
v 0.8 3.7 0.2
v 0.8 3.7 0.0999999
v 0.8 3.7 -0.2
v 0.8 3.7 -0.3
v 0.8 3.8 0.2
v 0.8 3.8 0.0999999
v 0.8 3.8 -2.38419e-07
v 0.8 3.8 -0.1
v 0.8 3.8 -0.2
v 0.8 3.8 -0.3
v 0.8 3.9 0.0999999
v 0.8 3.9 -2.38419e-07
v 0.8 3.9 -0.1
v 0.8 3.9 -0.2
v 0.9 2.8 -2.38419e-07
v 0.9 2.8 -0.1
v 0.9 2.9 0.0999999
v 0.9 2.9 -2.38419e-07
v 0.9 2.9 -0.1
v 0.9 2.9 -0.2
v 0.9 3.3 0.0999999
v 0.9 3.3 -0.2
v 0.9 3.4 0.2
v 0.9 3.4 0.0999999
v 0.9 3.4 -0.2
v 0.9 3.4 -0.3
v 0.9 3.5 0.2
v 0.9 3.5 0.0999999
v 0.9 3.6 0.2
v 0.9 3.6 0.0999999
v 0.9 3.7 0.2
v 0.9 3.7 0.0999999
v 0.9 3.7 -2.38419e-07
v 0.9 3.7 -0.1
v 0.9 3.7 -0.2
v 0.9 3.7 -0.3
v 0.9 3.8 0.0999999
v 0.9 3.8 -2.38419e-07
v 0.9 3.8 -0.1
v 0.9 3.8 -0.2
v 1 3.3 0.0999999
v 1 3.3 -2.38419e-07
v 1 3.3 -0.1
v 1 3.3 -0.2
v 1 3.4 0.0999999
v 1 3.4 -2.38419e-07
v 1 3.4 -0.1
v 1 3.4 -0.2
v 1 3.7 -2.38419e-07
v 1 3.7 -0.1
v 1 3.8 -2.38419e-07
v 1 3.8 -0.1
v 2 0 -2.38419e-07
v 2 0 -0.1
v 2 0.1 -2.38419e-07
v 2 0.1 -0.1
v 2 3.3 -2.38419e-07
v 2 3.3 -0.1
v 2 3.4 -2.38419e-07
v 2 3.4 -0.1
v 2.1 3.4 0.0999999
v 2.1 3.4 -0.2
v 2.1 3.7 0.0999999
v 2.1 3.7 -0.2
v 2.38419e-07 0 2
v 2.38419e-07 0.1 2
v 0.1 0 2
v 0.1 0.1 2
v -0.6 0 0.4
v -0.6 0.1 0.4
v -0.6 0.2 0.4
v -0.3 0 0.4
v -0.3 0.1 0.4
v -0.3 0.2 0.4
v -0.3 4.3 0.4
v -0.3 4.5 0.4
v -0.2 4.3 0.4
v -0.2 4.5 0.4
v -0.2 4.6 0.4
v 0.3 4.3 0.4
v 0.3 4.5 0.4
v 0.3 4.6 0.4
v 0.4 0 0.4
v 0.4 0.1 0.4
v 0.4 0.2 0.4
v 0.4 4.3 0.4
v 0.4 4.5 0.4
v 0.7 0 0.4
v 0.7 0.1 0.4
v 0.7 0.2 0.4
v -0.6 2.5 0.3
v -0.6 2.7 0.3
v -0.6 2.8 0.3
v -0.6 3.3 0.3
v -0.6 3.4 0.3
v -0.6 3.7 0.3
v -0.5 2.4 0.3
v -0.5 2.5 0.3
v -0.5 2.7 0.3
v -0.5 2.8 0.3
v -0.5 2.9 0.3
v -0.5 3 0.3
v -0.5 3.3 0.3
v -0.5 3.4 0.3
v -0.5 3.7 0.3
v -0.5 3.8 0.3
v -0.4 2.3 0.3
v -0.4 2.4 0.3
v -0.4 2.5 0.3
v -0.4 2.6 0.3
v -0.4 2.9 0.3
v -0.4 3 0.3
v -0.4 3.2 0.3
v -0.4 3.3 0.3
v -0.4 3.6 0.3
v -0.4 3.7 0.3
v -0.4 4.1 0.3
v -0.4 4.5 0.3
v -0.3 2.5 0.3
v -0.3 2.6 0.3
v -0.3 2.9 0.3
v -0.3 3 0.3
v -0.3 3.2 0.3
v -0.3 3.3 0.3
v -0.3 3.6 0.3
v -0.3 3.7 0.3
v -0.3 4 0.3
v -0.3 4.1 0.3
v -0.3 4.3 0.3
v -0.3 4.5 0.3
v -0.3 4.6 0.3
v -0.2 2.5 0.3
v -0.2 2.6 0.3
v -0.2 2.7 0.3
v -0.2 2.8 0.3
v -0.2 2.9 0.3
v -0.2 3 0.3
v -0.2 3.4 0.3
v -0.2 3.5 0.3
v -0.2 3.9 0.3
v -0.2 4 0.3
v -0.2 4.3 0.3
v -0.2 4.5 0.3
v -0.2 4.6 0.3
v -0.2 4.7 0.3
v -0.0999999 2.5 0.3
v -0.0999999 2.6 0.3
v -0.0999999 2.7 0.3
v -0.0999999 2.8 0.3
v -0.0999999 3.1 0.3
v -0.0999999 3.2 0.3
v -0.0999999 3.4 0.3
v -0.0999999 3.5 0.3
v -0.0999999 3.6 0.3
v -0.0999999 3.7 0.3
v 2.38419e-07 3.1 0.3
v 2.38419e-07 3.2 0.3
v 2.38419e-07 3.6 0.3
v 2.38419e-07 3.7 0.3
v 0.1 2.5 0.3
v 0.1 2.6 0.3
v 0.1 2.8 0.3
v 0.1 2.9 0.3
v 0.1 3.4 0.3
v 0.1 3.5 0.3
v 0.2 2.5 0.3
v 0.2 2.6 0.3
v 0.2 2.8 0.3
v 0.2 2.9 0.3
v 0.2 3.1 0.3
v 0.2 3.2 0.3
v 0.2 3.4 0.3
v 0.2 3.5 0.3
v 0.3 2.5 0.3
v 0.3 2.6 0.3
v 0.3 3.1 0.3
v 0.3 3.2 0.3
v 0.3 3.6 0.3
v 0.3 3.7 0.3
v 0.3 3.9 0.3
v 0.3 4 0.3
v 0.3 4.3 0.3
v 0.3 4.5 0.3
v 0.3 4.6 0.3
v 0.3 4.7 0.3
v 0.4 2.5 0.3
v 0.4 2.6 0.3
v 0.4 3 0.3
v 0.4 3.1 0.3
v 0.4 3.3 0.3
v 0.4 3.4 0.3
v 0.4 3.6 0.3
v 0.4 3.7 0.3
v 0.4 4 0.3
v 0.4 4.1 0.3
v 0.4 4.3 0.3
v 0.4 4.5 0.3
v 0.4 4.6 0.3
v 0.5 2.3 0.3
v 0.5 2.4 0.3
v 0.5 2.7 0.3
v 0.5 2.8 0.3
v 0.5 3 0.3
v 0.5 3.1 0.3
v 0.5 3.3 0.3
v 0.5 3.4 0.3
v 0.5 4.1 0.3
v 0.5 4.5 0.3
v 0.6 2.4 0.3
v 0.6 2.5 0.3
v 0.6 2.7 0.3
v 0.6 2.8 0.3
v 0.6 3.7 0.3
v 0.6 3.8 0.3
v 0.7 2.5 0.3
v 0.7 3.7 0.3
v -0.8 3.4 0.2
v -0.8 3.7 0.2
v -0.7 2.4 0.2
v -0.7 2.5 0.2
v -0.7 3.4 0.2
v -0.7 3.7 0.2
v -0.7 3.8 0.2
v -0.6 0.2 0.2
v -0.6 0.3 0.2
v -0.6 0.4 0.2
v -0.6 1.3 0.2
v -0.6 1.4 0.2
v -0.6 2.1 0.2
v -0.6 2.2 0.2
v -0.6 2.4 0.2
v -0.6 2.5 0.2
v -0.6 2.7 0.2
v -0.6 2.8 0.2
v -0.6 3.3 0.2
v -0.6 3.4 0.2
v -0.6 3.7 0.2
v -0.6 3.8 0.2
v -0.6 3.9 0.2
v -0.5 2.1 0.2
v -0.5 2.2 0.2
v -0.5 2.4 0.2
v -0.5 2.5 0.2
v -0.5 3.7 0.2
v -0.5 3.8 0.2
v -0.5 3.9 0.2
v -0.4 2.3 0.2
v -0.4 2.4 0.2
v -0.4 3.8 0.2
v -0.4 3.9 0.2
v -0.4 4.5 0.2
v -0.4 4.6 0.2
v -0.3 0.2 0.2
v -0.3 0.3 0.2
v -0.3 0.4 0.2
v -0.3 1.3 0.2
v -0.3 1.4 0.2
v -0.3 1.7 0.2
v -0.3 3.9 0.2
v -0.3 4 0.2
v -0.3 4.5 0.2
v -0.3 4.6 0.2
v -0.3 4.7 0.2
v -0.2 1.7 0.2
v -0.2 1.8 0.2
v -0.2 3.9 0.2
v -0.2 4 0.2
v -0.2 4.6 0.2
v -0.2 4.7 0.2
v -0.0999999 1.8 0.2
v -0.0999999 1.9 0.2
v 2.38419e-07 1.9 0.2
v 2.38419e-07 2 0.2
v 0.1 1.9 0.2
v 0.1 2 0.2
v 0.2 1.8 0.2
v 0.2 1.9 0.2
v 0.3 1.7 0.2
v 0.3 1.8 0.2
v 0.3 3.9 0.2
v 0.3 4 0.2
v 0.3 4.6 0.2
v 0.3 4.7 0.2
v 0.4 0.2 0.2
v 0.4 0.3 0.2
v 0.4 0.4 0.2
v 0.4 1.3 0.2
v 0.4 1.4 0.2
v 0.4 1.7 0.2
v 0.4 3.9 0.2
v 0.4 4 0.2
v 0.4 4.5 0.2
v 0.4 4.6 0.2
v 0.4 4.7 0.2
v 0.5 2.3 0.2
v 0.5 2.4 0.2
v 0.5 4.5 0.2
v 0.5 4.6 0.2
v 0.6 2.1 0.2
v 0.6 2.2 0.2
v 0.6 2.3 0.2
v 0.6 2.4 0.2
v 0.6 2.5 0.2
v 0.6 3.7 0.2
v 0.6 3.8 0.2
v 0.7 0.2 0.2
v 0.7 0.3 0.2
v 0.7 0.4 0.2
v 0.7 1.3 0.2
v 0.7 1.4 0.2
v 0.7 2.1 0.2
v 0.7 2.2 0.2
v 0.7 2.4 0.2
v 0.7 2.5 0.2
v 0.7 2.9 0.2
v 0.7 3 0.2
v 0.7 3.1 0.2
v 0.7 3.2 0.2
v 0.7 3.7 0.2
v 0.7 3.8 0.2
v 0.7 3.9 0.2
v 0.8 2.4 0.2
v 0.8 2.9 0.2
v 0.8 3 0.2
v 0.8 3.1 0.2
v 0.8 3.2 0.2
v 0.8 3.4 0.2
v 0.8 3.5 0.2
v 0.8 3.6 0.2
v 0.8 3.7 0.2
v 0.8 3.8 0.2
v 0.9 3.4 0.2
v 0.9 3.5 0.2
v 0.9 3.6 0.2
v 0.9 3.7 0.2
v -2 3.4 0.0999999
v -2 3.7 0.0999999
v -1.9 3.4 0.0999999
v -1.9 3.7 0.0999999
v -1.8 3.4 0.0999999
v -1.8 3.7 0.0999999
v -1.6 3.4 0.0999999
v -1.6 3.5 0.0999999
v -1.6 3.6 0.0999999
v -1.6 3.7 0.0999999
v -1.5 3.4 0.0999999
v -1.5 3.5 0.0999999
v -1.5 3.6 0.0999999
v -1.5 3.7 0.0999999
v -1.4 3.4 0.0999999
v -1.4 3.7 0.0999999
v -1.3 3.4 0.0999999
v -1.3 3.7 0.0999999
v -1.2 3.5 0.0999999
v -1.2 3.6 0.0999999
v -1.1 3.5 0.0999999
v -1.1 3.6 0.0999999
v -1 3.5 0.0999999
v -1 3.6 0.0999999
v -0.9 3.3 0.0999999
v -0.9 3.4 0.0999999
v -0.9 3.5 0.0999999
v -0.9 3.6 0.0999999
v -0.8 2.9 0.0999999
v -0.8 3 0.0999999
v -0.8 3.3 0.0999999
v -0.8 3.4 0.0999999
v -0.8 3.7 0.0999999
v -0.8 3.8 0.0999999
v -0.7 0.4 0.0999999
v -0.7 1.3 0.0999999
v -0.7 1.4 0.0999999
v -0.7 2.1 0.0999999
v -0.7 2.3 0.0999999
v -0.7 2.4 0.0999999
v -0.7 2.9 0.0999999
v -0.7 3 0.0999999
v -0.7 3.4 0.0999999
v -0.7 3.7 0.0999999
v -0.7 3.8 0.0999999
v -0.7 3.9 0.0999999
v -0.6 0.3 0.0999999
v -0.6 0.4 0.0999999
v -0.6 1.3 0.0999999
v -0.6 1.4 0.0999999
v -0.6 2.1 0.0999999
v -0.6 2.2 0.0999999
v -0.6 2.3 0.0999999
v -0.6 2.4 0.0999999
v -0.6 3.8 0.0999999
v -0.6 3.9 0.0999999
v -0.5 2.1 0.0999999
v -0.5 2.2 0.0999999
v -0.3 0.3 0.0999999
v -0.3 0.4 0.0999999
v -0.3 1.3 0.0999999
v -0.3 1.4 0.0999999
v -0.3 1.7 0.0999999
v -0.2 0.4 0.0999999
v -0.2 1.3 0.0999999
v -0.2 1.4 0.0999999
v -0.2 1.7 0.0999999
v -0.2 1.8 0.0999999
v -0.0999999 1.7 0.0999999
v -0.0999999 1.8 0.0999999
v -0.0999999 1.9 0.0999999
v 2.38419e-07 1.9 0.0999999
v 2.38419e-07 2 0.0999999
v 0.1 1.9 0.0999999
v 0.1 2 0.0999999
v 0.2 1.7 0.0999999
v 0.2 1.8 0.0999999
v 0.2 1.9 0.0999999
v 0.3 0.4 0.0999999
v 0.3 1.3 0.0999999
v 0.3 1.4 0.0999999
v 0.3 1.7 0.0999999
v 0.3 1.8 0.0999999
v 0.4 0.3 0.0999999
v 0.4 0.4 0.0999999
v 0.4 1.3 0.0999999
v 0.4 1.4 0.0999999
v 0.4 1.7 0.0999999
v 0.6 2.1 0.0999999
v 0.6 2.2 0.0999999
v 0.7 0.3 0.0999999
v 0.7 0.4 0.0999999
v 0.7 1.3 0.0999999
v 0.7 1.4 0.0999999
v 0.7 2.1 0.0999999
v 0.7 2.2 0.0999999
v 0.7 2.3 0.0999999
v 0.7 2.4 0.0999999
v 0.7 3.8 0.0999999
v 0.7 3.9 0.0999999
v 0.8 0.4 0.0999999
v 0.8 1.3 0.0999999
v 0.8 1.4 0.0999999
v 0.8 2.1 0.0999999
v 0.8 2.3 0.0999999
v 0.8 2.4 0.0999999
v 0.8 2.9 0.0999999
v 0.8 3 0.0999999
v 0.8 3.1 0.0999999
v 0.8 3.2 0.0999999
v 0.8 3.4 0.0999999
v 0.8 3.7 0.0999999
v 0.8 3.8 0.0999999
v 0.8 3.9 0.0999999
v 0.9 2.9 0.0999999
v 0.9 3.3 0.0999999
v 0.9 3.4 0.0999999
v 0.9 3.5 0.0999999
v 0.9 3.6 0.0999999
v 0.9 3.7 0.0999999
v 0.9 3.8 0.0999999
v 1 3.3 0.0999999
v 1 3.4 0.0999999
v 1.1 3.5 0.0999999
v 1.1 3.6 0.0999999
v 1.2 3.5 0.0999999
v 1.2 3.6 0.0999999
v 1.4 3.4 0.0999999
v 1.4 3.7 0.0999999
v 1.5 3.4 0.0999999
v 1.5 3.7 0.0999999
v 1.7 3.6 0.0999999
v 1.7 3.7 0.0999999
v 1.8 3.6 0.0999999
v 1.8 3.7 0.0999999
v 1.9 3.4 0.0999999
v 1.9 3.7 0.0999999
v 2 3.4 0.0999999
v 2 3.7 0.0999999
v 2.1 3.4 0.0999999
v 2.1 3.7 0.0999999
v -2 0 -2.38419e-07
v -2 0.1 -2.38419e-07
v -1.9 3.3 -2.38419e-07
v -1.9 3.4 -2.38419e-07
v -1.8 3.3 -2.38419e-07
v -1.8 3.4 -2.38419e-07
v -1.6 3.4 -2.38419e-07
v -1.5 3.4 -2.38419e-07
v -1.4 3.3 -2.38419e-07
v -1.4 3.4 -2.38419e-07
v -1.3 3.3 -2.38419e-07
v -1.3 3.4 -2.38419e-07
v -0.9 3.3 -2.38419e-07
v -0.9 3.4 -2.38419e-07
v -0.9 3.7 -2.38419e-07
v -0.9 3.8 -2.38419e-07
v -0.8 2.8 -2.38419e-07
v -0.8 2.9 -2.38419e-07
v -0.8 3.7 -2.38419e-07
v -0.8 3.8 -2.38419e-07
v -0.7 0 -2.38419e-07
v -0.7 0.1 -2.38419e-07
v -0.7 2.1 -2.38419e-07
v -0.7 2.2 -2.38419e-07
v -0.7 2.3 -2.38419e-07
v -0.7 2.8 -2.38419e-07
v -0.7 2.9 -2.38419e-07
v -0.6 2.1 -2.38419e-07
v -0.6 2.2 -2.38419e-07
v -0.6 2.3 -2.38419e-07
v -0.2 0 -2.38419e-07
v -0.2 0.1 -2.38419e-07
v 2.38419e-07 0 -2.38419e-07
v 2.38419e-07 0.1 -2.38419e-07
v 0.1 0 -2.38419e-07
v 0.1 0.1 -2.38419e-07
v 0.3 0 -2.38419e-07
v 0.3 0.1 -2.38419e-07
v 0.7 2.1 -2.38419e-07
v 0.7 2.2 -2.38419e-07
v 0.7 2.3 -2.38419e-07
v 0.8 0 -2.38419e-07
v 0.8 0.1 -2.38419e-07
v 0.8 2.1 -2.38419e-07
v 0.8 2.2 -2.38419e-07
v 0.8 2.3 -2.38419e-07
v 0.8 2.8 -2.38419e-07
v 0.8 2.9 -2.38419e-07
v 0.9 2.8 -2.38419e-07
v 0.9 2.9 -2.38419e-07
v 0.9 3.7 -2.38419e-07
v 0.9 3.8 -2.38419e-07
v 1 3.3 -2.38419e-07
v 1 3.4 -2.38419e-07
v 1 3.7 -2.38419e-07
v 1 3.8 -2.38419e-07
v 1.4 3.3 -2.38419e-07
v 1.4 3.4 -2.38419e-07
v 1.5 3.3 -2.38419e-07
v 1.5 3.4 -2.38419e-07
v 1.7 3.3 -2.38419e-07
v 1.7 3.4 -2.38419e-07
v 1.8 3.3 -2.38419e-07
v 1.8 3.4 -2.38419e-07
v 1.9 3.3 -2.38419e-07
v 1.9 3.4 -2.38419e-07
v 2 0 -2.38419e-07
v 2 0.1 -2.38419e-07
v 2 3.3 -2.38419e-07
v 2 3.4 -2.38419e-07
v -2 0 -0.1
v -2 0.1 -0.1
v -1.9 3.3 -0.1
v -1.9 3.4 -0.1
v -1.8 3.3 -0.1
v -1.8 3.4 -0.1
v -1.4 3.3 -0.1
v -1.4 3.4 -0.1
v -1.3 3.3 -0.1
v -1.3 3.4 -0.1
v -1.2 3.4 -0.1
v -1.1 3.4 -0.1
v -0.9 3.3 -0.1
v -0.9 3.4 -0.1
v -0.9 3.7 -0.1
v -0.9 3.8 -0.1
v -0.8 2.8 -0.1
v -0.8 2.9 -0.1
v -0.8 3.7 -0.1
v -0.8 3.8 -0.1
v -0.7 0 -0.1
v -0.7 0.1 -0.1
v -0.7 2.1 -0.1
v -0.7 2.2 -0.1
v -0.7 2.3 -0.1
v -0.7 2.8 -0.1
v -0.7 2.9 -0.1
v -0.6 2.1 -0.1
v -0.6 2.2 -0.1
v -0.6 2.3 -0.1
v -0.2 0 -0.1
v -0.2 0.1 -0.1
v 2.38419e-07 0 -0.1
v 2.38419e-07 0.1 -0.1
v 0.1 0 -0.1
v 0.1 0.1 -0.1
v 0.3 0 -0.1
v 0.3 0.1 -0.1
v 0.7 2.1 -0.1
v 0.7 2.2 -0.1
v 0.7 2.3 -0.1
v 0.8 0 -0.1
v 0.8 0.1 -0.1
v 0.8 2.1 -0.1
v 0.8 2.2 -0.1
v 0.8 2.3 -0.1
v 0.8 2.8 -0.1
v 0.8 2.9 -0.1
v 0.9 2.8 -0.1
v 0.9 2.9 -0.1
v 0.9 3.7 -0.1
v 0.9 3.8 -0.1
v 1 3.3 -0.1
v 1 3.4 -0.1
v 1 3.7 -0.1
v 1 3.8 -0.1
v 1.1 3.4 -0.1
v 1.2 3.4 -0.1
v 1.4 3.3 -0.1
v 1.4 3.4 -0.1
v 1.5 3.3 -0.1
v 1.5 3.4 -0.1
v 1.7 3.3 -0.1
v 1.7 3.4 -0.1
v 1.8 3.3 -0.1
v 1.8 3.4 -0.1
v 1.9 3.3 -0.1
v 1.9 3.4 -0.1
v 2 0 -0.1
v 2 0.1 -0.1
v 2 3.3 -0.1
v 2 3.4 -0.1
v -2 3.4 -0.2
v -2 3.7 -0.2
v -1.9 3.4 -0.2
v -1.9 3.7 -0.2
v -1.8 3.4 -0.2
v -1.8 3.7 -0.2
v -1.4 3.4 -0.2
v -1.4 3.7 -0.2
v -1.3 3.4 -0.2
v -1.3 3.7 -0.2
v -1.2 3.4 -0.2
v -1.2 3.5 -0.2
v -1.1 3.4 -0.2
v -1.1 3.5 -0.2
v -1 3.6 -0.2
v -1 3.7 -0.2
v -0.9 3.3 -0.2
v -0.9 3.4 -0.2
v -0.9 3.6 -0.2
v -0.9 3.7 -0.2
v -0.8 2.9 -0.2
v -0.8 3.3 -0.2
v -0.8 3.4 -0.2
v -0.8 3.7 -0.2
v -0.8 3.8 -0.2
v -0.7 0.4 -0.2
v -0.7 1.3 -0.2
v -0.7 1.4 -0.2
v -0.7 2.1 -0.2
v -0.7 2.3 -0.2
v -0.7 2.4 -0.2
v -0.7 2.9 -0.2
v -0.7 3.2 -0.2
v -0.7 3.3 -0.2
v -0.7 3.4 -0.2
v -0.7 3.7 -0.2
v -0.7 3.8 -0.2
v -0.7 3.9 -0.2
v -0.6 0.3 -0.2
v -0.6 0.4 -0.2
v -0.6 1.3 -0.2
v -0.6 1.4 -0.2
v -0.6 2.1 -0.2
v -0.6 2.2 -0.2
v -0.6 2.3 -0.2
v -0.6 2.4 -0.2
v -0.6 3.8 -0.2
v -0.6 3.9 -0.2
v -0.5 2.1 -0.2
v -0.5 2.2 -0.2
v -0.3 0.3 -0.2
v -0.3 0.4 -0.2
v -0.3 1.3 -0.2
v -0.3 1.4 -0.2
v -0.3 1.7 -0.2
v -0.2 0.4 -0.2
v -0.2 1.3 -0.2
v -0.2 1.4 -0.2
v -0.2 1.7 -0.2
v -0.2 1.8 -0.2
v -0.0999999 1.7 -0.2
v -0.0999999 1.8 -0.2
v -0.0999999 1.9 -0.2
v 2.38419e-07 1.9 -0.2
v 2.38419e-07 2 -0.2
v 0.1 1.9 -0.2
v 0.1 2 -0.2
v 0.2 1.7 -0.2
v 0.2 1.8 -0.2
v 0.2 1.9 -0.2
v 0.3 0.4 -0.2
v 0.3 1.3 -0.2
v 0.3 1.4 -0.2
v 0.3 1.7 -0.2
v 0.3 1.8 -0.2
v 0.4 0.3 -0.2
v 0.4 0.4 -0.2
v 0.4 1.3 -0.2
v 0.4 1.4 -0.2
v 0.4 1.7 -0.2
v 0.6 2.1 -0.2
v 0.6 2.2 -0.2
v 0.7 0.3 -0.2
v 0.7 0.4 -0.2
v 0.7 1.3 -0.2
v 0.7 1.4 -0.2
v 0.7 2.1 -0.2
v 0.7 2.2 -0.2
v 0.7 2.3 -0.2
v 0.7 2.4 -0.2
v 0.7 3.8 -0.2
v 0.7 3.9 -0.2
v 0.8 0.4 -0.2
v 0.8 1.3 -0.2
v 0.8 1.4 -0.2
v 0.8 2.1 -0.2
v 0.8 2.3 -0.2
v 0.8 2.4 -0.2
v 0.8 2.9 -0.2
v 0.8 3.2 -0.2
v 0.8 3.3 -0.2
v 0.8 3.4 -0.2
v 0.8 3.7 -0.2
v 0.8 3.8 -0.2
v 0.8 3.9 -0.2
v 0.9 2.9 -0.2
v 0.9 3.3 -0.2
v 0.9 3.4 -0.2
v 0.9 3.7 -0.2
v 0.9 3.8 -0.2
v 1 3.3 -0.2
v 1 3.4 -0.2
v 1.1 3.4 -0.2
v 1.1 3.5 -0.2
v 1.1 3.6 -0.2
v 1.1 3.7 -0.2
v 1.2 3.4 -0.2
v 1.2 3.5 -0.2
v 1.2 3.6 -0.2
v 1.2 3.7 -0.2
v 1.4 3.4 -0.2
v 1.4 3.7 -0.2
v 1.5 3.4 -0.2
v 1.5 3.7 -0.2
v 1.7 3.6 -0.2
v 1.7 3.7 -0.2
v 1.8 3.6 -0.2
v 1.8 3.7 -0.2
v 1.9 3.4 -0.2
v 1.9 3.7 -0.2
v 2 3.4 -0.2
v 2 3.7 -0.2
v 2.1 3.4 -0.2
v 2.1 3.7 -0.2
v -0.8 3.4 -0.3
v -0.8 3.7 -0.3
v -0.7 2.4 -0.3
v -0.7 3.2 -0.3
v -0.7 3.3 -0.3
v -0.7 3.4 -0.3
v -0.7 3.7 -0.3
v -0.7 3.8 -0.3
v -0.6 0 -0.3
v -0.6 0.1 -0.3
v -0.6 0.3 -0.3
v -0.6 0.4 -0.3
v -0.6 1.3 -0.3
v -0.6 1.4 -0.3
v -0.6 2.1 -0.3
v -0.6 2.2 -0.3
v -0.6 2.3 -0.3
v -0.6 2.4 -0.3
v -0.6 2.7 -0.3
v -0.6 2.8 -0.3
v -0.6 3.2 -0.3
v -0.6 3.3 -0.3
v -0.6 3.7 -0.3
v -0.6 3.8 -0.3
v -0.6 3.9 -0.3
v -0.5 2.1 -0.3
v -0.5 2.2 -0.3
v -0.5 2.3 -0.3
v -0.5 3.7 -0.3
v -0.5 3.8 -0.3
v -0.4 2.2 -0.3
v -0.4 4.5 -0.3
v -0.4 4.6 -0.3
v -0.3 0 -0.3
v -0.3 0.1 -0.3
v -0.3 0.3 -0.3
v -0.3 0.4 -0.3
v -0.3 1.3 -0.3
v -0.3 1.4 -0.3
v -0.3 1.7 -0.3
v -0.3 3.9 -0.3
v -0.3 4 -0.3
v -0.3 4.5 -0.3
v -0.3 4.6 -0.3
v -0.3 4.7 -0.3
v -0.2 1.7 -0.3
v -0.2 1.8 -0.3
v -0.2 3.9 -0.3
v -0.2 4 -0.3
v -0.2 4.6 -0.3
v -0.2 4.7 -0.3
v -0.0999999 1.8 -0.3
v -0.0999999 1.9 -0.3
v 2.38419e-07 1.9 -0.3
v 2.38419e-07 2 -0.3
v 0.1 1.9 -0.3
v 0.1 2 -0.3
v 0.2 1.8 -0.3
v 0.2 1.9 -0.3
v 0.3 1.7 -0.3
v 0.3 1.8 -0.3
v 0.3 3.9 -0.3
v 0.3 4 -0.3
v 0.3 4.6 -0.3
v 0.3 4.7 -0.3
v 0.4 0 -0.3
v 0.4 0.1 -0.3
v 0.4 0.3 -0.3
v 0.4 0.4 -0.3
v 0.4 1.3 -0.3
v 0.4 1.4 -0.3
v 0.4 1.7 -0.3
v 0.4 3.9 -0.3
v 0.4 4 -0.3
v 0.4 4.5 -0.3
v 0.4 4.6 -0.3
v 0.4 4.7 -0.3
v 0.5 4.5 -0.3
v 0.5 4.6 -0.3
v 0.6 2.1 -0.3
v 0.6 2.2 -0.3
v 0.6 2.3 -0.3
v 0.6 3.7 -0.3
v 0.6 3.8 -0.3
v 0.7 0 -0.3
v 0.7 0.1 -0.3
v 0.7 0.3 -0.3
v 0.7 0.4 -0.3
v 0.7 1.3 -0.3
v 0.7 1.4 -0.3
v 0.7 2.1 -0.3
v 0.7 2.2 -0.3
v 0.7 2.3 -0.3
v 0.7 2.4 -0.3
v 0.7 2.5 -0.3
v 0.7 2.6 -0.3
v 0.7 2.9 -0.3
v 0.7 3 -0.3
v 0.7 3.2 -0.3
v 0.7 3.3 -0.3
v 0.7 3.7 -0.3
v 0.7 3.8 -0.3
v 0.7 3.9 -0.3
v 0.8 2.4 -0.3
v 0.8 2.5 -0.3
v 0.8 2.6 -0.3
v 0.8 3.2 -0.3
v 0.8 3.3 -0.3
v 0.8 3.4 -0.3
v 0.8 3.7 -0.3
v 0.8 3.8 -0.3
v 0.9 3.4 -0.3
v 0.9 3.7 -0.3
v -0.6 2.3 -0.4
v -0.6 2.7 -0.4
v -0.6 2.8 -0.4
v -0.6 3.7 -0.4
v -0.5 2.2 -0.4
v -0.5 2.3 -0.4
v -0.5 2.7 -0.4
v -0.5 2.8 -0.4
v -0.5 3.6 -0.4
v -0.5 3.7 -0.4
v -0.5 3.8 -0.4
v -0.4 2.2 -0.4
v -0.4 2.3 -0.4
v -0.4 2.8 -0.4
v -0.4 2.9 -0.4
v -0.4 3.1 -0.4
v -0.4 3.2 -0.4
v -0.4 3.6 -0.4
v -0.4 3.7 -0.4
v -0.4 4.1 -0.4
v -0.4 4.5 -0.4
v -0.3 2.8 -0.4
v -0.3 2.9 -0.4
v -0.3 3.1 -0.4
v -0.3 3.2 -0.4
v -0.3 4 -0.4
v -0.3 4.1 -0.4
v -0.3 4.5 -0.4
v -0.3 4.6 -0.4
v -0.2 2.5 -0.4
v -0.2 2.6 -0.4
v -0.2 3.5 -0.4
v -0.2 3.6 -0.4
v -0.2 3.9 -0.4
v -0.2 4 -0.4
v -0.2 4.5 -0.4
v -0.2 4.6 -0.4
v -0.2 4.7 -0.4
v -0.0999999 2.5 -0.4
v -0.0999999 2.6 -0.4
v -0.0999999 2.9 -0.4
v -0.0999999 3 -0.4
v -0.0999999 3.5 -0.4
v -0.0999999 3.6 -0.4
v 2.38419e-07 2.4 -0.4
v 2.38419e-07 2.5 -0.4
v 2.38419e-07 2.9 -0.4
v 2.38419e-07 3 -0.4
v 2.38419e-07 3.3 -0.4
v 2.38419e-07 3.4 -0.4
v 0.1 2.4 -0.4
v 0.1 2.5 -0.4
v 0.1 3.3 -0.4
v 0.1 3.4 -0.4
v 0.2 2.6 -0.4
v 0.2 2.7 -0.4
v 0.2 3.6 -0.4
v 0.2 3.7 -0.4
v 0.3 2.6 -0.4
v 0.3 2.7 -0.4
v 0.3 2.8 -0.4
v 0.3 2.9 -0.4
v 0.3 3.1 -0.4
v 0.3 3.2 -0.4
v 0.3 3.6 -0.4
v 0.3 3.7 -0.4
v 0.3 3.9 -0.4
v 0.3 4 -0.4
v 0.3 4.5 -0.4
v 0.3 4.6 -0.4
v 0.3 4.7 -0.4
v 0.4 2.8 -0.4
v 0.4 2.9 -0.4
v 0.4 3.1 -0.4
v 0.4 3.2 -0.4
v 0.4 4 -0.4
v 0.4 4.1 -0.4
v 0.4 4.5 -0.4
v 0.4 4.6 -0.4
v 0.5 2.4 -0.4
v 0.5 2.5 -0.4
v 0.5 3.5 -0.4
v 0.5 3.6 -0.4
v 0.5 4.1 -0.4
v 0.5 4.5 -0.4
v 0.6 2.2 -0.4
v 0.6 2.3 -0.4
v 0.6 2.4 -0.4
v 0.6 2.5 -0.4
v 0.6 2.9 -0.4
v 0.6 3 -0.4
v 0.6 3.5 -0.4
v 0.6 3.6 -0.4
v 0.6 3.7 -0.4
v 0.6 3.8 -0.4
v 0.7 2.3 -0.4
v 0.7 2.9 -0.4
v 0.7 3 -0.4
v 0.7 3.7 -0.4
v -0.3 4.1 -0.5
v -0.3 4.5 -0.5
v -0.2 4.5 -0.5
v -0.2 4.6 -0.5
v 0.3 4.5 -0.5
v 0.3 4.6 -0.5
v 0.4 4.1 -0.5
v 0.4 4.5 -0.5
v 2.38419e-07 0 -2
v 2.38419e-07 0.1 -2
v 0.1 0 -2
v 0.1 0.1 -2
v 2.38419e-07 0 2
v 0.1 0 2
v -0.6 0 0.4
v -0.3 0 0.4
v 0.4 0 0.4
v 0.7 0 0.4
v -2 0 -2.38419e-07
v -0.7 0 -2.38419e-07
v -0.2 0 -2.38419e-07
v 2.38419e-07 0 -2.38419e-07
v 0.1 0 -2.38419e-07
v 0.3 0 -2.38419e-07
v 0.8 0 -2.38419e-07
v 2 0 -2.38419e-07
v -2 0 -0.1
v -0.7 0 -0.1
v -0.2 0 -0.1
v 2.38419e-07 0 -0.1
v 0.1 0 -0.1
v 0.3 0 -0.1
v 0.8 0 -0.1
v 2 0 -0.1
v -0.6 0 -0.3
v -0.3 0 -0.3
v 0.4 0 -0.3
v 0.7 0 -0.3
v 2.38419e-07 0 -2
v 0.1 0 -2
v -0.6 0.4 0.2
v -0.3 0.4 0.2
v 0.4 0.4 0.2
v 0.7 0.4 0.2
v -0.7 0.4 0.0999999
v -0.6 0.4 0.0999999
v -0.3 0.4 0.0999999
v -0.2 0.4 0.0999999
v 0.3 0.4 0.0999999
v 0.4 0.4 0.0999999
v 0.7 0.4 0.0999999
v 0.8 0.4 0.0999999
v -0.7 0.4 -0.2
v -0.6 0.4 -0.2
v -0.3 0.4 -0.2
v -0.2 0.4 -0.2
v 0.3 0.4 -0.2
v 0.4 0.4 -0.2
v 0.7 0.4 -0.2
v 0.8 0.4 -0.2
v -0.6 0.4 -0.3
v -0.3 0.4 -0.3
v 0.4 0.4 -0.3
v 0.7 0.4 -0.3
v -0.3 1.7 0.2
v -0.2 1.7 0.2
v 0.3 1.7 0.2
v 0.4 1.7 0.2
v -0.3 1.7 0.0999999
v -0.2 1.7 0.0999999
v -0.0999999 1.7 0.0999999
v 0.2 1.7 0.0999999
v 0.3 1.7 0.0999999
v 0.4 1.7 0.0999999
v -0.3 1.7 -0.2
v -0.2 1.7 -0.2
v -0.0999999 1.7 -0.2
v 0.2 1.7 -0.2
v 0.3 1.7 -0.2
v 0.4 1.7 -0.2
v -0.3 1.7 -0.3
v -0.2 1.7 -0.3
v 0.3 1.7 -0.3
v 0.4 1.7 -0.3
v -0.2 1.8 0.2
v -0.0999999 1.8 0.2
v 0.2 1.8 0.2
v 0.3 1.8 0.2
v -0.2 1.8 0.0999999
v -0.0999999 1.8 0.0999999
v 0.2 1.8 0.0999999
v 0.3 1.8 0.0999999
v -0.2 1.8 -0.2
v -0.0999999 1.8 -0.2
v 0.2 1.8 -0.2
v 0.3 1.8 -0.2
v -0.2 1.8 -0.3
v -0.0999999 1.8 -0.3
v 0.2 1.8 -0.3
v 0.3 1.8 -0.3
v -0.0999999 1.9 0.2
v 2.38419e-07 1.9 0.2
v 0.1 1.9 0.2
v 0.2 1.9 0.2
v -0.0999999 1.9 0.0999999
v 2.38419e-07 1.9 0.0999999
v 0.1 1.9 0.0999999
v 0.2 1.9 0.0999999
v -0.0999999 1.9 -0.2
v 2.38419e-07 1.9 -0.2
v 0.1 1.9 -0.2
v 0.2 1.9 -0.2
v -0.0999999 1.9 -0.3
v 2.38419e-07 1.9 -0.3
v 0.1 1.9 -0.3
v 0.2 1.9 -0.3
v 2.38419e-07 2 0.2
v 0.1 2 0.2
v 2.38419e-07 2 0.0999999
v 0.1 2 0.0999999
v 2.38419e-07 2 -0.2
v 0.1 2 -0.2
v 2.38419e-07 2 -0.3
v 0.1 2 -0.3
v -0.6 2.2 0.2
v -0.5 2.2 0.2
v 0.6 2.2 0.2
v 0.7 2.2 0.2
v -0.6 2.2 0.0999999
v -0.5 2.2 0.0999999
v 0.6 2.2 0.0999999
v 0.7 2.2 0.0999999
v -0.6 2.2 -0.2
v -0.5 2.2 -0.2
v 0.6 2.2 -0.2
v 0.7 2.2 -0.2
v -0.6 2.2 -0.3
v -0.5 2.2 -0.3
v -0.4 2.2 -0.3
v 0.6 2.2 -0.3
v 0.7 2.2 -0.3
v -0.5 2.2 -0.4
v -0.4 2.2 -0.4
v 0.6 2.2 -0.4
v -0.4 2.3 0.3
v 0.5 2.3 0.3
v -0.4 2.3 0.2
v 0.5 2.3 0.2
v -0.7 2.3 0.0999999
v -0.6 2.3 0.0999999
v 0.7 2.3 0.0999999
v 0.8 2.3 0.0999999
v -0.7 2.3 -2.38419e-07
v -0.6 2.3 -2.38419e-07
v 0.7 2.3 -2.38419e-07
v 0.8 2.3 -2.38419e-07
v -0.7 2.3 -0.1
v -0.6 2.3 -0.1
v 0.7 2.3 -0.1
v 0.8 2.3 -0.1
v -0.7 2.3 -0.2
v -0.6 2.3 -0.2
v 0.7 2.3 -0.2
v 0.8 2.3 -0.2
v -0.6 2.3 -0.3
v -0.5 2.3 -0.3
v 0.6 2.3 -0.3
v 0.7 2.3 -0.3
v -0.6 2.3 -0.4
v -0.5 2.3 -0.4
v 0.6 2.3 -0.4
v 0.7 2.3 -0.4
v -0.5 2.4 0.3
v -0.4 2.4 0.3
v 0.5 2.4 0.3
v 0.6 2.4 0.3
v -0.7 2.4 0.2
v -0.6 2.4 0.2
v -0.5 2.4 0.2
v -0.4 2.4 0.2
v 0.5 2.4 0.2
v 0.6 2.4 0.2
v 0.7 2.4 0.2
v 0.8 2.4 0.2
v -0.7 2.4 0.0999999
v -0.6 2.4 0.0999999
v 0.7 2.4 0.0999999
v 0.8 2.4 0.0999999
v -0.7 2.4 -0.2
v -0.6 2.4 -0.2
v 0.7 2.4 -0.2
v 0.8 2.4 -0.2
v -0.7 2.4 -0.3
v -0.6 2.4 -0.3
v 0.7 2.4 -0.3
v 0.8 2.4 -0.3
v -0.6 2.5 0.3
v -0.5 2.5 0.3
v 0.6 2.5 0.3
v 0.7 2.5 0.3
v -0.6 2.5 0.2
v -0.5 2.5 0.2
v 0.6 2.5 0.2
v 0.7 2.5 0.2
v -0.8 2.8 -2.38419e-07
v -0.7 2.8 -2.38419e-07
v 0.8 2.8 -2.38419e-07
v 0.9 2.8 -2.38419e-07
v -0.8 2.8 -0.1
v -0.7 2.8 -0.1
v 0.8 2.8 -0.1
v 0.9 2.8 -0.1
v -0.8 2.9 0.0999999
v -0.7 2.9 0.0999999
v 0.8 2.9 0.0999999
v 0.9 2.9 0.0999999
v -0.8 2.9 -2.38419e-07
v -0.7 2.9 -2.38419e-07
v 0.8 2.9 -2.38419e-07
v 0.9 2.9 -2.38419e-07
v -0.8 2.9 -0.1
v -0.7 2.9 -0.1
v 0.8 2.9 -0.1
v 0.9 2.9 -0.1
v -0.8 2.9 -0.2
v -0.7 2.9 -0.2
v 0.8 2.9 -0.2
v 0.9 2.9 -0.2
v -0.9 3.3 0.0999999
v -0.8 3.3 0.0999999
v 0.9 3.3 0.0999999
v 1 3.3 0.0999999
v -1.9 3.3 -2.38419e-07
v -1.8 3.3 -2.38419e-07
v -1.4 3.3 -2.38419e-07
v -1.3 3.3 -2.38419e-07
v -0.9 3.3 -2.38419e-07
v 1 3.3 -2.38419e-07
v 1.4 3.3 -2.38419e-07
v 1.5 3.3 -2.38419e-07
v 1.7 3.3 -2.38419e-07
v 1.8 3.3 -2.38419e-07
v 1.9 3.3 -2.38419e-07
v 2 3.3 -2.38419e-07
v -1.9 3.3 -0.1
v -1.8 3.3 -0.1
v -1.4 3.3 -0.1
v -1.3 3.3 -0.1
v -0.9 3.3 -0.1
v 1 3.3 -0.1
v 1.4 3.3 -0.1
v 1.5 3.3 -0.1
v 1.7 3.3 -0.1
v 1.8 3.3 -0.1
v 1.9 3.3 -0.1
v 2 3.3 -0.1
v -0.9 3.3 -0.2
v -0.8 3.3 -0.2
v 0.9 3.3 -0.2
v 1 3.3 -0.2
v -0.8 3.4 0.2
v -0.7 3.4 0.2
v 0.8 3.4 0.2
v 0.9 3.4 0.2
v -2 3.4 0.0999999
v -1.9 3.4 0.0999999
v -1.8 3.4 0.0999999
v -1.6 3.4 0.0999999
v -1.5 3.4 0.0999999
v -1.4 3.4 0.0999999
v -1.3 3.4 0.0999999
v -0.9 3.4 0.0999999
v -0.8 3.4 0.0999999
v -0.7 3.4 0.0999999
v 0.8 3.4 0.0999999
v 0.9 3.4 0.0999999
v 1 3.4 0.0999999
v 1.4 3.4 0.0999999
v 1.5 3.4 0.0999999
v 1.9 3.4 0.0999999
v 2 3.4 0.0999999
v 2.1 3.4 0.0999999
v -1.9 3.4 -2.38419e-07
v -1.8 3.4 -2.38419e-07
v -1.6 3.4 -2.38419e-07
v -1.5 3.4 -2.38419e-07
v -1.4 3.4 -2.38419e-07
v -1.3 3.4 -2.38419e-07
v -0.9 3.4 -2.38419e-07
v 1 3.4 -2.38419e-07
v 1.4 3.4 -2.38419e-07
v 1.5 3.4 -2.38419e-07
v 1.7 3.4 -2.38419e-07
v 1.8 3.4 -2.38419e-07
v 1.9 3.4 -2.38419e-07
v 2 3.4 -2.38419e-07
v -1.9 3.4 -0.1
v -1.8 3.4 -0.1
v -1.4 3.4 -0.1
v -1.3 3.4 -0.1
v -1.2 3.4 -0.1
v -1.1 3.4 -0.1
v -0.9 3.4 -0.1
v 1 3.4 -0.1
v 1.1 3.4 -0.1
v 1.2 3.4 -0.1
v 1.4 3.4 -0.1
v 1.5 3.4 -0.1
v 1.7 3.4 -0.1
v 1.8 3.4 -0.1
v 1.9 3.4 -0.1
v 2 3.4 -0.1
v -2 3.4 -0.2
v -1.9 3.4 -0.2
v -1.8 3.4 -0.2
v -1.4 3.4 -0.2
v -1.3 3.4 -0.2
v -1.2 3.4 -0.2
v -1.1 3.4 -0.2
v -0.9 3.4 -0.2
v -0.8 3.4 -0.2
v -0.7 3.4 -0.2
v 0.8 3.4 -0.2
v 0.9 3.4 -0.2
v 1 3.4 -0.2
v 1.1 3.4 -0.2
v 1.2 3.4 -0.2
v 1.4 3.4 -0.2
v 1.5 3.4 -0.2
v 1.9 3.4 -0.2
v 2 3.4 -0.2
v 2.1 3.4 -0.2
v -0.8 3.4 -0.3
v -0.7 3.4 -0.3
v 0.8 3.4 -0.3
v 0.9 3.4 -0.3
v -0.2 3.9 0.3
v 0.3 3.9 0.3
v -0.2 3.9 0.2
v 0.3 3.9 0.2
v -0.2 3.9 -0.3
v 0.3 3.9 -0.3
v -0.2 3.9 -0.4
v 0.3 3.9 -0.4
v -0.3 4 0.3
v -0.2 4 0.3
v 0.3 4 0.3
v 0.4 4 0.3
v -0.3 4 0.2
v -0.2 4 0.2
v 0.3 4 0.2
v 0.4 4 0.2
v -0.3 4 -0.3
v -0.2 4 -0.3
v 0.3 4 -0.3
v 0.4 4 -0.3
v -0.3 4 -0.4
v -0.2 4 -0.4
v 0.3 4 -0.4
v 0.4 4 -0.4
v -0.4 4.1 0.3
v -0.3 4.1 0.3
v 0.4 4.1 0.3
v 0.5 4.1 0.3
v -0.4 4.1 -0.4
v -0.3 4.1 -0.4
v 0.4 4.1 -0.4
v 0.5 4.1 -0.4
v -0.3 4.1 -0.5
v 0.4 4.1 -0.5
v -0.3 4.3 0.4
v -0.2 4.3 0.4
v 0.3 4.3 0.4
v 0.4 4.3 0.4
v -0.3 4.3 0.3
v -0.2 4.3 0.3
v 0.3 4.3 0.3
v 0.4 4.3 0.3
v -0.2 4.5 0.4
v 0.3 4.5 0.4
v -0.2 4.5 0.3
v 0.3 4.5 0.3
v 2.38419e-07 0.1 2
v 0.1 0.1 2
v -2 0.1 -2.38419e-07
v -0.7 0.1 -2.38419e-07
v -0.2 0.1 -2.38419e-07
v 2.38419e-07 0.1 -2.38419e-07
v 0.1 0.1 -2.38419e-07
v 0.3 0.1 -2.38419e-07
v 0.8 0.1 -2.38419e-07
v 2 0.1 -2.38419e-07
v -2 0.1 -0.1
v -0.7 0.1 -0.1
v -0.2 0.1 -0.1
v 2.38419e-07 0.1 -0.1
v 0.1 0.1 -0.1
v 0.3 0.1 -0.1
v 0.8 0.1 -0.1
v 2 0.1 -0.1
v 2.38419e-07 0.1 -2
v 0.1 0.1 -2
v -0.6 0.2 0.4
v -0.3 0.2 0.4
v 0.4 0.2 0.4
v 0.7 0.2 0.4
v -0.6 0.2 0.2
v -0.3 0.2 0.2
v 0.4 0.2 0.2
v 0.7 0.2 0.2
v -0.6 0.3 0.2
v -0.3 0.3 0.2
v 0.4 0.3 0.2
v 0.7 0.3 0.2
v -0.6 0.3 0.0999999
v -0.3 0.3 0.0999999
v 0.4 0.3 0.0999999
v 0.7 0.3 0.0999999
v -0.6 0.3 -0.2
v -0.3 0.3 -0.2
v 0.4 0.3 -0.2
v 0.7 0.3 -0.2
v -0.6 0.3 -0.3
v -0.3 0.3 -0.3
v 0.4 0.3 -0.3
v 0.7 0.3 -0.3
v -0.6 2.1 0.2
v -0.5 2.1 0.2
v 0.6 2.1 0.2
v 0.7 2.1 0.2
v -0.7 2.1 0.0999999
v -0.6 2.1 0.0999999
v -0.5 2.1 0.0999999
v 0.6 2.1 0.0999999
v 0.7 2.1 0.0999999
v 0.8 2.1 0.0999999
v -0.7 2.1 -2.38419e-07
v -0.6 2.1 -2.38419e-07
v 0.7 2.1 -2.38419e-07
v 0.8 2.1 -2.38419e-07
v -0.7 2.1 -0.1
v -0.6 2.1 -0.1
v 0.7 2.1 -0.1
v 0.8 2.1 -0.1
v -0.7 2.1 -0.2
v -0.6 2.1 -0.2
v -0.5 2.1 -0.2
v 0.6 2.1 -0.2
v 0.7 2.1 -0.2
v 0.8 2.1 -0.2
v -0.6 2.1 -0.3
v -0.5 2.1 -0.3
v 0.6 2.1 -0.3
v 0.7 2.1 -0.3
v -0.6 3.7 0.3
v -0.5 3.7 0.3
v 0.6 3.7 0.3
v 0.7 3.7 0.3
v -0.8 3.7 0.2
v -0.7 3.7 0.2
v -0.6 3.7 0.2
v -0.5 3.7 0.2
v 0.6 3.7 0.2
v 0.7 3.7 0.2
v 0.8 3.7 0.2
v 0.9 3.7 0.2
v -2 3.7 0.0999999
v -1.9 3.7 0.0999999
v -1.8 3.7 0.0999999
v -1.6 3.7 0.0999999
v -1.5 3.7 0.0999999
v -1.4 3.7 0.0999999
v -1.3 3.7 0.0999999
v -0.8 3.7 0.0999999
v -0.7 3.7 0.0999999
v 0.8 3.7 0.0999999
v 0.9 3.7 0.0999999
v 1.4 3.7 0.0999999
v 1.5 3.7 0.0999999
v 1.7 3.7 0.0999999
v 1.8 3.7 0.0999999
v 1.9 3.7 0.0999999
v 2 3.7 0.0999999
v 2.1 3.7 0.0999999
v -1.6 3.7 -2.38419e-07
v -1.5 3.7 -2.38419e-07
v -0.9 3.7 -2.38419e-07
v -0.8 3.7 -2.38419e-07
v 0.9 3.7 -2.38419e-07
v 1 3.7 -2.38419e-07
v 1.7 3.7 -2.38419e-07
v 1.8 3.7 -2.38419e-07
v -1 3.7 -0.1
v -0.9 3.7 -0.1
v -0.8 3.7 -0.1
v 0.9 3.7 -0.1
v 1 3.7 -0.1
v 1.1 3.7 -0.1
v 1.2 3.7 -0.1
v 1.7 3.7 -0.1
v 1.8 3.7 -0.1
v -2 3.7 -0.2
v -1.9 3.7 -0.2
v -1.8 3.7 -0.2
v -1.4 3.7 -0.2
v -1.3 3.7 -0.2
v -1 3.7 -0.2
v -0.9 3.7 -0.2
v -0.8 3.7 -0.2
v -0.7 3.7 -0.2
v 0.8 3.7 -0.2
v 0.9 3.7 -0.2
v 1.1 3.7 -0.2
v 1.2 3.7 -0.2
v 1.4 3.7 -0.2
v 1.5 3.7 -0.2
v 1.7 3.7 -0.2
v 1.8 3.7 -0.2
v 1.9 3.7 -0.2
v 2 3.7 -0.2
v 2.1 3.7 -0.2
v -0.8 3.7 -0.3
v -0.7 3.7 -0.3
v -0.6 3.7 -0.3
v -0.5 3.7 -0.3
v 0.6 3.7 -0.3
v 0.7 3.7 -0.3
v 0.8 3.7 -0.3
v 0.9 3.7 -0.3
v -0.6 3.7 -0.4
v -0.5 3.7 -0.4
v 0.6 3.7 -0.4
v 0.7 3.7 -0.4
v -0.5 3.8 0.3
v 0.6 3.8 0.3
v -0.7 3.8 0.2
v -0.6 3.8 0.2
v -0.5 3.8 0.2
v -0.4 3.8 0.2
v 0.6 3.8 0.2
v 0.7 3.8 0.2
v 0.8 3.8 0.2
v -0.8 3.8 0.0999999
v -0.7 3.8 0.0999999
v -0.6 3.8 0.0999999
v 0.7 3.8 0.0999999
v 0.8 3.8 0.0999999
v 0.9 3.8 0.0999999
v -0.9 3.8 -2.38419e-07
v -0.8 3.8 -2.38419e-07
v -0.7 3.8 -2.38419e-07
v 0.8 3.8 -2.38419e-07
v 0.9 3.8 -2.38419e-07
v 1 3.8 -2.38419e-07
v -0.9 3.8 -0.1
v -0.8 3.8 -0.1
v -0.7 3.8 -0.1
v 0.8 3.8 -0.1
v 0.9 3.8 -0.1
v 1 3.8 -0.1
v -0.8 3.8 -0.2
v -0.7 3.8 -0.2
v -0.6 3.8 -0.2
v 0.7 3.8 -0.2
v 0.8 3.8 -0.2
v 0.9 3.8 -0.2
v -0.7 3.8 -0.3
v -0.6 3.8 -0.3
v -0.5 3.8 -0.3
v 0.6 3.8 -0.3
v 0.7 3.8 -0.3
v 0.8 3.8 -0.3
v -0.5 3.8 -0.4
v 0.6 3.8 -0.4
v -0.6 3.9 0.2
v -0.5 3.9 0.2
v -0.4 3.9 0.2
v -0.3 3.9 0.2
v 0.4 3.9 0.2
v 0.7 3.9 0.2
v -0.7 3.9 0.0999999
v -0.6 3.9 0.0999999
v -0.5 3.9 0.0999999
v -0.4 3.9 0.0999999
v 0.7 3.9 0.0999999
v 0.8 3.9 0.0999999
v -0.7 3.9 -2.38419e-07
v -0.6 3.9 -2.38419e-07
v 0.7 3.9 -2.38419e-07
v 0.8 3.9 -2.38419e-07
v -0.7 3.9 -0.1
v -0.6 3.9 -0.1
v -0.5 3.9 -0.1
v 0.7 3.9 -0.1
v 0.8 3.9 -0.1
v -0.7 3.9 -0.2
v -0.6 3.9 -0.2
v -0.5 3.9 -0.2
v 0.7 3.9 -0.2
v 0.8 3.9 -0.2
v -0.6 3.9 -0.3
v -0.3 3.9 -0.3
v 0.4 3.9 -0.3
v 0.7 3.9 -0.3
v -0.3 4.5 0.4
v -0.2 4.5 0.4
v 0.3 4.5 0.4
v 0.4 4.5 0.4
v -0.4 4.5 0.3
v -0.3 4.5 0.3
v -0.2 4.5 0.3
v 0.3 4.5 0.3
v 0.4 4.5 0.3
v 0.5 4.5 0.3
v -0.4 4.5 0.2
v -0.3 4.5 0.2
v 0.4 4.5 0.2
v 0.5 4.5 0.2
v -0.4 4.5 -0.3
v -0.3 4.5 -0.3
v 0.4 4.5 -0.3
v 0.5 4.5 -0.3
v -0.4 4.5 -0.4
v -0.3 4.5 -0.4
v -0.2 4.5 -0.4
v 0.3 4.5 -0.4
v 0.4 4.5 -0.4
v 0.5 4.5 -0.4
v -0.3 4.5 -0.5
v -0.2 4.5 -0.5
v 0.3 4.5 -0.5
v 0.4 4.5 -0.5
v -0.2 4.6 0.4
v 0.3 4.6 0.4
v -0.3 4.6 0.3
v -0.2 4.6 0.3
v 0.3 4.6 0.3
v 0.4 4.6 0.3
v -0.4 4.6 0.2
v -0.3 4.6 0.2
v -0.2 4.6 0.2
v 0.3 4.6 0.2
v 0.4 4.6 0.2
v 0.5 4.6 0.2
v -0.4 4.6 -0.3
v -0.3 4.6 -0.3
v -0.2 4.6 -0.3
v 0.3 4.6 -0.3
v 0.4 4.6 -0.3
v 0.5 4.6 -0.3
v -0.3 4.6 -0.4
v -0.2 4.6 -0.4
v 0.3 4.6 -0.4
v 0.4 4.6 -0.4
v -0.2 4.6 -0.5
v 0.3 4.6 -0.5
v -0.2 4.7 0.3
v 0.3 4.7 0.3
v -0.3 4.7 0.2
v -0.2 4.7 0.2
v 0.3 4.7 0.2
v 0.4 4.7 0.2
v -0.3 4.7 -0.3
v -0.2 4.7 -0.3
v 0.3 4.7 -0.3
v 0.4 4.7 -0.3
v -0.2 4.7 -0.4
v 0.3 4.7 -0.4

# faces
f 3/2/1 2/2/1 1/2/1
f 4/2/1 2/2/1 3/2/1
f 7/11/1 6/11/1 5/11/1
f 8/11/1 6/11/1 7/11/1
f 11/12/1 10/12/1 9/12/1
f 12/12/1 10/12/1 11/12/1
f 17/6/1 14/6/1 13/6/1
f 18/6/1 14/6/1 17/6/1
f 19/6/1 16/6/1 15/6/1
f 20/6/1 16/6/1 19/6/1
f 23/6/1 22/6/1 21/6/1
f 24/6/1 22/6/1 23/6/1
f 28/6/1 26/6/1 25/6/1
f 29/6/1 26/6/1 28/6/1
f 31/9/1 28/9/1 27/9/1
f 32/6/1 30/6/1 29/6/1
f 32/9/1 28/9/1 31/9/1
f 32/6/1 29/6/1 28/6/1
f 33/6/1 32/6/1 31/6/1
f 34/6/1 30/6/1 32/6/1
f 34/6/1 32/6/1 33/6/1
f 39/6/1 36/6/1 35/6/1
f 40/6/1 36/6/1 39/6/1
f 43/6/1 38/6/1 37/6/1
f 44/6/1 38/6/1 43/6/1
f 45/6/1 41/6/1 40/6/1
f 46/6/1 41/6/1 45/6/1
f 47/6/1 43/6/1 42/6/1
f 48/6/1 43/6/1 47/6/1
f 51/3/1 50/3/1 49/3/1
f 52/3/1 50/3/1 51/3/1
f 53/4/1 52/4/1 51/4/1
f 54/4/1 52/4/1 53/4/1
f 55/3/1 54/3/1 53/3/1
f 56/3/1 54/3/1 55/3/1
f 57/3/1 54/3/1 56/3/1
f 58/3/1 54/3/1 57/3/1
f 59/3/1 57/3/1 56/3/1
f 60/3/1 57/3/1 59/3/1
f 62/6/1 60/6/1 59/6/1
f 63/6/1 60/6/1 62/6/1
f 66/6/1 63/6/1 62/6/1
f 66/6/1 64/6/1 63/6/1
f 66/6/1 62/6/1 61/6/1
f 67/6/1 64/6/1 66/6/1
f 69/9/1 66/9/1 65/9/1
f 70/6/1 67/6/1 66/6/1
f 70/9/1 66/9/1 69/9/1
f 70/6/1 68/6/1 67/6/1
f 71/6/1 68/6/1 70/6/1
f 72/6/1 68/6/1 71/6/1
f 73/6/1 70/6/1 69/6/1
f 73/6/1 71/6/1 70/6/1
f 73/5/1 72/5/1 71/5/1
f 74/6/1 68/6/1 72/6/1
f 74/5/1 72/5/1 73/5/1
f 75/6/1 73/6/1 69/6/1
f 75/6/1 74/6/1 73/6/1
f 76/6/1 68/6/1 74/6/1
f 76/6/1 74/6/1 75/6/1
f 77/6/1 75/6/1 69/6/1
f 78/6/1 75/6/1 77/6/1
f 79/6/1 68/6/1 76/6/1
f 80/6/1 68/6/1 79/6/1
f 81/6/1 77/6/1 69/6/1
f 82/6/1 68/6/1 80/6/1
f 83/6/1 68/6/1 82/6/1
f 84/8/1 83/8/1 82/8/1
f 85/8/1 83/8/1 84/8/1
f 86/6/1 81/6/1 69/6/1
f 87/6/1 81/6/1 86/6/1
f 88/6/1 85/6/1 84/6/1
f 89/6/1 85/6/1 88/6/1
f 94/6/1 91/6/1 90/6/1
f 95/6/1 91/6/1 94/6/1
f 98/6/1 93/6/1 92/6/1
f 99/6/1 93/6/1 98/6/1
f 100/6/1 96/6/1 95/6/1
f 101/5/1 97/5/1 96/5/1
f 101/6/1 96/6/1 100/6/1
f 102/6/1 98/6/1 97/6/1
f 102/5/1 97/5/1 101/5/1
f 103/6/1 98/6/1 102/6/1
f 106/10/1 105/10/1 104/10/1
f 107/10/1 105/10/1 106/10/1
f 108/13/1 107/13/1 106/13/1
f 109/13/1 107/13/1 108/13/1
f 110/13/1 107/13/1 109/13/1
f 111/13/1 107/13/1 110/13/1
f 112/13/1 107/13/1 111/13/1
f 113/13/1 107/13/1 112/13/1
f 115/13/1 112/13/1 111/13/1
f 116/13/1 112/13/1 115/13/1
f 118/3/1 115/3/1 114/3/1
f 119/3/1 115/3/1 118/3/1
f 120/3/1 117/3/1 116/3/1
f 121/3/1 117/3/1 120/3/1
f 122/4/1 119/4/1 118/4/1
f 123/4/1 119/4/1 122/4/1
f 124/4/1 121/4/1 120/4/1
f 125/4/1 121/4/1 124/4/1
f 126/3/1 123/3/1 122/3/1
f 127/3/1 123/3/1 126/3/1
f 130/3/1 125/3/1 124/3/1
f 131/3/1 125/3/1 130/3/1
f 133/3/1 128/3/1 127/3/1
f 134/3/1 128/3/1 133/3/1
f 135/3/1 130/3/1 129/3/1
f 136/3/1 130/3/1 135/3/1
f 138/6/1 134/6/1 133/6/1
f 138/6/1 133/6/1 132/6/1
f 139/6/1 134/6/1 138/6/1
f 140/6/1 137/6/1 136/6/1
f 140/6/1 136/6/1 135/6/1
f 141/6/1 137/6/1 140/6/1
f 142/6/1 137/6/1 141/6/1
f 144/6/1 138/6/1 132/6/1
f 145/6/1 138/6/1 144/6/1
f 146/6/1 142/6/1 141/6/1
f 146/6/1 143/6/1 142/6/1
f 147/6/1 143/6/1 146/6/1
f 150/6/1 149/6/1 148/6/1
f 151/6/1 149/6/1 150/6/1
f 152/6/1 143/6/1 147/6/1
f 153/6/1 143/6/1 152/6/1
f 154/5/1 151/5/1 150/5/1
f 155/5/1 151/5/1 154/5/1
f 156/5/1 153/5/1 152/5/1
f 157/5/1 153/5/1 156/5/1
f 158/6/1 157/6/1 156/6/1
f 159/6/1 155/6/1 154/6/1
f 160/6/1 155/6/1 159/6/1
f 161/6/1 157/6/1 158/6/1
f 162/9/1 160/9/1 159/9/1
f 163/9/1 160/9/1 162/9/1
f 164/6/1 163/6/1 162/6/1
f 165/6/1 163/6/1 164/6/1
f 166/6/1 157/6/1 161/6/1
f 167/6/1 157/6/1 166/6/1
f 172/6/1 169/6/1 168/6/1
f 173/6/1 169/6/1 172/6/1
f 174/6/1 171/6/1 170/6/1
f 175/6/1 171/6/1 174/6/1
f 180/3/1 177/3/1 176/3/1
f 181/3/1 177/3/1 180/3/1
f 182/3/1 179/3/1 178/3/1
f 183/3/1 179/3/1 182/3/1
f 185/8/1 184/8/1 183/8/1
f 186/8/1 184/8/1 185/8/1
f 189/6/1 188/6/1 187/6/1
f 190/6/1 188/6/1 189/6/1
f 195/6/1 192/6/1 191/6/1
f 196/6/1 192/6/1 195/6/1
f 197/6/1 194/6/1 193/6/1
f 198/6/1 194/6/1 197/6/1
f 201/6/1 200/6/1 199/6/1
f 202/6/1 200/6/1 201/6/1
f 205/7/1 204/7/1 203/7/1
f 206/7/1 204/7/1 205/7/1
f 207/7/1 204/7/1 206/7/1
f 208/7/1 204/7/1 207/7/1
f 209/7/1 207/7/1 206/7/1
f 210/7/1 207/7/1 209/7/1
f 214/1/1 212/1/1 211/1/1
f 215/1/1 212/1/1 214/1/1
f 217/1/1 214/1/1 213/1/1
f 217/1/1 216/1/1 215/1/1
f 217/1/1 215/1/1 214/1/1
f 218/1/1 216/1/1 217/1/1
f 222/7/1 221/7/1 220/7/1
f 223/7/1 221/7/1 222/7/1
f 226/7/1 219/7/1 218/7/1
f 227/7/1 219/7/1 226/7/1
f 228/7/1 224/7/1 223/7/1
f 229/7/1 224/7/1 228/7/1
f 230/7/1 226/7/1 225/7/1
f 231/7/1 226/7/1 230/7/1
f 232/7/1 230/7/1 229/7/1
f 233/7/1 230/7/1 232/7/1
f 236/2/1 235/2/1 234/2/1
f 237/2/1 235/2/1 236/2/1
f 242/1/1 239/1/1 238/1/1
f 243/1/1 239/1/1 242/1/1
f 244/1/1 241/1/1 240/1/1
f 245/1/1 241/1/1 244/1/1
f 250/7/1 247/7/1 246/7/1
f 251/7/1 247/7/1 250/7/1
f 254/7/1 249/7/1 248/7/1
f 255/7/1 249/7/1 254/7/1
f 256/7/1 252/7/1 251/7/1
f 257/7/1 252/7/1 256/7/1
f 258/7/1 254/7/1 253/7/1
f 259/7/1 254/7/1 258/7/1
f 264/2/1 261/2/1 260/2/1
f 265/2/1 261/2/1 264/2/1
f 266/2/1 263/2/1 262/2/1
f 267/2/1 263/2/1 266/2/1
f 272/3/1 269/3/1 268/3/1
f 273/3/1 269/3/1 272/3/1
f 274/3/1 271/3/1 270/3/1
f 275/3/1 271/3/1 274/3/1
f 279/3/1 277/3/1 276/3/1
f 280/3/1 277/3/1 279/3/1
f 282/3/1 279/3/1 278/3/1
f 283/3/1 279/3/1 282/3/1
f 284/3/1 281/3/1 280/3/1
f 285/3/1 281/3/1 284/3/1
f 288/3/1 287/3/1 286/3/1
f 289/3/1 287/3/1 288/3/1
f 290/4/1 289/4/1 288/4/1
f 291/4/1 289/4/1 290/4/1
f 293/3/1 291/3/1 290/3/1
f 294/3/1 291/3/1 293/3/1
f 296/3/1 293/3/1 292/3/1
f 297/3/1 293/3/1 296/3/1
f 298/3/1 295/3/1 294/3/1
f 299/3/1 295/3/1 298/3/1
f 302/7/1 301/7/1 300/7/1
f 303/7/1 301/7/1 302/7/1
f 306/10/1 305/10/1 304/10/1
f 307/10/1 305/10/1 306/10/1
f 308/13/1 307/13/1 306/13/1
f 309/13/1 307/13/1 308/13/1
f 310/13/1 307/13/1 309/13/1
f 311/13/1 307/13/1 310/13/1
f 312/13/1 307/13/1 311/13/1
f 313/13/1 307/13/1 312/13/1
f 315/13/1 312/13/1 311/13/1
f 316/13/1 312/13/1 315/13/1
f 318/3/1 315/3/1 314/3/1
f 319/3/1 315/3/1 318/3/1
f 320/3/1 317/3/1 316/3/1
f 321/3/1 317/3/1 320/3/1
f 322/4/1 319/4/1 318/4/1
f 323/4/1 319/4/1 322/4/1
f 324/4/1 321/4/1 320/4/1
f 325/4/1 321/4/1 324/4/1
f 326/3/1 323/3/1 322/3/1
f 327/3/1 323/3/1 326/3/1
f 328/3/1 325/3/1 324/3/1
f 329/3/1 325/3/1 328/3/1
f 332/2/1 331/2/1 330/2/1
f 333/2/1 331/2/1 332/2/1
f 334/2/2 335/2/2 336/2/2
f 336/2/2 335/2/2 337/2/2
f 338/10/2 339/10/2 340/10/2
f 340/10/2 339/10/2 341/10/2
f 340/13/2 341/13/2 342/13/2
f 342/13/2 341/13/2 343/13/2
f 343/13/2 341/13/2 344/13/2
f 344/13/2 341/13/2 345/13/2
f 345/13/2 341/13/2 346/13/2
f 346/13/2 341/13/2 347/13/2
f 345/13/2 346/13/2 349/13/2
f 349/13/2 346/13/2 350/13/2
f 348/3/2 349/3/2 352/3/2
f 352/3/2 349/3/2 353/3/2
f 350/3/2 351/3/2 354/3/2
f 354/3/2 351/3/2 355/3/2
f 352/4/2 353/4/2 356/4/2
f 356/4/2 353/4/2 357/4/2
f 354/4/2 355/4/2 358/4/2
f 358/4/2 355/4/2 359/4/2
f 356/3/2 357/3/2 360/3/2
f 360/3/2 357/3/2 361/3/2
f 358/3/2 359/3/2 362/3/2
f 362/3/2 359/3/2 363/3/2
f 364/3/2 365/3/2 366/3/2
f 366/3/2 365/3/2 367/3/2
f 366/4/2 367/4/2 368/4/2
f 368/4/2 367/4/2 369/4/2
f 368/3/2 369/3/2 371/3/2
f 371/3/2 369/3/2 372/3/2
f 370/3/2 371/3/2 374/3/2
f 374/3/2 371/3/2 375/3/2
f 372/3/2 373/3/2 376/3/2
f 376/3/2 373/3/2 377/3/2
f 378/7/2 379/7/2 380/7/2
f 380/7/2 379/7/2 381/7/2
f 382/3/2 383/3/2 385/3/2
f 385/3/2 383/3/2 386/3/2
f 384/3/2 385/3/2 388/3/2
f 388/3/2 385/3/2 389/3/2
f 386/3/2 387/3/2 390/3/2
f 390/3/2 387/3/2 391/3/2
f 392/3/2 393/3/2 396/3/2
f 396/3/2 393/3/2 397/3/2
f 394/3/2 395/3/2 398/3/2
f 398/3/2 395/3/2 399/3/2
f 400/2/2 401/2/2 404/2/2
f 404/2/2 401/2/2 405/2/2
f 402/2/2 403/2/2 406/2/2
f 406/2/2 403/2/2 407/2/2
f 408/2/2 409/2/2 410/2/2
f 410/2/2 409/2/2 411/2/2
f 412/1/2 413/1/2 416/1/2
f 416/1/2 413/1/2 417/1/2
f 414/1/2 415/1/2 418/1/2
f 418/1/2 415/1/2 419/1/2
f 420/7/2 421/7/2 424/7/2
f 424/7/2 421/7/2 425/7/2
f 422/7/2 423/7/2 428/7/2
f 428/7/2 423/7/2 429/7/2
f 425/7/2 426/7/2 430/7/2
f 430/7/2 426/7/2 431/7/2
f 427/7/2 428/7/2 432/7/2
f 432/7/2 428/7/2 433/7/2
f 434/1/2 435/1/2 437/1/2
f 437/1/2 435/1/2 438/1/2
f 436/1/2 437/1/2 440/1/2
f 438/1/2 439/1/2 440/1/2
f 437/1/2 438/1/2 440/1/2
f 440/1/2 439/1/2 441/1/2
f 443/7/2 444/7/2 445/7/2
f 445/7/2 444/7/2 446/7/2
f 441/7/2 442/7/2 449/7/2
f 449/7/2 442/7/2 450/7/2
f 446/7/2 447/7/2 451/7/2
f 451/7/2 447/7/2 452/7/2
f 448/7/2 449/7/2 453/7/2
f 453/7/2 449/7/2 454/7/2
f 452/7/2 453/7/2 455/7/2
f 455/7/2 453/7/2 456/7/2
f 457/6/2 458/6/2 459/6/2
f 459/6/2 458/6/2 460/6/2
f 461/7/2 462/7/2 463/7/2
f 463/7/2 462/7/2 464/7/2
f 464/7/2 462/7/2 465/7/2
f 465/7/2 462/7/2 466/7/2
f 464/7/2 465/7/2 467/7/2
f 467/7/2 465/7/2 468/7/2
f 469/3/2 470/3/2 473/3/2
f 473/3/2 470/3/2 474/3/2
f 471/3/2 472/3/2 475/3/2
f 475/3/2 472/3/2 476/3/2
f 476/6/2 477/6/2 478/6/2
f 478/6/2 477/6/2 479/6/2
f 480/6/2 481/6/2 482/6/2
f 482/6/2 481/6/2 483/6/2
f 484/6/2 485/6/2 488/6/2
f 488/6/2 485/6/2 489/6/2
f 486/6/2 487/6/2 490/6/2
f 490/6/2 487/6/2 491/6/2
f 492/10/2 493/10/2 494/10/2
f 494/10/2 493/10/2 495/10/2
f 494/13/2 495/13/2 496/13/2
f 496/13/2 495/13/2 497/13/2
f 497/13/2 495/13/2 498/13/2
f 498/13/2 495/13/2 499/13/2
f 499/13/2 495/13/2 500/13/2
f 500/13/2 495/13/2 501/13/2
f 499/13/2 500/13/2 503/13/2
f 503/13/2 500/13/2 504/13/2
f 502/3/2 503/3/2 506/3/2
f 506/3/2 503/3/2 507/3/2
f 504/3/2 505/3/2 508/3/2
f 508/3/2 505/3/2 509/3/2
f 506/4/2 507/4/2 510/4/2
f 510/4/2 507/4/2 511/4/2
f 508/4/2 509/4/2 512/4/2
f 512/4/2 509/4/2 513/4/2
f 510/3/2 511/3/2 514/3/2
f 514/3/2 511/3/2 515/3/2
f 512/3/2 513/3/2 518/3/2
f 518/3/2 513/3/2 519/3/2
f 515/3/2 516/3/2 521/3/2
f 521/3/2 516/3/2 522/3/2
f 517/3/2 518/3/2 523/3/2
f 523/3/2 518/3/2 524/3/2
f 521/6/2 522/6/2 526/6/2
f 520/6/2 521/6/2 526/6/2
f 526/6/2 522/6/2 527/6/2
f 524/6/2 525/6/2 528/6/2
f 523/6/2 524/6/2 528/6/2
f 528/6/2 525/6/2 529/6/2
f 529/6/2 525/6/2 530/6/2
f 520/6/2 526/6/2 532/6/2
f 532/6/2 526/6/2 533/6/2
f 529/6/2 530/6/2 534/6/2
f 530/6/2 531/6/2 534/6/2
f 534/6/2 531/6/2 535/6/2
f 535/6/2 531/6/2 538/6/2
f 538/6/2 531/6/2 539/6/2
f 536/6/2 537/6/2 540/6/2
f 539/6/2 531/6/2 541/6/2
f 541/6/2 531/6/2 542/6/2
f 536/6/2 540/6/2 543/6/2
f 541/8/2 542/8/2 544/8/2
f 544/8/2 542/8/2 545/8/2
f 536/6/2 543/6/2 546/6/2
f 536/6/2 546/6/2 547/6/2
f 544/6/2 545/6/2 548/6/2
f 548/6/2 545/6/2 549/6/2
f 536/6/2 547/6/2 550/6/2
f 550/6/2 547/6/2 551/6/2
f 549/6/2 545/6/2 552/6/2
f 552/6/2 545/6/2 553/6/2
f 554/6/2 555/6/2 558/6/2
f 558/6/2 555/6/2 559/6/2
f 556/6/2 557/6/2 560/6/2
f 560/6/2 557/6/2 561/6/2
f 562/3/2 563/3/2 564/3/2
f 564/3/2 563/3/2 565/3/2
f 564/4/2 565/4/2 566/4/2
f 566/4/2 565/4/2 567/4/2
f 566/3/2 567/3/2 568/3/2
f 568/3/2 567/3/2 569/3/2
f 569/3/2 567/3/2 570/3/2
f 570/3/2 567/3/2 571/3/2
f 569/3/2 570/3/2 572/3/2
f 572/3/2 570/3/2 573/3/2
f 572/6/2 573/6/2 575/6/2
f 575/6/2 573/6/2 576/6/2
f 575/6/2 576/6/2 579/6/2
f 576/6/2 577/6/2 579/6/2
f 574/6/2 575/6/2 579/6/2
f 579/6/2 577/6/2 580/6/2
f 579/6/2 580/6/2 582/6/2
f 580/6/2 581/6/2 582/6/2
f 578/6/2 579/6/2 582/6/2
f 582/6/2 581/6/2 583/6/2
f 583/6/2 581/6/2 584/6/2
f 584/6/2 581/6/2 585/6/2
f 578/6/2 582/6/2 586/6/2
f 582/8/2 583/8/2 586/8/2
f 583/6/2 584/6/2 587/6/2
f 586/8/2 583/8/2 587/8/2
f 584/9/2 585/9/2 588/9/2
f 587/6/2 584/6/2 588/6/2
f 588/9/2 585/9/2 589/9/2
f 586/6/2 587/6/2 590/6/2
f 578/6/2 586/6/2 590/6/2
f 588/6/2 589/6/2 590/6/2
f 587/6/2 588/6/2 590/6/2
f 590/6/2 589/6/2 591/6/2
f 578/6/2 590/6/2 592/6/2
f 592/6/2 590/6/2 593/6/2
f 593/6/2 590/6/2 594/6/2
f 591/6/2 589/6/2 595/6/2
f 595/6/2 589/6/2 596/6/2
f 592/8/2 593/8/2 597/8/2
f 597/8/2 593/8/2 598/8/2
f 597/6/2 598/6/2 599/6/2
f 599/6/2 598/6/2 600/6/2
f 599/9/2 600/9/2 601/9/2
f 601/9/2 600/9/2 602/9/2
f 596/6/2 589/6/2 603/6/2
f 603/6/2 589/6/2 604/6/2
f 603/9/2 604/9/2 605/9/2
f 605/9/2 604/9/2 606/9/2
f 601/6/2 602/6/2 607/6/2
f 607/6/2 602/6/2 608/6/2
f 605/6/2 606/6/2 609/6/2
f 609/6/2 606/6/2 610/6/2
f 611/6/2 612/6/2 615/6/2
f 615/6/2 612/6/2 616/6/2
f 613/6/2 614/6/2 619/6/2
f 619/6/2 614/6/2 620/6/2
f 616/5/2 617/5/2 621/5/2
f 617/6/2 618/6/2 622/6/2
f 621/5/2 617/5/2 622/5/2
f 618/9/2 619/9/2 623/9/2
f 622/6/2 618/6/2 623/6/2
f 623/9/2 619/9/2 624/9/2
f 625/6/2 626/6/2 628/6/2
f 628/6/2 626/6/2 629/6/2
f 627/6/2 628/6/2 631/6/2
f 629/6/2 630/6/2 631/6/2
f 628/6/2 629/6/2 631/6/2
f 631/6/2 630/6/2 632/6/2
f 633/6/2 634/6/2 637/6/2
f 637/6/2 634/6/2 638/6/2
f 637/9/2 638/9/2 639/9/2
f 639/9/2 638/9/2 640/9/2
f 639/6/2 640/6/2 641/6/2
f 641/6/2 640/6/2 642/6/2
f 635/6/2 636/6/2 645/6/2
f 645/6/2 636/6/2 646/6/2
f 642/6/2 643/6/2 647/6/2
f 647/6/2 643/6/2 648/6/2
f 644/6/2 645/6/2 649/6/2
f 649/6/2 645/6/2 650/6/2
f 651/6/2 652/6/2 655/6/2
f 655/6/2 652/6/2 656/6/2
f 653/6/2 654/6/2 657/6/2
f 657/6/2 654/6/2 658/6/2
f 659/6/2 660/6/2 661/6/2
f 661/6/2 660/6/2 662/6/2
f 663/2/2 664/2/2 665/2/2
f 665/2/2 664/2/2 666/2/2
f 667/12/2 668/12/2 669/12/2
f 669/12/2 668/12/2 670/12/2
f 671/11/2 672/11/2 673/11/2
f 673/11/2 672/11/2 674/11/2
f 677/2/3 676/2/3 675/2/3
f 678/2/3 676/2/3 677/2/3
f 682/10/3 680/10/3 679/10/3
f 683/13/3 681/13/3 680/13/3
f 683/10/3 680/10/3 682/10/3
f 684/13/3 681/13/3 683/13/3
f 687/7/3 686/7/3 685/7/3
f 688/7/3 686/7/3 687/7/3
f 691/7/3 689/7/3 688/7/3
f 692/7/3 689/7/3 691/7/3
f 696/7/3 691/7/3 690/7/3
f 697/7/3 691/7/3 696/7/3
f 698/10/3 694/10/3 693/10/3
f 699/13/3 695/13/3 694/13/3
f 699/10/3 694/10/3 698/10/3
f 700/13/3 695/13/3 699/13/3
f 708/6/3 702/6/3 701/6/3
f 709/5/3 703/5/3 702/5/3
f 709/6/3 702/6/3 708/6/3
f 710/6/3 704/6/3 703/6/3
f 710/5/3 703/5/3 709/5/3
f 711/6/3 704/6/3 710/6/3
f 712/6/3 704/6/3 711/6/3
f 713/9/3 705/9/3 704/9/3
f 713/6/3 704/6/3 712/6/3
f 714/6/3 706/6/3 705/6/3
f 714/9/3 705/9/3 713/9/3
f 715/6/3 706/6/3 714/6/3
f 718/6/3 708/6/3 707/6/3
f 718/6/3 709/6/3 708/6/3
f 718/6/3 710/6/3 709/6/3
f 718/6/3 711/6/3 710/6/3
f 719/6/3 711/6/3 718/6/3
f 720/6/3 711/6/3 719/6/3
f 721/8/3 712/8/3 711/8/3
f 721/6/3 711/6/3 720/6/3
f 722/6/3 713/6/3 712/6/3
f 722/8/3 712/8/3 721/8/3
f 722/6/3 716/6/3 715/6/3
f 722/6/3 715/6/3 714/6/3
f 722/6/3 714/6/3 713/6/3
f 723/6/3 716/6/3 722/6/3
f 724/6/3 716/6/3 723/6/3
f 725/6/3 716/6/3 724/6/3
f 726/6/3 716/6/3 725/6/3
f 729/6/3 719/6/3 718/6/3
f 729/6/3 718/6/3 717/6/3
f 729/9/3 720/9/3 719/9/3
f 730/6/3 721/6/3 720/6/3
f 730/9/3 720/9/3 729/9/3
f 730/6/3 722/6/3 721/6/3
f 730/6/3 723/6/3 722/6/3
f 731/6/3 723/6/3 730/6/3
f 732/6/3 723/6/3 731/6/3
f 733/8/3 724/8/3 723/8/3
f 733/6/3 723/6/3 732/6/3
f 734/6/3 725/6/3 724/6/3
f 734/8/3 724/8/3 733/8/3
f 735/5/3 726/5/3 725/5/3
f 735/6/3 725/6/3 734/6/3
f 736/6/3 716/6/3 726/6/3
f 736/5/3 726/5/3 735/5/3
f 738/7/3 728/7/3 727/7/3
f 739/7/3 728/7/3 738/7/3
f 740/7/3 728/7/3 739/7/3
f 742/6/3 729/6/3 717/6/3
f 742/6/3 730/6/3 729/6/3
f 742/6/3 731/6/3 730/6/3
f 743/6/3 731/6/3 742/6/3
f 744/6/3 731/6/3 743/6/3
f 745/6/3 731/6/3 744/6/3
f 746/5/3 732/5/3 731/5/3
f 746/6/3 731/6/3 745/6/3
f 747/6/3 735/6/3 734/6/3
f 747/5/3 732/5/3 746/5/3
f 747/6/3 734/6/3 733/6/3
f 747/6/3 733/6/3 732/6/3
f 747/6/3 736/6/3 735/6/3
f 748/6/3 736/6/3 747/6/3
f 749/6/3 736/6/3 748/6/3
f 751/1/3 739/1/3 738/1/3
f 751/1/3 738/1/3 737/1/3
f 752/1/3 739/1/3 751/1/3
f 753/7/3 741/7/3 740/7/3
f 754/7/3 741/7/3 753/7/3
f 756/5/3 743/5/3 742/5/3
f 756/6/3 742/6/3 717/6/3
f 757/6/3 744/6/3 743/6/3
f 757/5/3 743/5/3 756/5/3
f 758/8/3 745/8/3 744/8/3
f 758/6/3 744/6/3 757/6/3
f 759/6/3 746/6/3 745/6/3
f 759/8/3 745/8/3 758/8/3
f 759/6/3 747/6/3 746/6/3
f 759/6/3 748/6/3 747/6/3
f 760/6/3 748/6/3 759/6/3
f 761/6/3 748/6/3 760/6/3
f 762/8/3 749/8/3 748/8/3
f 762/6/3 748/6/3 761/6/3
f 763/6/3 736/6/3 749/6/3
f 763/8/3 749/8/3 762/8/3
f 764/6/3 736/6/3 763/6/3
f 765/6/3 716/6/3 736/6/3
f 765/6/3 736/6/3 764/6/3
f 766/6/3 758/6/3 757/6/3
f 766/6/3 757/6/3 756/6/3
f 766/5/3 761/5/3 760/5/3
f 766/6/3 759/6/3 758/6/3
f 766/6/3 760/6/3 759/6/3
f 767/6/3 764/6/3 763/6/3
f 767/5/3 761/5/3 766/5/3
f 767/6/3 762/6/3 761/6/3
f 767/6/3 763/6/3 762/6/3
f 768/9/3 765/9/3 764/9/3
f 768/6/3 764/6/3 767/6/3
f 769/6/3 716/6/3 765/6/3
f 769/9/3 765/9/3 768/9/3
f 770/6/3 766/6/3 756/6/3
f 770/6/3 768/6/3 767/6/3
f 770/6/3 769/6/3 768/6/3
f 770/6/3 756/6/3 717/6/3
f 770/6/3 767/6/3 766/6/3
f 771/6/3 769/6/3 770/6/3
f 772/6/3 769/6/3 771/6/3
f 773/6/3 769/6/3 772/6/3
f 774/6/3 769/6/3 773/6/3
f 775/6/3 769/6/3 774/6/3
f 776/6/3 770/6/3 717/6/3
f 776/8/3 771/8/3 770/8/3
f 777/6/3 772/6/3 771/6/3
f 777/8/3 771/8/3 776/8/3
f 778/5/3 773/5/3 772/5/3
f 778/6/3 772/6/3 777/6/3
f 779/6/3 774/6/3 773/6/3
f 779/5/3 773/5/3 778/5/3
f 780/6/3 774/6/3 779/6/3
f 781/6/3 774/6/3 780/6/3
f 782/8/3 775/8/3 774/8/3
f 782/6/3 774/6/3 781/6/3
f 783/6/3 769/6/3 775/6/3
f 783/8/3 775/8/3 782/8/3
f 784/6/3 776/6/3 717/6/3
f 784/6/3 777/6/3 776/6/3
f 784/6/3 778/6/3 777/6/3
f 784/6/3 780/6/3 779/6/3
f 784/6/3 779/6/3 778/6/3
f 785/6/3 780/6/3 784/6/3
f 786/9/3 781/9/3 780/9/3
f 786/6/3 780/6/3 785/6/3
f 787/6/3 782/6/3 781/6/3
f 787/9/3 781/9/3 786/9/3
f 787/6/3 783/6/3 782/6/3
f 788/6/3 769/6/3 783/6/3
f 788/6/3 783/6/3 787/6/3
f 789/6/3 716/6/3 769/6/3
f 789/6/3 769/6/3 788/6/3
f 790/1/3 752/1/3 751/1/3
f 790/1/3 753/1/3 752/1/3
f 790/1/3 751/1/3 750/1/3
f 791/1/3 753/1/3 790/1/3
f 792/1/3 753/1/3 791/1/3
f 793/1/3 753/1/3 792/1/3
f 794/7/3 755/7/3 754/7/3
f 795/7/3 755/7/3 794/7/3
f 796/6/3 784/6/3 717/6/3
f 796/5/3 785/5/3 784/5/3
f 797/6/3 788/6/3 787/6/3
f 797/5/3 785/5/3 796/5/3
f 797/6/3 786/6/3 785/6/3
f 797/6/3 787/6/3 786/6/3
f 798/6/3 788/6/3 797/6/3
f 799/6/3 788/6/3 798/6/3
f 800/6/3 788/6/3 799/6/3
f 801/6/3 788/6/3 800/6/3
f 802/5/3 789/5/3 788/5/3
f 802/6/3 788/6/3 801/6/3
f 803/6/3 716/6/3 789/6/3
f 803/5/3 789/5/3 802/5/3
f 804/1/3 792/1/3 791/1/3
f 805/1/3 792/1/3 804/1/3
f 806/1/3 792/1/3 805/1/3
f 807/7/3 794/7/3 793/7/3
f 808/7/3 794/7/3 807/7/3
f 809/6/3 796/6/3 717/6/3
f 809/6/3 797/6/3 796/6/3
f 809/6/3 798/6/3 797/6/3
f 810/6/3 798/6/3 809/6/3
f 811/6/3 798/6/3 810/6/3
f 812/6/3 798/6/3 811/6/3
f 813/5/3 799/5/3 798/5/3
f 813/6/3 798/6/3 812/6/3
f 814/6/3 800/6/3 799/6/3
f 814/5/3 799/5/3 813/5/3
f 815/8/3 801/8/3 800/8/3
f 815/6/3 800/6/3 814/6/3
f 816/6/3 802/6/3 801/6/3
f 816/8/3 801/8/3 815/8/3
f 816/6/3 803/6/3 802/6/3
f 817/7/3 806/7/3 805/7/3
f 817/7/3 807/7/3 806/7/3
f 818/7/3 807/7/3 817/7/3
f 819/6/3 811/6/3 810/6/3
f 820/6/3 811/6/3 819/6/3
f 821/8/3 812/8/3 811/8/3
f 821/6/3 811/6/3 820/6/3
f 822/6/3 815/6/3 814/6/3
f 822/8/3 812/8/3 821/8/3
f 822/6/3 814/6/3 813/6/3
f 822/6/3 816/6/3 815/6/3
f 822/6/3 813/6/3 812/6/3
f 823/6/3 803/6/3 816/6/3
f 823/6/3 816/6/3 822/6/3
f 823/6/3 716/6/3 803/6/3
f 824/6/3 716/6/3 823/6/3
f 825/6/3 821/6/3 820/6/3
f 825/6/3 822/6/3 821/6/3
f 825/6/3 823/6/3 822/6/3
f 826/6/3 823/6/3 825/6/3
f 831/6/3 828/6/3 827/6/3
f 832/6/3 828/6/3 831/6/3
f 841/9/3 830/9/3 829/9/3
f 842/6/3 831/6/3 830/6/3
f 842/6/3 832/6/3 831/6/3
f 842/9/3 830/9/3 841/9/3
f 842/6/3 833/6/3 832/6/3
f 843/6/3 833/6/3 842/6/3
f 844/6/3 833/6/3 843/6/3
f 845/6/3 833/6/3 844/6/3
f 846/6/3 833/6/3 845/6/3
f 847/6/3 833/6/3 846/6/3
f 848/6/3 833/6/3 847/6/3
f 850/3/3 839/3/3 838/3/3
f 851/6/3 841/6/3 840/6/3
f 851/6/3 842/6/3 841/6/3
f 852/6/3 842/6/3 851/6/3
f 853/6/3 842/6/3 852/6/3
f 854/6/3 849/6/3 848/6/3
f 854/6/3 848/6/3 847/6/3
f 855/6/3 849/6/3 854/6/3
f 856/6/3 849/6/3 855/6/3
f 857/6/3 852/6/3 851/6/3
f 858/6/3 852/6/3 857/6/3
f 859/9/3 856/9/3 855/9/3
f 860/9/3 856/9/3 859/9/3
f 863/13/3 835/13/3 834/13/3
f 864/13/3 835/13/3 863/13/3
f 865/3/3 837/3/3 836/3/3
f 866/4/3 838/4/3 837/4/3
f 866/3/3 837/3/3 865/3/3
f 867/3/3 850/3/3 838/3/3
f 867/4/3 838/4/3 866/4/3
f 867/3/3 851/3/3 850/3/3
f 868/3/3 851/3/3 867/3/3
f 869/6/3 860/6/3 859/6/3
f 871/7/3 862/7/3 861/7/3
f 872/7/3 862/7/3 871/7/3
f 874/3/3 851/3/3 868/3/3
f 875/3/3 851/3/3 874/3/3
f 876/1/3 870/1/3 869/1/3
f 876/6/3 869/6/3 859/6/3
f 877/1/3 870/1/3 876/1/3
f 878/7/3 873/7/3 872/7/3
f 879/7/3 873/7/3 878/7/3
f 880/3/3 851/3/3 875/3/3
f 881/3/3 851/3/3 880/3/3
f 882/3/3 851/3/3 881/3/3
f 883/3/3 851/3/3 882/3/3
f 885/3/3 851/3/3 883/3/3
f 887/3/3 885/3/3 884/3/3
f 889/3/3 887/3/3 886/3/3
f 890/6/3 876/6/3 859/6/3
f 899/3/3 889/3/3 888/3/3
f 900/6/3 890/6/3 859/6/3
f 900/1/3 891/1/3 890/1/3
f 901/1/3 891/1/3 900/1/3
f 903/7/3 893/7/3 892/7/3
f 904/7/3 893/7/3 903/7/3
f 905/6/3 857/6/3 851/6/3
f 907/7/3 903/7/3 902/7/3
f 908/7/3 903/7/3 907/7/3
f 909/3/3 851/3/3 885/3/3
f 909/3/3 885/3/3 887/3/3
f 909/3/3 887/3/3 889/3/3
f 909/3/3 899/3/3 898/3/3
f 909/3/3 889/3/3 899/3/3
f 910/6/3 905/6/3 851/6/3
f 910/3/3 851/3/3 909/3/3
f 911/9/3 906/9/3 905/9/3
f 911/6/3 905/6/3 910/6/3
f 912/9/3 906/9/3 911/9/3
f 915/6/3 900/6/3 859/6/3
f 916/13/3 895/13/3 894/13/3
f 917/13/3 895/13/3 916/13/3
f 918/3/3 897/3/3 896/3/3
f 919/4/3 898/4/3 897/4/3
f 919/3/3 897/3/3 918/3/3
f 920/3/3 909/3/3 898/3/3
f 920/4/3 898/4/3 919/4/3
f 921/3/3 909/3/3 920/3/3
f 922/6/3 913/6/3 912/6/3
f 922/6/3 911/6/3 910/6/3
f 922/6/3 912/6/3 911/6/3
f 923/6/3 913/6/3 922/6/3
f 924/6/3 913/6/3 923/6/3
f 929/6/3 915/6/3 914/6/3
f 930/6/3 900/6/3 915/6/3
f 930/6/3 915/6/3 929/6/3
f 931/6/3 900/6/3 930/6/3
f 932/6/3 924/6/3 923/6/3
f 932/6/3 925/6/3 924/6/3
f 933/8/3 926/8/3 925/8/3
f 933/6/3 925/6/3 932/6/3
f 934/6/3 927/6/3 926/6/3
f 934/8/3 926/8/3 933/8/3
f 935/9/3 928/9/3 927/9/3
f 935/6/3 927/6/3 934/6/3
f 936/6/3 930/6/3 929/6/3
f 936/9/3 928/9/3 935/9/3
f 936/6/3 929/6/3 928/6/3
f 937/6/3 930/6/3 936/6/3
f 938/6/3 930/6/3 937/6/3
f 939/6/3 930/6/3 938/6/3
f 940/6/3 930/6/3 939/6/3
f 941/6/3 930/6/3 940/6/3
f 942/6/3 938/6/3 937/6/3
f 943/9/3 939/9/3 938/9/3
f 943/6/3 938/6/3 942/6/3
f 944/6/3 940/6/3 939/6/3
f 944/9/3 939/9/3 943/9/3
f 945/6/3 940/6/3 944/6/3
f 948/11/3 947/11/3 946/11/3
f 949/11/3 947/11/3 948/11/3
f 950/12/3 949/12/3 948/12/3
f 951/12/3 949/12/3 950/12/3
f 952/6/3 951/6/3 950/6/3
f 953/6/3 951/6/3 952/6/3
f 954/6/3 951/6/3 953/6/3
f 955/6/3 951/6/3 954/6/3
f 956/9/3 953/9/3 952/9/3
f 957/6/3 954/6/3 953/6/3
f 957/9/3 953/9/3 956/9/3
f 958/5/3 955/5/3 954/5/3
f 958/6/3 954/6/3 957/6/3
f 959/5/3 955/5/3 958/5/3
f 960/6/3 957/6/3 956/6/3
f 960/6/3 958/6/3 957/6/3
f 960/6/3 959/6/3 958/6/3
f 961/6/3 959/6/3 960/6/3
f 962/12/3 961/12/3 960/12/3
f 963/12/3 961/12/3 962/12/3
f 964/6/3 963/6/3 962/6/3
f 965/6/3 963/6/3 964/6/3
f 966/6/3 964/6/3 962/6/3
f 966/5/3 965/5/3 964/5/3
f 967/6/3 963/6/3 965/6/3
f 967/5/3 965/5/3 966/5/3
f 968/6/3 966/6/3 962/6/3
f 968/6/3 967/6/3 966/6/3
f 969/6/3 963/6/3 967/6/3
f 969/6/3 967/6/3 968/6/3
f 971/6/3 968/6/3 962/6/3
f 972/9/3 969/9/3 968/9/3
f 972/6/3 968/6/3 971/6/3
f 973/6/3 963/6/3 969/6/3
f 973/9/3 969/9/3 972/9/3
f 976/6/3 972/6/3 971/6/3
f 976/6/3 971/6/3 970/6/3
f 976/6/3 973/6/3 972/6/3
f 977/6/3 973/6/3 976/6/3
f 978/6/3 963/6/3 973/6/3
f 978/6/3 973/6/3 977/6/3
f 986/9/3 975/9/3 974/9/3
f 987/6/3 976/6/3 975/6/3
f 987/9/3 975/9/3 986/9/3
f 987/6/3 977/6/3 976/6/3
f 988/6/3 977/6/3 987/6/3
f 989/6/3 979/6/3 978/6/3
f 990/6/3 979/6/3 989/6/3
f 993/3/3 981/3/3 980/3/3
f 994/4/3 982/4/3 981/4/3
f 994/3/3 981/3/3 993/3/3
f 995/3/3 983/3/3 982/3/3
f 995/4/3 982/4/3 994/4/3
f 996/3/3 983/3/3 995/3/3
f 998/6/3 985/6/3 984/6/3
f 999/6/3 985/6/3 998/6/3
f 1000/6/3 991/6/3 990/6/3
f 1001/6/3 991/6/3 1000/6/3
f 1002/3/3 997/3/3 996/3/3
f 1003/3/3 997/3/3 1002/3/3
f 1004/13/3 993/13/3 992/13/3
f 1005/13/3 993/13/3 1004/13/3
f 1009/3/3 1006/3/3 1005/3/3
f 1010/4/3 1007/4/3 1006/4/3
f 1010/3/3 1006/3/3 1009/3/3
f 1011/3/3 1008/3/3 1007/3/3
f 1011/4/3 1007/4/3 1010/4/3
f 1012/3/3 1008/3/3 1011/3/3
f 1014/3/3 1013/3/3 1012/3/3
f 1015/3/3 1013/3/3 1014/3/3
f 1017/3/3 1016/3/3 1015/3/3
f 1019/3/3 1017/3/3 1015/3/3
f 1019/3/3 1018/3/3 1017/3/3
f 1020/3/3 1018/3/3 1019/3/3
f 1022/3/3 1019/3/3 1015/3/3
f 1023/3/3 1019/3/3 1022/3/3
f 1027/3/3 1022/3/3 1021/3/3
f 1028/3/3 1022/3/3 1027/3/3
f 1030/3/3 1025/3/3 1024/3/3
f 1031/4/3 1026/4/3 1025/4/3
f 1031/3/3 1025/3/3 1030/3/3
f 1032/3/3 1027/3/3 1026/3/3
f 1032/4/3 1026/4/3 1031/4/3
f 1033/3/3 1027/3/3 1032/3/3
f 1036/13/3 1030/13/3 1029/13/3
f 1037/13/3 1030/13/3 1036/13/3
f 1040/3/3 1035/3/3 1034/3/3
f 1041/3/3 1035/3/3 1040/3/3
f 1046/3/3 1038/3/3 1037/3/3
f 1047/4/3 1039/4/3 1038/4/3
f 1047/3/3 1038/3/3 1046/3/3
f 1048/3/3 1040/3/3 1039/3/3
f 1048/4/3 1039/4/3 1047/4/3
f 1049/3/3 1040/3/3 1048/3/3
f 1050/6/3 1043/6/3 1042/6/3
f 1051/6/3 1043/6/3 1050/6/3
f 1058/5/3 1045/5/3 1044/5/3
f 1059/5/3 1045/5/3 1058/5/3
f 1060/6/3 1056/6/3 1055/6/3
f 1060/6/3 1055/6/3 1054/6/3
f 1060/6/3 1054/6/3 1053/6/3
f 1060/6/3 1053/6/3 1052/6/3
f 1061/6/3 1056/6/3 1060/6/3
f 1062/6/3 1056/6/3 1061/6/3
f 1065/6/3 1058/6/3 1057/6/3
f 1066/6/3 1058/6/3 1065/6/3
f 1067/6/3 1064/6/3 1063/6/3
f 1067/6/3 1065/6/3 1064/6/3
f 1067/6/3 1062/6/3 1061/6/3
f 1067/6/3 1063/6/3 1062/6/3
f 1068/6/3 1065/6/3 1067/6/3
f 1069/6/3 1065/6/3 1068/6/3
f 1070/6/3 1065/6/3 1069/6/3
f 1071/6/3 1069/6/3 1068/6/3
f 1071/5/3 1070/5/3 1069/5/3
f 1072/6/3 1065/6/3 1070/6/3
f 1072/5/3 1070/5/3 1071/5/3
f 1073/6/3 1071/6/3 1068/6/3
f 1073/6/3 1072/6/3 1071/6/3
f 1074/6/3 1065/6/3 1072/6/3
f 1074/6/3 1072/6/3 1073/6/3
f 1075/12/3 1074/12/3 1073/12/3
f 1076/12/3 1074/12/3 1075/12/3
f 1077/6/3 1076/6/3 1075/6/3
f 1078/6/3 1076/6/3 1077/6/3
f 1079/6/3 1077/6/3 1075/6/3
f 1079/9/3 1078/9/3 1077/9/3
f 1080/9/3 1078/9/3 1079/9/3
f 1081/6/3 1079/6/3 1075/6/3
f 1081/6/3 1080/6/3 1079/6/3
f 1082/6/3 1080/6/3 1081/6/3
f 1083/12/3 1082/12/3 1081/12/3
f 1084/12/3 1082/12/3 1083/12/3
f 1085/11/3 1084/11/3 1083/11/3
f 1086/11/3 1084/11/3 1085/11/3
f 1091/12/3 1090/12/3 1089/12/3
f 1092/12/3 1090/12/3 1091/12/3
f 1093/6/3 1092/6/3 1091/6/3
f 1094/6/3 1093/6/3 1091/6/3
f 1095/6/3 1094/6/3 1091/6/3
f 1096/6/3 1094/6/3 1095/6/3
f 1097/12/3 1096/12/3 1095/12/3
f 1098/12/3 1096/12/3 1097/12/3
f 1099/6/3 1098/6/3 1097/6/3
f 1100/6/3 1098/6/3 1099/6/3
f 1105/6/3 1102/6/3 1101/6/3
f 1106/6/3 1102/6/3 1105/6/3
f 1107/2/3 1088/2/3 1087/2/3
f 1108/2/3 1088/2/3 1107/2/3
f 1112/6/3 1104/6/3 1103/6/3
f 1113/6/3 1104/6/3 1112/6/3
f 1114/3/3 1110/3/3 1109/3/3
f 1115/6/3 1111/6/3 1110/6/3
f 1115/3/3 1110/3/3 1114/3/3
f 1116/6/3 1111/6/3 1115/6/3
f 1119/2/3 1118/2/3 1117/2/3
f 1120/2/3 1118/2/3 1119/2/3
f 1123/2/3 1122/2/3 1121/2/3
f 1124/2/3 1122/2/3 1123/2/3
f 1130/3/3 1126/3/3 1125/3/3
f 1131/6/3 1127/6/3 1126/6/3
f 1131/3/3 1126/3/3 1130/3/3
f 1132/6/3 1127/6/3 1131/6/3
f 1135/6/3 1134/6/3 1133/6/3
f 1136/6/3 1134/6/3 1135/6/3
f 1141/6/3 1138/6/3 1137/6/3
f 1142/6/3 1138/6/3 1141/6/3
f 1143/6/3 1140/6/3 1139/6/3
f 1144/6/3 1140/6/3 1143/6/3
f 1145/12/3 1144/12/3 1143/12/3
f 1146/12/3 1144/12/3 1145/12/3
f 1147/6/3 1146/6/3 1145/6/3
f 1148/6/3 1146/6/3 1147/6/3
f 1149/8/3 1148/8/3 1147/8/3
f 1150/8/3 1148/8/3 1149/8/3
f 1151/6/3 1150/6/3 1149/6/3
f 1152/6/3 1150/6/3 1151/6/3
f 1153/2/3 1129/2/3 1128/2/3
f 1154/2/3 1129/2/3 1153/2/3
f 1155/12/3 1152/12/3 1151/12/3
f 1156/12/3 1152/12/3 1155/12/3
f 1159/12/4 1160/12/4 1161/12/4
f 1161/12/4 1160/12/4 1162/12/4
f 1161/6/4 1162/6/4 1163/6/4
f 1163/6/4 1162/6/4 1164/6/4
f 1163/12/4 1164/12/4 1165/12/4
f 1165/12/4 1164/12/4 1166/12/4
f 1165/6/4 1166/6/4 1167/6/4
f 1165/6/4 1167/6/4 1168/6/4
f 1165/6/4 1168/6/4 1169/6/4
f 1169/6/4 1168/6/4 1170/6/4
f 1171/6/4 1172/6/4 1175/6/4
f 1175/6/4 1172/6/4 1176/6/4
f 1157/2/4 1158/2/4 1177/2/4
f 1177/2/4 1158/2/4 1178/2/4
f 1173/6/4 1174/6/4 1182/6/4
f 1182/6/4 1174/6/4 1183/6/4
f 1179/3/4 1180/3/4 1184/3/4
f 1180/6/4 1181/6/4 1185/6/4
f 1184/3/4 1180/3/4 1185/3/4
f 1185/6/4 1181/6/4 1186/6/4
f 1187/2/4 1188/2/4 1189/2/4
f 1189/2/4 1188/2/4 1190/2/4
f 1191/2/4 1192/2/4 1193/2/4
f 1193/2/4 1192/2/4 1194/2/4
f 1195/3/4 1196/3/4 1200/3/4
f 1196/6/4 1197/6/4 1201/6/4
f 1200/3/4 1196/3/4 1201/3/4
f 1201/6/4 1197/6/4 1202/6/4
f 1203/6/4 1204/6/4 1205/6/4
f 1205/6/4 1204/6/4 1206/6/4
f 1207/6/4 1208/6/4 1211/6/4
f 1211/6/4 1208/6/4 1212/6/4
f 1209/6/4 1210/6/4 1213/6/4
f 1209/6/4 1213/6/4 1214/6/4
f 1209/6/4 1214/6/4 1215/6/4
f 1215/6/4 1214/6/4 1216/6/4
f 1215/12/4 1216/12/4 1217/12/4
f 1217/12/4 1216/12/4 1218/12/4
f 1217/6/4 1218/6/4 1219/6/4
f 1219/6/4 1218/6/4 1220/6/4
f 1219/8/4 1220/8/4 1221/8/4
f 1221/8/4 1220/8/4 1222/8/4
f 1221/6/4 1222/6/4 1223/6/4
f 1223/6/4 1222/6/4 1224/6/4
f 1198/2/4 1199/2/4 1225/2/4
f 1225/2/4 1199/2/4 1226/2/4
f 1223/12/4 1224/12/4 1227/12/4
f 1227/12/4 1224/12/4 1228/12/4
f 1229/11/4 1230/11/4 1231/11/4
f 1231/11/4 1230/11/4 1232/11/4
f 1231/12/4 1232/12/4 1233/12/4
f 1233/12/4 1232/12/4 1234/12/4
f 1233/6/4 1234/6/4 1235/6/4
f 1235/6/4 1234/6/4 1236/6/4
f 1235/12/4 1236/12/4 1237/12/4
f 1237/12/4 1236/12/4 1238/12/4
f 1237/6/4 1238/6/4 1239/6/4
f 1239/6/4 1238/6/4 1240/6/4
f 1239/5/4 1240/5/4 1241/5/4
f 1240/6/4 1238/6/4 1242/6/4
f 1241/5/4 1240/5/4 1242/5/4
f 1241/6/4 1242/6/4 1243/6/4
f 1242/6/4 1238/6/4 1243/6/4
f 1243/6/4 1238/6/4 1244/6/4
f 1241/6/4 1243/6/4 1246/6/4
f 1243/5/4 1244/5/4 1247/5/4
f 1246/6/4 1243/6/4 1247/6/4
f 1247/5/4 1244/5/4 1248/5/4
f 1245/6/4 1246/6/4 1250/6/4
f 1246/6/4 1247/6/4 1250/6/4
f 1247/6/4 1248/6/4 1250/6/4
f 1250/6/4 1248/6/4 1251/6/4
f 1251/6/4 1248/6/4 1252/6/4
f 1250/6/4 1251/6/4 1260/6/4
f 1249/6/4 1250/6/4 1260/6/4
f 1260/6/4 1251/6/4 1261/6/4
f 1261/6/4 1251/6/4 1262/6/4
f 1262/6/4 1251/6/4 1263/6/4
f 1252/6/4 1253/6/4 1264/6/4
f 1264/6/4 1253/6/4 1265/6/4
f 1254/3/4 1255/3/4 1268/3/4
f 1255/4/4 1256/4/4 1269/4/4
f 1268/3/4 1255/3/4 1269/3/4
f 1256/3/4 1257/3/4 1270/3/4
f 1269/4/4 1256/4/4 1270/4/4
f 1270/3/4 1257/3/4 1271/3/4
f 1258/6/4 1259/6/4 1273/6/4
f 1273/6/4 1259/6/4 1274/6/4
f 1265/6/4 1266/6/4 1275/6/4
f 1275/6/4 1266/6/4 1276/6/4
f 1271/3/4 1272/3/4 1277/3/4
f 1277/3/4 1272/3/4 1278/3/4
f 1267/13/4 1268/13/4 1279/13/4
f 1279/13/4 1268/13/4 1280/13/4
f 1280/3/4 1281/3/4 1284/3/4
f 1281/4/4 1282/4/4 1285/4/4
f 1284/3/4 1281/3/4 1285/3/4
f 1282/3/4 1283/3/4 1286/3/4
f 1285/4/4 1282/4/4 1286/4/4
f 1286/3/4 1283/3/4 1287/3/4
f 1287/3/4 1288/3/4 1289/3/4
f 1289/3/4 1288/3/4 1290/3/4
f 1290/3/4 1291/3/4 1292/3/4
f 1290/3/4 1292/3/4 1294/3/4
f 1292/3/4 1293/3/4 1294/3/4
f 1294/3/4 1293/3/4 1295/3/4
f 1290/3/4 1294/3/4 1297/3/4
f 1297/3/4 1294/3/4 1298/3/4
f 1296/3/4 1297/3/4 1302/3/4
f 1302/3/4 1297/3/4 1303/3/4
f 1299/3/4 1300/3/4 1305/3/4
f 1300/4/4 1301/4/4 1306/4/4
f 1305/3/4 1300/3/4 1306/3/4
f 1301/3/4 1302/3/4 1307/3/4
f 1306/4/4 1301/4/4 1307/4/4
f 1307/3/4 1302/3/4 1308/3/4
f 1304/13/4 1305/13/4 1311/13/4
f 1311/13/4 1305/13/4 1312/13/4
f 1309/3/4 1310/3/4 1315/3/4
f 1315/3/4 1310/3/4 1316/3/4
f 1312/3/4 1313/3/4 1321/3/4
f 1313/4/4 1314/4/4 1322/4/4
f 1321/3/4 1313/3/4 1322/3/4
f 1314/3/4 1315/3/4 1323/3/4
f 1322/4/4 1314/4/4 1323/4/4
f 1323/3/4 1315/3/4 1324/3/4
f 1317/6/4 1318/6/4 1325/6/4
f 1325/6/4 1318/6/4 1326/6/4
f 1319/9/4 1320/9/4 1332/9/4
f 1332/9/4 1320/9/4 1333/9/4
f 1329/6/4 1330/6/4 1334/6/4
f 1328/6/4 1329/6/4 1334/6/4
f 1327/6/4 1328/6/4 1334/6/4
f 1334/6/4 1330/6/4 1335/6/4
f 1335/6/4 1330/6/4 1336/6/4
f 1331/6/4 1332/6/4 1337/6/4
f 1337/6/4 1332/6/4 1338/6/4
f 1335/6/4 1336/6/4 1339/6/4
f 1336/6/4 1337/6/4 1339/6/4
f 1339/6/4 1337/6/4 1340/6/4
f 1340/6/4 1337/6/4 1341/6/4
f 1341/6/4 1337/6/4 1342/6/4
f 1342/6/4 1337/6/4 1343/6/4
f 1343/6/4 1337/6/4 1344/6/4
f 1341/8/4 1342/8/4 1345/8/4
f 1342/6/4 1343/6/4 1346/6/4
f 1345/8/4 1342/8/4 1346/8/4
f 1343/5/4 1344/5/4 1347/5/4
f 1346/6/4 1343/6/4 1347/6/4
f 1347/5/4 1344/5/4 1348/5/4
f 1345/6/4 1346/6/4 1349/6/4
f 1346/6/4 1347/6/4 1349/6/4
f 1347/6/4 1348/6/4 1349/6/4
f 1349/6/4 1348/6/4 1350/6/4
f 1349/12/4 1350/12/4 1351/12/4
f 1351/12/4 1350/12/4 1352/12/4
f 1351/6/4 1352/6/4 1353/6/4
f 1353/6/4 1352/6/4 1354/6/4
f 1351/6/4 1353/6/4 1355/6/4
f 1353/5/4 1354/5/4 1355/5/4
f 1355/5/4 1354/5/4 1356/5/4
f 1351/6/4 1355/6/4 1357/6/4
f 1355/6/4 1356/6/4 1357/6/4
f 1357/6/4 1356/6/4 1358/6/4
f 1357/12/4 1358/12/4 1359/12/4
f 1359/12/4 1358/12/4 1360/12/4
f 1359/11/4 1360/11/4 1361/11/4
f 1361/11/4 1360/11/4 1362/11/4
f 1363/6/4 1364/6/4 1368/6/4
f 1368/6/4 1364/6/4 1369/6/4
f 1365/6/4 1366/6/4 1380/6/4
f 1380/6/4 1366/6/4 1381/6/4
f 1381/6/4 1366/6/4 1382/6/4
f 1366/8/4 1367/8/4 1383/8/4
f 1382/6/4 1366/6/4 1383/6/4
f 1367/6/4 1368/6/4 1384/6/4
f 1383/8/4 1367/8/4 1384/8/4
f 1368/6/4 1369/6/4 1384/6/4
f 1369/6/4 1370/6/4 1384/6/4
f 1384/6/4 1370/6/4 1385/6/4
f 1385/6/4 1370/6/4 1386/6/4
f 1376/3/4 1377/3/4 1388/3/4
f 1378/6/4 1379/6/4 1389/6/4
f 1389/6/4 1379/6/4 1390/6/4
f 1386/6/4 1387/6/4 1391/6/4
f 1385/6/4 1386/6/4 1391/6/4
f 1391/6/4 1387/6/4 1392/6/4
f 1388/3/4 1389/3/4 1393/3/4
f 1371/10/4 1372/10/4 1396/10/4
f 1372/13/4 1373/13/4 1397/13/4
f 1396/10/4 1372/10/4 1397/10/4
f 1397/13/4 1373/13/4 1398/13/4
f 1374/3/4 1375/3/4 1399/3/4
f 1375/4/4 1376/4/4 1400/4/4
f 1399/3/4 1375/3/4 1400/3/4
f 1376/3/4 1388/3/4 1401/3/4
f 1400/4/4 1376/4/4 1401/4/4
f 1388/3/4 1393/3/4 1401/3/4
f 1401/3/4 1393/3/4 1402/3/4
f 1392/6/4 1387/6/4 1403/6/4
f 1394/7/4 1395/7/4 1405/7/4
f 1405/7/4 1395/7/4 1406/7/4
f 1402/3/4 1393/3/4 1408/3/4
f 1408/3/4 1393/3/4 1409/3/4
f 1403/1/4 1404/1/4 1410/1/4
f 1392/6/4 1403/6/4 1410/6/4
f 1410/1/4 1404/1/4 1411/1/4
f 1406/7/4 1407/7/4 1412/7/4
f 1412/7/4 1407/7/4 1413/7/4
f 1409/3/4 1393/3/4 1414/3/4
f 1414/3/4 1393/3/4 1415/3/4
f 1415/3/4 1393/3/4 1416/3/4
f 1416/3/4 1393/3/4 1417/3/4
f 1417/3/4 1393/3/4 1419/3/4
f 1418/3/4 1419/3/4 1421/3/4
f 1420/3/4 1421/3/4 1423/3/4
f 1392/6/4 1410/6/4 1424/6/4
f 1422/3/4 1423/3/4 1434/3/4
f 1392/6/4 1424/6/4 1435/6/4
f 1424/1/4 1425/1/4 1435/1/4
f 1435/1/4 1425/1/4 1436/1/4
f 1426/7/4 1427/7/4 1438/7/4
f 1438/7/4 1427/7/4 1439/7/4
f 1437/7/4 1438/7/4 1440/7/4
f 1440/7/4 1438/7/4 1441/7/4
f 1419/3/4 1393/3/4 1442/3/4
f 1421/3/4 1419/3/4 1442/3/4
f 1423/3/4 1421/3/4 1442/3/4
f 1433/3/4 1434/3/4 1442/3/4
f 1434/3/4 1423/3/4 1442/3/4
f 1442/3/4 1393/3/4 1443/3/4
f 1392/6/4 1435/6/4 1446/6/4
f 1428/10/4 1429/10/4 1447/10/4
f 1429/13/4 1430/13/4 1448/13/4
f 1447/10/4 1429/10/4 1448/10/4
f 1448/13/4 1430/13/4 1449/13/4
f 1431/3/4 1432/3/4 1450/3/4
f 1432/4/4 1433/4/4 1451/4/4
f 1450/3/4 1432/3/4 1451/3/4
f 1433/3/4 1442/3/4 1452/3/4
f 1451/4/4 1433/4/4 1452/4/4
f 1452/3/4 1442/3/4 1453/3/4
f 1443/6/4 1444/6/4 1454/6/4
f 1454/6/4 1444/6/4 1455/6/4
f 1445/6/4 1446/6/4 1463/6/4
f 1446/6/4 1435/6/4 1464/6/4
f 1463/6/4 1446/6/4 1464/6/4
f 1464/6/4 1435/6/4 1465/6/4
f 1456/6/4 1457/6/4 1466/6/4
f 1457/9/4 1458/9/4 1467/9/4
f 1466/6/4 1457/6/4 1467/6/4
f 1460/6/4 1461/6/4 1468/6/4
f 1467/9/4 1458/9/4 1468/9/4
f 1459/6/4 1460/6/4 1468/6/4
f 1458/6/4 1459/6/4 1468/6/4
f 1461/9/4 1462/9/4 1469/9/4
f 1468/6/4 1461/6/4 1469/6/4
f 1463/6/4 1464/6/4 1470/6/4
f 1469/9/4 1462/9/4 1470/9/4
f 1462/6/4 1463/6/4 1470/6/4
f 1470/6/4 1464/6/4 1471/6/4
f 1471/6/4 1464/6/4 1472/6/4
f 1472/6/4 1464/6/4 1473/6/4
f 1471/6/4 1472/6/4 1474/6/4
f 1474/6/4 1472/6/4 1475/6/4
f 1476/6/4 1477/6/4 1481/6/4
f 1477/5/4 1478/5/4 1482/5/4
f 1481/6/4 1477/6/4 1482/6/4
f 1478/6/4 1479/6/4 1483/6/4
f 1482/5/4 1478/5/4 1483/5/4
f 1483/6/4 1479/6/4 1484/6/4
f 1484/6/4 1479/6/4 1485/6/4
f 1480/8/4 1481/8/4 1487/8/4
f 1481/6/4 1482/6/4 1488/6/4
f 1487/8/4 1481/8/4 1488/8/4
f 1482/6/4 1483/6/4 1488/6/4
f 1483/6/4 1484/6/4 1488/6/4
f 1488/6/4 1484/6/4 1489/6/4
f 1489/6/4 1484/6/4 1490/6/4
f 1490/6/4 1484/6/4 1491/6/4
f 1491/6/4 1484/6/4 1492/6/4
f 1484/5/4 1485/5/4 1493/5/4
f 1492/6/4 1484/6/4 1493/6/4
f 1485/6/4 1486/6/4 1494/6/4
f 1493/5/4 1485/5/4 1494/5/4
f 1487/6/4 1488/6/4 1497/6/4
f 1488/6/4 1489/6/4 1497/6/4
f 1489/9/4 1490/9/4 1497/9/4
f 1490/6/4 1491/6/4 1498/6/4
f 1497/9/4 1490/9/4 1498/9/4
f 1491/5/4 1492/5/4 1499/5/4
f 1498/6/4 1491/6/4 1499/6/4
f 1492/6/4 1493/6/4 1500/6/4
f 1499/5/4 1492/5/4 1500/5/4
f 1493/6/4 1494/6/4 1500/6/4
f 1495/7/4 1496/7/4 1502/7/4
f 1502/7/4 1496/7/4 1503/7/4
f 1498/6/4 1499/6/4 1505/6/4
f 1497/6/4 1498/6/4 1505/6/4
f 1487/6/4 1497/6/4 1505/6/4
f 1499/6/4 1500/6/4 1505/6/4
f 1505/6/4 1500/6/4 1506/6/4
f 1500/6/4 1494/6/4 1507/6/4
f 1506/6/4 1500/6/4 1507/6/4
f 1507/6/4 1494/6/4 1508/6/4
f 1501/1/4 1502/1/4 1510/1/4
f 1503/7/4 1504/7/4 1511/7/4
f 1511/7/4 1504/7/4 1512/7/4
f 1505/5/4 1506/5/4 1514/5/4
f 1487/6/4 1505/6/4 1514/6/4
f 1506/6/4 1507/6/4 1515/6/4
f 1514/5/4 1506/5/4 1515/5/4
f 1515/6/4 1507/6/4 1516/6/4
f 1516/6/4 1507/6/4 1517/6/4
f 1507/9/4 1508/9/4 1518/9/4
f 1517/6/4 1507/6/4 1518/6/4
f 1508/6/4 1494/6/4 1519/6/4
f 1518/9/4 1508/9/4 1519/9/4
f 1487/6/4 1514/6/4 1520/6/4
f 1514/6/4 1515/6/4 1520/6/4
f 1515/6/4 1516/6/4 1520/6/4
f 1520/6/4 1516/6/4 1521/6/4
f 1516/8/4 1517/8/4 1522/8/4
f 1521/6/4 1516/6/4 1522/6/4
f 1517/6/4 1518/6/4 1523/6/4
f 1522/8/4 1517/8/4 1523/8/4
f 1518/6/4 1519/6/4 1523/6/4
f 1523/6/4 1519/6/4 1524/6/4
f 1524/6/4 1519/6/4 1525/6/4
f 1520/9/4 1521/9/4 1526/9/4
f 1487/6/4 1520/6/4 1526/6/4
f 1521/6/4 1522/6/4 1527/6/4
f 1526/9/4 1521/9/4 1527/9/4
f 1522/6/4 1523/6/4 1527/6/4
f 1523/6/4 1524/6/4 1527/6/4
f 1524/5/4 1525/5/4 1528/5/4
f 1527/6/4 1524/6/4 1528/6/4
f 1525/6/4 1519/6/4 1529/6/4
f 1528/5/4 1525/5/4 1529/5/4
f 1527/6/4 1528/6/4 1530/6/4
f 1526/6/4 1527/6/4 1530/6/4
f 1528/6/4 1529/6/4 1530/6/4
f 1530/6/4 1529/6/4 1531/6/4
f 1519/6/4 1494/6/4 1532/6/4
f 1531/6/4 1529/6/4 1532/6/4
f 1529/6/4 1519/6/4 1532/6/4
f 1494/6/4 1486/6/4 1533/6/4
f 1532/6/4 1494/6/4 1533/6/4
f 1530/8/4 1531/8/4 1534/8/4
f 1526/6/4 1530/6/4 1534/6/4
f 1531/6/4 1532/6/4 1535/6/4
f 1534/8/4 1531/8/4 1535/8/4
f 1535/6/4 1532/6/4 1536/6/4
f 1536/6/4 1532/6/4 1537/6/4
f 1537/6/4 1532/6/4 1538/6/4
f 1538/6/4 1532/6/4 1539/6/4
f 1532/8/4 1533/8/4 1540/8/4
f 1539/6/4 1532/6/4 1540/6/4
f 1533/6/4 1486/6/4 1541/6/4
f 1540/8/4 1533/8/4 1541/8/4
f 1509/1/4 1510/1/4 1542/1/4
f 1510/1/4 1502/1/4 1543/1/4
f 1542/1/4 1510/1/4 1543/1/4
f 1512/7/4 1513/7/4 1545/7/4
f 1545/7/4 1513/7/4 1546/7/4
f 1534/6/4 1535/6/4 1547/6/4
f 1535/6/4 1536/6/4 1547/6/4
f 1536/9/4 1537/9/4 1547/9/4
f 1537/6/4 1538/6/4 1548/6/4
f 1547/9/4 1537/9/4 1548/9/4
f 1538/5/4 1539/5/4 1549/5/4
f 1548/6/4 1538/6/4 1549/6/4
f 1539/6/4 1540/6/4 1550/6/4
f 1549/5/4 1539/5/4 1550/5/4
f 1540/6/4 1541/6/4 1550/6/4
f 1543/1/4 1502/1/4 1551/1/4
f 1551/1/4 1502/1/4 1552/1/4
f 1544/7/4 1545/7/4 1553/7/4
f 1553/7/4 1545/7/4 1554/7/4
f 1487/6/4 1526/6/4 1555/6/4
f 1526/6/4 1534/6/4 1555/6/4
f 1548/6/4 1549/6/4 1555/6/4
f 1547/6/4 1548/6/4 1555/6/4
f 1549/6/4 1550/6/4 1555/6/4
f 1534/6/4 1547/6/4 1555/6/4
f 1555/6/4 1550/6/4 1556/6/4
f 1550/6/4 1541/6/4 1557/6/4
f 1556/6/4 1550/6/4 1557/6/4
f 1557/6/4 1541/6/4 1558/6/4
f 1552/7/4 1553/7/4 1559/7/4
f 1559/7/4 1553/7/4 1560/7/4
f 1487/6/4 1555/6/4 1561/6/4
f 1561/6/4 1555/6/4 1562/6/4
f 1555/5/4 1556/5/4 1563/5/4
f 1562/6/4 1555/6/4 1563/6/4
f 1556/6/4 1557/6/4 1564/6/4
f 1563/5/4 1556/5/4 1564/5/4
f 1564/6/4 1557/6/4 1565/6/4
f 1565/6/4 1557/6/4 1566/6/4
f 1557/5/4 1558/5/4 1567/5/4
f 1566/6/4 1557/6/4 1567/6/4
f 1558/6/4 1541/6/4 1568/6/4
f 1567/5/4 1558/5/4 1568/5/4
f 1541/6/4 1486/6/4 1569/6/4
f 1568/6/4 1541/6/4 1569/6/4
f 1569/6/4 1486/6/4 1570/6/4
f 1562/6/4 1563/6/4 1571/6/4
f 1563/6/4 1564/6/4 1571/6/4
f 1564/6/4 1565/6/4 1571/6/4
f 1565/8/4 1566/8/4 1572/8/4
f 1571/6/4 1565/6/4 1572/6/4
f 1567/6/4 1568/6/4 1573/6/4
f 1572/8/4 1566/8/4 1573/8/4
f 1566/6/4 1567/6/4 1573/6/4
f 1568/6/4 1569/6/4 1573/6/4
f 1573/6/4 1569/6/4 1574/6/4
f 1575/7/4 1576/7/4 1577/7/4
f 1575/7/4 1577/7/4 1579/7/4
f 1577/7/4 1578/7/4 1579/7/4
f 1579/7/4 1578/7/4 1580/7/4
f 1575/7/4 1579/7/4 1581/7/4
f 1581/7/4 1579/7/4 1582/7/4
f 1583/2/4 1584/2/4 1585/2/4
f 1585/2/4 1584/2/4 1586/2/4
f 1596/2/5 1588/2/5 1587/2/5
f 1597/2/5 1588/2/5 1596/2/5
f 1601/2/5 1594/2/5 1593/2/5
f 1602/2/5 1594/2/5 1601/2/5
f 1603/2/5 1596/2/5 1595/2/5
f 1603/2/5 1597/2/5 1596/2/5
f 1603/2/5 1598/2/5 1597/2/5
f 1604/2/5 1598/2/5 1603/2/5
f 1605/2/5 1598/2/5 1604/2/5
f 1606/2/5 1598/2/5 1605/2/5
f 1607/2/5 1600/2/5 1599/2/5
f 1608/2/5 1600/2/5 1607/2/5
f 1609/10/5 1590/10/5 1589/10/5
f 1610/10/5 1590/10/5 1609/10/5
f 1611/10/5 1592/10/5 1591/10/5
f 1612/10/5 1592/10/5 1611/10/5
f 1613/2/5 1605/2/5 1604/2/5
f 1614/2/5 1605/2/5 1613/2/5
f 1620/3/5 1616/3/5 1615/3/5
f 1621/3/5 1616/3/5 1620/3/5
f 1624/3/5 1618/3/5 1617/3/5
f 1625/3/5 1618/3/5 1624/3/5
f 1627/3/5 1620/3/5 1619/3/5
f 1628/3/5 1620/3/5 1627/3/5
f 1629/3/5 1622/3/5 1621/3/5
f 1630/3/5 1622/3/5 1629/3/5
f 1631/3/5 1624/3/5 1623/3/5
f 1632/3/5 1624/3/5 1631/3/5
f 1633/3/5 1626/3/5 1625/3/5
f 1634/3/5 1626/3/5 1633/3/5
f 1635/3/5 1629/3/5 1628/3/5
f 1636/3/5 1629/3/5 1635/3/5
f 1637/3/5 1633/3/5 1632/3/5
f 1638/3/5 1633/3/5 1637/3/5
f 1643/3/5 1640/3/5 1639/3/5
f 1644/3/5 1640/3/5 1643/3/5
f 1647/3/5 1642/3/5 1641/3/5
f 1648/3/5 1642/3/5 1647/3/5
f 1650/3/5 1645/3/5 1644/3/5
f 1651/3/5 1645/3/5 1650/3/5
f 1652/3/5 1647/3/5 1646/3/5
f 1653/3/5 1647/3/5 1652/3/5
f 1655/3/5 1650/3/5 1649/3/5
f 1656/3/5 1650/3/5 1655/3/5
f 1657/3/5 1654/3/5 1653/3/5
f 1658/3/5 1654/3/5 1657/3/5
f 1663/3/5 1660/3/5 1659/3/5
f 1664/3/5 1660/3/5 1663/3/5
f 1665/3/5 1662/3/5 1661/3/5
f 1666/3/5 1662/3/5 1665/3/5
f 1668/3/5 1665/3/5 1664/3/5
f 1669/3/5 1665/3/5 1668/3/5
f 1671/3/5 1668/3/5 1667/3/5
f 1672/3/5 1668/3/5 1671/3/5
f 1673/3/5 1670/3/5 1669/3/5
f 1674/3/5 1670/3/5 1673/3/5
f 1679/3/5 1676/3/5 1675/3/5
f 1680/3/5 1676/3/5 1679/3/5
f 1681/3/5 1678/3/5 1677/3/5
f 1682/3/5 1678/3/5 1681/3/5
f 1687/3/5 1684/3/5 1683/3/5
f 1688/3/5 1684/3/5 1687/3/5
f 1689/3/5 1686/3/5 1685/3/5
f 1690/3/5 1686/3/5 1689/3/5
f 1693/3/5 1692/3/5 1691/3/5
f 1694/3/5 1692/3/5 1693/3/5
f 1697/3/5 1696/3/5 1695/3/5
f 1698/3/5 1696/3/5 1697/3/5
f 1703/6/5 1700/6/5 1699/6/5
f 1704/6/5 1700/6/5 1703/6/5
f 1705/6/5 1702/6/5 1701/6/5
f 1706/6/5 1702/6/5 1705/6/5
f 1711/6/5 1708/6/5 1707/6/5
f 1712/6/5 1708/6/5 1711/6/5
f 1714/6/5 1710/6/5 1709/6/5
f 1715/6/5 1710/6/5 1714/6/5
f 1716/8/5 1713/8/5 1712/8/5
f 1717/6/5 1714/6/5 1713/6/5
f 1717/8/5 1713/8/5 1716/8/5
f 1718/6/5 1714/6/5 1717/6/5
f 1721/6/5 1720/6/5 1719/6/5
f 1722/6/5 1720/6/5 1721/6/5
f 1727/6/5 1724/6/5 1723/6/5
f 1728/6/5 1724/6/5 1727/6/5
f 1729/6/5 1726/6/5 1725/6/5
f 1730/6/5 1726/6/5 1729/6/5
f 1735/6/5 1732/6/5 1731/6/5
f 1736/6/5 1732/6/5 1735/6/5
f 1737/6/5 1734/6/5 1733/6/5
f 1738/6/5 1734/6/5 1737/6/5
f 1743/6/5 1740/6/5 1739/6/5
f 1744/6/5 1740/6/5 1743/6/5
f 1745/6/5 1742/6/5 1741/6/5
f 1746/6/5 1742/6/5 1745/6/5
f 1753/6/5 1748/6/5 1747/6/5
f 1754/6/5 1748/6/5 1753/6/5
f 1755/6/5 1750/6/5 1749/6/5
f 1756/6/5 1750/6/5 1755/6/5
f 1759/9/5 1752/9/5 1751/9/5
f 1760/9/5 1752/9/5 1759/9/5
f 1761/6/5 1758/6/5 1757/6/5
f 1762/6/5 1758/6/5 1761/6/5
f 1767/6/5 1764/6/5 1763/6/5
f 1768/6/5 1764/6/5 1767/6/5
f 1769/6/5 1766/6/5 1765/6/5
f 1770/6/5 1766/6/5 1769/6/5
f 1775/6/5 1772/6/5 1771/6/5
f 1776/6/5 1772/6/5 1775/6/5
f 1777/6/5 1774/6/5 1773/6/5
f 1778/6/5 1774/6/5 1777/6/5
f 1783/6/5 1780/6/5 1779/6/5
f 1784/6/5 1780/6/5 1783/6/5
f 1785/6/5 1782/6/5 1781/6/5
f 1786/6/5 1782/6/5 1785/6/5
f 1791/9/5 1788/9/5 1787/9/5
f 1792/9/5 1788/9/5 1791/9/5
f 1793/6/5 1790/6/5 1789/6/5
f 1794/6/5 1790/6/5 1793/6/5
f 1799/6/5 1796/6/5 1795/6/5
f 1800/6/5 1796/6/5 1799/6/5
f 1801/6/5 1798/6/5 1797/6/5
f 1802/6/5 1798/6/5 1801/6/5
f 1811/6/5 1804/6/5 1803/6/5
f 1812/6/5 1806/6/5 1805/6/5
f 1819/12/5 1808/12/5 1807/12/5
f 1820/6/5 1809/6/5 1808/6/5
f 1820/12/5 1808/12/5 1819/12/5
f 1821/12/5 1810/12/5 1809/12/5
f 1821/6/5 1809/6/5 1820/6/5
f 1822/6/5 1811/6/5 1810/6/5
f 1822/12/5 1810/12/5 1821/12/5
f 1823/6/5 1804/6/5 1811/6/5
f 1823/6/5 1811/6/5 1822/6/5
f 1824/6/5 1812/6/5 1805/6/5
f 1824/6/5 1813/6/5 1812/6/5
f 1825/12/5 1814/12/5 1813/12/5
f 1825/6/5 1813/6/5 1824/6/5
f 1826/6/5 1815/6/5 1814/6/5
f 1826/12/5 1814/12/5 1825/12/5
f 1827/8/5 1816/8/5 1815/8/5
f 1827/6/5 1815/6/5 1826/6/5
f 1828/6/5 1817/6/5 1816/6/5
f 1828/8/5 1816/8/5 1827/8/5
f 1829/12/5 1818/12/5 1817/12/5
f 1829/6/5 1817/6/5 1828/6/5
f 1830/12/5 1818/12/5 1829/12/5
f 1831/6/5 1804/6/5 1823/6/5
f 1832/6/5 1804/6/5 1831/6/5
f 1833/6/5 1824/6/5 1805/6/5
f 1834/6/5 1824/6/5 1833/6/5
f 1847/6/5 1836/6/5 1835/6/5
f 1848/6/5 1836/6/5 1847/6/5
f 1849/6/5 1838/6/5 1837/6/5
f 1850/6/5 1838/6/5 1849/6/5
f 1857/11/5 1840/11/5 1839/11/5
f 1857/12/5 1841/12/5 1840/12/5
f 1858/6/5 1842/6/5 1841/6/5
f 1858/12/5 1841/12/5 1857/12/5
f 1859/9/5 1843/9/5 1842/9/5
f 1859/6/5 1842/6/5 1858/6/5
f 1860/6/5 1844/6/5 1843/6/5
f 1860/9/5 1843/9/5 1859/9/5
f 1861/12/5 1845/12/5 1844/12/5
f 1861/6/5 1844/6/5 1860/6/5
f 1862/6/5 1846/6/5 1845/6/5
f 1862/12/5 1845/12/5 1861/12/5
f 1863/6/5 1846/6/5 1862/6/5
f 1864/6/5 1852/6/5 1851/6/5
f 1865/12/5 1853/12/5 1852/12/5
f 1865/6/5 1852/6/5 1864/6/5
f 1866/6/5 1854/6/5 1853/6/5
f 1866/12/5 1853/12/5 1865/12/5
f 1867/6/5 1854/6/5 1866/6/5
f 1868/6/5 1854/6/5 1867/6/5
f 1869/12/5 1855/12/5 1854/12/5
f 1869/6/5 1854/6/5 1868/6/5
f 1870/11/5 1856/11/5 1855/11/5
f 1870/12/5 1855/12/5 1869/12/5
f 1871/11/5 1857/11/5 1839/11/5
f 1886/11/5 1856/11/5 1870/11/5
f 1887/11/5 1871/11/5 1839/11/5
f 1888/12/5 1872/12/5 1871/12/5
f 1888/11/5 1871/11/5 1887/11/5
f 1889/6/5 1873/6/5 1872/6/5
f 1889/12/5 1872/12/5 1888/12/5
f 1890/12/5 1874/12/5 1873/12/5
f 1890/6/5 1873/6/5 1889/6/5
f 1891/6/5 1875/6/5 1874/6/5
f 1891/12/5 1874/12/5 1890/12/5
f 1892/5/5 1876/5/5 1875/5/5
f 1892/6/5 1875/6/5 1891/6/5
f 1893/6/5 1877/6/5 1876/6/5
f 1893/5/5 1876/5/5 1892/5/5
f 1894/6/5 1877/6/5 1893/6/5
f 1899/6/5 1879/6/5 1878/6/5
f 1900/8/5 1880/8/5 1879/8/5
f 1900/6/5 1879/6/5 1899/6/5
f 1901/6/5 1881/6/5 1880/6/5
f 1901/8/5 1880/8/5 1900/8/5
f 1902/12/5 1882/12/5 1881/12/5
f 1902/6/5 1881/6/5 1901/6/5
f 1903/6/5 1885/6/5 1884/6/5
f 1903/12/5 1882/12/5 1902/12/5
f 1903/6/5 1883/6/5 1882/6/5
f 1903/6/5 1884/6/5 1883/6/5
f 1904/12/5 1886/12/5 1885/12/5
f 1904/6/5 1885/6/5 1903/6/5
f 1905/11/5 1856/11/5 1886/11/5
f 1905/12/5 1886/12/5 1904/12/5
f 1906/11/5 1856/11/5 1905/11/5
f 1907/6/5 1896/6/5 1895/6/5
f 1908/6/5 1896/6/5 1907/6/5
f 1909/6/5 1898/6/5 1897/6/5
f 1910/6/5 1898/6/5 1909/6/5
f 1913/1/5 1912/1/5 1911/1/5
f 1914/1/5 1912/1/5 1913/1/5
f 1917/1/5 1916/1/5 1915/1/5
f 1918/1/5 1916/1/5 1917/1/5
f 1923/1/5 1920/1/5 1919/1/5
f 1924/1/5 1920/1/5 1923/1/5
f 1925/1/5 1922/1/5 1921/1/5
f 1926/1/5 1922/1/5 1925/1/5
f 1931/1/5 1928/1/5 1927/1/5
f 1932/1/5 1928/1/5 1931/1/5
f 1933/1/5 1930/1/5 1929/1/5
f 1934/1/5 1930/1/5 1933/1/5
f 1939/7/5 1936/7/5 1935/7/5
f 1940/7/5 1936/7/5 1939/7/5
f 1941/7/5 1938/7/5 1937/7/5
f 1942/7/5 1938/7/5 1941/7/5
f 1943/7/5 1941/7/5 1940/7/5
f 1944/7/5 1941/7/5 1943/7/5
f 1949/7/5 1946/7/5 1945/7/5
f 1950/7/5 1946/7/5 1949/7/5
f 1951/7/5 1948/7/5 1947/7/5
f 1952/7/5 1948/7/5 1951/7/5
f 1955/7/5 1954/7/5 1953/7/5
f 1956/7/5 1954/7/5 1955/7/5
f 1957/2/6 1958/2/6 1962/2/6
f 1962/2/6 1958/2/6 1963/2/6
f 1959/2/6 1960/2/6 1967/2/6
f 1967/2/6 1960/2/6 1968/2/6
f 1961/2/6 1962/2/6 1969/2/6
f 1962/2/6 1963/2/6 1969/2/6
f 1963/2/6 1964/2/6 1969/2/6
f 1969/2/6 1964/2/6 1970/2/6
f 1970/2/6 1964/2/6 1971/2/6
f 1971/2/6 1964/2/6 1972/2/6
f 1965/2/6 1966/2/6 1973/2/6
f 1973/2/6 1966/2/6 1974/2/6
f 1970/2/6 1971/2/6 1975/2/6
f 1975/2/6 1971/2/6 1976/2/6
f 1977/13/6 1978/13/6 1981/13/6
f 1981/13/6 1978/13/6 1982/13/6
f 1979/13/6 1980/13/6 1983/13/6
f 1983/13/6 1980/13/6 1984/13/6
f 1985/13/6 1986/13/6 1989/13/6
f 1989/13/6 1986/13/6 1990/13/6
f 1987/13/6 1988/13/6 1991/13/6
f 1991/13/6 1988/13/6 1992/13/6
f 1993/13/6 1994/13/6 1997/13/6
f 1997/13/6 1994/13/6 1998/13/6
f 1995/13/6 1996/13/6 1999/13/6
f 1999/13/6 1996/13/6 2000/13/6
f 2001/3/6 2002/3/6 2006/3/6
f 2006/3/6 2002/3/6 2007/3/6
f 2003/3/6 2004/3/6 2008/3/6
f 2008/3/6 2004/3/6 2009/3/6
f 2005/3/6 2006/3/6 2011/3/6
f 2011/3/6 2006/3/6 2012/3/6
f 2009/3/6 2010/3/6 2013/3/6
f 2013/3/6 2010/3/6 2014/3/6
f 2015/3/6 2016/3/6 2019/3/6
f 2019/3/6 2016/3/6 2020/3/6
f 2017/3/6 2018/3/6 2023/3/6
f 2023/3/6 2018/3/6 2024/3/6
f 2020/3/6 2021/3/6 2025/3/6
f 2025/3/6 2021/3/6 2026/3/6
f 2022/3/6 2023/3/6 2027/3/6
f 2027/3/6 2023/3/6 2028/3/6
f 2029/6/6 2030/6/6 2035/6/6
f 2035/6/6 2030/6/6 2036/6/6
f 2031/6/6 2032/6/6 2037/6/6
f 2037/6/6 2032/6/6 2038/6/6
f 2033/6/6 2034/6/6 2048/6/6
f 2048/6/6 2034/6/6 2049/6/6
f 2039/6/6 2040/6/6 2050/6/6
f 2050/6/6 2040/6/6 2051/6/6
f 2043/6/6 2044/6/6 2059/6/6
f 2044/5/6 2045/5/6 2059/5/6
f 2045/6/6 2046/6/6 2060/6/6
f 2059/5/6 2045/5/6 2060/5/6
f 2047/6/6 2048/6/6 2061/6/6
f 2061/6/6 2048/6/6 2062/6/6
f 2051/6/6 2052/6/6 2063/6/6
f 2063/6/6 2052/6/6 2064/6/6
f 2054/9/6 2055/9/6 2065/9/6
f 2053/6/6 2054/6/6 2065/6/6
f 2055/6/6 2056/6/6 2066/6/6
f 2065/9/6 2055/9/6 2066/9/6
f 2047/6/6 2061/6/6 2067/6/6
f 2067/6/6 2061/6/6 2068/6/6
f 2064/6/6 2052/6/6 2071/6/6
f 2071/6/6 2052/6/6 2072/6/6
f 2072/6/6 2052/6/6 2073/6/6
f 2053/6/6 2065/6/6 2074/6/6
f 2065/6/6 2066/6/6 2074/6/6
f 2066/6/6 2056/6/6 2075/6/6
f 2074/6/6 2066/6/6 2075/6/6
f 2041/11/6 2042/11/6 2076/11/6
f 2042/12/6 2043/12/6 2077/12/6
f 2076/11/6 2042/11/6 2077/11/6
f 2043/6/6 2059/6/6 2078/6/6
f 2077/12/6 2043/12/6 2078/12/6
f 2059/6/6 2060/6/6 2078/6/6
f 2046/12/6 2047/12/6 2079/12/6
f 2078/6/6 2060/6/6 2079/6/6
f 2060/6/6 2046/6/6 2079/6/6
f 2047/6/6 2067/6/6 2080/6/6
f 2079/12/6 2047/12/6 2080/12/6
f 2067/5/6 2068/5/6 2081/5/6
f 2080/6/6 2067/6/6 2081/6/6
f 2068/6/6 2069/6/6 2082/6/6
f 2081/5/6 2068/5/6 2082/5/6
f 2082/6/6 2069/6/6 2083/6/6
f 2071/6/6 2072/6/6 2086/6/6
f 2070/6/6 2071/6/6 2086/6/6
f 2072/5/6 2073/5/6 2087/5/6
f 2086/6/6 2072/6/6 2087/6/6
f 2073/6/6 2052/6/6 2088/6/6
f 2087/5/6 2073/5/6 2088/5/6
f 2052/12/6 2053/12/6 2089/12/6
f 2088/6/6 2052/6/6 2089/6/6
f 2053/6/6 2074/6/6 2090/6/6
f 2089/12/6 2053/12/6 2090/12/6
f 2074/5/6 2075/5/6 2091/5/6
f 2090/6/6 2074/6/6 2091/6/6
f 2075/6/6 2056/6/6 2092/6/6
f 2091/5/6 2075/5/6 2092/5/6
f 2056/12/6 2057/12/6 2093/12/6
f 2092/6/6 2056/6/6 2093/6/6
f 2057/11/6 2058/11/6 2094/11/6
f 2093/12/6 2057/12/6 2094/12/6
f 2094/11/6 2058/11/6 2095/11/6
f 2083/6/6 2084/6/6 2096/6/6
f 2096/6/6 2084/6/6 2097/6/6
f 2085/6/6 2086/6/6 2102/6/6
f 2102/6/6 2086/6/6 2103/6/6
f 2098/6/6 2099/6/6 2104/6/6
f 2104/6/6 2099/6/6 2105/6/6
f 2100/6/6 2101/6/6 2106/6/6
f 2106/6/6 2101/6/6 2107/6/6
f 2108/6/6 2109/6/6 2112/6/6
f 2112/6/6 2109/6/6 2113/6/6
f 2113/6/6 2109/6/6 2114/6/6
f 2110/6/6 2111/6/6 2118/6/6
f 2118/6/6 2111/6/6 2119/6/6
f 2115/6/6 2116/6/6 2120/6/6
f 2120/6/6 2116/6/6 2121/6/6
f 2117/6/6 2118/6/6 2124/6/6
f 2124/6/6 2118/6/6 2125/6/6
f 2121/6/6 2122/6/6 2126/6/6
f 2126/6/6 2122/6/6 2127/6/6
f 2124/6/6 2125/6/6 2129/6/6
f 2123/6/6 2124/6/6 2129/6/6
f 2129/6/6 2125/6/6 2130/6/6
f 2130/6/6 2125/6/6 2131/6/6
f 2127/6/6 2128/6/6 2132/6/6
f 2126/6/6 2127/6/6 2132/6/6
f 2132/6/6 2128/6/6 2133/6/6
f 2133/6/6 2128/6/6 2134/6/6
f 2130/6/6 2131/6/6 2135/6/6
f 2135/6/6 2131/6/6 2136/6/6
f 2132/6/6 2133/6/6 2139/6/6
f 2139/6/6 2133/6/6 2140/6/6
f 2136/6/6 2137/6/6 2141/6/6
f 2141/6/6 2137/6/6 2142/6/6
f 2138/6/6 2139/6/6 2145/6/6
f 2145/6/6 2139/6/6 2146/6/6
f 2143/6/6 2144/6/6 2147/6/6
f 2147/6/6 2144/6/6 2148/6/6
f 2149/6/6 2150/6/6 2156/6/6
f 2150/9/6 2151/9/6 2157/9/6
f 2156/6/6 2150/6/6 2157/6/6
f 2151/6/6 2152/6/6 2158/6/6
f 2157/9/6 2151/9/6 2158/9/6
f 2153/6/6 2154/6/6 2159/6/6
f 2155/6/6 2156/6/6 2161/6/6
f 2156/6/6 2157/6/6 2161/6/6
f 2157/6/6 2158/6/6 2161/6/6
f 2161/6/6 2158/6/6 2162/6/6
f 2159/5/6 2160/5/6 2163/5/6
f 2153/6/6 2159/6/6 2163/6/6
f 2163/5/6 2160/5/6 2164/5/6
f 2161/5/6 2162/5/6 2165/5/6
f 2162/6/6 2158/6/6 2166/6/6
f 2165/5/6 2162/5/6 2166/5/6
f 2166/6/6 2158/6/6 2167/6/6
f 2153/6/6 2163/6/6 2168/6/6
f 2163/6/6 2164/6/6 2168/6/6
f 2168/6/6 2164/6/6 2169/6/6
f 2165/6/6 2166/6/6 2170/6/6
f 2166/9/6 2167/9/6 2171/9/6
f 2170/6/6 2166/6/6 2171/6/6
f 2167/6/6 2158/6/6 2172/6/6
f 2171/9/6 2167/9/6 2172/9/6
f 2153/6/6 2168/6/6 2173/6/6
f 2168/9/6 2169/9/6 2173/9/6
f 2173/9/6 2169/9/6 2174/9/6
f 2171/6/6 2172/6/6 2175/6/6
f 2158/6/6 2152/6/6 2176/6/6
f 2175/6/6 2172/6/6 2176/6/6
f 2172/6/6 2158/6/6 2176/6/6
f 2153/6/6 2173/6/6 2177/6/6
f 2177/6/6 2173/6/6 2178/6/6
f 2179/7/6 2180/7/6 2184/7/6
f 2184/7/6 2180/7/6 2185/7/6
f 2181/7/6 2182/7/6 2186/7/6
f 2186/7/6 2182/7/6 2187/7/6
f 2183/7/6 2184/7/6 2189/7/6
f 2189/7/6 2184/7/6 2190/7/6
f 2187/7/6 2188/7/6 2191/7/6
f 2191/7/6 2188/7/6 2192/7/6
f 2193/7/6 2194/7/6 2197/7/6
f 2197/7/6 2194/7/6 2198/7/6
f 2195/7/6 2196/7/6 2201/7/6
f 2201/7/6 2196/7/6 2202/7/6
f 2198/7/6 2199/7/6 2203/7/6
f 2203/7/6 2199/7/6 2204/7/6
f 2200/7/6 2201/7/6 2205/7/6
f 2205/7/6 2201/7/6 2206/7/6
f 2207/7/6 2208/7/6 2210/7/6
f 2210/7/6 2208/7/6 2211/7/6
f 2209/7/6 2210/7/6 2214/7/6
f 2214/7/6 2210/7/6 2215/7/6
f 2211/7/6 2212/7/6 2216/7/6
f 2216/7/6 2212/7/6 2217/7/6
f 2213/7/6 2214/7/6 2219/7/6
f 2219/7/6 2214/7/6 2220/7/6
f 2217/7/6 2218/7/6 2223/7/6
f 2223/7/6 2218/7/6 2224/7/6
f 2220/7/6 2221/7/6 2225/7/6
f 2225/7/6 2221/7/6 2226/7/6
f 2222/7/6 2223/7/6 2227/7/6
f 2227/7/6 2223/7/6 2228/7/6
f 2226/7/6 2227/7/6 2229/7/6
f 2229/7/6 2227/7/6 2230/7/6
f 2231/7/6 2232/7/6 2234/7/6
f 2234/7/6 2232/7/6 2235/7/6
f 2233/7/6 2234/7/6 2237/7/6
f 2235/7/6 2236/7/6 2237/7/6
f 2234/7/6 2235/7/6 2237/7/6
f 2237/7/6 2236/7/6 2238/7/6
f 2238/7/6 2236/7/6 2239/7/6
f 2239/7/6 2236/7/6 2240/7/6
f 2238/7/6 2239/7/6 2241/7/6
f 2241/7/6 2239/7/6 2242/7/6
