# MagicaVoxel @ Ephtracy

# group
o 

# material
mtllib ak.mtl
usemtl palette

# normals
vn -1 0 0
vn 1 0 0
vn 0 0 1
vn 0 0 -1
vn 0 -1 0
vn 0 1 0

# texcoords
vt 0.982422 0.5
vt 0.986328 0.5
vt 0.990234 0.5

# verts
v -0.7 0 0.4
v -0.7 0 0.2
v -0.7 0.2 0.4
v -0.7 0.2 0.2
v -0.6 0 1.9
v -0.6 0 1.8
v -0.6 0 1.5
v -0.6 0 1.1
v -0.6 0 0.6
v -0.6 0 0.5
v -0.6 0 0.4
v -0.6 0 0.2
v -0.6 0 -1
v -0.6 0.1 0.6
v -0.6 0.1 0.5
v -0.6 0.2 1.9
v -0.6 0.2 1.8
v -0.6 0.2 1.5
v -0.6 0.2 1.1
v -0.6 0.2 0.6
v -0.6 0.2 0.5
v -0.6 0.2 0.4
v -0.6 0.2 0.2
v -0.6 0.2 -1
v -0.5 0 1.8
v -0.5 0 1.7
v -0.5 0 1.5
v -0.5 0 -1
v -0.5 0 -1.1
v -0.5 0 -1.9
v -0.5 0.1 0.6
v -0.5 0.1 0.5
v -0.5 0.2 1.8
v -0.5 0.2 1.7
v -0.5 0.2 1.5
v -0.5 0.2 0.6
v -0.5 0.2 0.5
v -0.5 0.2 -1
v -0.5 0.2 -1.1
v -0.5 0.2 -1.9
v -0.1 0 -1
v -0.1 0 -1.1
v -0.1 0.2 -1
v -0.1 0.2 -1.1
v 5.96046e-08 0 -1.1
v 5.96046e-08 0 -1.2
v 5.96046e-08 0.2 -1.1
v 5.96046e-08 0.2 -1.2
v -0.3 0 1.9
v -0.3 0 1.1
v -0.3 0 1
v -0.3 0.2 1.9
v -0.3 0.2 1.1
v -0.3 0.2 1
v -0.2 0 1
v -0.2 0 0.3
v -0.2 0 0.2
v -0.2 0 -1
v -0.2 0 -1.2
v -0.2 0 -1.4
v -0.2 0.2 1
v -0.2 0.2 0.3
v -0.2 0.2 0.2
v -0.2 0.2 -1
v -0.2 0.2 -1.2
v -0.2 0.2 -1.4
v -0.1 0 0.2
v -0.1 0 0
v -0.1 0 -0.1
v -0.1 0 -0.4
v -0.1 0 -1.4
v -0.1 0 -1.5
v -0.1 0.2 0.2
v -0.1 0.2 0
v -0.1 0.2 -0.1
v -0.1 0.2 -0.4
v -0.1 0.2 -1.4
v -0.1 0.2 -1.5
v 5.96046e-08 0 -0.4
v 5.96046e-08 0 -0.5
v 5.96046e-08 0 -0.7
v 5.96046e-08 0 -0.8
v 5.96046e-08 0 -1.5
v 5.96046e-08 0 -1.6
v 5.96046e-08 0.2 -0.4
v 5.96046e-08 0.2 -0.5
v 5.96046e-08 0.2 -0.7
v 5.96046e-08 0.2 -0.8
v 5.96046e-08 0.2 -1.5
v 5.96046e-08 0.2 -1.6
v 0.1 0 -0.5
v 0.1 0 -0.7
v 0.1 0 -0.8
v 0.1 0 -0.9
v 0.1 0 -1.6
v 0.1 0 -1.7
v 0.1 0.2 -0.5
v 0.1 0.2 -0.7
v 0.1 0.2 -0.8
v 0.1 0.2 -0.9
v 0.1 0.2 -1.6
v 0.1 0.2 -1.7
v 0.2 0 -0.9
v 0.2 0 -1.2
v 0.2 0 -1.7
v 0.2 0 -1.9
v 0.2 0.2 -0.9
v 0.2 0.2 -1.2
v 0.2 0.2 -1.7
v 0.2 0.2 -1.9
v -0.6 0 1.9
v -0.6 0.2 1.9
v -0.3 0 1.9
v -0.3 0.2 1.9
v -0.6 0 1.5
v -0.6 0.2 1.5
v -0.5 0 1.5
v -0.5 0.2 1.5
v -0.3 0 1
v -0.3 0.2 1
v -0.2 0 1
v -0.2 0.2 1
v -0.6 0.1 0.5
v -0.6 0.2 0.5
v -0.5 0.1 0.5
v -0.5 0.2 0.5
v -0.7 0 0.4
v -0.7 0.2 0.4
v -0.6 0 0.4
v -0.6 0.2 0.4
v -0.2 0 0.2
v -0.2 0.2 0.2
v -0.1 0 0.2
v -0.1 0.2 0.2
v -0.1 0 -0.4
v -0.1 0.2 -0.4
v 5.96046e-08 0 -0.4
v 5.96046e-08 0.2 -0.4
v 5.96046e-08 0 -0.5
v 5.96046e-08 0.2 -0.5
v 0.1 0 -0.5
v 0.1 0.2 -0.5
v 5.96046e-08 0 -0.8
v 5.96046e-08 0.2 -0.8
v 0.1 0 -0.8
v 0.1 0.2 -0.8
v 0.1 0 -0.9
v 0.1 0.2 -0.9
v 0.2 0 -0.9
v 0.2 0.2 -0.9
v -0.2 0 -1.4
v -0.2 0.2 -1.4
v -0.1 0 -1.4
v -0.1 0.2 -1.4
v -0.1 0 -1.5
v -0.1 0.2 -1.5
v 5.96046e-08 0 -1.5
v 5.96046e-08 0.2 -1.5
v 5.96046e-08 0 -1.6
v 5.96046e-08 0.2 -1.6
v 0.1 0 -1.6
v 0.1 0.2 -1.6
v 0.1 0 -1.7
v 0.1 0.2 -1.7
v 0.2 0 -1.7
v 0.2 0.2 -1.7
v -0.6 0 1.8
v -0.6 0.2 1.8
v -0.5 0 1.8
v -0.5 0.2 1.8
v -0.6 0.1 0.6
v -0.6 0.2 0.6
v -0.5 0.1 0.6
v -0.5 0.2 0.6
v -0.7 0 0.2
v -0.7 0.2 0.2
v -0.6 0 0.2
v -0.6 0.2 0.2
v 5.96046e-08 0 -0.7
v 5.96046e-08 0.2 -0.7
v 0.1 0 -0.7
v 0.1 0.2 -0.7
v -0.6 0 -1
v -0.6 0.2 -1
v -0.5 0 -1
v -0.5 0.2 -1
v -0.2 0 -1
v -0.2 0.2 -1
v -0.1 0 -1
v -0.1 0.2 -1
v -0.1 0 -1.1
v -0.1 0.2 -1.1
v 5.96046e-08 0 -1.1
v 5.96046e-08 0.2 -1.1
v 5.96046e-08 0 -1.2
v 5.96046e-08 0.2 -1.2
v 0.2 0 -1.2
v 0.2 0.2 -1.2
v -0.5 0 -1.9
v -0.5 0.2 -1.9
v 0.2 0 -1.9
v 0.2 0.2 -1.9
v -0.6 0 1.9
v -0.3 0 1.9
v -0.6 0 1.8
v -0.5 0 1.8
v -0.5 0 1.7
v -0.4 0 1.7
v -0.6 0 1.5
v -0.5 0 1.5
v -0.4 0 1.5
v -0.5 0 1.3
v -0.4 0 1.3
v -0.6 0 1.1
v -0.5 0 1.1
v -0.4 0 1.1
v -0.3 0 1.1
v -0.3 0 1
v -0.2 0 1
v -0.6 0 0.6
v -0.5 0 0.6
v -0.6 0 0.5
v -0.5 0 0.5
v -0.4 0 0.5
v -0.7 0 0.4
v -0.6 0 0.4
v -0.4 0 0.4
v -0.3 0 0.4
v -0.3 0 0.3
v -0.2 0 0.3
v -0.7 0 0.2
v -0.6 0 0.2
v -0.5 0 0.2
v -0.2 0 0.2
v -0.1 0 0.2
v -0.2 0 0
v -0.1 0 0
v -0.2 0 -0.1
v -0.1 0 -0.1
v -0.5 0 -0.2
v -0.4 0 -0.2
v -0.1 0 -0.4
v 5.96046e-08 0 -0.4
v -0.2 0 -0.5
v 5.96046e-08 0 -0.5
v 0.1 0 -0.5
v -0.2 0 -0.6
v -0.1 0 -0.6
v 5.96046e-08 0 -0.6
v -0.1 0 -0.7
v 5.96046e-08 0 -0.7
v 0.1 0 -0.7
v -0.5 0 -0.8
v -0.4 0 -0.8
v 5.96046e-08 0 -0.8
v 0.1 0 -0.8
v 0.1 0 -0.9
v 0.2 0 -0.9
v -0.6 0 -1
v -0.5 0 -1
v -0.2 0 -1
v -0.1 0 -1
v -0.5 0 -1.1
v -0.4 0 -1.1
v -0.1 0 -1.1
v 5.96046e-08 0 -1.1
v -0.4 0 -1.2
v -0.2 0 -1.2
v 5.96046e-08 0 -1.2
v 0.2 0 -1.2
v -0.2 0 -1.4
v -0.1 0 -1.4
v -0.1 0 -1.5
v 5.96046e-08 0 -1.5
v 5.96046e-08 0 -1.6
v 0.1 0 -1.6
v 0.1 0 -1.7
v 0.2 0 -1.7
v -0.5 0 -1.9
v 0.2 0 -1.9
v -0.6 0.1 0.6
v -0.5 0.1 0.6
v -0.6 0.1 0.5
v -0.5 0.1 0.5
v -0.6 0.2 1.9
v -0.3 0.2 1.9
v -0.6 0.2 1.8
v -0.5 0.2 1.8
v -0.5 0.2 1.7
v -0.4 0.2 1.7
v -0.6 0.2 1.5
v -0.5 0.2 1.5
v -0.4 0.2 1.5
v -0.5 0.2 1.3
v -0.4 0.2 1.3
v -0.6 0.2 1.1
v -0.5 0.2 1.1
v -0.4 0.2 1.1
v -0.3 0.2 1.1
v -0.3 0.2 1
v -0.2 0.2 1
v -0.6 0.2 0.6
v -0.5 0.2 0.6
v -0.6 0.2 0.5
v -0.5 0.2 0.5
v -0.4 0.2 0.5
v -0.7 0.2 0.4
v -0.6 0.2 0.4
v -0.4 0.2 0.4
v -0.3 0.2 0.4
v -0.3 0.2 0.3
v -0.2 0.2 0.3
v -0.7 0.2 0.2
v -0.6 0.2 0.2
v -0.5 0.2 0.2
v -0.2 0.2 0.2
v -0.1 0.2 0.2
v -0.2 0.2 0
v -0.1 0.2 0
v -0.2 0.2 -0.1
v -0.1 0.2 -0.1
v -0.5 0.2 -0.2
v -0.4 0.2 -0.2
v -0.1 0.2 -0.4
v 5.96046e-08 0.2 -0.4
v -0.2 0.2 -0.5
v 5.96046e-08 0.2 -0.5
v 0.1 0.2 -0.5
v -0.2 0.2 -0.6
v -0.1 0.2 -0.6
v 5.96046e-08 0.2 -0.6
v -0.1 0.2 -0.7
v 5.96046e-08 0.2 -0.7
v 0.1 0.2 -0.7
v -0.5 0.2 -0.8
v -0.4 0.2 -0.8
v 5.96046e-08 0.2 -0.8
v 0.1 0.2 -0.8
v 0.1 0.2 -0.9
v 0.2 0.2 -0.9
v -0.6 0.2 -1
v -0.5 0.2 -1
v -0.2 0.2 -1
v -0.1 0.2 -1
v -0.5 0.2 -1.1
v -0.4 0.2 -1.1
v -0.1 0.2 -1.1
v 5.96046e-08 0.2 -1.1
v -0.4 0.2 -1.2
v -0.2 0.2 -1.2
v 5.96046e-08 0.2 -1.2
v 0.2 0.2 -1.2
v -0.2 0.2 -1.4
v -0.1 0.2 -1.4
v -0.1 0.2 -1.5
v 5.96046e-08 0.2 -1.5
v 5.96046e-08 0.2 -1.6
v 0.1 0.2 -1.6
v 0.1 0.2 -1.7
v 0.2 0.2 -1.7
v -0.5 0.2 -1.9
v 0.2 0.2 -1.9

# faces
f 3/3/1 2/3/1 1/3/1
f 4/3/1 2/3/1 3/3/1
f 14/1/1 9/1/1 8/1/1
f 14/2/1 10/2/1 9/2/1
f 15/3/1 11/3/1 10/3/1
f 15/2/1 10/2/1 14/2/1
f 16/2/1 6/2/1 5/2/1
f 17/2/1 6/2/1 16/2/1
f 18/2/1 8/2/1 7/2/1
f 19/1/1 14/1/1 8/1/1
f 19/2/1 8/2/1 18/2/1
f 20/1/1 14/1/1 19/1/1
f 21/3/1 11/3/1 15/3/1
f 22/3/1 11/3/1 21/3/1
f 23/2/1 13/2/1 12/2/1
f 24/2/1 13/2/1 23/2/1
f 33/2/1 26/2/1 25/2/1
f 34/3/1 27/3/1 26/3/1
f 34/2/1 26/2/1 33/2/1
f 35/3/1 27/3/1 34/3/1
f 36/1/1 32/1/1 31/1/1
f 37/1/1 32/1/1 36/1/1
f 38/2/1 29/2/1 28/2/1
f 39/1/1 30/1/1 29/1/1
f 39/2/1 29/2/1 38/2/1
f 40/1/1 30/1/1 39/1/1
f 43/1/1 42/1/1 41/1/1
f 44/1/1 42/1/1 43/1/1
f 47/1/1 46/1/1 45/1/1
f 48/1/1 46/1/1 47/1/1
f 49/2/2 50/2/2 52/2/2
f 50/1/2 51/1/2 53/1/2
f 52/2/2 50/2/2 53/2/2
f 53/1/2 51/1/2 54/1/2
f 55/1/2 56/1/2 61/1/2
f 56/2/2 57/2/2 62/2/2
f 61/1/2 56/1/2 62/1/2
f 62/2/2 57/2/2 63/2/2
f 58/2/2 59/2/2 64/2/2
f 59/1/2 60/1/2 65/1/2
f 64/2/2 59/2/2 65/2/2
f 65/1/2 60/1/2 66/1/2
f 67/2/2 68/2/2 73/2/2
f 68/3/2 69/3/2 74/3/2
f 73/2/2 68/2/2 74/2/2
f 69/2/2 70/2/2 75/2/2
f 74/3/2 69/3/2 75/3/2
f 75/2/2 70/2/2 76/2/2
f 71/1/2 72/1/2 77/1/2
f 77/1/2 72/1/2 78/1/2
f 79/2/2 80/2/2 85/2/2
f 85/2/2 80/2/2 86/2/2
f 81/1/2 82/1/2 87/1/2
f 87/1/2 82/1/2 88/1/2
f 83/1/2 84/1/2 89/1/2
f 89/1/2 84/1/2 90/1/2
f 91/2/2 92/2/2 97/2/2
f 97/2/2 92/2/2 98/2/2
f 93/1/2 94/1/2 99/1/2
f 99/1/2 94/1/2 100/1/2
f 95/1/2 96/1/2 101/1/2
f 101/1/2 96/1/2 102/1/2
f 103/1/2 104/1/2 107/1/2
f 107/1/2 104/1/2 108/1/2
f 105/1/2 106/1/2 109/1/2
f 109/1/2 106/1/2 110/1/2
f 113/2/3 112/2/3 111/2/3
f 114/2/3 112/2/3 113/2/3
f 117/2/3 116/2/3 115/2/3
f 118/2/3 116/2/3 117/2/3
f 121/1/3 120/1/3 119/1/3
f 122/1/3 120/1/3 121/1/3
f 125/3/3 124/3/3 123/3/3
f 126/3/3 124/3/3 125/3/3
f 129/3/3 128/3/3 127/3/3
f 130/3/3 128/3/3 129/3/3
f 133/2/3 132/2/3 131/2/3
f 134/2/3 132/2/3 133/2/3
f 137/2/3 136/2/3 135/2/3
f 138/2/3 136/2/3 137/2/3
f 141/2/3 140/2/3 139/2/3
f 142/2/3 140/2/3 141/2/3
f 145/1/3 144/1/3 143/1/3
f 146/1/3 144/1/3 145/1/3
f 149/1/3 148/1/3 147/1/3
f 150/1/3 148/1/3 149/1/3
f 153/1/3 152/1/3 151/1/3
f 154/1/3 152/1/3 153/1/3
f 157/1/3 156/1/3 155/1/3
f 158/1/3 156/1/3 157/1/3
f 161/1/3 160/1/3 159/1/3
f 162/1/3 160/1/3 161/1/3
f 165/1/3 164/1/3 163/1/3
f 166/1/3 164/1/3 165/1/3
f 167/2/4 168/2/4 169/2/4
f 169/2/4 168/2/4 170/2/4
f 171/1/4 172/1/4 173/1/4
f 173/1/4 172/1/4 174/1/4
f 175/3/4 176/3/4 177/3/4
f 177/3/4 176/3/4 178/3/4
f 179/2/4 180/2/4 181/2/4
f 181/2/4 180/2/4 182/2/4
f 183/2/4 184/2/4 185/2/4
f 185/2/4 184/2/4 186/2/4
f 187/1/4 188/1/4 189/1/4
f 189/1/4 188/1/4 190/1/4
f 191/1/4 192/1/4 193/1/4
f 193/1/4 192/1/4 194/1/4
f 195/1/4 196/1/4 197/1/4
f 197/1/4 196/1/4 198/1/4
f 199/1/4 200/1/4 201/1/4
f 201/1/4 200/1/4 202/1/4
f 205/2/5 204/2/5 203/2/5
f 206/2/5 204/2/5 205/2/5
f 207/2/5 204/2/5 206/2/5
f 208/2/5 204/2/5 207/2/5
f 210/3/5 208/3/5 207/3/5
f 211/2/5 204/2/5 208/2/5
f 211/3/5 208/3/5 210/3/5
f 212/2/5 210/2/5 209/2/5
f 212/2/5 211/2/5 210/2/5
f 213/2/5 204/2/5 211/2/5
f 213/2/5 211/2/5 212/2/5
f 214/2/5 212/2/5 209/2/5
f 215/3/5 213/3/5 212/3/5
f 215/2/5 212/2/5 214/2/5
f 216/2/5 204/2/5 213/2/5
f 216/3/5 213/3/5 215/3/5
f 217/2/5 204/2/5 216/2/5
f 218/1/5 215/1/5 214/1/5
f 218/1/5 216/1/5 215/1/5
f 218/1/5 217/1/5 216/1/5
f 220/1/5 218/1/5 214/1/5
f 220/1/5 219/1/5 218/1/5
f 221/1/5 219/1/5 220/1/5
f 222/2/5 221/2/5 220/2/5
f 223/1/5 219/1/5 221/1/5
f 223/2/5 221/2/5 222/2/5
f 224/1/5 219/1/5 223/1/5
f 226/3/5 223/3/5 222/3/5
f 227/1/5 219/1/5 224/1/5
f 227/2/5 224/2/5 223/2/5
f 228/1/5 219/1/5 227/1/5
f 229/2/5 228/2/5 227/2/5
f 229/1/5 219/1/5 228/1/5
f 230/1/5 219/1/5 229/1/5
f 231/3/5 226/3/5 225/3/5
f 232/3/5 223/3/5 226/3/5
f 232/3/5 226/3/5 231/3/5
f 233/2/5 227/2/5 223/2/5
f 233/3/5 223/3/5 232/3/5
f 233/2/5 229/2/5 227/2/5
f 233/2/5 230/2/5 229/2/5
f 234/2/5 230/2/5 233/2/5
f 236/2/5 234/2/5 233/2/5
f 236/2/5 235/2/5 234/2/5
f 236/2/5 233/2/5 232/2/5
f 237/2/5 235/2/5 236/2/5
f 238/2/5 236/2/5 232/2/5
f 238/3/5 237/3/5 236/3/5
f 239/3/5 237/3/5 238/3/5
f 240/2/5 238/2/5 232/2/5
f 240/2/5 239/2/5 238/2/5
f 241/2/5 239/2/5 240/2/5
f 242/2/5 239/2/5 241/2/5
f 244/2/5 242/2/5 241/2/5
f 244/2/5 243/2/5 242/2/5
f 245/2/5 243/2/5 244/2/5
f 247/2/5 244/2/5 241/2/5
f 247/3/5 245/3/5 244/3/5
f 248/3/5 245/3/5 247/3/5
f 249/2/5 246/2/5 245/2/5
f 249/3/5 245/3/5 248/3/5
f 250/1/5 248/1/5 247/1/5
f 250/2/5 249/2/5 248/2/5
f 251/2/5 246/2/5 249/2/5
f 251/2/5 249/2/5 250/2/5
f 252/2/5 246/2/5 251/2/5
f 253/2/5 240/2/5 232/2/5
f 253/3/5 241/3/5 240/3/5
f 254/2/5 247/2/5 241/2/5
f 254/3/5 241/3/5 253/3/5
f 255/1/5 251/1/5 250/1/5
f 257/1/5 256/1/5 255/1/5
f 259/2/5 253/2/5 232/2/5
f 259/2/5 254/2/5 253/2/5
f 260/2/5 254/2/5 259/2/5
f 261/1/5 257/1/5 255/1/5
f 261/2/5 254/2/5 260/2/5
f 261/2/5 247/2/5 254/2/5
f 261/1/5 250/1/5 247/1/5
f 261/1/5 255/1/5 250/1/5
f 261/1/5 258/1/5 257/1/5
f 262/1/5 258/1/5 261/1/5
f 263/2/5 261/2/5 260/2/5
f 264/2/5 261/2/5 263/2/5
f 265/1/5 258/1/5 262/1/5
f 266/1/5 258/1/5 265/1/5
f 267/2/5 261/2/5 264/2/5
f 267/1/5 264/1/5 263/1/5
f 268/2/5 261/2/5 267/2/5
f 269/1/5 258/1/5 266/1/5
f 270/1/5 258/1/5 269/1/5
f 271/1/5 268/1/5 267/1/5
f 273/1/5 272/1/5 271/1/5
f 275/1/5 274/1/5 273/1/5
f 277/1/5 276/1/5 275/1/5
f 279/1/5 267/1/5 263/1/5
f 279/1/5 278/1/5 277/1/5
f 279/1/5 277/1/5 275/1/5
f 279/1/5 275/1/5 273/1/5
f 279/1/5 273/1/5 271/1/5
f 279/1/5 271/1/5 267/1/5
f 280/1/5 278/1/5 279/1/5
f 281/2/6 282/2/6 283/2/6
f 283/2/6 282/2/6 284/2/6
f 285/2/6 286/2/6 287/2/6
f 287/2/6 286/2/6 288/2/6
f 288/2/6 286/2/6 289/2/6
f 289/2/6 286/2/6 290/2/6
f 289/3/6 290/3/6 292/3/6
f 290/2/6 286/2/6 293/2/6
f 292/3/6 290/3/6 293/3/6
f 291/2/6 292/2/6 294/2/6
f 292/2/6 293/2/6 294/2/6
f 293/2/6 286/2/6 295/2/6
f 294/2/6 293/2/6 295/2/6
f 291/2/6 294/2/6 296/2/6
f 294/3/6 295/3/6 297/3/6
f 296/2/6 294/2/6 297/2/6
f 295/2/6 286/2/6 298/2/6
f 297/3/6 295/3/6 298/3/6
f 298/2/6 286/2/6 299/2/6
f 296/1/6 297/1/6 300/1/6
f 297/1/6 298/1/6 300/1/6
f 298/1/6 299/1/6 300/1/6
f 296/1/6 300/1/6 302/1/6
f 300/1/6 301/1/6 302/1/6
f 302/1/6 301/1/6 303/1/6
f 303/1/6 301/1/6 305/1/6
f 305/1/6 301/1/6 306/1/6
f 304/3/6 305/3/6 308/3/6
f 306/1/6 301/1/6 309/1/6
f 305/2/6 306/2/6 309/2/6
f 309/1/6 301/1/6 310/1/6
f 309/2/6 310/2/6 311/2/6
f 310/1/6 301/1/6 311/1/6
f 311/1/6 301/1/6 312/1/6
f 307/3/6 308/3/6 313/3/6
f 308/3/6 305/3/6 314/3/6
f 313/3/6 308/3/6 314/3/6
f 305/2/6 309/2/6 315/2/6
f 314/3/6 305/3/6 315/3/6
f 309/2/6 311/2/6 315/2/6
f 311/2/6 312/2/6 315/2/6
f 315/2/6 312/2/6 316/2/6
f 315/2/6 316/2/6 318/2/6
f 316/2/6 317/2/6 318/2/6
f 314/2/6 315/2/6 318/2/6
f 318/2/6 317/2/6 319/2/6
f 314/2/6 318/2/6 320/2/6
f 318/3/6 319/3/6 320/3/6
f 320/3/6 319/3/6 321/3/6
f 314/2/6 320/2/6 322/2/6
f 320/2/6 321/2/6 322/2/6
f 322/2/6 321/2/6 323/2/6
f 323/2/6 321/2/6 324/2/6
f 323/2/6 324/2/6 326/2/6
f 324/2/6 325/2/6 326/2/6
f 326/2/6 325/2/6 327/2/6
f 323/2/6 326/2/6 329/2/6
f 326/3/6 327/3/6 329/3/6
f 329/3/6 327/3/6 330/3/6
f 327/2/6 328/2/6 331/2/6
f 330/3/6 327/3/6 331/3/6
f 329/1/6 330/1/6 332/1/6
f 330/2/6 331/2/6 332/2/6
f 331/2/6 328/2/6 333/2/6
f 332/2/6 331/2/6 333/2/6
f 333/2/6 328/2/6 334/2/6
f 314/2/6 322/2/6 335/2/6
f 322/3/6 323/3/6 335/3/6
f 323/2/6 329/2/6 336/2/6
f 335/3/6 323/3/6 336/3/6
f 332/1/6 333/1/6 337/1/6
f 337/1/6 338/1/6 339/1/6
f 314/2/6 335/2/6 341/2/6
f 335/2/6 336/2/6 341/2/6
f 341/2/6 336/2/6 342/2/6
f 337/1/6 339/1/6 343/1/6
f 342/2/6 336/2/6 343/2/6
f 336/2/6 329/2/6 343/2/6
f 329/1/6 332/1/6 343/1/6
f 332/1/6 337/1/6 343/1/6
f 339/1/6 340/1/6 343/1/6
f 343/1/6 340/1/6 344/1/6
f 342/2/6 343/2/6 345/2/6
f 345/2/6 343/2/6 346/2/6
f 344/1/6 340/1/6 347/1/6
f 347/1/6 340/1/6 348/1/6
f 346/2/6 343/2/6 349/2/6
f 345/1/6 346/1/6 349/1/6
f 349/2/6 343/2/6 350/2/6
f 348/1/6 340/1/6 351/1/6
f 351/1/6 340/1/6 352/1/6
f 349/1/6 350/1/6 353/1/6
f 353/1/6 354/1/6 355/1/6
f 355/1/6 356/1/6 357/1/6
f 357/1/6 358/1/6 359/1/6
f 345/1/6 349/1/6 361/1/6
f 359/1/6 360/1/6 361/1/6
f 357/1/6 359/1/6 361/1/6
f 355/1/6 357/1/6 361/1/6
f 353/1/6 355/1/6 361/1/6
f 349/1/6 353/1/6 361/1/6
f 361/1/6 360/1/6 362/1/6
