# MagicaVoxel @ Ephtracy

# group
o 

# material
mtllib ak.mtl
usemtl palette

# normals
vn -1 0 0
vn 1 0 0
vn 0 0 1
vn 0 0 -1
vn 0 -1 0
vn 0 1 0

# texcoords
vt 0.982422 0.5
vt 0.986328 0.5
vt 0.990234 0.5

# verts
v -0.7 0 0.4
v -0.7 0 0.2
v -0.7 0.2 0.4
v -0.7 0.2 0.2
v -0.6 0 1.9
v -0.6 0 1.8
v -0.6 0 1.5
v -0.6 0 1.1
v -0.6 0 0.6
v -0.6 0 0.5
v -0.6 0 0.4
v -0.6 0 0.2
v -0.6 0 -1
v -0.6 0.1 0.6
v -0.6 0.1 0.5
v -0.6 0.2 1.9
v -0.6 0.2 1.8
v -0.6 0.2 1.5
v -0.6 0.2 1.1
v -0.6 0.2 0.6
v -0.6 0.2 0.5
v -0.6 0.2 0.4
v -0.6 0.2 0.2
v -0.6 0.2 -1
v -0.5 0 1.8
v -0.5 0 1.7
v -0.5 0 1.5
v -0.5 0 -1
v -0.5 0 -1.1
v -0.5 0 -1.9
v -0.5 0.1 0.6
v -0.5 0.1 0.5
v -0.5 0.2 1.8
v -0.5 0.2 1.7
v -0.5 0.2 1.5
v -0.5 0.2 0.6
v -0.5 0.2 0.5
v -0.5 0.2 -1
v -0.5 0.2 -1.1
v -0.5 0.2 -1.9
v -0.1 0 -1
v -0.1 0 -1.1
v -0.1 0.2 -1
v -0.1 0.2 -1.1
v 5.96046e-08 0 -1.1
v 5.96046e-08 0 -1.2
v 5.96046e-08 0.2 -1.1
v 5.96046e-08 0.2 -1.2
v 0.1 0 0.3
v 0.1 0 0.2
v 0.1 0.2 0.3
v 0.1 0.2 0.2
v 0.3 0 0.4
v 0.3 0 0.3
v 0.3 0.2 0.4
v 0.3 0.2 0.3
v 0.5 0 0.5
v 0.5 0 0.4
v 0.5 0.2 0.5
v 0.5 0.2 0.4
v -0.3 0 1.9
v -0.3 0 1.1
v -0.3 0 1
v -0.3 0.2 1.9
v -0.3 0.2 1.1
v -0.3 0.2 1
v -0.2 0 1
v -0.2 0 0.3
v -0.2 0 0.2
v -0.2 0 -1
v -0.2 0 -1.2
v -0.2 0 -1.4
v -0.2 0.2 1
v -0.2 0.2 0.3
v -0.2 0.2 0.2
v -0.2 0.2 -1
v -0.2 0.2 -1.2
v -0.2 0.2 -1.4
v -0.1 0 -0.3
v -0.1 0 -0.4
v -0.1 0 -1.4
v -0.1 0 -1.5
v -0.1 0.2 -0.3
v -0.1 0.2 -0.4
v -0.1 0.2 -1.4
v -0.1 0.2 -1.5
v 5.96046e-08 0 -0.2
v 5.96046e-08 0 -0.3
v 5.96046e-08 0 -0.4
v 5.96046e-08 0 -0.5
v 5.96046e-08 0 -0.7
v 5.96046e-08 0 -0.8
v 5.96046e-08 0 -1.5
v 5.96046e-08 0 -1.6
v 5.96046e-08 0.2 -0.2
v 5.96046e-08 0.2 -0.3
v 5.96046e-08 0.2 -0.4
v 5.96046e-08 0.2 -0.5
v 5.96046e-08 0.2 -0.7
v 5.96046e-08 0.2 -0.8
v 5.96046e-08 0.2 -1.5
v 5.96046e-08 0.2 -1.6
v 0.1 0 -0.1
v 0.1 0 -0.2
v 0.1 0 -0.5
v 0.1 0 -0.7
v 0.1 0 -0.8
v 0.1 0 -0.9
v 0.1 0 -1.6
v 0.1 0 -1.7
v 0.1 0.2 -0.1
v 0.1 0.2 -0.2
v 0.1 0.2 -0.5
v 0.1 0.2 -0.7
v 0.1 0.2 -0.8
v 0.1 0.2 -0.9
v 0.1 0.2 -1.6
v 0.1 0.2 -1.7
v 0.2 0 -0.9
v 0.2 0 -1.2
v 0.2 0 -1.7
v 0.2 0 -1.9
v 0.2 0.2 -0.9
v 0.2 0.2 -1.2
v 0.2 0.2 -1.7
v 0.2 0.2 -1.9
v 0.4 0 0
v 0.4 0 -0.1
v 0.4 0.2 0
v 0.4 0.2 -0.1
v 0.5 0 0.1
v 0.5 0 0
v 0.5 0.2 0.1
v 0.5 0.2 0
v 0.6 0 0.2
v 0.6 0 0.1
v 0.6 0.2 0.2
v 0.6 0.2 0.1
v 0.7 0 0.5
v 0.7 0 0.2
v 0.7 0.2 0.5
v 0.7 0.2 0.2
v -0.6 0 1.9
v -0.6 0.2 1.9
v -0.3 0 1.9
v -0.3 0.2 1.9
v -0.6 0 1.5
v -0.6 0.2 1.5
v -0.5 0 1.5
v -0.5 0.2 1.5
v -0.3 0 1
v -0.3 0.2 1
v -0.2 0 1
v -0.2 0.2 1
v -0.6 0.1 0.5
v -0.6 0.2 0.5
v -0.5 0.1 0.5
v -0.5 0.2 0.5
v 0.5 0 0.5
v 0.5 0.2 0.5
v 0.7 0 0.5
v 0.7 0.2 0.5
v -0.7 0 0.4
v -0.7 0.2 0.4
v -0.6 0 0.4
v -0.6 0.2 0.4
v 0.3 0 0.4
v 0.3 0.2 0.4
v 0.5 0 0.4
v 0.5 0.2 0.4
v 0.1 0 0.3
v 0.1 0.2 0.3
v 0.3 0 0.3
v 0.3 0.2 0.3
v -0.2 0 0.2
v -0.2 0.2 0.2
v 0.1 0 0.2
v 0.1 0.2 0.2
v -0.1 0 -0.4
v -0.1 0.2 -0.4
v 5.96046e-08 0 -0.4
v 5.96046e-08 0.2 -0.4
v 5.96046e-08 0 -0.5
v 5.96046e-08 0.2 -0.5
v 0.1 0 -0.5
v 0.1 0.2 -0.5
v 5.96046e-08 0 -0.8
v 5.96046e-08 0.2 -0.8
v 0.1 0 -0.8
v 0.1 0.2 -0.8
v 0.1 0 -0.9
v 0.1 0.2 -0.9
v 0.2 0 -0.9
v 0.2 0.2 -0.9
v -0.2 0 -1.4
v -0.2 0.2 -1.4
v -0.1 0 -1.4
v -0.1 0.2 -1.4
v -0.1 0 -1.5
v -0.1 0.2 -1.5
v 5.96046e-08 0 -1.5
v 5.96046e-08 0.2 -1.5
v 5.96046e-08 0 -1.6
v 5.96046e-08 0.2 -1.6
v 0.1 0 -1.6
v 0.1 0.2 -1.6
v 0.1 0 -1.7
v 0.1 0.2 -1.7
v 0.2 0 -1.7
v 0.2 0.2 -1.7
v -0.6 0 1.8
v -0.6 0.2 1.8
v -0.5 0 1.8
v -0.5 0.2 1.8
v -0.6 0.1 0.6
v -0.6 0.2 0.6
v -0.5 0.1 0.6
v -0.5 0.2 0.6
v -0.7 0 0.2
v -0.7 0.2 0.2
v -0.6 0 0.2
v -0.6 0.2 0.2
v 0.6 0 0.2
v 0.6 0.2 0.2
v 0.7 0 0.2
v 0.7 0.2 0.2
v 0.5 0 0.1
v 0.5 0.2 0.1
v 0.6 0 0.1
v 0.6 0.2 0.1
v 0.4 0 0
v 0.4 0.2 0
v 0.5 0 0
v 0.5 0.2 0
v 0.1 0 -0.1
v 0.1 0.2 -0.1
v 0.4 0 -0.1
v 0.4 0.2 -0.1
v 5.96046e-08 0 -0.2
v 5.96046e-08 0.2 -0.2
v 0.1 0 -0.2
v 0.1 0.2 -0.2
v -0.1 0 -0.3
v -0.1 0.2 -0.3
v 5.96046e-08 0 -0.3
v 5.96046e-08 0.2 -0.3
v 5.96046e-08 0 -0.7
v 5.96046e-08 0.2 -0.7
v 0.1 0 -0.7
v 0.1 0.2 -0.7
v -0.6 0 -1
v -0.6 0.2 -1
v -0.5 0 -1
v -0.5 0.2 -1
v -0.2 0 -1
v -0.2 0.2 -1
v -0.1 0 -1
v -0.1 0.2 -1
v -0.1 0 -1.1
v -0.1 0.2 -1.1
v 5.96046e-08 0 -1.1
v 5.96046e-08 0.2 -1.1
v 5.96046e-08 0 -1.2
v 5.96046e-08 0.2 -1.2
v 0.2 0 -1.2
v 0.2 0.2 -1.2
v -0.5 0 -1.9
v -0.5 0.2 -1.9
v 0.2 0 -1.9
v 0.2 0.2 -1.9
v -0.6 0 1.9
v -0.3 0 1.9
v -0.6 0 1.8
v -0.5 0 1.8
v -0.5 0 1.7
v -0.4 0 1.7
v -0.6 0 1.5
v -0.5 0 1.5
v -0.4 0 1.5
v -0.5 0 1.3
v -0.4 0 1.3
v -0.6 0 1.1
v -0.5 0 1.1
v -0.4 0 1.1
v -0.3 0 1.1
v -0.3 0 1
v -0.2 0 1
v -0.6 0 0.6
v -0.5 0 0.6
v -0.6 0 0.5
v -0.5 0 0.5
v -0.4 0 0.5
v 0.5 0 0.5
v 0.7 0 0.5
v -0.7 0 0.4
v -0.6 0 0.4
v -0.4 0 0.4
v -0.3 0 0.4
v 0.3 0 0.4
v 0.5 0 0.4
v -0.3 0 0.3
v -0.2 0 0.3
v 0.1 0 0.3
v 0.3 0 0.3
v 0.4 0 0.3
v 0.5 0 0.3
v -0.7 0 0.2
v -0.6 0 0.2
v -0.5 0 0.2
v -0.2 0 0.2
v 0.1 0 0.2
v 0.2 0 0.2
v 0.4 0 0.2
v 0.5 0 0.2
v 0.6 0 0.2
v 0.7 0 0.2
v 5.96046e-08 0 0.1
v 0.2 0 0.1
v 0.4 0 0.1
v 0.5 0 0.1
v 0.6 0 0.1
v -0.2 0 0
v 5.96046e-08 0 0
v 0.2 0 0
v 0.4 0 0
v 0.5 0 0
v -0.2 0 -0.1
v 5.96046e-08 0 -0.1
v 0.1 0 -0.1
v 0.4 0 -0.1
v -0.5 0 -0.2
v -0.4 0 -0.2
v 5.96046e-08 0 -0.2
v 0.1 0 -0.2
v -0.1 0 -0.3
v 5.96046e-08 0 -0.3
v -0.1 0 -0.4
v 5.96046e-08 0 -0.4
v -0.2 0 -0.5
v 5.96046e-08 0 -0.5
v 0.1 0 -0.5
v -0.2 0 -0.6
v -0.1 0 -0.6
v 5.96046e-08 0 -0.6
v -0.1 0 -0.7
v 5.96046e-08 0 -0.7
v 0.1 0 -0.7
v -0.5 0 -0.8
v -0.4 0 -0.8
v 5.96046e-08 0 -0.8
v 0.1 0 -0.8
v 0.1 0 -0.9
v 0.2 0 -0.9
v -0.6 0 -1
v -0.5 0 -1
v -0.2 0 -1
v -0.1 0 -1
v -0.5 0 -1.1
v -0.4 0 -1.1
v -0.1 0 -1.1
v 5.96046e-08 0 -1.1
v -0.4 0 -1.2
v -0.2 0 -1.2
v 5.96046e-08 0 -1.2
v 0.2 0 -1.2
v -0.2 0 -1.4
v -0.1 0 -1.4
v -0.1 0 -1.5
v 5.96046e-08 0 -1.5
v 5.96046e-08 0 -1.6
v 0.1 0 -1.6
v 0.1 0 -1.7
v 0.2 0 -1.7
v -0.5 0 -1.9
v 0.2 0 -1.9
v -0.6 0.1 0.6
v -0.5 0.1 0.6
v -0.6 0.1 0.5
v -0.5 0.1 0.5
v -0.6 0.2 1.9
v -0.3 0.2 1.9
v -0.6 0.2 1.8
v -0.5 0.2 1.8
v -0.5 0.2 1.7
v -0.4 0.2 1.7
v -0.6 0.2 1.5
v -0.5 0.2 1.5
v -0.4 0.2 1.5
v -0.5 0.2 1.3
v -0.4 0.2 1.3
v -0.6 0.2 1.1
v -0.5 0.2 1.1
v -0.4 0.2 1.1
v -0.3 0.2 1.1
v -0.3 0.2 1
v -0.2 0.2 1
v -0.6 0.2 0.6
v -0.5 0.2 0.6
v -0.6 0.2 0.5
v -0.5 0.2 0.5
v -0.4 0.2 0.5
v 0.5 0.2 0.5
v 0.7 0.2 0.5
v -0.7 0.2 0.4
v -0.6 0.2 0.4
v -0.4 0.2 0.4
v -0.3 0.2 0.4
v 0.3 0.2 0.4
v 0.5 0.2 0.4
v -0.3 0.2 0.3
v -0.2 0.2 0.3
v 0.1 0.2 0.3
v 0.3 0.2 0.3
v 0.4 0.2 0.3
v 0.5 0.2 0.3
v -0.7 0.2 0.2
v -0.6 0.2 0.2
v -0.5 0.2 0.2
v -0.2 0.2 0.2
v 0.1 0.2 0.2
v 0.2 0.2 0.2
v 0.4 0.2 0.2
v 0.5 0.2 0.2
v 0.6 0.2 0.2
v 0.7 0.2 0.2
v 5.96046e-08 0.2 0.1
v 0.2 0.2 0.1
v 0.4 0.2 0.1
v 0.5 0.2 0.1
v 0.6 0.2 0.1
v -0.2 0.2 0
v 5.96046e-08 0.2 0
v 0.2 0.2 0
v 0.4 0.2 0
v 0.5 0.2 0
v -0.2 0.2 -0.1
v 5.96046e-08 0.2 -0.1
v 0.1 0.2 -0.1
v 0.4 0.2 -0.1
v -0.5 0.2 -0.2
v -0.4 0.2 -0.2
v 5.96046e-08 0.2 -0.2
v 0.1 0.2 -0.2
v -0.1 0.2 -0.3
v 5.96046e-08 0.2 -0.3
v -0.1 0.2 -0.4
v 5.96046e-08 0.2 -0.4
v -0.2 0.2 -0.5
v 5.96046e-08 0.2 -0.5
v 0.1 0.2 -0.5
v -0.2 0.2 -0.6
v -0.1 0.2 -0.6
v 5.96046e-08 0.2 -0.6
v -0.1 0.2 -0.7
v 5.96046e-08 0.2 -0.7
v 0.1 0.2 -0.7
v -0.5 0.2 -0.8
v -0.4 0.2 -0.8
v 5.96046e-08 0.2 -0.8
v 0.1 0.2 -0.8
v 0.1 0.2 -0.9
v 0.2 0.2 -0.9
v -0.6 0.2 -1
v -0.5 0.2 -1
v -0.2 0.2 -1
v -0.1 0.2 -1
v -0.5 0.2 -1.1
v -0.4 0.2 -1.1
v -0.1 0.2 -1.1
v 5.96046e-08 0.2 -1.1
v -0.4 0.2 -1.2
v -0.2 0.2 -1.2
v 5.96046e-08 0.2 -1.2
v 0.2 0.2 -1.2
v -0.2 0.2 -1.4
v -0.1 0.2 -1.4
v -0.1 0.2 -1.5
v 5.96046e-08 0.2 -1.5
v 5.96046e-08 0.2 -1.6
v 0.1 0.2 -1.6
v 0.1 0.2 -1.7
v 0.2 0.2 -1.7
v -0.5 0.2 -1.9
v 0.2 0.2 -1.9

# faces
f 3/3/1 2/3/1 1/3/1
f 4/3/1 2/3/1 3/3/1
f 14/1/1 9/1/1 8/1/1
f 14/2/1 10/2/1 9/2/1
f 15/3/1 11/3/1 10/3/1
f 15/2/1 10/2/1 14/2/1
f 16/2/1 6/2/1 5/2/1
f 17/2/1 6/2/1 16/2/1
f 18/2/1 8/2/1 7/2/1
f 19/1/1 14/1/1 8/1/1
f 19/2/1 8/2/1 18/2/1
f 20/1/1 14/1/1 19/1/1
f 21/3/1 11/3/1 15/3/1
f 22/3/1 11/3/1 21/3/1
f 23/2/1 13/2/1 12/2/1
f 24/2/1 13/2/1 23/2/1
f 33/2/1 26/2/1 25/2/1
f 34/3/1 27/3/1 26/3/1
f 34/2/1 26/2/1 33/2/1
f 35/3/1 27/3/1 34/3/1
f 36/1/1 32/1/1 31/1/1
f 37/1/1 32/1/1 36/1/1
f 38/2/1 29/2/1 28/2/1
f 39/1/1 30/1/1 29/1/1
f 39/2/1 29/2/1 38/2/1
f 40/1/1 30/1/1 39/1/1
f 43/1/1 42/1/1 41/1/1
f 44/1/1 42/1/1 43/1/1
f 47/1/1 46/1/1 45/1/1
f 48/1/1 46/1/1 47/1/1
f 51/2/1 50/2/1 49/2/1
f 52/2/1 50/2/1 51/2/1
f 55/2/1 54/2/1 53/2/1
f 56/2/1 54/2/1 55/2/1
f 59/2/1 58/2/1 57/2/1
f 60/2/1 58/2/1 59/2/1
f 61/2/2 62/2/2 64/2/2
f 62/1/2 63/1/2 65/1/2
f 64/2/2 62/2/2 65/2/2
f 65/1/2 63/1/2 66/1/2
f 67/1/2 68/1/2 73/1/2
f 68/2/2 69/2/2 74/2/2
f 73/1/2 68/1/2 74/1/2
f 74/2/2 69/2/2 75/2/2
f 70/2/2 71/2/2 76/2/2
f 71/1/2 72/1/2 77/1/2
f 76/2/2 71/2/2 77/2/2
f 77/1/2 72/1/2 78/1/2
f 79/2/2 80/2/2 83/2/2
f 83/2/2 80/2/2 84/2/2
f 81/1/2 82/1/2 85/1/2
f 85/1/2 82/1/2 86/1/2
f 87/2/2 88/2/2 95/2/2
f 95/2/2 88/2/2 96/2/2
f 89/2/2 90/2/2 97/2/2
f 97/2/2 90/2/2 98/2/2
f 91/1/2 92/1/2 99/1/2
f 99/1/2 92/1/2 100/1/2
f 93/1/2 94/1/2 101/1/2
f 101/1/2 94/1/2 102/1/2
f 103/2/2 104/2/2 111/2/2
f 111/2/2 104/2/2 112/2/2
f 105/2/2 106/2/2 113/2/2
f 113/2/2 106/2/2 114/2/2
f 107/1/2 108/1/2 115/1/2
f 115/1/2 108/1/2 116/1/2
f 109/1/2 110/1/2 117/1/2
f 117/1/2 110/1/2 118/1/2
f 119/1/2 120/1/2 123/1/2
f 123/1/2 120/1/2 124/1/2
f 121/1/2 122/1/2 125/1/2
f 125/1/2 122/1/2 126/1/2
f 127/2/2 128/2/2 129/2/2
f 129/2/2 128/2/2 130/2/2
f 131/2/2 132/2/2 133/2/2
f 133/2/2 132/2/2 134/2/2
f 135/2/2 136/2/2 137/2/2
f 137/2/2 136/2/2 138/2/2
f 139/2/2 140/2/2 141/2/2
f 141/2/2 140/2/2 142/2/2
f 145/2/3 144/2/3 143/2/3
f 146/2/3 144/2/3 145/2/3
f 149/2/3 148/2/3 147/2/3
f 150/2/3 148/2/3 149/2/3
f 153/1/3 152/1/3 151/1/3
f 154/1/3 152/1/3 153/1/3
f 157/3/3 156/3/3 155/3/3
f 158/3/3 156/3/3 157/3/3
f 161/2/3 160/2/3 159/2/3
f 162/2/3 160/2/3 161/2/3
f 165/3/3 164/3/3 163/3/3
f 166/3/3 164/3/3 165/3/3
f 169/2/3 168/2/3 167/2/3
f 170/2/3 168/2/3 169/2/3
f 173/2/3 172/2/3 171/2/3
f 174/2/3 172/2/3 173/2/3
f 177/2/3 176/2/3 175/2/3
f 178/2/3 176/2/3 177/2/3
f 181/2/3 180/2/3 179/2/3
f 182/2/3 180/2/3 181/2/3
f 185/2/3 184/2/3 183/2/3
f 186/2/3 184/2/3 185/2/3
f 189/1/3 188/1/3 187/1/3
f 190/1/3 188/1/3 189/1/3
f 193/1/3 192/1/3 191/1/3
f 194/1/3 192/1/3 193/1/3
f 197/1/3 196/1/3 195/1/3
f 198/1/3 196/1/3 197/1/3
f 201/1/3 200/1/3 199/1/3
f 202/1/3 200/1/3 201/1/3
f 205/1/3 204/1/3 203/1/3
f 206/1/3 204/1/3 205/1/3
f 209/1/3 208/1/3 207/1/3
f 210/1/3 208/1/3 209/1/3
f 211/2/4 212/2/4 213/2/4
f 213/2/4 212/2/4 214/2/4
f 215/1/4 216/1/4 217/1/4
f 217/1/4 216/1/4 218/1/4
f 219/3/4 220/3/4 221/3/4
f 221/3/4 220/3/4 222/3/4
f 223/2/4 224/2/4 225/2/4
f 225/2/4 224/2/4 226/2/4
f 227/2/4 228/2/4 229/2/4
f 229/2/4 228/2/4 230/2/4
f 231/2/4 232/2/4 233/2/4
f 233/2/4 232/2/4 234/2/4
f 235/2/4 236/2/4 237/2/4
f 237/2/4 236/2/4 238/2/4
f 239/2/4 240/2/4 241/2/4
f 241/2/4 240/2/4 242/2/4
f 243/2/4 244/2/4 245/2/4
f 245/2/4 244/2/4 246/2/4
f 247/2/4 248/2/4 249/2/4
f 249/2/4 248/2/4 250/2/4
f 251/2/4 252/2/4 253/2/4
f 253/2/4 252/2/4 254/2/4
f 255/1/4 256/1/4 257/1/4
f 257/1/4 256/1/4 258/1/4
f 259/1/4 260/1/4 261/1/4
f 261/1/4 260/1/4 262/1/4
f 263/1/4 264/1/4 265/1/4
f 265/1/4 264/1/4 266/1/4
f 267/1/4 268/1/4 269/1/4
f 269/1/4 268/1/4 270/1/4
f 273/2/5 272/2/5 271/2/5
f 274/2/5 272/2/5 273/2/5
f 275/2/5 272/2/5 274/2/5
f 276/2/5 272/2/5 275/2/5
f 278/3/5 276/3/5 275/3/5
f 279/2/5 272/2/5 276/2/5
f 279/3/5 276/3/5 278/3/5
f 280/2/5 278/2/5 277/2/5
f 280/2/5 279/2/5 278/2/5
f 281/2/5 272/2/5 279/2/5
f 281/2/5 279/2/5 280/2/5
f 282/2/5 280/2/5 277/2/5
f 283/3/5 281/3/5 280/3/5
f 283/2/5 280/2/5 282/2/5
f 284/2/5 272/2/5 281/2/5
f 284/3/5 281/3/5 283/3/5
f 285/2/5 272/2/5 284/2/5
f 286/1/5 283/1/5 282/1/5
f 286/1/5 284/1/5 283/1/5
f 286/1/5 285/1/5 284/1/5
f 288/1/5 286/1/5 282/1/5
f 288/1/5 287/1/5 286/1/5
f 289/1/5 287/1/5 288/1/5
f 290/2/5 289/2/5 288/2/5
f 291/1/5 287/1/5 289/1/5
f 291/2/5 289/2/5 290/2/5
f 292/1/5 287/1/5 291/1/5
f 296/3/5 291/3/5 290/3/5
f 297/2/5 292/2/5 291/2/5
f 297/1/5 287/1/5 292/1/5
f 298/1/5 287/1/5 297/1/5
f 300/2/5 294/2/5 293/2/5
f 301/1/5 287/1/5 298/1/5
f 301/2/5 298/2/5 297/2/5
f 302/1/5 287/1/5 301/1/5
f 304/2/5 300/2/5 299/2/5
f 305/2/5 300/2/5 304/2/5
f 306/2/5 294/2/5 300/2/5
f 306/2/5 300/2/5 305/2/5
f 307/3/5 296/3/5 295/3/5
f 308/3/5 291/3/5 296/3/5
f 308/3/5 296/3/5 307/3/5
f 309/2/5 302/2/5 301/2/5
f 309/3/5 291/3/5 308/3/5
f 309/2/5 297/2/5 291/2/5
f 309/2/5 301/2/5 297/2/5
f 310/2/5 302/2/5 309/2/5
f 311/2/5 305/2/5 304/2/5
f 311/2/5 304/2/5 303/2/5
f 312/2/5 305/2/5 311/2/5
f 313/3/5 306/3/5 305/3/5
f 313/2/5 305/2/5 312/2/5
f 314/2/5 294/2/5 306/2/5
f 314/3/5 306/3/5 313/3/5
f 315/2/5 294/2/5 314/2/5
f 316/2/5 294/2/5 315/2/5
f 317/2/5 312/2/5 311/2/5
f 317/2/5 310/2/5 309/2/5
f 317/2/5 309/2/5 308/2/5
f 317/2/5 311/2/5 310/2/5
f 318/3/5 313/3/5 312/3/5
f 318/2/5 312/2/5 317/2/5
f 319/2/5 315/2/5 314/2/5
f 319/3/5 313/3/5 318/3/5
f 319/2/5 314/2/5 313/2/5
f 320/2/5 315/2/5 319/2/5
f 321/2/5 315/2/5 320/2/5
f 322/2/5 317/2/5 308/2/5
f 323/3/5 318/3/5 317/3/5
f 323/2/5 317/2/5 322/2/5
f 324/2/5 319/2/5 318/2/5
f 324/3/5 318/3/5 323/3/5
f 324/2/5 320/2/5 319/2/5
f 325/2/5 320/2/5 324/2/5
f 326/2/5 320/2/5 325/2/5
f 327/2/5 322/2/5 308/2/5
f 327/3/5 323/3/5 322/3/5
f 328/2/5 325/2/5 324/2/5
f 328/3/5 323/3/5 327/3/5
f 328/2/5 324/2/5 323/2/5
f 329/2/5 325/2/5 328/2/5
f 330/2/5 325/2/5 329/2/5
f 331/2/5 327/2/5 308/2/5
f 331/2/5 328/2/5 327/2/5
f 331/2/5 329/2/5 328/2/5
f 332/2/5 329/2/5 331/2/5
f 333/2/5 329/2/5 332/2/5
f 334/2/5 329/2/5 333/2/5
f 335/2/5 333/2/5 332/2/5
f 336/2/5 333/2/5 335/2/5
f 337/2/5 335/2/5 332/2/5
f 339/2/5 337/2/5 332/2/5
f 339/2/5 338/2/5 337/2/5
f 340/2/5 338/2/5 339/2/5
f 342/3/5 340/3/5 339/3/5
f 342/2/5 339/2/5 332/2/5
f 343/3/5 340/3/5 342/3/5
f 344/2/5 341/2/5 340/2/5
f 344/3/5 340/3/5 343/3/5
f 345/1/5 343/1/5 342/1/5
f 345/2/5 344/2/5 343/2/5
f 346/2/5 341/2/5 344/2/5
f 346/2/5 344/2/5 345/2/5
f 347/2/5 341/2/5 346/2/5
f 348/2/5 331/2/5 308/2/5
f 348/3/5 332/3/5 331/3/5
f 349/2/5 342/2/5 332/2/5
f 349/3/5 332/3/5 348/3/5
f 350/1/5 346/1/5 345/1/5
f 352/1/5 351/1/5 350/1/5
f 354/2/5 348/2/5 308/2/5
f 354/2/5 349/2/5 348/2/5
f 355/2/5 349/2/5 354/2/5
f 356/1/5 352/1/5 350/1/5
f 356/2/5 349/2/5 355/2/5
f 356/2/5 342/2/5 349/2/5
f 356/1/5 350/1/5 345/1/5
f 356/1/5 353/1/5 352/1/5
f 356/1/5 345/1/5 342/1/5
f 357/1/5 353/1/5 356/1/5
f 358/2/5 356/2/5 355/2/5
f 359/2/5 356/2/5 358/2/5
f 360/1/5 353/1/5 357/1/5
f 361/1/5 353/1/5 360/1/5
f 362/2/5 356/2/5 359/2/5
f 362/1/5 359/1/5 358/1/5
f 363/2/5 356/2/5 362/2/5
f 364/1/5 353/1/5 361/1/5
f 365/1/5 353/1/5 364/1/5
f 366/1/5 363/1/5 362/1/5
f 368/1/5 367/1/5 366/1/5
f 370/1/5 369/1/5 368/1/5
f 372/1/5 371/1/5 370/1/5
f 374/1/5 362/1/5 358/1/5
f 374/1/5 373/1/5 372/1/5
f 374/1/5 372/1/5 370/1/5
f 374/1/5 370/1/5 368/1/5
f 374/1/5 368/1/5 366/1/5
f 374/1/5 366/1/5 362/1/5
f 375/1/5 373/1/5 374/1/5
f 376/2/6 377/2/6 378/2/6
f 378/2/6 377/2/6 379/2/6
f 380/2/6 381/2/6 382/2/6
f 382/2/6 381/2/6 383/2/6
f 383/2/6 381/2/6 384/2/6
f 384/2/6 381/2/6 385/2/6
f 384/3/6 385/3/6 387/3/6
f 385/2/6 381/2/6 388/2/6
f 387/3/6 385/3/6 388/3/6
f 386/2/6 387/2/6 389/2/6
f 387/2/6 388/2/6 389/2/6
f 388/2/6 381/2/6 390/2/6
f 389/2/6 388/2/6 390/2/6
f 386/2/6 389/2/6 391/2/6
f 389/3/6 390/3/6 392/3/6
f 391/2/6 389/2/6 392/2/6
f 390/2/6 381/2/6 393/2/6
f 392/3/6 390/3/6 393/3/6
f 393/2/6 381/2/6 394/2/6
f 391/1/6 392/1/6 395/1/6
f 392/1/6 393/1/6 395/1/6
f 393/1/6 394/1/6 395/1/6
f 391/1/6 395/1/6 397/1/6
f 395/1/6 396/1/6 397/1/6
f 397/1/6 396/1/6 398/1/6
f 398/1/6 396/1/6 400/1/6
f 400/1/6 396/1/6 401/1/6
f 399/3/6 400/3/6 405/3/6
f 400/2/6 401/2/6 406/2/6
f 401/1/6 396/1/6 406/1/6
f 406/1/6 396/1/6 407/1/6
f 402/2/6 403/2/6 409/2/6
f 407/1/6 396/1/6 410/1/6
f 406/2/6 407/2/6 410/2/6
f 410/1/6 396/1/6 411/1/6
f 408/2/6 409/2/6 413/2/6
f 413/2/6 409/2/6 414/2/6
f 409/2/6 403/2/6 415/2/6
f 414/2/6 409/2/6 415/2/6
f 404/3/6 405/3/6 416/3/6
f 405/3/6 400/3/6 417/3/6
f 416/3/6 405/3/6 417/3/6
f 410/2/6 411/2/6 418/2/6
f 417/3/6 400/3/6 418/3/6
f 400/2/6 406/2/6 418/2/6
f 406/2/6 410/2/6 418/2/6
f 418/2/6 411/2/6 419/2/6
f 413/2/6 414/2/6 420/2/6
f 412/2/6 413/2/6 420/2/6
f 420/2/6 414/2/6 421/2/6
f 414/3/6 415/3/6 422/3/6
f 421/2/6 414/2/6 422/2/6
f 415/2/6 403/2/6 423/2/6
f 422/3/6 415/3/6 423/3/6
f 423/2/6 403/2/6 424/2/6
f 424/2/6 403/2/6 425/2/6
f 420/2/6 421/2/6 426/2/6
f 418/2/6 419/2/6 426/2/6
f 417/2/6 418/2/6 426/2/6
f 419/2/6 420/2/6 426/2/6
f 421/3/6 422/3/6 427/3/6
f 426/2/6 421/2/6 427/2/6
f 423/2/6 424/2/6 428/2/6
f 427/3/6 422/3/6 428/3/6
f 422/2/6 423/2/6 428/2/6
f 428/2/6 424/2/6 429/2/6
f 429/2/6 424/2/6 430/2/6
f 417/2/6 426/2/6 431/2/6
f 426/3/6 427/3/6 432/3/6
f 431/2/6 426/2/6 432/2/6
f 427/2/6 428/2/6 433/2/6
f 432/3/6 427/3/6 433/3/6
f 428/2/6 429/2/6 433/2/6
f 433/2/6 429/2/6 434/2/6
f 434/2/6 429/2/6 435/2/6
f 417/2/6 431/2/6 436/2/6
f 431/3/6 432/3/6 436/3/6
f 433/2/6 434/2/6 437/2/6
f 436/3/6 432/3/6 437/3/6
f 432/2/6 433/2/6 437/2/6
f 437/2/6 434/2/6 438/2/6
f 438/2/6 434/2/6 439/2/6
f 417/2/6 436/2/6 440/2/6
f 436/2/6 437/2/6 440/2/6
f 437/2/6 438/2/6 440/2/6
f 440/2/6 438/2/6 441/2/6
f 441/2/6 438/2/6 442/2/6
f 442/2/6 438/2/6 443/2/6
f 441/2/6 442/2/6 444/2/6
f 444/2/6 442/2/6 445/2/6
f 441/2/6 444/2/6 446/2/6
f 441/2/6 446/2/6 448/2/6
f 446/2/6 447/2/6 448/2/6
f 448/2/6 447/2/6 449/2/6
f 448/3/6 449/3/6 451/3/6
f 441/2/6 448/2/6 451/2/6
f 451/3/6 449/3/6 452/3/6
f 449/2/6 450/2/6 453/2/6
f 452/3/6 449/3/6 453/3/6
f 451/1/6 452/1/6 454/1/6
f 452/2/6 453/2/6 454/2/6
f 453/2/6 450/2/6 455/2/6
f 454/2/6 453/2/6 455/2/6
f 455/2/6 450/2/6 456/2/6
f 417/2/6 440/2/6 457/2/6
f 440/3/6 441/3/6 457/3/6
f 441/2/6 451/2/6 458/2/6
f 457/3/6 441/3/6 458/3/6
f 454/1/6 455/1/6 459/1/6
f 459/1/6 460/1/6 461/1/6
f 417/2/6 457/2/6 463/2/6
f 457/2/6 458/2/6 463/2/6
f 463/2/6 458/2/6 464/2/6
f 459/1/6 461/1/6 465/1/6
f 464/2/6 458/2/6 465/2/6
f 458/2/6 451/2/6 465/2/6
f 454/1/6 459/1/6 465/1/6
f 461/1/6 462/1/6 465/1/6
f 451/1/6 454/1/6 465/1/6
f 465/1/6 462/1/6 466/1/6
f 464/2/6 465/2/6 467/2/6
f 467/2/6 465/2/6 468/2/6
f 466/1/6 462/1/6 469/1/6
f 469/1/6 462/1/6 470/1/6
f 468/2/6 465/2/6 471/2/6
f 467/1/6 468/1/6 471/1/6
f 471/2/6 465/2/6 472/2/6
f 470/1/6 462/1/6 473/1/6
f 473/1/6 462/1/6 474/1/6
f 471/1/6 472/1/6 475/1/6
f 475/1/6 476/1/6 477/1/6
f 477/1/6 478/1/6 479/1/6
f 479/1/6 480/1/6 481/1/6
f 467/1/6 471/1/6 483/1/6
f 481/1/6 482/1/6 483/1/6
f 479/1/6 481/1/6 483/1/6
f 477/1/6 479/1/6 483/1/6
f 475/1/6 477/1/6 483/1/6
f 471/1/6 475/1/6 483/1/6
f 483/1/6 482/1/6 484/1/6
