# MagicaVoxel @ Ephtracy

# group
o 

# material
mtllib ballroom.mtl
usemtl palette

# normals
vn -1 0 0
vn 1 0 0
vn 0 0 1
vn 0 0 -1
vn 0 -1 0
vn 0 1 0

# texcoords
vt 0.775391 0.5
vt 0.958984 0.5
vt 0.990234 0.5

# verts
v -1.8 0 1.8
v -1.8 0 -1.8
v -1.8 0.1 1.8
v -1.8 0.1 -1.8
v -0.5 0.3 0.4
v -0.5 0.3 -0.4
v -0.5 0.4 0.4
v -0.5 0.4 -0.4
v -0.4 0.1 0.7
v -0.4 0.1 0.5
v -0.4 0.1 0.4
v -0.4 0.1 0.3
v -0.4 0.1 -0.3
v -0.4 0.1 -0.4
v -0.4 0.1 -0.5
v -0.4 0.1 -0.7
v -0.4 0.2 0.7
v -0.4 0.2 0.6
v -0.4 0.2 0.3
v -0.4 0.2 -0.3
v -0.4 0.2 -0.6
v -0.4 0.2 -0.7
v -0.4 0.3 0.6
v -0.4 0.3 0.5
v -0.4 0.3 0.4
v -0.4 0.3 -0.4
v -0.4 0.3 -0.5
v -0.4 0.3 -0.6
v -0.4 0.4 0.5
v -0.4 0.4 0.4
v -0.4 0.4 -0.4
v -0.4 0.4 -0.5
v -0.3 0.1 0.3
v -0.3 0.1 -0.3
v -0.3 0.2 0.3
v -0.3 0.2 -0.3
v 0.2 0.1 0.4
v 0.2 0.1 0.3
v 0.2 0.1 -0.3
v 0.2 0.1 -0.4
v 0.2 0.2 0.4
v 0.2 0.2 0.3
v 0.2 0.2 -0.3
v 0.2 0.2 -0.4
v 0.2 0.3 0.4
v 0.2 0.3 0.3
v 0.2 0.3 -0.3
v 0.2 0.3 -0.4
v 0.2 0.4 0.4
v 0.2 0.4 0.3
v 0.2 0.4 -0.3
v 0.2 0.4 -0.4
v 0.3 0.3 0.3
v 0.3 0.3 -0.3
v 0.3 0.4 0.3
v 0.3 0.4 -0.3
v -0.4 0.3 0.3
v -0.4 0.3 -0.3
v -0.4 0.4 0.3
v -0.4 0.4 -0.3
v -0.3 0.1 0.4
v -0.3 0.1 0.3
v -0.3 0.1 -0.3
v -0.3 0.1 -0.4
v -0.3 0.2 0.4
v -0.3 0.2 0.3
v -0.3 0.2 -0.3
v -0.3 0.2 -0.4
v -0.3 0.3 0.4
v -0.3 0.3 0.3
v -0.3 0.3 -0.3
v -0.3 0.3 -0.4
v -0.3 0.4 0.4
v -0.3 0.4 0.3
v -0.3 0.4 -0.3
v -0.3 0.4 -0.4
v 0.2 0.1 0.7
v 0.2 0.1 0.5
v 0.2 0.1 0.3
v 0.2 0.1 -0.3
v 0.2 0.1 -0.5
v 0.2 0.1 -0.7
v 0.2 0.2 0.7
v 0.2 0.2 0.6
v 0.2 0.2 0.3
v 0.2 0.2 -0.3
v 0.2 0.2 -0.6
v 0.2 0.2 -0.7
v 0.2 0.3 0.6
v 0.2 0.3 0.5
v 0.2 0.3 -0.5
v 0.2 0.3 -0.6
v 0.3 0.1 0.4
v 0.3 0.1 0.3
v 0.3 0.1 -0.3
v 0.3 0.1 -0.4
v 0.3 0.2 0.3
v 0.3 0.2 -0.3
v 0.3 0.3 0.5
v 0.3 0.3 0.4
v 0.3 0.3 -0.4
v 0.3 0.3 -0.5
v 0.3 0.4 0.5
v 0.3 0.4 0.4
v 0.3 0.4 -0.4
v 0.3 0.4 -0.5
v 0.4 0.3 0.4
v 0.4 0.3 -0.4
v 0.4 0.4 0.4
v 0.4 0.4 -0.4
v 1.8 0 1.8
v 1.8 0 -1.8
v 1.8 0.1 1.8
v 1.8 0.1 -1.8
v -1.8 0 1.8
v -1.8 0.1 1.8
v 1.8 0 1.8
v 1.8 0.1 1.8
v -0.4 0.1 0.7
v -0.4 0.2 0.7
v 0.2 0.1 0.7
v 0.2 0.2 0.7
v -0.4 0.2 0.6
v -0.4 0.3 0.6
v 0.2 0.2 0.6
v 0.2 0.3 0.6
v -0.4 0.3 0.5
v -0.4 0.4 0.5
v 0.2 0.3 0.5
v 0.3 0.3 0.5
v 0.3 0.4 0.5
v -0.5 0.3 0.4
v -0.5 0.4 0.4
v -0.4 0.1 0.4
v -0.4 0.3 0.4
v -0.4 0.4 0.4
v -0.3 0.1 0.4
v -0.3 0.2 0.4
v 0.2 0.1 0.4
v 0.2 0.2 0.4
v 0.3 0.1 0.4
v 0.3 0.3 0.4
v 0.3 0.4 0.4
v 0.4 0.3 0.4
v 0.4 0.4 0.4
v -0.3 0.1 0.3
v -0.3 0.2 0.3
v 0.2 0.1 0.3
v 0.2 0.2 0.3
v -0.4 0.1 -0.3
v -0.4 0.2 -0.3
v -0.4 0.3 -0.3
v -0.4 0.4 -0.3
v -0.3 0.1 -0.3
v -0.3 0.2 -0.3
v -0.3 0.3 -0.3
v -0.3 0.4 -0.3
v 0.2 0.1 -0.3
v 0.2 0.2 -0.3
v 0.2 0.3 -0.3
v 0.2 0.4 -0.3
v 0.3 0.1 -0.3
v 0.3 0.2 -0.3
v 0.3 0.3 -0.3
v 0.3 0.4 -0.3
v -0.3 0.3 -0.4
v -0.3 0.4 -0.4
v 0.2 0.3 -0.4
v 0.2 0.4 -0.4
v -0.4 0.1 -0.5
v -0.4 0.3 -0.5
v 0.2 0.1 -0.5
v 0.2 0.3 -0.5
v -0.4 0.1 0.5
v -0.4 0.3 0.5
v 0.2 0.1 0.5
v 0.2 0.3 0.5
v -0.3 0.3 0.4
v -0.3 0.4 0.4
v 0.2 0.3 0.4
v 0.2 0.4 0.4
v -0.4 0.1 0.3
v -0.4 0.2 0.3
v -0.4 0.3 0.3
v -0.4 0.4 0.3
v -0.3 0.1 0.3
v -0.3 0.2 0.3
v -0.3 0.3 0.3
v -0.3 0.4 0.3
v 0.2 0.1 0.3
v 0.2 0.2 0.3
v 0.2 0.3 0.3
v 0.2 0.4 0.3
v 0.3 0.1 0.3
v 0.3 0.2 0.3
v 0.3 0.3 0.3
v 0.3 0.4 0.3
v -0.3 0.1 -0.3
v -0.3 0.2 -0.3
v 0.2 0.1 -0.3
v 0.2 0.2 -0.3
v -0.5 0.3 -0.4
v -0.5 0.4 -0.4
v -0.4 0.1 -0.4
v -0.4 0.3 -0.4
v -0.4 0.4 -0.4
v -0.3 0.1 -0.4
v -0.3 0.2 -0.4
v 0.2 0.1 -0.4
v 0.2 0.2 -0.4
v 0.3 0.1 -0.4
v 0.3 0.3 -0.4
v 0.3 0.4 -0.4
v 0.4 0.3 -0.4
v 0.4 0.4 -0.4
v -0.4 0.3 -0.5
v -0.4 0.4 -0.5
v 0.2 0.3 -0.5
v 0.3 0.3 -0.5
v 0.3 0.4 -0.5
v -0.4 0.2 -0.6
v -0.4 0.3 -0.6
v 0.2 0.2 -0.6
v 0.2 0.3 -0.6
v -0.4 0.1 -0.7
v -0.4 0.2 -0.7
v 0.2 0.1 -0.7
v 0.2 0.2 -0.7
v -1.8 0 -1.8
v -1.8 0.1 -1.8
v 1.8 0 -1.8
v 1.8 0.1 -1.8
v -1.8 0 1.8
v 1.8 0 1.8
v -1.8 0 -1.8
v 1.8 0 -1.8
v -0.3 0.2 0.4
v 0.2 0.2 0.4
v -0.4 0.2 0.3
v -0.3 0.2 0.3
v 0.2 0.2 0.3
v 0.3 0.2 0.3
v -0.4 0.2 -0.3
v -0.3 0.2 -0.3
v 0.2 0.2 -0.3
v 0.3 0.2 -0.3
v -0.3 0.2 -0.4
v 0.2 0.2 -0.4
v -0.4 0.3 0.5
v 0.2 0.3 0.5
v 0.3 0.3 0.5
v -0.5 0.3 0.4
v -0.4 0.3 0.4
v 0.3 0.3 0.4
v 0.4 0.3 0.4
v -0.5 0.3 -0.4
v -0.4 0.3 -0.4
v 0.3 0.3 -0.4
v 0.4 0.3 -0.4
v -0.4 0.3 -0.5
v 0.2 0.3 -0.5
v 0.3 0.3 -0.5
v -1.8 0.1 1.8
v 1.8 0.1 1.8
v -0.4 0.1 0.7
v 0.2 0.1 0.7
v -0.4 0.1 0.5
v 0.2 0.1 0.5
v -0.4 0.1 0.4
v -0.3 0.1 0.4
v 0.2 0.1 0.4
v 0.3 0.1 0.4
v -0.4 0.1 0.3
v -0.3 0.1 0.3
v 0.2 0.1 0.3
v 0.3 0.1 0.3
v -0.4 0.1 -0.3
v -0.3 0.1 -0.3
v 0.2 0.1 -0.3
v 0.3 0.1 -0.3
v -0.4 0.1 -0.4
v -0.3 0.1 -0.4
v 0.2 0.1 -0.4
v 0.3 0.1 -0.4
v -0.4 0.1 -0.5
v 0.2 0.1 -0.5
v -0.4 0.1 -0.7
v 0.2 0.1 -0.7
v -1.8 0.1 -1.8
v 1.8 0.1 -1.8
v -0.4 0.2 0.7
v 0.2 0.2 0.7
v -0.4 0.2 0.6
v 0.2 0.2 0.6
v -0.4 0.2 -0.6
v 0.2 0.2 -0.6
v -0.4 0.2 -0.7
v 0.2 0.2 -0.7
v -0.4 0.3 0.6
v 0.2 0.3 0.6
v -0.4 0.3 0.5
v 0.2 0.3 0.5
v -0.3 0.3 0.4
v 0.2 0.3 0.4
v -0.4 0.3 0.3
v -0.3 0.3 0.3
v 0.2 0.3 0.3
v 0.3 0.3 0.3
v -0.4 0.3 -0.3
v -0.3 0.3 -0.3
v 0.2 0.3 -0.3
v 0.3 0.3 -0.3
v -0.3 0.3 -0.4
v 0.2 0.3 -0.4
v -0.4 0.3 -0.5
v 0.2 0.3 -0.5
v -0.4 0.3 -0.6
v 0.2 0.3 -0.6
v -0.4 0.4 0.5
v 0.3 0.4 0.5
v -0.5 0.4 0.4
v -0.4 0.4 0.4
v -0.3 0.4 0.4
v 0.2 0.4 0.4
v 0.3 0.4 0.4
v 0.4 0.4 0.4
v -0.4 0.4 0.3
v -0.3 0.4 0.3
v 0.2 0.4 0.3
v 0.3 0.4 0.3
v -0.4 0.4 -0.3
v -0.3 0.4 -0.3
v 0.2 0.4 -0.3
v 0.3 0.4 -0.3
v -0.5 0.4 -0.4
v -0.4 0.4 -0.4
v -0.3 0.4 -0.4
v 0.2 0.4 -0.4
v 0.3 0.4 -0.4
v 0.4 0.4 -0.4
v -0.4 0.4 -0.5
v 0.3 0.4 -0.5

# faces
f 3/3/1 2/3/1 1/3/1
f 4/3/1 2/3/1 3/3/1
f 7/2/1 6/2/1 5/2/1
f 8/2/1 6/2/1 7/2/1
f 17/2/1 10/2/1 9/2/1
f 18/2/1 10/2/1 17/2/1
f 19/2/1 12/2/1 11/2/1
f 20/2/1 14/2/1 13/2/1
f 21/2/1 16/2/1 15/2/1
f 22/2/1 16/2/1 21/2/1
f 23/2/1 10/2/1 18/2/1
f 24/2/1 10/2/1 23/2/1
f 25/2/1 20/2/1 19/2/1
f 25/2/1 19/2/1 11/2/1
f 26/2/1 14/2/1 20/2/1
f 26/2/1 20/2/1 25/2/1
f 27/2/1 21/2/1 15/2/1
f 28/2/1 21/2/1 27/2/1
f 29/2/1 25/2/1 24/2/1
f 30/2/1 25/2/1 29/2/1
f 31/2/1 27/2/1 26/2/1
f 32/2/1 27/2/1 31/2/1
f 35/2/1 34/2/1 33/2/1
f 36/2/1 34/2/1 35/2/1
f 41/2/1 38/2/1 37/2/1
f 42/2/1 38/2/1 41/2/1
f 43/2/1 40/2/1 39/2/1
f 44/2/1 40/2/1 43/2/1
f 49/2/1 46/2/1 45/2/1
f 50/2/1 46/2/1 49/2/1
f 51/2/1 48/2/1 47/2/1
f 52/2/1 48/2/1 51/2/1
f 55/2/1 54/2/1 53/2/1
f 56/2/1 54/2/1 55/2/1
f 57/2/2 58/2/2 59/2/2
f 59/2/2 58/2/2 60/2/2
f 61/2/2 62/2/2 65/2/2
f 65/2/2 62/2/2 66/2/2
f 63/2/2 64/2/2 67/2/2
f 67/2/2 64/2/2 68/2/2
f 69/2/2 70/2/2 73/2/2
f 73/2/2 70/2/2 74/2/2
f 71/2/2 72/2/2 75/2/2
f 75/2/2 72/2/2 76/2/2
f 77/2/2 78/2/2 83/2/2
f 83/2/2 78/2/2 84/2/2
f 79/2/2 80/2/2 85/2/2
f 85/2/2 80/2/2 86/2/2
f 81/2/2 82/2/2 87/2/2
f 87/2/2 82/2/2 88/2/2
f 84/2/2 78/2/2 89/2/2
f 89/2/2 78/2/2 90/2/2
f 81/2/2 87/2/2 91/2/2
f 91/2/2 87/2/2 92/2/2
f 93/2/2 94/2/2 97/2/2
f 95/2/2 96/2/2 98/2/2
f 93/2/2 97/2/2 100/2/2
f 97/2/2 98/2/2 100/2/2
f 98/2/2 96/2/2 101/2/2
f 100/2/2 98/2/2 101/2/2
f 99/2/2 100/2/2 103/2/2
f 103/2/2 100/2/2 104/2/2
f 101/2/2 102/2/2 105/2/2
f 105/2/2 102/2/2 106/2/2
f 107/2/2 108/2/2 109/2/2
f 109/2/2 108/2/2 110/2/2
f 111/3/2 112/3/2 113/3/2
f 113/3/2 112/3/2 114/3/2
f 117/3/3 116/3/3 115/3/3
f 118/3/3 116/3/3 117/3/3
f 121/2/3 120/2/3 119/2/3
f 122/2/3 120/2/3 121/2/3
f 125/2/3 124/2/3 123/2/3
f 126/2/3 124/2/3 125/2/3
f 129/2/3 128/2/3 127/2/3
f 130/2/3 128/2/3 129/2/3
f 131/2/3 128/2/3 130/2/3
f 135/2/3 133/2/3 132/2/3
f 136/2/3 133/2/3 135/2/3
f 137/2/3 135/2/3 134/2/3
f 138/2/3 135/2/3 137/2/3
f 140/2/3 135/2/3 138/2/3
f 141/2/3 140/2/3 139/2/3
f 142/2/3 135/2/3 140/2/3
f 142/2/3 140/2/3 141/2/3
f 144/2/3 143/2/3 142/2/3
f 145/2/3 143/2/3 144/2/3
f 148/2/3 147/2/3 146/2/3
f 149/2/3 147/2/3 148/2/3
f 154/2/3 151/2/3 150/2/3
f 155/2/3 151/2/3 154/2/3
f 156/2/3 153/2/3 152/2/3
f 157/2/3 153/2/3 156/2/3
f 162/2/3 159/2/3 158/2/3
f 163/2/3 159/2/3 162/2/3
f 164/2/3 161/2/3 160/2/3
f 165/2/3 161/2/3 164/2/3
f 168/2/3 167/2/3 166/2/3
f 169/2/3 167/2/3 168/2/3
f 172/2/3 171/2/3 170/2/3
f 173/2/3 171/2/3 172/2/3
f 174/2/4 175/2/4 176/2/4
f 176/2/4 175/2/4 177/2/4
f 178/2/4 179/2/4 180/2/4
f 180/2/4 179/2/4 181/2/4
f 182/2/4 183/2/4 186/2/4
f 186/2/4 183/2/4 187/2/4
f 184/2/4 185/2/4 188/2/4
f 188/2/4 185/2/4 189/2/4
f 190/2/4 191/2/4 194/2/4
f 194/2/4 191/2/4 195/2/4
f 192/2/4 193/2/4 196/2/4
f 196/2/4 193/2/4 197/2/4
f 198/2/4 199/2/4 200/2/4
f 200/2/4 199/2/4 201/2/4
f 202/2/4 203/2/4 205/2/4
f 205/2/4 203/2/4 206/2/4
f 204/2/4 205/2/4 207/2/4
f 207/2/4 205/2/4 208/2/4
f 208/2/4 205/2/4 210/2/4
f 209/2/4 210/2/4 211/2/4
f 210/2/4 205/2/4 212/2/4
f 211/2/4 210/2/4 212/2/4
f 212/2/4 213/2/4 214/2/4
f 214/2/4 213/2/4 215/2/4
f 216/2/4 217/2/4 218/2/4
f 218/2/4 217/2/4 219/2/4
f 219/2/4 217/2/4 220/2/4
f 221/2/4 222/2/4 223/2/4
f 223/2/4 222/2/4 224/2/4
f 225/2/4 226/2/4 227/2/4
f 227/2/4 226/2/4 228/2/4
f 229/3/4 230/3/4 231/3/4
f 231/3/4 230/3/4 232/3/4
f 235/3/5 234/3/5 233/3/5
f 236/3/5 234/3/5 235/3/5
f 240/2/5 238/2/5 237/2/5
f 241/2/5 238/2/5 240/2/5
f 243/2/5 240/2/5 239/2/5
f 244/2/5 240/2/5 243/2/5
f 245/2/5 242/2/5 241/2/5
f 246/2/5 242/2/5 245/2/5
f 247/2/5 245/2/5 244/2/5
f 248/2/5 245/2/5 247/2/5
f 253/2/5 250/2/5 249/2/5
f 253/2/5 251/2/5 250/2/5
f 254/2/5 251/2/5 253/2/5
f 256/2/5 253/2/5 252/2/5
f 257/2/5 253/2/5 256/2/5
f 258/2/5 255/2/5 254/2/5
f 259/2/5 255/2/5 258/2/5
f 260/2/5 258/2/5 257/2/5
f 261/2/5 258/2/5 260/2/5
f 262/2/5 258/2/5 261/2/5
f 263/3/6 264/3/6 265/3/6
f 265/3/6 264/3/6 266/3/6
f 263/3/6 265/3/6 267/3/6
f 266/3/6 264/3/6 268/3/6
f 263/3/6 267/3/6 269/3/6
f 267/3/6 268/3/6 269/3/6
f 269/3/6 268/3/6 270/3/6
f 268/3/6 264/3/6 271/3/6
f 270/3/6 268/3/6 271/3/6
f 271/3/6 264/3/6 272/3/6
f 263/3/6 269/3/6 273/3/6
f 270/3/6 271/3/6 274/3/6
f 274/3/6 271/3/6 275/3/6
f 272/3/6 264/3/6 276/3/6
f 263/3/6 273/3/6 277/3/6
f 273/3/6 274/3/6 277/3/6
f 277/3/6 274/3/6 278/3/6
f 275/3/6 276/3/6 279/3/6
f 276/3/6 264/3/6 280/3/6
f 279/3/6 276/3/6 280/3/6
f 263/3/6 277/3/6 281/3/6
f 278/3/6 279/3/6 282/3/6
f 282/3/6 279/3/6 283/3/6
f 280/3/6 264/3/6 284/3/6
f 282/3/6 283/3/6 285/3/6
f 283/3/6 284/3/6 285/3/6
f 263/3/6 281/3/6 285/3/6
f 281/3/6 282/3/6 285/3/6
f 285/3/6 284/3/6 286/3/6
f 263/3/6 285/3/6 287/3/6
f 286/3/6 284/3/6 288/3/6
f 263/3/6 287/3/6 289/3/6
f 287/3/6 288/3/6 289/3/6
f 284/3/6 264/3/6 290/3/6
f 289/3/6 288/3/6 290/3/6
f 288/3/6 284/3/6 290/3/6
f 291/2/6 292/2/6 293/2/6
f 293/2/6 292/2/6 294/2/6
f 295/2/6 296/2/6 297/2/6
f 297/2/6 296/2/6 298/2/6
f 299/2/6 300/2/6 301/2/6
f 301/2/6 300/2/6 302/2/6
f 303/2/6 304/2/6 306/2/6
f 306/2/6 304/2/6 307/2/6
f 305/2/6 306/2/6 309/2/6
f 306/1/6 307/1/6 310/1/6
f 309/2/6 306/2/6 310/2/6
f 307/2/6 308/2/6 311/2/6
f 310/1/6 307/1/6 311/1/6
f 311/2/6 308/2/6 312/2/6
f 310/2/6 311/2/6 313/2/6
f 313/2/6 311/2/6 314/2/6
f 315/2/6 316/2/6 317/2/6
f 317/2/6 316/2/6 318/2/6
f 319/2/6 320/2/6 322/2/6
f 322/2/6 320/2/6 323/2/6
f 323/2/6 320/2/6 324/2/6
f 324/2/6 320/2/6 325/2/6
f 321/2/6 322/2/6 327/2/6
f 322/2/6 323/2/6 327/2/6
f 327/2/6 323/2/6 328/2/6
f 325/2/6 326/2/6 329/2/6
f 324/2/6 325/2/6 329/2/6
f 329/2/6 326/2/6 330/2/6
f 321/2/6 327/2/6 331/2/6
f 330/2/6 326/2/6 334/2/6
f 331/2/6 332/2/6 335/2/6
f 321/2/6 331/2/6 335/2/6
f 335/2/6 332/2/6 336/2/6
f 336/2/6 332/2/6 337/2/6
f 333/2/6 334/2/6 338/2/6
f 334/2/6 326/2/6 339/2/6
f 338/2/6 334/2/6 339/2/6
f 339/2/6 326/2/6 340/2/6
f 336/2/6 337/2/6 341/2/6
f 337/2/6 338/2/6 341/2/6
f 338/2/6 339/2/6 341/2/6
f 341/2/6 339/2/6 342/2/6
