# Blender 4.4.3
# www.blender.org
mtllib base_stage.mtl
o Cube
v 16.955627 1.000000 -1.000000
v 16.955627 -1.000000 -1.000000
v 16.928579 1.415683 27.914305
v 16.928579 -1.000000 27.914305
v -2.651108 -1.000000 36.871002
v -2.651108 1.000000 36.871002
v -21.156292 1.000000 31.472197
v -21.156292 -1.000000 31.472197
v -15.352325 1.000000 -5.839985
v -15.352325 -1.000000 -5.839985
v 13.520123 1.000000 -11.959623
v 13.520123 -1.000000 -11.959623
v -8.894921 1.000000 -22.157555
v -8.894921 -1.000000 -22.157555
v -20.206671 -1.000000 6.779550
v 16.942104 1.000000 13.457152
v -20.206671 1.000000 6.779550
v 16.942104 -1.000000 13.457152
v -22.230795 -1.000000 20.685728
v 16.935341 1.000000 20.685728
v -22.230795 1.000000 20.685728
v 16.935341 -1.000000 20.685728
v 0.801651 2.331914 -3.419992
v 0.000000 -1.000000 -22.157555
v 0.000000 1.000000 -22.157555
v 0.801651 -1.000000 -3.419992
v -1.632282 -1.000000 10.118351
v -1.632284 2.331914 10.118351
v -2.647728 -1.000000 20.685728
v -2.647726 1.000000 20.685728
v -2.188740 1.000000 -23.230507
v -9.000744 1.000000 40.448368
v -7.275337 2.331914 -4.629989
v -9.000744 -1.000000 40.448368
v -2.188740 -1.000000 -23.230507
v -7.275337 -1.000000 -4.629989
v -10.919477 -1.000000 8.448950
v -12.439261 -1.000000 20.685728
v -10.919477 2.331914 8.448950
v -12.439260 1.000000 20.685728
v 7.138736 1.415683 36.871002
v 7.138736 -1.000000 36.871002
v 5.958954 -1.000000 -20.142115
v 8.878639 1.000000 -2.209996
v 5.958954 1.000000 -20.142115
v 7.654910 1.000000 11.787752
v 7.143807 1.000000 20.685728
v 8.878639 -1.000000 -2.209996
v 7.654911 -1.000000 11.787752
v 7.143806 -1.000000 20.685728
v -21.693542 -1.000000 26.078962
v 16.931961 1.207841 24.300016
v -21.693542 1.000000 26.078962
v 16.931961 -1.000000 24.300016
v -2.649418 -1.000000 28.778366
v -2.649417 1.000000 28.778366
v -10.720003 -1.000000 30.567047
v -10.720002 1.725444 30.567047
v 7.141272 1.679090 28.778366
v 7.141271 -1.000000 28.778366
v 15.237875 -1.000000 -6.479812
v 15.237875 1.000000 -6.479812
v -12.123623 1.000000 -13.998770
v -12.123623 -1.000000 -13.998770
v 0.400826 -1.000000 -12.788774
v 0.400826 1.665957 -12.788774
v -4.732039 -1.000000 -13.930247
v -4.732038 1.665957 -13.930248
v 7.418797 1.000000 -11.176056
v 7.418797 -1.000000 -11.176055
v 21.056126 1.415683 37.151150
v 21.056126 -1.000000 37.151150
v 1.476439 -1.000000 46.107849
v 1.476439 1.000000 46.107849
v -4.873197 1.000000 49.685215
v -4.873197 -1.000000 49.685215
v 11.266283 1.415683 46.107849
v 11.266283 -1.000000 46.107849
v 27.211246 1.000000 -2.507156
v 27.211246 -1.000000 -2.507156
v 27.184198 1.415683 26.407148
v 27.184198 -1.000000 26.407148
v 23.775742 1.000000 -13.466780
v 23.775742 -1.000000 -13.466780
v 27.197723 1.000000 11.949996
v 27.197723 -1.000000 11.949996
v 27.190960 1.000000 19.178572
v 27.190960 -1.000000 19.178572
v 27.187580 1.207841 22.792860
v 27.187580 -1.000000 22.792860
v 25.493494 -1.000000 -7.986968
v 25.493494 1.000000 -7.986968
v 31.311745 1.415683 35.643993
v 31.311745 -1.000000 35.643993
v 29.653597 1.000000 -2.866082
v 29.653597 -1.000000 -2.866082
v 29.626549 1.415683 26.048223
v 29.626549 -1.000000 26.048223
v 26.218092 1.000000 -13.825706
v 26.218092 -1.000000 -13.825706
v 29.640074 1.000000 11.591070
v 29.640074 -1.000000 11.591070
v 29.633310 1.000000 18.819647
v 29.633310 -1.000000 18.819647
v 29.629930 1.207841 22.433935
v 29.629930 -1.000000 22.433935
v 27.935844 -1.000000 -8.345894
v 27.935844 1.000000 -8.345894
v 33.754097 1.415683 35.285069
v 33.754097 -1.000000 35.285069
v 21.761154 1.415683 39.371647
v 21.761154 -1.000000 39.371647
v 2.181467 -1.000000 48.328346
v 2.181467 1.000000 48.328346
v -4.168169 1.000000 51.905712
v -4.168169 -1.000000 51.905712
v 11.971311 1.415683 48.328346
v 11.971311 -1.000000 48.328346
v 32.016773 1.415683 37.864491
v 32.016773 -1.000000 37.864491
v 34.459126 1.415683 37.505566
v 34.459126 -1.000000 37.505566
v -29.070210 1.000000 31.658823
v -29.070210 -1.000000 31.658823
v -23.266243 1.000000 -5.653358
v -23.266243 -1.000000 -5.653358
v -16.808840 1.000000 -21.970928
v -16.808840 -1.000000 -21.970928
v -28.120590 -1.000000 6.966176
v -28.120590 1.000000 6.966176
v -30.144714 -1.000000 20.872355
v -30.144714 1.000000 20.872355
v -16.914661 1.000000 40.634995
v -16.914661 -1.000000 40.634995
v -29.607460 -1.000000 26.265589
v -29.607460 1.000000 26.265589
v -20.037540 1.000000 -13.812143
v -20.037540 -1.000000 -13.812143
v -12.787115 1.000000 49.871841
v -12.787115 -1.000000 49.871841
v -4.813426 1.000000 52.219788
v -4.813426 -1.000000 52.219788
v -12.727345 1.000000 52.406414
v -12.727345 -1.000000 52.406414
v -31.415079 1.000000 31.714119
v -31.415079 -1.000000 31.714119
v -25.611113 1.000000 -5.598062
v -25.611113 -1.000000 -5.598062
v -19.153709 1.000000 -21.915632
v -19.153709 -1.000000 -21.915632
v -30.465460 -1.000000 7.021473
v -30.465460 1.000000 7.021473
v -32.489582 -1.000000 20.927650
v -32.489582 1.000000 20.927650
v -19.259531 1.000000 40.690292
v -19.259531 -1.000000 40.690292
v -31.952330 -1.000000 26.320885
v -31.952330 1.000000 26.320885
v -22.382410 1.000000 -13.756846
v -22.382410 -1.000000 -13.756846
v -15.131985 1.000000 49.927139
v -15.131985 -1.000000 49.927139
v -15.072214 1.000000 52.461712
v -15.072214 -1.000000 52.461712
v 13.840891 1.000000 -14.364254
v 13.840891 -1.000000 -14.364254
v -8.574153 1.000000 -24.562185
v -8.574153 -1.000000 -24.562185
v 0.320769 -1.000000 -24.562185
v 0.320769 1.000000 -24.562185
v -1.867972 1.000000 -25.635138
v -1.867972 -1.000000 -25.635138
v 6.279723 -1.000000 -22.546745
v 6.279723 1.000000 -22.546745
v 24.096510 1.000000 -15.871410
v 24.096510 -1.000000 -15.871410
v 26.538860 1.000000 -16.230335
v 26.538860 -1.000000 -16.230335
v -16.488071 1.000000 -24.375559
v -16.488071 -1.000000 -24.375559
v -18.832941 1.000000 -24.320263
v -18.832941 -1.000000 -24.320263
v 13.495392 13.510829 -12.001902
v -8.919652 13.510829 -22.199833
v -0.024731 13.510829 -22.199833
v -2.213471 13.510829 -23.272785
v 5.934223 13.510829 -20.184393
v 21.031395 13.926512 37.108871
v 1.451709 13.510829 46.065571
v -4.897928 13.510829 49.642937
v 11.241552 13.926512 46.065571
v 27.186516 13.510829 -2.549434
v 27.159468 13.926512 26.364870
v 23.751011 13.510829 -13.509058
v 27.172993 13.510829 11.907718
v 27.166229 13.510829 19.136293
v 27.162849 13.718670 22.750582
v 25.468763 13.510829 -8.029246
v 31.287014 13.926512 35.601715
v 29.628866 13.510829 -2.908360
v 29.601818 13.926512 26.005945
v 26.193361 13.510829 -13.867984
v 29.615343 13.510829 11.548792
v 29.608580 13.510829 18.777369
v 29.605200 13.718670 22.391657
v 27.911114 13.510829 -8.388172
v 33.729366 13.926512 35.242790
v 21.736423 13.926512 39.329369
v 2.156736 13.510829 48.286068
v -4.192900 13.510829 51.863434
v 11.946580 13.926512 48.286068
v 31.992043 13.926512 37.822212
v 34.434395 13.926512 37.463287
v -29.094940 13.510829 31.616545
v -23.290974 13.510829 4.375001
v -16.833570 13.510829 -22.013206
v -28.145321 1.359310 6.923898
v -30.169445 1.359310 20.830076
v -16.939392 13.510829 40.592716
v -28.430840 13.510829 22.012686
v -20.062271 13.510829 -13.854422
v -12.811846 13.510829 49.829563
v -4.838157 13.510829 52.177509
v -12.752075 13.510829 52.364136
v -31.439810 13.510829 31.671841
v -25.635843 13.510829 4.430298
v -19.178440 13.510829 -21.957911
v -30.490191 1.359310 6.979195
v -32.514313 1.359310 20.885372
v -19.284262 13.510829 40.648014
v -30.775709 13.510829 22.067982
v -22.407141 13.510829 -13.799125
v -15.156715 13.510829 49.884861
v -15.096945 13.510829 52.419434
v 13.816160 13.510829 -14.406532
v -8.598884 13.510829 -24.604464
v 0.296038 13.510829 -24.604464
v -1.892703 13.510829 -25.677416
v 6.254992 13.510829 -22.589024
v 24.071779 13.510829 -15.913689
v 26.514130 13.510829 -16.272614
v -16.512802 13.510829 -24.417837
v -18.857672 13.510829 -24.362541
vn -0.0643 0.9963 0.0568
vn -0.0000 1.0000 -0.0000
vn -0.0000 -1.0000 -0.0000
vn 0.0631 0.9953 0.0731
vn -0.0510 0.9972 -0.0549
vn -0.1438 0.9885 -0.0475
vn -0.0731 0.9965 0.0409
vn 0.1484 0.9887 0.0197
vn 0.9912 -0.0000 0.1322
vn 0.0631 0.9971 -0.0426
vn -0.0558 0.9983 0.0162
vn -0.0101 0.9933 0.1149
vn 0.0208 0.9974 -0.0688
vn 0.0629 0.9974 0.0342
vn 0.0273 0.9996 0.0048
vn -0.1454 -0.0036 -0.9894
vn 0.0067 0.9971 -0.0755
vn 0.0362 0.9984 -0.0438
vn -0.0346 0.9985 -0.0419
vn -0.0255 0.9987 -0.0437
vn 0.0124 0.9975 -0.0697
vn 0.1403 0.9888 -0.0502
vn -0.1214 0.9895 -0.0779
vn 0.9672 -0.0925 0.2367
vn -0.9531 -0.0009 0.3026
vn -0.0424 0.9989 0.0190
vn -0.5940 0.0015 0.8044
vn 0.9990 -0.0445 0.0084
vn -1.0000 -0.0020 -0.0008
vn 0.3204 -0.0026 -0.9473
vn -0.0084 0.9983 -0.0574
vn 1.0000 -0.0000 0.0009
vn 0.9542 -0.0000 -0.2991
vn 0.9130 -0.0000 -0.4080
vn -0.9997 -0.0019 0.0236
vn 0.9130 0.0004 -0.4080
vn 0.1454 0.0036 0.9894
vn 0.1454 -0.0000 0.9894
vn -0.0000 -0.0000 1.0000
vn 0.4909 -0.0000 0.8712
vn 0.6750 -0.0000 0.7378
vn 0.9531 -0.0000 -0.3026
vn -0.9531 -0.0000 0.3026
vn -0.7344 0.0008 0.6787
vn 0.9997 0.0019 -0.0236
vn 0.0236 -0.0000 0.9997
vn -0.1580 -0.0036 -0.9874
vn 0.9542 0.0009 -0.2991
vn -0.9672 0.0925 -0.2367
vn 0.9997 -0.0000 -0.0236
vn -0.5940 -0.0000 0.8044
vn -0.9298 -0.0000 -0.3680
vn -0.9896 -0.0000 -0.1440
vn -0.9333 -0.0000 -0.3590
vn -0.9951 -0.0000 0.0991
vn -0.9130 -0.0000 0.4080
vn -0.9997 -0.0000 0.0236
vn 0.9860 -0.1250 -0.1102
vn -0.9130 -0.0004 0.4080
vn -0.9990 0.0445 -0.0084
vn 0.7344 -0.0008 -0.6787
vn 0.7344 -0.0000 -0.6787
vn -0.0236 -0.0000 -0.9997
vn 0.4402 -0.0000 -0.8979
vn -0.1580 -0.0000 -0.9874
vn 0.3204 -0.0000 -0.9473
vn -0.1454 -0.0000 -0.9894
vn -0.9912 -0.0024 -0.1322
vn 0.0236 0.0034 0.9997
vn 1.0000 0.0020 0.0008
vn 0.6750 0.0038 0.7378
vn 0.9860 0.0848 0.1435
vn -0.0236 -0.0034 -0.9997
vn -0.9912 -0.0000 -0.1322
vn 0.8946 -0.2718 0.3548
vn -0.0424 0.9990 0.0135
vn 0.0231 0.1964 0.9803
vn -0.0235 0.1002 -0.9947
vn -0.9542 -0.0009 0.2991
vn 0.9531 0.0009 -0.3026
vn -0.3204 0.0026 0.9473
vn -1.0000 -0.0020 -0.0009
vn -0.9298 -0.0031 -0.3680
vn 0.1580 0.0036 0.9874
vn -0.8946 0.2718 -0.3548
vn -0.9860 -0.0848 -0.1435
vn -0.4402 0.0022 0.8979
vn 0.0001 -0.0034 -1.0000
vn 0.5940 -0.0015 -0.8044
vn -0.0001 0.0034 1.0000
vn 1.0000 0.0020 0.0009
vn -0.9860 0.1250 0.1102
vn 0.4402 -0.0022 -0.8979
vn -0.4909 -0.0039 -0.8712
vn 0.9298 0.0031 0.3680
vn 0.9912 0.0024 0.1322
vn 0.4909 0.0039 0.8712
vn -0.6750 -0.0038 -0.7378
vt 0.812500 0.718750
vt 0.875000 0.718750
vt 0.875000 0.750000
vt 0.812500 0.750000
vt 0.875000 0.687500
vt 0.187500 0.625000
vt 0.125000 0.625000
vt 0.375000 0.250000
vt 0.375000 0.312500
vt 0.312500 0.718750
vt 0.375000 0.718750
vt 0.375000 0.750000
vt 0.312500 0.750000
vt 0.375000 0.500000
vt 0.687500 0.625000
vt 0.750000 0.625000
vt 0.750000 0.687500
vt 0.687500 0.687500
vt 0.546875 0.250000
vt 0.625000 0.312500
vt 0.625000 0.250000
vt 0.625000 0.250000
vt 0.375000 0.312500
vt 0.375000 0.250000
vt 0.375000 0.312500
vt 0.875000 0.625000
vt 0.625000 0.625000
vt 0.625000 0.687500
vt 0.625000 0.500000
vt 0.812500 0.625000
vt 0.125000 0.687500
vt 0.312500 0.625000
vt 0.375000 0.625000
vt 0.375000 0.687500
vt 0.312500 0.687500
vt 0.812500 0.687500
vt 0.250000 0.625000
vt 0.250000 0.687500
vt 0.187500 0.687500
vt 0.625000 0.437500
vt 0.625000 0.375000
vt 0.375000 0.437500
vt 0.375000 0.375000
vt 0.390625 0.250000
vt 0.468750 0.250000
vt 0.187500 0.718750
vt 0.250000 0.718750
vt 0.250000 0.750000
vt 0.187500 0.750000
vt 0.375000 0.375000
vt 0.687500 0.718750
vt 0.750000 0.718750
vt 0.750000 0.750000
vt 0.687500 0.750000
vt 0.125000 0.718750
vt 0.125000 0.750000
vt 0.625000 0.718750
vt 0.625000 0.750000
vt 0.312500 0.250000
vt 0.000000 0.000000
vt 0.156250 0.062500
vt 0.312500 0.125000
vt 0.468750 0.187500
vt 0.625000 0.937500
vt 0.625000 1.000000
vt 0.375000 0.812500
vt 0.625000 0.812500
vt 0.625000 0.875000
vt 0.375000 0.875000
vt 0.375000 0.937500
vt 0.375000 1.000000
vt 0.375000 0.062500
vt 0.625000 0.062500
vt 0.625000 0.125000
vt 0.375000 0.125000
vt 0.375000 0.031250
vt 0.625000 0.031250
vt 0.375000 0.000000
vt 0.625000 0.000000
s 0
usemtl Material
f 58/1/1 53/2/1 7/3/1 32/4/1
f 53/2/2 21/5/2 132/5/2 136/2/2
f 37/6/3 15/7/3 10/8/3 36/9/3
f 60/10/3 54/11/3 4/12/3 42/13/3
f 61/14/3 12/14/3 84/14/3 91/14/3
f 46/15/4 28/16/4 30/17/4 47/18/4
f 68/19/5 31/20/5 13/21/5 63/22/5
f 67/23/3 64/24/3 14/8/3 35/25/3
f 100/14/3 84/14/3 176/14/3 178/14/3
f 21/5/2 17/26/2 130/26/2 132/5/2
f 16/27/2 20/28/2 87/28/2 85/27/2
f 1/29/2 16/27/2 85/27/2 79/29/2
f 33/20/6 9/21/6 17/26/6 39/30/6
f 128/8/3 150/8/3 182/8/3 180/8/3
f 15/7/3 19/31/3 131/31/3 129/7/3
f 17/26/2 9/21/2 125/21/2 130/26/2
f 78/13/3 72/12/3 112/12/3 118/13/3
f 49/32/3 18/33/3 22/34/3 50/35/3
f 39/30/7 17/26/7 21/5/7 40/36/7
f 37/6/3 27/37/3 29/38/3 38/39/3
f 44/40/8 23/41/8 28/16/8 46/15/8
f 99/29/9 100/14/9 178/14/9 177/29/9
f 70/42/3 65/43/3 24/43/3 43/42/3
f 69/44/10 45/40/10 25/41/10 66/45/10
f 57/46/3 55/47/3 5/48/3 34/49/3
f 49/32/3 27/37/3 26/50/3 48/42/3
f 18/33/3 2/14/3 80/14/3 86/33/3
f 59/51/11 56/52/11 6/53/11 41/54/11
f 51/55/3 57/46/3 34/49/3 8/56/3
f 12/14/3 43/42/3 173/42/3 166/14/3
f 15/7/3 37/6/3 38/39/3 19/31/3
f 28/16/12 39/30/12 40/36/12 30/17/12
f 23/41/2 33/20/2 39/30/2 28/16/2
f 65/43/3 67/23/3 35/25/3 24/43/3
f 66/45/13 25/41/13 31/20/13 68/19/13
f 27/37/3 37/6/3 36/9/3 26/50/3
f 42/13/3 4/12/3 72/12/3 78/13/3
f 56/52/14 58/1/14 32/4/14 6/53/14
f 52/57/15 59/51/15 41/54/15 3/58/15
f 75/4/2 32/4/2 133/4/2 139/4/2
f 18/33/3 49/32/3 48/42/3 2/14/3
f 62/59/2 11/29/2 45/40/2 69/44/2
f 61/14/3 70/42/3 43/42/3 12/14/3
f 1/29/2 44/40/2 46/15/2 16/27/2
f 27/37/3 49/32/3 50/35/3 29/38/3
f 177/29/16 175/29/16 240/29/16 241/29/16
f 16/27/2 46/15/2 47/18/2 20/28/2
f 55/47/3 60/10/3 42/13/3 5/48/3
f 29/38/3 50/35/3 60/10/3 55/47/3
f 20/28/17 47/18/17 59/51/17 52/57/17
f 30/17/18 40/36/18 58/1/18 56/52/18
f 19/31/3 38/39/3 57/46/3 51/55/3
f 47/18/19 30/17/19 56/52/19 59/51/19
f 38/39/3 29/38/3 55/47/3 57/46/3
f 64/24/3 10/8/3 126/8/3 138/24/3
f 35/25/3 14/8/3 168/8/3 172/25/3
f 50/35/3 22/34/3 54/11/3 60/10/3
f 40/36/20 21/5/20 53/2/20 58/1/20
f 2/14/3 48/42/3 70/42/3 61/14/3
f 1/60/2 62/59/2 69/44/2 44/61/2
f 23/62/21 66/45/21 68/19/21 33/63/21
f 26/50/3 36/9/3 67/23/3 65/43/3
f 44/61/22 69/44/22 66/45/22 23/62/22
f 48/42/3 26/50/3 65/43/3 70/42/3
f 4/12/3 54/11/3 90/11/3 82/12/3
f 7/3/2 53/2/2 136/2/2 123/3/2
f 36/9/3 10/8/3 64/24/3 67/23/3
f 33/63/23 68/19/23 63/22/23 9/21/23
f 125/21/24 137/22/24 221/22/24 215/21/24
f 75/64/25 115/64/25 210/64/25 190/64/25
f 94/12/3 110/12/3 122/12/3 120/12/3
f 34/49/3 5/48/3 73/48/3 76/49/3
f 6/53/2 32/4/2 75/4/2 74/53/2
f 5/48/3 42/13/3 78/13/3 73/48/3
f 41/54/26 6/53/26 74/53/26 77/54/26
f 3/58/2 41/54/2 77/54/2 71/58/2
f 145/65/27 155/64/27 230/64/27 225/65/27
f 82/12/3 90/11/3 106/11/3 98/12/3
f 123/3/28 136/2/28 220/2/28 214/3/28
f 89/57/29 81/58/29 193/58/29 197/57/29
f 174/40/30 170/41/30 237/41/30 239/40/30
f 94/12/3 82/12/3 98/12/3 110/12/3
f 43/42/3 24/43/3 169/43/3 173/42/3
f 2/14/3 61/14/3 91/14/3 80/14/3
f 72/12/3 4/12/3 82/12/3 94/12/3
f 22/34/3 18/33/3 86/33/3 88/34/3
f 62/59/2 1/60/2 79/60/2 92/59/2
f 11/29/2 62/59/2 92/59/2 83/29/2
f 54/11/3 22/34/3 88/34/3 90/11/3
f 52/57/31 3/58/31 81/58/31 89/57/31
f 3/58/2 71/58/2 93/58/2 81/58/2
f 20/28/31 52/57/31 89/57/31 87/28/31
f 106/11/32 105/57/32 97/58/32 98/12/32
f 107/14/33 100/14/33 99/29/33 108/59/33
f 96/14/32 95/29/32 101/27/32 102/33/32
f 102/33/32 101/27/32 103/28/32 104/34/32
f 98/12/34 97/58/34 109/58/34 110/12/34
f 104/34/32 103/28/32 105/57/32 106/11/32
f 96/14/33 107/14/33 108/59/33 95/60/33
f 88/34/3 86/33/3 102/33/3 104/34/3
f 80/14/3 91/14/3 107/14/3 96/14/3
f 161/64/35 163/64/35 234/64/35 233/64/35
f 109/58/36 97/58/36 201/58/36 207/58/36
f 119/58/37 121/58/37 213/58/37 212/58/37
f 86/33/3 80/14/3 96/14/3 102/33/3
f 90/11/3 88/34/3 104/34/3 106/11/3
f 91/14/3 84/14/3 100/14/3 107/14/3
f 73/48/3 78/13/3 118/13/3 113/48/3
f 111/58/38 112/12/38 120/12/38 119/58/38
f 118/66/39 117/67/39 114/68/39 113/69/39
f 113/69/40 114/68/40 115/64/40 116/70/40
f 112/12/41 111/58/41 117/67/41 118/66/41
f 119/58/38 120/12/38 122/12/38 121/58/38
f 110/12/42 109/58/42 121/58/42 122/12/42
f 75/64/43 76/70/43 116/70/43 115/64/43
f 45/40/44 11/29/44 183/29/44 187/40/44
f 76/49/3 73/48/3 113/48/3 116/49/3
f 111/58/37 119/58/37 212/58/37 208/58/37
f 141/64/45 75/64/45 190/64/45 223/64/45
f 72/12/3 94/12/3 120/12/3 112/12/3
f 144/70/46 143/64/46 163/64/46 164/70/46
f 171/20/47 167/21/47 236/21/47 238/20/47
f 124/56/3 134/49/3 156/49/3 146/56/3
f 135/55/3 124/56/3 146/56/3 157/55/3
f 128/8/3 138/24/3 160/24/3 150/8/3
f 138/24/3 126/8/3 148/8/3 160/24/3
f 139/4/36 133/4/36 219/4/36 222/4/36
f 93/58/16 71/58/16 188/58/16 199/58/16
f 34/49/3 76/49/3 140/49/3 134/49/3
f 32/4/2 7/3/2 123/3/2 133/4/2
f 9/21/2 63/22/2 137/22/2 125/21/2
f 19/31/3 51/55/3 135/55/3 131/31/3
f 8/56/3 34/49/3 134/49/3 124/56/3
f 51/55/3 8/56/3 124/56/3 135/55/3
f 14/8/3 64/24/3 138/24/3 128/8/3
f 63/22/2 13/21/2 127/21/2 137/22/2
f 10/8/3 15/7/3 129/7/3 126/8/3
f 95/60/48 108/59/48 206/59/48 200/60/48
f 142/70/46 141/64/46 143/64/46 144/70/46
f 159/22/49 147/21/49 226/21/49 232/22/49
f 140/49/3 76/49/3 142/49/3 144/49/3
f 76/70/50 75/64/50 141/64/50 142/70/50
f 156/70/51 155/64/51 145/65/51 146/71/51
f 160/24/52 159/22/52 149/21/52 150/8/52
f 153/72/53 154/73/53 152/74/53 151/75/53
f 148/8/54 151/75/54 152/74/54 147/21/54
f 157/76/55 158/77/55 154/73/55 153/72/55
f 155/64/56 156/70/56 162/70/56 161/64/56
f 146/78/55 145/79/55 158/77/55 157/76/55
f 148/8/52 147/21/52 159/22/52 160/24/52
f 161/64/57 162/70/57 164/70/57 163/64/57
f 175/29/16 165/29/16 235/29/16 240/29/16
f 136/2/58 132/5/58 218/5/58 220/2/58
f 134/49/3 140/49/3 162/49/3 156/49/3
f 81/58/59 93/58/59 199/58/59 193/58/59
f 131/31/3 135/55/3 157/55/3 153/31/3
f 129/7/3 131/31/3 153/31/3 151/7/3
f 126/8/3 129/7/3 151/7/3 148/8/3
f 158/77/60 145/79/60 225/79/60 231/77/60
f 165/29/61 174/40/61 239/40/61 235/29/61
f 140/49/3 144/49/3 164/49/3 162/49/3
f 14/8/3 128/8/3 180/8/3 168/8/3
f 173/42/62 174/40/62 165/29/62 166/14/62
f 167/21/63 168/8/63 180/8/63 179/21/63
f 172/25/64 171/20/64 170/41/64 169/43/64
f 168/8/65 167/21/65 171/20/65 172/25/65
f 169/43/66 170/41/66 174/40/66 173/42/66
f 166/14/67 165/29/67 175/29/67 176/14/67
f 176/14/67 175/29/67 177/29/67 178/14/67
f 179/21/63 180/8/63 182/8/63 181/21/63
f 181/21/68 149/21/68 227/21/68 243/21/68
f 143/64/69 141/64/69 223/64/69 224/64/69
f 105/57/70 103/28/70 204/28/70 205/57/70
f 117/67/71 111/58/71 208/58/71 211/67/71
f 132/5/72 130/26/72 217/26/72 218/5/72
f 84/14/3 12/14/3 166/14/3 176/14/3
f 75/4/73 139/4/73 222/4/73 190/4/73
f 150/8/74 149/21/74 181/21/74 182/8/74
f 24/43/3 35/25/3 172/25/3 169/43/3
f 130/26/75 125/21/75 215/21/75 217/26/75
f 216/21/2 184/21/2 236/21/2 242/21/2
f 189/53/2 190/4/2 210/4/2 209/53/2
f 199/58/2 188/58/2 208/58/2 212/58/2
f 192/29/2 195/27/2 203/27/2 200/29/2
f 193/58/2 199/58/2 207/58/2 201/58/2
f 194/29/2 198/59/2 206/59/2 202/29/2
f 196/28/31 197/57/31 205/57/31 204/28/31
f 197/57/31 193/58/31 201/58/31 205/57/31
f 198/59/2 192/60/2 200/60/2 206/59/2
f 195/27/2 196/28/2 204/28/2 203/27/2
f 207/58/2 199/58/2 212/58/2 213/58/2
f 191/54/76 189/53/76 209/53/76 211/54/76
f 188/58/2 191/54/2 211/54/2 208/58/2
f 217/26/77 215/21/77 226/21/77 228/26/77
f 222/4/2 219/4/2 230/4/2 233/4/2
f 215/21/2 221/22/2 232/22/2 226/21/2
f 190/4/2 222/4/2 224/4/2 223/4/2
f 221/22/2 216/21/2 227/21/2 232/22/2
f 218/5/2 217/26/2 228/26/2 229/5/2
f 219/4/2 214/3/2 225/3/2 230/4/2
f 224/4/2 222/4/2 233/4/2 234/4/2
f 214/3/2 220/2/2 231/2/2 225/3/2
f 220/2/78 218/5/78 229/5/78 231/2/78
f 184/21/2 186/20/2 238/20/2 236/21/2
f 227/21/2 216/21/2 242/21/2 243/21/2
f 186/20/2 185/41/2 237/41/2 238/20/2
f 187/40/2 183/29/2 235/29/2 239/40/2
f 185/41/2 187/40/2 239/40/2 237/41/2
f 194/29/2 202/29/2 241/29/2 240/29/2
f 183/29/2 194/29/2 240/29/2 235/29/2
f 83/29/79 92/59/79 198/59/79 194/29/79
f 121/58/80 109/58/80 207/58/80 213/58/80
f 25/41/81 45/40/81 187/40/81 185/41/81
f 163/64/69 143/64/69 224/64/69 234/64/69
f 79/29/82 85/27/82 195/27/82 192/29/82
f 149/21/83 159/22/83 232/22/83 227/21/83
f 97/58/70 105/57/70 205/57/70 201/58/70
f 13/21/84 31/20/84 186/20/84 184/21/84
f 147/21/85 152/74/85 228/74/85 226/21/85
f 179/21/73 181/21/73 243/21/73 242/21/73
f 85/27/82 87/28/82 196/28/82 195/27/82
f 152/74/86 154/73/86 229/73/86 228/74/86
f 31/20/87 25/41/87 185/41/87 186/20/87
f 77/54/88 74/53/88 189/53/88 191/54/88
f 133/4/89 123/3/89 214/3/89 219/4/89
f 167/21/73 179/21/73 242/21/73 236/21/73
f 114/68/90 117/67/90 211/67/90 209/68/90
f 108/59/48 99/29/48 202/29/48 206/59/48
f 127/21/69 13/21/69 184/21/69 216/21/69
f 101/27/91 95/29/91 200/29/91 203/27/91
f 87/28/29 89/57/29 197/57/29 196/28/29
f 154/73/92 158/77/92 231/77/92 229/73/92
f 170/41/93 171/20/93 238/20/93 237/41/93
f 155/64/59 161/64/59 233/64/59 230/64/59
f 74/53/94 75/4/94 190/4/94 189/53/94
f 137/22/95 127/21/95 216/21/95 221/22/95
f 99/29/96 177/29/96 241/29/96 202/29/96
f 103/28/91 101/27/91 203/27/91 204/28/91
f 115/64/97 114/68/97 209/68/97 210/64/97
f 92/59/79 79/60/79 192/60/79 198/59/79
f 11/29/37 83/29/37 194/29/37 183/29/37
f 71/58/98 77/54/98 191/54/98 188/58/98
