# MagicaVoxel @ Ephtracy

# group
o 

# material
mtllib kriss2.mtl
usemtl palette

# normals
vn -1 0 0
vn 1 0 0
vn 0 0 1
vn 0 0 -1
vn 0 -1 0
vn 0 1 0

# texcoords
vt 0.955078 0.5
vt 0.958984 0.5
vt 0.990234 0.5
vt 0.994141 0.5

# verts
v -1.8 0 -0.3
v -1.8 0 -0.4
v -1.8 0.1 -0.2
v -1.8 0.1 -0.3
v -1.8 0.1 -0.4
v -1.8 0.1 -0.5
v -1.8 0.2 -0.2
v -1.8 0.2 -0.3
v -1.8 0.2 -0.4
v -1.8 0.2 -0.5
v -1.8 0.3 -0.3
v -1.8 0.3 -0.4
v -0.8 0 -0.2
v -0.8 0 -0.3
v -0.8 0 -0.4
v -0.8 0 -0.5
v -0.8 0.1 -0.1
v -0.8 0.1 -0.2
v -0.8 0.1 -0.3
v -0.8 0.1 -0.4
v -0.8 0.1 -0.5
v -0.8 0.2 -0.1
v -0.8 0.2 -0.2
v -0.8 0.2 -0.3
v -0.8 0.2 -0.4
v -0.8 0.2 -0.5
v -0.8 0.3 -0.2
v -0.8 0.3 -0.3
v -0.8 0.3 -0.4
v -0.8 0.3 -0.5
v -0.7 0 -0.1
v -0.7 0 -0.2
v -0.7 0 -0.5
v -0.7 0 -0.6
v -0.7 0.1 0.3
v -0.7 0.1 -0.1
v -0.7 0.1 -0.2
v -0.7 0.2 0.3
v -0.7 0.2 -0.1
v -0.7 0.2 -0.2
v -0.7 0.3 -0.1
v -0.7 0.3 -0.2
v -0.7 0.3 -0.5
v -0.7 0.3 -0.6
v -0.4 0 -0.1
v -0.4 0 -0.2
v -0.4 0.1 0.1
v -0.4 0.1 -0.1
v -0.4 0.1 -0.2
v -0.4 0.2 0.1
v -0.4 0.2 -2.98023e-08
v -0.4 0.2 -0.1
v -0.4 0.2 -0.2
v -0.4 0.3 -2.98023e-08
v -0.4 0.3 -0.2
v -0.3 0 0.2
v -0.3 0 -0.1
v -0.3 0.1 0.3
v -0.3 0.1 0.2
v -0.3 0.1 0.1
v -0.3 0.1 -0.1
v -0.3 0.2 0.3
v -0.3 0.2 0.2
v -0.3 0.2 0.1
v -0.3 0.2 -2.98023e-08
v -0.3 0.3 0.2
v -0.3 0.3 -2.98023e-08
v -0.2 0 0.3
v -0.2 0 0.2
v -0.2 0.1 0.3
v -0.2 0.1 0.2
v -0.2 0.2 0.3
v -0.2 0.2 0.2
v -0.2 0.3 0.3
v -0.2 0.3 0.2
v 0 0 -0.6
v 0 0 -0.7
v 0 0.1 0.3
v 0 0.1 0.2
v 0 0.1 -2.98023e-08
v 0 0.2 0.3
v 0 0.2 0.2
v 0 0.2 -2.98023e-08
v 0 0.3 -0.6
v 0 0.3 -0.7
v 0.2 0 -0.7
v 0.2 0 -0.8
v 0.2 0.3 -0.7
v 0.2 0.3 -0.8
v 0.7 0.1 -2.98023e-08
v 0.7 0.1 -0.2
v 0.7 0.2 -2.98023e-08
v 0.7 0.2 -0.2
v 0.8 0 -2.98023e-08
v 0.8 0 -0.2
v 0.8 0.1 0.2
v 0.8 0.1 -2.98023e-08
v 0.8 0.1 -0.2
v 0.8 0.2 0.2
v 0.8 0.2 -2.98023e-08
v 0.8 0.2 -0.2
v 0.8 0.3 -2.98023e-08
v 0.8 0.3 -0.2
v 0.9 0 0.2
v 0.9 0 -2.98023e-08
v 0.9 0.1 0.2
v 0.9 0.1 -2.98023e-08
v 0.9 0.2 0.2
v 0.9 0.2 -2.98023e-08
v 0.9 0.3 0.2
v 0.9 0.3 -2.98023e-08
v 1.5 0 -0.2
v 1.5 0 -0.3
v 1.5 0.3 -0.2
v 1.5 0.3 -0.3
v 1.6 0 -0.1
v 1.6 0 -0.2
v 1.6 0.3 -0.1
v 1.6 0.3 -0.2
v 1.7 0 0.1
v 1.7 0 -0.1
v 1.7 0.3 0.1
v 1.7 0.3 -0.1
v 1.8 0 0.2
v 1.8 0 0.1
v 1.8 0.3 0.2
v 1.8 0.3 0.1
v -0.5 0 -0.1
v -0.5 0 -0.2
v -0.5 0.1 0.3
v -0.5 0.1 -0.1
v -0.5 0.1 -0.2
v -0.5 0.2 0.3
v -0.5 0.2 -0.1
v -0.5 0.2 -0.2
v -0.5 0.3 -0.1
v -0.5 0.3 -0.2
v -0.2 0.1 0.3
v -0.2 0.1 -2.98023e-08
v -0.2 0.2 0.3
v -0.2 0.2 -2.98023e-08
v 0.3 0 -2.98023e-08
v 0.3 0 -0.2
v 0.3 0.1 -2.98023e-08
v 0.3 0.1 -0.2
v 0.3 0.2 -2.98023e-08
v 0.3 0.2 -0.2
v 0.3 0.3 -2.98023e-08
v 0.3 0.3 -0.2
v 0.4 0 0.2
v 0.4 0 -2.98023e-08
v 0.4 0 -0.7
v 0.4 0 -0.8
v 0.4 0.1 0.2
v 0.4 0.1 -2.98023e-08
v 0.4 0.1 -0.2
v 0.4 0.2 0.2
v 0.4 0.2 -2.98023e-08
v 0.4 0.2 -0.2
v 0.4 0.3 0.2
v 0.4 0.3 -2.98023e-08
v 0.4 0.3 -0.7
v 0.4 0.3 -0.8
v 0.5 0 -0.6
v 0.5 0 -0.7
v 0.5 0.1 0.2
v 0.5 0.1 -2.98023e-08
v 0.5 0.2 0.2
v 0.5 0.2 -2.98023e-08
v 0.5 0.3 -0.6
v 0.5 0.3 -0.7
v 0.8 0 -0.5
v 0.8 0 -0.6
v 0.8 0.1 -0.5
v 0.8 0.1 -0.6
v 0.8 0.2 -0.5
v 0.8 0.2 -0.6
v 0.8 0.3 -0.5
v 0.8 0.3 -0.6
v 0.9 0 0.3
v 0.9 0 0.2
v 0.9 0.1 0.3
v 0.9 0.1 0.2
v 0.9 0.1 -0.5
v 0.9 0.1 -0.6
v 0.9 0.2 0.3
v 0.9 0.2 0.2
v 0.9 0.2 -0.5
v 0.9 0.2 -0.6
v 0.9 0.3 0.3
v 0.9 0.3 0.2
v 1 0 0.2
v 1 0 -2.98023e-08
v 1 0.1 0.3
v 1 0.1 0.2
v 1 0.1 0.1
v 1 0.1 -2.98023e-08
v 1 0.2 0.3
v 1 0.2 0.2
v 1 0.2 0.1
v 1 0.2 -2.98023e-08
v 1 0.3 0.2
v 1 0.3 -2.98023e-08
v 1.1 0 -2.98023e-08
v 1.1 0 -0.2
v 1.1 0.1 0.1
v 1.1 0.1 -2.98023e-08
v 1.1 0.2 0.1
v 1.1 0.2 -2.98023e-08
v 1.1 0.3 -2.98023e-08
v 1.1 0.3 -0.2
v 1.2 0 -0.2
v 1.2 0 -0.3
v 1.2 0.3 -0.2
v 1.2 0.3 -0.3
v 1.4 0 -0.4
v 1.4 0 -0.5
v 1.4 0.1 -0.4
v 1.4 0.1 -0.5
v 1.4 0.2 -0.4
v 1.4 0.2 -0.5
v 1.4 0.3 -0.4
v 1.4 0.3 -0.5
v 1.7 0.1 -0.4
v 1.7 0.1 -0.5
v 1.7 0.2 -0.4
v 1.7 0.2 -0.5
v 1.8 0 -0.3
v 1.8 0 -0.4
v 1.8 0.1 -0.3
v 1.8 0.1 -0.4
v 1.8 0.2 -0.3
v 1.8 0.2 -0.4
v 1.8 0.3 -0.3
v 1.8 0.3 -0.4
v 1.9 0 0.2
v 1.9 0 -0.3
v 1.9 0.1 -0.3
v 1.9 0.1 -0.4
v 1.9 0.2 -0.3
v 1.9 0.2 -0.4
v 1.9 0.3 0.2
v 1.9 0.3 -0.3
v -0.7 0.1 0.3
v -0.7 0.2 0.3
v -0.5 0.1 0.3
v -0.5 0.2 0.3
v -0.3 0.1 0.3
v -0.3 0.2 0.3
v -0.2 0 0.3
v -0.2 0.1 0.3
v -0.2 0.2 0.3
v -0.2 0.3 0.3
v 0 0.1 0.3
v 0 0.2 0.3
v 0.3 0 0.3
v 0.3 0.3 0.3
v 0.9 0 0.3
v 0.9 0.1 0.3
v 0.9 0.2 0.3
v 0.9 0.3 0.3
v 1 0.1 0.3
v 1 0.2 0.3
v -0.3 0 0.2
v -0.3 0.1 0.2
v -0.3 0.2 0.2
v -0.3 0.3 0.2
v -0.2 0 0.2
v -0.2 0.1 0.2
v -0.2 0.2 0.2
v -0.2 0.3 0.2
v 0.9 0 0.2
v 0.9 0.1 0.2
v 0.9 0.2 0.2
v 0.9 0.3 0.2
v 1 0 0.2
v 1 0.1 0.2
v 1 0.2 0.2
v 1 0.3 0.2
v 1.8 0 0.2
v 1.8 0.3 0.2
v 1.9 0 0.2
v 1.9 0.3 0.2
v -0.4 0.1 0.1
v -0.4 0.2 0.1
v -0.3 0.1 0.1
v -0.3 0.2 0.1
v 1 0.1 0.1
v 1 0.2 0.1
v 1.1 0.1 0.1
v 1.1 0.2 0.1
v 1.7 0 0.1
v 1.7 0.3 0.1
v 1.8 0 0.1
v 1.8 0.3 0.1
v -0.4 0.2 -2.98023e-08
v -0.4 0.3 -2.98023e-08
v -0.3 0.2 -2.98023e-08
v -0.3 0.3 -2.98023e-08
v -0.2 0.1 -2.98023e-08
v -0.2 0.2 -2.98023e-08
v 0 0.1 -2.98023e-08
v 0 0.2 -2.98023e-08
v 0.7 0.1 -2.98023e-08
v 0.7 0.2 -2.98023e-08
v 0.8 0 -2.98023e-08
v 0.8 0.1 -2.98023e-08
v 0.8 0.2 -2.98023e-08
v 0.8 0.3 -2.98023e-08
v 0.9 0 -2.98023e-08
v 0.9 0.1 -2.98023e-08
v 0.9 0.2 -2.98023e-08
v 0.9 0.3 -2.98023e-08
v 1 0 -2.98023e-08
v 1 0.1 -2.98023e-08
v 1 0.2 -2.98023e-08
v 1 0.3 -2.98023e-08
v 1.1 0 -2.98023e-08
v 1.1 0.1 -2.98023e-08
v 1.1 0.2 -2.98023e-08
v 1.1 0.3 -2.98023e-08
v -0.8 0.1 -0.1
v -0.8 0.2 -0.1
v -0.7 0 -0.1
v -0.7 0.1 -0.1
v -0.7 0.2 -0.1
v -0.7 0.3 -0.1
v -0.5 0 -0.1
v -0.5 0.1 -0.1
v -0.5 0.2 -0.1
v -0.5 0.3 -0.1
v -0.4 0 -0.1
v -0.4 0.1 -0.1
v -0.4 0.2 -0.1
v -0.3 0 -0.1
v -0.3 0.1 -0.1
v 1.6 0 -0.1
v 1.6 0.3 -0.1
v 1.7 0 -0.1
v 1.7 0.3 -0.1
v -1.8 0.1 -0.2
v -1.8 0.2 -0.2
v -0.8 0 -0.2
v -0.8 0.1 -0.2
v -0.8 0.2 -0.2
v -0.8 0.3 -0.2
v -0.7 0 -0.2
v -0.7 0.1 -0.2
v -0.7 0.2 -0.2
v -0.7 0.3 -0.2
v -0.5 0 -0.2
v -0.5 0.1 -0.2
v -0.5 0.2 -0.2
v -0.5 0.3 -0.2
v -0.4 0 -0.2
v -0.4 0.1 -0.2
v -0.4 0.2 -0.2
v -0.4 0.3 -0.2
v 0.3 0 -0.2
v 0.3 0.1 -0.2
v 0.3 0.2 -0.2
v 0.3 0.3 -0.2
v 0.4 0.1 -0.2
v 0.4 0.2 -0.2
v 0.7 0.1 -0.2
v 0.7 0.2 -0.2
v 0.8 0 -0.2
v 0.8 0.1 -0.2
v 0.8 0.2 -0.2
v 0.8 0.3 -0.2
v 1.1 0 -0.2
v 1.1 0.3 -0.2
v 1.2 0 -0.2
v 1.2 0.3 -0.2
v 1.5 0 -0.2
v 1.5 0.3 -0.2
v 1.6 0 -0.2
v 1.6 0.3 -0.2
v -1.8 0 -0.3
v -1.8 0.1 -0.3
v -1.8 0.2 -0.3
v -1.8 0.3 -0.3
v -0.8 0 -0.3
v -0.8 0.1 -0.3
v -0.8 0.2 -0.3
v -0.8 0.3 -0.3
v 1.2 0 -0.3
v 1.2 0.3 -0.3
v 1.5 0 -0.3
v 1.5 0.3 -0.3
v 0.4 0 0.2
v 0.4 0.1 0.2
v 0.4 0.2 0.2
v 0.4 0.3 0.2
v 0.5 0.1 0.2
v 0.5 0.2 0.2
v 0.8 0.1 0.2
v 0.8 0.2 0.2
v 0.9 0 0.2
v 0.9 0.1 0.2
v 0.9 0.2 0.2
v 0.9 0.3 0.2
v 0.3 0 -2.98023e-08
v 0.3 0.1 -2.98023e-08
v 0.3 0.2 -2.98023e-08
v 0.3 0.3 -2.98023e-08
v 0.4 0 -2.98023e-08
v 0.4 0.1 -2.98023e-08
v 0.4 0.2 -2.98023e-08
v 0.4 0.3 -2.98023e-08
v 0.5 0.1 -2.98023e-08
v 0.5 0.2 -2.98023e-08
v 1.8 0 -0.3
v 1.8 0.1 -0.3
v 1.8 0.2 -0.3
v 1.8 0.3 -0.3
v 1.9 0 -0.3
v 1.9 0.1 -0.3
v 1.9 0.2 -0.3
v 1.9 0.3 -0.3
v -1.8 0 -0.4
v -1.8 0.1 -0.4
v -1.8 0.2 -0.4
v -1.8 0.3 -0.4
v -0.8 0 -0.4
v -0.8 0.1 -0.4
v -0.8 0.2 -0.4
v -0.8 0.3 -0.4
v 1.4 0 -0.4
v 1.4 0.1 -0.4
v 1.4 0.2 -0.4
v 1.4 0.3 -0.4
v 1.7 0.1 -0.4
v 1.7 0.2 -0.4
v 1.8 0 -0.4
v 1.8 0.1 -0.4
v 1.8 0.2 -0.4
v 1.8 0.3 -0.4
v 1.9 0.1 -0.4
v 1.9 0.2 -0.4
v -1.8 0.1 -0.5
v -1.8 0.2 -0.5
v -0.8 0 -0.5
v -0.8 0.1 -0.5
v -0.8 0.2 -0.5
v -0.8 0.3 -0.5
v -0.7 0 -0.5
v -0.7 0.3 -0.5
v 0.8 0 -0.5
v 0.8 0.1 -0.5
v 0.8 0.2 -0.5
v 0.8 0.3 -0.5
v 0.9 0.1 -0.5
v 0.9 0.2 -0.5
v 1.4 0 -0.5
v 1.4 0.1 -0.5
v 1.4 0.2 -0.5
v 1.4 0.3 -0.5
v 1.7 0.1 -0.5
v 1.7 0.2 -0.5
v -0.7 0 -0.6
v -0.7 0.3 -0.6
v 0 0 -0.6
v 0 0.3 -0.6
v 0.5 0 -0.6
v 0.5 0.3 -0.6
v 0.8 0 -0.6
v 0.8 0.1 -0.6
v 0.8 0.2 -0.6
v 0.8 0.3 -0.6
v 0.9 0.1 -0.6
v 0.9 0.2 -0.6
v 0 0 -0.7
v 0 0.3 -0.7
v 0.2 0 -0.7
v 0.2 0.3 -0.7
v 0.4 0 -0.7
v 0.4 0.3 -0.7
v 0.5 0 -0.7
v 0.5 0.3 -0.7
v 0.2 0 -0.8
v 0.2 0.3 -0.8
v 0.4 0 -0.8
v 0.4 0.3 -0.8
v -0.2 0 0.3
v 0.3 0 0.3
v 0.9 0 0.3
v -0.3 0 0.2
v -0.2 0 0.2
v 0.4 0 0.2
v 0.9 0 0.2
v 1 0 0.2
v 1.8 0 0.2
v 1.9 0 0.2
v 0.2 0 0.1
v 0.3 0 0.1
v 1.7 0 0.1
v 1.8 0 0.1
v 0.3 0 -2.98023e-08
v 0.4 0 -2.98023e-08
v 0.8 0 -2.98023e-08
v 0.9 0 -2.98023e-08
v 1 0 -2.98023e-08
v 1.1 0 -2.98023e-08
v -0.7 0 -0.1
v -0.5 0 -0.1
v -0.4 0 -0.1
v -0.3 0 -0.1
v 1.6 0 -0.1
v 1.7 0 -0.1
v -0.8 0 -0.2
v -0.7 0 -0.2
v -0.5 0 -0.2
v -0.4 0 -0.2
v -0.0999999 0 -0.2
v 0.2 0 -0.2
v 0.3 0 -0.2
v 0.8 0 -0.2
v 1.1 0 -0.2
v 1.2 0 -0.2
v 1.5 0 -0.2
v 1.6 0 -0.2
v -1.8 0 -0.3
v -0.8 0 -0.3
v -0.2 0 -0.3
v -0.0999999 0 -0.3
v 1.2 0 -0.3
v 1.5 0 -0.3
v 1.8 0 -0.3
v 1.9 0 -0.3
v -1.8 0 -0.4
v -0.8 0 -0.4
v -0.2 0 -0.4
v 1.4 0 -0.4
v 1.8 0 -0.4
v -0.8 0 -0.5
v -0.7 0 -0.5
v 0.8 0 -0.5
v 1.4 0 -0.5
v -0.7 0 -0.6
v 0 0 -0.6
v 0.5 0 -0.6
v 0.8 0 -0.6
v 0 0 -0.7
v 0.2 0 -0.7
v 0.4 0 -0.7
v 0.5 0 -0.7
v 0.2 0 -0.8
v 0.4 0 -0.8
v -0.7 0.1 0.3
v -0.5 0.1 0.3
v -0.3 0.1 0.3
v -0.2 0.1 0.3
v 0.9 0.1 0.3
v 1 0.1 0.3
v -0.3 0.1 0.2
v -0.2 0.1 0.2
v 0.4 0.1 0.2
v 0.5 0.1 0.2
v 0.8 0.1 0.2
v 0.9 0.1 0.2
v 1 0.1 0.2
v -0.4 0.1 0.1
v -0.3 0.1 0.1
v 1 0.1 0.1
v 1.1 0.1 0.1
v 0.3 0.1 -2.98023e-08
v 0.4 0.1 -2.98023e-08
v 0.5 0.1 -2.98023e-08
v 0.7 0.1 -2.98023e-08
v 0.8 0.1 -2.98023e-08
v 0.9 0.1 -2.98023e-08
v 1 0.1 -2.98023e-08
v 1.1 0.1 -2.98023e-08
v -0.8 0.1 -0.1
v -0.7 0.1 -0.1
v -0.5 0.1 -0.1
v -0.4 0.1 -0.1
v -0.3 0.1 -0.1
v -1.8 0.1 -0.2
v -0.8 0.1 -0.2
v -0.7 0.1 -0.2
v -0.5 0.1 -0.2
v -0.4 0.1 -0.2
v 0.3 0.1 -0.2
v 0.4 0.1 -0.2
v 0.7 0.1 -0.2
v 0.8 0.1 -0.2
v -1.8 0.1 -0.3
v -0.8 0.1 -0.3
v 1.8 0.1 -0.3
v 1.9 0.1 -0.3
v -1.8 0.1 -0.4
v -0.8 0.1 -0.4
v 1.4 0.1 -0.4
v 1.7 0.1 -0.4
v 1.8 0.1 -0.4
v 1.9 0.1 -0.4
v -1.8 0.1 -0.5
v -0.8 0.1 -0.5
v 0.8 0.1 -0.5
v 0.9 0.1 -0.5
v 1.4 0.1 -0.5
v 1.7 0.1 -0.5
v 0.8 0.1 -0.6
v 0.9 0.1 -0.6
v -0.2 0.2 0.3
v 0 0.2 0.3
v 0 0.2 0.2
v -0.2 0.2 -2.98023e-08
v 0 0.2 -2.98023e-08
v -0.2 0.1 0.3
v 0 0.1 0.3
v 0 0.1 0.2
v -0.2 0.1 -2.98023e-08
v 0 0.1 -2.98023e-08
v -0.7 0.2 0.3
v -0.5 0.2 0.3
v -0.3 0.2 0.3
v -0.2 0.2 0.3
v 0.9 0.2 0.3
v 1 0.2 0.3
v -0.3 0.2 0.2
v -0.2 0.2 0.2
v 0.4 0.2 0.2
v 0.5 0.2 0.2
v 0.8 0.2 0.2
v 0.9 0.2 0.2
v 1 0.2 0.2
v -0.4 0.2 0.1
v -0.3 0.2 0.1
v 1 0.2 0.1
v 1.1 0.2 0.1
v -0.4 0.2 -2.98023e-08
v -0.3 0.2 -2.98023e-08
v 0.3 0.2 -2.98023e-08
v 0.4 0.2 -2.98023e-08
v 0.5 0.2 -2.98023e-08
v 0.7 0.2 -2.98023e-08
v 0.8 0.2 -2.98023e-08
v 0.9 0.2 -2.98023e-08
v 1 0.2 -2.98023e-08
v 1.1 0.2 -2.98023e-08
v -0.8 0.2 -0.1
v -0.7 0.2 -0.1
v -0.5 0.2 -0.1
v -0.4 0.2 -0.1
v -1.8 0.2 -0.2
v -0.8 0.2 -0.2
v -0.7 0.2 -0.2
v -0.5 0.2 -0.2
v -0.4 0.2 -0.2
v 0.3 0.2 -0.2
v 0.4 0.2 -0.2
v 0.7 0.2 -0.2
v 0.8 0.2 -0.2
v -1.8 0.2 -0.3
v -0.8 0.2 -0.3
v 1.8 0.2 -0.3
v 1.9 0.2 -0.3
v -1.8 0.2 -0.4
v -0.8 0.2 -0.4
v 1.4 0.2 -0.4
v 1.7 0.2 -0.4
v 1.8 0.2 -0.4
v 1.9 0.2 -0.4
v -1.8 0.2 -0.5
v -0.8 0.2 -0.5
v 0.8 0.2 -0.5
v 0.9 0.2 -0.5
v 1.4 0.2 -0.5
v 1.7 0.2 -0.5
v 0.8 0.2 -0.6
v 0.9 0.2 -0.6
v -0.2 0.3 0.3
v 0.3 0.3 0.3
v 0.9 0.3 0.3
v -0.3 0.3 0.2
v -0.2 0.3 0.2
v 0.4 0.3 0.2
v 0.9 0.3 0.2
v 1 0.3 0.2
v 1.8 0.3 0.2
v 1.9 0.3 0.2
v 0.2 0.3 0.1
v 0.3 0.3 0.1
v 1.7 0.3 0.1
v 1.8 0.3 0.1
v -0.4 0.3 -2.98023e-08
v -0.3 0.3 -2.98023e-08
v 0.3 0.3 -2.98023e-08
v 0.4 0.3 -2.98023e-08
v 0.8 0.3 -2.98023e-08
v 0.9 0.3 -2.98023e-08
v 1 0.3 -2.98023e-08
v 1.1 0.3 -2.98023e-08
v -0.7 0.3 -0.1
v -0.5 0.3 -0.1
v 1.6 0.3 -0.1
v 1.7 0.3 -0.1
v -0.8 0.3 -0.2
v -0.7 0.3 -0.2
v -0.5 0.3 -0.2
v -0.4 0.3 -0.2
v -0.0999999 0.3 -0.2
v 0.2 0.3 -0.2
v 0.3 0.3 -0.2
v 0.8 0.3 -0.2
v 1.1 0.3 -0.2
v 1.2 0.3 -0.2
v 1.5 0.3 -0.2
v 1.6 0.3 -0.2
v -1.8 0.3 -0.3
v -0.8 0.3 -0.3
v -0.2 0.3 -0.3
v -0.0999999 0.3 -0.3
v 1.2 0.3 -0.3
v 1.5 0.3 -0.3
v 1.8 0.3 -0.3
v 1.9 0.3 -0.3
v -1.8 0.3 -0.4
v -0.8 0.3 -0.4
v -0.2 0.3 -0.4
v 1.4 0.3 -0.4
v 1.8 0.3 -0.4
v -0.8 0.3 -0.5
v -0.7 0.3 -0.5
v 0.8 0.3 -0.5
v 1.4 0.3 -0.5
v -0.7 0.3 -0.6
v 0 0.3 -0.6
v 0.5 0.3 -0.6
v 0.8 0.3 -0.6
v 0 0.3 -0.7
v 0.2 0.3 -0.7
v 0.4 0.3 -0.7
v 0.5 0.3 -0.7
v 0.2 0.3 -0.8
v 0.4 0.3 -0.8

# faces
f 4/3/1 2/3/1 1/3/1
f 5/3/1 2/3/1 4/3/1
f 7/3/1 4/3/1 3/3/1
f 7/3/1 6/3/1 5/3/1
f 7/3/1 5/3/1 4/3/1
f 8/3/1 6/3/1 7/3/1
f 9/3/1 6/3/1 8/3/1
f 10/3/1 6/3/1 9/3/1
f 11/3/1 9/3/1 8/3/1
f 12/3/1 9/3/1 11/3/1
f 18/2/1 14/2/1 13/2/1
f 19/2/1 14/2/1 18/2/1
f 20/1/1 16/1/1 15/1/1
f 21/1/1 16/1/1 20/1/1
f 22/4/1 18/4/1 17/4/1
f 23/4/1 18/4/1 22/4/1
f 27/2/1 24/2/1 23/2/1
f 28/2/1 24/2/1 27/2/1
f 29/1/1 26/1/1 25/1/1
f 30/1/1 26/1/1 29/1/1
f 36/4/1 32/4/1 31/4/1
f 37/4/1 32/4/1 36/4/1
f 38/4/1 36/4/1 35/4/1
f 39/4/1 36/4/1 38/4/1
f 41/4/1 40/4/1 39/4/1
f 42/4/1 40/4/1 41/4/1
f 43/1/1 34/1/1 33/1/1
f 44/1/1 34/1/1 43/1/1
f 48/2/1 46/2/1 45/2/1
f 49/2/1 46/2/1 48/2/1
f 50/2/1 48/2/1 47/2/1
f 51/2/1 48/2/1 50/2/1
f 52/2/1 48/2/1 51/2/1
f 54/2/1 53/2/1 52/2/1
f 54/2/1 52/2/1 51/2/1
f 55/2/1 53/2/1 54/2/1
f 59/2/1 57/2/1 56/2/1
f 60/2/1 57/2/1 59/2/1
f 61/2/1 57/2/1 60/2/1
f 62/2/1 59/2/1 58/2/1
f 62/2/1 60/2/1 59/2/1
f 63/2/1 60/2/1 62/2/1
f 64/2/1 60/2/1 63/2/1
f 66/2/1 65/2/1 64/2/1
f 66/2/1 64/2/1 63/2/1
f 67/2/1 65/2/1 66/2/1
f 70/2/1 69/2/1 68/2/1
f 71/2/1 69/2/1 70/2/1
f 74/2/1 73/2/1 72/2/1
f 75/2/1 73/2/1 74/2/1
f 81/2/1 79/2/1 78/2/1
f 82/1/1 80/1/1 79/1/1
f 82/2/1 79/2/1 81/2/1
f 83/1/1 80/1/1 82/1/1
f 84/4/1 77/4/1 76/4/1
f 85/4/1 77/4/1 84/4/1
f 88/4/1 87/4/1 86/4/1
f 89/4/1 87/4/1 88/4/1
f 92/4/1 91/4/1 90/4/1
f 93/4/1 91/4/1 92/4/1
f 97/1/1 95/1/1 94/1/1
f 98/1/1 95/1/1 97/1/1
f 99/1/1 97/1/1 96/1/1
f 100/1/1 97/1/1 99/1/1
f 102/1/1 101/1/1 100/1/1
f 103/1/1 101/1/1 102/1/1
f 106/1/1 105/1/1 104/1/1
f 107/1/1 105/1/1 106/1/1
f 110/1/1 109/1/1 108/1/1
f 111/1/1 109/1/1 110/1/1
f 114/1/1 113/1/1 112/1/1
f 115/1/1 113/1/1 114/1/1
f 118/1/1 117/1/1 116/1/1
f 119/1/1 117/1/1 118/1/1
f 122/1/1 121/1/1 120/1/1
f 123/1/1 121/1/1 122/1/1
f 126/1/1 125/1/1 124/1/1
f 127/1/1 125/1/1 126/1/1
f 128/4/2 129/4/2 131/4/2
f 131/4/2 129/4/2 132/4/2
f 130/4/2 131/4/2 133/4/2
f 133/4/2 131/4/2 134/4/2
f 134/4/2 135/4/2 136/4/2
f 136/4/2 135/4/2 137/4/2
f 138/2/2 139/2/2 140/2/2
f 140/2/2 139/2/2 141/2/2
f 142/1/2 143/1/2 144/1/2
f 144/1/2 143/1/2 145/1/2
f 146/1/2 147/1/2 148/1/2
f 148/1/2 147/1/2 149/1/2
f 150/1/2 151/1/2 154/1/2
f 154/1/2 151/1/2 155/1/2
f 155/1/2 156/1/2 158/1/2
f 158/1/2 156/1/2 159/1/2
f 157/1/2 158/1/2 160/1/2
f 160/1/2 158/1/2 161/1/2
f 152/4/2 153/4/2 162/4/2
f 162/4/2 153/4/2 163/4/2
f 166/1/2 167/1/2 168/1/2
f 168/1/2 167/1/2 169/1/2
f 164/4/2 165/4/2 170/4/2
f 170/4/2 165/4/2 171/4/2
f 172/1/2 173/1/2 174/1/2
f 174/1/2 173/1/2 175/1/2
f 176/1/2 177/1/2 178/1/2
f 178/1/2 177/1/2 179/1/2
f 180/1/2 181/1/2 182/1/2
f 182/1/2 181/1/2 183/1/2
f 184/1/2 185/1/2 188/1/2
f 188/1/2 185/1/2 189/1/2
f 186/1/2 187/1/2 190/1/2
f 190/1/2 187/1/2 191/1/2
f 192/1/2 193/1/2 195/1/2
f 195/1/2 193/1/2 196/1/2
f 196/1/2 193/1/2 197/1/2
f 194/1/2 195/1/2 198/1/2
f 195/1/2 196/1/2 198/1/2
f 198/1/2 196/1/2 199/1/2
f 199/1/2 196/1/2 200/1/2
f 200/1/2 201/1/2 202/1/2
f 199/1/2 200/1/2 202/1/2
f 202/1/2 201/1/2 203/1/2
f 204/1/2 205/1/2 207/1/2
f 206/1/2 207/1/2 208/1/2
f 207/1/2 205/1/2 209/1/2
f 208/1/2 207/1/2 209/1/2
f 209/1/2 205/1/2 210/1/2
f 210/1/2 205/1/2 211/1/2
f 212/1/2 213/1/2 214/1/2
f 214/1/2 213/1/2 215/1/2
f 216/1/2 217/1/2 218/1/2
f 218/1/2 217/1/2 219/1/2
f 220/1/2 221/1/2 222/1/2
f 222/1/2 221/1/2 223/1/2
f 224/1/2 225/1/2 226/1/2
f 226/1/2 225/1/2 227/1/2
f 228/1/2 229/1/2 230/1/2
f 230/1/2 229/1/2 231/1/2
f 232/1/2 233/1/2 234/1/2
f 234/1/2 233/1/2 235/1/2
f 236/1/2 237/1/2 238/1/2
f 236/1/2 238/1/2 240/1/2
f 238/1/2 239/1/2 240/1/2
f 240/1/2 239/1/2 241/1/2
f 236/1/2 240/1/2 242/1/2
f 242/1/2 240/1/2 243/1/2
f 246/4/3 245/4/3 244/4/3
f 247/4/3 245/4/3 246/4/3
f 251/2/3 249/2/3 248/2/3
f 252/2/3 249/2/3 251/2/3
f 254/2/3 251/2/3 250/2/3
f 255/2/3 253/2/3 252/2/3
f 256/2/3 254/2/3 250/2/3
f 256/2/3 255/2/3 254/2/3
f 257/2/3 253/2/3 255/2/3
f 257/2/3 255/2/3 256/2/3
f 258/1/3 257/1/3 256/1/3
f 259/1/3 257/1/3 258/1/3
f 260/1/3 257/1/3 259/1/3
f 261/1/3 257/1/3 260/1/3
f 262/1/3 260/1/3 259/1/3
f 263/1/3 260/1/3 262/1/3
f 268/2/3 265/2/3 264/2/3
f 269/2/3 265/2/3 268/2/3
f 270/2/3 267/2/3 266/2/3
f 271/2/3 267/2/3 270/2/3
f 276/1/3 273/1/3 272/1/3
f 277/1/3 273/1/3 276/1/3
f 278/1/3 275/1/3 274/1/3
f 279/1/3 275/1/3 278/1/3
f 282/1/3 281/1/3 280/1/3
f 283/1/3 281/1/3 282/1/3
f 286/2/3 285/2/3 284/2/3
f 287/2/3 285/2/3 286/2/3
f 290/1/3 289/1/3 288/1/3
f 291/1/3 289/1/3 290/1/3
f 294/1/3 293/1/3 292/1/3
f 295/1/3 293/1/3 294/1/3
f 298/2/3 297/2/3 296/2/3
f 299/2/3 297/2/3 298/2/3
f 302/2/3 301/2/3 300/2/3
f 303/2/3 301/2/3 302/2/3
f 307/4/3 305/4/3 304/4/3
f 308/4/3 305/4/3 307/4/3
f 310/1/3 307/1/3 306/1/3
f 311/1/3 307/1/3 310/1/3
f 312/1/3 309/1/3 308/1/3
f 313/1/3 309/1/3 312/1/3
f 318/1/3 315/1/3 314/1/3
f 319/1/3 315/1/3 318/1/3
f 320/1/3 317/1/3 316/1/3
f 321/1/3 317/1/3 320/1/3
f 325/4/3 323/4/3 322/4/3
f 326/4/3 323/4/3 325/4/3
f 328/4/3 325/4/3 324/4/3
f 329/4/3 325/4/3 328/4/3
f 330/4/3 327/4/3 326/4/3
f 331/4/3 327/4/3 330/4/3
f 333/4/3 330/4/3 329/4/3
f 334/4/3 330/4/3 333/4/3
f 335/2/3 333/2/3 332/2/3
f 336/2/3 333/2/3 335/2/3
f 339/1/3 338/1/3 337/1/3
f 340/1/3 338/1/3 339/1/3
f 344/3/3 342/3/3 341/3/3
f 345/3/3 342/3/3 344/3/3
f 347/2/3 344/2/3 343/2/3
f 348/2/3 344/2/3 347/2/3
f 349/2/3 346/2/3 345/2/3
f 350/2/3 346/2/3 349/2/3
f 355/2/3 352/2/3 351/2/3
f 356/2/3 352/2/3 355/2/3
f 357/2/3 354/2/3 353/2/3
f 358/2/3 354/2/3 357/2/3
f 363/1/3 360/1/3 359/1/3
f 364/1/3 362/1/3 361/1/3
f 365/1/3 363/1/3 359/1/3
f 365/1/3 364/1/3 363/1/3
f 366/1/3 362/1/3 364/1/3
f 366/1/3 364/1/3 365/1/3
f 367/1/3 365/1/3 359/1/3
f 368/1/3 365/1/3 367/1/3
f 369/1/3 362/1/3 366/1/3
f 370/1/3 362/1/3 369/1/3
f 373/1/3 372/1/3 371/1/3
f 374/1/3 372/1/3 373/1/3
f 377/1/3 376/1/3 375/1/3
f 378/1/3 376/1/3 377/1/3
f 383/3/3 380/3/3 379/3/3
f 384/3/3 380/3/3 383/3/3
f 385/3/3 382/3/3 381/3/3
f 386/3/3 382/3/3 385/3/3
f 389/1/3 388/1/3 387/1/3
f 390/1/3 388/1/3 389/1/3
f 391/1/4 392/1/4 395/1/4
f 393/1/4 394/1/4 396/1/4
f 391/1/4 395/1/4 397/1/4
f 395/1/4 396/1/4 397/1/4
f 396/1/4 394/1/4 398/1/4
f 397/1/4 396/1/4 398/1/4
f 391/1/4 397/1/4 399/1/4
f 399/1/4 397/1/4 400/1/4
f 398/1/4 394/1/4 401/1/4
f 401/1/4 394/1/4 402/1/4
f 403/1/4 404/1/4 407/1/4
f 407/1/4 404/1/4 408/1/4
f 405/1/4 406/1/4 409/1/4
f 409/1/4 406/1/4 410/1/4
f 408/1/4 409/1/4 411/1/4
f 411/1/4 409/1/4 412/1/4
f 413/1/4 414/1/4 417/1/4
f 417/1/4 414/1/4 418/1/4
f 415/1/4 416/1/4 419/1/4
f 419/1/4 416/1/4 420/1/4
f 421/3/4 422/3/4 425/3/4
f 425/3/4 422/3/4 426/3/4
f 423/3/4 424/3/4 427/3/4
f 427/3/4 424/3/4 428/3/4
f 429/1/4 430/1/4 433/1/4
f 431/1/4 432/1/4 434/1/4
f 429/1/4 433/1/4 435/1/4
f 433/1/4 434/1/4 435/1/4
f 435/1/4 434/1/4 436/1/4
f 434/1/4 432/1/4 437/1/4
f 436/1/4 434/1/4 437/1/4
f 437/1/4 432/1/4 438/1/4
f 436/1/4 437/1/4 439/1/4
f 439/1/4 437/1/4 440/1/4
f 441/3/4 442/3/4 444/3/4
f 444/3/4 442/3/4 445/3/4
f 443/1/4 444/1/4 447/1/4
f 445/1/4 446/1/4 447/1/4
f 444/1/4 445/1/4 447/1/4
f 447/1/4 446/1/4 448/1/4
f 449/1/4 450/1/4 453/1/4
f 451/1/4 452/1/4 454/1/4
f 449/1/4 453/1/4 455/1/4
f 453/1/4 454/1/4 455/1/4
f 455/1/4 454/1/4 456/1/4
f 454/1/4 452/1/4 457/1/4
f 456/1/4 454/1/4 457/1/4
f 457/1/4 452/1/4 458/1/4
f 456/1/4 457/1/4 459/1/4
f 459/1/4 457/1/4 460/1/4
f 461/1/4 462/1/4 463/1/4
f 463/1/4 462/1/4 464/1/4
f 465/1/4 466/1/4 467/1/4
f 467/1/4 466/1/4 468/1/4
f 468/1/4 466/1/4 469/1/4
f 469/1/4 466/1/4 470/1/4
f 468/1/4 469/1/4 471/1/4
f 471/1/4 469/1/4 472/1/4
f 473/4/4 474/4/4 475/4/4
f 475/4/4 474/4/4 476/4/4
f 477/4/4 478/4/4 479/4/4
f 479/4/4 478/4/4 480/4/4
f 481/4/4 482/4/4 483/4/4
f 483/4/4 482/4/4 484/4/4
f 489/2/5 486/2/5 485/2/5
f 490/1/5 487/1/5 486/1/5
f 491/1/5 487/1/5 490/1/5
f 495/2/5 489/2/5 488/2/5
f 495/2/5 486/2/5 489/2/5
f 496/1/5 490/1/5 486/1/5
f 496/2/5 486/2/5 495/2/5
f 498/1/5 494/1/5 493/1/5
f 499/1/5 490/1/5 496/1/5
f 499/1/5 496/1/5 495/1/5
f 500/1/5 490/1/5 499/1/5
f 502/1/5 492/1/5 491/1/5
f 503/1/5 492/1/5 502/1/5
f 508/2/5 495/2/5 488/2/5
f 510/1/5 498/1/5 497/1/5
f 512/4/5 506/4/5 505/4/5
f 513/4/5 506/4/5 512/4/5
f 514/2/5 508/2/5 507/2/5
f 515/2/5 495/2/5 508/2/5
f 515/2/5 508/2/5 514/2/5
f 516/1/5 499/1/5 495/1/5
f 516/2/5 495/2/5 515/2/5
f 517/1/5 499/1/5 516/1/5
f 518/1/5 504/1/5 503/1/5
f 518/1/5 502/1/5 501/1/5
f 518/1/5 503/1/5 502/1/5
f 519/1/5 504/1/5 518/1/5
f 522/1/5 510/1/5 509/1/5
f 524/2/5 513/2/5 512/2/5
f 524/2/5 515/2/5 514/2/5
f 524/2/5 514/2/5 513/2/5
f 524/2/5 512/2/5 511/2/5
f 525/2/5 515/2/5 524/2/5
f 526/1/5 517/1/5 516/1/5
f 526/2/5 515/2/5 525/2/5
f 526/1/5 520/1/5 519/1/5
f 526/1/5 516/1/5 515/1/5
f 526/1/5 519/1/5 518/1/5
f 526/1/5 518/1/5 517/1/5
f 527/1/5 520/1/5 526/1/5
f 528/1/5 522/1/5 521/1/5
f 529/1/5 494/1/5 498/1/5
f 529/1/5 510/1/5 522/1/5
f 529/1/5 522/1/5 528/1/5
f 529/1/5 498/1/5 510/1/5
f 530/1/5 494/1/5 529/1/5
f 531/3/5 524/3/5 523/3/5
f 532/2/5 525/2/5 524/2/5
f 532/3/5 524/3/5 531/3/5
f 533/1/5 527/1/5 526/1/5
f 533/2/5 525/2/5 532/2/5
f 533/1/5 528/1/5 527/1/5
f 533/1/5 529/1/5 528/1/5
f 533/1/5 526/1/5 525/1/5
f 534/1/5 529/1/5 533/1/5
f 535/1/5 529/1/5 534/1/5
f 536/1/5 533/1/5 532/1/5
f 536/1/5 534/1/5 533/1/5
f 537/1/5 534/1/5 536/1/5
f 538/1/5 534/1/5 537/1/5
f 539/1/5 534/1/5 538/1/5
f 540/1/5 538/1/5 537/1/5
f 541/1/5 538/1/5 540/1/5
f 542/1/5 538/1/5 541/1/5
f 543/1/5 538/1/5 542/1/5
f 544/4/5 542/4/5 541/4/5
f 545/4/5 542/4/5 544/4/5
f 546/4/5 542/4/5 545/4/5
f 547/4/5 542/4/5 546/4/5
f 548/4/5 546/4/5 545/4/5
f 549/4/5 546/4/5 548/4/5
f 556/2/5 553/2/5 552/2/5
f 557/2/5 553/2/5 556/2/5
f 561/1/5 555/1/5 554/1/5
f 562/1/5 555/1/5 561/1/5
f 568/1/5 559/1/5 558/1/5
f 569/1/5 559/1/5 568/1/5
f 571/1/5 561/1/5 560/1/5
f 572/1/5 561/1/5 571/1/5
f 573/1/5 566/1/5 565/1/5
f 574/1/5 566/1/5 573/1/5
f 576/4/5 551/4/5 550/4/5
f 577/4/5 551/4/5 576/4/5
f 578/2/5 564/2/5 563/2/5
f 579/2/5 564/2/5 578/2/5
f 581/4/5 576/4/5 575/4/5
f 582/4/5 576/4/5 581/4/5
f 583/4/5 578/4/5 577/4/5
f 584/4/5 578/4/5 583/4/5
f 585/1/5 568/1/5 567/1/5
f 586/1/5 568/1/5 585/1/5
f 587/4/5 571/4/5 570/4/5
f 588/4/5 571/4/5 587/4/5
f 589/3/5 581/3/5 580/3/5
f 590/3/5 581/3/5 589/3/5
f 597/1/5 592/1/5 591/1/5
f 598/1/5 592/1/5 597/1/5
f 599/3/5 594/3/5 593/3/5
f 600/3/5 594/3/5 599/3/5
f 603/1/5 596/1/5 595/1/5
f 604/1/5 596/1/5 603/1/5
f 605/1/5 602/1/5 601/1/5
f 606/1/5 602/1/5 605/1/5
f 609/2/5 608/2/5 607/2/5
f 610/2/5 609/2/5 607/2/5
f 611/2/5 609/2/5 610/2/5
f 612/2/6 613/2/6 614/2/6
f 612/2/6 614/2/6 615/2/6
f 615/2/6 614/2/6 616/2/6
f 619/2/6 620/2/6 623/2/6
f 623/2/6 620/2/6 624/2/6
f 621/1/6 622/1/6 628/1/6
f 628/1/6 622/1/6 629/1/6
f 630/2/6 631/2/6 634/2/6
f 634/2/6 631/2/6 635/2/6
f 625/1/6 626/1/6 637/1/6
f 637/1/6 626/1/6 638/1/6
f 627/1/6 628/1/6 640/1/6
f 640/1/6 628/1/6 641/1/6
f 632/1/6 633/1/6 642/1/6
f 642/1/6 633/1/6 643/1/6
f 617/4/6 618/4/6 645/4/6
f 645/4/6 618/4/6 646/4/6
f 644/4/6 645/4/6 649/4/6
f 649/4/6 645/4/6 650/4/6
f 646/4/6 647/4/6 651/4/6
f 651/4/6 647/4/6 652/4/6
f 636/1/6 637/1/6 653/1/6
f 653/1/6 637/1/6 654/1/6
f 639/4/6 640/4/6 655/4/6
f 655/4/6 640/4/6 656/4/6
f 648/3/6 649/3/6 657/3/6
f 657/3/6 649/3/6 658/3/6
f 659/1/6 660/1/6 665/1/6
f 665/1/6 660/1/6 666/1/6
f 661/3/6 662/3/6 667/3/6
f 667/3/6 662/3/6 668/3/6
f 663/1/6 664/1/6 671/1/6
f 671/1/6 664/1/6 672/1/6
f 669/1/6 670/1/6 673/1/6
f 673/1/6 670/1/6 674/1/6
f 675/2/6 676/2/6 679/2/6
f 676/1/6 677/1/6 680/1/6
f 680/1/6 677/1/6 681/1/6
f 678/2/6 679/2/6 685/2/6
f 679/2/6 676/2/6 685/2/6
f 676/1/6 680/1/6 686/1/6
f 685/2/6 676/2/6 686/2/6
f 683/1/6 684/1/6 688/1/6
f 678/2/6 685/2/6 690/2/6
f 686/1/6 680/1/6 691/1/6
f 685/1/6 686/1/6 691/1/6
f 691/1/6 680/1/6 692/1/6
f 681/1/6 682/1/6 694/1/6
f 694/1/6 682/1/6 695/1/6
f 687/1/6 688/1/6 700/1/6
f 697/4/6 698/4/6 702/4/6
f 702/4/6 698/4/6 703/4/6
f 689/2/6 690/2/6 704/2/6
f 690/2/6 685/2/6 705/2/6
f 704/2/6 690/2/6 705/2/6
f 685/1/6 691/1/6 706/1/6
f 705/2/6 685/2/6 706/2/6
f 706/1/6 691/1/6 707/1/6
f 695/1/6 696/1/6 708/1/6
f 693/1/6 694/1/6 708/1/6
f 694/1/6 695/1/6 708/1/6
f 708/1/6 696/1/6 709/1/6
f 699/1/6 700/1/6 712/1/6
f 702/2/6 703/2/6 714/2/6
f 703/2/6 704/2/6 714/2/6
f 704/2/6 705/2/6 714/2/6
f 701/2/6 702/2/6 714/2/6
f 714/2/6 705/2/6 715/2/6
f 706/1/6 707/1/6 716/1/6
f 715/2/6 705/2/6 716/2/6
f 709/1/6 710/1/6 716/1/6
f 705/1/6 706/1/6 716/1/6
f 708/1/6 709/1/6 716/1/6
f 707/1/6 708/1/6 716/1/6
f 716/1/6 710/1/6 717/1/6
f 711/1/6 712/1/6 718/1/6
f 712/1/6 700/1/6 719/1/6
f 688/1/6 684/1/6 719/1/6
f 718/1/6 712/1/6 719/1/6
f 700/1/6 688/1/6 719/1/6
f 719/1/6 684/1/6 720/1/6
f 713/3/6 714/3/6 721/3/6
f 714/2/6 715/2/6 722/2/6
f 721/3/6 714/3/6 722/3/6
f 716/1/6 717/1/6 723/1/6
f 722/2/6 715/2/6 723/2/6
f 717/1/6 718/1/6 723/1/6
f 718/1/6 719/1/6 723/1/6
f 715/1/6 716/1/6 723/1/6
f 723/1/6 719/1/6 724/1/6
f 724/1/6 719/1/6 725/1/6
f 722/1/6 723/1/6 726/1/6
f 723/1/6 724/1/6 726/1/6
f 726/1/6 724/1/6 727/1/6
f 727/1/6 724/1/6 728/1/6
f 728/1/6 724/1/6 729/1/6
f 727/1/6 728/1/6 730/1/6
f 730/1/6 728/1/6 731/1/6
f 731/1/6 728/1/6 732/1/6
f 732/1/6 728/1/6 733/1/6
f 731/4/6 732/4/6 734/4/6
f 734/4/6 732/4/6 735/4/6
f 735/4/6 732/4/6 736/4/6
f 736/4/6 732/4/6 737/4/6
f 735/4/6 736/4/6 738/4/6
f 738/4/6 736/4/6 739/4/6
