# MagicaVoxel @ Ephtracy

# group
o 

# material
mtllib m4a1.vox.mtl
usemtl palette

# normals
vn -1 0 0
vn 1 0 0
vn 0 0 1
vn 0 0 -1
vn 0 -1 0
vn 0 1 0

# texcoords
vt 0.982422 0.5
vt 0.986328 0.5
vt 0.990234 0.5

# verts
v -4 0.2 -0.2
v -4 0.2 -0.5
v -4 0.3 -0.1
v -4 0.3 -0.2
v -4 0.3 -0.5
v -4 0.3 -0.6
v -4 0.6 -0.1
v -4 0.6 -0.2
v -4 0.6 -0.5
v -4 0.6 -0.6
v -4 0.7 -0.2
v -4 0.7 -0.5
v -2.2 0.3 -0.2
v -2.2 0.3 -0.3
v -2.2 0.3 -0.4
v -2.2 0.3 -0.6
v -2.2 0.4 -0.2
v -2.2 0.4 -0.3
v -2.2 0.4 -0.4
v -2.2 0.4 -0.5
v -2.2 0.4 -0.6
v -2.2 0.4 -1
v -2.2 0.5 -0.2
v -2.2 0.5 -0.3
v -2.2 0.5 -0.4
v -2.2 0.5 -0.5
v -2.2 0.5 -0.6
v -2.2 0.5 -1
v -2.2 0.6 -0.2
v -2.2 0.6 -0.3
v -2.2 0.6 -0.4
v -2.2 0.6 -0.6
v -2 0.4 -0.7
v -2 0.4 -0.8
v -2 0.5 -0.7
v -2 0.5 -0.8
v -1.9 0.4 -0.6
v -1.9 0.4 -0.7
v -1.9 0.5 -0.6
v -1.9 0.5 -0.7
v -1.8 0.4 -0.5
v -1.8 0.4 -0.6
v -1.8 0.5 -0.5
v -1.8 0.5 -0.6
v -1.7 0.3 -0.3
v -1.7 0.3 -0.4
v -1.7 0.4 -0.4
v -1.7 0.4 -0.5
v -1.7 0.5 -0.4
v -1.7 0.5 -0.5
v -1.7 0.6 -0.3
v -1.7 0.6 -0.4
v -1.5 0.2 -0.3
v -1.5 0.2 -0.4
v -1.5 0.3 -0.3
v -1.5 0.3 -0.4
v -1.5 0.3 -0.5
v -1.5 0.4 -0.1
v -1.5 0.4 -0.2
v -1.5 0.4 -0.4
v -1.5 0.4 -0.5
v -1.5 0.4 -0.6
v -1.5 0.5 -0.1
v -1.5 0.5 -0.2
v -1.5 0.5 -0.4
v -1.5 0.5 -0.5
v -1.5 0.5 -0.6
v -1.5 0.6 -0.3
v -1.5 0.6 -0.4
v -1.5 0.6 -0.5
v -1.5 0.7 -0.3
v -1.5 0.7 -0.4
v -1.4 0.2 -0.2
v -1.4 0.2 -0.3
v -1.4 0.2 -0.4
v -1.4 0.2 -0.5
v -1.4 0.3 -0.1
v -1.4 0.3 -0.2
v -1.4 0.3 -0.3
v -1.4 0.3 -0.4
v -1.4 0.3 -0.5
v -1.4 0.3 -0.6
v -1.4 0.4 -0.1
v -1.4 0.4 -0.2
v -1.4 0.4 -0.5
v -1.4 0.4 -0.6
v -1.4 0.5 -0.1
v -1.4 0.5 -0.2
v -1.4 0.5 -0.5
v -1.4 0.5 -0.6
v -1.4 0.6 -0.1
v -1.4 0.6 -0.2
v -1.4 0.6 -0.3
v -1.4 0.6 -0.4
v -1.4 0.6 -0.5
v -1.4 0.6 -0.6
v -1.4 0.7 -0.2
v -1.4 0.7 -0.3
v -1.4 0.7 -0.4
v -1.4 0.7 -0.5
v 0 0.3 -5.96046e-08
v 0 0.3 -0.2
v 0 0.4 -0.1
v 0 0.4 -0.2
v 0 0.4 -0.5
v 0 0.4 -0.8
v 0 0.5 -0.1
v 0 0.5 -0.2
v 0 0.5 -0.5
v 0 0.5 -0.8
v 0 0.6 -5.96046e-08
v 0 0.6 -0.2
v 0.2 0.4 -0.8
v 0.2 0.4 -0.9
v 0.2 0.5 -0.8
v 0.2 0.5 -0.9
v 0.4 0.4 -5.96046e-08
v 0.4 0.4 -0.1
v 0.4 0.4 -0.9
v 0.4 0.4 -1
v 0.4 0.5 -5.96046e-08
v 0.4 0.5 -0.1
v 0.4 0.5 -0.9
v 0.4 0.5 -1
v 0.6 0.4 0.1
v 0.6 0.4 -5.96046e-08
v 0.6 0.5 0.1
v 0.6 0.5 -5.96046e-08
v 0.8 0.4 -0.1
v 0.8 0.4 -0.2
v 0.8 0.5 -0.1
v 0.8 0.5 -0.2
v 0.9 0.4 -5.96046e-08
v 0.9 0.4 -0.1
v 0.9 0.5 -5.96046e-08
v 0.9 0.5 -0.1
v 1 0.3 -5.96046e-08
v 1 0.3 -0.2
v 1 0.4 0.3
v 1 0.4 0.1
v 1 0.4 -5.96046e-08
v 1 0.4 -0.2
v 1 0.5 0.3
v 1 0.5 0.1
v 1 0.5 -5.96046e-08
v 1 0.5 -0.2
v 1 0.6 -5.96046e-08
v 1 0.6 -0.2
v 1.1 0.3 0.3
v 1.1 0.3 -5.96046e-08
v 1.1 0.4 0.5
v 1.1 0.4 0.3
v 1.1 0.4 -5.96046e-08
v 1.1 0.4 -0.6
v 1.1 0.4 -0.9
v 1.1 0.5 0.5
v 1.1 0.5 0.3
v 1.1 0.5 -5.96046e-08
v 1.1 0.5 -0.6
v 1.1 0.5 -0.9
v 1.1 0.6 0.3
v 1.1 0.6 -5.96046e-08
v 1.2 0.3 0.5
v 1.2 0.3 0.3
v 1.2 0.3 -0.5
v 1.2 0.3 -0.7
v 1.2 0.4 0.5
v 1.2 0.4 0.3
v 1.2 0.4 -0.5
v 1.2 0.4 -0.7
v 1.2 0.5 0.5
v 1.2 0.5 0.3
v 1.2 0.5 -0.5
v 1.2 0.5 -0.7
v 1.2 0.6 0.5
v 1.2 0.6 0.3
v 1.2 0.6 -0.5
v 1.2 0.6 -0.7
v 1.4 0.2 -0.5
v 1.4 0.2 -0.6
v 1.4 0.3 -0.5
v 1.4 0.3 -0.6
v 1.4 0.6 -0.5
v 1.4 0.6 -0.6
v 1.4 0.7 -0.5
v 1.4 0.7 -0.6
v 1.6 0.4 -0.5
v 1.6 0.4 -0.6
v 1.6 0.5 -0.5
v 1.6 0.5 -0.6
v 1.7 0.4 -0.2
v 1.7 0.4 -0.3
v 1.7 0.5 -0.2
v 1.7 0.5 -0.3
v 1.9 0.4 -0.1
v 1.9 0.4 -0.2
v 1.9 0.5 -0.1
v 1.9 0.5 -0.2
v 2 0.3 -0.2
v 2 0.3 -0.3
v 2 0.4 -0.2
v 2 0.4 -0.3
v 2 0.5 -0.2
v 2 0.5 -0.3
v 2 0.6 -0.2
v 2 0.6 -0.3
v 2.1 0.4 -5.96046e-08
v 2.1 0.4 -0.1
v 2.1 0.5 -5.96046e-08
v 2.1 0.5 -0.1
v 2.5 0.3 -0.1
v 2.5 0.3 -0.2
v 2.5 0.4 0.1
v 2.5 0.4 -5.96046e-08
v 2.5 0.4 -0.1
v 2.5 0.4 -0.2
v 2.5 0.5 0.1
v 2.5 0.5 -5.96046e-08
v 2.5 0.5 -0.1
v 2.5 0.5 -0.2
v 2.5 0.6 -0.1
v 2.5 0.6 -0.2
v -2.8 0.2 -0.2
v -2.8 0.2 -0.3
v -2.8 0.2 -0.4
v -2.8 0.2 -0.5
v -2.8 0.3 -0.1
v -2.8 0.3 -0.2
v -2.8 0.3 -0.3
v -2.8 0.3 -0.4
v -2.8 0.3 -0.5
v -2.8 0.3 -0.6
v -2.8 0.4 -0.1
v -2.8 0.4 -0.2
v -2.8 0.4 -0.5
v -2.8 0.4 -0.6
v -2.8 0.5 -0.1
v -2.8 0.5 -0.2
v -2.8 0.5 -0.5
v -2.8 0.5 -0.6
v -2.8 0.6 -0.1
v -2.8 0.6 -0.2
v -2.8 0.6 -0.3
v -2.8 0.6 -0.4
v -2.8 0.6 -0.5
v -2.8 0.6 -0.6
v -2.8 0.7 -0.2
v -2.8 0.7 -0.3
v -2.8 0.7 -0.4
v -2.8 0.7 -0.5
v -2.7 0.2 -0.3
v -2.7 0.2 -0.4
v -2.7 0.3 -0.2
v -2.7 0.3 -0.3
v -2.7 0.3 -0.4
v -2.7 0.3 -0.5
v -2.7 0.4 -0.1
v -2.7 0.4 -0.2
v -2.7 0.4 -0.3
v -2.7 0.4 -0.4
v -2.7 0.4 -0.5
v -2.7 0.4 -0.6
v -2.7 0.5 -0.1
v -2.7 0.5 -0.2
v -2.7 0.5 -0.3
v -2.7 0.5 -0.4
v -2.7 0.5 -0.5
v -2.7 0.5 -0.6
v -2.7 0.6 -0.2
v -2.7 0.6 -0.3
v -2.7 0.6 -0.4
v -2.7 0.6 -0.5
v -2.7 0.7 -0.3
v -2.7 0.7 -0.4
v -2.1 0.3 -0.5
v -2.1 0.3 -0.6
v -2.1 0.4 -0.6
v -2.1 0.4 -0.8
v -2.1 0.5 -0.6
v -2.1 0.5 -0.8
v -2.1 0.6 -0.5
v -2.1 0.6 -0.6
v -2 0.3 -0.4
v -2 0.3 -0.5
v -2 0.4 -0.9
v -2 0.4 -1
v -2 0.5 -0.9
v -2 0.5 -1
v -2 0.6 -0.4
v -2 0.6 -0.5
v -1.9 0.3 -0.3
v -1.9 0.3 -0.4
v -1.9 0.4 -0.8
v -1.9 0.4 -0.9
v -1.9 0.5 -0.8
v -1.9 0.5 -0.9
v -1.9 0.6 -0.3
v -1.9 0.6 -0.4
v -1.8 0.4 -0.7
v -1.8 0.4 -0.8
v -1.8 0.5 -0.7
v -1.8 0.5 -0.8
v -1.7 0.4 -0.6
v -1.7 0.4 -0.7
v -1.7 0.5 -0.6
v -1.7 0.5 -0.7
v -1.6 0.4 -0.5
v -1.6 0.4 -0.6
v -1.6 0.5 -0.5
v -1.6 0.5 -0.6
v -0.0999999 0.2 -0.2
v -0.0999999 0.2 -0.5
v -0.0999999 0.3 -0.1
v -0.0999999 0.3 -0.2
v -0.0999999 0.3 -0.5
v -0.0999999 0.3 -0.6
v -0.0999999 0.4 -0.1
v -0.0999999 0.4 -0.2
v -0.0999999 0.5 -0.1
v -0.0999999 0.5 -0.2
v -0.0999999 0.6 -0.1
v -0.0999999 0.6 -0.2
v -0.0999999 0.6 -0.5
v -0.0999999 0.6 -0.6
v -0.0999999 0.7 -0.2
v -0.0999999 0.7 -0.5
v 0.1 0.4 -5.96046e-08
v 0.1 0.4 -0.1
v 0.1 0.4 -0.6
v 0.1 0.4 -0.7
v 0.1 0.5 -5.96046e-08
v 0.1 0.5 -0.1
v 0.1 0.5 -0.6
v 0.1 0.5 -0.7
v 0.3 0.4 -0.7
v 0.3 0.4 -0.8
v 0.3 0.5 -0.7
v 0.3 0.5 -0.8
v 0.6 0.3 -5.96046e-08
v 0.6 0.3 -0.2
v 0.6 0.4 -5.96046e-08
v 0.6 0.4 -0.2
v 0.6 0.4 -0.8
v 0.6 0.4 -0.9
v 0.6 0.5 -5.96046e-08
v 0.6 0.5 -0.2
v 0.6 0.5 -0.8
v 0.6 0.5 -0.9
v 0.6 0.6 -5.96046e-08
v 0.6 0.6 -0.2
v 0.7 0.4 -5.96046e-08
v 0.7 0.4 -0.2
v 0.7 0.5 -5.96046e-08
v 0.7 0.5 -0.2
v 1.3 0.3 -0.6
v 1.3 0.3 -0.7
v 1.3 0.4 -0.7
v 1.3 0.4 -1
v 1.3 0.5 -0.7
v 1.3 0.5 -1
v 1.3 0.6 -0.6
v 1.3 0.6 -0.7
v 1.4 0.3 0.5
v 1.4 0.3 -0.1
v 1.4 0.3 -0.2
v 1.4 0.6 0.5
v 1.4 0.6 -0.1
v 1.4 0.6 -0.2
v 1.5 0.2 -0.5
v 1.5 0.2 -0.6
v 1.5 0.3 -0.2
v 1.5 0.3 -0.3
v 1.5 0.3 -0.5
v 1.5 0.6 -0.2
v 1.5 0.6 -0.3
v 1.5 0.6 -0.5
v 1.5 0.7 -0.5
v 1.5 0.7 -0.6
v 2.8 0.3 -0.1
v 2.8 0.3 -0.5
v 2.8 0.4 0.1
v 2.8 0.4 -0.1
v 2.8 0.4 -0.5
v 2.8 0.4 -0.6
v 2.8 0.5 0.1
v 2.8 0.5 -0.1
v 2.8 0.5 -0.5
v 2.8 0.5 -0.6
v 2.8 0.6 -0.1
v 2.8 0.6 -0.5
v 1.1 0.4 0.5
v 1.1 0.5 0.5
v 1.2 0.3 0.5
v 1.2 0.4 0.5
v 1.2 0.5 0.5
v 1.2 0.6 0.5
v 1.4 0.3 0.5
v 1.4 0.6 0.5
v 1 0.4 0.3
v 1 0.5 0.3
v 1.1 0.3 0.3
v 1.1 0.4 0.3
v 1.1 0.5 0.3
v 1.1 0.6 0.3
v 1.2 0.3 0.3
v 1.2 0.4 0.3
v 1.2 0.5 0.3
v 1.2 0.6 0.3
v 0.6 0.4 0.1
v 0.6 0.5 0.1
v 1 0.4 0.1
v 1 0.5 0.1
v 2.5 0.4 0.1
v 2.5 0.5 0.1
v 2.8 0.4 0.1
v 2.8 0.5 0.1
v 0 0.3 -5.96046e-08
v 0 0.6 -5.96046e-08
v 0.1 0.4 -5.96046e-08
v 0.1 0.5 -5.96046e-08
v 0.4 0.4 -5.96046e-08
v 0.4 0.5 -5.96046e-08
v 0.6 0.3 -5.96046e-08
v 0.6 0.4 -5.96046e-08
v 0.6 0.5 -5.96046e-08
v 0.6 0.6 -5.96046e-08
v 1 0.3 -5.96046e-08
v 1 0.4 -5.96046e-08
v 1 0.5 -5.96046e-08
v 1 0.6 -5.96046e-08
v 1.1 0.3 -5.96046e-08
v 1.1 0.4 -5.96046e-08
v 1.1 0.5 -5.96046e-08
v 1.1 0.6 -5.96046e-08
v 2.1 0.4 -5.96046e-08
v 2.1 0.5 -5.96046e-08
v 2.5 0.4 -5.96046e-08
v 2.5 0.5 -5.96046e-08
v -4 0.3 -0.1
v -4 0.6 -0.1
v -2.8 0.3 -0.1
v -2.8 0.4 -0.1
v -2.8 0.5 -0.1
v -2.8 0.6 -0.1
v -2.7 0.4 -0.1
v -2.7 0.5 -0.1
v -1.5 0.4 -0.1
v -1.5 0.5 -0.1
v -1.4 0.3 -0.1
v -1.4 0.4 -0.1
v -1.4 0.5 -0.1
v -1.4 0.6 -0.1
v -1.2 0.3 -0.1
v -1.2 0.6 -0.1
v -1.1 0.3 -0.1
v -1.1 0.6 -0.1
v -0.9 0.3 -0.1
v -0.9 0.6 -0.1
v -0.8 0.3 -0.1
v -0.8 0.6 -0.1
v -0.6 0.3 -0.1
v -0.6 0.6 -0.1
v -0.5 0.3 -0.1
v -0.5 0.6 -0.1
v -0.3 0.3 -0.1
v -0.3 0.6 -0.1
v -0.2 0.3 -0.1
v -0.2 0.6 -0.1
v -0.0999999 0.3 -0.1
v -0.0999999 0.4 -0.1
v -0.0999999 0.5 -0.1
v -0.0999999 0.6 -0.1
v 0 0.4 -0.1
v 0 0.5 -0.1
v 0.1 0.4 -0.1
v 0.1 0.5 -0.1
v 0.4 0.4 -0.1
v 0.4 0.5 -0.1
v 0.8 0.4 -0.1
v 0.8 0.5 -0.1
v 0.9 0.4 -0.1
v 0.9 0.5 -0.1
v 1.9 0.4 -0.1
v 1.9 0.5 -0.1
v 2.1 0.4 -0.1
v 2.1 0.5 -0.1
v 2.5 0.3 -0.1
v 2.5 0.4 -0.1
v 2.5 0.5 -0.1
v 2.5 0.6 -0.1
v 2.8 0.3 -0.1
v 2.8 0.4 -0.1
v 2.8 0.5 -0.1
v 2.8 0.6 -0.1
v -4 0.2 -0.2
v -4 0.3 -0.2
v -4 0.6 -0.2
v -4 0.7 -0.2
v -2.8 0.2 -0.2
v -2.8 0.3 -0.2
v -2.8 0.4 -0.2
v -2.8 0.5 -0.2
v -2.8 0.6 -0.2
v -2.8 0.7 -0.2
v -2.7 0.3 -0.2
v -2.7 0.4 -0.2
v -2.7 0.5 -0.2
v -2.7 0.6 -0.2
v -2.2 0.3 -0.2
v -2.2 0.4 -0.2
v -2.2 0.5 -0.2
v -2.2 0.6 -0.2
v -2.1 0.4 -0.2
v -2.1 0.5 -0.2
v -1.5 0.3 -0.2
v -1.5 0.4 -0.2
v -1.5 0.5 -0.2
v -1.5 0.6 -0.2
v -1.4 0.2 -0.2
v -1.4 0.3 -0.2
v -1.4 0.4 -0.2
v -1.4 0.5 -0.2
v -1.4 0.6 -0.2
v -1.4 0.7 -0.2
v -1.2 0.2 -0.2
v -1.2 0.3 -0.2
v -1.2 0.6 -0.2
v -1.2 0.7 -0.2
v -1.1 0.2 -0.2
v -1.1 0.3 -0.2
v -1.1 0.6 -0.2
v -1.1 0.7 -0.2
v -0.9 0.2 -0.2
v -0.9 0.3 -0.2
v -0.9 0.6 -0.2
v -0.9 0.7 -0.2
v -0.8 0.2 -0.2
v -0.8 0.3 -0.2
v -0.8 0.6 -0.2
v -0.8 0.7 -0.2
v -0.6 0.2 -0.2
v -0.6 0.3 -0.2
v -0.6 0.6 -0.2
v -0.6 0.7 -0.2
v -0.5 0.2 -0.2
v -0.5 0.3 -0.2
v -0.5 0.6 -0.2
v -0.5 0.7 -0.2
v -0.3 0.2 -0.2
v -0.3 0.3 -0.2
v -0.3 0.6 -0.2
v -0.3 0.7 -0.2
v -0.2 0.2 -0.2
v -0.2 0.3 -0.2
v -0.2 0.6 -0.2
v -0.2 0.7 -0.2
v -0.0999999 0.2 -0.2
v -0.0999999 0.3 -0.2
v -0.0999999 0.4 -0.2
v -0.0999999 0.5 -0.2
v -0.0999999 0.6 -0.2
v -0.0999999 0.7 -0.2
v 0 0.3 -0.2
v 0 0.4 -0.2
v 0 0.5 -0.2
v 0 0.6 -0.2
v 0.6 0.3 -0.2
v 0.6 0.4 -0.2
v 0.6 0.5 -0.2
v 0.6 0.6 -0.2
v 0.7 0.4 -0.2
v 0.7 0.5 -0.2
v 0.8 0.4 -0.2
v 0.8 0.5 -0.2
v 1 0.3 -0.2
v 1 0.4 -0.2
v 1 0.5 -0.2
v 1 0.6 -0.2
v 1.4 0.3 -0.2
v 1.4 0.6 -0.2
v 1.5 0.3 -0.2
v 1.5 0.6 -0.2
v 1.7 0.4 -0.2
v 1.7 0.5 -0.2
v 1.9 0.4 -0.2
v 1.9 0.5 -0.2
v 2 0.3 -0.2
v 2 0.4 -0.2
v 2 0.5 -0.2
v 2 0.6 -0.2
v 2.5 0.3 -0.2
v 2.5 0.4 -0.2
v 2.5 0.5 -0.2
v 2.5 0.6 -0.2
v -2.8 0.2 -0.3
v -2.8 0.3 -0.3
v -2.8 0.6 -0.3
v -2.8 0.7 -0.3
v -2.7 0.2 -0.3
v -2.7 0.3 -0.3
v -2.7 0.4 -0.3
v -2.7 0.5 -0.3
v -2.7 0.6 -0.3
v -2.7 0.7 -0.3
v -2.2 0.3 -0.3
v -2.2 0.4 -0.3
v -2.2 0.5 -0.3
v -2.2 0.6 -0.3
v -1.5 0.2 -0.3
v -1.5 0.3 -0.3
v -1.5 0.6 -0.3
v -1.5 0.7 -0.3
v -1.4 0.2 -0.3
v -1.4 0.3 -0.3
v -1.4 0.6 -0.3
v -1.4 0.7 -0.3
v 1.5 0.3 -0.3
v 1.5 0.6 -0.3
v 1.7 0.4 -0.3
v 1.7 0.5 -0.3
v 2 0.3 -0.3
v 2 0.4 -0.3
v 2 0.5 -0.3
v 2 0.6 -0.3
v -1.8 0.4 -0.5
v -1.8 0.5 -0.5
v -1.7 0.4 -0.5
v -1.7 0.5 -0.5
v 1.4 0.2 -0.5
v 1.4 0.3 -0.5
v 1.4 0.6 -0.5
v 1.4 0.7 -0.5
v 1.5 0.2 -0.5
v 1.5 0.3 -0.5
v 1.5 0.6 -0.5
v 1.5 0.7 -0.5
v -1.9 0.4 -0.6
v -1.9 0.5 -0.6
v -1.8 0.4 -0.6
v -1.8 0.5 -0.6
v -2 0.4 -0.7
v -2 0.5 -0.7
v -1.9 0.4 -0.7
v -1.9 0.5 -0.7
v 0.1 0.4 -0.7
v 0.1 0.5 -0.7
v 0.3 0.4 -0.7
v 0.3 0.5 -0.7
v -2.1 0.4 -0.8
v -2.1 0.5 -0.8
v -2 0.4 -0.8
v -2 0.5 -0.8
v 0.3 0.4 -0.8
v 0.3 0.5 -0.8
v 0.6 0.4 -0.8
v 0.6 0.5 -0.8
v 0.6 0.4 -0.9
v 0.6 0.5 -0.9
v 1.1 0.4 -0.9
v 1.1 0.5 -0.9
v 0.7 0.4 -5.96046e-08
v 0.7 0.5 -5.96046e-08
v 0.9 0.4 -5.96046e-08
v 0.9 0.5 -5.96046e-08
v -1.9 0.3 -0.3
v -1.9 0.6 -0.3
v -1.7 0.3 -0.3
v -1.7 0.6 -0.3
v -2.8 0.2 -0.4
v -2.8 0.3 -0.4
v -2.8 0.6 -0.4
v -2.8 0.7 -0.4
v -2.7 0.2 -0.4
v -2.7 0.3 -0.4
v -2.7 0.4 -0.4
v -2.7 0.5 -0.4
v -2.7 0.6 -0.4
v -2.7 0.7 -0.4
v -2.2 0.3 -0.4
v -2.2 0.4 -0.4
v -2.2 0.5 -0.4
v -2.2 0.6 -0.4
v -2 0.3 -0.4
v -2 0.6 -0.4
v -1.9 0.3 -0.4
v -1.9 0.6 -0.4
v -1.7 0.3 -0.4
v -1.7 0.4 -0.4
v -1.7 0.5 -0.4
v -1.7 0.6 -0.4
v -1.5 0.2 -0.4
v -1.5 0.3 -0.4
v -1.5 0.4 -0.4
v -1.5 0.5 -0.4
v -1.5 0.6 -0.4
v -1.5 0.7 -0.4
v -1.4 0.2 -0.4
v -1.4 0.3 -0.4
v -1.4 0.6 -0.4
v -1.4 0.7 -0.4
v -4 0.2 -0.5
v -4 0.3 -0.5
v -4 0.6 -0.5
v -4 0.7 -0.5
v -2.8 0.2 -0.5
v -2.8 0.3 -0.5
v -2.8 0.4 -0.5
v -2.8 0.5 -0.5
v -2.8 0.6 -0.5
v -2.8 0.7 -0.5
v -2.7 0.3 -0.5
v -2.7 0.4 -0.5
v -2.7 0.5 -0.5
v -2.7 0.6 -0.5
v -2.2 0.4 -0.5
v -2.2 0.5 -0.5
v -2.1 0.3 -0.5
v -2.1 0.6 -0.5
v -2 0.3 -0.5
v -2 0.6 -0.5
v -1.6 0.4 -0.5
v -1.6 0.5 -0.5
v -1.5 0.3 -0.5
v -1.5 0.4 -0.5
v -1.5 0.5 -0.5
v -1.5 0.6 -0.5
v -1.4 0.2 -0.5
v -1.4 0.3 -0.5
v -1.4 0.4 -0.5
v -1.4 0.5 -0.5
v -1.4 0.6 -0.5
v -1.4 0.7 -0.5
v -1.2 0.2 -0.5
v -1.2 0.3 -0.5
v -1.2 0.6 -0.5
v -1.2 0.7 -0.5
v -1.1 0.2 -0.5
v -1.1 0.3 -0.5
v -1.1 0.6 -0.5
v -1.1 0.7 -0.5
v -0.9 0.2 -0.5
v -0.9 0.3 -0.5
v -0.9 0.6 -0.5
v -0.9 0.7 -0.5
v -0.8 0.2 -0.5
v -0.8 0.3 -0.5
v -0.8 0.6 -0.5
v -0.8 0.7 -0.5
v -0.6 0.2 -0.5
v -0.6 0.3 -0.5
v -0.6 0.6 -0.5
v -0.6 0.7 -0.5
v -0.5 0.2 -0.5
v -0.5 0.3 -0.5
v -0.5 0.6 -0.5
v -0.5 0.7 -0.5
v -0.3 0.2 -0.5
v -0.3 0.3 -0.5
v -0.3 0.6 -0.5
v -0.3 0.7 -0.5
v -0.2 0.2 -0.5
v -0.2 0.3 -0.5
v -0.2 0.6 -0.5
v -0.2 0.7 -0.5
v -0.0999999 0.2 -0.5
v -0.0999999 0.3 -0.5
v -0.0999999 0.6 -0.5
v -0.0999999 0.7 -0.5
v 0 0.3 -0.5
v 0 0.4 -0.5
v 0 0.5 -0.5
v 0 0.6 -0.5
v 1.2 0.3 -0.5
v 1.2 0.4 -0.5
v 1.2 0.5 -0.5
v 1.2 0.6 -0.5
v 1.5 0.3 -0.5
v 1.5 0.6 -0.5
v 1.6 0.4 -0.5
v 1.6 0.5 -0.5
v 2.8 0.3 -0.5
v 2.8 0.4 -0.5
v 2.8 0.5 -0.5
v 2.8 0.6 -0.5
v -4 0.3 -0.6
v -4 0.6 -0.6
v -2.8 0.3 -0.6
v -2.8 0.4 -0.6
v -2.8 0.5 -0.6
v -2.8 0.6 -0.6
v -2.7 0.4 -0.6
v -2.7 0.5 -0.6
v -2.2 0.3 -0.6
v -2.2 0.4 -0.6
v -2.2 0.5 -0.6
v -2.2 0.6 -0.6
v -2.1 0.3 -0.6
v -2.1 0.4 -0.6
v -2.1 0.5 -0.6
v -2.1 0.6 -0.6
v -1.7 0.4 -0.6
v -1.7 0.5 -0.6
v -1.6 0.4 -0.6
v -1.6 0.5 -0.6
v -1.5 0.4 -0.6
v -1.5 0.5 -0.6
v -1.4 0.3 -0.6
v -1.4 0.4 -0.6
v -1.4 0.5 -0.6
v -1.4 0.6 -0.6
v -1.2 0.3 -0.6
v -1.2 0.6 -0.6
v -1.1 0.3 -0.6
v -1.1 0.6 -0.6
v -0.9 0.3 -0.6
v -0.9 0.6 -0.6
v -0.8 0.3 -0.6
v -0.8 0.6 -0.6
v -0.6 0.3 -0.6
v -0.6 0.6 -0.6
v -0.5 0.3 -0.6
v -0.5 0.6 -0.6
v -0.3 0.3 -0.6
v -0.3 0.6 -0.6
v -0.2 0.3 -0.6
v -0.2 0.6 -0.6
v -0.0999999 0.3 -0.6
v -0.0999999 0.6 -0.6
v 0.1 0.4 -0.6
v 0.1 0.5 -0.6
v 1.1 0.4 -0.6
v 1.1 0.5 -0.6
v 1.3 0.3 -0.6
v 1.3 0.6 -0.6
v 1.4 0.2 -0.6
v 1.4 0.3 -0.6
v 1.4 0.6 -0.6
v 1.4 0.7 -0.6
v 1.5 0.2 -0.6
v 1.5 0.7 -0.6
v 1.6 0.4 -0.6
v 1.6 0.5 -0.6
v 2.8 0.4 -0.6
v 2.8 0.5 -0.6
v -1.8 0.4 -0.7
v -1.8 0.5 -0.7
v -1.7 0.4 -0.7
v -1.7 0.5 -0.7
v 1.2 0.3 -0.7
v 1.2 0.4 -0.7
v 1.2 0.5 -0.7
v 1.2 0.6 -0.7
v 1.3 0.3 -0.7
v 1.3 0.4 -0.7
v 1.3 0.5 -0.7
v 1.3 0.6 -0.7
v -1.9 0.4 -0.8
v -1.9 0.5 -0.8
v -1.8 0.4 -0.8
v -1.8 0.5 -0.8
v 0 0.4 -0.8
v 0 0.5 -0.8
v 0.2 0.4 -0.8
v 0.2 0.5 -0.8
v -2 0.4 -0.9
v -2 0.5 -0.9
v -1.9 0.4 -0.9
v -1.9 0.5 -0.9
v 0.2 0.4 -0.9
v 0.2 0.5 -0.9
v 0.4 0.4 -0.9
v 0.4 0.5 -0.9
v -2.2 0.4 -1
v -2.2 0.5 -1
v -2 0.4 -1
v -2 0.5 -1
v 0.4 0.4 -1
v 0.4 0.5 -1
v 1.3 0.4 -1
v 1.3 0.5 -1
v -4 0.2 -0.2
v -2.8 0.2 -0.2
v -1.4 0.2 -0.2
v -1.2 0.2 -0.2
v -1.1 0.2 -0.2
v -0.9 0.2 -0.2
v -0.8 0.2 -0.2
v -0.6 0.2 -0.2
v -0.5 0.2 -0.2
v -0.3 0.2 -0.2
v -0.2 0.2 -0.2
v -0.0999999 0.2 -0.2
v -2.8 0.2 -0.3
v -2.7 0.2 -0.3
v -1.5 0.2 -0.3
v -1.4 0.2 -0.3
v -2.8 0.2 -0.4
v -2.7 0.2 -0.4
v -1.5 0.2 -0.4
v -1.4 0.2 -0.4
v -4 0.2 -0.5
v -2.8 0.2 -0.5
v -1.4 0.2 -0.5
v -1.2 0.2 -0.5
v -1.1 0.2 -0.5
v -0.9 0.2 -0.5
v -0.8 0.2 -0.5
v -0.6 0.2 -0.5
v -0.5 0.2 -0.5
v -0.3 0.2 -0.5
v -0.2 0.2 -0.5
v -0.0999999 0.2 -0.5
v 1.4 0.2 -0.5
v 1.5 0.2 -0.5
v 1.4 0.2 -0.6
v 1.5 0.2 -0.6
v 1.2 0.3 0.5
v 1.4 0.3 0.5
v 1.1 0.3 0.3
v 1.2 0.3 0.3
v 0 0.3 -5.96046e-08
v 0.6 0.3 -5.96046e-08
v 1 0.3 -5.96046e-08
v 1.1 0.3 -5.96046e-08
v 1.2 0.3 -5.96046e-08
v -4 0.3 -0.1
v -2.8 0.3 -0.1
v -1.4 0.3 -0.1
v -1.2 0.3 -0.1
v -1.1 0.3 -0.1
v -0.9 0.3 -0.1
v -0.8 0.3 -0.1
v -0.6 0.3 -0.1
v -0.5 0.3 -0.1
v -0.3 0.3 -0.1
v -0.2 0.3 -0.1
v -0.0999999 0.3 -0.1
v 1.2 0.3 -0.1
v 1.4 0.3 -0.1
v 2.5 0.3 -0.1
v 2.8 0.3 -0.1
v -4 0.3 -0.2
v -2.8 0.3 -0.2
v -2.7 0.3 -0.2
v -2.2 0.3 -0.2
v -1.5 0.3 -0.2
v -1.4 0.3 -0.2
v -1.2 0.3 -0.2
v -1.1 0.3 -0.2
v -0.9 0.3 -0.2
v -0.8 0.3 -0.2
v -0.6 0.3 -0.2
v -0.5 0.3 -0.2
v -0.3 0.3 -0.2
v -0.2 0.3 -0.2
v -0.0999999 0.3 -0.2
v 0 0.3 -0.2
v 0.6 0.3 -0.2
v 1 0.3 -0.2
v 1.4 0.3 -0.2
v 1.5 0.3 -0.2
v 2 0.3 -0.2
v 2.5 0.3 -0.2
v -2.8 0.3 -0.3
v -2.7 0.3 -0.3
v -2.2 0.3 -0.3
v -1.9 0.3 -0.3
v -1.7 0.3 -0.3
v -1.5 0.3 -0.3
v -1.4 0.3 -0.3
v 1.5 0.3 -0.3
v 2 0.3 -0.3
v -2.8 0.3 -0.4
v -2.7 0.3 -0.4
v -2.2 0.3 -0.4
v -2 0.3 -0.4
v -1.9 0.3 -0.4
v -1.7 0.3 -0.4
v -1.5 0.3 -0.4
v -1.4 0.3 -0.4
v -4 0.3 -0.5
v -2.8 0.3 -0.5
v -2.7 0.3 -0.5
v -2.1 0.3 -0.5
v -2 0.3 -0.5
v -1.5 0.3 -0.5
v -1.4 0.3 -0.5
v -1.2 0.3 -0.5
v -1.1 0.3 -0.5
v -0.9 0.3 -0.5
v -0.8 0.3 -0.5
v -0.6 0.3 -0.5
v -0.5 0.3 -0.5
v -0.3 0.3 -0.5
v -0.2 0.3 -0.5
v -0.0999999 0.3 -0.5
v 0 0.3 -0.5
v 1.2 0.3 -0.5
v 1.4 0.3 -0.5
v 1.5 0.3 -0.5
v 2.8 0.3 -0.5
v -4 0.3 -0.6
v -2.8 0.3 -0.6
v -2.2 0.3 -0.6
v -2.1 0.3 -0.6
v -1.4 0.3 -0.6
v -1.2 0.3 -0.6
v -1.1 0.3 -0.6
v -0.9 0.3 -0.6
v -0.8 0.3 -0.6
v -0.6 0.3 -0.6
v -0.5 0.3 -0.6
v -0.3 0.3 -0.6
v -0.2 0.3 -0.6
v -0.0999999 0.3 -0.6
v 1.3 0.3 -0.6
v 1.4 0.3 -0.6
v 1.2 0.3 -0.7
v 1.3 0.3 -0.7
v 1.1 0.4 0.5
v 1.2 0.4 0.5
v 1 0.4 0.3
v 1.1 0.4 0.3
v 1.2 0.4 0.3
v 0.6 0.4 0.1
v 1 0.4 0.1
v 2.5 0.4 0.1
v 2.8 0.4 0.1
v 0.6 0.4 -5.96046e-08
v 0.7 0.4 -5.96046e-08
v 0.9 0.4 -5.96046e-08
v 1 0.4 -5.96046e-08
v 1.1 0.4 -5.96046e-08
v 2.1 0.4 -5.96046e-08
v 2.5 0.4 -5.96046e-08
v -2.8 0.4 -0.1
v -2.7 0.4 -0.1
v -1.5 0.4 -0.1
v -1.4 0.4 -0.1
v -0.0999999 0.4 -0.1
v 0 0.4 -0.1
v 0.8 0.4 -0.1
v 0.9 0.4 -0.1
v 1.9 0.4 -0.1
v 2.1 0.4 -0.1
v 2.5 0.4 -0.1
v 2.8 0.4 -0.1
v -2.8 0.4 -0.2
v -2.7 0.4 -0.2
v -2.2 0.4 -0.2
v -1.5 0.4 -0.2
v -1.4 0.4 -0.2
v -0.0999999 0.4 -0.2
v 0 0.4 -0.2
v 0.6 0.4 -0.2
v 0.7 0.4 -0.2
v 0.8 0.4 -0.2
v 1 0.4 -0.2
v 1.7 0.4 -0.2
v 1.9 0.4 -0.2
v 2 0.4 -0.2
v 2.5 0.4 -0.2
v -2.7 0.4 -0.3
v -2.2 0.4 -0.3
v 1.7 0.4 -0.3
v 2 0.4 -0.3
v -2.7 0.4 -0.4
v -2.2 0.4 -0.4
v -1.7 0.4 -0.4
v -1.5 0.4 -0.4
v -2.8 0.4 -0.5
v -2.7 0.4 -0.5
v -2.2 0.4 -0.5
v -1.8 0.4 -0.5
v -1.7 0.4 -0.5
v -1.6 0.4 -0.5
v -1.5 0.4 -0.5
v -1.4 0.4 -0.5
v 0 0.4 -0.5
v 1.2 0.4 -0.5
v 1.6 0.4 -0.5
v 2.8 0.4 -0.5
v -2.8 0.4 -0.6
v -2.7 0.4 -0.6
v -2.2 0.4 -0.6
v -2.1 0.4 -0.6
v -1.9 0.4 -0.6
v -1.8 0.4 -0.6
v -1.7 0.4 -0.6
v -1.6 0.4 -0.6
v -1.5 0.4 -0.6
v -1.4 0.4 -0.6
v 0.1 0.4 -0.6
v 1.1 0.4 -0.6
v 1.6 0.4 -0.6
v 2.8 0.4 -0.6
v -2 0.4 -0.7
v -1.9 0.4 -0.7
v -1.8 0.4 -0.7
v -1.7 0.4 -0.7
v 0.1 0.4 -0.7
v 0.3 0.4 -0.7
v 1.2 0.4 -0.7
v 1.3 0.4 -0.7
v -2.1 0.4 -0.8
v -2 0.4 -0.8
v -1.9 0.4 -0.8
v -1.8 0.4 -0.8
v 0 0.4 -0.8
v 0.2 0.4 -0.8
v 0.3 0.4 -0.8
v 0.6 0.4 -0.8
v -2 0.4 -0.9
v -1.9 0.4 -0.9
v 0.2 0.4 -0.9
v 0.4 0.4 -0.9
v 0.6 0.4 -0.9
v 1.1 0.4 -0.9
v -2.2 0.4 -1
v -2 0.4 -1
v 0.4 0.4 -1
v 1.3 0.4 -1
v 0.1 0.5 -5.96046e-08
v 0.4 0.5 -5.96046e-08
v 0.1 0.5 -0.1
v 0.4 0.5 -0.1
v 0.1 0.4 -5.96046e-08
v 0.4 0.4 -5.96046e-08
v 0.1 0.4 -0.1
v 0.4 0.4 -0.1
v 1.1 0.5 0.5
v 1.2 0.5 0.5
v 1 0.5 0.3
v 1.1 0.5 0.3
v 1.2 0.5 0.3
v 0.6 0.5 0.1
v 1 0.5 0.1
v 2.5 0.5 0.1
v 2.8 0.5 0.1
v 0.6 0.5 -5.96046e-08
v 0.7 0.5 -5.96046e-08
v 0.9 0.5 -5.96046e-08
v 1 0.5 -5.96046e-08
v 1.1 0.5 -5.96046e-08
v 2.1 0.5 -5.96046e-08
v 2.5 0.5 -5.96046e-08
v -2.8 0.5 -0.1
v -2.7 0.5 -0.1
v -1.5 0.5 -0.1
v -1.4 0.5 -0.1
v -0.0999999 0.5 -0.1
v 0 0.5 -0.1
v 0.8 0.5 -0.1
v 0.9 0.5 -0.1
v 1.9 0.5 -0.1
v 2.1 0.5 -0.1
v 2.5 0.5 -0.1
v 2.8 0.5 -0.1
v -2.8 0.5 -0.2
v -2.7 0.5 -0.2
v -2.2 0.5 -0.2
v -1.5 0.5 -0.2
v -1.4 0.5 -0.2
v -0.0999999 0.5 -0.2
v 0 0.5 -0.2
v 0.6 0.5 -0.2
v 0.7 0.5 -0.2
v 0.8 0.5 -0.2
v 1 0.5 -0.2
v 1.7 0.5 -0.2
v 1.9 0.5 -0.2
v 2 0.5 -0.2
v 2.5 0.5 -0.2
v -2.7 0.5 -0.3
v -2.2 0.5 -0.3
v 1.7 0.5 -0.3
v 2 0.5 -0.3
v -2.7 0.5 -0.4
v -2.2 0.5 -0.4
v -1.7 0.5 -0.4
v -1.5 0.5 -0.4
v -2.8 0.5 -0.5
v -2.7 0.5 -0.5
v -2.2 0.5 -0.5
v -1.8 0.5 -0.5
v -1.7 0.5 -0.5
v -1.6 0.5 -0.5
v -1.5 0.5 -0.5
v -1.4 0.5 -0.5
v 0 0.5 -0.5
v 1.2 0.5 -0.5
v 1.6 0.5 -0.5
v 2.8 0.5 -0.5
v -2.8 0.5 -0.6
v -2.7 0.5 -0.6
v -2.2 0.5 -0.6
v -2.1 0.5 -0.6
v -1.9 0.5 -0.6
v -1.8 0.5 -0.6
v -1.7 0.5 -0.6
v -1.6 0.5 -0.6
v -1.5 0.5 -0.6
v -1.4 0.5 -0.6
v 0.1 0.5 -0.6
v 1.1 0.5 -0.6
v 1.6 0.5 -0.6
v 2.8 0.5 -0.6
v -2 0.5 -0.7
v -1.9 0.5 -0.7
v -1.8 0.5 -0.7
v -1.7 0.5 -0.7
v 0.1 0.5 -0.7
v 0.3 0.5 -0.7
v 1.2 0.5 -0.7
v 1.3 0.5 -0.7
v -2.1 0.5 -0.8
v -2 0.5 -0.8
v -1.9 0.5 -0.8
v -1.8 0.5 -0.8
v 0 0.5 -0.8
v 0.2 0.5 -0.8
v 0.3 0.5 -0.8
v 0.6 0.5 -0.8
v -2 0.5 -0.9
v -1.9 0.5 -0.9
v 0.2 0.5 -0.9
v 0.4 0.5 -0.9
v 0.6 0.5 -0.9
v 1.1 0.5 -0.9
v -2.2 0.5 -1
v -2 0.5 -1
v 0.4 0.5 -1
v 1.3 0.5 -1
v 1.2 0.6 0.5
v 1.4 0.6 0.5
v 1.1 0.6 0.3
v 1.2 0.6 0.3
v 0 0.6 -5.96046e-08
v 0.6 0.6 -5.96046e-08
v 1 0.6 -5.96046e-08
v 1.1 0.6 -5.96046e-08
v 1.2 0.6 -5.96046e-08
v -4 0.6 -0.1
v -2.8 0.6 -0.1
v -1.4 0.6 -0.1
v -1.2 0.6 -0.1
v -1.1 0.6 -0.1
v -0.9 0.6 -0.1
v -0.8 0.6 -0.1
v -0.6 0.6 -0.1
v -0.5 0.6 -0.1
v -0.3 0.6 -0.1
v -0.2 0.6 -0.1
v -0.0999999 0.6 -0.1
v 1.2 0.6 -0.1
v 1.4 0.6 -0.1
v 2.5 0.6 -0.1
v 2.8 0.6 -0.1
v -4 0.6 -0.2
v -2.8 0.6 -0.2
v -2.7 0.6 -0.2
v -2.2 0.6 -0.2
v -1.5 0.6 -0.2
v -1.4 0.6 -0.2
v -1.2 0.6 -0.2
v -1.1 0.6 -0.2
v -0.9 0.6 -0.2
v -0.8 0.6 -0.2
v -0.6 0.6 -0.2
v -0.5 0.6 -0.2
v -0.3 0.6 -0.2
v -0.2 0.6 -0.2
v -0.0999999 0.6 -0.2
v 0 0.6 -0.2
v 0.6 0.6 -0.2
v 1 0.6 -0.2
v 1.4 0.6 -0.2
v 1.5 0.6 -0.2
v 2 0.6 -0.2
v 2.5 0.6 -0.2
v -2.8 0.6 -0.3
v -2.7 0.6 -0.3
v -2.2 0.6 -0.3
v -1.9 0.6 -0.3
v -1.7 0.6 -0.3
v -1.5 0.6 -0.3
v -1.4 0.6 -0.3
v 1.5 0.6 -0.3
v 2 0.6 -0.3
v -2.8 0.6 -0.4
v -2.7 0.6 -0.4
v -2.2 0.6 -0.4
v -2 0.6 -0.4
v -1.9 0.6 -0.4
v -1.7 0.6 -0.4
v -1.5 0.6 -0.4
v -1.4 0.6 -0.4
v -4 0.6 -0.5
v -2.8 0.6 -0.5
v -2.7 0.6 -0.5
v -2.1 0.6 -0.5
v -2 0.6 -0.5
v -1.5 0.6 -0.5
v -1.4 0.6 -0.5
v -1.2 0.6 -0.5
v -1.1 0.6 -0.5
v -0.9 0.6 -0.5
v -0.8 0.6 -0.5
v -0.6 0.6 -0.5
v -0.5 0.6 -0.5
v -0.3 0.6 -0.5
v -0.2 0.6 -0.5
v -0.0999999 0.6 -0.5
v 0 0.6 -0.5
v 1.2 0.6 -0.5
v 1.4 0.6 -0.5
v 1.5 0.6 -0.5
v 2.8 0.6 -0.5
v -4 0.6 -0.6
v -2.8 0.6 -0.6
v -2.2 0.6 -0.6
v -2.1 0.6 -0.6
v -1.4 0.6 -0.6
v -1.2 0.6 -0.6
v -1.1 0.6 -0.6
v -0.9 0.6 -0.6
v -0.8 0.6 -0.6
v -0.6 0.6 -0.6
v -0.5 0.6 -0.6
v -0.3 0.6 -0.6
v -0.2 0.6 -0.6
v -0.0999999 0.6 -0.6
v 1.3 0.6 -0.6
v 1.4 0.6 -0.6
v 1.2 0.6 -0.7
v 1.3 0.6 -0.7
v -4 0.7 -0.2
v -2.8 0.7 -0.2
v -1.4 0.7 -0.2
v -1.2 0.7 -0.2
v -1.1 0.7 -0.2
v -0.9 0.7 -0.2
v -0.8 0.7 -0.2
v -0.6 0.7 -0.2
v -0.5 0.7 -0.2
v -0.3 0.7 -0.2
v -0.2 0.7 -0.2
v -0.0999999 0.7 -0.2
v -2.8 0.7 -0.3
v -2.7 0.7 -0.3
v -1.5 0.7 -0.3
v -1.4 0.7 -0.3
v -2.8 0.7 -0.4
v -2.7 0.7 -0.4
v -1.5 0.7 -0.4
v -1.4 0.7 -0.4
v -4 0.7 -0.5
v -2.8 0.7 -0.5
v -1.4 0.7 -0.5
v -1.2 0.7 -0.5
v -1.1 0.7 -0.5
v -0.9 0.7 -0.5
v -0.8 0.7 -0.5
v -0.6 0.7 -0.5
v -0.5 0.7 -0.5
v -0.3 0.7 -0.5
v -0.2 0.7 -0.5
v -0.0999999 0.7 -0.5
v 1.4 0.7 -0.5
v 1.5 0.7 -0.5
v 1.4 0.7 -0.6
v 1.5 0.7 -0.6

# faces
f 4/3/1 2/3/1 1/3/1
f 5/3/1 2/3/1 4/3/1
f 7/3/1 4/3/1 3/3/1
f 7/3/1 6/3/1 5/3/1
f 7/3/1 5/3/1 4/3/1
f 8/3/1 6/3/1 7/3/1
f 9/3/1 6/3/1 8/3/1
f 10/3/1 6/3/1 9/3/1
f 11/3/1 9/3/1 8/3/1
f 12/3/1 9/3/1 11/3/1
f 17/2/1 14/2/1 13/2/1
f 18/2/1 14/2/1 17/2/1
f 19/2/1 16/2/1 15/2/1
f 20/2/1 16/2/1 19/2/1
f 21/2/1 16/2/1 20/2/1
f 26/2/1 22/2/1 21/2/1
f 26/2/1 21/2/1 20/2/1
f 27/2/1 22/2/1 26/2/1
f 28/2/1 22/2/1 27/2/1
f 29/2/1 24/2/1 23/2/1
f 30/2/1 24/2/1 29/2/1
f 31/2/1 26/2/1 25/2/1
f 31/2/1 27/2/1 26/2/1
f 32/2/1 27/2/1 31/2/1
f 35/2/1 34/2/1 33/2/1
f 36/2/1 34/2/1 35/2/1
f 39/2/1 38/2/1 37/2/1
f 40/2/1 38/2/1 39/2/1
f 43/2/1 42/2/1 41/2/1
f 44/2/1 42/2/1 43/2/1
f 47/2/1 46/2/1 45/2/1
f 49/2/1 47/2/1 45/2/1
f 49/2/1 48/2/1 47/2/1
f 50/2/1 48/2/1 49/2/1
f 51/2/1 49/2/1 45/2/1
f 52/2/1 49/2/1 51/2/1
f 55/3/1 54/3/1 53/3/1
f 56/3/1 54/3/1 55/3/1
f 60/3/1 57/3/1 56/3/1
f 61/3/1 57/3/1 60/3/1
f 63/3/1 59/3/1 58/3/1
f 64/3/1 59/3/1 63/3/1
f 66/3/1 62/3/1 61/3/1
f 67/3/1 62/3/1 66/3/1
f 69/3/1 66/3/1 65/3/1
f 70/3/1 66/3/1 69/3/1
f 71/3/1 69/3/1 68/3/1
f 72/3/1 69/3/1 71/3/1
f 78/2/1 74/2/1 73/2/1
f 79/2/1 74/2/1 78/2/1
f 80/2/1 76/2/1 75/2/1
f 81/2/1 76/2/1 80/2/1
f 83/2/1 78/2/1 77/2/1
f 84/2/1 78/2/1 83/2/1
f 85/2/1 82/2/1 81/2/1
f 86/2/1 82/2/1 85/2/1
f 91/2/1 88/2/1 87/2/1
f 92/2/1 88/2/1 91/2/1
f 95/2/1 90/2/1 89/2/1
f 96/2/1 90/2/1 95/2/1
f 97/2/1 93/2/1 92/2/1
f 98/2/1 93/2/1 97/2/1
f 99/2/1 95/2/1 94/2/1
f 100/2/1 95/2/1 99/2/1
f 103/2/1 102/2/1 101/2/1
f 104/2/1 102/2/1 103/2/1
f 107/2/1 103/2/1 101/2/1
f 109/2/1 106/2/1 105/2/1
f 110/2/1 106/2/1 109/2/1
f 111/2/1 108/2/1 107/2/1
f 111/2/1 107/2/1 101/2/1
f 112/2/1 108/2/1 111/2/1
f 115/2/1 114/2/1 113/2/1
f 116/2/1 114/2/1 115/2/1
f 121/2/1 118/2/1 117/2/1
f 122/2/1 118/2/1 121/2/1
f 123/2/1 120/2/1 119/2/1
f 124/2/1 120/2/1 123/2/1
f 127/2/1 126/2/1 125/2/1
f 128/2/1 126/2/1 127/2/1
f 131/1/1 130/1/1 129/1/1
f 132/1/1 130/1/1 131/1/1
f 135/1/1 134/1/1 133/1/1
f 136/1/1 134/1/1 135/1/1
f 141/2/1 138/2/1 137/2/1
f 142/2/1 138/2/1 141/2/1
f 143/3/1 140/3/1 139/3/1
f 144/3/1 140/3/1 143/3/1
f 147/2/1 146/2/1 145/2/1
f 148/2/1 146/2/1 147/2/1
f 152/3/1 150/3/1 149/3/1
f 153/3/1 150/3/1 152/3/1
f 156/3/1 152/3/1 151/3/1
f 157/3/1 152/3/1 156/3/1
f 159/2/1 155/2/1 154/2/1
f 160/2/1 155/2/1 159/2/1
f 161/3/1 158/3/1 157/3/1
f 162/3/1 158/3/1 161/3/1
f 167/3/1 164/3/1 163/3/1
f 168/3/1 164/3/1 167/3/1
f 169/2/1 166/2/1 165/2/1
f 170/2/1 166/2/1 169/2/1
f 175/3/1 172/3/1 171/3/1
f 176/3/1 172/3/1 175/3/1
f 177/2/1 174/2/1 173/2/1
f 178/2/1 174/2/1 177/2/1
f 181/2/1 180/2/1 179/2/1
f 182/2/1 180/2/1 181/2/1
f 185/2/1 184/2/1 183/2/1
f 186/2/1 184/2/1 185/2/1
f 189/2/1 188/2/1 187/2/1
f 190/2/1 188/2/1 189/2/1
f 193/2/1 192/2/1 191/2/1
f 194/2/1 192/2/1 193/2/1
f 197/2/1 196/2/1 195/2/1
f 198/2/1 196/2/1 197/2/1
f 201/2/1 200/2/1 199/2/1
f 202/2/1 200/2/1 201/2/1
f 205/2/1 204/2/1 203/2/1
f 206/2/1 204/2/1 205/2/1
f 209/2/1 208/2/1 207/2/1
f 210/2/1 208/2/1 209/2/1
f 215/2/1 212/2/1 211/2/1
f 216/2/1 212/2/1 215/2/1
f 217/2/1 214/2/1 213/2/1
f 218/2/1 214/2/1 217/2/1
f 221/2/1 220/2/1 219/2/1
f 222/2/1 220/2/1 221/2/1
f 223/3/2 224/3/2 228/3/2
f 228/3/2 224/3/2 229/3/2
f 225/3/2 226/3/2 230/3/2
f 230/3/2 226/3/2 231/3/2
f 227/3/2 228/3/2 233/3/2
f 233/3/2 228/3/2 234/3/2
f 231/3/2 232/3/2 235/3/2
f 235/3/2 232/3/2 236/3/2
f 237/3/2 238/3/2 241/3/2
f 241/3/2 238/3/2 242/3/2
f 239/3/2 240/3/2 245/3/2
f 245/3/2 240/3/2 246/3/2
f 242/3/2 243/3/2 247/3/2
f 247/3/2 243/3/2 248/3/2
f 244/3/2 245/3/2 249/3/2
f 249/3/2 245/3/2 250/3/2
f 251/3/2 252/3/2 254/3/2
f 254/3/2 252/3/2 255/3/2
f 253/3/2 254/3/2 258/3/2
f 258/3/2 254/3/2 259/3/2
f 255/3/2 256/3/2 260/3/2
f 260/3/2 256/3/2 261/3/2
f 257/3/2 258/3/2 263/3/2
f 263/3/2 258/3/2 264/3/2
f 261/3/2 262/3/2 267/3/2
f 267/3/2 262/3/2 268/3/2
f 264/3/2 265/3/2 269/3/2
f 269/3/2 265/3/2 270/3/2
f 266/3/2 267/3/2 271/3/2
f 271/3/2 267/3/2 272/3/2
f 270/3/2 271/3/2 273/3/2
f 273/3/2 271/3/2 274/3/2
f 275/2/2 276/2/2 277/2/2
f 275/2/2 277/2/2 279/2/2
f 277/2/2 278/2/2 279/2/2
f 279/2/2 278/2/2 280/2/2
f 275/2/2 279/2/2 281/2/2
f 281/2/2 279/2/2 282/2/2
f 285/2/2 286/2/2 287/2/2
f 287/2/2 286/2/2 288/2/2
f 283/2/2 284/2/2 289/2/2
f 289/2/2 284/2/2 290/2/2
f 293/2/2 294/2/2 295/2/2
f 295/2/2 294/2/2 296/2/2
f 291/2/2 292/2/2 297/2/2
f 297/2/2 292/2/2 298/2/2
f 299/2/2 300/2/2 301/2/2
f 301/2/2 300/2/2 302/2/2
f 303/2/2 304/2/2 305/2/2
f 305/2/2 304/2/2 306/2/2
f 307/2/2 308/2/2 309/2/2
f 309/2/2 308/2/2 310/2/2
f 311/2/2 312/2/2 314/2/2
f 314/2/2 312/2/2 315/2/2
f 313/2/2 314/2/2 317/2/2
f 317/2/2 314/2/2 318/2/2
f 319/2/2 320/2/2 321/2/2
f 321/2/2 320/2/2 322/2/2
f 315/2/2 316/2/2 323/2/2
f 323/2/2 316/2/2 324/2/2
f 322/2/2 323/2/2 325/2/2
f 325/2/2 323/2/2 326/2/2
f 327/2/2 328/2/2 331/2/2
f 331/2/2 328/2/2 332/2/2
f 329/2/2 330/2/2 333/2/2
f 333/2/2 330/2/2 334/2/2
f 335/2/2 336/2/2 337/2/2
f 337/2/2 336/2/2 338/2/2
f 339/2/2 340/2/2 341/2/2
f 341/2/2 340/2/2 342/2/2
f 343/2/2 344/2/2 347/2/2
f 347/2/2 344/2/2 348/2/2
f 345/2/2 346/2/2 349/2/2
f 349/2/2 346/2/2 350/2/2
f 351/2/2 352/2/2 353/2/2
f 353/2/2 352/2/2 354/2/2
f 355/2/2 356/2/2 357/2/2
f 355/2/2 357/2/2 359/2/2
f 357/2/2 358/2/2 359/2/2
f 359/2/2 358/2/2 360/2/2
f 355/2/2 359/2/2 361/2/2
f 361/2/2 359/2/2 362/2/2
f 363/3/2 364/3/2 366/3/2
f 364/2/2 365/2/2 367/2/2
f 366/3/2 364/3/2 367/3/2
f 367/2/2 365/2/2 368/2/2
f 369/2/2 370/2/2 373/2/2
f 371/2/2 372/2/2 374/2/2
f 374/2/2 372/2/2 375/2/2
f 373/2/2 370/2/2 376/2/2
f 376/2/2 370/2/2 377/2/2
f 377/2/2 370/2/2 378/2/2
f 379/2/2 380/2/2 382/2/2
f 382/2/2 380/2/2 383/2/2
f 381/2/2 382/2/2 385/2/2
f 383/2/2 384/2/2 385/2/2
f 382/2/2 383/2/2 385/2/2
f 385/2/2 384/2/2 386/2/2
f 386/2/2 384/2/2 387/2/2
f 387/2/2 384/2/2 388/2/2
f 386/2/2 387/2/2 389/2/2
f 389/2/2 387/2/2 390/2/2
f 394/3/3 392/3/3 391/3/3
f 395/3/3 392/3/3 394/3/3
f 397/3/3 394/3/3 393/3/3
f 397/3/3 396/3/3 395/3/3
f 397/3/3 395/3/3 394/3/3
f 398/3/3 396/3/3 397/3/3
f 402/3/3 400/3/3 399/3/3
f 403/3/3 400/3/3 402/3/3
f 405/3/3 402/3/3 401/3/3
f 406/3/3 402/3/3 405/3/3
f 407/3/3 404/3/3 403/3/3
f 408/3/3 404/3/3 407/3/3
f 411/2/3 410/2/3 409/2/3
f 412/2/3 410/2/3 411/2/3
f 415/2/3 414/2/3 413/2/3
f 416/2/3 414/2/3 415/2/3
f 419/2/3 418/2/3 417/2/3
f 420/2/3 418/2/3 419/2/3
f 421/2/3 419/2/3 417/2/3
f 422/2/3 418/2/3 420/2/3
f 423/2/3 421/2/3 417/2/3
f 423/2/3 422/2/3 421/2/3
f 424/2/3 422/2/3 423/2/3
f 425/2/3 418/2/3 422/2/3
f 425/2/3 422/2/3 424/2/3
f 426/2/3 418/2/3 425/2/3
f 431/2/3 428/2/3 427/2/3
f 432/2/3 428/2/3 431/2/3
f 433/2/3 430/2/3 429/2/3
f 434/2/3 430/2/3 433/2/3
f 437/2/3 436/2/3 435/2/3
f 438/2/3 436/2/3 437/2/3
f 441/3/3 440/3/3 439/3/3
f 442/3/3 440/3/3 441/3/3
f 443/3/3 440/3/3 442/3/3
f 444/3/3 440/3/3 443/3/3
f 445/3/3 443/3/3 442/3/3
f 446/3/3 443/3/3 445/3/3
f 450/3/3 448/3/3 447/3/3
f 451/3/3 448/3/3 450/3/3
f 453/2/3 451/2/3 450/2/3
f 453/2/3 452/2/3 451/2/3
f 453/2/3 450/2/3 449/2/3
f 454/2/3 452/2/3 453/2/3
f 455/3/3 454/3/3 453/3/3
f 456/3/3 454/3/3 455/3/3
f 457/2/3 456/2/3 455/2/3
f 458/2/3 456/2/3 457/2/3
f 459/3/3 458/3/3 457/3/3
f 460/3/3 458/3/3 459/3/3
f 461/2/3 460/2/3 459/2/3
f 462/2/3 460/2/3 461/2/3
f 463/3/3 462/3/3 461/3/3
f 464/3/3 462/3/3 463/3/3
f 465/2/3 464/2/3 463/2/3
f 466/2/3 464/2/3 465/2/3
f 467/3/3 466/3/3 465/3/3
f 468/3/3 466/3/3 467/3/3
f 469/2/3 468/2/3 467/2/3
f 470/2/3 468/2/3 469/2/3
f 471/2/3 468/2/3 470/2/3
f 472/2/3 468/2/3 471/2/3
f 473/1/3 471/1/3 470/1/3
f 474/1/3 471/1/3 473/1/3
f 477/1/3 476/1/3 475/1/3
f 478/1/3 476/1/3 477/1/3
f 481/1/3 480/1/3 479/1/3
f 482/1/3 480/1/3 481/1/3
f 485/2/3 484/2/3 483/2/3
f 486/2/3 484/2/3 485/2/3
f 491/2/3 488/2/3 487/2/3
f 492/2/3 488/2/3 491/2/3
f 493/2/3 490/2/3 489/2/3
f 494/2/3 490/2/3 493/2/3
f 499/3/3 496/3/3 495/3/3
f 500/3/3 496/3/3 499/3/3
f 503/3/3 498/3/3 497/3/3
f 504/3/3 498/3/3 503/3/3
f 505/3/3 501/3/3 500/3/3
f 506/3/3 501/3/3 505/3/3
f 507/3/3 503/3/3 502/3/3
f 508/3/3 503/3/3 507/3/3
f 510/1/3 507/1/3 506/1/3
f 511/1/3 507/1/3 510/1/3
f 513/2/3 510/2/3 509/2/3
f 513/1/3 511/1/3 510/1/3
f 514/2/3 512/2/3 511/2/3
f 514/1/3 511/1/3 513/1/3
f 515/2/3 513/2/3 509/2/3
f 515/2/3 514/2/3 513/2/3
f 516/2/3 514/2/3 515/2/3
f 517/2/3 512/2/3 514/2/3
f 517/2/3 514/2/3 516/2/3
f 518/2/3 512/2/3 517/2/3
f 520/3/3 516/3/3 515/3/3
f 521/3/3 516/3/3 520/3/3
f 522/3/3 518/3/3 517/3/3
f 523/3/3 518/3/3 522/3/3
f 525/2/3 520/2/3 519/2/3
f 526/2/3 520/2/3 525/2/3
f 527/2/3 524/2/3 523/2/3
f 528/2/3 524/2/3 527/2/3
f 529/3/3 526/3/3 525/3/3
f 530/3/3 526/3/3 529/3/3
f 531/3/3 528/3/3 527/3/3
f 532/3/3 528/3/3 531/3/3
f 533/2/3 530/2/3 529/2/3
f 534/2/3 530/2/3 533/2/3
f 535/2/3 532/2/3 531/2/3
f 536/2/3 532/2/3 535/2/3
f 537/3/3 534/3/3 533/3/3
f 538/3/3 534/3/3 537/3/3
f 539/3/3 536/3/3 535/3/3
f 540/3/3 536/3/3 539/3/3
f 541/2/3 538/2/3 537/2/3
f 542/2/3 538/2/3 541/2/3
f 543/2/3 540/2/3 539/2/3
f 544/2/3 540/2/3 543/2/3
f 545/3/3 542/3/3 541/3/3
f 546/3/3 542/3/3 545/3/3
f 547/3/3 544/3/3 543/3/3
f 548/3/3 544/3/3 547/3/3
f 549/2/3 546/2/3 545/2/3
f 550/2/3 546/2/3 549/2/3
f 551/2/3 548/2/3 547/2/3
f 552/2/3 548/2/3 551/2/3
f 553/3/3 550/3/3 549/3/3
f 554/3/3 550/3/3 553/3/3
f 555/3/3 552/3/3 551/3/3
f 556/3/3 552/3/3 555/3/3
f 557/2/3 554/2/3 553/2/3
f 558/2/3 554/2/3 557/2/3
f 561/2/3 556/2/3 555/2/3
f 562/2/3 556/2/3 561/2/3
f 563/1/3 559/1/3 558/1/3
f 564/1/3 559/1/3 563/1/3
f 565/1/3 561/1/3 560/1/3
f 566/1/3 561/1/3 565/1/3
f 571/2/3 568/2/3 567/2/3
f 572/2/3 570/2/3 569/2/3
f 573/2/3 571/2/3 567/2/3
f 573/2/3 572/2/3 571/2/3
f 574/2/3 570/2/3 572/2/3
f 574/2/3 572/2/3 573/2/3
f 575/2/3 573/2/3 567/2/3
f 576/2/3 573/2/3 575/2/3
f 577/2/3 570/2/3 574/2/3
f 578/2/3 570/2/3 577/2/3
f 581/2/3 580/2/3 579/2/3
f 582/2/3 580/2/3 581/2/3
f 585/2/3 584/2/3 583/2/3
f 586/2/3 584/2/3 585/2/3
f 591/2/3 588/2/3 587/2/3
f 592/2/3 588/2/3 591/2/3
f 593/2/3 590/2/3 589/2/3
f 594/2/3 590/2/3 593/2/3
f 599/3/3 596/3/3 595/3/3
f 600/3/3 596/3/3 599/3/3
f 603/3/3 598/3/3 597/3/3
f 604/3/3 598/3/3 603/3/3
f 605/1/3 601/1/3 600/1/3
f 606/1/3 601/1/3 605/1/3
f 607/1/3 603/1/3 602/1/3
f 608/1/3 603/1/3 607/1/3
f 613/3/3 610/3/3 609/3/3
f 614/3/3 610/3/3 613/3/3
f 615/3/3 612/3/3 611/3/3
f 616/3/3 612/3/3 615/3/3
f 619/2/3 618/2/3 617/2/3
f 620/2/3 618/2/3 619/2/3
f 621/2/3 619/2/3 617/2/3
f 622/2/3 619/2/3 621/2/3
f 623/2/3 618/2/3 620/2/3
f 624/2/3 618/2/3 623/2/3
f 627/2/3 626/2/3 625/2/3
f 628/2/3 626/2/3 627/2/3
f 633/2/3 630/2/3 629/2/3
f 634/2/3 630/2/3 633/2/3
f 635/2/3 632/2/3 631/2/3
f 636/2/3 632/2/3 635/2/3
f 639/2/3 638/2/3 637/2/3
f 640/2/3 638/2/3 639/2/3
f 643/2/3 642/2/3 641/2/3
f 644/2/3 642/2/3 643/2/3
f 647/2/3 646/2/3 645/2/3
f 648/2/3 646/2/3 647/2/3
f 651/2/3 650/2/3 649/2/3
f 652/2/3 650/2/3 651/2/3
f 655/2/3 654/2/3 653/2/3
f 656/2/3 654/2/3 655/2/3
f 659/2/3 658/2/3 657/2/3
f 660/2/3 658/2/3 659/2/3
f 661/2/4 662/2/4 663/2/4
f 663/2/4 662/2/4 664/2/4
f 665/2/4 666/2/4 667/2/4
f 667/2/4 666/2/4 668/2/4
f 669/3/4 670/3/4 673/3/4
f 673/3/4 670/3/4 674/3/4
f 671/3/4 672/3/4 677/3/4
f 677/3/4 672/3/4 678/3/4
f 674/1/4 675/1/4 679/1/4
f 679/1/4 675/1/4 680/1/4
f 676/1/4 677/1/4 681/1/4
f 681/1/4 677/1/4 682/1/4
f 683/2/4 684/2/4 685/2/4
f 685/2/4 684/2/4 686/2/4
f 687/2/4 688/2/4 692/2/4
f 692/2/4 688/2/4 693/2/4
f 689/2/4 690/2/4 694/2/4
f 694/2/4 690/2/4 695/2/4
f 691/3/4 692/3/4 697/3/4
f 697/3/4 692/3/4 698/3/4
f 695/3/4 696/3/4 699/3/4
f 699/3/4 696/3/4 700/3/4
f 701/3/4 702/3/4 705/3/4
f 705/3/4 702/3/4 706/3/4
f 703/3/4 704/3/4 709/3/4
f 709/3/4 704/3/4 710/3/4
f 706/3/4 707/3/4 711/3/4
f 711/3/4 707/3/4 712/3/4
f 708/3/4 709/3/4 713/3/4
f 713/3/4 709/3/4 714/3/4
f 712/1/4 713/1/4 715/1/4
f 715/1/4 713/1/4 716/1/4
f 717/2/4 718/2/4 719/2/4
f 719/2/4 718/2/4 720/2/4
f 721/2/4 722/2/4 724/2/4
f 724/2/4 722/2/4 725/2/4
f 723/3/4 724/3/4 728/3/4
f 728/3/4 724/3/4 729/3/4
f 725/3/4 726/3/4 730/3/4
f 730/3/4 726/3/4 731/3/4
f 727/2/4 728/2/4 733/2/4
f 733/2/4 728/2/4 734/2/4
f 731/2/4 732/2/4 735/2/4
f 735/2/4 732/2/4 736/2/4
f 733/3/4 734/3/4 737/3/4
f 737/3/4 734/3/4 738/3/4
f 735/3/4 736/3/4 739/3/4
f 739/3/4 736/3/4 740/3/4
f 737/2/4 738/2/4 741/2/4
f 741/2/4 738/2/4 742/2/4
f 739/2/4 740/2/4 743/2/4
f 743/2/4 740/2/4 744/2/4
f 741/3/4 742/3/4 745/3/4
f 745/3/4 742/3/4 746/3/4
f 743/3/4 744/3/4 747/3/4
f 747/3/4 744/3/4 748/3/4
f 745/2/4 746/2/4 749/2/4
f 749/2/4 746/2/4 750/2/4
f 747/2/4 748/2/4 751/2/4
f 751/2/4 748/2/4 752/2/4
f 749/3/4 750/3/4 753/3/4
f 753/3/4 750/3/4 754/3/4
f 751/3/4 752/3/4 755/3/4
f 755/3/4 752/3/4 756/3/4
f 753/2/4 754/2/4 757/2/4
f 757/2/4 754/2/4 758/2/4
f 755/2/4 756/2/4 759/2/4
f 759/2/4 756/2/4 760/2/4
f 757/3/4 758/3/4 761/3/4
f 761/3/4 758/3/4 762/3/4
f 759/3/4 760/3/4 763/3/4
f 763/3/4 760/3/4 764/3/4
f 761/2/4 762/2/4 765/2/4
f 765/2/4 762/2/4 766/2/4
f 763/2/4 764/2/4 767/2/4
f 767/2/4 764/2/4 768/2/4
f 766/1/4 767/1/4 769/1/4
f 769/1/4 767/1/4 770/1/4
f 770/1/4 767/1/4 771/1/4
f 771/1/4 767/1/4 772/1/4
f 769/2/4 770/2/4 773/2/4
f 773/2/4 770/2/4 774/2/4
f 771/2/4 772/2/4 775/2/4
f 775/2/4 772/2/4 776/2/4
f 777/2/4 778/2/4 779/2/4
f 779/2/4 778/2/4 780/2/4
f 777/2/4 779/2/4 781/2/4
f 781/2/4 779/2/4 782/2/4
f 780/2/4 778/2/4 783/2/4
f 783/2/4 778/2/4 784/2/4
f 785/3/4 786/3/4 787/3/4
f 787/3/4 786/3/4 788/3/4
f 788/3/4 786/3/4 789/3/4
f 789/3/4 786/3/4 790/3/4
f 788/3/4 789/3/4 791/3/4
f 791/3/4 789/3/4 792/3/4
f 793/2/4 794/2/4 797/2/4
f 797/2/4 794/2/4 798/2/4
f 795/2/4 796/2/4 799/2/4
f 799/2/4 796/2/4 800/2/4
f 801/2/4 802/2/4 803/2/4
f 803/2/4 802/2/4 804/2/4
f 805/3/4 806/3/4 808/3/4
f 808/3/4 806/3/4 809/3/4
f 808/2/4 809/2/4 811/2/4
f 809/2/4 810/2/4 811/2/4
f 807/2/4 808/2/4 811/2/4
f 811/2/4 810/2/4 812/2/4
f 811/3/4 812/3/4 813/3/4
f 813/3/4 812/3/4 814/3/4
f 813/2/4 814/2/4 815/2/4
f 815/2/4 814/2/4 816/2/4
f 815/3/4 816/3/4 817/3/4
f 817/3/4 816/3/4 818/3/4
f 817/2/4 818/2/4 819/2/4
f 819/2/4 818/2/4 820/2/4
f 819/3/4 820/3/4 821/3/4
f 821/3/4 820/3/4 822/3/4
f 821/2/4 822/2/4 823/2/4
f 823/2/4 822/2/4 824/2/4
f 823/3/4 824/3/4 825/3/4
f 825/3/4 824/3/4 826/3/4
f 825/2/4 826/2/4 827/2/4
f 827/2/4 826/2/4 828/2/4
f 829/2/4 830/2/4 831/2/4
f 831/2/4 830/2/4 832/2/4
f 833/2/4 834/2/4 836/2/4
f 836/2/4 834/2/4 837/2/4
f 836/2/4 837/2/4 839/2/4
f 837/2/4 838/2/4 839/2/4
f 835/2/4 836/2/4 839/2/4
f 839/2/4 838/2/4 840/2/4
f 841/2/4 842/2/4 843/2/4
f 843/2/4 842/2/4 844/2/4
f 845/2/4 846/2/4 847/2/4
f 847/2/4 846/2/4 848/2/4
f 849/2/4 850/2/4 853/2/4
f 853/2/4 850/2/4 854/2/4
f 851/2/4 852/2/4 855/2/4
f 855/2/4 852/2/4 856/2/4
f 857/2/4 858/2/4 859/2/4
f 859/2/4 858/2/4 860/2/4
f 861/2/4 862/2/4 863/2/4
f 863/2/4 862/2/4 864/2/4
f 865/2/4 866/2/4 867/2/4
f 867/2/4 866/2/4 868/2/4
f 869/2/4 870/2/4 871/2/4
f 871/2/4 870/2/4 872/2/4
f 873/2/4 874/2/4 875/2/4
f 875/2/4 874/2/4 876/2/4
f 877/2/4 878/2/4 879/2/4
f 879/2/4 878/2/4 880/2/4
f 893/3/5 882/3/5 881/3/5
f 896/2/5 884/2/5 883/2/5
f 897/3/5 894/3/5 893/3/5
f 897/3/5 893/3/5 881/3/5
f 898/3/5 894/3/5 897/3/5
f 899/3/5 896/3/5 895/3/5
f 900/2/5 884/2/5 896/2/5
f 900/3/5 896/3/5 899/3/5
f 901/3/5 897/3/5 881/3/5
f 902/3/5 897/3/5 901/3/5
f 903/2/5 884/2/5 900/2/5
f 904/3/5 885/3/5 884/3/5
f 904/2/5 884/2/5 903/2/5
f 905/2/5 886/2/5 885/2/5
f 905/3/5 885/3/5 904/3/5
f 906/3/5 887/3/5 886/3/5
f 906/2/5 886/2/5 905/2/5
f 907/2/5 888/2/5 887/2/5
f 907/3/5 887/3/5 906/3/5
f 908/3/5 889/3/5 888/3/5
f 908/2/5 888/2/5 907/2/5
f 909/2/5 890/2/5 889/2/5
f 909/3/5 889/3/5 908/3/5
f 910/3/5 891/3/5 890/3/5
f 910/2/5 890/2/5 909/2/5
f 911/2/5 892/2/5 891/2/5
f 911/3/5 891/3/5 910/3/5
f 912/2/5 892/2/5 911/2/5
f 915/2/5 914/2/5 913/2/5
f 916/2/5 914/2/5 915/2/5
f 920/3/5 918/3/5 917/3/5
f 924/3/5 920/3/5 919/3/5
f 925/3/5 918/3/5 920/3/5
f 925/3/5 920/3/5 924/3/5
f 938/2/5 924/2/5 923/2/5
f 938/2/5 925/2/5 924/2/5
f 938/3/5 918/3/5 925/3/5
f 939/3/5 918/3/5 938/3/5
f 942/3/5 927/3/5 926/3/5
f 943/3/5 927/3/5 942/3/5
f 947/2/5 929/2/5 928/2/5
f 948/3/5 930/3/5 929/3/5
f 948/2/5 929/2/5 947/2/5
f 949/2/5 931/2/5 930/2/5
f 949/3/5 930/3/5 948/3/5
f 950/3/5 932/3/5 931/3/5
f 950/2/5 931/2/5 949/2/5
f 951/2/5 933/2/5 932/2/5
f 951/3/5 932/3/5 950/3/5
f 952/3/5 934/3/5 933/3/5
f 952/2/5 933/2/5 951/2/5
f 953/2/5 935/2/5 934/2/5
f 953/3/5 934/3/5 952/3/5
f 954/3/5 936/3/5 935/3/5
f 954/2/5 935/2/5 953/2/5
f 955/2/5 937/2/5 936/2/5
f 955/3/5 936/3/5 954/3/5
f 956/2/5 937/2/5 955/2/5
f 957/2/5 922/2/5 921/2/5
f 958/2/5 922/2/5 957/2/5
f 959/2/5 938/2/5 923/2/5
f 959/2/5 939/2/5 938/2/5
f 960/2/5 939/2/5 959/2/5
f 963/2/5 941/2/5 940/2/5
f 964/3/5 944/3/5 943/3/5
f 965/3/5 944/3/5 964/3/5
f 966/2/5 946/2/5 945/2/5
f 967/2/5 946/2/5 966/2/5
f 968/2/5 946/2/5 967/2/5
f 969/3/5 947/3/5 946/3/5
f 969/2/5 946/2/5 968/2/5
f 970/3/5 947/3/5 969/3/5
f 971/2/5 960/2/5 959/2/5
f 971/2/5 961/2/5 960/2/5
f 971/2/5 959/2/5 958/2/5
f 971/2/5 958/2/5 957/2/5
f 972/2/5 963/2/5 962/2/5
f 974/1/5 966/1/5 965/1/5
f 975/2/5 967/2/5 966/2/5
f 975/1/5 966/1/5 974/1/5
f 976/2/5 967/2/5 975/2/5
f 977/2/5 967/2/5 976/2/5
f 978/2/5 969/2/5 968/2/5
f 979/2/5 969/2/5 978/2/5
f 982/3/5 974/3/5 973/3/5
f 983/3/5 974/3/5 982/3/5
f 984/2/5 976/2/5 975/2/5
f 985/2/5 976/2/5 984/2/5
f 986/3/5 980/3/5 979/3/5
f 987/3/5 980/3/5 986/3/5
f 996/1/5 957/1/5 956/1/5
f 997/2/5 971/2/5 957/2/5
f 997/2/5 972/2/5 971/2/5
f 997/1/5 957/1/5 996/1/5
f 998/2/5 972/2/5 997/2/5
f 999/2/5 972/2/5 998/2/5
f 1000/2/5 972/2/5 999/2/5
f 1001/2/5 941/2/5 963/2/5
f 1001/2/5 972/2/5 1000/2/5
f 1001/2/5 963/2/5 972/2/5
f 1002/3/5 982/3/5 981/3/5
f 1003/3/5 982/3/5 1002/3/5
f 1004/2/5 984/2/5 975/2/5
f 1005/2/5 984/2/5 1004/2/5
f 1006/2/5 988/2/5 987/2/5
f 1007/3/5 989/3/5 988/3/5
f 1007/2/5 988/2/5 1006/2/5
f 1008/2/5 990/2/5 989/2/5
f 1008/3/5 989/3/5 1007/3/5
f 1009/3/5 991/3/5 990/3/5
f 1009/2/5 990/2/5 1008/2/5
f 1010/2/5 992/2/5 991/2/5
f 1010/3/5 991/3/5 1009/3/5
f 1011/3/5 993/3/5 992/3/5
f 1011/2/5 992/2/5 1010/2/5
f 1012/2/5 994/2/5 993/2/5
f 1012/3/5 993/3/5 1011/3/5
f 1013/3/5 995/3/5 994/3/5
f 1013/2/5 994/2/5 1012/2/5
f 1014/2/5 996/2/5 995/2/5
f 1014/3/5 995/3/5 1013/3/5
f 1015/2/5 996/2/5 1014/2/5
f 1016/2/5 999/2/5 998/2/5
f 1017/2/5 999/2/5 1016/2/5
f 1018/2/5 1016/2/5 998/2/5
f 1019/2/5 1016/2/5 1018/2/5
f 1023/3/5 1021/3/5 1020/3/5
f 1024/3/5 1021/3/5 1023/3/5
f 1026/3/5 1023/3/5 1022/3/5
f 1029/2/5 1026/2/5 1025/2/5
f 1030/2/5 1026/2/5 1029/2/5
f 1031/2/5 1026/2/5 1030/2/5
f 1032/3/5 1023/3/5 1026/3/5
f 1032/2/5 1026/2/5 1031/2/5
f 1033/3/5 1023/3/5 1032/3/5
f 1035/2/5 1028/2/5 1027/2/5
f 1043/1/5 1032/1/5 1031/1/5
f 1045/2/5 1035/2/5 1034/2/5
f 1046/2/5 1028/2/5 1035/2/5
f 1046/2/5 1035/2/5 1045/2/5
f 1047/2/5 1028/2/5 1046/2/5
f 1048/3/5 1037/3/5 1036/3/5
f 1049/3/5 1037/3/5 1048/3/5
f 1051/3/5 1039/3/5 1038/3/5
f 1052/3/5 1039/3/5 1051/3/5
f 1053/1/5 1041/1/5 1040/1/5
f 1054/1/5 1041/1/5 1053/1/5
f 1055/2/5 1030/2/5 1029/2/5
f 1056/2/5 1030/2/5 1055/2/5
f 1057/1/5 1043/1/5 1042/1/5
f 1058/1/5 1032/1/5 1043/1/5
f 1058/1/5 1043/1/5 1057/1/5
f 1060/2/5 1045/2/5 1044/2/5
f 1060/2/5 1046/2/5 1045/2/5
f 1061/2/5 1046/2/5 1060/2/5
f 1062/2/5 1046/2/5 1061/2/5
f 1063/1/5 1050/1/5 1049/1/5
f 1064/1/5 1050/1/5 1063/1/5
f 1065/2/5 1061/2/5 1060/2/5
f 1065/2/5 1060/2/5 1059/2/5
f 1066/2/5 1061/2/5 1065/2/5
f 1072/1/5 1068/1/5 1067/1/5
f 1073/1/5 1068/1/5 1072/1/5
f 1075/2/5 1070/2/5 1069/2/5
f 1076/2/5 1070/2/5 1075/2/5
f 1077/2/5 1070/2/5 1076/2/5
f 1083/3/5 1072/3/5 1071/3/5
f 1084/3/5 1072/3/5 1083/3/5
f 1088/2/5 1076/2/5 1075/2/5
f 1088/2/5 1075/2/5 1074/2/5
f 1089/2/5 1076/2/5 1088/2/5
f 1090/2/5 1076/2/5 1089/2/5
f 1091/3/5 1078/3/5 1077/3/5
f 1092/3/5 1078/3/5 1091/3/5
f 1093/2/5 1080/2/5 1079/2/5
f 1094/2/5 1080/2/5 1093/2/5
f 1095/2/5 1082/2/5 1081/2/5
f 1096/2/5 1082/2/5 1095/2/5
f 1098/2/5 1088/2/5 1087/2/5
f 1098/2/5 1089/2/5 1088/2/5
f 1099/2/5 1089/2/5 1098/2/5
f 1100/2/5 1089/2/5 1099/2/5
f 1101/2/5 1093/2/5 1079/2/5
f 1103/2/5 1080/2/5 1094/2/5
f 1105/2/5 1086/2/5 1085/2/5
f 1106/2/5 1098/2/5 1097/2/5
f 1106/2/5 1099/2/5 1098/2/5
f 1107/2/5 1099/2/5 1106/2/5
f 1108/2/5 1099/2/5 1107/2/5
f 1109/2/5 1102/2/5 1101/2/5
f 1109/2/5 1101/2/5 1079/2/5
f 1110/2/5 1102/2/5 1109/2/5
f 1111/2/5 1102/2/5 1110/2/5
f 1113/2/5 1107/2/5 1106/2/5
f 1113/2/5 1106/2/5 1105/2/5
f 1114/2/5 1107/2/5 1113/2/5
f 1115/2/5 1112/2/5 1111/2/5
f 1115/2/5 1111/2/5 1110/2/5
f 1116/2/5 1112/2/5 1115/2/5
f 1117/2/5 1112/2/5 1116/2/5
f 1118/2/5 1104/2/5 1103/2/5
f 1118/2/5 1103/2/5 1094/2/5
f 1119/2/5 1105/2/5 1085/2/5
f 1119/2/5 1113/2/5 1105/2/5
f 1120/2/5 1113/2/5 1119/2/5
f 1121/2/5 1118/2/5 1117/2/5
f 1121/2/5 1117/2/5 1116/2/5
f 1122/2/5 1104/2/5 1118/2/5
f 1122/2/5 1118/2/5 1121/2/5
f 1125/2/5 1124/2/5 1123/2/5
f 1126/2/5 1124/2/5 1125/2/5
f 1127/2/6 1128/2/6 1129/2/6
f 1129/2/6 1128/2/6 1130/2/6
f 1131/3/6 1132/3/6 1134/3/6
f 1134/3/6 1132/3/6 1135/3/6
f 1133/3/6 1134/3/6 1137/3/6
f 1136/2/6 1137/2/6 1140/2/6
f 1140/2/6 1137/2/6 1141/2/6
f 1141/2/6 1137/2/6 1142/2/6
f 1137/3/6 1134/3/6 1143/3/6
f 1142/2/6 1137/2/6 1143/2/6
f 1143/3/6 1134/3/6 1144/3/6
f 1138/2/6 1139/2/6 1146/2/6
f 1142/1/6 1143/1/6 1154/1/6
f 1145/2/6 1146/2/6 1156/2/6
f 1146/2/6 1139/2/6 1157/2/6
f 1156/2/6 1146/2/6 1157/2/6
f 1157/2/6 1139/2/6 1158/2/6
f 1147/3/6 1148/3/6 1159/3/6
f 1159/3/6 1148/3/6 1160/3/6
f 1149/3/6 1150/3/6 1162/3/6
f 1162/3/6 1150/3/6 1163/3/6
f 1151/1/6 1152/1/6 1164/1/6
f 1164/1/6 1152/1/6 1165/1/6
f 1140/2/6 1141/2/6 1166/2/6
f 1166/2/6 1141/2/6 1167/2/6
f 1153/1/6 1154/1/6 1168/1/6
f 1154/1/6 1143/1/6 1169/1/6
f 1168/1/6 1154/1/6 1169/1/6
f 1155/2/6 1156/2/6 1171/2/6
f 1156/2/6 1157/2/6 1171/2/6
f 1171/2/6 1157/2/6 1172/2/6
f 1172/2/6 1157/2/6 1173/2/6
f 1160/1/6 1161/1/6 1174/1/6
f 1174/1/6 1161/1/6 1175/1/6
f 1171/2/6 1172/2/6 1176/2/6
f 1170/2/6 1171/2/6 1176/2/6
f 1176/2/6 1172/2/6 1177/2/6
f 1178/1/6 1179/1/6 1183/1/6
f 1183/1/6 1179/1/6 1184/1/6
f 1180/2/6 1181/2/6 1186/2/6
f 1186/2/6 1181/2/6 1187/2/6
f 1187/2/6 1181/2/6 1188/2/6
f 1182/3/6 1183/3/6 1194/3/6
f 1194/3/6 1183/3/6 1195/3/6
f 1186/2/6 1187/2/6 1199/2/6
f 1185/2/6 1186/2/6 1199/2/6
f 1199/2/6 1187/2/6 1200/2/6
f 1200/2/6 1187/2/6 1201/2/6
f 1188/3/6 1189/3/6 1202/3/6
f 1202/3/6 1189/3/6 1203/3/6
f 1190/2/6 1191/2/6 1204/2/6
f 1204/2/6 1191/2/6 1205/2/6
f 1192/2/6 1193/2/6 1206/2/6
f 1206/2/6 1193/2/6 1207/2/6
f 1198/2/6 1199/2/6 1209/2/6
f 1199/2/6 1200/2/6 1209/2/6
f 1209/2/6 1200/2/6 1210/2/6
f 1210/2/6 1200/2/6 1211/2/6
f 1190/2/6 1204/2/6 1212/2/6
f 1205/2/6 1191/2/6 1214/2/6
f 1196/2/6 1197/2/6 1216/2/6
f 1208/2/6 1209/2/6 1217/2/6
f 1209/2/6 1210/2/6 1217/2/6
f 1217/2/6 1210/2/6 1218/2/6
f 1218/2/6 1210/2/6 1219/2/6
f 1212/2/6 1213/2/6 1220/2/6
f 1190/2/6 1212/2/6 1220/2/6
f 1220/2/6 1213/2/6 1221/2/6
f 1221/2/6 1213/2/6 1222/2/6
f 1217/2/6 1218/2/6 1224/2/6
f 1216/2/6 1217/2/6 1224/2/6
f 1224/2/6 1218/2/6 1225/2/6
f 1222/2/6 1223/2/6 1226/2/6
f 1221/2/6 1222/2/6 1226/2/6
f 1226/2/6 1223/2/6 1227/2/6
f 1227/2/6 1223/2/6 1228/2/6
f 1214/2/6 1215/2/6 1229/2/6
f 1205/2/6 1214/2/6 1229/2/6
f 1196/2/6 1216/2/6 1230/2/6
f 1216/2/6 1224/2/6 1230/2/6
f 1230/2/6 1224/2/6 1231/2/6
f 1228/2/6 1229/2/6 1232/2/6
f 1227/2/6 1228/2/6 1232/2/6
f 1229/2/6 1215/2/6 1233/2/6
f 1232/2/6 1229/2/6 1233/2/6
f 1234/3/6 1235/3/6 1237/3/6
f 1236/3/6 1237/3/6 1241/3/6
f 1237/3/6 1235/3/6 1242/3/6
f 1241/3/6 1237/3/6 1242/3/6
f 1240/2/6 1241/2/6 1255/2/6
f 1241/2/6 1242/2/6 1255/2/6
f 1242/3/6 1235/3/6 1255/3/6
f 1255/3/6 1235/3/6 1256/3/6
f 1243/3/6 1244/3/6 1259/3/6
f 1259/3/6 1244/3/6 1260/3/6
f 1245/2/6 1246/2/6 1264/2/6
f 1246/3/6 1247/3/6 1265/3/6
f 1264/2/6 1246/2/6 1265/2/6
f 1247/2/6 1248/2/6 1266/2/6
f 1265/3/6 1247/3/6 1266/3/6
f 1248/3/6 1249/3/6 1267/3/6
f 1266/2/6 1248/2/6 1267/2/6
f 1249/2/6 1250/2/6 1268/2/6
f 1267/3/6 1249/3/6 1268/3/6
f 1250/3/6 1251/3/6 1269/3/6
f 1268/2/6 1250/2/6 1269/2/6
f 1251/2/6 1252/2/6 1270/2/6
f 1269/3/6 1251/3/6 1270/3/6
f 1252/3/6 1253/3/6 1271/3/6
f 1270/2/6 1252/2/6 1271/2/6
f 1253/2/6 1254/2/6 1272/2/6
f 1271/3/6 1253/3/6 1272/3/6
f 1272/2/6 1254/2/6 1273/2/6
f 1238/2/6 1239/2/6 1274/2/6
f 1274/2/6 1239/2/6 1275/2/6
f 1240/2/6 1255/2/6 1276/2/6
f 1255/2/6 1256/2/6 1276/2/6
f 1276/2/6 1256/2/6 1277/2/6
f 1257/2/6 1258/2/6 1280/2/6
f 1260/3/6 1261/3/6 1281/3/6
f 1281/3/6 1261/3/6 1282/3/6
f 1262/2/6 1263/2/6 1283/2/6
f 1283/2/6 1263/2/6 1284/2/6
f 1284/2/6 1263/2/6 1285/2/6
f 1263/3/6 1264/3/6 1286/3/6
f 1285/2/6 1263/2/6 1286/2/6
f 1286/3/6 1264/3/6 1287/3/6
f 1276/2/6 1277/2/6 1288/2/6
f 1277/2/6 1278/2/6 1288/2/6
f 1275/2/6 1276/2/6 1288/2/6
f 1274/2/6 1275/2/6 1288/2/6
f 1279/2/6 1280/2/6 1289/2/6
f 1282/1/6 1283/1/6 1291/1/6
f 1283/2/6 1284/2/6 1292/2/6
f 1291/1/6 1283/1/6 1292/1/6
f 1292/2/6 1284/2/6 1293/2/6
f 1293/2/6 1284/2/6 1294/2/6
f 1285/2/6 1286/2/6 1295/2/6
f 1295/2/6 1286/2/6 1296/2/6
f 1290/3/6 1291/3/6 1299/3/6
f 1299/3/6 1291/3/6 1300/3/6
f 1292/2/6 1293/2/6 1301/2/6
f 1301/2/6 1293/2/6 1302/2/6
f 1296/3/6 1297/3/6 1303/3/6
f 1303/3/6 1297/3/6 1304/3/6
f 1273/1/6 1274/1/6 1313/1/6
f 1274/2/6 1288/2/6 1314/2/6
f 1288/2/6 1289/2/6 1314/2/6
f 1313/1/6 1274/1/6 1314/1/6
f 1314/2/6 1289/2/6 1315/2/6
f 1315/2/6 1289/2/6 1316/2/6
f 1316/2/6 1289/2/6 1317/2/6
f 1280/2/6 1258/2/6 1318/2/6
f 1317/2/6 1289/2/6 1318/2/6
f 1289/2/6 1280/2/6 1318/2/6
f 1298/3/6 1299/3/6 1319/3/6
f 1319/3/6 1299/3/6 1320/3/6
f 1292/2/6 1301/2/6 1321/2/6
f 1321/2/6 1301/2/6 1322/2/6
f 1304/2/6 1305/2/6 1323/2/6
f 1305/3/6 1306/3/6 1324/3/6
f 1323/2/6 1305/2/6 1324/2/6
f 1306/2/6 1307/2/6 1325/2/6
f 1324/3/6 1306/3/6 1325/3/6
f 1307/3/6 1308/3/6 1326/3/6
f 1325/2/6 1307/2/6 1326/2/6
f 1308/2/6 1309/2/6 1327/2/6
f 1326/3/6 1308/3/6 1327/3/6
f 1309/3/6 1310/3/6 1328/3/6
f 1327/2/6 1309/2/6 1328/2/6
f 1310/2/6 1311/2/6 1329/2/6
f 1328/3/6 1310/3/6 1329/3/6
f 1311/3/6 1312/3/6 1330/3/6
f 1329/2/6 1311/2/6 1330/2/6
f 1312/2/6 1313/2/6 1331/2/6
f 1330/3/6 1312/3/6 1331/3/6
f 1331/2/6 1313/2/6 1332/2/6
f 1315/2/6 1316/2/6 1333/2/6
f 1333/2/6 1316/2/6 1334/2/6
f 1315/2/6 1333/2/6 1335/2/6
f 1335/2/6 1333/2/6 1336/2/6
f 1337/3/6 1338/3/6 1349/3/6
f 1339/2/6 1340/2/6 1352/2/6
f 1349/3/6 1350/3/6 1353/3/6
f 1337/3/6 1349/3/6 1353/3/6
f 1353/3/6 1350/3/6 1354/3/6
f 1351/3/6 1352/3/6 1355/3/6
f 1352/2/6 1340/2/6 1356/2/6
f 1355/3/6 1352/3/6 1356/3/6
f 1337/3/6 1353/3/6 1357/3/6
f 1357/3/6 1353/3/6 1358/3/6
f 1356/2/6 1340/2/6 1359/2/6
f 1340/3/6 1341/3/6 1360/3/6
f 1359/2/6 1340/2/6 1360/2/6
f 1341/2/6 1342/2/6 1361/2/6
f 1360/3/6 1341/3/6 1361/3/6
f 1342/3/6 1343/3/6 1362/3/6
f 1361/2/6 1342/2/6 1362/2/6
f 1343/2/6 1344/2/6 1363/2/6
f 1362/3/6 1343/3/6 1363/3/6
f 1344/3/6 1345/3/6 1364/3/6
f 1363/2/6 1344/2/6 1364/2/6
f 1345/2/6 1346/2/6 1365/2/6
f 1364/3/6 1345/3/6 1365/3/6
f 1346/3/6 1347/3/6 1366/3/6
f 1365/2/6 1346/2/6 1366/2/6
f 1347/2/6 1348/2/6 1367/2/6
f 1366/3/6 1347/3/6 1367/3/6
f 1367/2/6 1348/2/6 1368/2/6
f 1369/2/6 1370/2/6 1371/2/6
f 1371/2/6 1370/2/6 1372/2/6
