# MagicaVoxel @ Ephtracy

# group
o 

# material
mtllib shop.mtl
usemtl palette

# normals
vn -1 0 0
vn 1 0 0
vn 0 0 1
vn 0 0 -1
vn 0 -1 0
vn 0 1 0

# texcoords
vt 0.232422 0.5
vt 0.373047 0.5
vt 0.396484 0.5
vt 0.990234 0.5

# verts
v -1.6 0 1.6
v -1.6 0 -1.2
v -1.6 0.1 1.6
v -1.6 0.1 -1.2
v -0.7 0.5 0.7
v -0.7 0.5 -0.1
v -0.7 0.7 0.7
v -0.7 0.7 -0.1
v -0.6 0.1 0.6
v -0.6 0.1 0
v -0.6 0.5 0.6
v -0.6 0.5 0
v -0.5 0.1 0.7
v -0.5 0.1 0.6
v -0.5 0.1 0
v -0.5 0.1 -0.1
v -0.5 0.5 0.7
v -0.5 0.5 0.6
v -0.5 0.5 0
v -0.5 0.5 -0.1
v -0.1 0.1 0.5
v -0.1 0.1 0.4
v -0.1 0.1 0.2
v -0.1 0.1 0.1
v -0.1 0.5 0.5
v -0.1 0.5 0.4
v -0.1 0.5 0.2
v -0.1 0.5 0.1
v -0.3 0.1 0.7
v -0.3 0.1 0.6
v -0.3 0.1 0
v -0.3 0.1 -0.1
v -0.3 0.5 0.7
v -0.3 0.5 0.6
v -0.3 0.5 0
v -0.3 0.5 -0.1
v -0.2 0.1 0.6
v -0.2 0.1 0
v -0.2 0.5 0.6
v -0.2 0.5 0
v 0 0.1 0.5
v 0 0.1 0.4
v 0 0.1 0.2
v 0 0.1 0.1
v 0 0.5 0.5
v 0 0.5 0.4
v 0 0.5 0.2
v 0 0.5 0.1
v 0.1 0.5 0.7
v 0.1 0.5 -0.1
v 0.1 0.7 0.7
v 0.1 0.7 -0.1
v 1.1 0 1.6
v 1.1 0 -1.2
v 1.1 0.1 1.6
v 1.1 0.1 -1.2
v -1.6 0 1.6
v -1.6 0.1 1.6
v 1.1 0 1.6
v 1.1 0.1 1.6
v -0.7 0.5 0.7
v -0.7 0.7 0.7
v -0.5 0.1 0.7
v -0.5 0.5 0.7
v -0.3 0.1 0.7
v -0.3 0.5 0.7
v 0.1 0.5 0.7
v 0.1 0.7 0.7
v -0.6 0.1 0.6
v -0.6 0.5 0.6
v -0.5 0.1 0.6
v -0.5 0.5 0.6
v -0.3 0.1 0.6
v -0.3 0.5 0.6
v -0.2 0.1 0.6
v -0.2 0.5 0.6
v -0.1 0.1 0.5
v -0.1 0.5 0.5
v 0 0.1 0.5
v 0 0.5 0.5
v -0.1 0.1 0.2
v -0.1 0.5 0.2
v 0 0.1 0.2
v 0 0.5 0.2
v -0.1 0.1 0.4
v -0.1 0.5 0.4
v 0 0.1 0.4
v 0 0.5 0.4
v -0.1 0.1 0.1
v -0.1 0.5 0.1
v 0 0.1 0.1
v 0 0.5 0.1
v -0.6 0.1 0
v -0.6 0.5 0
v -0.5 0.1 0
v -0.5 0.5 0
v -0.3 0.1 0
v -0.3 0.5 0
v -0.2 0.1 0
v -0.2 0.5 0
v -0.7 0.5 -0.1
v -0.7 0.7 -0.1
v -0.5 0.1 -0.1
v -0.5 0.5 -0.1
v -0.3 0.1 -0.1
v -0.3 0.5 -0.1
v 0.1 0.5 -0.1
v 0.1 0.7 -0.1
v -1.6 0 -1.2
v -1.6 0.1 -1.2
v 1.1 0 -1.2
v 1.1 0.1 -1.2
v -1.6 0 1.6
v 1.1 0 1.6
v -1.6 0 -1.2
v 1.1 0 -1.2
v -0.7 0.5 0.7
v -0.5 0.5 0.7
v -0.3 0.5 0.7
v 0.1 0.5 0.7
v -0.6 0.5 0.6
v -0.5 0.5 0.6
v -0.3 0.5 0.6
v -0.2 0.5 0.6
v -0.1 0.5 0.5
v 0 0.5 0.5
v -0.1 0.5 0.4
v 0 0.5 0.4
v -0.1 0.5 0.2
v 0 0.5 0.2
v -0.1 0.5 0.1
v 0 0.5 0.1
v -0.6 0.5 0
v -0.5 0.5 0
v -0.3 0.5 0
v -0.2 0.5 0
v -0.7 0.5 -0.1
v -0.5 0.5 -0.1
v -0.3 0.5 -0.1
v 0.1 0.5 -0.1
v -1.6 0.1 1.6
v 1.1 0.1 1.6
v -0.5 0.1 0.7
v -0.3 0.1 0.7
v -0.6 0.1 0.6
v -0.5 0.1 0.6
v -0.3 0.1 0.6
v -0.2 0.1 0.6
v -0.1 0.1 0.5
v 0 0.1 0.5
v -0.1 0.1 0.4
v 0 0.1 0.4
v -0.1 0.1 0.2
v 0 0.1 0.2
v -0.1 0.1 0.1
v 0 0.1 0.1
v -0.6 0.1 0
v -0.5 0.1 0
v -0.3 0.1 0
v -0.2 0.1 0
v -0.5 0.1 -0.1
v -0.3 0.1 -0.1
v -1.6 0.1 -1.2
v 1.1 0.1 -1.2
v -0.7 0.7 0.7
v 0.1 0.7 0.7
v -0.7 0.7 -0.1
v 0.1 0.7 -0.1

# faces
f 3/4/1 2/4/1 1/4/1
f 4/4/1 2/4/1 3/4/1
f 7/3/1 6/3/1 5/3/1
f 8/3/1 6/3/1 7/3/1
f 11/2/1 10/2/1 9/2/1
f 12/2/1 10/2/1 11/2/1
f 17/2/1 14/2/1 13/2/1
f 18/2/1 14/2/1 17/2/1
f 19/2/1 16/2/1 15/2/1
f 20/2/1 16/2/1 19/2/1
f 25/1/1 22/1/1 21/1/1
f 26/1/1 22/1/1 25/1/1
f 27/1/1 24/1/1 23/1/1
f 28/1/1 24/1/1 27/1/1
f 29/2/2 30/2/2 33/2/2
f 33/2/2 30/2/2 34/2/2
f 31/2/2 32/2/2 35/2/2
f 35/2/2 32/2/2 36/2/2
f 37/2/2 38/2/2 39/2/2
f 39/2/2 38/2/2 40/2/2
f 41/1/2 42/1/2 45/1/2
f 45/1/2 42/1/2 46/1/2
f 43/1/2 44/1/2 47/1/2
f 47/1/2 44/1/2 48/1/2
f 49/3/2 50/3/2 51/3/2
f 51/3/2 50/3/2 52/3/2
f 53/4/2 54/4/2 55/4/2
f 55/4/2 54/4/2 56/4/2
f 59/4/3 58/4/3 57/4/3
f 60/4/3 58/4/3 59/4/3
f 64/3/3 62/3/3 61/3/3
f 65/2/3 64/2/3 63/2/3
f 66/3/3 62/3/3 64/3/3
f 66/2/3 64/2/3 65/2/3
f 67/3/3 62/3/3 66/3/3
f 68/3/3 62/3/3 67/3/3
f 71/2/3 70/2/3 69/2/3
f 72/2/3 70/2/3 71/2/3
f 75/2/3 74/2/3 73/2/3
f 76/2/3 74/2/3 75/2/3
f 79/1/3 78/1/3 77/1/3
f 80/1/3 78/1/3 79/1/3
f 83/1/3 82/1/3 81/1/3
f 84/1/3 82/1/3 83/1/3
f 85/1/4 86/1/4 87/1/4
f 87/1/4 86/1/4 88/1/4
f 89/1/4 90/1/4 91/1/4
f 91/1/4 90/1/4 92/1/4
f 93/2/4 94/2/4 95/2/4
f 95/2/4 94/2/4 96/2/4
f 97/2/4 98/2/4 99/2/4
f 99/2/4 98/2/4 100/2/4
f 101/3/4 102/3/4 104/3/4
f 103/2/4 104/2/4 105/2/4
f 104/3/4 102/3/4 106/3/4
f 105/2/4 104/2/4 106/2/4
f 106/3/4 102/3/4 107/3/4
f 107/3/4 102/3/4 108/3/4
f 109/4/4 110/4/4 111/4/4
f 111/4/4 110/4/4 112/4/4
f 115/4/5 114/4/5 113/4/5
f 116/4/5 114/4/5 115/4/5
f 121/3/5 118/3/5 117/3/5
f 122/3/5 118/3/5 121/3/5
f 123/3/5 120/3/5 119/3/5
f 124/3/5 120/3/5 123/3/5
f 125/3/5 120/3/5 124/3/5
f 126/3/5 120/3/5 125/3/5
f 127/3/5 125/3/5 124/3/5
f 128/3/5 120/3/5 126/3/5
f 129/3/5 127/3/5 124/3/5
f 129/3/5 128/3/5 127/3/5
f 130/3/5 120/3/5 128/3/5
f 130/3/5 128/3/5 129/3/5
f 131/3/5 129/3/5 124/3/5
f 132/3/5 120/3/5 130/3/5
f 133/3/5 121/3/5 117/3/5
f 136/3/5 132/3/5 131/3/5
f 136/3/5 131/3/5 124/3/5
f 137/3/5 134/3/5 133/3/5
f 137/3/5 133/3/5 117/3/5
f 138/3/5 134/3/5 137/3/5
f 139/3/5 136/3/5 135/3/5
f 140/3/5 132/3/5 136/3/5
f 140/3/5 136/3/5 139/3/5
f 140/3/5 120/3/5 132/3/5
f 141/4/6 142/4/6 143/4/6
f 143/4/6 142/4/6 144/4/6
f 141/4/6 143/4/6 145/4/6
f 145/4/6 143/4/6 146/4/6
f 144/4/6 142/4/6 147/4/6
f 147/4/6 142/4/6 148/4/6
f 148/4/6 142/4/6 149/4/6
f 149/4/6 142/4/6 150/4/6
f 148/4/6 149/4/6 151/4/6
f 150/4/6 142/4/6 152/4/6
f 148/4/6 151/4/6 153/4/6
f 151/4/6 152/4/6 153/4/6
f 152/4/6 142/4/6 154/4/6
f 153/4/6 152/4/6 154/4/6
f 148/4/6 153/4/6 155/4/6
f 154/4/6 142/4/6 156/4/6
f 141/4/6 145/4/6 157/4/6
f 155/4/6 156/4/6 160/4/6
f 148/4/6 155/4/6 160/4/6
f 157/4/6 158/4/6 161/4/6
f 159/4/6 160/4/6 162/4/6
f 157/4/6 161/4/6 163/4/6
f 161/4/6 162/4/6 163/4/6
f 141/4/6 157/4/6 163/4/6
f 162/4/6 160/4/6 164/4/6
f 163/4/6 162/4/6 164/4/6
f 156/4/6 142/4/6 164/4/6
f 160/4/6 156/4/6 164/4/6
f 165/3/6 166/3/6 167/3/6
f 167/3/6 166/3/6 168/3/6
