# MagicaVoxel @ Ephtracy

# group
o 

# material
mtllib bank.mtl
usemtl palette

# normals
vn -1 0 0
vn 1 0 0
vn 0 0 1
vn 0 0 -1
vn 0 -1 0
vn 0 1 0

# texcoords
vt 0.939453 0.5
vt 0.970703 0.5
vt 0.974609 0.5
vt 0.978516 0.5
vt 0.994141 0.5

# verts
v -1.3 0 0.6
v -1.3 0 -0.9
v -1.3 0.4 0.6
v -1.3 0.4 0.5
v -1.3 1.5 0.5
v -1.3 1.5 0.4
v -1.3 1.6 0.4
v -1.3 1.6 0.3
v -1.3 1.7 0.3
v -1.3 1.7 0.2
v -1.3 1.8 0.2
v -1.3 1.8 0.0999999
v -1.3 1.8 -0.8
v -1.3 1.8 -0.9
v -1.3 1.9 0.0999999
v -1.3 1.9 -0.3
v -1.3 1.9 -0.7
v -1.3 1.9 -0.8
v -1.3 2 -0.3
v -1.3 2 -0.7
v -1.2 1.8 -0.8
v -1.2 1.8 -0.9
v -1.2 1.9 -0.2
v -1.2 1.9 -0.3
v -1.2 1.9 -0.7
v -1.2 1.9 -0.8
v -1.2 1.9 -0.9
v -1.2 2 -0.2
v -1.2 2 -0.3
v -1.2 2 -0.6
v -1.2 2 -0.7
v -1.2 2 -0.8
v -1.2 2.1 -0.3
v -1.2 2.1 -0.4
v -1.2 2.1 -0.6
v -1.2 2.2 -0.4
v -1.2 2.2 -0.6
v -1.1 1.9 -0.8
v -1.1 1.9 -0.9
v -1.1 2 -0.6
v -1.1 2 -0.7
v -1.1 2 -0.8
v -1.1 2 -0.9
v -1.1 2.1 -0.6
v -1.1 2.1 -0.7
v -1.1 2.2 -0.4
v -1.1 2.2 -0.6
v -1.1 2.3 -0.4
v -1.1 2.3 -0.6
v -1 0.5 0.2
v -1 0.5 0.0999999
v -1 1.2 0.2
v -1 1.2 0.0999999
v -1 1.3 0.0999999
v -1 1.3 -5.96046e-08
v -1 1.4 0.0999999
v -1 1.4 -5.96046e-08
v -1 1.5 0.0999999
v -1 1.5 -5.96046e-08
v -1 1.6 0.0999999
v -1 1.6 -5.96046e-08
v -1 2 -0.7
v -1 2 -0.8
v -1 2.1 -0.7
v -1 2.1 -0.8
v -1 2.3 -0.4
v -1 2.3 -0.6
v -1 2.4 -0.4
v -1 2.4 -0.6
v -0.9 1.5 -0.2
v -0.9 1.5 -0.3
v -0.9 1.6 -0.2
v -0.9 1.6 -0.3
v -0.9 1.7 -0.2
v -0.9 1.7 -0.3
v -0.9 1.8 -0.2
v -0.9 1.8 -0.3
v -0.9 2.4 -0.4
v -0.9 2.4 -0.6
v -0.9 2.5 -0.4
v -0.9 2.5 -0.6
v -0.7 0.6 0.3
v -0.7 0.6 0.2
v -0.7 0.6 0.0999999
v -0.7 0.8 0.3
v -0.7 0.8 0.2
v -0.7 0.8 0.0999999
v -0.7 0.9 0.3
v -0.7 0.9 0.2
v -0.7 0.9 0.0999999
v -0.7 1.1 0.3
v -0.7 1.1 0.2
v -0.7 1.1 0.0999999
v -0.7 1.3 0.0999999
v -0.7 1.3 -5.96046e-08
v -0.7 1.4 0.0999999
v -0.7 1.4 -5.96046e-08
v -0.7 1.5 0.0999999
v -0.7 1.5 -5.96046e-08
v -0.7 1.5 -0.2
v -0.7 1.5 -0.3
v -0.7 1.6 0.0999999
v -0.7 1.6 -5.96046e-08
v -0.7 1.6 -0.2
v -0.7 1.6 -0.3
v -0.7 1.7 -0.2
v -0.7 1.7 -0.3
v -0.7 1.8 -0.2
v -0.7 1.8 -0.3
v -0.6 2.5 -0.4
v -0.6 2.5 -0.6
v -0.6 2.6 -0.4
v -0.6 2.6 -0.6
v -0.5 2.6 -0.4
v -0.5 2.6 -0.6
v -0.5 2.7 -0.4
v -0.5 2.7 -0.6
v -0.4 0.6 0.3
v -0.4 0.6 0.2
v -0.4 0.6 0.0999999
v -0.4 0.8 0.3
v -0.4 0.8 0.2
v -0.4 0.8 0.0999999
v -0.4 0.9 0.3
v -0.4 0.9 0.2
v -0.4 0.9 0.0999999
v -0.4 1.1 0.3
v -0.4 1.1 0.2
v -0.4 1.1 0.0999999
v -0.4 1.3 0.0999999
v -0.4 1.3 -5.96046e-08
v -0.4 1.4 0.0999999
v -0.4 1.4 -5.96046e-08
v -0.4 1.5 0.0999999
v -0.4 1.5 -5.96046e-08
v -0.4 1.6 0.0999999
v -0.4 1.6 -5.96046e-08
v -0.4 2.7 -0.4
v -0.4 2.7 -0.6
v -0.4 2.8 -0.4
v -0.4 2.8 -0.6
v -0.3 2.8 -0.4
v -0.3 2.8 -0.6
v -0.3 2.9 -0.4
v -0.3 2.9 -0.6
v -0.2 2.9 -0.4
v -0.2 2.9 -0.6
v -0.2 3 -0.4
v -0.2 3 -0.6
v -0.0999999 1.3 0.0999999
v -0.0999999 1.3 -5.96046e-08
v -0.0999999 1.4 0.0999999
v -0.0999999 1.4 -5.96046e-08
v -0.0999999 1.5 0.0999999
v -0.0999999 1.5 -5.96046e-08
v -0.0999999 1.6 0.0999999
v -0.0999999 1.6 -5.96046e-08
v 0 1.5 -0.2
v 0 1.5 -0.3
v 0 1.6 -0.2
v 0 1.6 -0.3
v 0 1.7 -0.2
v 0 1.7 -0.3
v 0 1.8 -0.2
v 0 1.8 -0.3
v 0.2 1.3 0.0999999
v 0.2 1.3 -5.96046e-08
v 0.2 1.4 0.0999999
v 0.2 1.4 -5.96046e-08
v 0.2 1.5 0.0999999
v 0.2 1.5 -5.96046e-08
v 0.2 1.6 0.0999999
v 0.2 1.6 -5.96046e-08
v 0.3 1.5 -0.2
v 0.3 1.5 -0.3
v 0.3 1.6 -0.2
v 0.3 1.6 -0.3
v 0.3 1.7 -0.2
v 0.3 1.7 -0.3
v 0.3 1.8 -0.2
v 0.3 1.8 -0.3
v 0.4 0.4 0.2
v 0.4 0.4 0.0999999
v 0.4 1.1 0.2
v 0.4 1.1 0.0999999
v 0.4 1.2 0.3
v 0.4 1.2 0.2
v 0.4 1.3 0.3
v 0.4 1.3 0.2
v 0.5 1.3 0.0999999
v 0.5 1.3 -5.96046e-08
v 0.5 1.4 0.0999999
v 0.5 1.4 -5.96046e-08
v 0.5 1.5 0.0999999
v 0.5 1.5 -5.96046e-08
v 0.5 1.6 0.0999999
v 0.5 1.6 -5.96046e-08
v 0.8 0.6 0.3
v 0.8 0.6 0.2
v 0.8 0.6 0.0999999
v 0.8 0.8 0.3
v 0.8 0.8 0.2
v 0.8 0.8 0.0999999
v 0.8 0.9 0.3
v 0.8 0.9 0.2
v 0.8 0.9 0.0999999
v 0.8 1.1 0.3
v 0.8 1.1 0.2
v 0.8 1.1 0.0999999
v 0.8 1.3 0.0999999
v 0.8 1.3 -5.96046e-08
v 0.8 1.4 0.0999999
v 0.8 1.4 -5.96046e-08
v 0.8 1.5 0.0999999
v 0.8 1.5 -5.96046e-08
v 0.8 1.6 0.0999999
v 0.8 1.6 -5.96046e-08
v 1 1.5 -0.2
v 1 1.5 -0.3
v 1 1.6 -0.2
v 1 1.6 -0.3
v 1 1.7 -0.2
v 1 1.7 -0.3
v 1 1.8 -0.2
v 1 1.8 -0.3
v 1.1 0.6 0.3
v 1.1 0.6 0.2
v 1.1 0.6 0.0999999
v 1.1 0.8 0.3
v 1.1 0.8 0.2
v 1.1 0.8 0.0999999
v 1.1 0.9 0.3
v 1.1 0.9 0.2
v 1.1 0.9 0.0999999
v 1.1 1.1 0.3
v 1.1 1.1 0.2
v 1.1 1.1 0.0999999
v 1.1 1.3 0.0999999
v 1.1 1.3 -5.96046e-08
v 1.1 1.4 0.0999999
v 1.1 1.4 -5.96046e-08
v 1.1 1.5 0.0999999
v 1.1 1.5 -5.96046e-08
v 1.1 1.6 0.0999999
v 1.1 1.6 -5.96046e-08
v 1.2 1.5 -0.2
v 1.2 1.5 -0.3
v 1.2 1.6 -0.2
v 1.2 1.6 -0.3
v 1.2 1.7 -0.2
v 1.2 1.7 -0.3
v 1.2 1.8 -0.2
v 1.2 1.8 -0.3
v 1.2 1.9 -0.7
v 1.2 1.9 -0.8
v 1.2 2 -0.7
v 1.2 2 -0.8
v 1.3 0.4 0.2
v 1.3 0.4 0.0999999
v 1.3 0.5 0.2
v 1.3 1.2 0.2
v 1.3 1.2 0.0999999
v 1.3 1.9 -0.6
v 1.3 1.9 -0.7
v 1.3 2 -0.6
v 1.3 2 -0.7
v 1.4 0.3 0.6
v 1.4 0.3 0.5
v 1.4 0.4 0.6
v 1.4 0.4 0.5
v 1.4 0.4 0.3
v 1.4 0.4 0.0999999
v 1.4 0.4 -0.8
v 1.4 1.2 0.0999999
v 1.4 1.2 -0.8
v 1.4 1.3 0.3
v 1.4 1.3 -0.2
v 1.4 1.3 -0.3
v 1.4 1.3 -0.8
v 1.4 1.4 0.0999999
v 1.4 1.4 -5.96046e-08
v 1.4 1.5 0.5
v 1.4 1.5 0.4
v 1.4 1.5 0.0999999
v 1.4 1.5 -5.96046e-08
v 1.4 1.6 0.4
v 1.4 1.6 0.3
v 1.4 1.7 0.3
v 1.4 1.7 0.2
v 1.4 1.8 0.2
v 1.4 1.8 0.0999999
v 1.4 1.9 0.0999999
v 1.4 1.9 -0.2
v 1.4 1.9 -0.6
v 1.4 1.9 -0.8
v 1.4 2 -0.3
v 1.4 2 -0.6
v -1.2 0.3 0.6
v -1.2 0.3 0.5
v -1.2 0.4 0.6
v -1.2 0.4 0.5
v -1.2 0.4 0.3
v -1.2 0.4 0.0999999
v -1.2 0.4 -0.8
v -1.2 1.2 0.0999999
v -1.2 1.2 -0.8
v -1.2 1.3 0.3
v -1.2 1.3 -0.2
v -1.2 1.3 -0.3
v -1.2 1.3 -0.8
v -1.2 1.4 0.0999999
v -1.2 1.4 -5.96046e-08
v -1.2 1.5 0.5
v -1.2 1.5 0.4
v -1.2 1.5 0.0999999
v -1.2 1.5 -5.96046e-08
v -1.2 1.6 0.4
v -1.2 1.6 0.3
v -1.2 1.7 0.3
v -1.2 1.7 0.2
v -1.2 1.8 0.2
v -1.2 1.8 0.0999999
v -1.2 1.9 0.0999999
v -1.2 1.9 -0.2
v -1.2 1.9 -0.3
v -1.2 1.9 -0.8
v -1.1 0.5 0.2
v -1.1 0.5 0.0999999
v -1.1 1.2 0.2
v -1.1 1.2 0.0999999
v -1 1.5 -0.2
v -1 1.5 -0.3
v -1 1.6 -0.2
v -1 1.6 -0.3
v -1 1.7 -0.2
v -1 1.7 -0.3
v -1 1.8 -0.2
v -1 1.8 -0.3
v -1 1.9 -0.3
v -1 1.9 -0.8
v -1 2 -0.3
v -1 2 -0.8
v -0.9 0.6 0.3
v -0.9 0.6 0.2
v -0.9 0.6 0.0999999
v -0.9 0.8 0.3
v -0.9 0.8 0.2
v -0.9 0.8 0.0999999
v -0.9 0.9 0.3
v -0.9 0.9 0.2
v -0.9 0.9 0.0999999
v -0.9 1.1 0.3
v -0.9 1.1 0.2
v -0.9 1.1 0.0999999
v -0.9 1.3 0.0999999
v -0.9 1.3 -5.96046e-08
v -0.9 1.4 0.0999999
v -0.9 1.4 -5.96046e-08
v -0.9 1.5 0.0999999
v -0.9 1.5 -5.96046e-08
v -0.9 1.6 0.0999999
v -0.9 1.6 -5.96046e-08
v -0.8 1.5 -0.2
v -0.8 1.5 -0.3
v -0.8 1.6 -0.2
v -0.8 1.6 -0.3
v -0.8 1.7 -0.2
v -0.8 1.7 -0.3
v -0.8 1.8 -0.2
v -0.8 1.8 -0.3
v -0.6 0.6 0.3
v -0.6 0.6 0.2
v -0.6 0.6 0.0999999
v -0.6 0.8 0.3
v -0.6 0.8 0.2
v -0.6 0.8 0.0999999
v -0.6 0.9 0.3
v -0.6 0.9 0.2
v -0.6 0.9 0.0999999
v -0.6 1.1 0.3
v -0.6 1.1 0.2
v -0.6 1.1 0.0999999
v -0.6 1.3 0.0999999
v -0.6 1.3 -5.96046e-08
v -0.6 1.4 0.0999999
v -0.6 1.4 -5.96046e-08
v -0.6 1.5 0.0999999
v -0.6 1.5 -5.96046e-08
v -0.6 1.6 0.0999999
v -0.6 1.6 -5.96046e-08
v -0.3 1.3 0.0999999
v -0.3 1.3 -5.96046e-08
v -0.3 1.4 0.0999999
v -0.3 1.4 -5.96046e-08
v -0.3 1.5 0.0999999
v -0.3 1.5 -5.96046e-08
v -0.3 1.6 0.0999999
v -0.3 1.6 -5.96046e-08
v -0.2 0.4 0.2
v -0.2 0.4 0.0999999
v -0.2 1.1 0.2
v -0.2 1.1 0.0999999
v -0.2 1.2 0.3
v -0.2 1.2 0.2
v -0.2 1.3 0.3
v -0.2 1.3 0.2
v -0.0999999 1.5 -0.2
v -0.0999999 1.5 -0.3
v -0.0999999 1.6 -0.2
v -0.0999999 1.6 -0.3
v -0.0999999 1.7 -0.2
v -0.0999999 1.7 -0.3
v -0.0999999 1.8 -0.2
v -0.0999999 1.8 -0.3
v 0 1.3 0.0999999
v 0 1.3 -5.96046e-08
v 0 1.4 0.0999999
v 0 1.4 -5.96046e-08
v 0 1.5 0.0999999
v 0 1.5 -5.96046e-08
v 0 1.6 0.0999999
v 0 1.6 -5.96046e-08
v 0.2 1.5 -0.2
v 0.2 1.5 -0.3
v 0.2 1.6 -0.2
v 0.2 1.6 -0.3
v 0.2 1.7 -0.2
v 0.2 1.7 -0.3
v 0.2 1.8 -0.2
v 0.2 1.8 -0.3
v 0.3 1.3 0.0999999
v 0.3 1.3 -5.96046e-08
v 0.3 1.4 0.0999999
v 0.3 1.4 -5.96046e-08
v 0.3 1.5 0.0999999
v 0.3 1.5 -5.96046e-08
v 0.3 1.6 0.0999999
v 0.3 1.6 -5.96046e-08
v 0.4 2.9 -0.4
v 0.4 2.9 -0.6
v 0.4 3 -0.4
v 0.4 3 -0.6
v 0.5 2.8 -0.4
v 0.5 2.8 -0.6
v 0.5 2.9 -0.4
v 0.5 2.9 -0.6
v 0.6 0.6 0.3
v 0.6 0.6 0.2
v 0.6 0.6 0.0999999
v 0.6 0.8 0.3
v 0.6 0.8 0.2
v 0.6 0.8 0.0999999
v 0.6 0.9 0.3
v 0.6 0.9 0.2
v 0.6 0.9 0.0999999
v 0.6 1.1 0.3
v 0.6 1.1 0.2
v 0.6 1.1 0.0999999
v 0.6 1.3 0.0999999
v 0.6 1.3 -5.96046e-08
v 0.6 1.4 0.0999999
v 0.6 1.4 -5.96046e-08
v 0.6 1.5 0.0999999
v 0.6 1.5 -5.96046e-08
v 0.6 1.6 0.0999999
v 0.6 1.6 -5.96046e-08
v 0.6 2.7 -0.4
v 0.6 2.7 -0.6
v 0.6 2.8 -0.4
v 0.6 2.8 -0.6
v 0.7 2.6 -0.4
v 0.7 2.6 -0.6
v 0.7 2.7 -0.4
v 0.7 2.7 -0.6
v 0.8 2.5 -0.4
v 0.8 2.5 -0.6
v 0.8 2.6 -0.4
v 0.8 2.6 -0.6
v 0.9 0.6 0.3
v 0.9 0.6 0.2
v 0.9 0.6 0.0999999
v 0.9 0.8 0.3
v 0.9 0.8 0.2
v 0.9 0.8 0.0999999
v 0.9 0.9 0.3
v 0.9 0.9 0.2
v 0.9 0.9 0.0999999
v 0.9 1.1 0.3
v 0.9 1.1 0.2
v 0.9 1.1 0.0999999
v 0.9 1.3 0.0999999
v 0.9 1.3 -5.96046e-08
v 0.9 1.4 0.0999999
v 0.9 1.4 -5.96046e-08
v 0.9 1.5 0.0999999
v 0.9 1.5 -5.96046e-08
v 0.9 1.5 -0.2
v 0.9 1.5 -0.3
v 0.9 1.6 0.0999999
v 0.9 1.6 -5.96046e-08
v 0.9 1.6 -0.2
v 0.9 1.6 -0.3
v 0.9 1.7 -0.2
v 0.9 1.7 -0.3
v 0.9 1.8 -0.2
v 0.9 1.8 -0.3
v 1.1 1.5 -0.2
v 1.1 1.5 -0.3
v 1.1 1.6 -0.2
v 1.1 1.6 -0.3
v 1.1 1.7 -0.2
v 1.1 1.7 -0.3
v 1.1 1.8 -0.2
v 1.1 1.8 -0.3
v 1.1 2.4 -0.4
v 1.1 2.4 -0.6
v 1.1 2.5 -0.4
v 1.1 2.5 -0.6
v 1.2 0.4 0.2
v 1.2 0.4 0.0999999
v 1.2 0.5 0.2
v 1.2 0.5 0.0999999
v 1.2 1.2 0.2
v 1.2 1.2 0.0999999
v 1.2 1.3 0.0999999
v 1.2 1.3 -5.96046e-08
v 1.2 1.4 0.0999999
v 1.2 1.4 -5.96046e-08
v 1.2 1.5 0.0999999
v 1.2 1.5 -5.96046e-08
v 1.2 1.6 0.0999999
v 1.2 1.6 -5.96046e-08
v 1.2 2 -0.7
v 1.2 2 -0.8
v 1.2 2.1 -0.7
v 1.2 2.1 -0.8
v 1.2 2.3 -0.4
v 1.2 2.3 -0.6
v 1.2 2.4 -0.4
v 1.2 2.4 -0.6
v 1.3 1.9 -0.8
v 1.3 1.9 -0.9
v 1.3 2 -0.6
v 1.3 2 -0.7
v 1.3 2 -0.8
v 1.3 2 -0.9
v 1.3 2.1 -0.6
v 1.3 2.1 -0.7
v 1.3 2.2 -0.4
v 1.3 2.2 -0.6
v 1.3 2.3 -0.4
v 1.3 2.3 -0.6
v 1.4 1.8 -0.8
v 1.4 1.8 -0.9
v 1.4 1.9 -0.2
v 1.4 1.9 -0.3
v 1.4 1.9 -0.7
v 1.4 1.9 -0.8
v 1.4 1.9 -0.9
v 1.4 2 -0.2
v 1.4 2 -0.3
v 1.4 2 -0.6
v 1.4 2 -0.7
v 1.4 2 -0.8
v 1.4 2.1 -0.3
v 1.4 2.1 -0.4
v 1.4 2.1 -0.6
v 1.4 2.2 -0.4
v 1.4 2.2 -0.6
v 1.5 0 0.6
v 1.5 0 -0.9
v 1.5 0.4 0.6
v 1.5 0.4 0.5
v 1.5 1.5 0.5
v 1.5 1.5 0.4
v 1.5 1.6 0.4
v 1.5 1.6 0.3
v 1.5 1.7 0.3
v 1.5 1.7 0.2
v 1.5 1.8 0.2
v 1.5 1.8 0.0999999
v 1.5 1.8 -0.8
v 1.5 1.8 -0.9
v 1.5 1.9 0.0999999
v 1.5 1.9 -0.3
v 1.5 1.9 -0.7
v 1.5 1.9 -0.8
v 1.5 2 -0.3
v 1.5 2 -0.7
v -1.3 0 0.6
v -1.3 0.4 0.6
v -1.2 0.3 0.6
v -1.2 0.4 0.6
v 1.4 0.3 0.6
v 1.4 0.4 0.6
v 1.5 0 0.6
v 1.5 0.4 0.6
v -1.3 0.4 0.5
v -1.3 1.5 0.5
v -1.2 0.3 0.5
v -1.2 0.4 0.5
v -1.2 1.5 0.5
v -1 0.3 0.5
v -1 0.4 0.5
v -0.8 0.3 0.5
v -0.8 0.4 0.5
v -0.6 0.3 0.5
v -0.6 0.4 0.5
v -0.4 0.3 0.5
v -0.4 0.4 0.5
v -0.2 0.3 0.5
v -0.2 0.4 0.5
v 0 0.3 0.5
v 0 0.4 0.5
v 0.2 0.3 0.5
v 0.2 0.4 0.5
v 0.4 0.3 0.5
v 0.4 0.4 0.5
v 0.6 0.3 0.5
v 0.6 0.4 0.5
v 0.8 0.3 0.5
v 0.8 0.4 0.5
v 1 0.3 0.5
v 1 0.4 0.5
v 1.2 0.3 0.5
v 1.2 0.4 0.5
v 1.4 0.3 0.5
v 1.4 0.4 0.5
v 1.4 1.5 0.5
v 1.5 0.4 0.5
v 1.5 1.5 0.5
v -1.3 1.5 0.4
v -1.3 1.6 0.4
v -1.2 1.5 0.4
v -1.2 1.6 0.4
v 1.4 1.5 0.4
v 1.4 1.6 0.4
v 1.5 1.5 0.4
v 1.5 1.6 0.4
v -1.3 1.6 0.3
v -1.3 1.7 0.3
v -1.2 0.4 0.3
v -1.2 1.3 0.3
v -1.2 1.6 0.3
v -1.2 1.7 0.3
v -1.1 0.5 0.3
v -1.1 1.2 0.3
v -1 0.4 0.3
v -1 0.5 0.3
v -1 1.2 0.3
v -0.9 0.6 0.3
v -0.9 0.8 0.3
v -0.9 0.9 0.3
v -0.9 1.1 0.3
v -0.8 0.4 0.3
v -0.7 0.6 0.3
v -0.7 0.8 0.3
v -0.7 0.9 0.3
v -0.7 1.1 0.3
v -0.6 0.4 0.3
v -0.6 0.6 0.3
v -0.6 0.8 0.3
v -0.6 0.9 0.3
v -0.6 1.1 0.3
v -0.4 0.4 0.3
v -0.4 0.6 0.3
v -0.4 0.8 0.3
v -0.4 0.9 0.3
v -0.4 1.1 0.3
v -0.3 0.5 0.3
v -0.3 1.2 0.3
v -0.2 0.4 0.3
v -0.2 1.1 0.3
v -0.2 1.2 0.3
v -0.2 1.3 0.3
v -0.0999999 0.5 0.3
v -0.0999999 0.7 0.3
v -0.0999999 0.8 0.3
v -0.0999999 1 0.3
v 0 0.4 0.3
v 0 0.5 0.3
v 0 0.7 0.3
v 0 0.8 0.3
v 0 1 0.3
v 0.1 0.6 0.3
v 0.1 0.7 0.3
v 0.2 0.4 0.3
v 0.2 0.5 0.3
v 0.2 0.6 0.3
v 0.2 0.8 0.3
v 0.2 1 0.3
v 0.3 0.5 0.3
v 0.3 0.6 0.3
v 0.3 0.7 0.3
v 0.3 0.8 0.3
v 0.3 1 0.3
v 0.4 0.4 0.3
v 0.4 1.1 0.3
v 0.4 1.2 0.3
v 0.4 1.3 0.3
v 0.5 0.5 0.3
v 0.5 1.2 0.3
v 0.6 0.4 0.3
v 0.6 0.6 0.3
v 0.6 0.8 0.3
v 0.6 0.9 0.3
v 0.6 1.1 0.3
v 0.8 0.4 0.3
v 0.8 0.6 0.3
v 0.8 0.8 0.3
v 0.8 0.9 0.3
v 0.8 1.1 0.3
v 0.9 0.6 0.3
v 0.9 0.8 0.3
v 0.9 0.9 0.3
v 0.9 1.1 0.3
v 1 0.4 0.3
v 1.1 0.6 0.3
v 1.1 0.8 0.3
v 1.1 0.9 0.3
v 1.1 1.1 0.3
v 1.2 0.4 0.3
v 1.2 0.5 0.3
v 1.2 1.2 0.3
v 1.3 0.5 0.3
v 1.3 1.2 0.3
v 1.4 0.4 0.3
v 1.4 1.3 0.3
v 1.4 1.6 0.3
v 1.4 1.7 0.3
v 1.5 1.6 0.3
v 1.5 1.7 0.3
v -1.3 1.7 0.2
v -1.3 1.8 0.2
v -1.2 1.7 0.2
v -1.2 1.8 0.2
v -0.2 1.2 0.2
v -0.2 1.3 0.2
v 0.4 1.2 0.2
v 0.4 1.3 0.2
v 1.4 1.7 0.2
v 1.4 1.8 0.2
v 1.5 1.7 0.2
v 1.5 1.8 0.2
v -1.3 1.8 0.0999999
v -1.3 1.9 0.0999999
v -1.2 1.4 0.0999999
v -1.2 1.5 0.0999999
v -1.2 1.8 0.0999999
v -1.2 1.9 0.0999999
v -1 1.3 0.0999999
v -1 1.4 0.0999999
v -1 1.5 0.0999999
v -1 1.6 0.0999999
v -0.9 1.3 0.0999999
v -0.9 1.4 0.0999999
v -0.9 1.5 0.0999999
v -0.9 1.6 0.0999999
v -0.7 1.3 0.0999999
v -0.7 1.4 0.0999999
v -0.7 1.5 0.0999999
v -0.7 1.6 0.0999999
v -0.6 1.3 0.0999999
v -0.6 1.4 0.0999999
v -0.6 1.5 0.0999999
v -0.6 1.6 0.0999999
v -0.4 1.3 0.0999999
v -0.4 1.4 0.0999999
v -0.4 1.5 0.0999999
v -0.4 1.6 0.0999999
v -0.3 1.3 0.0999999
v -0.3 1.4 0.0999999
v -0.3 1.5 0.0999999
v -0.3 1.6 0.0999999
v -0.0999999 1.3 0.0999999
v -0.0999999 1.4 0.0999999
v -0.0999999 1.5 0.0999999
v -0.0999999 1.6 0.0999999
v 0 1.3 0.0999999
v 0 1.4 0.0999999
v 0 1.5 0.0999999
v 0 1.6 0.0999999
v 0.2 1.3 0.0999999
v 0.2 1.4 0.0999999
v 0.2 1.5 0.0999999
v 0.2 1.6 0.0999999
v 0.3 1.3 0.0999999
v 0.3 1.4 0.0999999
v 0.3 1.5 0.0999999
v 0.3 1.6 0.0999999
v 0.5 1.3 0.0999999
v 0.5 1.4 0.0999999
v 0.5 1.5 0.0999999
v 0.5 1.6 0.0999999
v 0.6 1.3 0.0999999
v 0.6 1.4 0.0999999
v 0.6 1.5 0.0999999
v 0.6 1.6 0.0999999
v 0.8 1.3 0.0999999
v 0.8 1.4 0.0999999
v 0.8 1.5 0.0999999
v 0.8 1.6 0.0999999
v 0.9 1.3 0.0999999
v 0.9 1.4 0.0999999
v 0.9 1.5 0.0999999
v 0.9 1.6 0.0999999
v 1.1 1.3 0.0999999
v 1.1 1.4 0.0999999
v 1.1 1.5 0.0999999
v 1.1 1.6 0.0999999
v 1.2 1.3 0.0999999
v 1.2 1.4 0.0999999
v 1.2 1.5 0.0999999
v 1.2 1.6 0.0999999
v 1.4 1.4 0.0999999
v 1.4 1.5 0.0999999
v 1.4 1.8 0.0999999
v 1.4 1.9 0.0999999
v 1.5 1.8 0.0999999
v 1.5 1.9 0.0999999
v -1.2 1.3 -0.2
v -1.2 1.9 -0.2
v -1.2 2 -0.2
v -1.1 1.4 -0.2
v -1.1 1.9 -0.2
v -1 1.5 -0.2
v -1 1.6 -0.2
v -1 1.7 -0.2
v -1 1.8 -0.2
v -0.9 1.5 -0.2
v -0.9 1.6 -0.2
v -0.9 1.7 -0.2
v -0.9 1.8 -0.2
v -0.8 1.5 -0.2
v -0.8 1.6 -0.2
v -0.8 1.7 -0.2
v -0.8 1.8 -0.2
v -0.7 1.5 -0.2
v -0.7 1.6 -0.2
v -0.7 1.7 -0.2
v -0.7 1.8 -0.2
v -0.6 1.4 -0.2
v -0.6 1.9 -0.2
v -0.5 1.4 -0.2
v -0.5 1.9 -0.2
v -0.3 1.4 -0.2
v -0.3 1.9 -0.2
v -0.2 1.4 -0.2
v -0.2 1.9 -0.2
v -0.0999999 1.5 -0.2
v -0.0999999 1.6 -0.2
v -0.0999999 1.7 -0.2
v -0.0999999 1.8 -0.2
v 0 1.5 -0.2
v 0 1.6 -0.2
v 0 1.7 -0.2
v 0 1.8 -0.2
v 0.2 1.5 -0.2
v 0.2 1.6 -0.2
v 0.2 1.7 -0.2
v 0.2 1.8 -0.2
v 0.3 1.5 -0.2
v 0.3 1.6 -0.2
v 0.3 1.7 -0.2
v 0.3 1.8 -0.2
v 0.4 1.4 -0.2
v 0.4 1.9 -0.2
v 0.5 1.4 -0.2
v 0.5 1.9 -0.2
v 0.7 1.4 -0.2
v 0.7 1.9 -0.2
v 0.8 1.4 -0.2
v 0.8 1.9 -0.2
v 0.9 1.5 -0.2
v 0.9 1.6 -0.2
v 0.9 1.7 -0.2
v 0.9 1.8 -0.2
v 1 1.5 -0.2
v 1 1.6 -0.2
v 1 1.7 -0.2
v 1 1.8 -0.2
v 1.1 1.5 -0.2
v 1.1 1.6 -0.2
v 1.1 1.7 -0.2
v 1.1 1.8 -0.2
v 1.2 1.5 -0.2
v 1.2 1.6 -0.2
v 1.2 1.7 -0.2
v 1.2 1.8 -0.2
v 1.3 1.4 -0.2
v 1.3 1.9 -0.2
v 1.4 1.3 -0.2
v 1.4 1.9 -0.2
v 1.4 2 -0.2
v -1.3 1.9 -0.3
v -1.3 2 -0.3
v -1.2 1.9 -0.3
v -1.2 2 -0.3
v -1.2 2.1 -0.3
v 1.4 1.9 -0.3
v 1.4 2 -0.3
v 1.4 2.1 -0.3
v 1.5 1.9 -0.3
v 1.5 2 -0.3
v -1.2 2.1 -0.4
v -1.2 2.2 -0.4
v -1.1 2.2 -0.4
v -1.1 2.3 -0.4
v -1 2.1 -0.4
v -1 2.2 -0.4
v -1 2.3 -0.4
v -1 2.4 -0.4
v -0.9 2.1 -0.4
v -0.9 2.2 -0.4
v -0.9 2.3 -0.4
v -0.9 2.4 -0.4
v -0.9 2.5 -0.4
v -0.8 2.2 -0.4
v -0.8 2.3 -0.4
v -0.8 2.4 -0.4
v -0.7 2.3 -0.4
v -0.7 2.4 -0.4
v -0.6 2.5 -0.4
v -0.6 2.6 -0.4
v -0.5 2.4 -0.4
v -0.5 2.5 -0.4
v -0.5 2.6 -0.4
v -0.5 2.7 -0.4
v -0.4 2.4 -0.4
v -0.4 2.5 -0.4
v -0.4 2.6 -0.4
v -0.4 2.7 -0.4
v -0.4 2.8 -0.4
v -0.3 2.5 -0.4
v -0.3 2.6 -0.4
v -0.3 2.7 -0.4
v -0.3 2.8 -0.4
v -0.3 2.9 -0.4
v -0.2 2.6 -0.4
v -0.2 2.7 -0.4
v -0.2 2.8 -0.4
v -0.2 2.9 -0.4
v -0.2 3 -0.4
v -0.0999999 2.7 -0.4
v -0.0999999 2.8 -0.4
v -0.0999999 2.9 -0.4
v 0 2.8 -0.4
v 0 2.9 -0.4
v 0.2 2.8 -0.4
v 0.2 2.9 -0.4
v 0.3 2.7 -0.4
v 0.3 2.8 -0.4
v 0.3 2.9 -0.4
v 0.4 2.6 -0.4
v 0.4 2.7 -0.4
v 0.4 2.8 -0.4
v 0.4 2.9 -0.4
v 0.4 3 -0.4
v 0.5 2.5 -0.4
v 0.5 2.6 -0.4
v 0.5 2.7 -0.4
v 0.5 2.8 -0.4
v 0.5 2.9 -0.4
v 0.6 2.4 -0.4
v 0.6 2.5 -0.4
v 0.6 2.6 -0.4
v 0.6 2.7 -0.4
v 0.6 2.8 -0.4
v 0.7 2.4 -0.4
v 0.7 2.5 -0.4
v 0.7 2.6 -0.4
v 0.7 2.7 -0.4
v 0.8 2.5 -0.4
v 0.8 2.6 -0.4
v 0.9 2.3 -0.4
v 0.9 2.4 -0.4
v 1 2.2 -0.4
v 1 2.3 -0.4
v 1 2.4 -0.4
v 1.1 2.1 -0.4
v 1.1 2.2 -0.4
v 1.1 2.3 -0.4
v 1.1 2.4 -0.4
v 1.1 2.5 -0.4
v 1.2 2.1 -0.4
v 1.2 2.2 -0.4
v 1.2 2.3 -0.4
v 1.2 2.4 -0.4
v 1.3 2.2 -0.4
v 1.3 2.3 -0.4
v 1.4 2.1 -0.4
v 1.4 2.2 -0.4
v 1.3 1.9 -0.6
v 1.3 2 -0.6
v 1.4 1.9 -0.6
v 1.4 2 -0.6
v 1.2 1.9 -0.7
v 1.2 2 -0.7
v 1.3 1.9 -0.7
v 1.3 2 -0.7
v -1.2 0.4 -0.8
v -1.2 1.2 -0.8
v -1.2 1.3 -0.8
v -1.2 1.9 -0.8
v -1 0.4 -0.8
v -1 1.9 -0.8
v -1 2 -0.8
v -0.8 0.4 -0.8
v -0.6 0.4 -0.8
v -0.4 0.4 -0.8
v -0.2 0.4 -0.8
v 0 0.4 -0.8
v 0.2 0.4 -0.8
v 0.4 0.4 -0.8
v 0.6 0.4 -0.8
v 0.8 0.4 -0.8
v 1 0.4 -0.8
v 1.2 0.4 -0.8
v 1.2 1.9 -0.8
v 1.2 2 -0.8
v 1.4 0.4 -0.8
v 1.4 1.2 -0.8
v 1.4 1.3 -0.8
v 1.4 1.9 -0.8
v -1.1 0.5 0.2
v -1.1 1.2 0.2
v -1 0.5 0.2
v -1 1.2 0.2
v -0.2 0.4 0.2
v -0.2 1.1 0.2
v -0.0999999 0.5 0.2
v -0.0999999 0.7 0.2
v -0.0999999 0.8 0.2
v -0.0999999 1 0.2
v 0 0.4 0.2
v 0 0.5 0.2
v 0 0.7 0.2
v 0 0.8 0.2
v 0 1 0.2
v 0.1 0.6 0.2
v 0.1 0.7 0.2
v 0.2 0.4 0.2
v 0.2 0.5 0.2
v 0.2 0.6 0.2
v 0.2 0.8 0.2
v 0.2 1 0.2
v 0.3 0.5 0.2
v 0.3 0.6 0.2
v 0.3 0.7 0.2
v 0.3 0.8 0.2
v 0.3 1 0.2
v 0.4 0.4 0.2
v 0.4 1.1 0.2
v 1.2 0.4 0.2
v 1.2 0.5 0.2
v 1.2 1.2 0.2
v 1.3 0.4 0.2
v 1.3 0.5 0.2
v 1.3 1.2 0.2
v -1.2 0.4 0.0999999
v -1.2 1.2 0.0999999
v -1.1 0.5 0.0999999
v -1.1 1.2 0.0999999
v -1 0.4 0.0999999
v -1 0.5 0.0999999
v -1 1.2 0.0999999
v -0.9 0.6 0.0999999
v -0.9 0.8 0.0999999
v -0.9 0.9 0.0999999
v -0.9 1.1 0.0999999
v -0.8 0.4 0.0999999
v -0.7 0.6 0.0999999
v -0.7 0.8 0.0999999
v -0.7 0.9 0.0999999
v -0.7 1.1 0.0999999
v -0.6 0.4 0.0999999
v -0.6 0.6 0.0999999
v -0.6 0.8 0.0999999
v -0.6 0.9 0.0999999
v -0.6 1.1 0.0999999
v -0.4 0.4 0.0999999
v -0.4 0.6 0.0999999
v -0.4 0.8 0.0999999
v -0.4 0.9 0.0999999
v -0.4 1.1 0.0999999
v -0.3 0.5 0.0999999
v -0.3 1.2 0.0999999
v -0.2 0.4 0.0999999
v -0.2 1.1 0.0999999
v 0.4 0.4 0.0999999
v 0.4 1.1 0.0999999
v 0.5 0.5 0.0999999
v 0.5 1.2 0.0999999
v 0.6 0.4 0.0999999
v 0.6 0.6 0.0999999
v 0.6 0.8 0.0999999
v 0.6 0.9 0.0999999
v 0.6 1.1 0.0999999
v 0.8 0.4 0.0999999
v 0.8 0.6 0.0999999
v 0.8 0.8 0.0999999
v 0.8 0.9 0.0999999
v 0.8 1.1 0.0999999
v 0.9 0.6 0.0999999
v 0.9 0.8 0.0999999
v 0.9 0.9 0.0999999
v 0.9 1.1 0.0999999
v 1 0.4 0.0999999
v 1.1 0.6 0.0999999
v 1.1 0.8 0.0999999
v 1.1 0.9 0.0999999
v 1.1 1.1 0.0999999
v 1.2 0.4 0.0999999
v 1.2 0.5 0.0999999
v 1.2 1.2 0.0999999
v 1.3 0.4 0.0999999
v 1.3 1.2 0.0999999
v 1.4 0.4 0.0999999
v 1.4 1.2 0.0999999
v -1.2 1.4 -5.96046e-08
v -1.2 1.5 -5.96046e-08
v -1 1.3 -5.96046e-08
v -1 1.4 -5.96046e-08
v -1 1.5 -5.96046e-08
v -1 1.6 -5.96046e-08
v -0.9 1.3 -5.96046e-08
v -0.9 1.4 -5.96046e-08
v -0.9 1.5 -5.96046e-08
v -0.9 1.6 -5.96046e-08
v -0.7 1.3 -5.96046e-08
v -0.7 1.4 -5.96046e-08
v -0.7 1.5 -5.96046e-08
v -0.7 1.6 -5.96046e-08
v -0.6 1.3 -5.96046e-08
v -0.6 1.4 -5.96046e-08
v -0.6 1.5 -5.96046e-08
v -0.6 1.6 -5.96046e-08
v -0.4 1.3 -5.96046e-08
v -0.4 1.4 -5.96046e-08
v -0.4 1.5 -5.96046e-08
v -0.4 1.6 -5.96046e-08
v -0.3 1.3 -5.96046e-08
v -0.3 1.4 -5.96046e-08
v -0.3 1.5 -5.96046e-08
v -0.3 1.6 -5.96046e-08
v -0.0999999 1.3 -5.96046e-08
v -0.0999999 1.4 -5.96046e-08
v -0.0999999 1.5 -5.96046e-08
v -0.0999999 1.6 -5.96046e-08
v 0 1.3 -5.96046e-08
v 0 1.4 -5.96046e-08
v 0 1.5 -5.96046e-08
v 0 1.6 -5.96046e-08
v 0.2 1.3 -5.96046e-08
v 0.2 1.4 -5.96046e-08
v 0.2 1.5 -5.96046e-08
v 0.2 1.6 -5.96046e-08
v 0.3 1.3 -5.96046e-08
v 0.3 1.4 -5.96046e-08
v 0.3 1.5 -5.96046e-08
v 0.3 1.6 -5.96046e-08
v 0.5 1.3 -5.96046e-08
v 0.5 1.4 -5.96046e-08
v 0.5 1.5 -5.96046e-08
v 0.5 1.6 -5.96046e-08
v 0.6 1.3 -5.96046e-08
v 0.6 1.4 -5.96046e-08
v 0.6 1.5 -5.96046e-08
v 0.6 1.6 -5.96046e-08
v 0.8 1.3 -5.96046e-08
v 0.8 1.4 -5.96046e-08
v 0.8 1.5 -5.96046e-08
v 0.8 1.6 -5.96046e-08
v 0.9 1.3 -5.96046e-08
v 0.9 1.4 -5.96046e-08
v 0.9 1.5 -5.96046e-08
v 0.9 1.6 -5.96046e-08
v 1.1 1.3 -5.96046e-08
v 1.1 1.4 -5.96046e-08
v 1.1 1.5 -5.96046e-08
v 1.1 1.6 -5.96046e-08
v 1.2 1.3 -5.96046e-08
v 1.2 1.4 -5.96046e-08
v 1.2 1.5 -5.96046e-08
v 1.2 1.6 -5.96046e-08
v 1.4 1.4 -5.96046e-08
v 1.4 1.5 -5.96046e-08
v -1.2 1.3 -0.3
v -1.2 1.9 -0.3
v -1.1 1.4 -0.3
v -1.1 1.9 -0.3
v -1 1.5 -0.3
v -1 1.6 -0.3
v -1 1.7 -0.3
v -1 1.8 -0.3
v -1 1.9 -0.3
v -1 2 -0.3
v -0.9 1.5 -0.3
v -0.9 1.6 -0.3
v -0.9 1.7 -0.3
v -0.9 1.8 -0.3
v -0.8 1.5 -0.3
v -0.8 1.6 -0.3
v -0.8 1.7 -0.3
v -0.8 1.8 -0.3
v -0.7 1.5 -0.3
v -0.7 1.6 -0.3
v -0.7 1.7 -0.3
v -0.7 1.8 -0.3
v -0.6 1.4 -0.3
v -0.6 1.9 -0.3
v -0.5 1.4 -0.3
v -0.5 1.9 -0.3
v -0.3 1.4 -0.3
v -0.3 1.9 -0.3
v -0.2 1.4 -0.3
v -0.2 1.9 -0.3
v -0.0999999 1.5 -0.3
v -0.0999999 1.6 -0.3
v -0.0999999 1.7 -0.3
v -0.0999999 1.8 -0.3
v 0 1.5 -0.3
v 0 1.6 -0.3
v 0 1.7 -0.3
v 0 1.8 -0.3
v 0.2 1.5 -0.3
v 0.2 1.6 -0.3
v 0.2 1.7 -0.3
v 0.2 1.8 -0.3
v 0.3 1.5 -0.3
v 0.3 1.6 -0.3
v 0.3 1.7 -0.3
v 0.3 1.8 -0.3
v 0.4 1.4 -0.3
v 0.4 1.9 -0.3
v 0.5 1.4 -0.3
v 0.5 1.9 -0.3
v 0.7 1.4 -0.3
v 0.7 1.9 -0.3
v 0.8 1.4 -0.3
v 0.8 1.9 -0.3
v 0.9 1.5 -0.3
v 0.9 1.6 -0.3
v 0.9 1.7 -0.3
v 0.9 1.8 -0.3
v 1 1.5 -0.3
v 1 1.6 -0.3
v 1 1.7 -0.3
v 1 1.8 -0.3
v 1.1 1.5 -0.3
v 1.1 1.6 -0.3
v 1.1 1.7 -0.3
v 1.1 1.8 -0.3
v 1.2 1.5 -0.3
v 1.2 1.6 -0.3
v 1.2 1.7 -0.3
v 1.2 1.8 -0.3
v 1.3 1.4 -0.3
v 1.3 1.9 -0.3
v 1.4 1.3 -0.3
v 1.4 2 -0.3
v -1.2 2 -0.6
v -1.2 2.1 -0.6
v -1.2 2.2 -0.6
v -1.1 2 -0.6
v -1.1 2.1 -0.6
v -1.1 2.2 -0.6
v -1.1 2.3 -0.6
v -1 2.1 -0.6
v -1 2.2 -0.6
v -1 2.3 -0.6
v -1 2.4 -0.6
v -0.9 2.2 -0.6
v -0.9 2.3 -0.6
v -0.9 2.4 -0.6
v -0.9 2.5 -0.6
v -0.8 2.3 -0.6
v -0.8 2.4 -0.6
v -0.6 2.5 -0.6
v -0.6 2.6 -0.6
v -0.5 2.4 -0.6
v -0.5 2.5 -0.6
v -0.5 2.6 -0.6
v -0.5 2.7 -0.6
v -0.4 2.5 -0.6
v -0.4 2.6 -0.6
v -0.4 2.7 -0.6
v -0.4 2.8 -0.6
v -0.3 2.6 -0.6
v -0.3 2.7 -0.6
v -0.3 2.8 -0.6
v -0.3 2.9 -0.6
v -0.2 2.7 -0.6
v -0.2 2.8 -0.6
v -0.2 2.9 -0.6
v -0.2 3 -0.6
v -0.0999999 2.8 -0.6
v -0.0999999 2.9 -0.6
v 0.3 2.8 -0.6
v 0.3 2.9 -0.6
v 0.4 2.7 -0.6
v 0.4 2.8 -0.6
v 0.4 2.9 -0.6
v 0.4 3 -0.6
v 0.5 2.6 -0.6
v 0.5 2.7 -0.6
v 0.5 2.8 -0.6
v 0.5 2.9 -0.6
v 0.6 2.5 -0.6
v 0.6 2.6 -0.6
v 0.6 2.7 -0.6
v 0.6 2.8 -0.6
v 0.7 2.4 -0.6
v 0.7 2.5 -0.6
v 0.7 2.6 -0.6
v 0.7 2.7 -0.6
v 0.8 2.5 -0.6
v 0.8 2.6 -0.6
v 1 2.3 -0.6
v 1 2.4 -0.6
v 1.1 2.2 -0.6
v 1.1 2.3 -0.6
v 1.1 2.4 -0.6
v 1.1 2.5 -0.6
v 1.2 2.1 -0.6
v 1.2 2.2 -0.6
v 1.2 2.3 -0.6
v 1.2 2.4 -0.6
v 1.3 2 -0.6
v 1.3 2.1 -0.6
v 1.3 2.2 -0.6
v 1.3 2.3 -0.6
v 1.4 2 -0.6
v 1.4 2.1 -0.6
v 1.4 2.2 -0.6
v -1.3 1.9 -0.7
v -1.3 2 -0.7
v -1.2 1.9 -0.7
v -1.2 2 -0.7
v -1.1 2 -0.7
v -1.1 2.1 -0.7
v -1 2 -0.7
v -1 2.1 -0.7
v 1.2 2 -0.7
v 1.2 2.1 -0.7
v 1.3 2 -0.7
v 1.3 2.1 -0.7
v 1.4 1.9 -0.7
v 1.4 2 -0.7
v 1.5 1.9 -0.7
v 1.5 2 -0.7
v -1.3 1.8 -0.8
v -1.3 1.9 -0.8
v -1.2 1.8 -0.8
v -1.2 1.9 -0.8
v -1.2 2 -0.8
v -1.1 1.9 -0.8
v -1.1 2 -0.8
v -1 2 -0.8
v -1 2.1 -0.8
v 1.2 2 -0.8
v 1.2 2.1 -0.8
v 1.3 1.9 -0.8
v 1.3 2 -0.8
v 1.4 1.8 -0.8
v 1.4 1.9 -0.8
v 1.4 2 -0.8
v 1.5 1.8 -0.8
v 1.5 1.9 -0.8
v -1.3 0 -0.9
v -1.3 1.8 -0.9
v -1.2 1.8 -0.9
v -1.2 1.9 -0.9
v -1.1 1.9 -0.9
v -1.1 2 -0.9
v 1.3 1.9 -0.9
v 1.3 2 -0.9
v 1.4 1.8 -0.9
v 1.4 1.9 -0.9
v 1.5 0 -0.9
v 1.5 1.8 -0.9
v -1.3 0 0.6
v 1.5 0 0.6
v -1.3 0 -0.9
v 1.5 0 -0.9
v -0.9 0.8 0.3
v -0.7 0.8 0.3
v -0.6 0.8 0.3
v -0.4 0.8 0.3
v 0.6 0.8 0.3
v 0.8 0.8 0.3
v 0.9 0.8 0.3
v 1.1 0.8 0.3
v -0.9 0.8 0.2
v -0.7 0.8 0.2
v -0.6 0.8 0.2
v -0.4 0.8 0.2
v 0.6 0.8 0.2
v 0.8 0.8 0.2
v 0.9 0.8 0.2
v 1.1 0.8 0.2
v -0.9 0.8 0.0999999
v -0.7 0.8 0.0999999
v -0.6 0.8 0.0999999
v -0.4 0.8 0.0999999
v 0.6 0.8 0.0999999
v 0.8 0.8 0.0999999
v 0.9 0.8 0.0999999
v 1.1 0.8 0.0999999
v -0.9 1.1 0.3
v -0.7 1.1 0.3
v -0.6 1.1 0.3
v -0.4 1.1 0.3
v 0.6 1.1 0.3
v 0.8 1.1 0.3
v 0.9 1.1 0.3
v 1.1 1.1 0.3
v -0.9 1.1 0.2
v -0.7 1.1 0.2
v -0.6 1.1 0.2
v -0.4 1.1 0.2
v -0.2 1.1 0.2
v 0.4 1.1 0.2
v 0.6 1.1 0.2
v 0.8 1.1 0.2
v 0.9 1.1 0.2
v 1.1 1.1 0.2
v -0.9 1.1 0.0999999
v -0.7 1.1 0.0999999
v -0.6 1.1 0.0999999
v -0.4 1.1 0.0999999
v -0.2 1.1 0.0999999
v 0.4 1.1 0.0999999
v 0.6 1.1 0.0999999
v 0.8 1.1 0.0999999
v 0.9 1.1 0.0999999
v 1.1 1.1 0.0999999
v -1.1 1.2 0.2
v -1 1.2 0.2
v 1.2 1.2 0.2
v 1.3 1.2 0.2
v -1.2 1.2 0.0999999
v -1.1 1.2 0.0999999
v -1 1.2 0.0999999
v -0.3 1.2 0.0999999
v 0.5 1.2 0.0999999
v 1.2 1.2 0.0999999
v 1.3 1.2 0.0999999
v 1.4 1.2 0.0999999
v -1.2 1.2 -0.8
v 1.4 1.2 -0.8
v -1.2 1.4 0.0999999
v -1 1.4 0.0999999
v -0.9 1.4 0.0999999
v -0.7 1.4 0.0999999
v -0.6 1.4 0.0999999
v -0.4 1.4 0.0999999
v -0.3 1.4 0.0999999
v -0.0999999 1.4 0.0999999
v 0 1.4 0.0999999
v 0.2 1.4 0.0999999
v 0.3 1.4 0.0999999
v 0.5 1.4 0.0999999
v 0.6 1.4 0.0999999
v 0.8 1.4 0.0999999
v 0.9 1.4 0.0999999
v 1.1 1.4 0.0999999
v 1.2 1.4 0.0999999
v 1.4 1.4 0.0999999
v -1.2 1.4 -5.96046e-08
v -1 1.4 -5.96046e-08
v -0.9 1.4 -5.96046e-08
v -0.7 1.4 -5.96046e-08
v -0.6 1.4 -5.96046e-08
v -0.4 1.4 -5.96046e-08
v -0.3 1.4 -5.96046e-08
v -0.0999999 1.4 -5.96046e-08
v 0 1.4 -5.96046e-08
v 0.2 1.4 -5.96046e-08
v 0.3 1.4 -5.96046e-08
v 0.5 1.4 -5.96046e-08
v 0.6 1.4 -5.96046e-08
v 0.8 1.4 -5.96046e-08
v 0.9 1.4 -5.96046e-08
v 1.1 1.4 -5.96046e-08
v 1.2 1.4 -5.96046e-08
v 1.4 1.4 -5.96046e-08
v -1 1.6 -0.2
v -0.9 1.6 -0.2
v -0.8 1.6 -0.2
v -0.7 1.6 -0.2
v -0.0999999 1.6 -0.2
v 0 1.6 -0.2
v 0.2 1.6 -0.2
v 0.3 1.6 -0.2
v 0.9 1.6 -0.2
v 1 1.6 -0.2
v 1.1 1.6 -0.2
v 1.2 1.6 -0.2
v -1 1.6 -0.3
v -0.9 1.6 -0.3
v -0.8 1.6 -0.3
v -0.7 1.6 -0.3
v -0.0999999 1.6 -0.3
v 0 1.6 -0.3
v 0.2 1.6 -0.3
v 0.3 1.6 -0.3
v 0.9 1.6 -0.3
v 1 1.6 -0.3
v 1.1 1.6 -0.3
v 1.2 1.6 -0.3
v -1 1.8 -0.2
v -0.9 1.8 -0.2
v -0.8 1.8 -0.2
v -0.7 1.8 -0.2
v -0.0999999 1.8 -0.2
v 0 1.8 -0.2
v 0.2 1.8 -0.2
v 0.3 1.8 -0.2
v 0.9 1.8 -0.2
v 1 1.8 -0.2
v 1.1 1.8 -0.2
v 1.2 1.8 -0.2
v -1 1.8 -0.3
v -0.9 1.8 -0.3
v -0.8 1.8 -0.3
v -0.7 1.8 -0.3
v -0.0999999 1.8 -0.3
v 0 1.8 -0.3
v 0.2 1.8 -0.3
v 0.3 1.8 -0.3
v 0.9 1.8 -0.3
v 1 1.8 -0.3
v 1.1 1.8 -0.3
v 1.2 1.8 -0.3
v -1.2 1.9 -0.3
v -1.1 1.9 -0.3
v -1 1.9 -0.3
v 1.3 1.9 -0.6
v 1.4 1.9 -0.6
v 1.2 1.9 -0.7
v 1.3 1.9 -0.7
v -1.2 1.9 -0.8
v -1 1.9 -0.8
v 1.2 1.9 -0.8
v 1.4 1.9 -0.8
v -1 2 -0.3
v 1.4 2 -0.3
v 1.3 2 -0.6
v 1.4 2 -0.6
v 1.2 2 -0.7
v 1.3 2 -0.7
v -1 2 -0.8
v 1.2 2 -0.8
v -1.2 0.3 0.6
v 1.4 0.3 0.6
v -1.2 0.3 0.5
v -1 0.3 0.5
v -0.8 0.3 0.5
v -0.6 0.3 0.5
v -0.4 0.3 0.5
v -0.2 0.3 0.5
v 0 0.3 0.5
v 0.2 0.3 0.5
v 0.4 0.3 0.5
v 0.6 0.3 0.5
v 0.8 0.3 0.5
v 1 0.3 0.5
v 1.2 0.3 0.5
v 1.4 0.3 0.5
v -1.3 0.4 0.6
v -1.2 0.4 0.6
v 1.4 0.4 0.6
v 1.5 0.4 0.6
v -1.3 0.4 0.5
v -1.2 0.4 0.5
v -1 0.4 0.5
v -0.8 0.4 0.5
v -0.6 0.4 0.5
v -0.4 0.4 0.5
v -0.2 0.4 0.5
v 0 0.4 0.5
v 0.2 0.4 0.5
v 0.4 0.4 0.5
v 0.6 0.4 0.5
v 0.8 0.4 0.5
v 1 0.4 0.5
v 1.2 0.4 0.5
v 1.4 0.4 0.5
v 1.5 0.4 0.5
v -1.2 0.4 0.3
v -1 0.4 0.3
v -0.8 0.4 0.3
v -0.6 0.4 0.3
v -0.4 0.4 0.3
v -0.2 0.4 0.3
v 0 0.4 0.3
v 0.2 0.4 0.3
v 0.4 0.4 0.3
v 0.6 0.4 0.3
v 0.8 0.4 0.3
v 1 0.4 0.3
v 1.2 0.4 0.3
v 1.4 0.4 0.3
v -0.2 0.4 0.2
v 0 0.4 0.2
v 0.2 0.4 0.2
v 0.4 0.4 0.2
v 1.2 0.4 0.2
v 1.3 0.4 0.2
v -1.2 0.4 0.0999999
v -1 0.4 0.0999999
v -0.8 0.4 0.0999999
v -0.6 0.4 0.0999999
v -0.4 0.4 0.0999999
v -0.2 0.4 0.0999999
v 0.4 0.4 0.0999999
v 0.6 0.4 0.0999999
v 0.8 0.4 0.0999999
v 1 0.4 0.0999999
v 1.2 0.4 0.0999999
v 1.3 0.4 0.0999999
v 1.4 0.4 0.0999999
v -1.2 0.4 -0.8
v -1 0.4 -0.8
v -0.8 0.4 -0.8
v -0.6 0.4 -0.8
v -0.4 0.4 -0.8
v -0.2 0.4 -0.8
v 0 0.4 -0.8
v 0.2 0.4 -0.8
v 0.4 0.4 -0.8
v 0.6 0.4 -0.8
v 0.8 0.4 -0.8
v 1 0.4 -0.8
v 1.2 0.4 -0.8
v 1.4 0.4 -0.8
v -1.1 0.5 0.2
v -1 0.5 0.2
v -1.1 0.5 0.0999999
v -1 0.5 0.0999999
v -0.9 0.6 0.3
v -0.7 0.6 0.3
v -0.6 0.6 0.3
v -0.4 0.6 0.3
v 0.6 0.6 0.3
v 0.8 0.6 0.3
v 0.9 0.6 0.3
v 1.1 0.6 0.3
v -0.9 0.6 0.2
v -0.7 0.6 0.2
v -0.6 0.6 0.2
v -0.4 0.6 0.2
v 0.6 0.6 0.2
v 0.8 0.6 0.2
v 0.9 0.6 0.2
v 1.1 0.6 0.2
v -0.9 0.6 0.0999999
v -0.7 0.6 0.0999999
v -0.6 0.6 0.0999999
v -0.4 0.6 0.0999999
v 0.6 0.6 0.0999999
v 0.8 0.6 0.0999999
v 0.9 0.6 0.0999999
v 1.1 0.6 0.0999999
v -0.9 0.9 0.3
v -0.7 0.9 0.3
v -0.6 0.9 0.3
v -0.4 0.9 0.3
v 0.6 0.9 0.3
v 0.8 0.9 0.3
v 0.9 0.9 0.3
v 1.1 0.9 0.3
v -0.9 0.9 0.2
v -0.7 0.9 0.2
v -0.6 0.9 0.2
v -0.4 0.9 0.2
v 0.6 0.9 0.2
v 0.8 0.9 0.2
v 0.9 0.9 0.2
v 1.1 0.9 0.2
v -0.9 0.9 0.0999999
v -0.7 0.9 0.0999999
v -0.6 0.9 0.0999999
v -0.4 0.9 0.0999999
v 0.6 0.9 0.0999999
v 0.8 0.9 0.0999999
v 0.9 0.9 0.0999999
v 1.1 0.9 0.0999999
v -0.2 1.2 0.3
v 0.4 1.2 0.3
v -0.2 1.2 0.2
v 0.4 1.2 0.2
v -1.2 1.3 0.3
v -0.2 1.3 0.3
v 0.4 1.3 0.3
v 1.4 1.3 0.3
v -0.2 1.3 0.2
v 0.4 1.3 0.2
v -1 1.3 0.0999999
v -0.9 1.3 0.0999999
v -0.7 1.3 0.0999999
v -0.6 1.3 0.0999999
v -0.4 1.3 0.0999999
v -0.3 1.3 0.0999999
v -0.0999999 1.3 0.0999999
v 0 1.3 0.0999999
v 0.2 1.3 0.0999999
v 0.3 1.3 0.0999999
v 0.5 1.3 0.0999999
v 0.6 1.3 0.0999999
v 0.8 1.3 0.0999999
v 0.9 1.3 0.0999999
v 1.1 1.3 0.0999999
v 1.2 1.3 0.0999999
v -1 1.3 -5.96046e-08
v -0.9 1.3 -5.96046e-08
v -0.7 1.3 -5.96046e-08
v -0.6 1.3 -5.96046e-08
v -0.4 1.3 -5.96046e-08
v -0.3 1.3 -5.96046e-08
v -0.0999999 1.3 -5.96046e-08
v 0 1.3 -5.96046e-08
v 0.2 1.3 -5.96046e-08
v 0.3 1.3 -5.96046e-08
v 0.5 1.3 -5.96046e-08
v 0.6 1.3 -5.96046e-08
v 0.8 1.3 -5.96046e-08
v 0.9 1.3 -5.96046e-08
v 1.1 1.3 -5.96046e-08
v 1.2 1.3 -5.96046e-08
v -1.2 1.3 -0.2
v 1.4 1.3 -0.2
v -1.2 1.3 -0.3
v 1.4 1.3 -0.3
v -1.2 1.3 -0.8
v 1.4 1.3 -0.8
v -1.3 1.5 0.5
v -1.2 1.5 0.5
v 1.4 1.5 0.5
v 1.5 1.5 0.5
v -1.3 1.5 0.4
v -1.2 1.5 0.4
v 1.4 1.5 0.4
v 1.5 1.5 0.4
v -1.2 1.5 0.0999999
v -1 1.5 0.0999999
v -0.9 1.5 0.0999999
v -0.7 1.5 0.0999999
v -0.6 1.5 0.0999999
v -0.4 1.5 0.0999999
v -0.3 1.5 0.0999999
v -0.0999999 1.5 0.0999999
v 0 1.5 0.0999999
v 0.2 1.5 0.0999999
v 0.3 1.5 0.0999999
v 0.5 1.5 0.0999999
v 0.6 1.5 0.0999999
v 0.8 1.5 0.0999999
v 0.9 1.5 0.0999999
v 1.1 1.5 0.0999999
v 1.2 1.5 0.0999999
v 1.4 1.5 0.0999999
v -1.2 1.5 -5.96046e-08
v -1 1.5 -5.96046e-08
v -0.9 1.5 -5.96046e-08
v -0.7 1.5 -5.96046e-08
v -0.6 1.5 -5.96046e-08
v -0.4 1.5 -5.96046e-08
v -0.3 1.5 -5.96046e-08
v -0.0999999 1.5 -5.96046e-08
v 0 1.5 -5.96046e-08
v 0.2 1.5 -5.96046e-08
v 0.3 1.5 -5.96046e-08
v 0.5 1.5 -5.96046e-08
v 0.6 1.5 -5.96046e-08
v 0.8 1.5 -5.96046e-08
v 0.9 1.5 -5.96046e-08
v 1.1 1.5 -5.96046e-08
v 1.2 1.5 -5.96046e-08
v 1.4 1.5 -5.96046e-08
v -1 1.5 -0.2
v -0.9 1.5 -0.2
v -0.8 1.5 -0.2
v -0.7 1.5 -0.2
v -0.0999999 1.5 -0.2
v 0 1.5 -0.2
v 0.2 1.5 -0.2
v 0.3 1.5 -0.2
v 0.9 1.5 -0.2
v 1 1.5 -0.2
v 1.1 1.5 -0.2
v 1.2 1.5 -0.2
v -1 1.5 -0.3
v -0.9 1.5 -0.3
v -0.8 1.5 -0.3
v -0.7 1.5 -0.3
v -0.0999999 1.5 -0.3
v 0 1.5 -0.3
v 0.2 1.5 -0.3
v 0.3 1.5 -0.3
v 0.9 1.5 -0.3
v 1 1.5 -0.3
v 1.1 1.5 -0.3
v 1.2 1.5 -0.3
v -1.3 1.6 0.4
v -1.2 1.6 0.4
v 1.4 1.6 0.4
v 1.5 1.6 0.4
v -1.3 1.6 0.3
v -1.2 1.6 0.3
v 1.4 1.6 0.3
v 1.5 1.6 0.3
v -1 1.6 0.0999999
v -0.9 1.6 0.0999999
v -0.7 1.6 0.0999999
v -0.6 1.6 0.0999999
v -0.4 1.6 0.0999999
v -0.3 1.6 0.0999999
v -0.0999999 1.6 0.0999999
v 0 1.6 0.0999999
v 0.2 1.6 0.0999999
v 0.3 1.6 0.0999999
v 0.5 1.6 0.0999999
v 0.6 1.6 0.0999999
v 0.8 1.6 0.0999999
v 0.9 1.6 0.0999999
v 1.1 1.6 0.0999999
v 1.2 1.6 0.0999999
v -1 1.6 -5.96046e-08
v -0.9 1.6 -5.96046e-08
v -0.7 1.6 -5.96046e-08
v -0.6 1.6 -5.96046e-08
v -0.4 1.6 -5.96046e-08
v -0.3 1.6 -5.96046e-08
v -0.0999999 1.6 -5.96046e-08
v 0 1.6 -5.96046e-08
v 0.2 1.6 -5.96046e-08
v 0.3 1.6 -5.96046e-08
v 0.5 1.6 -5.96046e-08
v 0.6 1.6 -5.96046e-08
v 0.8 1.6 -5.96046e-08
v 0.9 1.6 -5.96046e-08
v 1.1 1.6 -5.96046e-08
v 1.2 1.6 -5.96046e-08
v -1.3 1.7 0.3
v -1.2 1.7 0.3
v 1.4 1.7 0.3
v 1.5 1.7 0.3
v -1.3 1.7 0.2
v -1.2 1.7 0.2
v 1.4 1.7 0.2
v 1.5 1.7 0.2
v -1 1.7 -0.2
v -0.9 1.7 -0.2
v -0.8 1.7 -0.2
v -0.7 1.7 -0.2
v -0.0999999 1.7 -0.2
v 0 1.7 -0.2
v 0.2 1.7 -0.2
v 0.3 1.7 -0.2
v 0.9 1.7 -0.2
v 1 1.7 -0.2
v 1.1 1.7 -0.2
v 1.2 1.7 -0.2
v -1 1.7 -0.3
v -0.9 1.7 -0.3
v -0.8 1.7 -0.3
v -0.7 1.7 -0.3
v -0.0999999 1.7 -0.3
v 0 1.7 -0.3
v 0.2 1.7 -0.3
v 0.3 1.7 -0.3
v 0.9 1.7 -0.3
v 1 1.7 -0.3
v 1.1 1.7 -0.3
v 1.2 1.7 -0.3
v -1.3 1.8 0.2
v -1.2 1.8 0.2
v 1.4 1.8 0.2
v 1.5 1.8 0.2
v -1.3 1.8 0.0999999
v -1.2 1.8 0.0999999
v 1.4 1.8 0.0999999
v 1.5 1.8 0.0999999
v -1.3 1.8 -0.8
v -1.2 1.8 -0.8
v 1.4 1.8 -0.8
v 1.5 1.8 -0.8
v -1.3 1.8 -0.9
v -1.2 1.8 -0.9
v 1.4 1.8 -0.9
v 1.5 1.8 -0.9
v -1.3 1.9 0.0999999
v -1.2 1.9 0.0999999
v 1.4 1.9 0.0999999
v 1.5 1.9 0.0999999
v -1.2 1.9 -0.2
v 1.4 1.9 -0.2
v -1.3 1.9 -0.3
v -1.2 1.9 -0.3
v 1.4 1.9 -0.3
v 1.5 1.9 -0.3
v -1.3 1.9 -0.7
v -1.2 1.9 -0.7
v 1.4 1.9 -0.7
v 1.5 1.9 -0.7
v -1.3 1.9 -0.8
v -1.2 1.9 -0.8
v -1.1 1.9 -0.8
v 1.3 1.9 -0.8
v 1.4 1.9 -0.8
v 1.5 1.9 -0.8
v -1.2 1.9 -0.9
v -1.1 1.9 -0.9
v 1.3 1.9 -0.9
v 1.4 1.9 -0.9
v -1.2 2 -0.2
v 1.4 2 -0.2
v -1.3 2 -0.3
v -1.2 2 -0.3
v 1.4 2 -0.3
v 1.5 2 -0.3
v -1.2 2 -0.6
v -1.1 2 -0.6
v 1.3 2 -0.6
v 1.4 2 -0.6
v -1.3 2 -0.7
v -1.2 2 -0.7
v -1.1 2 -0.7
v -1 2 -0.7
v 1.2 2 -0.7
v 1.3 2 -0.7
v 1.4 2 -0.7
v 1.5 2 -0.7
v -1.2 2 -0.8
v -1.1 2 -0.8
v -1 2 -0.8
v 1.2 2 -0.8
v 1.3 2 -0.8
v 1.4 2 -0.8
v -1.1 2 -0.9
v 1.3 2 -0.9
v -1.2 2.1 -0.3
v 1.4 2.1 -0.3
v -1.2 2.1 -0.4
v -1 2.1 -0.4
v -0.9 2.1 -0.4
v 1.1 2.1 -0.4
v 1.2 2.1 -0.4
v 1.4 2.1 -0.4
v -1.1 2.1 -0.6
v -1 2.1 -0.6
v 1.2 2.1 -0.6
v 1.3 2.1 -0.6
v -1.1 2.1 -0.7
v -1 2.1 -0.7
v 1.2 2.1 -0.7
v 1.3 2.1 -0.7
v -1 2.1 -0.8
v 1.2 2.1 -0.8
v -1.2 2.2 -0.4
v -1.1 2.2 -0.4
v 1.3 2.2 -0.4
v 1.4 2.2 -0.4
v -1.2 2.2 -0.6
v -1.1 2.2 -0.6
v 1.3 2.2 -0.6
v 1.4 2.2 -0.6
v -1.1 2.3 -0.4
v -1 2.3 -0.4
v 1.2 2.3 -0.4
v 1.3 2.3 -0.4
v -1.1 2.3 -0.6
v -1 2.3 -0.6
v 1.2 2.3 -0.6
v 1.3 2.3 -0.6
v -1 2.4 -0.4
v -0.9 2.4 -0.4
v 1.1 2.4 -0.4
v 1.2 2.4 -0.4
v -1 2.4 -0.6
v -0.9 2.4 -0.6
v 1.1 2.4 -0.6
v 1.2 2.4 -0.6
v -0.9 2.5 -0.4
v -0.6 2.5 -0.4
v 0.8 2.5 -0.4
v 1.1 2.5 -0.4
v -0.9 2.5 -0.6
v -0.6 2.5 -0.6
v 0.8 2.5 -0.6
v 1.1 2.5 -0.6
v -0.6 2.6 -0.4
v -0.5 2.6 -0.4
v 0.7 2.6 -0.4
v 0.8 2.6 -0.4
v -0.6 2.6 -0.6
v -0.5 2.6 -0.6
v 0.7 2.6 -0.6
v 0.8 2.6 -0.6
v -0.5 2.7 -0.4
v -0.4 2.7 -0.4
v 0.6 2.7 -0.4
v 0.7 2.7 -0.4
v -0.5 2.7 -0.6
v -0.4 2.7 -0.6
v 0.6 2.7 -0.6
v 0.7 2.7 -0.6
v -0.4 2.8 -0.4
v -0.3 2.8 -0.4
v 0.5 2.8 -0.4
v 0.6 2.8 -0.4
v -0.4 2.8 -0.6
v -0.3 2.8 -0.6
v 0.5 2.8 -0.6
v 0.6 2.8 -0.6
v -0.3 2.9 -0.4
v -0.2 2.9 -0.4
v 0.4 2.9 -0.4
v 0.5 2.9 -0.4
v -0.3 2.9 -0.6
v -0.2 2.9 -0.6
v 0.4 2.9 -0.6
v 0.5 2.9 -0.6
v -0.2 3 -0.4
v 0.4 3 -0.4
v -0.2 3 -0.6
v 0.4 3 -0.6

# faces
f 3/2/1 2/2/1 1/2/1
f 4/2/1 2/2/1 3/2/1
f 5/2/1 2/2/1 4/2/1
f 6/2/1 2/2/1 5/2/1
f 7/2/1 2/2/1 6/2/1
f 8/2/1 2/2/1 7/2/1
f 9/2/1 2/2/1 8/2/1
f 10/2/1 2/2/1 9/2/1
f 11/2/1 2/2/1 10/2/1
f 12/2/1 2/2/1 11/2/1
f 13/2/1 2/2/1 12/2/1
f 14/2/1 2/2/1 13/2/1
f 15/2/1 13/2/1 12/2/1
f 16/2/1 13/2/1 15/2/1
f 17/2/1 13/2/1 16/2/1
f 18/2/1 13/2/1 17/2/1
f 19/2/1 17/2/1 16/2/1
f 20/2/1 17/2/1 19/2/1
f 26/2/1 22/2/1 21/2/1
f 27/2/1 22/2/1 26/2/1
f 28/2/1 24/2/1 23/2/1
f 29/2/1 24/2/1 28/2/1
f 31/2/1 26/2/1 25/2/1
f 32/2/1 26/2/1 31/2/1
f 33/2/1 30/2/1 29/2/1
f 34/2/1 30/2/1 33/2/1
f 35/2/1 30/2/1 34/2/1
f 36/4/1 35/4/1 34/4/1
f 37/4/1 35/4/1 36/4/1
f 42/2/1 39/2/1 38/2/1
f 43/2/1 39/2/1 42/2/1
f 44/2/1 41/2/1 40/2/1
f 45/2/1 41/2/1 44/2/1
f 48/4/1 47/4/1 46/4/1
f 49/4/1 47/4/1 48/4/1
f 52/1/1 51/1/1 50/1/1
f 53/1/1 51/1/1 52/1/1
f 56/4/1 55/4/1 54/4/1
f 57/4/1 55/4/1 56/4/1
f 60/4/1 59/4/1 58/4/1
f 61/4/1 59/4/1 60/4/1
f 64/2/1 63/2/1 62/2/1
f 65/2/1 63/2/1 64/2/1
f 68/4/1 67/4/1 66/4/1
f 69/4/1 67/4/1 68/4/1
f 72/3/1 71/3/1 70/3/1
f 73/3/1 71/3/1 72/3/1
f 76/3/1 75/3/1 74/3/1
f 77/3/1 75/3/1 76/3/1
f 80/4/1 79/4/1 78/4/1
f 81/4/1 79/4/1 80/4/1
f 85/3/1 83/3/1 82/3/1
f 86/1/1 84/1/1 83/1/1
f 86/3/1 83/3/1 85/3/1
f 87/1/1 84/1/1 86/1/1
f 91/3/1 89/3/1 88/3/1
f 92/1/1 90/1/1 89/1/1
f 92/3/1 89/3/1 91/3/1
f 93/1/1 90/1/1 92/1/1
f 96/4/1 95/4/1 94/4/1
f 97/4/1 95/4/1 96/4/1
f 102/4/1 99/4/1 98/4/1
f 103/4/1 99/4/1 102/4/1
f 104/3/1 101/3/1 100/3/1
f 105/3/1 101/3/1 104/3/1
f 108/3/1 107/3/1 106/3/1
f 109/3/1 107/3/1 108/3/1
f 112/4/1 111/4/1 110/4/1
f 113/4/1 111/4/1 112/4/1
f 116/4/1 115/4/1 114/4/1
f 117/4/1 115/4/1 116/4/1
f 121/3/1 119/3/1 118/3/1
f 122/1/1 120/1/1 119/1/1
f 122/3/1 119/3/1 121/3/1
f 123/1/1 120/1/1 122/1/1
f 127/3/1 125/3/1 124/3/1
f 128/1/1 126/1/1 125/1/1
f 128/3/1 125/3/1 127/3/1
f 129/1/1 126/1/1 128/1/1
f 132/4/1 131/4/1 130/4/1
f 133/4/1 131/4/1 132/4/1
f 136/4/1 135/4/1 134/4/1
f 137/4/1 135/4/1 136/4/1
f 140/4/1 139/4/1 138/4/1
f 141/4/1 139/4/1 140/4/1
f 144/4/1 143/4/1 142/4/1
f 145/4/1 143/4/1 144/4/1
f 148/4/1 147/4/1 146/4/1
f 149/4/1 147/4/1 148/4/1
f 152/4/1 151/4/1 150/4/1
f 153/4/1 151/4/1 152/4/1
f 156/4/1 155/4/1 154/4/1
f 157/4/1 155/4/1 156/4/1
f 160/3/1 159/3/1 158/3/1
f 161/3/1 159/3/1 160/3/1
f 164/3/1 163/3/1 162/3/1
f 165/3/1 163/3/1 164/3/1
f 168/4/1 167/4/1 166/4/1
f 169/4/1 167/4/1 168/4/1
f 172/4/1 171/4/1 170/4/1
f 173/4/1 171/4/1 172/4/1
f 176/3/1 175/3/1 174/3/1
f 177/3/1 175/3/1 176/3/1
f 180/3/1 179/3/1 178/3/1
f 181/3/1 179/3/1 180/3/1
f 184/2/1 183/2/1 182/2/1
f 185/2/1 183/2/1 184/2/1
f 188/2/1 187/2/1 186/2/1
f 189/2/1 187/2/1 188/2/1
f 192/4/1 191/4/1 190/4/1
f 193/4/1 191/4/1 192/4/1
f 196/4/1 195/4/1 194/4/1
f 197/4/1 195/4/1 196/4/1
f 201/3/1 199/3/1 198/3/1
f 202/1/1 200/1/1 199/1/1
f 202/3/1 199/3/1 201/3/1
f 203/1/1 200/1/1 202/1/1
f 207/3/1 205/3/1 204/3/1
f 208/1/1 206/1/1 205/1/1
f 208/3/1 205/3/1 207/3/1
f 209/1/1 206/1/1 208/1/1
f 212/4/1 211/4/1 210/4/1
f 213/4/1 211/4/1 212/4/1
f 216/4/1 215/4/1 214/4/1
f 217/4/1 215/4/1 216/4/1
f 220/3/1 219/3/1 218/3/1
f 221/3/1 219/3/1 220/3/1
f 224/3/1 223/3/1 222/3/1
f 225/3/1 223/3/1 224/3/1
f 229/3/1 227/3/1 226/3/1
f 230/1/1 228/1/1 227/1/1
f 230/3/1 227/3/1 229/3/1
f 231/1/1 228/1/1 230/1/1
f 235/3/1 233/3/1 232/3/1
f 236/1/1 234/1/1 233/1/1
f 236/3/1 233/3/1 235/3/1
f 237/1/1 234/1/1 236/1/1
f 240/4/1 239/4/1 238/4/1
f 241/4/1 239/4/1 240/4/1
f 244/4/1 243/4/1 242/4/1
f 245/4/1 243/4/1 244/4/1
f 248/3/1 247/3/1 246/3/1
f 249/3/1 247/3/1 248/3/1
f 252/3/1 251/3/1 250/3/1
f 253/3/1 251/3/1 252/3/1
f 256/2/1 255/2/1 254/2/1
f 257/2/1 255/2/1 256/2/1
f 260/2/1 259/2/1 258/2/1
f 261/2/1 259/2/1 260/2/1
f 262/2/1 259/2/1 261/2/1
f 265/2/1 264/2/1 263/2/1
f 266/2/1 264/2/1 265/2/1
f 269/2/1 268/2/1 267/2/1
f 270/2/1 268/2/1 269/2/1
f 274/2/1 273/2/1 272/2/1
f 275/2/1 273/2/1 274/2/1
f 276/2/1 271/2/1 270/2/1
f 280/2/1 277/2/1 276/2/1
f 281/2/1 277/2/1 280/2/1
f 282/2/1 276/2/1 270/2/1
f 282/2/1 280/2/1 276/2/1
f 283/2/1 280/2/1 282/2/1
f 284/2/1 280/2/1 283/2/1
f 285/2/1 277/2/1 281/2/1
f 286/2/1 284/2/1 283/2/1
f 286/2/1 285/2/1 284/2/1
f 287/2/1 285/2/1 286/2/1
f 288/2/1 285/2/1 287/2/1
f 289/2/1 285/2/1 288/2/1
f 290/2/1 285/2/1 289/2/1
f 291/2/1 285/2/1 290/2/1
f 292/2/1 285/2/1 291/2/1
f 293/2/1 277/2/1 285/2/1
f 293/2/1 285/2/1 292/2/1
f 294/2/1 279/2/1 278/2/1
f 295/2/1 279/2/1 294/2/1
f 296/2/1 294/2/1 278/2/1
f 297/2/1 294/2/1 296/2/1
f 298/2/2 299/2/2 300/2/2
f 300/2/2 299/2/2 301/2/2
f 303/2/2 304/2/2 305/2/2
f 305/2/2 304/2/2 306/2/2
f 301/2/2 302/2/2 307/2/2
f 307/2/2 308/2/2 311/2/2
f 311/2/2 308/2/2 312/2/2
f 301/2/2 307/2/2 313/2/2
f 307/2/2 311/2/2 313/2/2
f 313/2/2 311/2/2 314/2/2
f 314/2/2 311/2/2 315/2/2
f 312/2/2 308/2/2 316/2/2
f 314/2/2 315/2/2 317/2/2
f 315/2/2 316/2/2 317/2/2
f 317/2/2 316/2/2 318/2/2
f 318/2/2 316/2/2 319/2/2
f 319/2/2 316/2/2 320/2/2
f 320/2/2 316/2/2 321/2/2
f 321/2/2 316/2/2 322/2/2
f 322/2/2 316/2/2 323/2/2
f 316/2/2 308/2/2 324/2/2
f 323/2/2 316/2/2 324/2/2
f 309/2/2 310/2/2 325/2/2
f 325/2/2 310/2/2 326/2/2
f 327/2/2 328/2/2 329/2/2
f 329/2/2 328/2/2 330/2/2
f 331/3/2 332/3/2 333/3/2
f 333/3/2 332/3/2 334/3/2
f 335/3/2 336/3/2 337/3/2
f 337/3/2 336/3/2 338/3/2
f 339/2/2 340/2/2 341/2/2
f 341/2/2 340/2/2 342/2/2
f 343/3/2 344/3/2 346/3/2
f 344/1/2 345/1/2 347/1/2
f 346/3/2 344/3/2 347/3/2
f 347/1/2 345/1/2 348/1/2
f 349/3/2 350/3/2 352/3/2
f 350/1/2 351/1/2 353/1/2
f 352/3/2 350/3/2 353/3/2
f 353/1/2 351/1/2 354/1/2
f 355/4/2 356/4/2 357/4/2
f 357/4/2 356/4/2 358/4/2
f 359/4/2 360/4/2 361/4/2
f 361/4/2 360/4/2 362/4/2
f 363/3/2 364/3/2 365/3/2
f 365/3/2 364/3/2 366/3/2
f 367/3/2 368/3/2 369/3/2
f 369/3/2 368/3/2 370/3/2
f 371/3/2 372/3/2 374/3/2
f 372/1/2 373/1/2 375/1/2
f 374/3/2 372/3/2 375/3/2
f 375/1/2 373/1/2 376/1/2
f 377/3/2 378/3/2 380/3/2
f 378/1/2 379/1/2 381/1/2
f 380/3/2 378/3/2 381/3/2
f 381/1/2 379/1/2 382/1/2
f 383/4/2 384/4/2 385/4/2
f 385/4/2 384/4/2 386/4/2
f 387/4/2 388/4/2 389/4/2
f 389/4/2 388/4/2 390/4/2
f 391/4/2 392/4/2 393/4/2
f 393/4/2 392/4/2 394/4/2
f 395/4/2 396/4/2 397/4/2
f 397/4/2 396/4/2 398/4/2
f 399/2/2 400/2/2 401/2/2
f 401/2/2 400/2/2 402/2/2
f 403/2/2 404/2/2 405/2/2
f 405/2/2 404/2/2 406/2/2
f 407/3/2 408/3/2 409/3/2
f 409/3/2 408/3/2 410/3/2
f 411/3/2 412/3/2 413/3/2
f 413/3/2 412/3/2 414/3/2
f 415/4/2 416/4/2 417/4/2
f 417/4/2 416/4/2 418/4/2
f 419/4/2 420/4/2 421/4/2
f 421/4/2 420/4/2 422/4/2
f 423/3/2 424/3/2 425/3/2
f 425/3/2 424/3/2 426/3/2
f 427/3/2 428/3/2 429/3/2
f 429/3/2 428/3/2 430/3/2
f 431/4/2 432/4/2 433/4/2
f 433/4/2 432/4/2 434/4/2
f 435/4/2 436/4/2 437/4/2
f 437/4/2 436/4/2 438/4/2
f 439/4/2 440/4/2 441/4/2
f 441/4/2 440/4/2 442/4/2
f 443/4/2 444/4/2 445/4/2
f 445/4/2 444/4/2 446/4/2
f 447/3/2 448/3/2 450/3/2
f 448/1/2 449/1/2 451/1/2
f 450/3/2 448/3/2 451/3/2
f 451/1/2 449/1/2 452/1/2
f 453/3/2 454/3/2 456/3/2
f 454/1/2 455/1/2 457/1/2
f 456/3/2 454/3/2 457/3/2
f 457/1/2 455/1/2 458/1/2
f 459/4/2 460/4/2 461/4/2
f 461/4/2 460/4/2 462/4/2
f 463/4/2 464/4/2 465/4/2
f 465/4/2 464/4/2 466/4/2
f 467/4/2 468/4/2 469/4/2
f 469/4/2 468/4/2 470/4/2
f 471/4/2 472/4/2 473/4/2
f 473/4/2 472/4/2 474/4/2
f 475/4/2 476/4/2 477/4/2
f 477/4/2 476/4/2 478/4/2
f 479/3/2 480/3/2 482/3/2
f 480/1/2 481/1/2 483/1/2
f 482/3/2 480/3/2 483/3/2
f 483/1/2 481/1/2 484/1/2
f 485/3/2 486/3/2 488/3/2
f 486/1/2 487/1/2 489/1/2
f 488/3/2 486/3/2 489/3/2
f 489/1/2 487/1/2 490/1/2
f 491/4/2 492/4/2 493/4/2
f 493/4/2 492/4/2 494/4/2
f 495/4/2 496/4/2 499/4/2
f 499/4/2 496/4/2 500/4/2
f 497/3/2 498/3/2 501/3/2
f 501/3/2 498/3/2 502/3/2
f 503/3/2 504/3/2 505/3/2
f 505/3/2 504/3/2 506/3/2
f 507/3/2 508/3/2 509/3/2
f 509/3/2 508/3/2 510/3/2
f 511/3/2 512/3/2 513/3/2
f 513/3/2 512/3/2 514/3/2
f 515/4/2 516/4/2 517/4/2
f 517/4/2 516/4/2 518/4/2
f 519/2/2 520/2/2 521/2/2
f 521/2/2 520/2/2 522/2/2
f 521/1/2 522/1/2 523/1/2
f 523/1/2 522/1/2 524/1/2
f 525/4/2 526/4/2 527/4/2
f 527/4/2 526/4/2 528/4/2
f 529/4/2 530/4/2 531/4/2
f 531/4/2 530/4/2 532/4/2
f 533/2/2 534/2/2 535/2/2
f 535/2/2 534/2/2 536/2/2
f 537/4/2 538/4/2 539/4/2
f 539/4/2 538/4/2 540/4/2
f 541/2/2 542/2/2 545/2/2
f 545/2/2 542/2/2 546/2/2
f 543/2/2 544/2/2 547/2/2
f 547/2/2 544/2/2 548/2/2
f 549/4/2 550/4/2 551/4/2
f 551/4/2 550/4/2 552/4/2
f 553/2/2 554/2/2 558/2/2
f 558/2/2 554/2/2 559/2/2
f 555/2/2 556/2/2 560/2/2
f 560/2/2 556/2/2 561/2/2
f 557/2/2 558/2/2 563/2/2
f 563/2/2 558/2/2 564/2/2
f 561/2/2 562/2/2 565/2/2
f 565/2/2 562/2/2 566/2/2
f 566/2/2 562/2/2 567/2/2
f 566/4/2 567/4/2 568/4/2
f 568/4/2 567/4/2 569/4/2
f 570/2/2 571/2/2 572/2/2
f 572/2/2 571/2/2 573/2/2
f 573/2/2 571/2/2 574/2/2
f 574/2/2 571/2/2 575/2/2
f 575/2/2 571/2/2 576/2/2
f 576/2/2 571/2/2 577/2/2
f 577/2/2 571/2/2 578/2/2
f 578/2/2 571/2/2 579/2/2
f 579/2/2 571/2/2 580/2/2
f 580/2/2 571/2/2 581/2/2
f 581/2/2 571/2/2 582/2/2
f 582/2/2 571/2/2 583/2/2
f 581/2/2 582/2/2 584/2/2
f 584/2/2 582/2/2 585/2/2
f 585/2/2 582/2/2 586/2/2
f 586/2/2 582/2/2 587/2/2
f 585/2/2 586/2/2 588/2/2
f 588/2/2 586/2/2 589/2/2
f 592/2/3 591/2/3 590/2/3
f 593/2/3 591/2/3 592/2/3
f 594/2/3 592/2/3 590/2/3
f 596/2/3 594/2/3 590/2/3
f 596/2/3 595/2/3 594/2/3
f 597/2/3 595/2/3 596/2/3
f 601/2/3 599/2/3 598/2/3
f 602/2/3 599/2/3 601/2/3
f 603/4/3 601/4/3 600/4/3
f 604/4/3 601/4/3 603/4/3
f 605/2/3 604/2/3 603/2/3
f 606/2/3 604/2/3 605/2/3
f 607/4/3 606/4/3 605/4/3
f 608/4/3 606/4/3 607/4/3
f 609/2/3 608/2/3 607/2/3
f 610/2/3 608/2/3 609/2/3
f 611/4/3 610/4/3 609/4/3
f 612/4/3 610/4/3 611/4/3
f 613/2/3 612/2/3 611/2/3
f 614/2/3 612/2/3 613/2/3
f 615/4/3 614/4/3 613/4/3
f 616/4/3 614/4/3 615/4/3
f 617/2/3 616/2/3 615/2/3
f 618/2/3 616/2/3 617/2/3
f 619/4/3 618/4/3 617/4/3
f 620/4/3 618/4/3 619/4/3
f 621/2/3 620/2/3 619/2/3
f 622/2/3 620/2/3 621/2/3
f 623/4/3 622/4/3 621/4/3
f 624/4/3 622/4/3 623/4/3
f 625/2/3 624/2/3 623/2/3
f 626/2/3 624/2/3 625/2/3
f 627/4/3 626/4/3 625/4/3
f 628/4/3 626/4/3 627/4/3
f 630/2/3 629/2/3 628/2/3
f 631/2/3 629/2/3 630/2/3
f 634/2/3 633/2/3 632/2/3
f 635/2/3 633/2/3 634/2/3
f 638/2/3 637/2/3 636/2/3
f 639/2/3 637/2/3 638/2/3
f 644/2/3 641/2/3 640/2/3
f 645/2/3 641/2/3 644/2/3
f 646/2/3 643/2/3 642/2/3
f 647/2/3 643/2/3 646/2/3
f 648/2/3 646/2/3 642/2/3
f 649/4/3 647/4/3 646/4/3
f 649/2/3 646/2/3 648/2/3
f 650/2/3 643/2/3 647/2/3
f 650/4/3 647/4/3 649/4/3
f 651/3/3 650/3/3 649/3/3
f 652/3/3 650/3/3 651/3/3
f 653/3/3 650/3/3 652/3/3
f 654/3/3 650/3/3 653/3/3
f 655/2/3 649/2/3 648/2/3
f 656/3/3 651/3/3 649/3/3
f 657/3/3 653/3/3 652/3/3
f 658/3/3 653/3/3 657/3/3
f 659/3/3 650/3/3 654/3/3
f 660/2/3 649/2/3 655/2/3
f 661/3/3 658/3/3 657/3/3
f 661/3/3 659/3/3 658/3/3
f 661/3/3 656/3/3 649/3/3
f 661/3/3 657/3/3 656/3/3
f 662/3/3 659/3/3 661/3/3
f 663/3/3 659/3/3 662/3/3
f 664/3/3 650/3/3 659/3/3
f 664/3/3 659/3/3 663/3/3
f 665/2/3 649/2/3 660/2/3
f 666/3/3 661/3/3 649/3/3
f 667/3/3 663/3/3 662/3/3
f 668/3/3 663/3/3 667/3/3
f 669/3/3 650/3/3 664/3/3
f 670/3/3 668/3/3 667/3/3
f 670/3/3 669/3/3 668/3/3
f 670/3/3 666/3/3 649/3/3
f 670/2/3 649/2/3 665/2/3
f 670/3/3 667/3/3 666/3/3
f 671/3/3 650/3/3 669/3/3
f 671/3/3 669/3/3 670/3/3
f 671/2/3 643/2/3 650/2/3
f 672/2/3 670/2/3 665/2/3
f 672/2/3 671/2/3 670/2/3
f 673/2/3 671/2/3 672/2/3
f 674/2/3 643/2/3 671/2/3
f 674/2/3 671/2/3 673/2/3
f 675/2/3 643/2/3 674/2/3
f 676/4/3 673/4/3 672/4/3
f 677/4/3 673/4/3 676/4/3
f 678/4/3 673/4/3 677/4/3
f 679/4/3 673/4/3 678/4/3
f 680/4/3 676/4/3 672/4/3
f 681/1/3 677/1/3 676/1/3
f 681/4/3 676/4/3 680/4/3
f 682/4/3 678/4/3 677/4/3
f 682/1/3 677/1/3 681/1/3
f 683/1/3 679/1/3 678/1/3
f 683/4/3 678/4/3 682/4/3
f 684/4/3 673/4/3 679/4/3
f 684/1/3 679/1/3 683/1/3
f 685/4/3 683/4/3 682/4/3
f 685/4/3 681/4/3 680/4/3
f 685/4/3 684/4/3 683/4/3
f 685/4/3 682/4/3 681/4/3
f 686/4/3 684/4/3 685/4/3
f 687/4/3 685/4/3 680/4/3
f 688/4/3 685/4/3 687/4/3
f 689/5/3 686/5/3 685/5/3
f 689/4/3 685/4/3 688/4/3
f 690/4/3 684/4/3 686/4/3
f 691/4/3 673/4/3 684/4/3
f 691/4/3 684/4/3 690/4/3
f 692/4/3 688/4/3 687/4/3
f 692/1/3 689/1/3 688/1/3
f 693/5/3 686/5/3 689/5/3
f 693/1/3 689/1/3 692/1/3
f 694/4/3 690/4/3 686/4/3
f 694/5/3 686/5/3 693/5/3
f 695/1/3 691/1/3 690/1/3
f 695/4/3 690/4/3 694/4/3
f 696/4/3 673/4/3 691/4/3
f 696/1/3 691/1/3 695/1/3
f 697/4/3 693/4/3 692/4/3
f 697/4/3 692/4/3 687/4/3
f 697/4/3 696/4/3 695/4/3
f 697/4/3 694/4/3 693/4/3
f 697/4/3 695/4/3 694/4/3
f 698/2/3 674/2/3 673/2/3
f 698/4/3 696/4/3 697/4/3
f 698/4/3 673/4/3 696/4/3
f 699/2/3 674/2/3 698/2/3
f 701/2/3 698/2/3 697/2/3
f 701/2/3 700/2/3 699/2/3
f 701/2/3 699/2/3 698/2/3
f 702/2/3 700/2/3 701/2/3
f 703/2/3 701/2/3 697/2/3
f 704/3/3 702/3/3 701/3/3
f 705/3/3 702/3/3 704/3/3
f 706/3/3 702/3/3 705/3/3
f 707/3/3 702/3/3 706/3/3
f 708/2/3 701/2/3 703/2/3
f 709/3/3 704/3/3 701/3/3
f 710/3/3 706/3/3 705/3/3
f 711/3/3 706/3/3 710/3/3
f 712/3/3 702/3/3 707/3/3
f 713/3/3 711/3/3 710/3/3
f 713/3/3 712/3/3 711/3/3
f 713/3/3 709/3/3 701/3/3
f 713/3/3 710/3/3 709/3/3
f 714/3/3 712/3/3 713/3/3
f 715/3/3 712/3/3 714/3/3
f 716/3/3 702/3/3 712/3/3
f 716/3/3 712/3/3 715/3/3
f 717/2/3 701/2/3 708/2/3
f 718/3/3 713/3/3 701/3/3
f 719/3/3 715/3/3 714/3/3
f 720/3/3 715/3/3 719/3/3
f 721/3/3 702/3/3 716/3/3
f 722/2/3 701/2/3 717/2/3
f 723/3/3 718/3/3 701/3/3
f 723/2/3 701/2/3 722/2/3
f 723/3/3 720/3/3 719/3/3
f 723/3/3 721/3/3 720/3/3
f 723/3/3 719/3/3 718/3/3
f 724/2/3 700/2/3 702/2/3
f 724/3/3 721/3/3 723/3/3
f 724/3/3 702/3/3 721/3/3
f 725/2/3 723/2/3 722/2/3
f 725/4/3 724/4/3 723/4/3
f 726/2/3 700/2/3 724/2/3
f 726/4/3 724/4/3 725/4/3
f 727/2/3 725/2/3 722/2/3
f 727/2/3 726/2/3 725/2/3
f 728/2/3 700/2/3 726/2/3
f 728/2/3 726/2/3 727/2/3
f 731/2/3 730/2/3 729/2/3
f 732/2/3 730/2/3 731/2/3
f 735/2/3 734/2/3 733/2/3
f 736/2/3 734/2/3 735/2/3
f 739/2/3 738/2/3 737/2/3
f 740/2/3 738/2/3 739/2/3
f 743/2/3 742/2/3 741/2/3
f 744/2/3 742/2/3 743/2/3
f 749/2/3 746/2/3 745/2/3
f 750/2/3 746/2/3 749/2/3
f 752/4/3 748/4/3 747/4/3
f 753/4/3 748/4/3 752/4/3
f 755/4/3 752/4/3 751/4/3
f 755/4/3 754/4/3 753/4/3
f 755/4/3 753/4/3 752/4/3
f 756/4/3 754/4/3 755/4/3
f 757/4/3 754/4/3 756/4/3
f 758/4/3 754/4/3 757/4/3
f 760/4/3 757/4/3 756/4/3
f 761/4/3 757/4/3 760/4/3
f 763/4/3 760/4/3 759/4/3
f 763/4/3 762/4/3 761/4/3
f 763/4/3 761/4/3 760/4/3
f 764/4/3 762/4/3 763/4/3
f 765/4/3 762/4/3 764/4/3
f 766/4/3 762/4/3 765/4/3
f 768/4/3 765/4/3 764/4/3
f 769/4/3 765/4/3 768/4/3
f 771/4/3 768/4/3 767/4/3
f 771/4/3 770/4/3 769/4/3
f 771/4/3 769/4/3 768/4/3
f 772/4/3 770/4/3 771/4/3
f 773/4/3 770/4/3 772/4/3
f 774/4/3 770/4/3 773/4/3
f 776/4/3 773/4/3 772/4/3
f 777/4/3 773/4/3 776/4/3
f 779/4/3 776/4/3 775/4/3
f 779/4/3 778/4/3 777/4/3
f 779/4/3 777/4/3 776/4/3
f 780/4/3 778/4/3 779/4/3
f 781/4/3 778/4/3 780/4/3
f 782/4/3 778/4/3 781/4/3
f 784/4/3 781/4/3 780/4/3
f 785/4/3 781/4/3 784/4/3
f 787/4/3 784/4/3 783/4/3
f 787/4/3 786/4/3 785/4/3
f 787/4/3 785/4/3 784/4/3
f 788/4/3 786/4/3 787/4/3
f 789/4/3 786/4/3 788/4/3
f 790/4/3 786/4/3 789/4/3
f 792/4/3 789/4/3 788/4/3
f 793/4/3 789/4/3 792/4/3
f 795/4/3 792/4/3 791/4/3
f 795/4/3 794/4/3 793/4/3
f 795/4/3 793/4/3 792/4/3
f 796/4/3 794/4/3 795/4/3
f 797/4/3 794/4/3 796/4/3
f 798/4/3 794/4/3 797/4/3
f 800/4/3 797/4/3 796/4/3
f 801/4/3 797/4/3 800/4/3
f 803/4/3 800/4/3 799/4/3
f 803/4/3 802/4/3 801/4/3
f 803/4/3 801/4/3 800/4/3
f 804/4/3 802/4/3 803/4/3
f 805/4/3 802/4/3 804/4/3
f 806/4/3 802/4/3 805/4/3
f 808/4/3 805/4/3 804/4/3
f 809/4/3 805/4/3 808/4/3
f 811/4/3 808/4/3 807/4/3
f 811/4/3 810/4/3 809/4/3
f 811/4/3 809/4/3 808/4/3
f 812/4/3 810/4/3 811/4/3
f 813/4/3 810/4/3 812/4/3
f 814/4/3 810/4/3 813/4/3
f 815/4/3 813/4/3 812/4/3
f 816/4/3 813/4/3 815/4/3
f 819/2/3 818/2/3 817/2/3
f 820/2/3 818/2/3 819/2/3
f 824/2/3 822/2/3 821/2/3
f 824/2/3 823/2/3 822/2/3
f 825/2/3 823/2/3 824/2/3
f 826/3/3 825/3/3 824/3/3
f 827/3/3 825/3/3 826/3/3
f 828/3/3 825/3/3 827/3/3
f 829/3/3 825/3/3 828/3/3
f 830/3/3 826/3/3 824/3/3
f 831/3/3 828/3/3 827/3/3
f 832/3/3 828/3/3 831/3/3
f 833/3/3 825/3/3 829/3/3
f 834/3/3 832/3/3 831/3/3
f 834/3/3 833/3/3 832/3/3
f 834/3/3 830/3/3 824/3/3
f 834/3/3 831/3/3 830/3/3
f 835/3/3 833/3/3 834/3/3
f 836/3/3 833/3/3 835/3/3
f 837/3/3 825/3/3 833/3/3
f 837/3/3 833/3/3 836/3/3
f 838/3/3 834/3/3 824/3/3
f 839/3/3 836/3/3 835/3/3
f 840/3/3 836/3/3 839/3/3
f 841/3/3 825/3/3 837/3/3
f 842/2/3 824/2/3 821/2/3
f 842/3/3 841/3/3 840/3/3
f 842/3/3 838/3/3 824/3/3
f 842/3/3 840/3/3 839/3/3
f 842/3/3 839/3/3 838/3/3
f 843/3/3 825/3/3 841/3/3
f 843/3/3 841/3/3 842/3/3
f 843/2/3 823/2/3 825/2/3
f 844/2/3 842/2/3 821/2/3
f 844/2/3 843/2/3 842/2/3
f 845/2/3 823/2/3 843/2/3
f 845/2/3 843/2/3 844/2/3
f 846/2/3 844/2/3 821/2/3
f 846/4/3 845/4/3 844/4/3
f 847/2/3 823/2/3 845/2/3
f 847/4/3 845/4/3 846/4/3
f 848/2/3 846/2/3 821/2/3
f 848/2/3 847/2/3 846/2/3
f 849/2/3 823/2/3 847/2/3
f 849/2/3 847/2/3 848/2/3
f 850/3/3 849/3/3 848/3/3
f 851/3/3 849/3/3 850/3/3
f 852/3/3 849/3/3 851/3/3
f 853/3/3 849/3/3 852/3/3
f 854/3/3 850/3/3 848/3/3
f 855/3/3 852/3/3 851/3/3
f 856/3/3 852/3/3 855/3/3
f 857/3/3 849/3/3 853/3/3
f 858/3/3 856/3/3 855/3/3
f 858/3/3 857/3/3 856/3/3
f 858/3/3 854/3/3 848/3/3
f 858/3/3 855/3/3 854/3/3
f 859/3/3 857/3/3 858/3/3
f 860/3/3 857/3/3 859/3/3
f 861/3/3 849/3/3 857/3/3
f 861/3/3 857/3/3 860/3/3
f 862/3/3 858/3/3 848/3/3
f 863/3/3 860/3/3 859/3/3
f 864/3/3 860/3/3 863/3/3
f 865/3/3 849/3/3 861/3/3
f 866/2/3 848/2/3 821/2/3
f 866/3/3 865/3/3 864/3/3
f 866/3/3 862/3/3 848/3/3
f 866/3/3 864/3/3 863/3/3
f 866/3/3 863/3/3 862/3/3
f 867/3/3 849/3/3 865/3/3
f 867/3/3 865/3/3 866/3/3
f 867/2/3 823/2/3 849/2/3
f 868/2/3 866/2/3 821/2/3
f 868/2/3 867/2/3 866/2/3
f 869/2/3 823/2/3 867/2/3
f 869/2/3 867/2/3 868/2/3
f 870/2/3 868/2/3 821/2/3
f 870/4/3 869/4/3 868/4/3
f 871/2/3 823/2/3 869/2/3
f 871/4/3 869/4/3 870/4/3
f 872/2/3 870/2/3 821/2/3
f 872/2/3 871/2/3 870/2/3
f 873/2/3 823/2/3 871/2/3
f 873/2/3 871/2/3 872/2/3
f 874/3/3 873/3/3 872/3/3
f 875/3/3 873/3/3 874/3/3
f 876/3/3 873/3/3 875/3/3
f 877/3/3 873/3/3 876/3/3
f 878/3/3 874/3/3 872/3/3
f 879/3/3 876/3/3 875/3/3
f 880/3/3 876/3/3 879/3/3
f 881/3/3 873/3/3 877/3/3
f 882/3/3 880/3/3 879/3/3
f 882/3/3 881/3/3 880/3/3
f 882/3/3 878/3/3 872/3/3
f 882/3/3 879/3/3 878/3/3
f 883/3/3 881/3/3 882/3/3
f 884/3/3 881/3/3 883/3/3
f 885/3/3 873/3/3 881/3/3
f 885/3/3 881/3/3 884/3/3
f 886/3/3 882/3/3 872/3/3
f 887/3/3 884/3/3 883/3/3
f 888/3/3 884/3/3 887/3/3
f 889/3/3 873/3/3 885/3/3
f 890/2/3 872/2/3 821/2/3
f 890/3/3 889/3/3 888/3/3
f 890/3/3 886/3/3 872/3/3
f 890/3/3 888/3/3 887/3/3
f 890/3/3 887/3/3 886/3/3
f 891/3/3 873/3/3 889/3/3
f 891/3/3 889/3/3 890/3/3
f 891/2/3 823/2/3 873/2/3
f 892/2/3 890/2/3 821/2/3
f 892/2/3 891/2/3 890/2/3
f 893/2/3 823/2/3 891/2/3
f 893/2/3 891/2/3 892/2/3
f 894/2/3 823/2/3 893/2/3
f 897/2/3 896/2/3 895/2/3
f 898/2/3 896/2/3 897/2/3
f 901/2/3 899/2/3 898/2/3
f 902/2/3 899/2/3 901/2/3
f 903/2/3 901/2/3 900/2/3
f 904/2/3 901/2/3 903/2/3
f 907/4/3 906/4/3 905/4/3
f 909/4/3 907/4/3 905/4/3
f 909/4/3 908/4/3 907/4/3
f 910/4/3 908/4/3 909/4/3
f 911/4/3 908/4/3 910/4/3
f 913/3/3 910/3/3 909/3/3
f 914/4/3 912/4/3 911/4/3
f 914/3/3 910/3/3 913/3/3
f 914/4/3 911/4/3 910/4/3
f 915/4/3 912/4/3 914/4/3
f 916/4/3 912/4/3 915/4/3
f 918/2/3 914/2/3 913/2/3
f 918/3/3 915/3/3 914/3/3
f 919/4/3 917/4/3 916/4/3
f 919/3/3 915/3/3 918/3/3
f 919/4/3 916/4/3 915/4/3
f 920/4/3 917/4/3 919/4/3
f 921/2/3 919/2/3 918/2/3
f 921/3/3 920/3/3 919/3/3
f 922/4/3 917/4/3 920/4/3
f 922/3/3 920/3/3 921/3/3
f 923/4/3 917/4/3 922/4/3
f 925/2/3 922/2/3 921/2/3
f 925/4/3 924/4/3 923/4/3
f 925/4/3 923/4/3 922/4/3
f 926/4/3 924/4/3 925/4/3
f 927/4/3 924/4/3 926/4/3
f 929/2/3 925/2/3 921/2/3
f 929/3/3 926/3/3 925/3/3
f 930/4/3 928/4/3 927/4/3
f 930/3/3 926/3/3 929/3/3
f 930/4/3 927/4/3 926/4/3
f 931/4/3 928/4/3 930/4/3
f 932/4/3 928/4/3 931/4/3
f 934/2/3 930/2/3 929/2/3
f 934/3/3 931/3/3 930/3/3
f 935/4/3 933/4/3 932/4/3
f 935/3/3 931/3/3 934/3/3
f 935/4/3 932/4/3 931/4/3
f 936/4/3 933/4/3 935/4/3
f 937/4/3 933/4/3 936/4/3
f 939/2/3 935/2/3 934/2/3
f 939/3/3 936/3/3 935/3/3
f 940/4/3 938/4/3 937/4/3
f 940/3/3 936/3/3 939/3/3
f 940/4/3 937/4/3 936/4/3
f 941/4/3 938/4/3 940/4/3
f 942/4/3 938/4/3 941/4/3
f 944/2/3 940/2/3 939/2/3
f 944/3/3 941/3/3 940/3/3
f 945/4/3 943/4/3 942/4/3
f 945/3/3 941/3/3 944/3/3
f 945/4/3 942/4/3 941/4/3
f 946/4/3 943/4/3 945/4/3
f 947/2/3 945/2/3 944/2/3
f 947/3/3 946/3/3 945/3/3
f 948/4/3 943/4/3 946/4/3
f 948/3/3 946/3/3 947/3/3
f 949/2/3 947/2/3 944/2/3
f 949/2/3 948/2/3 947/2/3
f 950/4/3 943/4/3 948/4/3
f 950/2/3 948/2/3 949/2/3
f 951/2/3 944/2/3 939/2/3
f 951/2/3 949/2/3 944/2/3
f 952/3/3 950/3/3 949/3/3
f 952/2/3 949/2/3 951/2/3
f 953/4/3 943/4/3 950/4/3
f 953/3/3 950/3/3 952/3/3
f 954/2/3 939/2/3 934/2/3
f 954/2/3 951/2/3 939/2/3
f 955/3/3 952/3/3 951/3/3
f 955/2/3 951/2/3 954/2/3
f 956/4/3 953/4/3 952/4/3
f 956/3/3 952/3/3 955/3/3
f 957/4/3 943/4/3 953/4/3
f 957/4/3 953/4/3 956/4/3
f 958/4/3 943/4/3 957/4/3
f 959/2/3 934/2/3 929/2/3
f 959/2/3 954/2/3 934/2/3
f 960/3/3 955/3/3 954/3/3
f 960/2/3 954/2/3 959/2/3
f 961/4/3 956/4/3 955/4/3
f 961/3/3 955/3/3 960/3/3
f 961/4/3 957/4/3 956/4/3
f 962/4/3 957/4/3 961/4/3
f 963/4/3 957/4/3 962/4/3
f 964/2/3 929/2/3 921/2/3
f 964/2/3 959/2/3 929/2/3
f 965/3/3 960/3/3 959/3/3
f 965/2/3 959/2/3 964/2/3
f 966/4/3 962/4/3 961/4/3
f 966/3/3 960/3/3 965/3/3
f 966/4/3 961/4/3 960/4/3
f 967/4/3 962/4/3 966/4/3
f 968/4/3 962/4/3 967/4/3
f 969/2/3 964/2/3 921/2/3
f 969/3/3 965/3/3 964/3/3
f 970/4/3 967/4/3 966/4/3
f 970/3/3 965/3/3 969/3/3
f 970/4/3 966/4/3 965/4/3
f 971/4/3 967/4/3 970/4/3
f 972/4/3 967/4/3 971/4/3
f 973/4/3 970/4/3 969/4/3
f 973/4/3 971/4/3 970/4/3
f 974/4/3 971/4/3 973/4/3
f 975/2/3 921/2/3 918/2/3
f 975/2/3 969/2/3 921/2/3
f 976/4/3 973/4/3 969/4/3
f 976/2/3 969/2/3 975/2/3
f 977/2/3 918/2/3 913/2/3
f 977/2/3 975/2/3 918/2/3
f 978/3/3 976/3/3 975/3/3
f 978/2/3 975/2/3 977/2/3
f 979/4/3 973/4/3 976/4/3
f 979/3/3 976/3/3 978/3/3
f 980/2/3 977/2/3 913/2/3
f 981/3/3 978/3/3 977/3/3
f 981/2/3 977/2/3 980/2/3
f 982/4/3 979/4/3 978/4/3
f 982/3/3 978/3/3 981/3/3
f 983/4/3 973/4/3 979/4/3
f 983/4/3 979/4/3 982/4/3
f 984/4/3 973/4/3 983/4/3
f 985/3/3 981/3/3 980/3/3
f 986/4/3 982/4/3 981/4/3
f 986/3/3 981/3/3 985/3/3
f 986/4/3 983/4/3 982/4/3
f 987/4/3 983/4/3 986/4/3
f 988/4/3 983/4/3 987/4/3
f 989/4/3 986/4/3 985/4/3
f 989/4/3 987/4/3 986/4/3
f 990/4/3 987/4/3 989/4/3
f 991/4/3 989/4/3 985/4/3
f 992/4/3 989/4/3 991/4/3
f 995/2/3 994/2/3 993/2/3
f 996/2/3 994/2/3 995/2/3
f 999/2/3 998/2/3 997/2/3
f 1000/2/3 998/2/3 999/2/3
f 1005/2/3 1002/2/3 1001/2/3
f 1006/2/3 1004/2/3 1003/2/3
f 1008/2/3 1002/2/3 1005/2/3
f 1009/2/3 1002/2/3 1008/2/3
f 1010/2/3 1002/2/3 1009/2/3
f 1011/2/3 1002/2/3 1010/2/3
f 1012/2/3 1002/2/3 1011/2/3
f 1013/2/3 1002/2/3 1012/2/3
f 1014/2/3 1002/2/3 1013/2/3
f 1015/2/3 1002/2/3 1014/2/3
f 1016/2/3 1002/2/3 1015/2/3
f 1017/2/3 1002/2/3 1016/2/3
f 1018/2/3 1002/2/3 1017/2/3
f 1019/2/3 1007/2/3 1006/2/3
f 1019/2/3 1006/2/3 1003/2/3
f 1020/2/3 1007/2/3 1019/2/3
f 1021/2/3 1002/2/3 1018/2/3
f 1022/2/3 1002/2/3 1021/2/3
f 1023/2/3 1019/2/3 1003/2/3
f 1024/2/3 1019/2/3 1023/2/3
f 1025/4/4 1026/4/4 1027/4/4
f 1027/4/4 1026/4/4 1028/4/4
f 1029/4/4 1030/4/4 1031/4/4
f 1031/4/4 1030/4/4 1032/4/4
f 1032/4/4 1030/4/4 1033/4/4
f 1033/4/4 1030/4/4 1034/4/4
f 1029/4/4 1031/4/4 1035/4/4
f 1031/1/4 1032/1/4 1036/1/4
f 1035/4/4 1031/4/4 1036/4/4
f 1032/4/4 1033/4/4 1037/4/4
f 1036/1/4 1032/1/4 1037/1/4
f 1033/1/4 1034/1/4 1038/1/4
f 1037/4/4 1033/4/4 1038/4/4
f 1034/4/4 1030/4/4 1039/4/4
f 1038/1/4 1034/1/4 1039/1/4
f 1037/4/4 1038/4/4 1040/4/4
f 1035/4/4 1036/4/4 1040/4/4
f 1038/4/4 1039/4/4 1040/4/4
f 1036/4/4 1037/4/4 1040/4/4
f 1040/4/4 1039/4/4 1041/4/4
f 1035/4/4 1040/4/4 1042/4/4
f 1042/4/4 1040/4/4 1043/4/4
f 1040/5/4 1041/5/4 1044/5/4
f 1043/4/4 1040/4/4 1044/4/4
f 1041/4/4 1039/4/4 1045/4/4
f 1039/4/4 1030/4/4 1046/4/4
f 1045/4/4 1039/4/4 1046/4/4
f 1042/4/4 1043/4/4 1047/4/4
f 1043/1/4 1044/1/4 1047/1/4
f 1044/5/4 1041/5/4 1048/5/4
f 1047/1/4 1044/1/4 1048/1/4
f 1041/4/4 1045/4/4 1049/4/4
f 1048/5/4 1041/5/4 1049/5/4
f 1045/1/4 1046/1/4 1050/1/4
f 1049/4/4 1045/4/4 1050/4/4
f 1046/4/4 1030/4/4 1051/4/4
f 1050/1/4 1046/1/4 1051/1/4
f 1047/4/4 1048/4/4 1052/4/4
f 1042/4/4 1047/4/4 1052/4/4
f 1050/4/4 1051/4/4 1052/4/4
f 1048/4/4 1049/4/4 1052/4/4
f 1049/4/4 1050/4/4 1052/4/4
f 1051/4/4 1030/4/4 1053/4/4
f 1052/4/4 1051/4/4 1053/4/4
f 1054/2/4 1055/2/4 1057/2/4
f 1055/4/4 1056/4/4 1058/4/4
f 1057/2/4 1055/2/4 1058/2/4
f 1058/4/4 1056/4/4 1059/4/4
f 1060/2/4 1061/2/4 1062/2/4
f 1062/2/4 1061/2/4 1063/2/4
f 1060/2/4 1062/2/4 1064/2/4
f 1064/2/4 1062/2/4 1065/2/4
f 1065/1/4 1066/1/4 1067/1/4
f 1067/1/4 1066/1/4 1068/1/4
f 1068/1/4 1066/1/4 1069/1/4
f 1069/1/4 1066/1/4 1070/1/4
f 1064/2/4 1065/2/4 1071/2/4
f 1065/1/4 1067/1/4 1072/1/4
f 1068/1/4 1069/1/4 1073/1/4
f 1073/1/4 1069/1/4 1074/1/4
f 1070/1/4 1066/1/4 1075/1/4
f 1071/2/4 1065/2/4 1076/2/4
f 1073/1/4 1074/1/4 1077/1/4
f 1074/1/4 1075/1/4 1077/1/4
f 1065/1/4 1072/1/4 1077/1/4
f 1072/1/4 1073/1/4 1077/1/4
f 1077/1/4 1075/1/4 1078/1/4
f 1078/1/4 1075/1/4 1079/1/4
f 1075/1/4 1066/1/4 1080/1/4
f 1079/1/4 1075/1/4 1080/1/4
f 1076/2/4 1065/2/4 1081/2/4
f 1065/1/4 1077/1/4 1082/1/4
f 1078/1/4 1079/1/4 1083/1/4
f 1083/1/4 1079/1/4 1084/1/4
f 1080/1/4 1066/1/4 1085/1/4
f 1083/1/4 1084/1/4 1086/1/4
f 1084/1/4 1085/1/4 1086/1/4
f 1065/1/4 1082/1/4 1086/1/4
f 1081/2/4 1065/2/4 1086/2/4
f 1082/1/4 1083/1/4 1086/1/4
f 1085/1/4 1066/1/4 1087/1/4
f 1086/1/4 1085/1/4 1087/1/4
f 1081/2/4 1086/2/4 1088/2/4
f 1086/2/4 1087/2/4 1088/2/4
f 1088/2/4 1087/2/4 1089/2/4
f 1089/2/4 1087/2/4 1091/2/4
f 1090/2/4 1091/2/4 1092/2/4
f 1091/2/4 1087/2/4 1093/2/4
f 1092/2/4 1091/2/4 1093/2/4
f 1090/2/4 1092/2/4 1094/2/4
f 1092/1/4 1093/1/4 1095/1/4
f 1095/1/4 1093/1/4 1096/1/4
f 1096/1/4 1093/1/4 1097/1/4
f 1097/1/4 1093/1/4 1098/1/4
f 1094/2/4 1092/2/4 1099/2/4
f 1092/1/4 1095/1/4 1100/1/4
f 1096/1/4 1097/1/4 1101/1/4
f 1101/1/4 1097/1/4 1102/1/4
f 1098/1/4 1093/1/4 1103/1/4
f 1101/1/4 1102/1/4 1104/1/4
f 1102/1/4 1103/1/4 1104/1/4
f 1092/1/4 1100/1/4 1104/1/4
f 1100/1/4 1101/1/4 1104/1/4
f 1104/1/4 1103/1/4 1105/1/4
f 1105/1/4 1103/1/4 1106/1/4
f 1103/1/4 1093/1/4 1107/1/4
f 1106/1/4 1103/1/4 1107/1/4
f 1099/2/4 1092/2/4 1108/2/4
f 1092/1/4 1104/1/4 1109/1/4
f 1105/1/4 1106/1/4 1110/1/4
f 1110/1/4 1106/1/4 1111/1/4
f 1107/1/4 1093/1/4 1112/1/4
f 1108/2/4 1092/2/4 1113/2/4
f 1092/1/4 1109/1/4 1114/1/4
f 1113/2/4 1092/2/4 1114/2/4
f 1110/1/4 1111/1/4 1114/1/4
f 1111/1/4 1112/1/4 1114/1/4
f 1109/1/4 1110/1/4 1114/1/4
f 1112/1/4 1093/1/4 1115/1/4
f 1114/1/4 1112/1/4 1115/1/4
f 1116/2/4 1117/2/4 1118/2/4
f 1118/2/4 1117/2/4 1119/2/4
f 1120/4/4 1121/4/4 1123/4/4
f 1123/4/4 1121/4/4 1124/4/4
f 1122/4/4 1123/4/4 1126/4/4
f 1124/4/4 1125/4/4 1126/4/4
f 1123/4/4 1124/4/4 1126/4/4
f 1126/4/4 1125/4/4 1127/4/4
f 1127/4/4 1125/4/4 1128/4/4
f 1128/4/4 1125/4/4 1129/4/4
f 1127/4/4 1128/4/4 1131/4/4
f 1131/4/4 1128/4/4 1132/4/4
f 1130/4/4 1131/4/4 1134/4/4
f 1132/4/4 1133/4/4 1134/4/4
f 1131/4/4 1132/4/4 1134/4/4
f 1134/4/4 1133/4/4 1135/4/4
f 1135/4/4 1133/4/4 1136/4/4
f 1136/4/4 1133/4/4 1137/4/4
f 1135/4/4 1136/4/4 1139/4/4
f 1139/4/4 1136/4/4 1140/4/4
f 1138/4/4 1139/4/4 1142/4/4
f 1140/4/4 1141/4/4 1142/4/4
f 1139/4/4 1140/4/4 1142/4/4
f 1142/4/4 1141/4/4 1143/4/4
f 1143/4/4 1141/4/4 1144/4/4
f 1144/4/4 1141/4/4 1145/4/4
f 1143/4/4 1144/4/4 1147/4/4
f 1147/4/4 1144/4/4 1148/4/4
f 1146/4/4 1147/4/4 1150/4/4
f 1148/4/4 1149/4/4 1150/4/4
f 1147/4/4 1148/4/4 1150/4/4
f 1150/4/4 1149/4/4 1151/4/4
f 1151/4/4 1149/4/4 1152/4/4
f 1152/4/4 1149/4/4 1153/4/4
f 1151/4/4 1152/4/4 1155/4/4
f 1155/4/4 1152/4/4 1156/4/4
f 1154/4/4 1155/4/4 1158/4/4
f 1156/4/4 1157/4/4 1158/4/4
f 1155/4/4 1156/4/4 1158/4/4
f 1158/4/4 1157/4/4 1159/4/4
f 1159/4/4 1157/4/4 1160/4/4
f 1160/4/4 1157/4/4 1161/4/4
f 1159/4/4 1160/4/4 1163/4/4
f 1163/4/4 1160/4/4 1164/4/4
f 1162/4/4 1163/4/4 1166/4/4
f 1164/4/4 1165/4/4 1166/4/4
f 1163/4/4 1164/4/4 1166/4/4
f 1166/4/4 1165/4/4 1167/4/4
f 1167/4/4 1165/4/4 1168/4/4
f 1168/4/4 1165/4/4 1169/4/4
f 1167/4/4 1168/4/4 1171/4/4
f 1171/4/4 1168/4/4 1172/4/4
f 1170/4/4 1171/4/4 1174/4/4
f 1172/4/4 1173/4/4 1174/4/4
f 1171/4/4 1172/4/4 1174/4/4
f 1174/4/4 1173/4/4 1175/4/4
f 1175/4/4 1173/4/4 1176/4/4
f 1176/4/4 1173/4/4 1177/4/4
f 1175/4/4 1176/4/4 1179/4/4
f 1179/4/4 1176/4/4 1180/4/4
f 1178/4/4 1179/4/4 1182/4/4
f 1180/4/4 1181/4/4 1182/4/4
f 1179/4/4 1180/4/4 1182/4/4
f 1182/4/4 1181/4/4 1183/4/4
f 1183/4/4 1181/4/4 1184/4/4
f 1184/4/4 1181/4/4 1185/4/4
f 1183/4/4 1184/4/4 1186/4/4
f 1186/4/4 1184/4/4 1187/4/4
f 1188/2/4 1189/2/4 1190/2/4
f 1190/2/4 1189/2/4 1191/2/4
f 1190/3/4 1191/3/4 1192/3/4
f 1192/3/4 1191/3/4 1193/3/4
f 1193/3/4 1191/3/4 1194/3/4
f 1194/3/4 1191/3/4 1195/3/4
f 1195/3/4 1191/3/4 1196/3/4
f 1190/3/4 1192/3/4 1198/3/4
f 1193/3/4 1194/3/4 1199/3/4
f 1199/3/4 1194/3/4 1200/3/4
f 1195/3/4 1196/3/4 1201/3/4
f 1199/3/4 1200/3/4 1202/3/4
f 1200/3/4 1201/3/4 1202/3/4
f 1190/3/4 1198/3/4 1202/3/4
f 1198/3/4 1199/3/4 1202/3/4
f 1202/3/4 1201/3/4 1203/3/4
f 1203/3/4 1201/3/4 1204/3/4
f 1201/3/4 1196/3/4 1205/3/4
f 1204/3/4 1201/3/4 1205/3/4
f 1190/3/4 1202/3/4 1206/3/4
f 1203/3/4 1204/3/4 1207/3/4
f 1207/3/4 1204/3/4 1208/3/4
f 1205/3/4 1196/3/4 1209/3/4
f 1188/2/4 1190/2/4 1210/2/4
f 1208/3/4 1209/3/4 1210/3/4
f 1190/3/4 1206/3/4 1210/3/4
f 1207/3/4 1208/3/4 1210/3/4
f 1206/3/4 1207/3/4 1210/3/4
f 1209/3/4 1196/3/4 1211/3/4
f 1210/3/4 1209/3/4 1211/3/4
f 1196/2/4 1197/2/4 1211/2/4
f 1188/2/4 1210/2/4 1212/2/4
f 1210/2/4 1211/2/4 1212/2/4
f 1211/2/4 1197/2/4 1213/2/4
f 1212/2/4 1211/2/4 1213/2/4
f 1188/2/4 1212/2/4 1214/2/4
f 1212/4/4 1213/4/4 1214/4/4
f 1213/2/4 1197/2/4 1215/2/4
f 1214/4/4 1213/4/4 1215/4/4
f 1188/2/4 1214/2/4 1216/2/4
f 1214/2/4 1215/2/4 1216/2/4
f 1215/2/4 1197/2/4 1217/2/4
f 1216/2/4 1215/2/4 1217/2/4
f 1216/3/4 1217/3/4 1218/3/4
f 1218/3/4 1217/3/4 1219/3/4
f 1219/3/4 1217/3/4 1220/3/4
f 1220/3/4 1217/3/4 1221/3/4
f 1216/3/4 1218/3/4 1222/3/4
f 1219/3/4 1220/3/4 1223/3/4
f 1223/3/4 1220/3/4 1224/3/4
f 1221/3/4 1217/3/4 1225/3/4
f 1223/3/4 1224/3/4 1226/3/4
f 1224/3/4 1225/3/4 1226/3/4
f 1216/3/4 1222/3/4 1226/3/4
f 1222/3/4 1223/3/4 1226/3/4
f 1226/3/4 1225/3/4 1227/3/4
f 1227/3/4 1225/3/4 1228/3/4
f 1225/3/4 1217/3/4 1229/3/4
f 1228/3/4 1225/3/4 1229/3/4
f 1216/3/4 1226/3/4 1230/3/4
f 1227/3/4 1228/3/4 1231/3/4
f 1231/3/4 1228/3/4 1232/3/4
f 1229/3/4 1217/3/4 1233/3/4
f 1188/2/4 1216/2/4 1234/2/4
f 1232/3/4 1233/3/4 1234/3/4
f 1216/3/4 1230/3/4 1234/3/4
f 1231/3/4 1232/3/4 1234/3/4
f 1230/3/4 1231/3/4 1234/3/4
f 1233/3/4 1217/3/4 1235/3/4
f 1234/3/4 1233/3/4 1235/3/4
f 1217/2/4 1197/2/4 1235/2/4
f 1188/2/4 1234/2/4 1236/2/4
f 1234/2/4 1235/2/4 1236/2/4
f 1235/2/4 1197/2/4 1237/2/4
f 1236/2/4 1235/2/4 1237/2/4
f 1188/2/4 1236/2/4 1238/2/4
f 1236/4/4 1237/4/4 1238/4/4
f 1237/2/4 1197/2/4 1239/2/4
f 1238/4/4 1237/4/4 1239/4/4
f 1188/2/4 1238/2/4 1240/2/4
f 1238/2/4 1239/2/4 1240/2/4
f 1239/2/4 1197/2/4 1241/2/4
f 1240/2/4 1239/2/4 1241/2/4
f 1240/3/4 1241/3/4 1242/3/4
f 1242/3/4 1241/3/4 1243/3/4
f 1243/3/4 1241/3/4 1244/3/4
f 1244/3/4 1241/3/4 1245/3/4
f 1240/3/4 1242/3/4 1246/3/4
f 1243/3/4 1244/3/4 1247/3/4
f 1247/3/4 1244/3/4 1248/3/4
f 1245/3/4 1241/3/4 1249/3/4
f 1247/3/4 1248/3/4 1250/3/4
f 1248/3/4 1249/3/4 1250/3/4
f 1240/3/4 1246/3/4 1250/3/4
f 1246/3/4 1247/3/4 1250/3/4
f 1250/3/4 1249/3/4 1251/3/4
f 1251/3/4 1249/3/4 1252/3/4
f 1249/3/4 1241/3/4 1253/3/4
f 1252/3/4 1249/3/4 1253/3/4
f 1240/3/4 1250/3/4 1254/3/4
f 1251/3/4 1252/3/4 1255/3/4
f 1255/3/4 1252/3/4 1256/3/4
f 1253/3/4 1241/3/4 1257/3/4
f 1188/2/4 1240/2/4 1258/2/4
f 1256/3/4 1257/3/4 1258/3/4
f 1240/3/4 1254/3/4 1258/3/4
f 1255/3/4 1256/3/4 1258/3/4
f 1254/3/4 1255/3/4 1258/3/4
f 1257/3/4 1241/3/4 1259/3/4
f 1258/3/4 1257/3/4 1259/3/4
f 1241/2/4 1197/2/4 1259/2/4
f 1188/2/4 1258/2/4 1260/2/4
f 1258/2/4 1259/2/4 1260/2/4
f 1259/2/4 1197/2/4 1261/2/4
f 1260/2/4 1259/2/4 1261/2/4
f 1262/2/4 1263/2/4 1265/2/4
f 1263/4/4 1264/4/4 1266/4/4
f 1265/2/4 1263/2/4 1266/2/4
f 1266/4/4 1264/4/4 1267/4/4
f 1267/4/4 1268/4/4 1269/4/4
f 1266/4/4 1267/4/4 1269/4/4
f 1269/4/4 1268/4/4 1270/4/4
f 1270/4/4 1268/4/4 1271/4/4
f 1269/2/4 1270/2/4 1273/2/4
f 1271/4/4 1272/4/4 1273/4/4
f 1270/4/4 1271/4/4 1273/4/4
f 1273/4/4 1272/4/4 1274/4/4
f 1274/4/4 1272/4/4 1275/4/4
f 1273/2/4 1274/2/4 1277/2/4
f 1275/4/4 1276/4/4 1277/4/4
f 1274/4/4 1275/4/4 1277/4/4
f 1277/4/4 1276/4/4 1278/4/4
f 1278/4/4 1276/4/4 1279/4/4
f 1277/2/4 1278/2/4 1281/2/4
f 1279/4/4 1280/4/4 1281/4/4
f 1278/4/4 1279/4/4 1281/4/4
f 1281/4/4 1280/4/4 1282/4/4
f 1282/4/4 1280/4/4 1283/4/4
f 1281/2/4 1282/2/4 1285/2/4
f 1283/4/4 1284/4/4 1285/4/4
f 1282/4/4 1283/4/4 1285/4/4
f 1285/4/4 1284/4/4 1286/4/4
f 1286/4/4 1284/4/4 1287/4/4
f 1285/2/4 1286/2/4 1289/2/4
f 1287/4/4 1288/4/4 1289/4/4
f 1286/4/4 1287/4/4 1289/4/4
f 1289/4/4 1288/4/4 1290/4/4
f 1290/4/4 1288/4/4 1291/4/4
f 1289/2/4 1290/2/4 1293/2/4
f 1291/4/4 1292/4/4 1293/4/4
f 1290/4/4 1291/4/4 1293/4/4
f 1293/4/4 1292/4/4 1294/4/4
f 1294/4/4 1292/4/4 1295/4/4
f 1293/2/4 1294/2/4 1297/2/4
f 1295/4/4 1296/4/4 1297/4/4
f 1294/4/4 1295/4/4 1297/4/4
f 1297/4/4 1296/4/4 1298/4/4
f 1293/2/4 1297/2/4 1299/2/4
f 1297/2/4 1298/2/4 1299/2/4
f 1298/4/4 1296/4/4 1300/4/4
f 1299/2/4 1298/2/4 1300/2/4
f 1289/2/4 1293/2/4 1301/2/4
f 1293/2/4 1299/2/4 1301/2/4
f 1299/4/4 1300/4/4 1302/4/4
f 1301/2/4 1299/2/4 1302/2/4
f 1300/4/4 1296/4/4 1303/4/4
f 1302/4/4 1300/4/4 1303/4/4
f 1303/4/4 1296/4/4 1304/4/4
f 1285/2/4 1289/2/4 1305/2/4
f 1289/2/4 1301/2/4 1305/2/4
f 1301/4/4 1302/4/4 1306/4/4
f 1305/2/4 1301/2/4 1306/2/4
f 1302/4/4 1303/4/4 1306/4/4
f 1306/4/4 1303/4/4 1307/4/4
f 1307/4/4 1303/4/4 1308/4/4
f 1281/2/4 1285/2/4 1309/2/4
f 1285/2/4 1305/2/4 1309/2/4
f 1306/4/4 1307/4/4 1310/4/4
f 1309/2/4 1305/2/4 1310/2/4
f 1305/4/4 1306/4/4 1310/4/4
f 1310/4/4 1307/4/4 1311/4/4
f 1311/4/4 1307/4/4 1312/4/4
f 1277/2/4 1281/2/4 1313/2/4
f 1281/2/4 1309/2/4 1313/2/4
f 1310/4/4 1311/4/4 1314/4/4
f 1313/2/4 1309/2/4 1314/2/4
f 1309/4/4 1310/4/4 1314/4/4
f 1314/4/4 1311/4/4 1315/4/4
f 1315/4/4 1311/4/4 1316/4/4
f 1313/4/4 1314/4/4 1317/4/4
f 1314/4/4 1315/4/4 1317/4/4
f 1317/4/4 1315/4/4 1318/4/4
f 1273/2/4 1277/2/4 1319/2/4
f 1277/2/4 1313/2/4 1319/2/4
f 1313/4/4 1317/4/4 1320/4/4
f 1319/2/4 1313/2/4 1320/2/4
f 1269/2/4 1273/2/4 1321/2/4
f 1273/2/4 1319/2/4 1321/2/4
f 1319/4/4 1320/4/4 1322/4/4
f 1321/2/4 1319/2/4 1322/2/4
f 1320/4/4 1317/4/4 1323/4/4
f 1322/4/4 1320/4/4 1323/4/4
f 1323/4/4 1317/4/4 1324/4/4
f 1269/2/4 1321/2/4 1325/2/4
f 1321/4/4 1322/4/4 1326/4/4
f 1325/2/4 1321/2/4 1326/2/4
f 1322/4/4 1323/4/4 1326/4/4
f 1326/4/4 1323/4/4 1327/4/4
f 1327/4/4 1323/4/4 1328/4/4
f 1325/4/4 1326/4/4 1330/4/4
f 1326/4/4 1327/4/4 1330/4/4
f 1330/4/4 1327/4/4 1331/4/4
f 1331/4/4 1327/4/4 1332/4/4
f 1329/2/4 1330/2/4 1333/2/4
f 1330/4/4 1331/4/4 1334/4/4
f 1333/2/4 1330/2/4 1334/2/4
f 1334/4/4 1331/4/4 1335/4/4
f 1336/2/4 1337/2/4 1338/2/4
f 1338/2/4 1337/2/4 1339/2/4
f 1340/2/4 1341/2/4 1342/2/4
f 1342/2/4 1341/2/4 1343/2/4
f 1344/2/4 1345/2/4 1346/2/4
f 1346/2/4 1345/2/4 1347/2/4
f 1348/2/4 1349/2/4 1350/2/4
f 1350/2/4 1349/2/4 1351/2/4
f 1352/2/4 1353/2/4 1354/2/4
f 1354/2/4 1353/2/4 1355/2/4
f 1355/2/4 1356/2/4 1357/2/4
f 1357/2/4 1356/2/4 1358/2/4
f 1359/2/4 1360/2/4 1361/2/4
f 1361/2/4 1360/2/4 1362/2/4
f 1363/2/4 1364/2/4 1366/2/4
f 1366/2/4 1364/2/4 1367/2/4
f 1365/2/4 1366/2/4 1368/2/4
f 1368/2/4 1366/2/4 1369/2/4
f 1370/2/4 1371/2/4 1372/2/4
f 1372/2/4 1373/2/4 1374/2/4
f 1372/2/4 1374/2/4 1376/2/4
f 1374/2/4 1375/2/4 1376/2/4
f 1376/2/4 1375/2/4 1377/2/4
f 1370/2/4 1372/2/4 1378/2/4
f 1372/2/4 1376/2/4 1378/2/4
f 1378/2/4 1376/2/4 1379/2/4
f 1370/2/4 1378/2/4 1380/2/4
f 1380/2/4 1378/2/4 1381/2/4
f 1384/2/5 1383/2/5 1382/2/5
f 1385/2/5 1383/2/5 1384/2/5
f 1394/3/5 1387/3/5 1386/3/5
f 1395/3/5 1387/3/5 1394/3/5
f 1396/3/5 1389/3/5 1388/3/5
f 1397/3/5 1389/3/5 1396/3/5
f 1398/3/5 1391/3/5 1390/3/5
f 1399/3/5 1391/3/5 1398/3/5
f 1400/3/5 1393/3/5 1392/3/5
f 1401/3/5 1393/3/5 1400/3/5
f 1402/1/5 1395/1/5 1394/1/5
f 1403/1/5 1395/1/5 1402/1/5
f 1404/1/5 1397/1/5 1396/1/5
f 1405/1/5 1397/1/5 1404/1/5
f 1406/1/5 1399/1/5 1398/1/5
f 1407/1/5 1399/1/5 1406/1/5
f 1408/1/5 1401/1/5 1400/1/5
f 1409/1/5 1401/1/5 1408/1/5
f 1418/3/5 1411/3/5 1410/3/5
f 1419/3/5 1411/3/5 1418/3/5
f 1420/3/5 1413/3/5 1412/3/5
f 1421/3/5 1413/3/5 1420/3/5
f 1424/3/5 1415/3/5 1414/3/5
f 1425/3/5 1415/3/5 1424/3/5
f 1426/3/5 1417/3/5 1416/3/5
f 1427/3/5 1417/3/5 1426/3/5
f 1428/1/5 1419/1/5 1418/1/5
f 1429/1/5 1419/1/5 1428/1/5
f 1430/1/5 1421/1/5 1420/1/5
f 1431/1/5 1421/1/5 1430/1/5
f 1432/2/5 1423/2/5 1422/2/5
f 1433/2/5 1423/2/5 1432/2/5
f 1434/1/5 1425/1/5 1424/1/5
f 1435/1/5 1425/1/5 1434/1/5
f 1436/1/5 1427/1/5 1426/1/5
f 1437/1/5 1427/1/5 1436/1/5
f 1443/2/5 1439/2/5 1438/2/5
f 1444/2/5 1439/2/5 1443/2/5
f 1447/2/5 1441/2/5 1440/2/5
f 1448/2/5 1441/2/5 1447/2/5
f 1450/2/5 1446/2/5 1445/2/5
f 1450/2/5 1449/2/5 1448/2/5
f 1450/2/5 1448/2/5 1447/2/5
f 1450/2/5 1447/2/5 1446/2/5
f 1450/2/5 1443/2/5 1442/2/5
f 1450/2/5 1445/2/5 1444/2/5
f 1450/2/5 1444/2/5 1443/2/5
f 1451/2/5 1449/2/5 1450/2/5
f 1470/4/5 1453/4/5 1452/4/5
f 1471/4/5 1453/4/5 1470/4/5
f 1472/4/5 1455/4/5 1454/4/5
f 1473/4/5 1455/4/5 1472/4/5
f 1474/4/5 1457/4/5 1456/4/5
f 1475/4/5 1457/4/5 1474/4/5
f 1476/4/5 1459/4/5 1458/4/5
f 1477/4/5 1459/4/5 1476/4/5
f 1478/4/5 1461/4/5 1460/4/5
f 1479/4/5 1461/4/5 1478/4/5
f 1480/4/5 1463/4/5 1462/4/5
f 1481/4/5 1463/4/5 1480/4/5
f 1482/4/5 1465/4/5 1464/4/5
f 1483/4/5 1465/4/5 1482/4/5
f 1484/4/5 1467/4/5 1466/4/5
f 1485/4/5 1467/4/5 1484/4/5
f 1486/4/5 1469/4/5 1468/4/5
f 1487/4/5 1469/4/5 1486/4/5
f 1500/3/5 1489/3/5 1488/3/5
f 1501/3/5 1489/3/5 1500/3/5
f 1502/3/5 1491/3/5 1490/3/5
f 1503/3/5 1491/3/5 1502/3/5
f 1504/3/5 1493/3/5 1492/3/5
f 1505/3/5 1493/3/5 1504/3/5
f 1506/3/5 1495/3/5 1494/3/5
f 1507/3/5 1495/3/5 1506/3/5
f 1508/3/5 1497/3/5 1496/3/5
f 1509/3/5 1497/3/5 1508/3/5
f 1510/3/5 1499/3/5 1498/3/5
f 1511/3/5 1499/3/5 1510/3/5
f 1524/3/5 1513/3/5 1512/3/5
f 1525/3/5 1513/3/5 1524/3/5
f 1526/3/5 1515/3/5 1514/3/5
f 1527/3/5 1515/3/5 1526/3/5
f 1528/3/5 1517/3/5 1516/3/5
f 1529/3/5 1517/3/5 1528/3/5
f 1530/3/5 1519/3/5 1518/3/5
f 1531/3/5 1519/3/5 1530/3/5
f 1532/3/5 1521/3/5 1520/3/5
f 1533/3/5 1521/3/5 1532/3/5
f 1534/3/5 1523/3/5 1522/3/5
f 1535/3/5 1523/3/5 1534/3/5
f 1542/2/5 1540/2/5 1539/2/5
f 1543/2/5 1537/2/5 1536/2/5
f 1543/2/5 1538/2/5 1537/2/5
f 1544/2/5 1538/2/5 1543/2/5
f 1545/2/5 1542/2/5 1541/2/5
f 1546/2/5 1540/2/5 1542/2/5
f 1546/2/5 1542/2/5 1545/2/5
f 1549/2/5 1548/2/5 1547/2/5
f 1550/2/5 1548/2/5 1549/2/5
f 1551/2/5 1549/2/5 1547/2/5
f 1552/2/5 1549/2/5 1551/2/5
f 1553/2/5 1551/2/5 1547/2/5
f 1554/2/5 1551/2/5 1553/2/5
f 1555/2/6 1556/2/6 1557/2/6
f 1557/2/6 1556/2/6 1558/2/6
f 1558/2/6 1556/2/6 1559/2/6
f 1559/2/6 1556/2/6 1560/2/6
f 1560/2/6 1556/2/6 1561/2/6
f 1561/2/6 1556/2/6 1562/2/6
f 1562/2/6 1556/2/6 1563/2/6
f 1563/2/6 1556/2/6 1564/2/6
f 1564/2/6 1556/2/6 1565/2/6
f 1565/2/6 1556/2/6 1566/2/6
f 1566/2/6 1556/2/6 1567/2/6
f 1567/2/6 1556/2/6 1568/2/6
f 1568/2/6 1556/2/6 1569/2/6
f 1569/2/6 1556/2/6 1570/2/6
f 1571/2/6 1572/2/6 1575/2/6
f 1575/2/6 1572/2/6 1576/2/6
f 1573/2/6 1574/2/6 1589/2/6
f 1589/2/6 1574/2/6 1590/2/6
f 1576/4/6 1577/4/6 1591/4/6
f 1577/2/6 1578/2/6 1592/2/6
f 1591/4/6 1577/4/6 1592/4/6
f 1578/4/6 1579/4/6 1593/4/6
f 1592/2/6 1578/2/6 1593/2/6
f 1579/2/6 1580/2/6 1594/2/6
f 1593/4/6 1579/4/6 1594/4/6
f 1580/4/6 1581/4/6 1595/4/6
f 1594/2/6 1580/2/6 1595/2/6
f 1581/2/6 1582/2/6 1596/2/6
f 1595/4/6 1581/4/6 1596/4/6
f 1582/4/6 1583/4/6 1597/4/6
f 1596/2/6 1582/2/6 1597/2/6
f 1583/2/6 1584/2/6 1598/2/6
f 1597/4/6 1583/4/6 1598/4/6
f 1584/4/6 1585/4/6 1599/4/6
f 1598/2/6 1584/2/6 1599/2/6
f 1585/2/6 1586/2/6 1600/2/6
f 1599/4/6 1585/4/6 1600/4/6
f 1586/4/6 1587/4/6 1601/4/6
f 1600/2/6 1586/2/6 1601/2/6
f 1587/2/6 1588/2/6 1602/2/6
f 1601/4/6 1587/4/6 1602/4/6
f 1588/4/6 1589/4/6 1603/4/6
f 1602/2/6 1588/2/6 1603/2/6
f 1603/4/6 1589/4/6 1604/4/6
f 1605/2/6 1606/2/6 1616/2/6
f 1607/2/6 1608/2/6 1617/2/6
f 1609/4/6 1610/4/6 1621/4/6
f 1621/4/6 1610/4/6 1622/4/6
f 1611/4/6 1612/4/6 1624/4/6
f 1612/2/6 1613/2/6 1625/2/6
f 1624/4/6 1612/4/6 1625/4/6
f 1613/4/6 1614/4/6 1626/4/6
f 1625/2/6 1613/2/6 1626/2/6
f 1614/2/6 1615/2/6 1627/2/6
f 1626/4/6 1614/4/6 1627/4/6
f 1615/4/6 1616/4/6 1628/4/6
f 1627/2/6 1615/2/6 1628/2/6
f 1616/2/6 1606/2/6 1629/2/6
f 1628/4/6 1616/4/6 1629/4/6
f 1606/4/6 1607/4/6 1630/4/6
f 1629/2/6 1606/2/6 1630/2/6
f 1607/2/6 1617/2/6 1631/2/6
f 1630/4/6 1607/4/6 1631/4/6
f 1617/4/6 1618/4/6 1632/4/6
f 1631/2/6 1617/2/6 1632/2/6
f 1618/2/6 1619/2/6 1633/2/6
f 1632/4/6 1618/4/6 1633/4/6
f 1619/4/6 1620/4/6 1634/4/6
f 1633/2/6 1619/2/6 1634/2/6
f 1620/2/6 1621/2/6 1635/2/6
f 1634/4/6 1620/4/6 1635/4/6
f 1622/4/6 1623/4/6 1636/4/6
f 1635/2/6 1621/2/6 1636/2/6
f 1621/4/6 1622/4/6 1636/4/6
f 1636/4/6 1623/4/6 1637/4/6
f 1638/2/6 1639/2/6 1640/2/6
f 1640/2/6 1639/2/6 1641/2/6
f 1642/3/6 1643/3/6 1650/3/6
f 1650/3/6 1643/3/6 1651/3/6
f 1644/3/6 1645/3/6 1652/3/6
f 1652/3/6 1645/3/6 1653/3/6
f 1646/3/6 1647/3/6 1654/3/6
f 1654/3/6 1647/3/6 1655/3/6
f 1648/3/6 1649/3/6 1656/3/6
f 1656/3/6 1649/3/6 1657/3/6
f 1650/1/6 1651/1/6 1658/1/6
f 1658/1/6 1651/1/6 1659/1/6
f 1652/1/6 1653/1/6 1660/1/6
f 1660/1/6 1653/1/6 1661/1/6
f 1654/1/6 1655/1/6 1662/1/6
f 1662/1/6 1655/1/6 1663/1/6
f 1656/1/6 1657/1/6 1664/1/6
f 1664/1/6 1657/1/6 1665/1/6
f 1666/3/6 1667/3/6 1674/3/6
f 1674/3/6 1667/3/6 1675/3/6
f 1668/3/6 1669/3/6 1676/3/6
f 1676/3/6 1669/3/6 1677/3/6
f 1670/3/6 1671/3/6 1678/3/6
f 1678/3/6 1671/3/6 1679/3/6
f 1672/3/6 1673/3/6 1680/3/6
f 1680/3/6 1673/3/6 1681/3/6
f 1674/1/6 1675/1/6 1682/1/6
f 1682/1/6 1675/1/6 1683/1/6
f 1676/1/6 1677/1/6 1684/1/6
f 1684/1/6 1677/1/6 1685/1/6
f 1678/1/6 1679/1/6 1686/1/6
f 1686/1/6 1679/1/6 1687/1/6
f 1680/1/6 1681/1/6 1688/1/6
f 1688/1/6 1681/1/6 1689/1/6
f 1690/2/6 1691/2/6 1692/2/6
f 1692/2/6 1691/2/6 1693/2/6
f 1694/2/6 1695/2/6 1698/2/6
f 1696/2/6 1697/2/6 1699/2/6
f 1694/2/6 1698/2/6 1700/2/6
f 1698/2/6 1699/2/6 1700/2/6
f 1700/2/6 1699/2/6 1701/2/6
f 1701/2/6 1699/2/6 1702/2/6
f 1702/2/6 1699/2/6 1703/2/6
f 1703/2/6 1699/2/6 1704/2/6
f 1704/2/6 1699/2/6 1705/2/6
f 1705/2/6 1699/2/6 1706/2/6
f 1706/2/6 1699/2/6 1707/2/6
f 1707/2/6 1699/2/6 1708/2/6
f 1708/2/6 1699/2/6 1709/2/6
f 1699/2/6 1697/2/6 1710/2/6
f 1709/2/6 1699/2/6 1710/2/6
f 1710/2/6 1697/2/6 1711/2/6
f 1711/2/6 1697/2/6 1712/2/6
f 1712/2/6 1697/2/6 1713/2/6
f 1713/2/6 1697/2/6 1714/2/6
f 1714/2/6 1697/2/6 1715/2/6
f 1694/2/6 1700/2/6 1716/2/6
f 1701/2/6 1702/2/6 1717/2/6
f 1717/2/6 1702/2/6 1718/2/6
f 1703/2/6 1704/2/6 1719/2/6
f 1719/2/6 1704/2/6 1720/2/6
f 1705/2/6 1706/2/6 1721/2/6
f 1721/2/6 1706/2/6 1722/2/6
f 1707/2/6 1708/2/6 1723/2/6
f 1723/2/6 1708/2/6 1724/2/6
f 1709/2/6 1710/2/6 1725/2/6
f 1725/2/6 1710/2/6 1726/2/6
f 1711/2/6 1712/2/6 1727/2/6
f 1727/2/6 1712/2/6 1728/2/6
f 1713/2/6 1714/2/6 1729/2/6
f 1729/2/6 1714/2/6 1730/2/6
f 1715/2/6 1697/2/6 1731/2/6
f 1729/2/6 1730/2/6 1732/2/6
f 1730/2/6 1731/2/6 1732/2/6
f 1727/2/6 1728/2/6 1732/2/6
f 1725/2/6 1726/2/6 1732/2/6
f 1728/2/6 1729/2/6 1732/2/6
f 1694/2/6 1716/2/6 1732/2/6
f 1726/2/6 1727/2/6 1732/2/6
f 1723/2/6 1724/2/6 1732/2/6
f 1724/2/6 1725/2/6 1732/2/6
f 1717/2/6 1718/2/6 1732/2/6
f 1722/2/6 1723/2/6 1732/2/6
f 1721/2/6 1722/2/6 1732/2/6
f 1720/2/6 1721/2/6 1732/2/6
f 1719/2/6 1720/2/6 1732/2/6
f 1718/2/6 1719/2/6 1732/2/6
f 1716/2/6 1717/2/6 1732/2/6
f 1731/2/6 1697/2/6 1733/2/6
f 1732/2/6 1731/2/6 1733/2/6
f 1734/2/6 1735/2/6 1736/2/6
f 1736/2/6 1735/2/6 1737/2/6
f 1738/2/6 1739/2/6 1742/2/6
f 1742/2/6 1739/2/6 1743/2/6
f 1740/2/6 1741/2/6 1744/2/6
f 1744/2/6 1741/2/6 1745/2/6
f 1746/4/6 1747/4/6 1764/4/6
f 1764/4/6 1747/4/6 1765/4/6
f 1748/4/6 1749/4/6 1766/4/6
f 1766/4/6 1749/4/6 1767/4/6
f 1750/4/6 1751/4/6 1768/4/6
f 1768/4/6 1751/4/6 1769/4/6
f 1752/4/6 1753/4/6 1770/4/6
f 1770/4/6 1753/4/6 1771/4/6
f 1754/4/6 1755/4/6 1772/4/6
f 1772/4/6 1755/4/6 1773/4/6
f 1756/4/6 1757/4/6 1774/4/6
f 1774/4/6 1757/4/6 1775/4/6
f 1758/4/6 1759/4/6 1776/4/6
f 1776/4/6 1759/4/6 1777/4/6
f 1760/4/6 1761/4/6 1778/4/6
f 1778/4/6 1761/4/6 1779/4/6
f 1762/4/6 1763/4/6 1780/4/6
f 1780/4/6 1763/4/6 1781/4/6
f 1782/3/6 1783/3/6 1794/3/6
f 1794/3/6 1783/3/6 1795/3/6
f 1784/3/6 1785/3/6 1796/3/6
f 1796/3/6 1785/3/6 1797/3/6
f 1786/3/6 1787/3/6 1798/3/6
f 1798/3/6 1787/3/6 1799/3/6
f 1788/3/6 1789/3/6 1800/3/6
f 1800/3/6 1789/3/6 1801/3/6
f 1790/3/6 1791/3/6 1802/3/6
f 1802/3/6 1791/3/6 1803/3/6
f 1792/3/6 1793/3/6 1804/3/6
f 1804/3/6 1793/3/6 1805/3/6
f 1806/2/6 1807/2/6 1810/2/6
f 1810/2/6 1807/2/6 1811/2/6
f 1808/2/6 1809/2/6 1812/2/6
f 1812/2/6 1809/2/6 1813/2/6
f 1814/4/6 1815/4/6 1830/4/6
f 1830/4/6 1815/4/6 1831/4/6
f 1816/4/6 1817/4/6 1832/4/6
f 1832/4/6 1817/4/6 1833/4/6
f 1818/4/6 1819/4/6 1834/4/6
f 1834/4/6 1819/4/6 1835/4/6
f 1820/4/6 1821/4/6 1836/4/6
f 1836/4/6 1821/4/6 1837/4/6
f 1822/4/6 1823/4/6 1838/4/6
f 1838/4/6 1823/4/6 1839/4/6
f 1824/4/6 1825/4/6 1840/4/6
f 1840/4/6 1825/4/6 1841/4/6
f 1826/4/6 1827/4/6 1842/4/6
f 1842/4/6 1827/4/6 1843/4/6
f 1828/4/6 1829/4/6 1844/4/6
f 1844/4/6 1829/4/6 1845/4/6
f 1846/2/6 1847/2/6 1850/2/6
f 1850/2/6 1847/2/6 1851/2/6
f 1848/2/6 1849/2/6 1852/2/6
f 1852/2/6 1849/2/6 1853/2/6
f 1854/3/6 1855/3/6 1866/3/6
f 1866/3/6 1855/3/6 1867/3/6
f 1856/3/6 1857/3/6 1868/3/6
f 1868/3/6 1857/3/6 1869/3/6
f 1858/3/6 1859/3/6 1870/3/6
f 1870/3/6 1859/3/6 1871/3/6
f 1860/3/6 1861/3/6 1872/3/6
f 1872/3/6 1861/3/6 1873/3/6
f 1862/3/6 1863/3/6 1874/3/6
f 1874/3/6 1863/3/6 1875/3/6
f 1864/3/6 1865/3/6 1876/3/6
f 1876/3/6 1865/3/6 1877/3/6
f 1878/2/6 1879/2/6 1882/2/6
f 1882/2/6 1879/2/6 1883/2/6
f 1880/2/6 1881/2/6 1884/2/6
f 1884/2/6 1881/2/6 1885/2/6
f 1886/2/6 1887/2/6 1890/2/6
f 1890/2/6 1887/2/6 1891/2/6
f 1888/2/6 1889/2/6 1892/2/6
f 1892/2/6 1889/2/6 1893/2/6
f 1894/2/6 1895/2/6 1898/2/6
f 1896/2/6 1897/2/6 1899/2/6
f 1894/2/6 1898/2/6 1900/2/6
f 1900/2/6 1898/2/6 1901/2/6
f 1899/2/6 1897/2/6 1902/2/6
f 1902/2/6 1897/2/6 1903/2/6
f 1904/2/6 1905/2/6 1908/2/6
f 1908/2/6 1905/2/6 1909/2/6
f 1906/2/6 1907/2/6 1912/2/6
f 1912/2/6 1907/2/6 1913/2/6
f 1909/2/6 1910/2/6 1914/2/6
f 1914/2/6 1910/2/6 1915/2/6
f 1911/2/6 1912/2/6 1916/2/6
f 1916/2/6 1912/2/6 1917/2/6
f 1918/2/6 1919/2/6 1921/2/6
f 1921/2/6 1919/2/6 1922/2/6
f 1920/2/6 1921/2/6 1924/2/6
f 1922/2/6 1923/2/6 1927/2/6
f 1924/2/6 1925/2/6 1928/2/6
f 1920/2/6 1924/2/6 1928/2/6
f 1928/2/6 1925/2/6 1929/2/6
f 1929/2/6 1925/2/6 1930/2/6
f 1926/2/6 1927/2/6 1933/2/6
f 1927/2/6 1923/2/6 1934/2/6
f 1933/2/6 1927/2/6 1934/2/6
f 1934/2/6 1923/2/6 1935/2/6
f 1930/2/6 1931/2/6 1936/2/6
f 1929/2/6 1930/2/6 1936/2/6
f 1936/2/6 1931/2/6 1937/2/6
f 1937/2/6 1931/2/6 1938/2/6
f 1932/2/6 1933/2/6 1939/2/6
f 1933/2/6 1934/2/6 1939/2/6
f 1939/2/6 1934/2/6 1940/2/6
f 1940/2/6 1934/2/6 1941/2/6
f 1937/2/6 1938/2/6 1942/2/6
f 1939/2/6 1940/2/6 1942/2/6
f 1938/2/6 1939/2/6 1942/2/6
f 1942/2/6 1940/2/6 1943/2/6
f 1944/2/6 1945/2/6 1946/2/6
f 1946/2/6 1945/2/6 1947/2/6
f 1947/2/6 1945/2/6 1948/2/6
f 1948/2/6 1945/2/6 1949/2/6
f 1949/2/6 1945/2/6 1950/2/6
f 1950/2/6 1945/2/6 1951/2/6
f 1952/2/6 1953/2/6 1956/2/6
f 1954/2/6 1955/2/6 1956/2/6
f 1953/2/6 1954/2/6 1956/2/6
f 1956/2/6 1955/2/6 1957/2/6
f 1957/2/6 1955/2/6 1958/2/6
f 1958/2/6 1955/2/6 1959/2/6
f 1957/2/6 1958/2/6 1960/2/6
f 1960/2/6 1958/2/6 1961/2/6
f 1962/4/6 1963/4/6 1966/4/6
f 1966/4/6 1963/4/6 1967/4/6
f 1964/4/6 1965/4/6 1968/4/6
f 1968/4/6 1965/4/6 1969/4/6
f 1970/4/6 1971/4/6 1974/4/6
f 1974/4/6 1971/4/6 1975/4/6
f 1972/4/6 1973/4/6 1976/4/6
f 1976/4/6 1973/4/6 1977/4/6
f 1978/4/6 1979/4/6 1982/4/6
f 1982/4/6 1979/4/6 1983/4/6
f 1980/4/6 1981/4/6 1984/4/6
f 1984/4/6 1981/4/6 1985/4/6
f 1986/4/6 1987/4/6 1990/4/6
f 1990/4/6 1987/4/6 1991/4/6
f 1988/4/6 1989/4/6 1992/4/6
f 1992/4/6 1989/4/6 1993/4/6
f 1994/4/6 1995/4/6 1998/4/6
f 1998/4/6 1995/4/6 1999/4/6
f 1996/4/6 1997/4/6 2000/4/6
f 2000/4/6 1997/4/6 2001/4/6
f 2002/4/6 2003/4/6 2006/4/6
f 2006/4/6 2003/4/6 2007/4/6
f 2004/4/6 2005/4/6 2008/4/6
f 2008/4/6 2005/4/6 2009/4/6
f 2010/4/6 2011/4/6 2014/4/6
f 2014/4/6 2011/4/6 2015/4/6
f 2012/4/6 2013/4/6 2016/4/6
f 2016/4/6 2013/4/6 2017/4/6
f 2018/4/6 2019/4/6 2022/4/6
f 2022/4/6 2019/4/6 2023/4/6
f 2020/4/6 2021/4/6 2024/4/6
f 2024/4/6 2021/4/6 2025/4/6
f 2026/4/6 2027/4/6 2028/4/6
f 2028/4/6 2027/4/6 2029/4/6
