# MagicaVoxel @ Ephtracy

# group
o 

# material
mtllib banksign.mtl
usemtl palette

# normals
vn -1 0 0
vn 1 0 0
vn 0 0 1
vn 0 0 -1
vn 0 -1 0
vn 0 1 0

# texcoords
vt 0.970703 0.5
vt 0.974609 0.5
vt 0.994141 0.5

# verts
v -1.5 0.5 0.8
v -1.5 0.5 -0.9
v -1.5 0.7 0.8
v -1.5 0.7 -0.9
v 1.5 0.5 0.8
v 1.5 0.5 -0.9
v 1.5 0.7 0.8
v 1.5 0.7 -0.9
v -1.5 0.5 0.8
v -1.5 0.7 0.8
v 1.5 0.5 0.8
v 1.5 0.7 0.8
v -1.5 0.5 -0.9
v -1.5 0.7 -0.9
v 1.5 0.5 -0.9
v 1.5 0.7 -0.9
v -1.5 0.5 0.8
v 1.5 0.5 0.8
v -1.5 0.5 -0.9
v 1.5 0.5 -0.9
v -1.5 0.7 0.8
v 1.5 0.7 0.8
v -1.4 0.7 0.7
v 1.4 0.7 0.7
v -1.2 0.7 0.4
v -0.8 0.7 0.4
v -0.7 0.7 0.4
v -0.6 0.7 0.4
v -0.2 0.7 0.4
v -0.1 0.7 0.4
v 0 0.7 0.4
v 0.1 0.7 0.4
v 0.5 0.7 0.4
v 0.6 0.7 0.4
v 0.7 0.7 0.4
v 0.8 0.7 0.4
v 1.1 0.7 0.4
v 1.2 0.7 0.4
v -1.1 0.7 0.3
v -0.9 0.7 0.3
v 0.4 0.7 0.3
v 0.5 0.7 0.3
v 1 0.7 0.2
v 1.1 0.7 0.2
v -1 0.7 0.1
v -0.9 0.7 0.1
v -0.6 0.7 0.1
v -0.5 0.7 0.1
v -0.3 0.7 0.1
v -0.2 0.7 0.1
v 0.3 0.7 0.1
v 0.4 0.7 0.1
v 1.1 0.7 0.1
v 1.2 0.7 0.1
v -0.9 0.7 -5.96046e-08
v -0.8 0.7 -5.96046e-08
v -0.5 0.7 -5.96046e-08
v -0.3 0.7 -5.96046e-08
v 0.4 0.7 -5.96046e-08
v 0.5 0.7 -5.96046e-08
v 0.9 0.7 -5.96046e-08
v 1 0.7 -5.96046e-08
v -0.9 0.7 -0.1
v -0.8 0.7 -0.1
v -0.7 0.7 -0.1
v -0.6 0.7 -0.1
v -0.5 0.7 -0.1
v -0.3 0.7 -0.1
v -0.2 0.7 -0.1
v -0.1 0.7 -0.1
v 0.2 0.7 -0.1
v 0.3 0.7 -0.1
v 0.8 0.7 -0.1
v 0.9 0.7 -0.1
v 1 0.7 -0.1
v 1.1 0.7 -0.1
v -1 0.7 -0.2
v -0.9 0.7 -0.2
v 0.3 0.7 -0.2
v 0.4 0.7 -0.2
v 0.8 0.7 -0.2
v 0.9 0.7 -0.2
v 1 0.7 -0.2
v 1.1 0.7 -0.2
v 0.9 0.7 -0.3
v 1 0.7 -0.3
v 1.1 0.7 -0.3
v 1.2 0.7 -0.3
v -1.1 0.7 -0.4
v -0.9 0.7 -0.4
v -0.5 0.7 -0.4
v -0.3 0.7 -0.4
v 0.1 0.7 -0.4
v 0.2 0.7 -0.4
v 1 0.7 -0.4
v 1.1 0.7 -0.4
v -1.2 0.7 -0.5
v -0.8 0.7 -0.5
v -0.6 0.7 -0.5
v -0.2 0.7 -0.5
v 0 0.7 -0.5
v 0.3 0.7 -0.5
v 0.5 0.7 -0.5
v 0.6 0.7 -0.5
v 0.7 0.7 -0.5
v 0.8 0.7 -0.5
v 1.1 0.7 -0.5
v 1.2 0.7 -0.5
v -1.4 0.7 -0.8
v 1.4 0.7 -0.8
v -1.5 0.7 -0.9
v 1.5 0.7 -0.9

# faces
f 3/2/1 2/2/1 1/2/1
f 4/2/1 2/2/1 3/2/1
f 5/2/2 6/2/2 7/2/2
f 7/2/2 6/2/2 8/2/2
f 11/2/3 10/2/3 9/2/3
f 12/2/3 10/2/3 11/2/3
f 13/2/4 14/2/4 15/2/4
f 15/2/4 14/2/4 16/2/4
f 19/2/5 18/2/5 17/2/5
f 20/2/5 18/2/5 19/2/5
f 21/2/6 22/2/6 23/2/6
f 23/2/6 22/2/6 24/2/6
f 23/1/6 24/1/6 25/1/6
f 25/1/6 24/1/6 26/1/6
f 26/1/6 24/1/6 27/1/6
f 27/1/6 24/1/6 28/1/6
f 28/1/6 24/1/6 29/1/6
f 29/1/6 24/1/6 30/1/6
f 30/1/6 24/1/6 31/1/6
f 31/1/6 24/1/6 32/1/6
f 32/1/6 24/1/6 33/1/6
f 33/1/6 24/1/6 34/1/6
f 34/1/6 24/1/6 35/1/6
f 35/1/6 24/1/6 36/1/6
f 36/1/6 24/1/6 37/1/6
f 37/1/6 24/1/6 38/1/6
f 25/3/6 26/3/6 39/3/6
f 39/3/6 26/3/6 40/3/6
f 32/1/6 33/1/6 41/1/6
f 33/3/6 34/3/6 42/3/6
f 41/1/6 33/1/6 42/1/6
f 36/1/6 37/1/6 43/1/6
f 37/3/6 38/3/6 44/3/6
f 43/1/6 37/1/6 44/1/6
f 39/1/6 40/1/6 45/1/6
f 40/3/6 26/3/6 46/3/6
f 45/1/6 40/1/6 46/1/6
f 27/3/6 28/3/6 47/3/6
f 28/1/6 29/1/6 47/1/6
f 47/1/6 29/1/6 48/1/6
f 48/1/6 29/1/6 49/1/6
f 29/3/6 30/3/6 50/3/6
f 49/1/6 29/1/6 50/1/6
f 32/1/6 41/1/6 51/1/6
f 41/3/6 42/3/6 52/3/6
f 51/1/6 41/1/6 52/1/6
f 44/3/6 38/3/6 53/3/6
f 43/3/6 44/3/6 53/3/6
f 38/1/6 24/1/6 54/1/6
f 53/3/6 38/3/6 54/3/6
f 46/3/6 26/3/6 55/3/6
f 45/3/6 46/3/6 55/3/6
f 26/1/6 27/1/6 56/1/6
f 55/3/6 26/3/6 56/3/6
f 48/1/6 49/1/6 57/1/6
f 47/3/6 48/3/6 57/3/6
f 49/3/6 50/3/6 58/3/6
f 57/1/6 49/1/6 58/1/6
f 52/3/6 42/3/6 59/3/6
f 51/3/6 52/3/6 59/3/6
f 42/3/6 34/3/6 60/3/6
f 59/3/6 42/3/6 60/3/6
f 36/1/6 43/1/6 61/1/6
f 43/3/6 53/3/6 62/3/6
f 61/1/6 43/1/6 62/1/6
f 45/3/6 55/3/6 63/3/6
f 55/1/6 56/1/6 63/1/6
f 56/1/6 27/1/6 64/1/6
f 63/1/6 56/1/6 64/1/6
f 57/3/6 58/3/6 65/3/6
f 64/1/6 27/1/6 65/1/6
f 27/3/6 47/3/6 65/3/6
f 47/3/6 57/3/6 65/3/6
f 65/3/6 58/3/6 66/3/6
f 66/3/6 58/3/6 67/3/6
f 58/3/6 50/3/6 68/3/6
f 67/3/6 58/3/6 68/3/6
f 50/3/6 30/3/6 69/3/6
f 68/3/6 50/3/6 69/3/6
f 30/1/6 31/1/6 70/1/6
f 69/3/6 30/3/6 70/3/6
f 32/1/6 51/1/6 71/1/6
f 51/3/6 59/3/6 72/3/6
f 71/1/6 51/1/6 72/1/6
f 36/1/6 61/1/6 73/1/6
f 35/3/6 36/3/6 73/3/6
f 61/3/6 62/3/6 74/3/6
f 73/1/6 61/1/6 74/1/6
f 62/3/6 53/3/6 75/3/6
f 74/3/6 62/3/6 75/3/6
f 53/1/6 54/1/6 76/1/6
f 75/3/6 53/3/6 76/3/6
f 45/3/6 63/3/6 77/3/6
f 39/1/6 45/1/6 77/1/6
f 63/3/6 64/3/6 77/3/6
f 77/3/6 64/3/6 78/3/6
f 72/3/6 59/3/6 79/3/6
f 71/3/6 72/3/6 79/3/6
f 59/1/6 60/1/6 80/1/6
f 79/3/6 59/3/6 80/3/6
f 73/3/6 74/3/6 81/3/6
f 74/3/6 75/3/6 81/3/6
f 35/3/6 73/3/6 81/3/6
f 81/3/6 75/3/6 82/3/6
f 75/1/6 76/1/6 83/1/6
f 82/3/6 75/3/6 83/3/6
f 76/1/6 54/1/6 84/1/6
f 83/1/6 76/1/6 84/1/6
f 82/3/6 83/3/6 85/3/6
f 81/1/6 82/1/6 85/1/6
f 83/3/6 84/3/6 85/3/6
f 85/3/6 84/3/6 86/3/6
f 84/1/6 54/1/6 87/1/6
f 86/3/6 84/3/6 87/3/6
f 54/1/6 24/1/6 88/1/6
f 87/1/6 54/1/6 88/1/6
f 77/1/6 78/1/6 89/1/6
f 25/3/6 39/3/6 89/3/6
f 39/1/6 77/1/6 89/1/6
f 78/3/6 64/3/6 90/3/6
f 89/1/6 78/1/6 90/1/6
f 67/1/6 68/1/6 91/1/6
f 66/3/6 67/3/6 91/3/6
f 68/3/6 69/3/6 92/3/6
f 91/1/6 68/1/6 92/1/6
f 31/3/6 32/3/6 93/3/6
f 32/1/6 71/1/6 93/1/6
f 71/3/6 79/3/6 94/3/6
f 93/1/6 71/1/6 94/1/6
f 86/3/6 87/3/6 95/3/6
f 85/1/6 86/1/6 95/1/6
f 87/3/6 88/3/6 95/3/6
f 95/3/6 88/3/6 96/3/6
f 23/1/6 25/1/6 97/1/6
f 25/3/6 89/3/6 97/3/6
f 89/3/6 90/3/6 97/3/6
f 90/3/6 64/3/6 98/3/6
f 97/3/6 90/3/6 98/3/6
f 65/1/6 66/1/6 98/1/6
f 64/1/6 65/1/6 98/1/6
f 66/3/6 91/3/6 99/3/6
f 98/1/6 66/1/6 99/1/6
f 91/3/6 92/3/6 99/3/6
f 92/3/6 69/3/6 100/3/6
f 99/3/6 92/3/6 100/3/6
f 69/1/6 70/1/6 100/1/6
f 93/3/6 94/3/6 101/3/6
f 100/1/6 70/1/6 101/1/6
f 31/3/6 93/3/6 101/3/6
f 70/1/6 31/1/6 101/1/6
f 94/3/6 79/3/6 102/3/6
f 101/3/6 94/3/6 102/3/6
f 79/1/6 80/1/6 102/1/6
f 80/1/6 60/1/6 103/1/6
f 102/1/6 80/1/6 103/1/6
f 60/3/6 34/3/6 103/3/6
f 34/1/6 35/1/6 104/1/6
f 103/3/6 34/3/6 104/3/6
f 35/3/6 81/3/6 105/3/6
f 104/1/6 35/1/6 105/1/6
f 95/1/6 96/1/6 106/1/6
f 105/3/6 81/3/6 106/3/6
f 81/1/6 85/1/6 106/1/6
f 85/1/6 95/1/6 106/1/6
f 96/3/6 88/3/6 107/3/6
f 106/1/6 96/1/6 107/1/6
f 88/1/6 24/1/6 108/1/6
f 107/3/6 88/3/6 108/3/6
f 21/2/6 23/2/6 109/2/6
f 105/1/6 106/1/6 109/1/6
f 107/1/6 108/1/6 109/1/6
f 102/1/6 103/1/6 109/1/6
f 23/1/6 97/1/6 109/1/6
f 103/1/6 104/1/6 109/1/6
f 98/1/6 99/1/6 109/1/6
f 97/1/6 98/1/6 109/1/6
f 99/1/6 100/1/6 109/1/6
f 106/1/6 107/1/6 109/1/6
f 100/1/6 101/1/6 109/1/6
f 101/1/6 102/1/6 109/1/6
f 104/1/6 105/1/6 109/1/6
f 108/1/6 24/1/6 110/1/6
f 109/1/6 108/1/6 110/1/6
f 24/2/6 22/2/6 110/2/6
f 21/2/6 109/2/6 111/2/6
f 109/2/6 110/2/6 111/2/6
f 110/2/6 22/2/6 112/2/6
f 111/2/6 110/2/6 112/2/6
