# MagicaVoxel @ Ephtracy

# group
o 

# material
mtllib bomb.vox.mtl
usemtl palette

# normals
vn -1 0 0
vn 1 0 0
vn 0 0 1
vn 0 0 -1
vn 0 -1 0
vn 0 1 0

# texcoords
vt 0.0878906 0.5
vt 0.251953 0.5
vt 0.958984 0.5
vt 0.990234 0.5

# verts
v -0.6 1.2 0.5
v -0.6 1.2 -0.4
v -0.6 1.3 0.6
v -0.6 1.3 0.5
v -0.6 1.3 -0.4
v -0.6 1.3 -0.5
v -0.6 2 0.6
v -0.6 2 0.5
v -0.6 2 -0.4
v -0.6 2 -0.5
v -0.6 2.1 0.5
v -0.6 2.1 -0.4
v -0.5 1.1 0.6
v -0.5 1.1 -0.5
v -0.5 1.2 0.5
v -0.5 1.2 -0.4
v -0.5 1.3 0.7
v -0.5 1.3 0.6
v -0.5 1.3 0.5
v -0.5 1.3 -0.4
v -0.5 1.3 -0.5
v -0.5 1.3 -0.6
v -0.5 2 0.7
v -0.5 2 0.6
v -0.5 2 0.5
v -0.5 2 -0.4
v -0.5 2 -0.5
v -0.5 2 -0.6
v -0.5 2.1 0.5
v -0.5 2.1 -0.4
v -0.5 2.2 0.6
v -0.5 2.2 -0.5
v -0.4 1 0.5
v -0.4 1 -0.4
v -0.4 1.1 0.5
v -0.4 1.1 -0.4
v -0.4 1.2 0.7
v -0.4 1.2 0.6
v -0.4 1.2 -0.5
v -0.4 1.2 -0.6
v -0.4 1.3 0.7
v -0.4 1.3 0.6
v -0.4 1.3 -0.5
v -0.4 1.3 -0.6
v -0.4 2 0.7
v -0.4 2 0.6
v -0.4 2 -0.5
v -0.4 2 -0.6
v -0.4 2.1 0.7
v -0.4 2.1 0.6
v -0.4 2.1 -0.5
v -0.4 2.1 -0.6
v -0.4 2.2 0.5
v -0.4 2.2 -0.4
v -0.4 2.3 0.5
v -0.4 2.3 -0.4
v -0.2 2.3 0.3
v -0.2 2.3 -0.2
v -0.2 2.4 0.3
v -0.2 2.4 -0.2
v -0.0999999 2.4 0.2
v -0.0999999 2.4 -0.1
v -0.0999999 2.5 0.2
v -0.0999999 2.5 -0.1
v -0.0999999 2.6 0.2
v -0.0999999 2.6 0.1
v -0.0999999 2.6 -5.96046e-08
v -0.0999999 2.6 -0.1
v -0.0999999 2.7 0.1
v -0.0999999 2.7 -5.96046e-08
v 5.96046e-08 2.6 0.2
v 5.96046e-08 2.6 0.1
v 5.96046e-08 2.6 -5.96046e-08
v 5.96046e-08 2.6 -0.1
v 5.96046e-08 2.7 0.2
v 5.96046e-08 2.7 0.1
v 5.96046e-08 2.7 -5.96046e-08
v 5.96046e-08 2.7 -0.1
v 0.1 2.6 0.2
v 0.1 2.6 0.1
v 0.1 2.6 -5.96046e-08
v 0.1 2.6 -0.1
v 0.1 2.7 0.2
v 0.1 2.7 0.1
v 0.1 2.7 -5.96046e-08
v 0.1 2.7 -0.1
v 0.2 2.4 0.2
v 0.2 2.4 -0.1
v 0.2 2.5 0.2
v 0.2 2.5 -0.1
v 0.2 2.6 0.2
v 0.2 2.6 0.1
v 0.2 2.6 -5.96046e-08
v 0.2 2.6 -0.1
v 0.2 2.7 0.1
v 0.2 2.7 -5.96046e-08
v 0.3 2.3 0.3
v 0.3 2.3 -0.2
v 0.3 2.4 0.3
v 0.3 2.4 -0.2
v 0.5 1 0.5
v 0.5 1 -0.4
v 0.5 1.1 0.5
v 0.5 1.1 -0.4
v 0.5 1.2 0.7
v 0.5 1.2 0.6
v 0.5 1.2 -0.5
v 0.5 1.2 -0.6
v 0.5 1.3 0.7
v 0.5 1.3 0.6
v 0.5 1.3 -0.5
v 0.5 1.3 -0.6
v 0.5 2 0.7
v 0.5 2 0.6
v 0.5 2 -0.5
v 0.5 2 -0.6
v 0.5 2.1 0.7
v 0.5 2.1 0.6
v 0.5 2.1 -0.5
v 0.5 2.1 -0.6
v 0.5 2.2 0.5
v 0.5 2.2 -0.4
v 0.5 2.3 0.5
v 0.5 2.3 -0.4
v 0.6 1.1 0.6
v 0.6 1.1 -0.5
v 0.6 1.2 0.5
v 0.6 1.2 -0.4
v 0.6 1.3 0.7
v 0.6 1.3 0.6
v 0.6 1.3 0.5
v 0.6 1.3 -0.4
v 0.6 1.3 -0.5
v 0.6 1.3 -0.6
v 0.6 2 0.7
v 0.6 2 0.6
v 0.6 2 0.5
v 0.6 2 -0.4
v 0.6 2 -0.5
v 0.6 2 -0.6
v 0.6 2.1 0.5
v 0.6 2.1 -0.4
v 0.6 2.2 0.6
v 0.6 2.2 -0.5
v 0.7 1.2 0.5
v 0.7 1.2 -0.4
v 0.7 1.3 0.6
v 0.7 1.3 0.5
v 0.7 1.3 -0.4
v 0.7 1.3 -0.5
v 0.7 2 0.6
v 0.7 2 0.5
v 0.7 2 -0.4
v 0.7 2 -0.5
v 0.7 2.1 0.5
v 0.7 2.1 -0.4
v -0.5 1.3 0.7
v -0.5 2 0.7
v -0.4 1.2 0.7
v -0.4 1.3 0.7
v -0.4 2 0.7
v -0.4 2.1 0.7
v 0.5 1.2 0.7
v 0.5 1.3 0.7
v 0.5 2 0.7
v 0.5 2.1 0.7
v 0.6 1.3 0.7
v 0.6 2 0.7
v -0.6 1.3 0.6
v -0.6 2 0.6
v -0.5 1.1 0.6
v -0.5 1.3 0.6
v -0.5 2 0.6
v -0.5 2.2 0.6
v -0.4 1.2 0.6
v -0.4 1.3 0.6
v -0.4 2 0.6
v -0.4 2.1 0.6
v 0.5 1.2 0.6
v 0.5 1.3 0.6
v 0.5 2 0.6
v 0.5 2.1 0.6
v 0.6 1.1 0.6
v 0.6 1.3 0.6
v 0.6 2 0.6
v 0.6 2.2 0.6
v 0.7 1.3 0.6
v 0.7 2 0.6
v -0.6 1.2 0.5
v -0.6 1.3 0.5
v -0.6 2 0.5
v -0.6 2.1 0.5
v -0.5 1.2 0.5
v -0.5 1.3 0.5
v -0.5 2 0.5
v -0.5 2.1 0.5
v -0.4 1 0.5
v -0.4 1.1 0.5
v -0.4 2.2 0.5
v -0.4 2.3 0.5
v 0.5 1 0.5
v 0.5 1.1 0.5
v 0.5 2.2 0.5
v 0.5 2.3 0.5
v 0.6 1.2 0.5
v 0.6 1.3 0.5
v 0.6 2 0.5
v 0.6 2.1 0.5
v 0.7 1.2 0.5
v 0.7 1.3 0.5
v 0.7 2 0.5
v 0.7 2.1 0.5
v -0.2 2.3 0.3
v -0.2 2.4 0.3
v 0.3 2.3 0.3
v 0.3 2.4 0.3
v -0.0999999 2.4 0.2
v -0.0999999 2.5 0.2
v -0.0999999 2.6 0.2
v 5.96046e-08 2.6 0.2
v 5.96046e-08 2.7 0.2
v 0.1 2.6 0.2
v 0.1 2.7 0.2
v 0.2 2.4 0.2
v 0.2 2.5 0.2
v 0.2 2.6 0.2
v -0.0999999 2.6 0.1
v -0.0999999 2.7 0.1
v 5.96046e-08 2.6 0.1
v 5.96046e-08 2.7 0.1
v 0.1 2.6 0.1
v 0.1 2.7 0.1
v 0.2 2.6 0.1
v 0.2 2.7 0.1
v -0.0999999 2.6 -5.96046e-08
v -0.0999999 2.7 -5.96046e-08
v 5.96046e-08 2.6 -5.96046e-08
v 5.96046e-08 2.7 -5.96046e-08
v 0.1 2.6 -5.96046e-08
v 0.1 2.7 -5.96046e-08
v 0.2 2.6 -5.96046e-08
v 0.2 2.7 -5.96046e-08
v -0.0999999 2.4 -0.1
v -0.0999999 2.5 -0.1
v -0.0999999 2.6 -0.1
v 5.96046e-08 2.6 -0.1
v 5.96046e-08 2.7 -0.1
v 0.1 2.6 -0.1
v 0.1 2.7 -0.1
v 0.2 2.4 -0.1
v 0.2 2.5 -0.1
v 0.2 2.6 -0.1
v -0.2 2.3 -0.2
v -0.2 2.4 -0.2
v 0.3 2.3 -0.2
v 0.3 2.4 -0.2
v -0.6 1.2 -0.4
v -0.6 1.3 -0.4
v -0.6 2 -0.4
v -0.6 2.1 -0.4
v -0.5 1.2 -0.4
v -0.5 1.3 -0.4
v -0.5 2 -0.4
v -0.5 2.1 -0.4
v -0.4 1 -0.4
v -0.4 1.1 -0.4
v -0.4 2.2 -0.4
v -0.4 2.3 -0.4
v 0.5 1 -0.4
v 0.5 1.1 -0.4
v 0.5 2.2 -0.4
v 0.5 2.3 -0.4
v 0.6 1.2 -0.4
v 0.6 1.3 -0.4
v 0.6 2 -0.4
v 0.6 2.1 -0.4
v 0.7 1.2 -0.4
v 0.7 1.3 -0.4
v 0.7 2 -0.4
v 0.7 2.1 -0.4
v -0.6 1.3 -0.5
v -0.6 2 -0.5
v -0.5 1.1 -0.5
v -0.5 1.3 -0.5
v -0.5 2 -0.5
v -0.5 2.2 -0.5
v -0.4 1.2 -0.5
v -0.4 1.3 -0.5
v -0.4 2 -0.5
v -0.4 2.1 -0.5
v 0.5 1.2 -0.5
v 0.5 1.3 -0.5
v 0.5 2 -0.5
v 0.5 2.1 -0.5
v 0.6 1.1 -0.5
v 0.6 1.3 -0.5
v 0.6 2 -0.5
v 0.6 2.2 -0.5
v 0.7 1.3 -0.5
v 0.7 2 -0.5
v -0.5 1.3 -0.6
v -0.5 2 -0.6
v -0.4 1.2 -0.6
v -0.4 1.3 -0.6
v -0.4 2 -0.6
v -0.4 2.1 -0.6
v 0.5 1.2 -0.6
v 0.5 1.3 -0.6
v 0.5 2 -0.6
v 0.5 2.1 -0.6
v 0.6 1.3 -0.6
v 0.6 2 -0.6
v -0.4 1 0.5
v 0.5 1 0.5
v -0.4 1 -0.4
v 0.5 1 -0.4
v -0.5 1.1 0.6
v 0.6 1.1 0.6
v -0.4 1.1 0.5
v 0.5 1.1 0.5
v -0.4 1.1 -0.4
v 0.5 1.1 -0.4
v -0.5 1.1 -0.5
v 0.6 1.1 -0.5
v -0.4 1.2 0.7
v 0.5 1.2 0.7
v -0.4 1.2 0.6
v 0.5 1.2 0.6
v -0.6 1.2 0.5
v -0.5 1.2 0.5
v 0.6 1.2 0.5
v 0.7 1.2 0.5
v -0.6 1.2 -0.4
v -0.5 1.2 -0.4
v 0.6 1.2 -0.4
v 0.7 1.2 -0.4
v -0.4 1.2 -0.5
v 0.5 1.2 -0.5
v -0.4 1.2 -0.6
v 0.5 1.2 -0.6
v -0.5 1.3 0.7
v -0.4 1.3 0.7
v 0.5 1.3 0.7
v 0.6 1.3 0.7
v -0.6 1.3 0.6
v -0.5 1.3 0.6
v -0.4 1.3 0.6
v 0.5 1.3 0.6
v 0.6 1.3 0.6
v 0.7 1.3 0.6
v -0.6 1.3 0.5
v -0.5 1.3 0.5
v 0.6 1.3 0.5
v 0.7 1.3 0.5
v -0.6 1.3 -0.4
v -0.5 1.3 -0.4
v 0.6 1.3 -0.4
v 0.7 1.3 -0.4
v -0.6 1.3 -0.5
v -0.5 1.3 -0.5
v -0.4 1.3 -0.5
v 0.5 1.3 -0.5
v 0.6 1.3 -0.5
v 0.7 1.3 -0.5
v -0.5 1.3 -0.6
v -0.4 1.3 -0.6
v 0.5 1.3 -0.6
v 0.6 1.3 -0.6
v -0.5 2 0.7
v -0.4 2 0.7
v 0.5 2 0.7
v 0.6 2 0.7
v -0.6 2 0.6
v -0.5 2 0.6
v -0.4 2 0.6
v 0.5 2 0.6
v 0.6 2 0.6
v 0.7 2 0.6
v -0.6 2 0.5
v -0.5 2 0.5
v 0.6 2 0.5
v 0.7 2 0.5
v -0.6 2 -0.4
v -0.5 2 -0.4
v 0.6 2 -0.4
v 0.7 2 -0.4
v -0.6 2 -0.5
v -0.5 2 -0.5
v -0.4 2 -0.5
v 0.5 2 -0.5
v 0.6 2 -0.5
v 0.7 2 -0.5
v -0.5 2 -0.6
v -0.4 2 -0.6
v 0.5 2 -0.6
v 0.6 2 -0.6
v -0.4 2.1 0.7
v 0.5 2.1 0.7
v -0.4 2.1 0.6
v 0.5 2.1 0.6
v -0.6 2.1 0.5
v -0.5 2.1 0.5
v 0.6 2.1 0.5
v 0.7 2.1 0.5
v -0.6 2.1 -0.4
v -0.5 2.1 -0.4
v 0.6 2.1 -0.4
v 0.7 2.1 -0.4
v -0.4 2.1 -0.5
v 0.5 2.1 -0.5
v -0.4 2.1 -0.6
v 0.5 2.1 -0.6
v -0.5 2.2 0.6
v 0.6 2.2 0.6
v -0.4 2.2 0.5
v 0.5 2.2 0.5
v -0.4 2.2 -0.4
v 0.5 2.2 -0.4
v -0.5 2.2 -0.5
v 0.6 2.2 -0.5
v -0.4 2.3 0.5
v 0.5 2.3 0.5
v -0.2 2.3 0.3
v 0.3 2.3 0.3
v -0.2 2.3 -0.2
v 0.3 2.3 -0.2
v -0.4 2.3 -0.4
v 0.5 2.3 -0.4
v -0.2 2.4 0.3
v 0.3 2.4 0.3
v -0.0999999 2.4 0.2
v 0.2 2.4 0.2
v -0.0999999 2.4 -0.1
v 0.2 2.4 -0.1
v -0.2 2.4 -0.2
v 0.3 2.4 -0.2
v -0.0999999 2.6 0.2
v 5.96046e-08 2.6 0.2
v 0.1 2.6 0.2
v 0.2 2.6 0.2
v -0.0999999 2.6 0.1
v 5.96046e-08 2.6 0.1
v 0.1 2.6 0.1
v 0.2 2.6 0.1
v -0.0999999 2.6 -5.96046e-08
v 5.96046e-08 2.6 -5.96046e-08
v 0.1 2.6 -5.96046e-08
v 0.2 2.6 -5.96046e-08
v -0.0999999 2.6 -0.1
v 5.96046e-08 2.6 -0.1
v 0.1 2.6 -0.1
v 0.2 2.6 -0.1
v 5.96046e-08 2.7 0.2
v 0.1 2.7 0.2
v -0.0999999 2.7 0.1
v 5.96046e-08 2.7 0.1
v 0.1 2.7 0.1
v 0.2 2.7 0.1
v -0.0999999 2.7 -5.96046e-08
v 5.96046e-08 2.7 -5.96046e-08
v 0.1 2.7 -5.96046e-08
v 0.2 2.7 -5.96046e-08
v 5.96046e-08 2.7 -0.1
v 0.1 2.7 -0.1

# faces
f 4/4/1 2/4/1 1/4/1
f 5/4/1 2/4/1 4/4/1
f 7/4/1 4/4/1 3/4/1
f 7/4/1 6/4/1 5/4/1
f 7/4/1 5/4/1 4/4/1
f 8/4/1 6/4/1 7/4/1
f 9/4/1 6/4/1 8/4/1
f 10/4/1 6/4/1 9/4/1
f 11/4/1 9/4/1 8/4/1
f 12/4/1 9/4/1 11/4/1
f 15/4/1 14/4/1 13/4/1
f 16/4/1 14/4/1 15/4/1
f 18/4/1 15/4/1 13/4/1
f 19/4/1 15/4/1 18/4/1
f 20/4/1 14/4/1 16/4/1
f 21/4/1 14/4/1 20/4/1
f 23/4/1 18/4/1 17/4/1
f 24/4/1 18/4/1 23/4/1
f 27/4/1 22/4/1 21/4/1
f 28/4/1 22/4/1 27/4/1
f 29/4/1 25/4/1 24/4/1
f 30/4/1 27/4/1 26/4/1
f 31/4/1 29/4/1 24/4/1
f 31/4/1 30/4/1 29/4/1
f 32/4/1 27/4/1 30/4/1
f 32/4/1 30/4/1 31/4/1
f 35/4/1 34/4/1 33/4/1
f 36/4/1 34/4/1 35/4/1
f 41/4/1 38/4/1 37/4/1
f 42/4/1 38/4/1 41/4/1
f 43/4/1 40/4/1 39/4/1
f 44/4/1 40/4/1 43/4/1
f 49/4/1 46/4/1 45/4/1
f 50/4/1 46/4/1 49/4/1
f 51/4/1 48/4/1 47/4/1
f 52/4/1 48/4/1 51/4/1
f 55/4/1 54/4/1 53/4/1
f 56/4/1 54/4/1 55/4/1
f 59/4/1 58/4/1 57/4/1
f 60/4/1 58/4/1 59/4/1
f 63/3/1 62/3/1 61/3/1
f 64/3/1 62/3/1 63/3/1
f 65/1/1 64/1/1 63/1/1
f 66/1/1 64/1/1 65/1/1
f 67/1/1 64/1/1 66/1/1
f 68/1/1 64/1/1 67/1/1
f 69/2/1 67/2/1 66/2/1
f 70/2/1 67/2/1 69/2/1
f 75/2/1 72/2/1 71/2/1
f 76/2/1 72/2/1 75/2/1
f 77/2/1 74/2/1 73/2/1
f 78/2/1 74/2/1 77/2/1
f 79/2/2 80/2/2 83/2/2
f 83/2/2 80/2/2 84/2/2
f 81/2/2 82/2/2 85/2/2
f 85/2/2 82/2/2 86/2/2
f 87/3/2 88/3/2 89/3/2
f 89/3/2 88/3/2 90/3/2
f 89/1/2 90/1/2 91/1/2
f 91/1/2 90/1/2 92/1/2
f 92/1/2 90/1/2 93/1/2
f 93/1/2 90/1/2 94/1/2
f 92/2/2 93/2/2 95/2/2
f 95/2/2 93/2/2 96/2/2
f 97/4/2 98/4/2 99/4/2
f 99/4/2 98/4/2 100/4/2
f 101/4/2 102/4/2 103/4/2
f 103/4/2 102/4/2 104/4/2
f 105/4/2 106/4/2 109/4/2
f 109/4/2 106/4/2 110/4/2
f 107/4/2 108/4/2 111/4/2
f 111/4/2 108/4/2 112/4/2
f 113/4/2 114/4/2 117/4/2
f 117/4/2 114/4/2 118/4/2
f 115/4/2 116/4/2 119/4/2
f 119/4/2 116/4/2 120/4/2
f 121/4/2 122/4/2 123/4/2
f 123/4/2 122/4/2 124/4/2
f 125/4/2 126/4/2 127/4/2
f 127/4/2 126/4/2 128/4/2
f 125/4/2 127/4/2 130/4/2
f 130/4/2 127/4/2 131/4/2
f 128/4/2 126/4/2 132/4/2
f 132/4/2 126/4/2 133/4/2
f 129/4/2 130/4/2 135/4/2
f 135/4/2 130/4/2 136/4/2
f 133/4/2 134/4/2 139/4/2
f 139/4/2 134/4/2 140/4/2
f 136/4/2 137/4/2 141/4/2
f 138/4/2 139/4/2 142/4/2
f 136/4/2 141/4/2 143/4/2
f 141/4/2 142/4/2 143/4/2
f 142/4/2 139/4/2 144/4/2
f 143/4/2 142/4/2 144/4/2
f 145/4/2 146/4/2 148/4/2
f 148/4/2 146/4/2 149/4/2
f 147/4/2 148/4/2 151/4/2
f 149/4/2 150/4/2 151/4/2
f 148/4/2 149/4/2 151/4/2
f 151/4/2 150/4/2 152/4/2
f 152/4/2 150/4/2 153/4/2
f 153/4/2 150/4/2 154/4/2
f 152/4/2 153/4/2 155/4/2
f 155/4/2 153/4/2 156/4/2
f 160/4/3 158/4/3 157/4/3
f 161/4/3 158/4/3 160/4/3
f 163/4/3 160/4/3 159/4/3
f 163/4/3 162/4/3 161/4/3
f 163/4/3 161/4/3 160/4/3
f 164/4/3 162/4/3 163/4/3
f 165/4/3 162/4/3 164/4/3
f 166/4/3 162/4/3 165/4/3
f 167/4/3 165/4/3 164/4/3
f 168/4/3 165/4/3 167/4/3
f 172/4/3 170/4/3 169/4/3
f 173/4/3 170/4/3 172/4/3
f 175/4/3 172/4/3 171/4/3
f 176/4/3 172/4/3 175/4/3
f 177/4/3 174/4/3 173/4/3
f 178/4/3 174/4/3 177/4/3
f 179/4/3 175/4/3 171/4/3
f 182/4/3 174/4/3 178/4/3
f 183/4/3 180/4/3 179/4/3
f 183/4/3 179/4/3 171/4/3
f 184/4/3 180/4/3 183/4/3
f 185/4/3 182/4/3 181/4/3
f 186/4/3 174/4/3 182/4/3
f 186/4/3 182/4/3 185/4/3
f 187/4/3 185/4/3 184/4/3
f 188/4/3 185/4/3 187/4/3
f 193/4/3 190/4/3 189/4/3
f 194/4/3 190/4/3 193/4/3
f 195/4/3 192/4/3 191/4/3
f 196/4/3 192/4/3 195/4/3
f 201/4/3 198/4/3 197/4/3
f 202/4/3 198/4/3 201/4/3
f 203/4/3 200/4/3 199/4/3
f 204/4/3 200/4/3 203/4/3
f 209/4/3 206/4/3 205/4/3
f 210/4/3 206/4/3 209/4/3
f 211/4/3 208/4/3 207/4/3
f 212/4/3 208/4/3 211/4/3
f 215/4/3 214/4/3 213/4/3
f 216/4/3 214/4/3 215/4/3
f 220/1/3 219/1/3 218/1/3
f 222/1/3 220/1/3 218/1/3
f 222/2/3 221/2/3 220/2/3
f 223/2/3 221/2/3 222/2/3
f 224/3/3 218/3/3 217/3/3
f 225/1/3 222/1/3 218/1/3
f 225/3/3 218/3/3 224/3/3
f 226/1/3 222/1/3 225/1/3
f 229/2/3 228/2/3 227/2/3
f 230/2/3 228/2/3 229/2/3
f 233/2/3 232/2/3 231/2/3
f 234/2/3 232/2/3 233/2/3
f 235/2/4 236/2/4 237/2/4
f 237/2/4 236/2/4 238/2/4
f 239/2/4 240/2/4 241/2/4
f 241/2/4 240/2/4 242/2/4
f 244/1/4 245/1/4 246/1/4
f 244/1/4 246/1/4 248/1/4
f 246/2/4 247/2/4 248/2/4
f 248/2/4 247/2/4 249/2/4
f 243/3/4 244/3/4 250/3/4
f 244/1/4 248/1/4 251/1/4
f 250/3/4 244/3/4 251/3/4
f 251/1/4 248/1/4 252/1/4
f 253/4/4 254/4/4 255/4/4
f 255/4/4 254/4/4 256/4/4
f 257/4/4 258/4/4 261/4/4
f 261/4/4 258/4/4 262/4/4
f 259/4/4 260/4/4 263/4/4
f 263/4/4 260/4/4 264/4/4
f 265/4/4 266/4/4 269/4/4
f 269/4/4 266/4/4 270/4/4
f 267/4/4 268/4/4 271/4/4
f 271/4/4 268/4/4 272/4/4
f 273/4/4 274/4/4 277/4/4
f 277/4/4 274/4/4 278/4/4
f 275/4/4 276/4/4 279/4/4
f 279/4/4 276/4/4 280/4/4
f 281/4/4 282/4/4 284/4/4
f 284/4/4 282/4/4 285/4/4
f 283/4/4 284/4/4 287/4/4
f 287/4/4 284/4/4 288/4/4
f 285/4/4 286/4/4 289/4/4
f 289/4/4 286/4/4 290/4/4
f 283/4/4 287/4/4 291/4/4
f 290/4/4 286/4/4 294/4/4
f 291/4/4 292/4/4 295/4/4
f 283/4/4 291/4/4 295/4/4
f 295/4/4 292/4/4 296/4/4
f 293/4/4 294/4/4 297/4/4
f 294/4/4 286/4/4 298/4/4
f 297/4/4 294/4/4 298/4/4
f 296/4/4 297/4/4 299/4/4
f 299/4/4 297/4/4 300/4/4
f 301/4/4 302/4/4 304/4/4
f 304/4/4 302/4/4 305/4/4
f 303/4/4 304/4/4 307/4/4
f 305/4/4 306/4/4 307/4/4
f 304/4/4 305/4/4 307/4/4
f 307/4/4 306/4/4 308/4/4
f 308/4/4 306/4/4 309/4/4
f 309/4/4 306/4/4 310/4/4
f 308/4/4 309/4/4 311/4/4
f 311/4/4 309/4/4 312/4/4
f 315/4/5 314/4/5 313/4/5
f 316/4/5 314/4/5 315/4/5
f 319/4/5 318/4/5 317/4/5
f 320/4/5 318/4/5 319/4/5
f 321/4/5 319/4/5 317/4/5
f 322/4/5 318/4/5 320/4/5
f 323/4/5 321/4/5 317/4/5
f 323/4/5 322/4/5 321/4/5
f 324/4/5 318/4/5 322/4/5
f 324/4/5 322/4/5 323/4/5
f 327/4/5 326/4/5 325/4/5
f 328/4/5 326/4/5 327/4/5
f 333/4/5 330/4/5 329/4/5
f 334/4/5 330/4/5 333/4/5
f 335/4/5 332/4/5 331/4/5
f 336/4/5 332/4/5 335/4/5
f 339/4/5 338/4/5 337/4/5
f 340/4/5 338/4/5 339/4/5
f 346/4/5 342/4/5 341/4/5
f 347/4/5 342/4/5 346/4/5
f 348/4/5 344/4/5 343/4/5
f 349/4/5 344/4/5 348/4/5
f 351/4/5 346/4/5 345/4/5
f 352/4/5 346/4/5 351/4/5
f 353/4/5 350/4/5 349/4/5
f 354/4/5 350/4/5 353/4/5
f 359/4/5 356/4/5 355/4/5
f 360/4/5 356/4/5 359/4/5
f 363/4/5 358/4/5 357/4/5
f 364/4/5 358/4/5 363/4/5
f 365/4/5 361/4/5 360/4/5
f 366/4/5 361/4/5 365/4/5
f 367/4/5 363/4/5 362/4/5
f 368/4/5 363/4/5 367/4/5
f 369/4/6 370/4/6 374/4/6
f 374/4/6 370/4/6 375/4/6
f 371/4/6 372/4/6 376/4/6
f 376/4/6 372/4/6 377/4/6
f 373/4/6 374/4/6 379/4/6
f 379/4/6 374/4/6 380/4/6
f 377/4/6 378/4/6 381/4/6
f 381/4/6 378/4/6 382/4/6
f 383/4/6 384/4/6 387/4/6
f 387/4/6 384/4/6 388/4/6
f 385/4/6 386/4/6 391/4/6
f 391/4/6 386/4/6 392/4/6
f 388/4/6 389/4/6 393/4/6
f 393/4/6 389/4/6 394/4/6
f 390/4/6 391/4/6 395/4/6
f 395/4/6 391/4/6 396/4/6
f 397/4/6 398/4/6 399/4/6
f 399/4/6 398/4/6 400/4/6
f 401/4/6 402/4/6 405/4/6
f 405/4/6 402/4/6 406/4/6
f 403/4/6 404/4/6 407/4/6
f 407/4/6 404/4/6 408/4/6
f 409/4/6 410/4/6 411/4/6
f 411/4/6 410/4/6 412/4/6
f 413/4/6 414/4/6 415/4/6
f 415/4/6 414/4/6 416/4/6
f 413/4/6 415/4/6 417/4/6
f 416/4/6 414/4/6 418/4/6
f 413/4/6 417/4/6 419/4/6
f 417/4/6 418/4/6 419/4/6
f 418/4/6 414/4/6 420/4/6
f 419/4/6 418/4/6 420/4/6
f 421/4/6 422/4/6 423/4/6
f 423/4/6 422/4/6 424/4/6
f 421/4/6 423/4/6 425/4/6
f 424/4/6 422/4/6 426/4/6
f 421/4/6 425/4/6 427/4/6
f 425/4/6 426/4/6 427/4/6
f 426/4/6 422/4/6 428/4/6
f 427/4/6 426/4/6 428/4/6
f 429/4/6 430/4/6 431/4/6
f 431/4/6 430/4/6 432/4/6
f 429/4/6 431/4/6 433/4/6
f 432/4/6 430/4/6 434/4/6
f 429/4/6 433/4/6 435/4/6
f 433/4/6 434/4/6 435/4/6
f 434/4/6 430/4/6 436/4/6
f 435/4/6 434/4/6 436/4/6
f 437/1/6 438/1/6 441/1/6
f 441/1/6 438/1/6 442/1/6
f 439/1/6 440/1/6 443/1/6
f 443/1/6 440/1/6 444/1/6
f 445/1/6 446/1/6 449/1/6
f 449/1/6 446/1/6 450/1/6
f 447/1/6 448/1/6 451/1/6
f 451/1/6 448/1/6 452/1/6
f 453/2/6 454/2/6 456/2/6
f 456/2/6 454/2/6 457/2/6
f 455/2/6 456/2/6 459/2/6
f 457/2/6 458/2/6 459/2/6
f 456/2/6 457/2/6 459/2/6
f 459/2/6 458/2/6 460/2/6
f 460/2/6 458/2/6 461/2/6
f 461/2/6 458/2/6 462/2/6
f 460/2/6 461/2/6 463/2/6
f 463/2/6 461/2/6 464/2/6
