# MagicaVoxel @ Ephtracy

# group
o 

# material
mtllib playerhand.vox.mtl
usemtl palette

# normals
vn -1 0 0
vn 1 0 0
vn 0 0 1
vn 0 0 -1
vn 0 -1 0
vn 0 1 0

# texcoords
vt 0.806641 0.5
vt 0.810547 0.5
vt 0.939453 0.5
vt 0.962891 0.5
vt 0.974609 0.5

# verts
v -0.7 0.3 0.1
v -0.7 0.3 -0.2
v -0.7 0.6 0.1
v -0.7 0.6 -0.2
v -0.6 0.2 0
v -0.6 0.2 -0.1
v -0.6 0.3 0
v -0.6 0.3 -0.1
v -0.6 0.4 0.2
v -0.6 0.4 0.1
v -0.6 0.4 -0.2
v -0.6 0.4 -0.3
v -0.6 0.5 0.2
v -0.6 0.5 0.1
v -0.6 0.5 -0.2
v -0.6 0.5 -0.3
v -0.6 0.6 0
v -0.6 0.6 -0.1
v -0.6 0.7 0
v -0.6 0.7 -0.1
v -0.5 0.2 0.1
v -0.5 0.2 0
v -0.5 0.2 -0.1
v -0.5 0.2 -0.2
v -0.5 0.3 0.2
v -0.5 0.3 0.1
v -0.5 0.3 0
v -0.5 0.3 -0.1
v -0.5 0.3 -0.2
v -0.5 0.3 -0.3
v -0.5 0.4 0.2
v -0.5 0.4 0.1
v -0.5 0.4 -0.2
v -0.5 0.4 -0.3
v -0.5 0.5 0.2
v -0.5 0.5 0.1
v -0.5 0.5 -0.2
v -0.5 0.5 -0.3
v -0.5 0.6 0.2
v -0.5 0.6 0.1
v -0.5 0.6 0
v -0.5 0.6 -0.1
v -0.5 0.6 -0.2
v -0.5 0.6 -0.3
v -0.5 0.7 0.1
v -0.5 0.7 0
v -0.5 0.7 -0.1
v -0.5 0.7 -0.2
v 0.5 0.2 0.1
v 0.5 0.2 -0.2
v 0.5 0.3 0.2
v 0.5 0.3 0.1
v 0.5 0.3 -0.2
v 0.5 0.3 -0.3
v 0.5 0.6 0.2
v 0.5 0.6 0.1
v 0.5 0.6 -0.2
v 0.5 0.6 -0.3
v 0.5 0.7 0.1
v 0.5 0.7 -0.2
v -0.6 0.4 0.2
v -0.6 0.5 0.2
v -0.5 0.3 0.2
v -0.5 0.4 0.2
v -0.5 0.5 0.2
v -0.5 0.6 0.2
v -0.3 0.3 0.2
v -0.3 0.4 0.2
v -0.3 0.5 0.2
v -0.3 0.6 0.2
v -0.2 0.3 0.2
v -0.2 0.4 0.2
v -0.2 0.5 0.2
v -0.2 0.6 0.2
v -0.1 0.3 0.2
v -0.1 0.6 0.2
v 0 0.3 0.2
v 0 0.6 0.2
v 0.1 0.4 0.2
v 0.1 0.5 0.2
v 0.2 0.4 0.2
v 0.2 0.5 0.2
v 0.3 0.4 0.2
v 0.3 0.5 0.2
v 0.4 0.4 0.2
v 0.4 0.5 0.2
v 0.5 0.3 0.2
v 0.5 0.6 0.2
v -0.7 0.3 0.1
v -0.7 0.6 0.1
v -0.6 0.3 0.1
v -0.6 0.4 0.1
v -0.6 0.5 0.1
v -0.6 0.6 0.1
v -0.5 0.2 0.1
v -0.5 0.3 0.1
v -0.5 0.4 0.1
v -0.5 0.5 0.1
v -0.5 0.6 0.1
v -0.5 0.7 0.1
v -0.3 0.3 0.1
v -0.3 0.6 0.1
v -0.3 0.7 0.1
v -0.2 0.3 0.1
v -0.2 0.6 0.1
v -0.2 0.7 0.1
v -0.1 0.2 0.1
v -0.1 0.3 0.1
v -0.1 0.6 0.1
v -0.1 0.7 0.1
v 0 0.2 0.1
v 0 0.3 0.1
v 0 0.6 0.1
v 0 0.7 0.1
v 0.5 0.2 0.1
v 0.5 0.3 0.1
v 0.5 0.6 0.1
v 0.5 0.7 0.1
v -0.6 0.2 0
v -0.6 0.3 0
v -0.6 0.6 0
v -0.6 0.7 0
v -0.5 0.2 0
v -0.5 0.3 0
v -0.5 0.6 0
v -0.5 0.7 0
v -0.6 0.2 -0.1
v -0.6 0.3 -0.1
v -0.6 0.6 -0.1
v -0.6 0.7 -0.1
v -0.5 0.2 -0.1
v -0.5 0.3 -0.1
v -0.5 0.6 -0.1
v -0.5 0.7 -0.1
v -0.7 0.3 -0.2
v -0.7 0.6 -0.2
v -0.6 0.3 -0.2
v -0.6 0.4 -0.2
v -0.6 0.5 -0.2
v -0.6 0.6 -0.2
v -0.5 0.2 -0.2
v -0.5 0.3 -0.2
v -0.5 0.4 -0.2
v -0.5 0.5 -0.2
v -0.5 0.6 -0.2
v -0.5 0.7 -0.2
v -0.1 0.2 -0.2
v -0.1 0.3 -0.2
v -0.1 0.6 -0.2
v -0.1 0.7 -0.2
v 0 0.2 -0.2
v 0 0.3 -0.2
v 0 0.6 -0.2
v 0 0.7 -0.2
v 0.1 0.3 -0.2
v 0.2 0.3 -0.2
v 0.3 0.6 -0.2
v 0.3 0.7 -0.2
v 0.4 0.6 -0.2
v 0.4 0.7 -0.2
v 0.5 0.2 -0.2
v 0.5 0.3 -0.2
v 0.5 0.6 -0.2
v 0.5 0.7 -0.2
v -0.6 0.4 -0.3
v -0.6 0.5 -0.3
v -0.5 0.3 -0.3
v -0.5 0.4 -0.3
v -0.5 0.5 -0.3
v -0.5 0.6 -0.3
v -0.1 0.3 -0.3
v -0.1 0.6 -0.3
v 0 0.3 -0.3
v 0 0.6 -0.3
v 0.1 0.3 -0.3
v 0.1 0.4 -0.3
v 0.2 0.3 -0.3
v 0.2 0.4 -0.3
v 0.3 0.5 -0.3
v 0.3 0.6 -0.3
v 0.4 0.5 -0.3
v 0.4 0.6 -0.3
v 0.5 0.3 -0.3
v 0.5 0.6 -0.3
v -0.5 0.2 0.1
v -0.1 0.2 0.1
v 0 0.2 0.1
v 0.5 0.2 0.1
v -0.6 0.2 0
v -0.5 0.2 0
v -0.6 0.2 -0.1
v -0.5 0.2 -0.1
v -0.5 0.2 -0.2
v -0.1 0.2 -0.2
v 0 0.2 -0.2
v 0.5 0.2 -0.2
v -0.5 0.3 0.2
v -0.3 0.3 0.2
v -0.2 0.3 0.2
v -0.1 0.3 0.2
v 0 0.3 0.2
v 0.5 0.3 0.2
v -0.7 0.3 0.1
v -0.6 0.3 0.1
v -0.5 0.3 0.1
v -0.3 0.3 0.1
v -0.2 0.3 0.1
v -0.1 0.3 0.1
v 0 0.3 0.1
v 0.5 0.3 0.1
v -0.6 0.3 0
v -0.5 0.3 0
v -0.6 0.3 -0.1
v -0.5 0.3 -0.1
v -0.7 0.3 -0.2
v -0.6 0.3 -0.2
v -0.5 0.3 -0.2
v -0.1 0.3 -0.2
v 0 0.3 -0.2
v 0.1 0.3 -0.2
v 0.2 0.3 -0.2
v 0.5 0.3 -0.2
v -0.5 0.3 -0.3
v -0.1 0.3 -0.3
v 0 0.3 -0.3
v 0.1 0.3 -0.3
v 0.2 0.3 -0.3
v 0.5 0.3 -0.3
v -0.6 0.4 0.2
v -0.5 0.4 0.2
v -0.6 0.4 0.1
v -0.5 0.4 0.1
v -0.6 0.4 -0.2
v -0.5 0.4 -0.2
v -0.6 0.4 -0.3
v -0.5 0.4 -0.3
v -0.6 0.5 0.2
v -0.5 0.5 0.2
v -0.6 0.5 0.1
v -0.5 0.5 0.1
v -0.6 0.5 -0.2
v -0.5 0.5 -0.2
v -0.6 0.5 -0.3
v -0.5 0.5 -0.3
v -0.5 0.6 0.2
v -0.3 0.6 0.2
v -0.2 0.6 0.2
v -0.1 0.6 0.2
v 0 0.6 0.2
v 0.5 0.6 0.2
v -0.7 0.6 0.1
v -0.6 0.6 0.1
v -0.5 0.6 0.1
v -0.3 0.6 0.1
v -0.2 0.6 0.1
v -0.1 0.6 0.1
v 0 0.6 0.1
v 0.5 0.6 0.1
v -0.6 0.6 0
v -0.5 0.6 0
v -0.6 0.6 -0.1
v -0.5 0.6 -0.1
v -0.7 0.6 -0.2
v -0.6 0.6 -0.2
v -0.5 0.6 -0.2
v -0.1 0.6 -0.2
v 0 0.6 -0.2
v 0.3 0.6 -0.2
v 0.4 0.6 -0.2
v 0.5 0.6 -0.2
v -0.5 0.6 -0.3
v -0.1 0.6 -0.3
v 0 0.6 -0.3
v 0.3 0.6 -0.3
v 0.4 0.6 -0.3
v 0.5 0.6 -0.3
v -0.5 0.7 0.1
v -0.3 0.7 0.1
v -0.2 0.7 0.1
v -0.1 0.7 0.1
v 0 0.7 0.1
v 0.5 0.7 0.1
v -0.6 0.7 0
v -0.5 0.7 0
v -0.3 0.7 0
v -0.2 0.7 0
v -0.6 0.7 -0.1
v -0.5 0.7 -0.1
v 0.3 0.7 -0.1
v 0.4 0.7 -0.1
v -0.5 0.7 -0.2
v -0.1 0.7 -0.2
v 0 0.7 -0.2
v 0.3 0.7 -0.2
v 0.4 0.7 -0.2
v 0.5 0.7 -0.2

# faces
f 3/4/1 2/4/1 1/4/1
f 4/4/1 2/4/1 3/4/1
f 7/5/1 6/5/1 5/5/1
f 8/5/1 6/5/1 7/5/1
f 13/5/1 10/5/1 9/5/1
f 14/5/1 10/5/1 13/5/1
f 15/5/1 12/5/1 11/5/1
f 16/5/1 12/5/1 15/5/1
f 19/5/1 18/5/1 17/5/1
f 20/5/1 18/5/1 19/5/1
f 26/2/1 22/2/1 21/2/1
f 27/2/1 22/2/1 26/2/1
f 28/2/1 24/2/1 23/2/1
f 29/2/1 24/2/1 28/2/1
f 31/2/1 26/2/1 25/2/1
f 32/2/1 26/2/1 31/2/1
f 33/2/1 30/2/1 29/2/1
f 34/2/1 30/2/1 33/2/1
f 39/2/1 36/2/1 35/2/1
f 40/2/1 36/2/1 39/2/1
f 43/2/1 38/2/1 37/2/1
f 44/2/1 38/2/1 43/2/1
f 45/2/1 41/2/1 40/2/1
f 46/2/1 41/2/1 45/2/1
f 47/2/1 43/2/1 42/2/1
f 48/2/1 43/2/1 47/2/1
f 49/2/2 50/2/2 52/2/2
f 52/2/2 50/2/2 53/2/2
f 51/2/2 52/2/2 55/2/2
f 53/2/2 54/2/2 55/2/2
f 52/2/2 53/2/2 55/2/2
f 55/2/2 54/2/2 56/2/2
f 56/2/2 54/2/2 57/2/2
f 57/2/2 54/2/2 58/2/2
f 56/2/2 57/2/2 59/2/2
f 59/2/2 57/2/2 60/2/2
f 64/5/3 62/5/3 61/5/3
f 65/5/3 62/5/3 64/5/3
f 67/2/3 64/2/3 63/2/3
f 67/2/3 66/2/3 65/2/3
f 67/2/3 65/2/3 64/2/3
f 68/2/3 66/2/3 67/2/3
f 69/2/3 66/2/3 68/2/3
f 70/2/3 66/2/3 69/2/3
f 71/3/3 68/3/3 67/3/3
f 72/2/3 69/2/3 68/2/3
f 72/3/3 68/3/3 71/3/3
f 73/1/3 70/1/3 69/1/3
f 73/2/3 69/2/3 72/2/3
f 74/1/3 70/1/3 73/1/3
f 75/2/3 72/2/3 71/2/3
f 75/2/3 73/2/3 72/2/3
f 75/2/3 74/2/3 73/2/3
f 76/2/3 74/2/3 75/2/3
f 77/5/3 76/5/3 75/5/3
f 78/5/3 76/5/3 77/5/3
f 79/2/3 78/2/3 77/2/3
f 80/2/3 78/2/3 79/2/3
f 81/2/3 79/2/3 77/2/3
f 81/1/3 80/1/3 79/1/3
f 82/2/3 78/2/3 80/2/3
f 82/1/3 80/1/3 81/1/3
f 83/2/3 81/2/3 77/2/3
f 83/2/3 82/2/3 81/2/3
f 84/2/3 78/2/3 82/2/3
f 84/2/3 82/2/3 83/2/3
f 85/2/3 83/2/3 77/2/3
f 85/3/3 84/3/3 83/3/3
f 86/2/3 78/2/3 84/2/3
f 86/3/3 84/3/3 85/3/3
f 87/2/3 85/2/3 77/2/3
f 87/2/3 86/2/3 85/2/3
f 88/2/3 78/2/3 86/2/3
f 88/2/3 86/2/3 87/2/3
f 91/4/3 90/4/3 89/4/3
f 92/4/3 90/4/3 91/4/3
f 93/4/3 90/4/3 92/4/3
f 94/4/3 90/4/3 93/4/3
f 96/5/3 92/5/3 91/5/3
f 97/5/3 92/5/3 96/5/3
f 98/5/3 94/5/3 93/5/3
f 99/5/3 94/5/3 98/5/3
f 101/2/3 96/2/3 95/2/3
f 102/2/3 100/2/3 99/2/3
f 103/2/3 100/2/3 102/2/3
f 104/2/3 101/2/3 95/2/3
f 105/1/3 103/1/3 102/1/3
f 106/1/3 103/1/3 105/1/3
f 107/2/3 104/2/3 95/2/3
f 108/2/3 104/2/3 107/2/3
f 109/2/3 106/2/3 105/2/3
f 110/2/3 106/2/3 109/2/3
f 111/5/3 108/5/3 107/5/3
f 112/5/3 108/5/3 111/5/3
f 113/5/3 110/5/3 109/5/3
f 114/5/3 110/5/3 113/5/3
f 115/2/3 112/2/3 111/2/3
f 116/2/3 112/2/3 115/2/3
f 117/2/3 114/2/3 113/2/3
f 118/2/3 114/2/3 117/2/3
f 123/5/3 120/5/3 119/5/3
f 124/5/3 120/5/3 123/5/3
f 125/5/3 122/5/3 121/5/3
f 126/5/3 122/5/3 125/5/3
f 127/5/4 128/5/4 131/5/4
f 131/5/4 128/5/4 132/5/4
f 129/5/4 130/5/4 133/5/4
f 133/5/4 130/5/4 134/5/4
f 135/4/4 136/4/4 137/4/4
f 137/4/4 136/4/4 138/4/4
f 138/4/4 136/4/4 139/4/4
f 139/4/4 136/4/4 140/4/4
f 137/5/4 138/5/4 142/5/4
f 142/5/4 138/5/4 143/5/4
f 139/5/4 140/5/4 144/5/4
f 144/5/4 140/5/4 145/5/4
f 141/2/4 142/2/4 147/2/4
f 147/2/4 142/2/4 148/2/4
f 145/2/4 146/2/4 149/2/4
f 149/2/4 146/2/4 150/2/4
f 147/5/4 148/5/4 151/5/4
f 151/5/4 148/5/4 152/5/4
f 149/5/4 150/5/4 153/5/4
f 153/5/4 150/5/4 154/5/4
f 151/2/4 152/2/4 155/2/4
f 151/2/4 155/2/4 156/2/4
f 153/2/4 154/2/4 157/2/4
f 157/2/4 154/2/4 158/2/4
f 157/1/4 158/1/4 159/1/4
f 159/1/4 158/1/4 160/1/4
f 151/2/4 156/2/4 161/2/4
f 161/2/4 156/2/4 162/2/4
f 159/2/4 160/2/4 163/2/4
f 163/2/4 160/2/4 164/2/4
f 165/5/4 166/5/4 168/5/4
f 168/5/4 166/5/4 169/5/4
f 167/2/4 168/2/4 171/2/4
f 169/2/4 170/2/4 171/2/4
f 168/2/4 169/2/4 171/2/4
f 171/2/4 170/2/4 172/2/4
f 171/5/4 172/5/4 173/5/4
f 173/5/4 172/5/4 174/5/4
f 173/2/4 174/2/4 175/2/4
f 175/2/4 174/2/4 176/2/4
f 175/1/4 176/1/4 177/1/4
f 176/2/4 174/2/4 178/2/4
f 177/1/4 176/1/4 178/1/4
f 177/2/4 178/2/4 179/2/4
f 178/2/4 174/2/4 179/2/4
f 179/2/4 174/2/4 180/2/4
f 177/2/4 179/2/4 181/2/4
f 179/1/4 180/1/4 181/1/4
f 181/1/4 180/1/4 182/1/4
f 177/2/4 181/2/4 183/2/4
f 181/2/4 182/2/4 183/2/4
f 183/2/4 182/2/4 184/2/4
f 190/2/5 186/2/5 185/2/5
f 191/5/5 190/5/5 189/5/5
f 192/2/5 186/2/5 190/2/5
f 192/5/5 190/5/5 191/5/5
f 193/2/5 186/2/5 192/2/5
f 194/5/5 187/5/5 186/5/5
f 194/2/5 186/2/5 193/2/5
f 195/2/5 188/2/5 187/2/5
f 195/5/5 187/5/5 194/5/5
f 196/2/5 188/2/5 195/2/5
f 205/2/5 198/2/5 197/2/5
f 206/3/5 199/3/5 198/3/5
f 206/2/5 198/2/5 205/2/5
f 207/2/5 200/2/5 199/2/5
f 207/3/5 199/3/5 206/3/5
f 208/5/5 201/5/5 200/5/5
f 208/2/5 200/2/5 207/2/5
f 209/2/5 202/2/5 201/2/5
f 209/5/5 201/5/5 208/5/5
f 210/2/5 202/2/5 209/2/5
f 211/4/5 204/4/5 203/4/5
f 211/5/5 205/5/5 204/5/5
f 212/5/5 205/5/5 211/5/5
f 213/4/5 211/4/5 203/4/5
f 215/4/5 213/4/5 203/4/5
f 216/5/5 214/5/5 213/5/5
f 216/4/5 213/4/5 215/4/5
f 217/5/5 214/5/5 216/5/5
f 223/2/5 218/2/5 217/2/5
f 224/5/5 219/5/5 218/5/5
f 224/2/5 218/2/5 223/2/5
f 225/2/5 220/2/5 219/2/5
f 225/5/5 219/5/5 224/5/5
f 226/1/5 221/1/5 220/1/5
f 226/2/5 220/2/5 225/2/5
f 227/2/5 222/2/5 221/2/5
f 227/1/5 221/1/5 226/1/5
f 228/2/5 222/2/5 227/2/5
f 231/5/5 230/5/5 229/5/5
f 232/5/5 230/5/5 231/5/5
f 235/5/5 234/5/5 233/5/5
f 236/5/5 234/5/5 235/5/5
f 237/5/6 238/5/6 239/5/6
f 239/5/6 238/5/6 240/5/6
f 241/5/6 242/5/6 243/5/6
f 243/5/6 242/5/6 244/5/6
f 245/2/6 246/2/6 253/2/6
f 246/1/6 247/1/6 254/1/6
f 253/2/6 246/2/6 254/2/6
f 247/2/6 248/2/6 255/2/6
f 254/1/6 247/1/6 255/1/6
f 248/5/6 249/5/6 256/5/6
f 255/2/6 248/2/6 256/2/6
f 249/2/6 250/2/6 257/2/6
f 256/5/6 249/5/6 257/5/6
f 257/2/6 250/2/6 258/2/6
f 251/4/6 252/4/6 259/4/6
f 252/5/6 253/5/6 259/5/6
f 259/5/6 253/5/6 260/5/6
f 251/4/6 259/4/6 261/4/6
f 251/4/6 261/4/6 263/4/6
f 261/5/6 262/5/6 264/5/6
f 263/4/6 261/4/6 264/4/6
f 264/5/6 262/5/6 265/5/6
f 265/2/6 266/2/6 271/2/6
f 266/5/6 267/5/6 272/5/6
f 271/2/6 266/2/6 272/2/6
f 267/2/6 268/2/6 273/2/6
f 272/5/6 267/5/6 273/5/6
f 268/1/6 269/1/6 274/1/6
f 273/2/6 268/2/6 274/2/6
f 269/2/6 270/2/6 275/2/6
f 274/1/6 269/1/6 275/1/6
f 275/2/6 270/2/6 276/2/6
f 277/2/6 278/2/6 284/2/6
f 278/1/6 279/1/6 285/1/6
f 284/2/6 278/2/6 285/2/6
f 279/2/6 280/2/6 286/2/6
f 285/1/6 279/1/6 286/1/6
f 283/5/6 284/5/6 287/5/6
f 284/2/6 285/2/6 288/2/6
f 287/5/6 284/5/6 288/5/6
f 285/2/6 286/2/6 288/2/6
f 281/2/6 282/2/6 289/2/6
f 289/2/6 282/2/6 290/2/6
f 288/2/6 286/2/6 291/2/6
f 286/2/6 280/2/6 292/2/6
f 291/2/6 286/2/6 292/2/6
f 280/5/6 281/5/6 292/5/6
f 281/2/6 289/2/6 293/2/6
f 292/5/6 281/5/6 293/5/6
f 289/1/6 290/1/6 294/1/6
f 293/2/6 289/2/6 294/2/6
f 290/2/6 282/2/6 295/2/6
f 294/1/6 290/1/6 295/1/6
f 295/2/6 282/2/6 296/2/6
