# MagicaVoxel @ Ephtracy

# group
o 

# material
mtllib theshrine.mtl
usemtl palette

# normals
vn -1 0 0
vn 1 0 0
vn 0 0 1
vn 0 0 -1
vn 0 -1 0
vn 0 1 0

# texcoords
vt 0.615234 0.5
vt 0.966797 0.5

# verts
v -0.6 0.4 0.5
v -0.6 0.4 0.4
v -0.6 0.4 -0.6
v -0.6 0.6 -0.3
v -0.6 0.6 -0.4
v -0.6 0.8 0.5
v -0.6 0.8 0.4
v -0.6 0.8 -0.3
v -0.6 0.8 -0.4
v -0.6 0.8 -0.5
v -0.6 0.8 -0.6
v -0.6 0.9 0.4
v -0.6 0.9 0.3
v -0.6 1.1 0.4
v -0.6 1.1 0.3
v -0.6 1.1 0.2
v -0.6 1.1 -0.4
v -0.6 1.1 -0.5
v -0.6 1.3 0.2
v -0.6 1.3 0.1
v -0.6 1.4 0.3
v -0.6 1.4 0.1
v -0.6 1.4 -0.4
v -0.5 0.2 0.5
v -0.5 0.2 0.3
v -0.5 0.2 -5.96046e-08
v -0.5 0.2 -0.6
v -0.5 0.3 0.5
v -0.5 0.3 0.3
v -0.5 0.3 0.2
v -0.5 0.3 -5.96046e-08
v -0.5 0.4 0.6
v -0.5 0.4 0.5
v -0.5 0.4 0.4
v -0.5 0.4 0.2
v -0.5 0.4 -0.6
v -0.5 0.4 -0.7
v -0.5 0.8 0.6
v -0.5 0.8 0.5
v -0.5 0.8 0.4
v -0.5 0.8 -0.5
v -0.5 0.8 -0.6
v -0.5 0.8 -0.7
v -0.5 0.9 0.4
v -0.5 1 0.5
v -0.5 1 0.4
v -0.5 1.1 0.5
v -0.5 1.1 0.4
v -0.5 1.1 0.3
v -0.5 1.1 -0.4
v -0.5 1.1 -0.5
v -0.5 1.1 -0.6
v -0.5 1.2 0.4
v -0.5 1.2 0.3
v -0.5 1.4 0.4
v -0.5 1.4 0.3
v -0.5 1.4 0.2
v -0.5 1.4 0.1
v -0.5 1.4 -5.96046e-08
v -0.5 1.4 -0.3
v -0.5 1.4 -0.4
v -0.5 1.4 -0.5
v -0.5 1.5 0.2
v -0.5 1.5 0.1
v -0.5 1.5 -5.96046e-08
v -0.5 1.5 -0.1
v -0.5 1.5 -0.2
v -0.5 1.5 -0.3
v -0.5 1.6 0.1
v -0.5 1.6 -0.1
v -0.5 1.6 -0.2
v -0.4 0.1 0.5
v -0.4 0.1 0.1
v -0.4 0.1 -0.2
v -0.4 0.1 -0.6
v -0.4 0.2 0.6
v -0.4 0.2 0.5
v -0.4 0.2 0.3
v -0.4 0.2 0.1
v -0.4 0.2 -5.96046e-08
v -0.4 0.2 -0.2
v -0.4 0.2 -0.6
v -0.4 0.2 -0.7
v -0.4 0.3 0.5
v -0.4 0.4 0.7
v -0.4 0.4 0.6
v -0.4 0.4 0.5
v -0.4 0.4 -0.6
v -0.4 0.4 -0.7
v -0.4 0.4 -0.8
v -0.4 0.5 -0.7
v -0.4 0.5 -0.8
v -0.4 0.6 0.7
v -0.4 0.6 0.6
v -0.4 0.7 -0.7
v -0.4 0.7 -0.8
v -0.4 0.8 0.7
v -0.4 0.8 0.6
v -0.4 0.8 0.5
v -0.4 0.8 -0.6
v -0.4 0.8 -0.7
v -0.4 0.8 -0.8
v -0.4 1 0.5
v -0.4 1.1 0.6
v -0.4 1.1 0.5
v -0.4 1.1 0.4
v -0.4 1.1 -0.5
v -0.4 1.1 -0.6
v -0.4 1.1 -0.7
v -0.4 1.2 0.4
v -0.4 1.4 0.5
v -0.4 1.4 0.4
v -0.4 1.4 0.3
v -0.4 1.4 0.2
v -0.4 1.4 -0.3
v -0.4 1.4 -0.4
v -0.4 1.4 -0.5
v -0.4 1.4 -0.6
v -0.4 1.5 0.3
v -0.4 1.5 0.2
v -0.4 1.5 0.1
v -0.4 1.5 -0.2
v -0.4 1.5 -0.3
v -0.4 1.5 -0.4
v -0.4 1.6 0.2
v -0.4 1.6 0.1
v -0.4 1.6 -5.96046e-08
v -0.4 1.6 -0.1
v -0.4 1.6 -0.2
v -0.4 1.6 -0.3
v -0.4 1.7 0.1
v -0.4 1.7 -5.96046e-08
v -0.4 1.7 -0.2
v -0.3 0 0.5
v -0.3 0 -0.1
v -0.3 0 -0.3
v -0.3 0 -0.6
v -0.3 0.1 0.6
v -0.3 0.1 0.5
v -0.3 0.1 0.1
v -0.3 0.1 -0.1
v -0.3 0.1 -0.2
v -0.3 0.1 -0.3
v -0.3 0.1 -0.6
v -0.3 0.1 -0.7
v -0.3 0.2 0.7
v -0.3 0.2 0.6
v -0.3 0.2 0.5
v -0.3 0.2 -0.6
v -0.3 0.2 -0.7
v -0.3 0.2 -0.8
v -0.3 0.4 0.8
v -0.3 0.4 0.7
v -0.3 0.4 0.6
v -0.3 0.4 -0.7
v -0.3 0.4 -0.8
v -0.3 0.4 -0.9
v -0.3 0.5 -0.8
v -0.3 0.5 -0.9
v -0.3 0.6 0.7
v -0.3 0.6 -0.8
v -0.3 0.6 -0.9
v -0.3 0.7 -0.8
v -0.3 0.8 0.8
v -0.3 0.8 0.7
v -0.3 0.8 0.6
v -0.3 0.8 -0.7
v -0.3 0.8 -0.8
v -0.3 0.8 -0.9
v -0.3 1 0.7
v -0.3 1 0.6
v -0.3 1.1 0.7
v -0.3 1.1 0.6
v -0.3 1.1 0.5
v -0.3 1.1 -0.6
v -0.3 1.1 -0.7
v -0.3 1.1 -0.8
v -0.3 1.4 0.6
v -0.3 1.4 0.5
v -0.3 1.4 0.4
v -0.3 1.4 0.3
v -0.3 1.4 -0.4
v -0.3 1.4 -0.5
v -0.3 1.4 -0.6
v -0.3 1.4 -0.7
v -0.3 1.5 0.4
v -0.3 1.5 0.3
v -0.3 1.5 0.2
v -0.3 1.5 -0.3
v -0.3 1.5 -0.4
v -0.3 1.5 -0.5
v -0.3 1.6 0.3
v -0.3 1.6 0.2
v -0.3 1.6 0.1
v -0.3 1.6 -0.2
v -0.3 1.6 -0.3
v -0.3 1.6 -0.4
v -0.3 1.7 0.2
v -0.3 1.7 0.1
v -0.3 1.7 -5.96046e-08
v -0.3 1.7 -0.1
v -0.3 1.7 -0.2
v -0.3 1.7 -0.3
v -0.3 1.8 0.1
v -0.3 1.8 -0.1
v -0.3 1.8 -0.2
v -0.2 0.8 0.8
v -0.2 0.8 0.7
v -0.2 0.8 -0.8
v -0.2 0.8 -0.9
v -0.2 1 0.7
v -0.2 1.1 0.8
v -0.2 1.1 0.7
v -0.2 1.1 0.6
v -0.2 1.1 -0.7
v -0.2 1.1 -0.8
v -0.2 1.1 -0.9
v -0.2 1.3 0.7
v -0.2 1.3 0.6
v -0.2 1.4 0.7
v -0.2 1.4 0.6
v -0.2 1.4 0.5
v -0.2 1.4 0.4
v -0.2 1.4 -0.5
v -0.2 1.4 -0.6
v -0.2 1.4 -0.7
v -0.2 1.4 -0.8
v -0.2 1.5 0.5
v -0.2 1.5 0.4
v -0.2 1.5 0.3
v -0.2 1.5 -0.4
v -0.2 1.5 -0.5
v -0.2 1.5 -0.6
v -0.2 1.6 0.4
v -0.2 1.6 0.3
v -0.2 1.6 0.2
v -0.2 1.6 -0.3
v -0.2 1.6 -0.4
v -0.2 1.6 -0.5
v -0.2 1.7 0.3
v -0.2 1.7 0.2
v -0.2 1.7 0.1
v -0.2 1.7 -0.2
v -0.2 1.7 -0.3
v -0.2 1.7 -0.4
v -0.2 1.8 0.2
v -0.2 1.8 0.1
v -0.2 1.8 -5.96046e-08
v -0.2 1.8 -0.1
v -0.2 1.8 -0.2
v -0.2 1.8 -0.3
v -0.2 1.9 -5.96046e-08
v -0.2 1.9 -0.1
v -0.0999999 1.1 0.8
v -0.0999999 1.1 0.7
v -0.0999999 1.1 -0.8
v -0.0999999 1.1 -0.9
v -0.0999999 1.2 0.8
v -0.0999999 1.2 0.7
v -0.0999999 1.3 0.7
v -0.0999999 1.4 0.8
v -0.0999999 1.4 0.7
v -0.0999999 1.4 0.6
v -0.0999999 1.4 0.5
v -0.0999999 1.4 -0.6
v -0.0999999 1.4 -0.7
v -0.0999999 1.4 -0.8
v -0.0999999 1.4 -0.9
v -0.0999999 1.5 0.6
v -0.0999999 1.5 0.5
v -0.0999999 1.5 0.4
v -0.0999999 1.5 -0.5
v -0.0999999 1.5 -0.6
v -0.0999999 1.5 -0.7
v -0.0999999 1.6 0.5
v -0.0999999 1.6 0.4
v -0.0999999 1.6 0.3
v -0.0999999 1.6 -0.4
v -0.0999999 1.6 -0.5
v -0.0999999 1.6 -0.6
v -0.0999999 1.7 0.4
v -0.0999999 1.7 0.3
v -0.0999999 1.7 0.2
v -0.0999999 1.7 -0.3
v -0.0999999 1.7 -0.4
v -0.0999999 1.7 -0.5
v -0.0999999 1.8 0.3
v -0.0999999 1.8 0.2
v -0.0999999 1.8 -0.3
v -0.0999999 1.8 -0.4
v 5.96046e-08 1.4 0.7
v 5.96046e-08 1.4 0.6
v 5.96046e-08 1.4 -0.7
v 5.96046e-08 1.4 -0.8
v 5.96046e-08 1.5 0.7
v 5.96046e-08 1.5 0.6
v 5.96046e-08 1.5 0.5
v 5.96046e-08 1.5 -0.6
v 5.96046e-08 1.5 -0.7
v 5.96046e-08 1.5 -0.8
v 5.96046e-08 1.6 0.6
v 5.96046e-08 1.6 0.5
v 5.96046e-08 1.6 0.4
v 5.96046e-08 1.6 -0.5
v 5.96046e-08 1.6 -0.6
v 5.96046e-08 1.6 -0.7
v 5.96046e-08 1.7 0.5
v 5.96046e-08 1.7 0.4
v 5.96046e-08 1.7 0.3
v 5.96046e-08 1.7 -0.4
v 5.96046e-08 1.7 -0.5
v 5.96046e-08 1.7 -0.6
v 5.96046e-08 1.8 0.4
v 5.96046e-08 1.8 0.3
v 5.96046e-08 1.8 0.2
v 5.96046e-08 1.8 -5.96046e-08
v 5.96046e-08 1.8 -0.1
v 5.96046e-08 1.8 -0.3
v 5.96046e-08 1.8 -0.4
v 5.96046e-08 1.8 -0.5
v 5.96046e-08 1.9 0.2
v 5.96046e-08 1.9 -5.96046e-08
v 5.96046e-08 1.9 -0.1
v 5.96046e-08 1.9 -0.3
v 5.96046e-08 2 -5.96046e-08
v 5.96046e-08 2 -0.1
v 0.1 1.5 0.7
v 0.1 1.5 0.6
v 0.1 1.5 -0.7
v 0.1 1.5 -0.8
v 0.1 1.6 0.7
v 0.1 1.6 0.6
v 0.1 1.6 0.5
v 0.1 1.6 -0.6
v 0.1 1.6 -0.7
v 0.1 1.6 -0.8
v 0.1 1.7 0.6
v 0.1 1.7 0.5
v 0.1 1.7 0.4
v 0.1 1.7 -0.5
v 0.1 1.7 -0.6
v 0.1 1.7 -0.7
v 0.1 1.8 0.5
v 0.1 1.8 0.4
v 0.1 1.8 -0.5
v 0.1 1.8 -0.6
v 0.1 1.9 0.1
v 0.1 1.9 -5.96046e-08
v 0.1 1.9 -0.1
v 0.1 1.9 -0.2
v 0.1 2 0.1
v 0.1 2 -5.96046e-08
v 0.1 2 -0.1
v 0.1 2 -0.2
v 0.1 2.1 -5.96046e-08
v 0.1 2.1 -0.1
v 0.2 1.8 0.4
v 0.2 1.8 0.2
v 0.2 1.8 -0.3
v 0.2 1.8 -0.5
v 0.2 1.9 0.4
v 0.2 1.9 0.2
v 0.2 1.9 0.1
v 0.2 1.9 -0.2
v 0.2 1.9 -0.3
v 0.2 1.9 -0.5
v 0.2 2 0.2
v 0.2 2 0.1
v 0.2 2 -5.96046e-08
v 0.2 2 -0.1
v 0.2 2 -0.2
v 0.2 2 -0.3
v 0.2 2.1 0.1
v 0.2 2.1 -5.96046e-08
v 0.2 2.1 -0.1
v 0.2 2.1 -0.2
v 0.2 2.2 -5.96046e-08
v 0.2 2.2 -0.1
v 0.3 1.8 0.4
v 0.3 1.8 0.2
v 0.3 1.8 -0.3
v 0.3 1.8 -0.5
v 0.3 1.9 0.4
v 0.3 1.9 0.2
v 0.3 1.9 0.1
v 0.3 1.9 -0.2
v 0.3 1.9 -0.3
v 0.3 1.9 -0.5
v 0.3 2 0.2
v 0.3 2 0.1
v 0.3 2 -5.96046e-08
v 0.3 2 -0.1
v 0.3 2 -0.2
v 0.3 2 -0.3
v 0.3 2.1 0.1
v 0.3 2.1 -5.96046e-08
v 0.3 2.1 -0.1
v 0.3 2.1 -0.2
v 0.3 2.2 -5.96046e-08
v 0.3 2.2 -0.1
v 0.4 1.5 0.7
v 0.4 1.5 0.6
v 0.4 1.5 -0.7
v 0.4 1.5 -0.8
v 0.4 1.6 0.7
v 0.4 1.6 0.6
v 0.4 1.6 0.5
v 0.4 1.6 -0.6
v 0.4 1.6 -0.7
v 0.4 1.6 -0.8
v 0.4 1.7 0.6
v 0.4 1.7 0.5
v 0.4 1.7 0.4
v 0.4 1.7 -0.5
v 0.4 1.7 -0.6
v 0.4 1.7 -0.7
v 0.4 1.8 0.5
v 0.4 1.8 0.4
v 0.4 1.8 0.2
v 0.4 1.8 0.1
v 0.4 1.8 -0.5
v 0.4 1.8 -0.6
v 0.4 1.9 0.2
v 0.4 1.9 0.1
v 0.4 1.9 -5.96046e-08
v 0.4 1.9 -0.1
v 0.4 1.9 -0.2
v 0.4 2 0.1
v 0.4 2 -5.96046e-08
v 0.4 2 -0.1
v 0.4 2 -0.2
v 0.4 2.1 -5.96046e-08
v 0.4 2.1 -0.1
v 0.5 1.4 0.7
v 0.5 1.4 0.6
v 0.5 1.4 -0.7
v 0.5 1.4 -0.8
v 0.5 1.5 0.7
v 0.5 1.5 0.6
v 0.5 1.5 0.5
v 0.5 1.5 -0.6
v 0.5 1.5 -0.7
v 0.5 1.5 -0.8
v 0.5 1.6 0.6
v 0.5 1.6 0.5
v 0.5 1.6 0.4
v 0.5 1.6 -0.5
v 0.5 1.6 -0.6
v 0.5 1.6 -0.7
v 0.5 1.7 0.5
v 0.5 1.7 0.4
v 0.5 1.7 0.3
v 0.5 1.7 -0.4
v 0.5 1.7 -0.5
v 0.5 1.7 -0.6
v 0.5 1.8 0.4
v 0.5 1.8 0.3
v 0.5 1.8 0.1
v 0.5 1.8 -5.96046e-08
v 0.5 1.8 -0.1
v 0.5 1.8 -0.3
v 0.5 1.8 -0.4
v 0.5 1.8 -0.5
v 0.5 1.9 0.1
v 0.5 1.9 -5.96046e-08
v 0.5 1.9 -0.1
v 0.5 1.9 -0.3
v 0.5 2 -5.96046e-08
v 0.5 2 -0.1
v 0.6 1.1 0.8
v 0.6 1.1 0.7
v 0.6 1.1 -0.8
v 0.6 1.1 -0.9
v 0.6 1.2 -0.8
v 0.6 1.2 -0.9
v 0.6 1.3 -0.8
v 0.6 1.4 0.8
v 0.6 1.4 0.7
v 0.6 1.4 0.6
v 0.6 1.4 0.5
v 0.6 1.4 -0.6
v 0.6 1.4 -0.7
v 0.6 1.4 -0.8
v 0.6 1.4 -0.9
v 0.6 1.5 0.6
v 0.6 1.5 0.5
v 0.6 1.5 0.4
v 0.6 1.5 -0.5
v 0.6 1.5 -0.6
v 0.6 1.5 -0.7
v 0.6 1.6 0.5
v 0.6 1.6 0.4
v 0.6 1.6 0.3
v 0.6 1.6 -0.4
v 0.6 1.6 -0.5
v 0.6 1.6 -0.6
v 0.6 1.7 0.4
v 0.6 1.7 0.3
v 0.6 1.7 0.2
v 0.6 1.7 -0.3
v 0.6 1.7 -0.4
v 0.6 1.7 -0.5
v 0.6 1.8 0.3
v 0.6 1.8 0.2
v 0.6 1.8 -0.3
v 0.6 1.8 -0.4
v 0.7 0.8 0.8
v 0.7 0.8 0.7
v 0.7 0.8 -0.8
v 0.7 0.8 -0.9
v 0.7 0.9 -0.8
v 0.7 1 -0.8
v 0.7 1 -0.9
v 0.7 1.1 0.8
v 0.7 1.1 0.7
v 0.7 1.1 0.6
v 0.7 1.1 -0.7
v 0.7 1.1 -0.8
v 0.7 1.1 -0.9
v 0.7 1.3 -0.7
v 0.7 1.3 -0.8
v 0.7 1.4 0.7
v 0.7 1.4 0.6
v 0.7 1.4 0.5
v 0.7 1.4 0.4
v 0.7 1.4 -0.5
v 0.7 1.4 -0.6
v 0.7 1.4 -0.7
v 0.7 1.4 -0.8
v 0.7 1.5 0.5
v 0.7 1.5 0.4
v 0.7 1.5 0.3
v 0.7 1.5 -0.4
v 0.7 1.5 -0.5
v 0.7 1.5 -0.6
v 0.7 1.6 0.4
v 0.7 1.6 0.3
v 0.7 1.6 0.2
v 0.7 1.6 -0.3
v 0.7 1.6 -0.4
v 0.7 1.6 -0.5
v 0.7 1.7 0.3
v 0.7 1.7 0.2
v 0.7 1.7 0.1
v 0.7 1.7 -0.2
v 0.7 1.7 -0.3
v 0.7 1.7 -0.4
v 0.7 1.8 0.2
v 0.7 1.8 0.1
v 0.7 1.8 -5.96046e-08
v 0.7 1.8 -0.1
v 0.7 1.8 -0.2
v 0.7 1.8 -0.3
v 0.7 1.9 -5.96046e-08
v 0.7 1.9 -0.1
v 0.8 0 0.5
v 0.8 0 0.1
v 0.8 0 -0.2
v 0.8 0 -0.6
v 0.8 0.1 0.6
v 0.8 0.1 0.5
v 0.8 0.1 0.1
v 0.8 0.1 -0.1
v 0.8 0.1 -0.2
v 0.8 0.1 -0.4
v 0.8 0.1 -0.6
v 0.8 0.1 -0.7
v 0.8 0.2 0.7
v 0.8 0.2 0.6
v 0.8 0.2 0.5
v 0.8 0.2 -0.6
v 0.8 0.2 -0.7
v 0.8 0.2 -0.8
v 0.8 0.3 0.6
v 0.8 0.3 -0.7
v 0.8 0.3 -0.8
v 0.8 0.4 0.8
v 0.8 0.4 0.7
v 0.8 0.4 0.6
v 0.8 0.4 -0.7
v 0.8 0.4 -0.8
v 0.8 0.4 -0.9
v 0.8 0.6 -0.8
v 0.8 0.7 -0.8
v 0.8 0.8 0.8
v 0.8 0.8 0.7
v 0.8 0.8 0.6
v 0.8 0.8 -0.7
v 0.8 0.8 -0.8
v 0.8 0.8 -0.9
v 0.8 0.9 -0.7
v 0.8 0.9 -0.8
v 0.8 1.1 0.7
v 0.8 1.1 0.6
v 0.8 1.1 0.5
v 0.8 1.1 -0.6
v 0.8 1.1 -0.7
v 0.8 1.1 -0.8
v 0.8 1.4 0.6
v 0.8 1.4 0.5
v 0.8 1.4 0.4
v 0.8 1.4 0.3
v 0.8 1.4 -0.4
v 0.8 1.4 -0.5
v 0.8 1.4 -0.6
v 0.8 1.4 -0.7
v 0.8 1.5 0.4
v 0.8 1.5 0.3
v 0.8 1.5 0.2
v 0.8 1.5 -0.3
v 0.8 1.5 -0.4
v 0.8 1.5 -0.5
v 0.8 1.6 0.3
v 0.8 1.6 0.2
v 0.8 1.6 0.1
v 0.8 1.6 -0.2
v 0.8 1.6 -0.3
v 0.8 1.6 -0.4
v 0.8 1.7 0.2
v 0.8 1.7 0.1
v 0.8 1.7 -0.2
v 0.8 1.7 -0.3
v 0.8 1.8 0.1
v 0.8 1.8 -0.2
v 0.9 0.1 0.5
v 0.9 0.1 -0.1
v 0.9 0.1 -0.4
v 0.9 0.1 -0.6
v 0.9 0.2 0.6
v 0.9 0.2 0.5
v 0.9 0.2 0.4
v 0.9 0.2 -0.1
v 0.9 0.2 -0.3
v 0.9 0.2 -0.4
v 0.9 0.2 -0.5
v 0.9 0.2 -0.6
v 0.9 0.2 -0.7
v 0.9 0.3 0.6
v 0.9 0.3 0.5
v 0.9 0.3 -0.6
v 0.9 0.4 0.7
v 0.9 0.4 0.6
v 0.9 0.4 0.5
v 0.9 0.4 -0.6
v 0.9 0.4 -0.7
v 0.9 0.4 -0.8
v 0.9 0.5 0.6
v 0.9 0.6 -0.7
v 0.9 0.6 -0.8
v 0.9 0.7 -0.7
v 0.9 0.7 -0.8
v 0.9 0.8 0.7
v 0.9 0.8 0.6
v 0.9 0.8 0.5
v 0.9 0.8 -0.6
v 0.9 0.8 -0.7
v 0.9 0.8 -0.8
v 0.9 0.9 -0.6
v 0.9 0.9 -0.7
v 0.9 1 0.5
v 0.9 1.1 0.6
v 0.9 1.1 0.5
v 0.9 1.1 0.4
v 0.9 1.1 -0.5
v 0.9 1.1 -0.6
v 0.9 1.1 -0.7
v 0.9 1.4 0.5
v 0.9 1.4 0.4
v 0.9 1.4 0.3
v 0.9 1.4 0.2
v 0.9 1.4 -0.3
v 0.9 1.4 -0.4
v 0.9 1.4 -0.5
v 0.9 1.4 -0.6
v 0.9 1.5 0.3
v 0.9 1.5 0.2
v 0.9 1.5 0.1
v 0.9 1.5 -0.2
v 0.9 1.5 -0.3
v 0.9 1.5 -0.4
v 0.9 1.6 0.2
v 0.9 1.6 0.1
v 0.9 1.6 -0.2
v 0.9 1.6 -0.3
v 0.9 1.7 0.1
v 0.9 1.7 -0.2
v 1 0.2 0.5
v 1 0.2 0.4
v 1 0.2 -0.3
v 1 0.2 -0.5
v 1 0.2 -0.6
v 1 0.3 0.5
v 1 0.3 0.4
v 1 0.3 -0.3
v 1 0.3 -0.4
v 1 0.3 -0.5
v 1 0.3 -0.6
v 1 0.4 0.6
v 1 0.4 0.5
v 1 0.4 -0.4
v 1 0.4 -0.5
v 1 0.4 -0.6
v 1 0.4 -0.7
v 1 0.5 0.6
v 1 0.5 0.5
v 1 0.5 -0.6
v 1 0.7 -0.6
v 1 0.8 0.6
v 1 0.8 0.5
v 1 0.8 0.4
v 1 0.8 -0.5
v 1 0.8 -0.6
v 1 0.8 -0.7
v 1 0.9 0.4
v 1 0.9 -0.5
v 1 0.9 -0.6
v 1 1 0.5
v 1 1 0.4
v 1 1.1 0.5
v 1 1.1 0.4
v 1 1.1 0.3
v 1 1.1 -0.4
v 1 1.1 -0.5
v 1 1.1 -0.6
v 1 1.3 -0.4
v 1 1.4 0.4
v 1 1.4 0.3
v 1 1.4 0.2
v 1 1.4 0.1
v 1 1.4 -5.96046e-08
v 1 1.4 -0.3
v 1 1.4 -0.4
v 1 1.4 -0.5
v 1 1.5 0.2
v 1 1.5 0.1
v 1 1.5 -5.96046e-08
v 1 1.5 -0.2
v 1 1.5 -0.3
v 1 1.6 0.1
v 1 1.6 -0.2
v 1.1 0.4 0.5
v 1.1 0.4 -0.5
v 1.1 0.4 -0.6
v 1.1 0.5 0.2
v 1.1 0.5 0.1
v 1.1 0.5 -0.5
v 1.1 0.5 -0.6
v 1.1 0.6 0.2
v 1.1 0.6 0.1
v 1.1 0.7 -0.5
v 1.1 0.7 -0.6
v 1.1 0.8 0.5
v 1.1 0.8 0.4
v 1.1 0.8 0.3
v 1.1 0.8 -0.4
v 1.1 0.8 -0.5
v 1.1 0.8 -0.6
v 1.1 0.9 0.4
v 1.1 0.9 0.3
v 1.1 1.1 0.4
v 1.1 1.1 0.3
v 1.1 1.1 -0.3
v 1.1 1.1 -0.4
v 1.1 1.1 -0.5
v 1.1 1.2 -0.2
v 1.1 1.2 -0.3
v 1.1 1.3 0.1
v 1.1 1.3 -0.2
v 1.1 1.3 -0.3
v 1.1 1.3 -0.4
v 1.1 1.4 0.3
v 1.1 1.4 0.1
v 1.1 1.4 -0.3
v 1.1 1.4 -0.4
v -0.3 0.4 0.8
v -0.3 0.8 0.8
v -0.2 0.8 0.8
v -0.2 1.1 0.8
v -0.0999999 1.1 0.8
v -0.0999999 1.2 0.8
v -0.0999999 1.4 0.8
v 5.96046e-08 1.2 0.8
v 5.96046e-08 1.3 0.8
v 0.2 1.1 0.8
v 0.2 1.2 0.8
v 0.2 1.3 0.8
v 0.2 1.4 0.8
v 0.3 0.5 0.8
v 0.3 0.6 0.8
v 0.3 1.1 0.8
v 0.3 1.2 0.8
v 0.5 0.5 0.8
v 0.5 0.6 0.8
v 0.6 1.1 0.8
v 0.6 1.4 0.8
v 0.7 0.8 0.8
v 0.7 1.1 0.8
v 0.8 0.4 0.8
v 0.8 0.8 0.8
v -0.4 0.4 0.7
v -0.4 0.6 0.7
v -0.4 0.8 0.7
v -0.3 0.2 0.7
v -0.3 0.4 0.7
v -0.3 0.6 0.7
v -0.3 0.8 0.7
v -0.3 1 0.7
v -0.3 1.1 0.7
v -0.2 0.3 0.7
v -0.2 0.4 0.7
v -0.2 0.8 0.7
v -0.2 1 0.7
v -0.2 1.1 0.7
v -0.2 1.3 0.7
v -0.2 1.4 0.7
v -0.0999999 1.1 0.7
v -0.0999999 1.2 0.7
v -0.0999999 1.3 0.7
v -0.0999999 1.4 0.7
v 5.96046e-08 0.2 0.7
v 5.96046e-08 0.3 0.7
v 5.96046e-08 1.4 0.7
v 5.96046e-08 1.5 0.7
v 0.1 1.4 0.7
v 0.1 1.5 0.7
v 0.1 1.6 0.7
v 0.2 1.4 0.7
v 0.2 1.5 0.7
v 0.2 1.6 0.7
v 0.3 1.4 0.7
v 0.3 1.5 0.7
v 0.4 1.4 0.7
v 0.4 1.5 0.7
v 0.4 1.6 0.7
v 0.5 1.4 0.7
v 0.5 1.5 0.7
v 0.6 1.1 0.7
v 0.6 1.4 0.7
v 0.7 0.8 0.7
v 0.7 1.1 0.7
v 0.7 1.4 0.7
v 0.8 0.2 0.7
v 0.8 0.4 0.7
v 0.8 0.8 0.7
v 0.8 1.1 0.7
v 0.9 0.4 0.7
v 0.9 0.8 0.7
v -0.5 0.4 0.6
v -0.5 0.8 0.6
v -0.4 0.2 0.6
v -0.4 0.4 0.6
v -0.4 0.6 0.6
v -0.4 0.8 0.6
v -0.4 1.1 0.6
v -0.3 0.1 0.6
v -0.3 0.2 0.6
v -0.3 0.4 0.6
v -0.3 0.8 0.6
v -0.3 1 0.6
v -0.3 1.1 0.6
v -0.3 1.4 0.6
v -0.2 1.1 0.6
v -0.2 1.3 0.6
v -0.2 1.4 0.6
v -0.0999999 0.1 0.6
v -0.0999999 0.2 0.6
v -0.0999999 1.4 0.6
v -0.0999999 1.5 0.6
v 5.96046e-08 0.2 0.6
v 5.96046e-08 1.4 0.6
v 5.96046e-08 1.5 0.6
v 5.96046e-08 1.6 0.6
v 0.1 1.5 0.6
v 0.1 1.6 0.6
v 0.1 1.7 0.6
v 0.2 0.1 0.6
v 0.2 0.2 0.6
v 0.2 1.6 0.6
v 0.4 1.5 0.6
v 0.4 1.6 0.6
v 0.4 1.7 0.6
v 0.5 1.4 0.6
v 0.5 1.5 0.6
v 0.5 1.6 0.6
v 0.6 1.4 0.6
v 0.6 1.5 0.6
v 0.7 1.1 0.6
v 0.7 1.4 0.6
v 0.8 0.1 0.6
v 0.8 0.2 0.6
v 0.8 0.3 0.6
v 0.8 0.4 0.6
v 0.8 0.8 0.6
v 0.8 1.1 0.6
v 0.8 1.4 0.6
v 0.9 0.2 0.6
v 0.9 0.3 0.6
v 0.9 0.4 0.6
v 0.9 0.5 0.6
v 0.9 0.8 0.6
v 0.9 1.1 0.6
v 1 0.4 0.6
v 1 0.5 0.6
v 1 0.8 0.6
v -0.6 0.4 0.5
v -0.6 0.8 0.5
v -0.5 0.2 0.5
v -0.5 0.3 0.5
v -0.5 0.4 0.5
v -0.5 0.8 0.5
v -0.5 1 0.5
v -0.5 1.1 0.5
v -0.4 0.1 0.5
v -0.4 0.2 0.5
v -0.4 0.3 0.5
v -0.4 0.4 0.5
v -0.4 0.8 0.5
v -0.4 1 0.5
v -0.4 1.1 0.5
v -0.4 1.4 0.5
v -0.3 0 0.5
v -0.3 0.1 0.5
v -0.3 0.2 0.5
v -0.3 1.1 0.5
v -0.3 1.4 0.5
v -0.2 1.4 0.5
v -0.2 1.5 0.5
v -0.0999999 0.1 0.5
v -0.0999999 1.4 0.5
v -0.0999999 1.5 0.5
v -0.0999999 1.6 0.5
v 5.96046e-08 1.5 0.5
v 5.96046e-08 1.6 0.5
v 5.96046e-08 1.7 0.5
v 0.1 0 0.5
v 0.1 0.1 0.5
v 0.1 1.6 0.5
v 0.1 1.7 0.5
v 0.1 1.8 0.5
v 0.2 0.1 0.5
v 0.4 0 0.5
v 0.4 0.1 0.5
v 0.4 1.6 0.5
v 0.4 1.7 0.5
v 0.4 1.8 0.5
v 0.5 1.5 0.5
v 0.5 1.6 0.5
v 0.5 1.7 0.5
v 0.6 1.4 0.5
v 0.6 1.5 0.5
v 0.6 1.6 0.5
v 0.7 1.4 0.5
v 0.7 1.5 0.5
v 0.8 0 0.5
v 0.8 0.1 0.5
v 0.8 0.2 0.5
v 0.8 1.1 0.5
v 0.8 1.4 0.5
v 0.9 0.1 0.5
v 0.9 0.2 0.5
v 0.9 0.3 0.5
v 0.9 0.4 0.5
v 0.9 0.8 0.5
v 0.9 1 0.5
v 0.9 1.1 0.5
v 0.9 1.4 0.5
v 1 0.2 0.5
v 1 0.3 0.5
v 1 0.4 0.5
v 1 0.5 0.5
v 1 0.8 0.5
v 1 1 0.5
v 1 1.1 0.5
v 1.1 0.4 0.5
v 1.1 0.8 0.5
v -0.6 0.8 0.4
v -0.6 0.9 0.4
v -0.6 1.1 0.4
v -0.5 0.8 0.4
v -0.5 0.9 0.4
v -0.5 1 0.4
v -0.5 1.1 0.4
v -0.5 1.2 0.4
v -0.5 1.4 0.4
v -0.4 1.1 0.4
v -0.4 1.2 0.4
v -0.4 1.4 0.4
v -0.3 1.4 0.4
v -0.3 1.5 0.4
v -0.2 1.4 0.4
v -0.2 1.5 0.4
v -0.2 1.6 0.4
v -0.0999999 1.5 0.4
v -0.0999999 1.6 0.4
v -0.0999999 1.7 0.4
v 5.96046e-08 1.6 0.4
v 5.96046e-08 1.7 0.4
v 5.96046e-08 1.8 0.4
v 0.1 1.7 0.4
v 0.1 1.8 0.4
v 0.2 1.8 0.4
v 0.2 1.9 0.4
v 0.3 1.8 0.4
v 0.3 1.9 0.4
v 0.4 1.7 0.4
v 0.4 1.8 0.4
v 0.5 1.6 0.4
v 0.5 1.7 0.4
v 0.5 1.8 0.4
v 0.6 1.5 0.4
v 0.6 1.6 0.4
v 0.6 1.7 0.4
v 0.7 1.4 0.4
v 0.7 1.5 0.4
v 0.7 1.6 0.4
v 0.8 1.4 0.4
v 0.8 1.5 0.4
v 0.9 1.1 0.4
v 0.9 1.4 0.4
v 1 0.8 0.4
v 1 0.9 0.4
v 1 1 0.4
v 1 1.1 0.4
v 1 1.4 0.4
v 1.1 0.8 0.4
v 1.1 0.9 0.4
v 1.1 1.1 0.4
v -0.6 1.1 0.3
v -0.6 1.4 0.3
v -0.5 1.1 0.3
v -0.5 1.2 0.3
v -0.5 1.4 0.3
v -0.4 1.4 0.3
v -0.4 1.5 0.3
v -0.3 1.4 0.3
v -0.3 1.5 0.3
v -0.3 1.6 0.3
v -0.2 1.5 0.3
v -0.2 1.6 0.3
v -0.2 1.7 0.3
v -0.0999999 1.6 0.3
v -0.0999999 1.7 0.3
v -0.0999999 1.8 0.3
v 5.96046e-08 1.7 0.3
v 5.96046e-08 1.8 0.3
v 0.5 1.7 0.3
v 0.5 1.8 0.3
v 0.6 1.6 0.3
v 0.6 1.7 0.3
v 0.6 1.8 0.3
v 0.7 1.5 0.3
v 0.7 1.6 0.3
v 0.7 1.7 0.3
v 0.8 1.4 0.3
v 0.8 1.5 0.3
v 0.8 1.6 0.3
v 0.9 1.4 0.3
v 0.9 1.5 0.3
v 1 1.1 0.3
v 1 1.4 0.3
v 1.1 1.1 0.3
v 1.1 1.4 0.3
v -0.5 1.4 0.2
v -0.5 1.5 0.2
v -0.4 1.4 0.2
v -0.4 1.5 0.2
v -0.4 1.6 0.2
v -0.3 1.5 0.2
v -0.3 1.6 0.2
v -0.3 1.7 0.2
v -0.2 1.6 0.2
v -0.2 1.7 0.2
v -0.2 1.8 0.2
v -0.0999999 1.7 0.2
v -0.0999999 1.8 0.2
v 5.96046e-08 1.8 0.2
v 5.96046e-08 1.9 0.2
v 0.2 1.8 0.2
v 0.2 1.9 0.2
v 0.2 2 0.2
v 0.3 1.8 0.2
v 0.3 1.9 0.2
v 0.3 2 0.2
v 0.4 1.8 0.2
v 0.4 1.9 0.2
v 0.6 1.7 0.2
v 0.6 1.8 0.2
v 0.7 1.6 0.2
v 0.7 1.7 0.2
v 0.7 1.8 0.2
v 0.8 1.5 0.2
v 0.8 1.6 0.2
v 0.8 1.7 0.2
v 0.9 1.4 0.2
v 0.9 1.5 0.2
v 0.9 1.6 0.2
v 1 1.4 0.2
v 1 1.5 0.2
v -0.5 1.5 0.1
v -0.5 1.6 0.1
v -0.4 1.5 0.1
v -0.4 1.6 0.1
v -0.4 1.7 0.1
v -0.3 1.6 0.1
v -0.3 1.7 0.1
v -0.3 1.8 0.1
v -0.2 1.7 0.1
v -0.2 1.8 0.1
v 0.1 1.9 0.1
v 0.1 2 0.1
v 0.2 1.9 0.1
v 0.2 2 0.1
v 0.2 2.1 0.1
v 0.3 1.9 0.1
v 0.3 2 0.1
v 0.3 2.1 0.1
v 0.4 1.8 0.1
v 0.4 1.9 0.1
v 0.4 2 0.1
v 0.5 1.8 0.1
v 0.5 1.9 0.1
v 0.7 1.7 0.1
v 0.7 1.8 0.1
v 0.8 1.6 0.1
v 0.8 1.7 0.1
v 0.8 1.8 0.1
v 0.9 1.5 0.1
v 0.9 1.6 0.1
v 0.9 1.7 0.1
v 1 1.5 0.1
v 1 1.6 0.1
v -0.2 1.8 -5.96046e-08
v -0.2 1.9 -5.96046e-08
v 5.96046e-08 1.8 -5.96046e-08
v 5.96046e-08 1.9 -5.96046e-08
v 5.96046e-08 2 -5.96046e-08
v 0.1 1.9 -5.96046e-08
v 0.1 2 -5.96046e-08
v 0.1 2.1 -5.96046e-08
v 0.2 2 -5.96046e-08
v 0.2 2.1 -5.96046e-08
v 0.2 2.2 -5.96046e-08
v 0.3 2 -5.96046e-08
v 0.3 2.1 -5.96046e-08
v 0.3 2.2 -5.96046e-08
v 0.4 1.9 -5.96046e-08
v 0.4 2 -5.96046e-08
v 0.4 2.1 -5.96046e-08
v 0.5 1.8 -5.96046e-08
v 0.5 1.9 -5.96046e-08
v 0.5 2 -5.96046e-08
v 0.7 1.8 -5.96046e-08
v 0.7 1.9 -5.96046e-08
v -0.2 1.8 -0.1
v -0.2 1.9 -0.1
v 5.96046e-08 1.8 -0.1
v 5.96046e-08 1.9 -0.1
v 5.96046e-08 2 -0.1
v 0.1 1.9 -0.1
v 0.1 2 -0.1
v 0.1 2.1 -0.1
v 0.2 2 -0.1
v 0.2 2.1 -0.1
v 0.2 2.2 -0.1
v 0.3 2 -0.1
v 0.3 2.1 -0.1
v 0.3 2.2 -0.1
v 0.4 1.9 -0.1
v 0.4 2 -0.1
v 0.4 2.1 -0.1
v 0.5 1.8 -0.1
v 0.5 1.9 -0.1
v 0.5 2 -0.1
v 0.7 1.8 -0.1
v 0.7 1.9 -0.1
v -0.5 1.5 -0.2
v -0.5 1.6 -0.2
v -0.4 1.5 -0.2
v -0.4 1.6 -0.2
v -0.4 1.7 -0.2
v -0.3 1.6 -0.2
v -0.3 1.7 -0.2
v -0.3 1.8 -0.2
v -0.2 1.7 -0.2
v -0.2 1.8 -0.2
v 0.1 1.9 -0.2
v 0.1 2 -0.2
v 0.2 1.9 -0.2
v 0.2 2 -0.2
v 0.2 2.1 -0.2
v 0.3 1.9 -0.2
v 0.3 2 -0.2
v 0.3 2.1 -0.2
v 0.4 1.9 -0.2
v 0.4 2 -0.2
v 0.7 1.7 -0.2
v 0.7 1.8 -0.2
v 0.8 1.6 -0.2
v 0.8 1.7 -0.2
v 0.8 1.8 -0.2
v 0.9 1.5 -0.2
v 0.9 1.6 -0.2
v 0.9 1.7 -0.2
v 1 1.5 -0.2
v 1 1.6 -0.2
v -0.5 1.4 -0.3
v -0.5 1.5 -0.3
v -0.4 1.4 -0.3
v -0.4 1.5 -0.3
v -0.4 1.6 -0.3
v -0.3 1.5 -0.3
v -0.3 1.6 -0.3
v -0.3 1.7 -0.3
v -0.2 1.6 -0.3
v -0.2 1.7 -0.3
v -0.2 1.8 -0.3
v -0.0999999 1.7 -0.3
v -0.0999999 1.8 -0.3
v 5.96046e-08 1.8 -0.3
v 5.96046e-08 1.9 -0.3
v 0.2 1.8 -0.3
v 0.2 1.9 -0.3
v 0.2 2 -0.3
v 0.3 1.8 -0.3
v 0.3 1.9 -0.3
v 0.3 2 -0.3
v 0.5 1.8 -0.3
v 0.5 1.9 -0.3
v 0.6 1.7 -0.3
v 0.6 1.8 -0.3
v 0.7 1.6 -0.3
v 0.7 1.7 -0.3
v 0.7 1.8 -0.3
v 0.8 1.5 -0.3
v 0.8 1.6 -0.3
v 0.8 1.7 -0.3
v 0.9 1.4 -0.3
v 0.9 1.5 -0.3
v 0.9 1.6 -0.3
v 1 1.4 -0.3
v 1 1.5 -0.3
v -0.6 1.1 -0.4
v -0.6 1.4 -0.4
v -0.5 1.1 -0.4
v -0.5 1.4 -0.4
v -0.4 1.4 -0.4
v -0.4 1.5 -0.4
v -0.3 1.4 -0.4
v -0.3 1.5 -0.4
v -0.3 1.6 -0.4
v -0.2 1.5 -0.4
v -0.2 1.6 -0.4
v -0.2 1.7 -0.4
v -0.0999999 1.6 -0.4
v -0.0999999 1.7 -0.4
v -0.0999999 1.8 -0.4
v 5.96046e-08 1.7 -0.4
v 5.96046e-08 1.8 -0.4
v 0.5 1.7 -0.4
v 0.5 1.8 -0.4
v 0.6 1.6 -0.4
v 0.6 1.7 -0.4
v 0.6 1.8 -0.4
v 0.7 1.5 -0.4
v 0.7 1.6 -0.4
v 0.7 1.7 -0.4
v 0.8 1.4 -0.4
v 0.8 1.5 -0.4
v 0.8 1.6 -0.4
v 0.9 1.4 -0.4
v 0.9 1.5 -0.4
v 1 1.1 -0.4
v 1 1.3 -0.4
v 1 1.4 -0.4
v 1.1 1.1 -0.4
v 1.1 1.3 -0.4
v 1.1 1.4 -0.4
v -0.6 0.8 -0.5
v -0.6 1.1 -0.5
v -0.5 0.8 -0.5
v -0.5 1.1 -0.5
v -0.5 1.4 -0.5
v -0.4 1.1 -0.5
v -0.4 1.4 -0.5
v -0.3 1.4 -0.5
v -0.3 1.5 -0.5
v -0.2 1.4 -0.5
v -0.2 1.5 -0.5
v -0.2 1.6 -0.5
v -0.0999999 1.5 -0.5
v -0.0999999 1.6 -0.5
v -0.0999999 1.7 -0.5
v 5.96046e-08 1.6 -0.5
v 5.96046e-08 1.7 -0.5
v 5.96046e-08 1.8 -0.5
v 0.1 1.7 -0.5
v 0.1 1.8 -0.5
v 0.2 1.8 -0.5
v 0.2 1.9 -0.5
v 0.3 1.8 -0.5
v 0.3 1.9 -0.5
v 0.4 1.7 -0.5
v 0.4 1.8 -0.5
v 0.5 1.6 -0.5
v 0.5 1.7 -0.5
v 0.5 1.8 -0.5
v 0.6 1.5 -0.5
v 0.6 1.6 -0.5
v 0.6 1.7 -0.5
v 0.7 1.4 -0.5
v 0.7 1.5 -0.5
v 0.7 1.6 -0.5
v 0.8 1.4 -0.5
v 0.8 1.5 -0.5
v 0.9 1.1 -0.5
v 0.9 1.4 -0.5
v 1 0.8 -0.5
v 1 0.9 -0.5
v 1 1.1 -0.5
v 1 1.4 -0.5
v 1.1 0.8 -0.5
v 1.1 1.1 -0.5
v -0.6 0.4 -0.6
v -0.6 0.8 -0.6
v -0.5 0.2 -0.6
v -0.5 0.4 -0.6
v -0.5 0.8 -0.6
v -0.5 1.1 -0.6
v -0.4 0.1 -0.6
v -0.4 0.2 -0.6
v -0.4 0.4 -0.6
v -0.4 0.8 -0.6
v -0.4 1.1 -0.6
v -0.4 1.4 -0.6
v -0.3 0 -0.6
v -0.3 0.1 -0.6
v -0.3 0.2 -0.6
v -0.3 1.1 -0.6
v -0.3 1.4 -0.6
v -0.2 1.4 -0.6
v -0.2 1.5 -0.6
v -0.0999999 0 -0.6
v -0.0999999 0.1 -0.6
v -0.0999999 1.4 -0.6
v -0.0999999 1.5 -0.6
v -0.0999999 1.6 -0.6
v 5.96046e-08 1.5 -0.6
v 5.96046e-08 1.6 -0.6
v 5.96046e-08 1.7 -0.6
v 0.1 0.1 -0.6
v 0.1 1.6 -0.6
v 0.1 1.7 -0.6
v 0.1 1.8 -0.6
v 0.2 0 -0.6
v 0.2 0.1 -0.6
v 0.2 1.7 -0.6
v 0.3 1.7 -0.6
v 0.3 1.8 -0.6
v 0.4 1.6 -0.6
v 0.4 1.7 -0.6
v 0.4 1.8 -0.6
v 0.5 0.1 -0.6
v 0.5 1.5 -0.6
v 0.5 1.6 -0.6
v 0.5 1.7 -0.6
v 0.6 1.4 -0.6
v 0.6 1.5 -0.6
v 0.6 1.6 -0.6
v 0.7 1.4 -0.6
v 0.7 1.5 -0.6
v 0.8 0 -0.6
v 0.8 0.1 -0.6
v 0.8 0.2 -0.6
v 0.8 1.1 -0.6
v 0.8 1.4 -0.6
v 0.9 0.1 -0.6
v 0.9 0.2 -0.6
v 0.9 0.3 -0.6
v 0.9 0.4 -0.6
v 0.9 0.8 -0.6
v 0.9 0.9 -0.6
v 0.9 1.1 -0.6
v 0.9 1.4 -0.6
v 1 0.2 -0.6
v 1 0.3 -0.6
v 1 0.4 -0.6
v 1 0.5 -0.6
v 1 0.7 -0.6
v 1 0.8 -0.6
v 1 0.9 -0.6
v 1 1.1 -0.6
v 1.1 0.4 -0.6
v 1.1 0.5 -0.6
v 1.1 0.7 -0.6
v 1.1 0.8 -0.6
v -0.5 0.4 -0.7
v -0.5 0.8 -0.7
v -0.4 0.2 -0.7
v -0.4 0.4 -0.7
v -0.4 0.5 -0.7
v -0.4 0.7 -0.7
v -0.4 0.8 -0.7
v -0.4 1.1 -0.7
v -0.3 0.1 -0.7
v -0.3 0.2 -0.7
v -0.3 0.4 -0.7
v -0.3 0.8 -0.7
v -0.3 1.1 -0.7
v -0.3 1.4 -0.7
v -0.2 1.1 -0.7
v -0.2 1.4 -0.7
v -0.0999999 1.4 -0.7
v -0.0999999 1.5 -0.7
v 5.96046e-08 1.4 -0.7
v 5.96046e-08 1.5 -0.7
v 5.96046e-08 1.6 -0.7
v 0.1 0.1 -0.7
v 0.1 0.2 -0.7
v 0.1 1.5 -0.7
v 0.1 1.6 -0.7
v 0.1 1.7 -0.7
v 0.2 1.6 -0.7
v 0.2 1.7 -0.7
v 0.3 1.6 -0.7
v 0.4 0.2 -0.7
v 0.4 1.5 -0.7
v 0.4 1.6 -0.7
v 0.4 1.7 -0.7
v 0.5 0.1 -0.7
v 0.5 0.2 -0.7
v 0.5 1.4 -0.7
v 0.5 1.5 -0.7
v 0.5 1.6 -0.7
v 0.6 1.4 -0.7
v 0.6 1.5 -0.7
v 0.7 1.1 -0.7
v 0.7 1.3 -0.7
v 0.7 1.4 -0.7
v 0.8 0.1 -0.7
v 0.8 0.2 -0.7
v 0.8 0.3 -0.7
v 0.8 0.4 -0.7
v 0.8 0.8 -0.7
v 0.8 0.9 -0.7
v 0.8 1.1 -0.7
v 0.8 1.4 -0.7
v 0.9 0.2 -0.7
v 0.9 0.4 -0.7
v 0.9 0.6 -0.7
v 0.9 0.7 -0.7
v 0.9 0.8 -0.7
v 0.9 0.9 -0.7
v 0.9 1.1 -0.7
v 1 0.4 -0.7
v 1 0.8 -0.7
v -0.4 0.4 -0.8
v -0.4 0.5 -0.8
v -0.4 0.7 -0.8
v -0.4 0.8 -0.8
v -0.3 0.2 -0.8
v -0.3 0.4 -0.8
v -0.3 0.5 -0.8
v -0.3 0.6 -0.8
v -0.3 0.7 -0.8
v -0.3 0.8 -0.8
v -0.3 1.1 -0.8
v -0.2 0.8 -0.8
v -0.2 1.1 -0.8
v -0.2 1.4 -0.8
v -0.0999999 1.1 -0.8
v -0.0999999 1.4 -0.8
v 5.96046e-08 1.4 -0.8
v 5.96046e-08 1.5 -0.8
v 0.1 1.5 -0.8
v 0.1 1.6 -0.8
v 0.3 1.5 -0.8
v 0.3 1.6 -0.8
v 0.4 0.2 -0.8
v 0.4 0.3 -0.8
v 0.4 1.4 -0.8
v 0.4 1.5 -0.8
v 0.4 1.6 -0.8
v 0.5 1.4 -0.8
v 0.5 1.5 -0.8
v 0.6 1.1 -0.8
v 0.6 1.2 -0.8
v 0.6 1.3 -0.8
v 0.6 1.4 -0.8
v 0.7 0.8 -0.8
v 0.7 0.9 -0.8
v 0.7 1 -0.8
v 0.7 1.1 -0.8
v 0.7 1.3 -0.8
v 0.7 1.4 -0.8
v 0.8 0.2 -0.8
v 0.8 0.3 -0.8
v 0.8 0.4 -0.8
v 0.8 0.6 -0.8
v 0.8 0.7 -0.8
v 0.8 0.8 -0.8
v 0.8 0.9 -0.8
v 0.8 1.1 -0.8
v 0.9 0.4 -0.8
v 0.9 0.6 -0.8
v 0.9 0.7 -0.8
v 0.9 0.8 -0.8
v -0.3 0.4 -0.9
v -0.3 0.5 -0.9
v -0.3 0.6 -0.9
v -0.3 0.8 -0.9
v -0.2 0.5 -0.9
v -0.2 0.6 -0.9
v -0.2 0.8 -0.9
v -0.2 1.1 -0.9
v -0.0999999 1.1 -0.9
v -0.0999999 1.4 -0.9
v 0.1 0.7 -0.9
v 0.1 0.8 -0.9
v 0.2 0.7 -0.9
v 0.2 0.8 -0.9
v 0.5 1.2 -0.9
v 0.5 1.4 -0.9
v 0.6 1 -0.9
v 0.6 1.1 -0.9
v 0.6 1.2 -0.9
v 0.6 1.4 -0.9
v 0.7 0.8 -0.9
v 0.7 1 -0.9
v 0.7 1.1 -0.9
v 0.8 0.4 -0.9
v 0.8 0.8 -0.9
v -0.3 0 0.5
v 0.1 0 0.5
v 0.4 0 0.5
v 0.8 0 0.5
v 0.1 0 0.4
v 0.3 0 0.4
v 0.4 0 0.4
v 0.5 0 0.4
v 0.3 0 0.3
v 0.4 0 0.3
v 0.5 0 0.3
v 0.6 0 0.3
v 0.1 0 0.2
v 0.2 0 0.2
v 0.4 0 0.2
v 0.5 0 0.2
v 0.6 0 0.2
v 0.7 0 0.2
v 0.1 0 0.1
v 0.2 0 0.1
v 0.5 0 0.1
v 0.6 0 0.1
v 0.7 0 0.1
v 0.8 0 0.1
v -0.3 0 -0.1
v -0.2 0 -0.1
v 0.6 0 -0.1
v 0.7 0 -0.1
v -0.2 0 -0.2
v -0.0999999 0 -0.2
v 0.7 0 -0.2
v 0.8 0 -0.2
v -0.3 0 -0.3
v -0.2 0 -0.3
v -0.0999999 0 -0.4
v 5.96046e-08 0 -0.4
v -0.2 0 -0.5
v -0.0999999 0 -0.5
v 5.96046e-08 0 -0.5
v 0.2 0 -0.5
v -0.3 0 -0.6
v -0.0999999 0 -0.6
v 0.2 0 -0.6
v 0.8 0 -0.6
v -0.3 0.1 0.6
v -0.0999999 0.1 0.6
v 0.2 0.1 0.6
v 0.8 0.1 0.6
v -0.4 0.1 0.5
v -0.3 0.1 0.5
v -0.0999999 0.1 0.5
v 0.1 0.1 0.5
v 0.2 0.1 0.5
v 0.4 0.1 0.5
v 0.8 0.1 0.5
v 0.9 0.1 0.5
v -0.4 0.1 0.1
v -0.3 0.1 0.1
v 0.8 0.1 0.1
v -0.3 0.1 -0.1
v 0.8 0.1 -0.1
v 0.9 0.1 -0.1
v -0.4 0.1 -0.2
v -0.3 0.1 -0.2
v 0.8 0.1 -0.2
v -0.3 0.1 -0.3
v 0.8 0.1 -0.4
v 0.9 0.1 -0.4
v -0.4 0.1 -0.6
v -0.3 0.1 -0.6
v -0.0999999 0.1 -0.6
v 0.1 0.1 -0.6
v 0.2 0.1 -0.6
v 0.5 0.1 -0.6
v 0.8 0.1 -0.6
v 0.9 0.1 -0.6
v -0.3 0.1 -0.7
v 0.1 0.1 -0.7
v 0.5 0.1 -0.7
v 0.8 0.1 -0.7
v -0.3 0.2 0.7
v 5.96046e-08 0.2 0.7
v 0.8 0.2 0.7
v -0.4 0.2 0.6
v -0.3 0.2 0.6
v -0.0999999 0.2 0.6
v 5.96046e-08 0.2 0.6
v 0.2 0.2 0.6
v 0.8 0.2 0.6
v 0.9 0.2 0.6
v -0.5 0.2 0.5
v -0.4 0.2 0.5
v -0.3 0.2 0.5
v 0.8 0.2 0.5
v 0.9 0.2 0.5
v 1 0.2 0.5
v 0.9 0.2 0.4
v 1 0.2 0.4
v -0.5 0.2 0.3
v -0.4 0.2 0.3
v -0.4 0.2 0.1
v -0.5 0.2 -5.96046e-08
v -0.4 0.2 -5.96046e-08
v 0.9 0.2 -0.1
v -0.4 0.2 -0.2
v 0.9 0.2 -0.3
v 1 0.2 -0.3
v 0.9 0.2 -0.4
v 0.9 0.2 -0.5
v 1 0.2 -0.5
v -0.5 0.2 -0.6
v -0.4 0.2 -0.6
v -0.3 0.2 -0.6
v 0.8 0.2 -0.6
v 0.9 0.2 -0.6
v 1 0.2 -0.6
v -0.4 0.2 -0.7
v -0.3 0.2 -0.7
v 0.1 0.2 -0.7
v 0.4 0.2 -0.7
v 0.5 0.2 -0.7
v 0.8 0.2 -0.7
v 0.9 0.2 -0.7
v -0.3 0.2 -0.8
v 0.4 0.2 -0.8
v 0.8 0.2 -0.8
v -0.3 0.4 0.8
v 0.8 0.4 0.8
v -0.4 0.4 0.7
v -0.3 0.4 0.7
v -0.2 0.4 0.7
v 0.8 0.4 0.7
v 0.9 0.4 0.7
v -0.5 0.4 0.6
v -0.4 0.4 0.6
v -0.3 0.4 0.6
v 0.8 0.4 0.6
v 0.9 0.4 0.6
v 1 0.4 0.6
v -0.6 0.4 0.5
v -0.5 0.4 0.5
v -0.4 0.4 0.5
v 0.9 0.4 0.5
v 1 0.4 0.5
v 1.1 0.4 0.5
v -0.6 0.4 0.4
v -0.5 0.4 0.4
v -0.5 0.4 0.2
v 1 0.4 -0.4
v 1 0.4 -0.5
v 1.1 0.4 -0.5
v -0.6 0.4 -0.6
v -0.5 0.4 -0.6
v -0.4 0.4 -0.6
v 0.9 0.4 -0.6
v 1 0.4 -0.6
v 1.1 0.4 -0.6
v -0.5 0.4 -0.7
v -0.4 0.4 -0.7
v -0.3 0.4 -0.7
v 0.8 0.4 -0.7
v 0.9 0.4 -0.7
v 1 0.4 -0.7
v -0.4 0.4 -0.8
v -0.3 0.4 -0.8
v 0.8 0.4 -0.8
v 0.9 0.4 -0.8
v -0.3 0.4 -0.9
v 0.8 0.4 -0.9
v -0.3 0.8 0.8
v -0.2 0.8 0.8
v 0.7 0.8 0.8
v 0.8 0.8 0.8
v -0.4 0.8 0.7
v -0.3 0.8 0.7
v -0.2 0.8 0.7
v 0.7 0.8 0.7
v 0.8 0.8 0.7
v 0.9 0.8 0.7
v -0.5 0.8 0.6
v -0.4 0.8 0.6
v -0.3 0.8 0.6
v 0.8 0.8 0.6
v 0.9 0.8 0.6
v 1 0.8 0.6
v -0.6 0.8 0.5
v -0.5 0.8 0.5
v -0.4 0.8 0.5
v 0.9 0.8 0.5
v 1 0.8 0.5
v 1.1 0.8 0.5
v -0.6 0.8 0.4
v -0.5 0.8 0.4
v 1 0.8 0.4
v 1.1 0.8 0.4
v -0.6 0.8 -0.5
v -0.5 0.8 -0.5
v 1 0.8 -0.5
v 1.1 0.8 -0.5
v -0.6 0.8 -0.6
v -0.5 0.8 -0.6
v -0.4 0.8 -0.6
v 0.9 0.8 -0.6
v 1 0.8 -0.6
v 1.1 0.8 -0.6
v -0.5 0.8 -0.7
v -0.4 0.8 -0.7
v -0.3 0.8 -0.7
v 0.8 0.8 -0.7
v 0.9 0.8 -0.7
v 1 0.8 -0.7
v -0.4 0.8 -0.8
v -0.3 0.8 -0.8
v -0.2 0.8 -0.8
v 0.7 0.8 -0.8
v 0.8 0.8 -0.8
v 0.9 0.8 -0.8
v -0.3 0.8 -0.9
v -0.2 0.8 -0.9
v 0.7 0.8 -0.9
v 0.8 0.8 -0.9
v -0.2 1.1 0.8
v -0.0999999 1.1 0.8
v 0.6 1.1 0.8
v 0.7 1.1 0.8
v -0.3 1.1 0.7
v -0.2 1.1 0.7
v -0.0999999 1.1 0.7
v 0.6 1.1 0.7
v 0.7 1.1 0.7
v 0.8 1.1 0.7
v -0.4 1.1 0.6
v -0.3 1.1 0.6
v -0.2 1.1 0.6
v 0.7 1.1 0.6
v 0.8 1.1 0.6
v 0.9 1.1 0.6
v -0.5 1.1 0.5
v -0.4 1.1 0.5
v -0.3 1.1 0.5
v 0.8 1.1 0.5
v 0.9 1.1 0.5
v 1 1.1 0.5
v -0.6 1.1 0.4
v -0.5 1.1 0.4
v -0.4 1.1 0.4
v 0.9 1.1 0.4
v 1 1.1 0.4
v 1.1 1.1 0.4
v -0.6 1.1 0.3
v -0.5 1.1 0.3
v 1 1.1 0.3
v 1.1 1.1 0.3
v -0.6 1.1 -0.4
v -0.5 1.1 -0.4
v 1 1.1 -0.4
v 1.1 1.1 -0.4
v -0.6 1.1 -0.5
v -0.5 1.1 -0.5
v -0.4 1.1 -0.5
v 0.9 1.1 -0.5
v 1 1.1 -0.5
v 1.1 1.1 -0.5
v -0.5 1.1 -0.6
v -0.4 1.1 -0.6
v -0.3 1.1 -0.6
v 0.8 1.1 -0.6
v 0.9 1.1 -0.6
v 1 1.1 -0.6
v -0.4 1.1 -0.7
v -0.3 1.1 -0.7
v -0.2 1.1 -0.7
v 0.7 1.1 -0.7
v 0.8 1.1 -0.7
v 0.9 1.1 -0.7
v -0.3 1.1 -0.8
v -0.2 1.1 -0.8
v -0.0999999 1.1 -0.8
v 0.6 1.1 -0.8
v 0.7 1.1 -0.8
v 0.8 1.1 -0.8
v -0.2 1.1 -0.9
v -0.0999999 1.1 -0.9
v 0.6 1.1 -0.9
v 0.7 1.1 -0.9
v -0.0999999 1.4 0.8
v 0.2 1.4 0.8
v 0.6 1.4 0.8
v -0.2 1.4 0.7
v -0.0999999 1.4 0.7
v 5.96046e-08 1.4 0.7
v 0.1 1.4 0.7
v 0.2 1.4 0.7
v 0.3 1.4 0.7
v 0.4 1.4 0.7
v 0.5 1.4 0.7
v 0.6 1.4 0.7
v 0.7 1.4 0.7
v -0.3 1.4 0.6
v -0.2 1.4 0.6
v -0.0999999 1.4 0.6
v 5.96046e-08 1.4 0.6
v 0.5 1.4 0.6
v 0.6 1.4 0.6
v 0.7 1.4 0.6
v 0.8 1.4 0.6
v -0.4 1.4 0.5
v -0.3 1.4 0.5
v -0.2 1.4 0.5
v -0.0999999 1.4 0.5
v 0.6 1.4 0.5
v 0.7 1.4 0.5
v 0.8 1.4 0.5
v 0.9 1.4 0.5
v -0.5 1.4 0.4
v -0.4 1.4 0.4
v -0.3 1.4 0.4
v -0.2 1.4 0.4
v 0.7 1.4 0.4
v 0.8 1.4 0.4
v 0.9 1.4 0.4
v 1 1.4 0.4
v -0.6 1.4 0.3
v -0.5 1.4 0.3
v -0.4 1.4 0.3
v -0.3 1.4 0.3
v 0.8 1.4 0.3
v 0.9 1.4 0.3
v 1 1.4 0.3
v 1.1 1.4 0.3
v -0.5 1.4 0.2
v -0.4 1.4 0.2
v 0.9 1.4 0.2
v 1 1.4 0.2
v -0.6 1.4 0.1
v -0.5 1.4 0.1
v 1 1.4 0.1
v 1.1 1.4 0.1
v -0.5 1.4 -5.96046e-08
v 1 1.4 -5.96046e-08
v -0.5 1.4 -0.3
v -0.4 1.4 -0.3
v 0.9 1.4 -0.3
v 1 1.4 -0.3
v 1.1 1.4 -0.3
v -0.6 1.4 -0.4
v -0.5 1.4 -0.4
v -0.4 1.4 -0.4
v -0.3 1.4 -0.4
v 0.8 1.4 -0.4
v 0.9 1.4 -0.4
v 1 1.4 -0.4
v 1.1 1.4 -0.4
v -0.5 1.4 -0.5
v -0.4 1.4 -0.5
v -0.3 1.4 -0.5
v -0.2 1.4 -0.5
v 0.7 1.4 -0.5
v 0.8 1.4 -0.5
v 0.9 1.4 -0.5
v 1 1.4 -0.5
v -0.4 1.4 -0.6
v -0.3 1.4 -0.6
v -0.2 1.4 -0.6
v -0.0999999 1.4 -0.6
v 0.6 1.4 -0.6
v 0.7 1.4 -0.6
v 0.8 1.4 -0.6
v 0.9 1.4 -0.6
v -0.3 1.4 -0.7
v -0.2 1.4 -0.7
v -0.0999999 1.4 -0.7
v 5.96046e-08 1.4 -0.7
v 0.5 1.4 -0.7
v 0.6 1.4 -0.7
v 0.7 1.4 -0.7
v 0.8 1.4 -0.7
v -0.2 1.4 -0.8
v -0.0999999 1.4 -0.8
v 5.96046e-08 1.4 -0.8
v 0.4 1.4 -0.8
v 0.5 1.4 -0.8
v 0.6 1.4 -0.8
v 0.7 1.4 -0.8
v -0.0999999 1.4 -0.9
v 0.5 1.4 -0.9
v 0.6 1.4 -0.9
v 5.96046e-08 1.5 0.7
v 0.1 1.5 0.7
v 0.4 1.5 0.7
v 0.5 1.5 0.7
v -0.0999999 1.5 0.6
v 5.96046e-08 1.5 0.6
v 0.1 1.5 0.6
v 0.4 1.5 0.6
v 0.5 1.5 0.6
v 0.6 1.5 0.6
v -0.2 1.5 0.5
v -0.0999999 1.5 0.5
v 5.96046e-08 1.5 0.5
v 0.5 1.5 0.5
v 0.6 1.5 0.5
v 0.7 1.5 0.5
v -0.3 1.5 0.4
v -0.2 1.5 0.4
v -0.0999999 1.5 0.4
v 0.6 1.5 0.4
v 0.7 1.5 0.4
v 0.8 1.5 0.4
v -0.4 1.5 0.3
v -0.3 1.5 0.3
v -0.2 1.5 0.3
v 0.7 1.5 0.3
v 0.8 1.5 0.3
v 0.9 1.5 0.3
v -0.5 1.5 0.2
v -0.4 1.5 0.2
v -0.3 1.5 0.2
v 0.8 1.5 0.2
v 0.9 1.5 0.2
v 1 1.5 0.2
v -0.5 1.5 0.1
v -0.4 1.5 0.1
v 0.9 1.5 0.1
v 1 1.5 0.1
v -0.5 1.5 -0.2
v -0.4 1.5 -0.2
v 0.9 1.5 -0.2
v 1 1.5 -0.2
v -0.5 1.5 -0.3
v -0.4 1.5 -0.3
v -0.3 1.5 -0.3
v 0.8 1.5 -0.3
v 0.9 1.5 -0.3
v 1 1.5 -0.3
v -0.4 1.5 -0.4
v -0.3 1.5 -0.4
v -0.2 1.5 -0.4
v 0.7 1.5 -0.4
v 0.8 1.5 -0.4
v 0.9 1.5 -0.4
v -0.3 1.5 -0.5
v -0.2 1.5 -0.5
v -0.0999999 1.5 -0.5
v 0.6 1.5 -0.5
v 0.7 1.5 -0.5
v 0.8 1.5 -0.5
v -0.2 1.5 -0.6
v -0.0999999 1.5 -0.6
v 5.96046e-08 1.5 -0.6
v 0.5 1.5 -0.6
v 0.6 1.5 -0.6
v 0.7 1.5 -0.6
v -0.0999999 1.5 -0.7
v 5.96046e-08 1.5 -0.7
v 0.1 1.5 -0.7
v 0.4 1.5 -0.7
v 0.5 1.5 -0.7
v 0.6 1.5 -0.7
v 5.96046e-08 1.5 -0.8
v 0.1 1.5 -0.8
v 0.4 1.5 -0.8
v 0.5 1.5 -0.8
v 0.1 1.6 0.7
v 0.2 1.6 0.7
v 0.4 1.6 0.7
v 5.96046e-08 1.6 0.6
v 0.1 1.6 0.6
v 0.2 1.6 0.6
v 0.4 1.6 0.6
v 0.5 1.6 0.6
v -0.0999999 1.6 0.5
v 5.96046e-08 1.6 0.5
v 0.1 1.6 0.5
v 0.4 1.6 0.5
v 0.5 1.6 0.5
v 0.6 1.6 0.5
v -0.2 1.6 0.4
v -0.0999999 1.6 0.4
v 5.96046e-08 1.6 0.4
v 0.5 1.6 0.4
v 0.6 1.6 0.4
v 0.7 1.6 0.4
v -0.3 1.6 0.3
v -0.2 1.6 0.3
v -0.0999999 1.6 0.3
v 0.6 1.6 0.3
v 0.7 1.6 0.3
v 0.8 1.6 0.3
v -0.4 1.6 0.2
v -0.3 1.6 0.2
v -0.2 1.6 0.2
v 0.7 1.6 0.2
v 0.8 1.6 0.2
v 0.9 1.6 0.2
v -0.5 1.6 0.1
v -0.4 1.6 0.1
v -0.3 1.6 0.1
v 0.8 1.6 0.1
v 0.9 1.6 0.1
v 1 1.6 0.1
v -0.4 1.6 -5.96046e-08
v -0.5 1.6 -0.1
v -0.4 1.6 -0.1
v -0.5 1.6 -0.2
v -0.4 1.6 -0.2
v -0.3 1.6 -0.2
v 0.8 1.6 -0.2
v 0.9 1.6 -0.2
v 1 1.6 -0.2
v -0.4 1.6 -0.3
v -0.3 1.6 -0.3
v -0.2 1.6 -0.3
v 0.7 1.6 -0.3
v 0.8 1.6 -0.3
v 0.9 1.6 -0.3
v -0.3 1.6 -0.4
v -0.2 1.6 -0.4
v -0.0999999 1.6 -0.4
v 0.6 1.6 -0.4
v 0.7 1.6 -0.4
v 0.8 1.6 -0.4
v -0.2 1.6 -0.5
v -0.0999999 1.6 -0.5
v 5.96046e-08 1.6 -0.5
v 0.5 1.6 -0.5
v 0.6 1.6 -0.5
v 0.7 1.6 -0.5
v -0.0999999 1.6 -0.6
v 5.96046e-08 1.6 -0.6
v 0.1 1.6 -0.6
v 0.4 1.6 -0.6
v 0.5 1.6 -0.6
v 0.6 1.6 -0.6
v 5.96046e-08 1.6 -0.7
v 0.1 1.6 -0.7
v 0.2 1.6 -0.7
v 0.3 1.6 -0.7
v 0.4 1.6 -0.7
v 0.5 1.6 -0.7
v 0.1 1.6 -0.8
v 0.3 1.6 -0.8
v 0.4 1.6 -0.8
v 0.1 1.7 0.6
v 0.4 1.7 0.6
v 5.96046e-08 1.7 0.5
v 0.1 1.7 0.5
v 0.4 1.7 0.5
v 0.5 1.7 0.5
v -0.0999999 1.7 0.4
v 5.96046e-08 1.7 0.4
v 0.1 1.7 0.4
v 0.4 1.7 0.4
v 0.5 1.7 0.4
v 0.6 1.7 0.4
v -0.2 1.7 0.3
v -0.0999999 1.7 0.3
v 5.96046e-08 1.7 0.3
v 0.5 1.7 0.3
v 0.6 1.7 0.3
v 0.7 1.7 0.3
v -0.3 1.7 0.2
v -0.2 1.7 0.2
v -0.0999999 1.7 0.2
v 0.6 1.7 0.2
v 0.7 1.7 0.2
v 0.8 1.7 0.2
v -0.4 1.7 0.1
v -0.3 1.7 0.1
v -0.2 1.7 0.1
v 0.7 1.7 0.1
v 0.8 1.7 0.1
v 0.9 1.7 0.1
v -0.4 1.7 -5.96046e-08
v -0.3 1.7 -5.96046e-08
v -0.3 1.7 -0.1
v -0.4 1.7 -0.2
v -0.3 1.7 -0.2
v -0.2 1.7 -0.2
v 0.7 1.7 -0.2
v 0.8 1.7 -0.2
v 0.9 1.7 -0.2
v -0.3 1.7 -0.3
v -0.2 1.7 -0.3
v -0.0999999 1.7 -0.3
v 0.6 1.7 -0.3
v 0.7 1.7 -0.3
v 0.8 1.7 -0.3
v -0.2 1.7 -0.4
v -0.0999999 1.7 -0.4
v 5.96046e-08 1.7 -0.4
v 0.5 1.7 -0.4
v 0.6 1.7 -0.4
v 0.7 1.7 -0.4
v -0.0999999 1.7 -0.5
v 5.96046e-08 1.7 -0.5
v 0.1 1.7 -0.5
v 0.4 1.7 -0.5
v 0.5 1.7 -0.5
v 0.6 1.7 -0.5
v 5.96046e-08 1.7 -0.6
v 0.1 1.7 -0.6
v 0.2 1.7 -0.6
v 0.3 1.7 -0.6
v 0.4 1.7 -0.6
v 0.5 1.7 -0.6
v 0.1 1.7 -0.7
v 0.2 1.7 -0.7
v 0.4 1.7 -0.7
v 0.1 1.8 0.5
v 0.4 1.8 0.5
v 5.96046e-08 1.8 0.4
v 0.1 1.8 0.4
v 0.2 1.8 0.4
v 0.3 1.8 0.4
v 0.4 1.8 0.4
v 0.5 1.8 0.4
v -0.0999999 1.8 0.3
v 5.96046e-08 1.8 0.3
v 0.5 1.8 0.3
v 0.6 1.8 0.3
v -0.2 1.8 0.2
v -0.0999999 1.8 0.2
v 5.96046e-08 1.8 0.2
v 0.2 1.8 0.2
v 0.3 1.8 0.2
v 0.4 1.8 0.2
v 0.6 1.8 0.2
v 0.7 1.8 0.2
v -0.3 1.8 0.1
v -0.2 1.8 0.1
v 0.4 1.8 0.1
v 0.5 1.8 0.1
v 0.7 1.8 0.1
v 0.8 1.8 0.1
v -0.2 1.8 -5.96046e-08
v 5.96046e-08 1.8 -5.96046e-08
v 0.5 1.8 -5.96046e-08
v 0.7 1.8 -5.96046e-08
v -0.3 1.8 -0.1
v -0.2 1.8 -0.1
v 5.96046e-08 1.8 -0.1
v 0.5 1.8 -0.1
v 0.7 1.8 -0.1
v -0.3 1.8 -0.2
v -0.2 1.8 -0.2
v -0.0999999 1.8 -0.2
v 0.7 1.8 -0.2
v 0.8 1.8 -0.2
v -0.2 1.8 -0.3
v -0.0999999 1.8 -0.3
v 5.96046e-08 1.8 -0.3
v 0.2 1.8 -0.3
v 0.3 1.8 -0.3
v 0.5 1.8 -0.3
v 0.6 1.8 -0.3
v 0.7 1.8 -0.3
v -0.0999999 1.8 -0.4
v 5.96046e-08 1.8 -0.4
v 0.1 1.8 -0.4
v 0.5 1.8 -0.4
v 0.6 1.8 -0.4
v 5.96046e-08 1.8 -0.5
v 0.1 1.8 -0.5
v 0.2 1.8 -0.5
v 0.3 1.8 -0.5
v 0.4 1.8 -0.5
v 0.5 1.8 -0.5
v 0.1 1.8 -0.6
v 0.3 1.8 -0.6
v 0.4 1.8 -0.6
v 0.2 1.9 0.4
v 0.3 1.9 0.4
v 5.96046e-08 1.9 0.2
v 0.2 1.9 0.2
v 0.3 1.9 0.2
v 0.4 1.9 0.2
v 0.1 1.9 0.1
v 0.2 1.9 0.1
v 0.3 1.9 0.1
v 0.4 1.9 0.1
v 0.5 1.9 0.1
v -0.2 1.9 -5.96046e-08
v 5.96046e-08 1.9 -5.96046e-08
v 0.1 1.9 -5.96046e-08
v 0.4 1.9 -5.96046e-08
v 0.5 1.9 -5.96046e-08
v 0.7 1.9 -5.96046e-08
v -0.2 1.9 -0.1
v 5.96046e-08 1.9 -0.1
v 0.1 1.9 -0.1
v 0.4 1.9 -0.1
v 0.5 1.9 -0.1
v 0.7 1.9 -0.1
v 0.1 1.9 -0.2
v 0.2 1.9 -0.2
v 0.3 1.9 -0.2
v 0.4 1.9 -0.2
v 5.96046e-08 1.9 -0.3
v 0.2 1.9 -0.3
v 0.3 1.9 -0.3
v 0.5 1.9 -0.3
v 0.2 1.9 -0.5
v 0.3 1.9 -0.5
v 0.2 2 0.2
v 0.3 2 0.2
v 0.1 2 0.1
v 0.2 2 0.1
v 0.3 2 0.1
v 0.4 2 0.1
v 5.96046e-08 2 -5.96046e-08
v 0.1 2 -5.96046e-08
v 0.2 2 -5.96046e-08
v 0.3 2 -5.96046e-08
v 0.4 2 -5.96046e-08
v 0.5 2 -5.96046e-08
v 5.96046e-08 2 -0.1
v 0.1 2 -0.1
v 0.2 2 -0.1
v 0.3 2 -0.1
v 0.4 2 -0.1
v 0.5 2 -0.1
v 0.1 2 -0.2
v 0.2 2 -0.2
v 0.3 2 -0.2
v 0.4 2 -0.2
v 0.2 2 -0.3
v 0.3 2 -0.3
v 0.2 2.1 0.1
v 0.3 2.1 0.1
v 0.1 2.1 -5.96046e-08
v 0.2 2.1 -5.96046e-08
v 0.3 2.1 -5.96046e-08
v 0.4 2.1 -5.96046e-08
v 0.1 2.1 -0.1
v 0.2 2.1 -0.1
v 0.3 2.1 -0.1
v 0.4 2.1 -0.1
v 0.2 2.1 -0.2
v 0.3 2.1 -0.2
v 0.2 2.2 -5.96046e-08
v 0.3 2.2 -5.96046e-08
v 0.2 2.2 -0.1
v 0.3 2.2 -0.1

# faces
f 4/1/1 3/1/1 2/1/1
f 5/1/1 3/1/1 4/1/1
f 6/2/1 2/2/1 1/2/1
f 7/1/1 4/1/1 2/1/1
f 7/2/1 2/2/1 6/2/1
f 8/2/1 5/2/1 4/2/1
f 8/1/1 4/1/1 7/1/1
f 9/1/1 3/1/1 5/1/1
f 9/2/1 5/2/1 8/2/1
f 10/1/1 3/1/1 9/1/1
f 11/1/1 3/1/1 10/1/1
f 12/1/1 8/1/1 7/1/1
f 12/1/1 10/1/1 9/1/1
f 12/1/1 9/1/1 8/1/1
f 13/1/1 10/1/1 12/1/1
f 14/2/1 13/2/1 12/2/1
f 15/1/1 10/1/1 13/1/1
f 15/2/1 13/2/1 14/2/1
f 16/1/1 10/1/1 15/1/1
f 17/1/1 10/1/1 16/1/1
f 18/1/1 10/1/1 17/1/1
f 19/2/1 16/2/1 15/2/1
f 19/1/1 17/1/1 16/1/1
f 20/1/1 17/1/1 19/1/1
f 21/2/1 19/2/1 15/2/1
f 21/2/1 20/2/1 19/2/1
f 22/1/1 17/1/1 20/1/1
f 22/2/1 20/2/1 21/2/1
f 23/1/1 17/1/1 22/1/1
f 28/1/1 25/1/1 24/1/1
f 29/2/1 26/2/1 25/2/1
f 29/1/1 25/1/1 28/1/1
f 30/2/1 26/2/1 29/2/1
f 31/1/1 27/1/1 26/1/1
f 31/2/1 26/2/1 30/2/1
f 33/2/1 30/2/1 29/2/1
f 33/2/1 29/2/1 28/2/1
f 34/2/1 30/2/1 33/2/1
f 35/1/1 31/1/1 30/1/1
f 35/2/1 30/2/1 34/2/1
f 36/1/1 27/1/1 31/1/1
f 36/1/1 31/1/1 35/1/1
f 38/2/1 33/2/1 32/2/1
f 39/2/1 33/2/1 38/2/1
f 42/1/1 37/1/1 36/1/1
f 43/1/1 37/1/1 42/1/1
f 44/2/1 40/2/1 39/2/1
f 45/2/1 44/2/1 39/2/1
f 46/2/1 44/2/1 45/2/1
f 47/1/1 46/1/1 45/1/1
f 48/1/1 46/1/1 47/1/1
f 51/1/1 42/1/1 41/1/1
f 52/1/1 42/1/1 51/1/1
f 53/2/1 49/2/1 48/2/1
f 54/2/1 49/2/1 53/2/1
f 55/1/1 54/1/1 53/1/1
f 56/1/1 54/1/1 55/1/1
f 61/1/1 51/1/1 50/1/1
f 62/1/1 51/1/1 61/1/1
f 63/2/1 58/2/1 57/2/1
f 63/2/1 59/2/1 58/2/1
f 64/2/1 59/2/1 63/2/1
f 65/1/1 60/1/1 59/1/1
f 65/2/1 59/2/1 64/2/1
f 66/1/1 60/1/1 65/1/1
f 67/1/1 60/1/1 66/1/1
f 68/1/1 60/1/1 67/1/1
f 69/2/1 65/2/1 64/2/1
f 69/2/1 66/2/1 65/2/1
f 70/1/1 67/1/1 66/1/1
f 70/2/1 66/2/1 69/2/1
f 71/1/1 67/1/1 70/1/1
f 77/1/1 73/1/1 72/1/1
f 78/1/1 73/1/1 77/1/1
f 79/2/1 74/2/1 73/2/1
f 79/1/1 73/1/1 78/1/1
f 80/2/1 74/2/1 79/2/1
f 81/1/1 75/1/1 74/1/1
f 81/2/1 74/2/1 80/2/1
f 82/1/1 75/1/1 81/1/1
f 84/1/1 77/1/1 76/1/1
f 86/1/1 84/1/1 76/1/1
f 87/1/1 84/1/1 86/1/1
f 88/1/1 83/1/1 82/1/1
f 89/1/1 83/1/1 88/1/1
f 91/1/1 90/1/1 89/1/1
f 92/1/1 90/1/1 91/1/1
f 93/2/1 86/2/1 85/2/1
f 94/2/1 86/2/1 93/2/1
f 95/2/1 92/2/1 91/2/1
f 96/2/1 92/2/1 95/2/1
f 97/1/1 94/1/1 93/1/1
f 98/1/1 94/1/1 97/1/1
f 101/1/1 96/1/1 95/1/1
f 102/1/1 96/1/1 101/1/1
f 103/2/1 99/2/1 98/2/1
f 104/2/1 103/2/1 98/2/1
f 105/2/1 103/2/1 104/2/1
f 108/1/1 101/1/1 100/1/1
f 109/1/1 101/1/1 108/1/1
f 110/1/1 106/1/1 105/1/1
f 111/1/1 110/1/1 105/1/1
f 112/1/1 110/1/1 111/1/1
f 117/1/1 108/1/1 107/1/1
f 118/1/1 108/1/1 117/1/1
f 119/1/1 114/1/1 113/1/1
f 120/1/1 114/1/1 119/1/1
f 123/1/1 116/1/1 115/1/1
f 124/1/1 116/1/1 123/1/1
f 125/1/1 121/1/1 120/1/1
f 126/1/1 121/1/1 125/1/1
f 129/1/1 123/1/1 122/1/1
f 130/1/1 123/1/1 129/1/1
f 131/1/1 127/1/1 126/1/1
f 132/2/1 128/2/1 127/2/1
f 132/1/1 127/1/1 131/1/1
f 132/2/1 129/2/1 128/2/1
f 133/2/1 129/2/1 132/2/1
f 139/1/1 135/1/1 134/1/1
f 140/1/1 135/1/1 139/1/1
f 141/2/1 136/2/1 135/2/1
f 141/1/1 135/1/1 140/1/1
f 142/2/1 136/2/1 141/2/1
f 143/1/1 137/1/1 136/1/1
f 143/2/1 136/2/1 142/2/1
f 144/1/1 137/1/1 143/1/1
f 147/1/1 139/1/1 138/1/1
f 148/1/1 139/1/1 147/1/1
f 149/1/1 145/1/1 144/1/1
f 150/1/1 145/1/1 149/1/1
f 153/2/1 147/2/1 146/2/1
f 154/2/1 147/2/1 153/2/1
f 155/1/1 151/1/1 150/1/1
f 156/1/1 151/1/1 155/1/1
f 158/1/1 157/1/1 156/1/1
f 159/1/1 157/1/1 158/1/1
f 160/1/1 153/1/1 152/1/1
f 161/2/1 159/2/1 158/2/1
f 162/2/1 159/2/1 161/2/1
f 163/1/1 162/1/1 161/1/1
f 164/1/1 160/1/1 152/1/1
f 165/1/1 160/1/1 164/1/1
f 168/1/1 162/1/1 163/1/1
f 169/1/1 162/1/1 168/1/1
f 170/1/1 166/1/1 165/1/1
f 171/1/1 166/1/1 170/1/1
f 172/2/1 171/2/1 170/2/1
f 173/2/1 171/2/1 172/2/1
f 176/1/1 168/1/1 167/1/1
f 177/1/1 168/1/1 176/1/1
f 178/1/1 174/1/1 173/1/1
f 179/1/1 174/1/1 178/1/1
f 184/1/1 176/1/1 175/1/1
f 185/1/1 176/1/1 184/1/1
f 186/1/1 181/1/1 180/1/1
f 187/1/1 181/1/1 186/1/1
f 190/2/1 183/2/1 182/2/1
f 191/2/1 183/2/1 190/2/1
f 192/1/1 188/1/1 187/1/1
f 193/1/1 188/1/1 192/1/1
f 196/1/1 190/1/1 189/1/1
f 197/1/1 190/1/1 196/1/1
f 198/1/1 194/1/1 193/1/1
f 199/1/1 194/1/1 198/1/1
f 202/2/1 196/2/1 195/2/1
f 203/2/1 196/2/1 202/2/1
f 204/1/1 201/1/1 200/1/1
f 204/1/1 200/1/1 199/1/1
f 205/2/1 202/2/1 201/2/1
f 205/1/1 201/1/1 204/1/1
f 206/2/1 202/2/1 205/2/1
f 211/1/1 208/1/1 207/1/1
f 212/1/1 211/1/1 207/1/1
f 213/1/1 211/1/1 212/1/1
f 216/1/1 210/1/1 209/1/1
f 217/1/1 210/1/1 216/1/1
f 218/2/1 214/2/1 213/2/1
f 219/2/1 214/2/1 218/2/1
f 220/1/1 219/1/1 218/1/1
f 221/1/1 219/1/1 220/1/1
f 226/1/1 216/1/1 215/1/1
f 227/1/1 216/1/1 226/1/1
f 228/1/1 223/1/1 222/1/1
f 229/1/1 223/1/1 228/1/1
f 232/2/1 225/2/1 224/2/1
f 233/2/1 225/2/1 232/2/1
f 234/1/1 230/1/1 229/1/1
f 235/1/1 230/1/1 234/1/1
f 238/1/1 232/1/1 231/1/1
f 239/1/1 232/1/1 238/1/1
f 240/1/1 236/1/1 235/1/1
f 241/1/1 236/1/1 240/1/1
f 244/1/1 238/1/1 237/1/1
f 245/1/1 238/1/1 244/1/1
f 246/1/1 242/1/1 241/1/1
f 247/1/1 242/1/1 246/1/1
f 250/2/1 244/2/1 243/2/1
f 251/2/1 244/2/1 250/2/1
f 252/1/1 249/1/1 248/1/1
f 253/1/1 249/1/1 252/1/1
f 258/1/1 255/1/1 254/1/1
f 259/1/1 255/1/1 258/1/1
f 260/2/1 259/2/1 258/2/1
f 261/2/1 260/2/1 258/2/1
f 262/2/1 260/2/1 261/2/1
f 267/1/1 257/1/1 256/1/1
f 268/1/1 257/1/1 267/1/1
f 269/1/1 264/1/1 263/1/1
f 270/1/1 264/1/1 269/1/1
f 273/2/1 266/2/1 265/2/1
f 274/2/1 266/2/1 273/2/1
f 275/1/1 271/1/1 270/1/1
f 276/1/1 271/1/1 275/1/1
f 279/1/1 273/1/1 272/1/1
f 280/1/1 273/1/1 279/1/1
f 281/1/1 277/1/1 276/1/1
f 282/1/1 277/1/1 281/1/1
f 285/1/1 279/1/1 278/1/1
f 286/1/1 279/1/1 285/1/1
f 287/1/1 283/1/1 282/1/1
f 288/1/1 283/1/1 287/1/1
f 289/2/1 285/2/1 284/2/1
f 290/2/1 285/2/1 289/2/1
f 295/1/1 292/1/1 291/1/1
f 296/1/1 292/1/1 295/1/1
f 299/1/1 294/1/1 293/1/1
f 300/1/1 294/1/1 299/1/1
f 301/1/1 297/1/1 296/1/1
f 302/1/1 297/1/1 301/1/1
f 305/1/1 299/1/1 298/1/1
f 306/1/1 299/1/1 305/1/1
f 307/1/1 303/1/1 302/1/1
f 308/1/1 303/1/1 307/1/1
f 311/1/1 305/1/1 304/1/1
f 312/1/1 305/1/1 311/1/1
f 313/1/1 309/1/1 308/1/1
f 314/1/1 309/1/1 313/1/1
f 319/2/1 311/2/1 310/2/1
f 320/2/1 311/2/1 319/2/1
f 321/1/1 316/1/1 315/1/1
f 322/1/1 316/1/1 321/1/1
f 323/1/1 318/1/1 317/1/1
f 324/1/1 318/1/1 323/1/1
f 325/1/1 323/1/1 322/1/1
f 326/1/1 323/1/1 325/1/1
f 331/1/1 328/1/1 327/1/1
f 332/1/1 328/1/1 331/1/1
f 335/1/1 330/1/1 329/1/1
f 336/1/1 330/1/1 335/1/1
f 337/1/1 333/1/1 332/1/1
f 338/1/1 333/1/1 337/1/1
f 341/1/1 335/1/1 334/1/1
f 342/1/1 335/1/1 341/1/1
f 343/1/1 339/1/1 338/1/1
f 344/1/1 339/1/1 343/1/1
f 345/2/1 341/2/1 340/2/1
f 346/2/1 341/2/1 345/2/1
f 351/1/1 348/1/1 347/1/1
f 352/1/1 348/1/1 351/1/1
f 353/1/1 350/1/1 349/1/1
f 354/1/1 350/1/1 353/1/1
f 355/1/1 353/1/1 352/1/1
f 356/1/1 353/1/1 355/1/1
f 361/1/1 358/1/1 357/1/1
f 362/1/1 358/1/1 361/1/1
f 365/1/1 360/1/1 359/1/1
f 366/1/1 360/1/1 365/1/1
f 367/1/1 363/1/1 362/1/1
f 368/1/1 363/1/1 367/1/1
f 371/2/1 365/2/1 364/2/1
f 372/2/1 365/2/1 371/2/1
f 373/1/1 369/1/1 368/1/1
f 374/1/1 369/1/1 373/1/1
f 375/1/1 371/1/1 370/1/1
f 376/1/1 371/1/1 375/1/1
f 377/1/1 375/1/1 374/1/1
f 378/1/1 375/1/1 377/1/1
f 379/1/2 380/1/2 383/1/2
f 383/1/2 380/1/2 384/1/2
f 381/1/2 382/1/2 387/1/2
f 387/1/2 382/1/2 388/1/2
f 384/1/2 385/1/2 389/1/2
f 389/1/2 385/1/2 390/1/2
f 386/2/2 387/2/2 393/2/2
f 393/2/2 387/2/2 394/2/2
f 390/1/2 391/1/2 395/1/2
f 395/1/2 391/1/2 396/1/2
f 392/1/2 393/1/2 397/1/2
f 397/1/2 393/1/2 398/1/2
f 396/1/2 397/1/2 399/1/2
f 399/1/2 397/1/2 400/1/2
f 401/2/2 402/2/2 405/2/2
f 405/2/2 402/2/2 406/2/2
f 403/2/2 404/2/2 409/2/2
f 409/2/2 404/2/2 410/2/2
f 406/1/2 407/1/2 411/1/2
f 411/1/2 407/1/2 412/1/2
f 408/2/2 409/2/2 415/2/2
f 415/2/2 409/2/2 416/2/2
f 412/1/2 413/1/2 417/1/2
f 417/1/2 413/1/2 418/1/2
f 414/1/2 415/1/2 421/1/2
f 421/1/2 415/1/2 422/1/2
f 419/1/2 420/1/2 423/1/2
f 423/1/2 420/1/2 424/1/2
f 424/2/2 425/2/2 428/2/2
f 428/2/2 425/2/2 429/2/2
f 426/1/2 427/1/2 430/1/2
f 430/1/2 427/1/2 431/1/2
f 429/1/2 430/1/2 432/1/2
f 432/1/2 430/1/2 433/1/2
f 434/2/2 435/2/2 438/2/2
f 438/2/2 435/2/2 439/2/2
f 436/2/2 437/2/2 442/2/2
f 442/2/2 437/2/2 443/2/2
f 439/2/2 440/2/2 444/2/2
f 444/2/2 440/2/2 445/2/2
f 441/2/2 442/2/2 448/2/2
f 448/2/2 442/2/2 449/2/2
f 445/1/2 446/1/2 450/1/2
f 450/1/2 446/1/2 451/1/2
f 447/1/2 448/1/2 454/1/2
f 454/1/2 448/1/2 455/1/2
f 451/1/2 452/1/2 456/1/2
f 456/1/2 452/1/2 457/1/2
f 453/1/2 454/1/2 462/1/2
f 462/1/2 454/1/2 463/1/2
f 458/2/2 459/2/2 464/2/2
f 464/2/2 459/2/2 465/2/2
f 460/1/2 461/1/2 466/1/2
f 466/1/2 461/1/2 467/1/2
f 465/1/2 466/1/2 468/1/2
f 468/1/2 466/1/2 469/1/2
f 472/1/2 473/1/2 474/1/2
f 474/1/2 473/1/2 475/1/2
f 474/2/2 475/2/2 476/2/2
f 470/1/2 471/1/2 477/1/2
f 477/1/2 471/1/2 478/1/2
f 476/2/2 475/2/2 483/2/2
f 483/2/2 475/2/2 484/2/2
f 479/2/2 480/2/2 485/2/2
f 485/2/2 480/2/2 486/2/2
f 481/1/2 482/1/2 489/1/2
f 489/1/2 482/1/2 490/1/2
f 486/1/2 487/1/2 491/1/2
f 491/1/2 487/1/2 492/1/2
f 488/1/2 489/1/2 495/1/2
f 495/1/2 489/1/2 496/1/2
f 492/1/2 493/1/2 497/1/2
f 497/1/2 493/1/2 498/1/2
f 494/1/2 495/1/2 501/1/2
f 501/1/2 495/1/2 502/1/2
f 498/1/2 499/1/2 503/1/2
f 503/1/2 499/1/2 504/1/2
f 500/1/2 501/1/2 505/1/2
f 505/1/2 501/1/2 506/1/2
f 509/1/2 510/1/2 511/1/2
f 511/1/2 510/1/2 512/1/2
f 512/1/2 510/1/2 513/1/2
f 507/1/2 508/1/2 514/1/2
f 514/1/2 508/1/2 515/1/2
f 512/2/2 513/2/2 518/2/2
f 518/2/2 513/2/2 519/2/2
f 517/2/2 518/2/2 520/2/2
f 520/2/2 518/2/2 521/2/2
f 515/1/2 516/1/2 522/1/2
f 522/1/2 516/1/2 523/1/2
f 520/1/2 521/1/2 528/1/2
f 528/1/2 521/1/2 529/1/2
f 524/2/2 525/2/2 530/2/2
f 530/2/2 525/2/2 531/2/2
f 526/1/2 527/1/2 534/1/2
f 534/1/2 527/1/2 535/1/2
f 531/1/2 532/1/2 536/1/2
f 536/1/2 532/1/2 537/1/2
f 533/1/2 534/1/2 540/1/2
f 540/1/2 534/1/2 541/1/2
f 537/1/2 538/1/2 542/1/2
f 542/1/2 538/1/2 543/1/2
f 539/1/2 540/1/2 546/1/2
f 546/1/2 540/1/2 547/1/2
f 543/1/2 544/1/2 548/1/2
f 548/1/2 544/1/2 549/1/2
f 545/1/2 546/1/2 552/1/2
f 552/1/2 546/1/2 553/1/2
f 550/1/2 551/1/2 554/1/2
f 554/1/2 551/1/2 555/1/2
f 556/1/2 557/1/2 561/1/2
f 557/2/2 558/2/2 562/2/2
f 561/1/2 557/1/2 562/1/2
f 562/2/2 558/2/2 563/2/2
f 558/1/2 559/1/2 564/1/2
f 563/2/2 558/2/2 564/2/2
f 564/1/2 559/1/2 565/1/2
f 565/1/2 559/1/2 566/1/2
f 560/1/2 561/1/2 569/1/2
f 569/1/2 561/1/2 570/1/2
f 566/1/2 567/1/2 571/1/2
f 571/1/2 567/1/2 572/1/2
f 568/1/2 569/1/2 574/1/2
f 572/2/2 573/2/2 575/2/2
f 575/2/2 573/2/2 576/2/2
f 568/1/2 574/1/2 578/1/2
f 578/1/2 574/1/2 579/1/2
f 575/1/2 576/1/2 580/1/2
f 580/1/2 576/1/2 581/1/2
f 581/1/2 582/1/2 583/1/2
f 583/1/2 582/1/2 584/1/2
f 577/1/2 578/1/2 585/1/2
f 585/1/2 578/1/2 586/1/2
f 584/1/2 582/1/2 589/1/2
f 589/1/2 582/1/2 590/1/2
f 588/1/2 589/1/2 591/1/2
f 591/1/2 589/1/2 592/1/2
f 586/1/2 587/1/2 593/1/2
f 593/1/2 587/1/2 594/1/2
f 591/2/2 592/2/2 597/2/2
f 597/2/2 592/2/2 598/2/2
f 594/1/2 595/1/2 599/1/2
f 599/1/2 595/1/2 600/1/2
f 596/1/2 597/1/2 605/1/2
f 605/1/2 597/1/2 606/1/2
f 601/2/2 602/2/2 607/2/2
f 607/2/2 602/2/2 608/2/2
f 603/1/2 604/1/2 611/1/2
f 611/1/2 604/1/2 612/1/2
f 608/1/2 609/1/2 613/1/2
f 613/1/2 609/1/2 614/1/2
f 610/1/2 611/1/2 617/1/2
f 617/1/2 611/1/2 618/1/2
f 614/1/2 615/1/2 619/1/2
f 619/1/2 615/1/2 620/1/2
f 616/1/2 617/1/2 621/1/2
f 621/1/2 617/1/2 622/1/2
f 620/1/2 621/1/2 623/1/2
f 623/1/2 621/1/2 624/1/2
f 625/1/2 626/1/2 630/1/2
f 630/1/2 626/1/2 631/1/2
f 626/2/2 627/2/2 632/2/2
f 631/1/2 626/1/2 632/1/2
f 632/2/2 627/2/2 633/2/2
f 627/1/2 628/1/2 634/1/2
f 633/2/2 627/2/2 634/2/2
f 634/1/2 628/1/2 635/1/2
f 635/1/2 628/1/2 636/1/2
f 629/1/2 630/1/2 638/1/2
f 638/1/2 630/1/2 639/1/2
f 636/1/2 637/1/2 640/1/2
f 638/2/2 639/2/2 642/2/2
f 642/2/2 639/2/2 643/2/2
f 640/1/2 637/1/2 644/1/2
f 644/1/2 637/1/2 645/1/2
f 641/1/2 642/1/2 647/1/2
f 645/2/2 646/2/2 648/2/2
f 648/2/2 646/2/2 649/2/2
f 648/1/2 649/1/2 650/1/2
f 650/1/2 649/1/2 651/1/2
f 641/1/2 647/1/2 652/1/2
f 652/1/2 647/1/2 653/1/2
f 650/2/2 651/2/2 656/2/2
f 656/2/2 651/2/2 657/2/2
f 655/2/2 656/2/2 658/2/2
f 658/2/2 656/2/2 659/2/2
f 653/1/2 654/1/2 660/1/2
f 653/1/2 660/1/2 661/1/2
f 661/1/2 660/1/2 662/1/2
f 658/1/2 659/1/2 665/1/2
f 665/1/2 659/1/2 666/1/2
f 662/1/2 663/1/2 667/1/2
f 667/1/2 663/1/2 668/1/2
f 664/1/2 665/1/2 673/1/2
f 673/1/2 665/1/2 674/1/2
f 669/2/2 670/2/2 675/2/2
f 675/2/2 670/2/2 676/2/2
f 671/1/2 672/1/2 679/1/2
f 679/1/2 672/1/2 680/1/2
f 676/1/2 677/1/2 681/1/2
f 681/1/2 677/1/2 682/1/2
f 678/1/2 679/1/2 683/1/2
f 683/1/2 679/1/2 684/1/2
f 682/1/2 683/1/2 685/1/2
f 685/1/2 683/1/2 686/1/2
f 687/2/2 688/2/2 692/2/2
f 688/1/2 689/1/2 693/1/2
f 692/2/2 688/2/2 693/2/2
f 689/2/2 690/2/2 694/2/2
f 693/1/2 689/1/2 694/1/2
f 694/2/2 690/2/2 695/2/2
f 690/1/2 691/1/2 696/1/2
f 695/2/2 690/2/2 696/2/2
f 696/1/2 691/1/2 697/1/2
f 694/1/2 695/1/2 699/1/2
f 692/1/2 693/1/2 699/1/2
f 693/1/2 694/1/2 699/1/2
f 696/2/2 697/2/2 700/2/2
f 695/2/2 696/2/2 700/2/2
f 699/1/2 695/1/2 700/1/2
f 700/2/2 697/2/2 701/2/2
f 701/2/2 697/2/2 702/2/2
f 698/2/2 699/2/2 704/2/2
f 704/2/2 699/2/2 705/2/2
f 702/2/2 703/2/2 706/2/2
f 706/2/2 703/2/2 707/2/2
f 704/1/2 705/1/2 708/1/2
f 708/1/2 705/1/2 709/1/2
f 707/2/2 703/2/2 712/2/2
f 712/2/2 703/2/2 713/2/2
f 709/2/2 710/2/2 714/2/2
f 711/2/2 712/2/2 715/2/2
f 715/2/2 712/2/2 716/2/2
f 709/2/2 714/2/2 717/2/2
f 717/2/2 714/2/2 718/2/2
f 717/1/2 718/1/2 719/1/2
f 719/1/2 718/1/2 720/1/2
f 715/1/2 716/1/2 723/1/2
f 723/1/2 716/1/2 724/1/2
f 722/1/2 723/1/2 725/1/2
f 720/1/2 721/1/2 726/1/2
f 726/1/2 721/1/2 727/1/2
f 725/1/2 723/1/2 732/1/2
f 732/1/2 723/1/2 733/1/2
f 728/2/2 729/2/2 734/2/2
f 729/2/2 730/2/2 734/2/2
f 734/2/2 730/2/2 735/2/2
f 730/1/2 731/1/2 736/1/2
f 735/2/2 730/2/2 736/2/2
f 736/1/2 731/1/2 737/1/2
f 737/1/2 731/1/2 738/1/2
f 735/1/2 736/1/2 739/1/2
f 736/1/2 737/1/2 739/1/2
f 739/1/2 737/1/2 740/1/2
f 741/1/2 742/1/2 744/1/2
f 744/1/2 742/1/2 745/1/2
f 742/2/2 743/2/2 746/2/2
f 745/1/2 742/1/2 746/1/2
f 746/2/2 743/2/2 747/2/2
f 744/2/2 745/2/2 748/2/2
f 741/1/2 744/1/2 748/1/2
f 746/1/2 747/1/2 749/1/2
f 748/2/2 745/2/2 749/2/2
f 745/1/2 746/1/2 749/1/2
f 748/1/2 749/1/2 750/1/2
f 749/1/2 747/1/2 750/1/2
f 750/1/2 747/1/2 751/1/2
f 741/1/2 748/1/2 752/1/2
f 748/1/2 750/1/2 752/1/2
f 752/1/2 750/1/2 753/1/2
f 753/1/2 750/1/2 754/1/2
f 754/1/2 750/1/2 755/1/2
f 750/2/2 751/2/2 756/2/2
f 755/1/2 750/1/2 756/1/2
f 756/2/2 751/2/2 757/2/2
f 753/2/2 754/2/2 758/2/2
f 754/1/2 755/1/2 759/1/2
f 758/2/2 754/2/2 759/2/2
f 758/1/2 759/1/2 760/1/2
f 759/1/2 755/1/2 761/1/2
f 760/1/2 759/1/2 761/1/2
f 761/1/2 755/1/2 762/1/2
f 755/2/2 756/2/2 763/2/2
f 762/1/2 755/1/2 763/1/2
f 763/2/2 756/2/2 764/2/2
f 761/1/2 762/1/2 765/1/2
f 762/2/2 763/2/2 766/2/2
f 765/1/2 762/1/2 766/1/2
f 761/1/2 765/1/2 767/1/2
f 765/2/2 766/2/2 768/2/2
f 767/1/2 765/1/2 768/1/2
f 766/2/2 763/2/2 769/2/2
f 768/2/2 766/2/2 769/2/2
f 769/2/2 763/2/2 770/2/2
f 761/1/2 767/1/2 771/1/2
f 767/2/2 768/2/2 772/2/2
f 771/1/2 767/1/2 772/1/2
f 768/2/2 769/2/2 772/2/2
f 769/1/2 770/1/2 773/1/2
f 772/2/2 769/2/2 773/2/2
f 773/1/2 770/1/2 774/1/2
f 777/1/3 776/1/3 775/1/3
f 779/1/3 778/1/3 777/1/3
f 782/1/3 780/1/3 779/1/3
f 782/2/3 781/2/3 780/2/3
f 783/2/3 781/2/3 782/2/3
f 784/1/3 779/1/3 777/1/3
f 784/1/3 782/1/3 779/1/3
f 784/1/3 783/1/3 782/1/3
f 785/1/3 783/1/3 784/1/3
f 786/2/3 781/2/3 783/2/3
f 786/1/3 783/1/3 785/1/3
f 787/2/3 781/2/3 786/2/3
f 788/1/3 777/1/3 775/1/3
f 788/1/3 784/1/3 777/1/3
f 789/1/3 784/1/3 788/1/3
f 790/2/3 785/2/3 784/2/3
f 790/1/3 784/1/3 789/1/3
f 791/1/3 787/1/3 786/1/3
f 791/2/3 785/2/3 790/2/3
f 791/1/3 786/1/3 785/1/3
f 792/2/3 789/2/3 788/2/3
f 792/1/3 788/1/3 775/1/3
f 793/1/3 790/1/3 789/1/3
f 793/2/3 789/2/3 792/2/3
f 793/1/3 791/1/3 790/1/3
f 794/1/3 793/1/3 792/1/3
f 794/1/3 791/1/3 793/1/3
f 795/1/3 787/1/3 791/1/3
f 795/1/3 791/1/3 794/1/3
f 796/1/3 794/1/3 792/1/3
f 797/1/3 794/1/3 796/1/3
f 798/1/3 792/1/3 775/1/3
f 798/1/3 796/1/3 792/1/3
f 799/1/3 796/1/3 798/1/3
f 804/2/3 801/2/3 800/2/3
f 805/1/3 802/1/3 801/1/3
f 805/2/3 801/2/3 804/2/3
f 806/1/3 802/1/3 805/1/3
f 809/2/3 804/2/3 803/2/3
f 810/2/3 804/2/3 809/2/3
f 811/1/3 807/1/3 806/1/3
f 812/2/3 808/2/3 807/2/3
f 812/1/3 807/1/3 811/1/3
f 813/2/3 808/2/3 812/2/3
f 816/2/3 814/2/3 813/2/3
f 817/2/3 814/2/3 816/2/3
f 818/1/3 815/1/3 814/1/3
f 818/2/3 814/2/3 817/2/3
f 819/1/3 815/1/3 818/1/3
f 820/2/3 809/2/3 803/2/3
f 821/1/3 810/1/3 809/1/3
f 821/2/3 809/2/3 820/2/3
f 824/1/3 823/1/3 822/1/3
f 825/1/3 823/1/3 824/1/3
f 827/2/3 825/2/3 824/2/3
f 828/1/3 826/1/3 825/1/3
f 828/2/3 825/2/3 827/2/3
f 829/1/3 826/1/3 828/1/3
f 830/2/3 828/2/3 827/2/3
f 830/2/3 829/2/3 828/2/3
f 831/2/3 829/2/3 830/2/3
f 832/1/3 831/1/3 830/1/3
f 833/2/3 829/2/3 831/2/3
f 833/1/3 831/1/3 832/1/3
f 834/2/3 829/2/3 833/2/3
f 835/2/3 833/2/3 832/2/3
f 836/2/3 833/2/3 835/2/3
f 840/1/3 838/1/3 837/1/3
f 841/1/3 838/1/3 840/1/3
f 842/1/3 821/1/3 820/1/3
f 843/1/3 810/1/3 821/1/3
f 843/1/3 821/1/3 842/1/3
f 844/1/3 840/1/3 839/1/3
f 845/1/3 840/1/3 844/1/3
f 846/1/3 844/1/3 843/1/3
f 847/1/3 844/1/3 846/1/3
f 851/2/3 849/2/3 848/2/3
f 852/2/3 849/2/3 851/2/3
f 853/2/3 849/2/3 852/2/3
f 856/1/3 851/1/3 850/1/3
f 857/1/3 851/1/3 856/1/3
f 858/2/3 854/2/3 853/2/3
f 859/2/3 854/2/3 858/2/3
f 860/2/3 854/2/3 859/2/3
f 862/1/3 861/1/3 860/1/3
f 863/1/3 861/1/3 862/1/3
f 864/1/3 861/1/3 863/1/3
f 865/1/3 856/1/3 855/1/3
f 866/1/3 856/1/3 865/1/3
f 869/2/3 866/2/3 865/2/3
f 870/1/3 868/1/3 867/1/3
f 871/1/3 868/1/3 870/1/3
f 873/1/3 872/1/3 871/1/3
f 874/1/3 872/1/3 873/1/3
f 876/2/3 869/2/3 865/2/3
f 877/2/3 869/2/3 876/2/3
f 878/1/3 875/1/3 874/1/3
f 880/1/3 875/1/3 878/1/3
f 881/1/3 875/1/3 880/1/3
f 883/2/3 880/2/3 879/2/3
f 884/2/3 880/2/3 883/2/3
f 885/2/3 883/2/3 882/2/3
f 886/2/3 883/2/3 885/2/3
f 889/1/3 877/1/3 876/1/3
f 890/1/3 877/1/3 889/1/3
f 894/1/3 888/1/3 887/1/3
f 895/1/3 888/1/3 894/1/3
f 896/1/3 891/1/3 890/1/3
f 897/2/3 892/2/3 891/2/3
f 897/1/3 891/1/3 896/1/3
f 898/2/3 892/2/3 897/2/3
f 900/1/3 894/1/3 893/1/3
f 901/1/3 894/1/3 900/1/3
f 902/2/3 899/2/3 898/2/3
f 903/1/3 900/1/3 899/1/3
f 903/2/3 899/2/3 902/2/3
f 904/1/3 900/1/3 903/1/3
f 909/2/3 906/2/3 905/2/3
f 910/2/3 906/2/3 909/2/3
f 914/1/3 908/1/3 907/1/3
f 915/2/3 909/2/3 908/2/3
f 915/1/3 908/1/3 914/1/3
f 916/2/3 909/2/3 915/2/3
f 917/2/3 911/2/3 910/2/3
f 918/1/3 912/1/3 911/1/3
f 918/2/3 911/2/3 917/2/3
f 919/1/3 912/1/3 918/1/3
f 922/1/3 914/1/3 913/1/3
f 923/1/3 914/1/3 922/1/3
f 924/1/3 920/1/3 919/1/3
f 925/1/3 920/1/3 924/1/3
f 928/1/3 922/1/3 921/1/3
f 929/1/3 927/1/3 926/1/3
f 930/1/3 927/1/3 929/1/3
f 932/1/3 931/1/3 930/1/3
f 933/1/3 931/1/3 932/1/3
f 935/1/3 928/1/3 921/1/3
f 936/1/3 928/1/3 935/1/3
f 937/1/3 934/1/3 933/1/3
f 938/1/3 934/1/3 937/1/3
f 940/2/3 936/2/3 935/2/3
f 941/2/3 940/2/3 935/2/3
f 942/2/3 940/2/3 941/2/3
f 944/1/3 939/1/3 938/1/3
f 945/1/3 939/1/3 944/1/3
f 947/1/3 944/1/3 943/1/3
f 948/1/3 944/1/3 947/1/3
f 950/1/3 947/1/3 946/1/3
f 951/1/3 947/1/3 950/1/3
f 952/2/3 950/2/3 949/2/3
f 953/2/3 950/2/3 952/2/3
f 954/1/3 942/1/3 941/1/3
f 955/1/3 942/1/3 954/1/3
f 959/1/3 956/1/3 955/1/3
f 960/1/3 956/1/3 959/1/3
f 965/1/3 958/1/3 957/1/3
f 966/1/3 958/1/3 965/1/3
f 967/2/3 961/2/3 960/2/3
f 968/1/3 962/1/3 961/1/3
f 968/2/3 961/2/3 967/2/3
f 969/1/3 962/1/3 968/1/3
f 971/2/3 964/2/3 963/2/3
f 972/1/3 965/1/3 964/1/3
f 972/2/3 964/2/3 971/2/3
f 973/1/3 965/1/3 972/1/3
f 974/1/3 970/1/3 969/1/3
f 974/1/3 971/1/3 970/1/3
f 975/1/3 971/1/3 974/1/3
f 979/1/3 977/1/3 976/1/3
f 980/2/3 978/2/3 977/2/3
f 980/1/3 977/1/3 979/1/3
f 981/2/3 978/2/3 980/2/3
f 982/2/3 978/2/3 981/2/3
f 985/2/3 983/2/3 982/2/3
f 986/1/3 984/1/3 983/1/3
f 986/2/3 983/2/3 985/2/3
f 987/1/3 984/1/3 986/1/3
f 990/1/3 989/1/3 988/1/3
f 991/1/3 989/1/3 990/1/3
f 993/1/3 992/1/3 991/1/3
f 994/1/3 992/1/3 993/1/3
f 996/1/3 995/1/3 994/1/3
f 997/1/3 995/1/3 996/1/3
f 999/1/3 998/1/3 997/1/3
f 1000/1/3 998/1/3 999/1/3
f 1003/1/3 1002/1/3 1001/1/3
f 1004/1/3 1002/1/3 1003/1/3
f 1008/1/3 1006/1/3 1005/1/3
f 1009/1/3 1006/1/3 1008/1/3
f 1011/1/3 1008/1/3 1007/1/3
f 1012/1/3 1008/1/3 1011/1/3
f 1014/1/3 1011/1/3 1010/1/3
f 1015/1/3 1011/1/3 1014/1/3
f 1016/2/3 1014/2/3 1013/2/3
f 1017/2/3 1014/2/3 1016/2/3
f 1023/1/3 1019/1/3 1018/1/3
f 1024/1/3 1019/1/3 1023/1/3
f 1025/2/3 1021/2/3 1020/2/3
f 1026/1/3 1022/1/3 1021/1/3
f 1026/2/3 1021/2/3 1025/2/3
f 1026/1/3 1023/1/3 1022/1/3
f 1027/1/3 1023/1/3 1026/1/3
f 1030/2/3 1029/2/3 1028/2/3
f 1031/2/3 1029/2/3 1030/2/3
f 1032/2/3 1029/2/3 1031/2/3
f 1035/1/3 1034/1/3 1033/1/3
f 1036/1/3 1034/1/3 1035/1/3
f 1038/1/3 1037/1/3 1036/1/3
f 1039/1/3 1037/1/3 1038/1/3
f 1041/1/3 1040/1/3 1039/1/3
f 1042/1/3 1040/1/3 1041/1/3
f 1044/1/3 1043/1/3 1042/1/3
f 1045/1/3 1043/1/3 1044/1/3
f 1049/1/3 1047/1/3 1046/1/3
f 1050/1/3 1047/1/3 1049/1/3
f 1052/1/3 1049/1/3 1048/1/3
f 1053/1/3 1049/1/3 1052/1/3
f 1055/1/3 1052/1/3 1051/1/3
f 1056/1/3 1052/1/3 1055/1/3
f 1057/2/3 1055/2/3 1054/2/3
f 1058/2/3 1055/2/3 1057/2/3
f 1061/1/3 1060/1/3 1059/1/3
f 1062/1/3 1060/1/3 1061/1/3
f 1065/2/3 1064/2/3 1063/2/3
f 1066/2/3 1064/2/3 1065/2/3
f 1068/1/3 1067/1/3 1066/1/3
f 1069/1/3 1067/1/3 1068/1/3
f 1071/1/3 1070/1/3 1069/1/3
f 1072/1/3 1070/1/3 1071/1/3
f 1074/1/3 1073/1/3 1072/1/3
f 1075/1/3 1073/1/3 1074/1/3
f 1078/1/3 1077/1/3 1076/1/3
f 1079/1/3 1077/1/3 1078/1/3
f 1082/1/3 1080/1/3 1079/1/3
f 1083/1/3 1080/1/3 1082/1/3
f 1084/1/3 1082/1/3 1081/1/3
f 1085/1/3 1082/1/3 1084/1/3
f 1089/1/3 1087/1/3 1086/1/3
f 1090/1/3 1087/1/3 1089/1/3
f 1092/1/3 1089/1/3 1088/1/3
f 1093/1/3 1089/1/3 1092/1/3
f 1095/1/3 1092/1/3 1091/1/3
f 1096/1/3 1092/1/3 1095/1/3
f 1097/2/3 1095/2/3 1094/2/3
f 1098/2/3 1095/2/3 1097/2/3
f 1101/2/3 1100/2/3 1099/2/3
f 1102/2/3 1100/2/3 1101/2/3
f 1104/1/3 1103/1/3 1102/1/3
f 1105/1/3 1103/1/3 1104/1/3
f 1107/1/3 1106/1/3 1105/1/3
f 1108/1/3 1106/1/3 1107/1/3
f 1111/1/3 1110/1/3 1109/1/3
f 1112/1/3 1110/1/3 1111/1/3
f 1115/1/3 1113/1/3 1112/1/3
f 1116/1/3 1113/1/3 1115/1/3
f 1118/2/3 1115/2/3 1114/2/3
f 1119/2/3 1115/2/3 1118/2/3
f 1120/2/3 1118/2/3 1117/2/3
f 1121/2/3 1118/2/3 1120/2/3
f 1125/1/3 1123/1/3 1122/1/3
f 1126/1/3 1123/1/3 1125/1/3
f 1128/1/3 1125/1/3 1124/1/3
f 1129/1/3 1125/1/3 1128/1/3
f 1130/1/3 1128/1/3 1127/1/3
f 1131/1/3 1128/1/3 1130/1/3
f 1134/1/3 1133/1/3 1132/1/3
f 1135/1/3 1133/1/3 1134/1/3
f 1137/1/3 1136/1/3 1135/1/3
f 1138/1/3 1136/1/3 1137/1/3
f 1140/1/3 1139/1/3 1138/1/3
f 1141/1/3 1139/1/3 1140/1/3
f 1144/1/3 1142/1/3 1141/1/3
f 1145/1/3 1142/1/3 1144/1/3
f 1147/1/3 1144/1/3 1143/1/3
f 1148/1/3 1144/1/3 1147/1/3
f 1150/1/3 1147/1/3 1146/1/3
f 1151/1/3 1147/1/3 1150/1/3
f 1152/1/3 1150/1/3 1149/1/3
f 1153/1/3 1150/1/3 1152/1/3
f 1154/1/4 1155/1/4 1156/1/4
f 1156/1/4 1155/1/4 1157/1/4
f 1157/1/4 1158/1/4 1159/1/4
f 1159/1/4 1158/1/4 1160/1/4
f 1160/1/4 1161/1/4 1162/1/4
f 1162/1/4 1161/1/4 1163/1/4
f 1163/1/4 1164/1/4 1166/1/4
f 1166/1/4 1164/1/4 1167/1/4
f 1165/1/4 1166/1/4 1169/1/4
f 1169/1/4 1166/1/4 1170/1/4
f 1168/1/4 1169/1/4 1172/1/4
f 1172/1/4 1169/1/4 1173/1/4
f 1171/1/4 1172/1/4 1174/1/4
f 1174/1/4 1172/1/4 1175/1/4
f 1176/1/4 1177/1/4 1178/1/4
f 1178/1/4 1177/1/4 1179/1/4
f 1179/2/4 1180/2/4 1181/2/4
f 1181/2/4 1180/2/4 1182/2/4
f 1182/2/4 1183/2/4 1184/2/4
f 1184/2/4 1183/2/4 1185/2/4
f 1186/1/4 1187/1/4 1188/1/4
f 1188/1/4 1187/1/4 1189/1/4
f 1189/1/4 1190/1/4 1192/1/4
f 1192/1/4 1190/1/4 1193/1/4
f 1191/1/4 1192/1/4 1194/1/4
f 1194/1/4 1192/1/4 1195/1/4
f 1196/1/4 1197/1/4 1199/1/4
f 1199/1/4 1197/1/4 1200/1/4
f 1198/1/4 1199/1/4 1202/1/4
f 1202/1/4 1199/1/4 1203/1/4
f 1201/1/4 1202/1/4 1204/1/4
f 1204/1/4 1202/1/4 1205/1/4
f 1206/1/4 1207/1/4 1208/1/4
f 1208/1/4 1207/1/4 1209/1/4
f 1209/1/4 1210/1/4 1211/1/4
f 1211/1/4 1210/1/4 1212/1/4
f 1212/2/4 1213/2/4 1214/2/4
f 1214/2/4 1213/2/4 1215/2/4
f 1215/2/4 1216/2/4 1217/2/4
f 1217/2/4 1216/2/4 1218/2/4
f 1219/1/4 1220/1/4 1221/1/4
f 1221/1/4 1220/1/4 1222/1/4
f 1222/2/4 1223/2/4 1225/2/4
f 1225/2/4 1223/2/4 1226/2/4
f 1224/1/4 1225/1/4 1227/1/4
f 1227/1/4 1225/1/4 1228/1/4
f 1229/1/4 1230/1/4 1232/1/4
f 1232/1/4 1230/1/4 1233/1/4
f 1231/1/4 1232/1/4 1235/1/4
f 1235/1/4 1232/1/4 1236/1/4
f 1234/1/4 1235/1/4 1238/1/4
f 1238/1/4 1235/1/4 1239/1/4
f 1237/1/4 1238/1/4 1240/1/4
f 1240/1/4 1238/1/4 1241/1/4
f 1242/1/4 1243/1/4 1244/1/4
f 1244/1/4 1243/1/4 1245/1/4
f 1246/1/4 1247/1/4 1248/1/4
f 1248/1/4 1247/1/4 1249/1/4
f 1249/1/4 1250/1/4 1251/1/4
f 1251/1/4 1250/1/4 1252/1/4
f 1252/1/4 1253/1/4 1254/1/4
f 1254/1/4 1253/1/4 1255/1/4
f 1255/2/4 1256/2/4 1257/2/4
f 1257/2/4 1256/2/4 1258/2/4
f 1259/1/4 1260/1/4 1262/1/4
f 1262/1/4 1260/1/4 1263/1/4
f 1261/1/4 1262/1/4 1265/1/4
f 1265/1/4 1262/1/4 1266/1/4
f 1264/1/4 1265/1/4 1268/1/4
f 1268/1/4 1265/1/4 1269/1/4
f 1267/1/4 1268/1/4 1270/1/4
f 1270/1/4 1268/1/4 1271/1/4
f 1272/2/4 1273/2/4 1275/2/4
f 1273/1/4 1274/1/4 1276/1/4
f 1275/2/4 1273/2/4 1276/2/4
f 1276/1/4 1274/1/4 1277/1/4
f 1278/1/4 1279/1/4 1280/1/4
f 1280/1/4 1279/1/4 1281/1/4
f 1281/1/4 1282/1/4 1283/1/4
f 1283/1/4 1282/1/4 1284/1/4
f 1285/2/4 1286/2/4 1287/2/4
f 1287/2/4 1286/2/4 1288/2/4
f 1288/1/4 1289/1/4 1290/1/4
f 1290/1/4 1289/1/4 1291/1/4
f 1291/1/4 1292/1/4 1293/1/4
f 1293/1/4 1292/1/4 1294/1/4
f 1294/2/4 1295/2/4 1296/2/4
f 1296/2/4 1295/2/4 1297/2/4
f 1298/1/4 1299/1/4 1300/1/4
f 1300/1/4 1299/1/4 1301/1/4
f 1302/1/4 1303/1/4 1305/1/4
f 1305/1/4 1303/1/4 1306/1/4
f 1304/1/4 1305/1/4 1308/1/4
f 1308/1/4 1305/1/4 1309/1/4
f 1307/1/4 1308/1/4 1311/1/4
f 1311/1/4 1308/1/4 1312/1/4
f 1310/1/4 1311/1/4 1313/1/4
f 1313/1/4 1311/1/4 1314/1/4
f 1315/1/4 1316/1/4 1319/1/4
f 1319/1/4 1316/1/4 1320/1/4
f 1317/2/4 1318/2/4 1321/2/4
f 1318/2/4 1319/2/4 1321/2/4
f 1321/2/4 1319/2/4 1322/2/4
f 1323/1/4 1324/1/4 1326/1/4
f 1326/1/4 1324/1/4 1327/1/4
f 1325/1/4 1326/1/4 1330/1/4
f 1330/1/4 1326/1/4 1331/1/4
f 1327/1/4 1328/1/4 1332/1/4
f 1332/1/4 1328/1/4 1333/1/4
f 1329/1/4 1330/1/4 1336/1/4
f 1336/1/4 1330/1/4 1337/1/4
f 1333/1/4 1334/1/4 1338/1/4
f 1338/1/4 1334/1/4 1339/1/4
f 1335/1/4 1336/1/4 1342/1/4
f 1342/1/4 1336/1/4 1343/1/4
f 1340/2/4 1341/2/4 1344/2/4
f 1344/2/4 1341/2/4 1345/2/4
f 1345/1/4 1346/1/4 1347/1/4
f 1347/1/4 1346/1/4 1348/1/4
f 1342/2/4 1343/2/4 1350/2/4
f 1348/1/4 1349/1/4 1351/1/4
f 1351/1/4 1349/1/4 1352/1/4
f 1342/2/4 1350/2/4 1354/2/4
f 1354/2/4 1350/2/4 1355/2/4
f 1352/2/4 1353/2/4 1356/2/4
f 1356/2/4 1353/2/4 1357/2/4
f 1357/2/4 1353/2/4 1358/2/4
f 1357/1/4 1358/1/4 1360/1/4
f 1360/1/4 1358/1/4 1361/1/4
f 1354/1/4 1355/1/4 1362/1/4
f 1359/1/4 1360/1/4 1364/1/4
f 1364/1/4 1360/1/4 1365/1/4
f 1363/1/4 1364/1/4 1367/1/4
f 1367/1/4 1364/1/4 1368/1/4
f 1366/1/4 1367/1/4 1369/1/4
f 1369/1/4 1367/1/4 1370/1/4
f 1354/1/4 1362/1/4 1371/1/4
f 1371/1/4 1362/1/4 1372/1/4
f 1372/1/4 1373/1/4 1376/1/4
f 1376/1/4 1373/1/4 1377/1/4
f 1374/1/4 1375/1/4 1382/1/4
f 1382/1/4 1375/1/4 1383/1/4
f 1377/1/4 1378/1/4 1384/1/4
f 1378/2/4 1379/2/4 1385/2/4
f 1384/1/4 1378/1/4 1385/1/4
f 1385/2/4 1379/2/4 1386/2/4
f 1380/2/4 1381/2/4 1389/2/4
f 1381/1/4 1382/1/4 1390/1/4
f 1389/2/4 1381/2/4 1390/2/4
f 1390/1/4 1382/1/4 1391/1/4
f 1386/2/4 1387/2/4 1392/2/4
f 1387/1/4 1388/1/4 1393/1/4
f 1392/2/4 1387/2/4 1393/2/4
f 1388/2/4 1389/2/4 1394/2/4
f 1393/1/4 1388/1/4 1394/1/4
f 1394/2/4 1389/2/4 1395/2/4
f 1396/1/4 1397/1/4 1399/1/4
f 1399/1/4 1397/1/4 1400/1/4
f 1400/1/4 1397/1/4 1401/1/4
f 1401/1/4 1397/1/4 1402/1/4
f 1398/1/4 1399/1/4 1405/1/4
f 1405/1/4 1399/1/4 1406/1/4
f 1402/1/4 1403/1/4 1407/1/4
f 1407/1/4 1403/1/4 1408/1/4
f 1408/1/4 1409/1/4 1410/1/4
f 1410/1/4 1409/1/4 1411/1/4
f 1412/2/4 1413/2/4 1414/2/4
f 1414/2/4 1413/2/4 1415/2/4
f 1404/1/4 1405/1/4 1417/1/4
f 1417/1/4 1405/1/4 1418/1/4
f 1415/1/4 1416/1/4 1419/1/4
f 1419/1/4 1416/1/4 1420/1/4
f 1420/1/4 1421/1/4 1422/1/4
f 1422/1/4 1421/1/4 1423/1/4
f 1422/2/4 1423/2/4 1424/2/4
f 1417/2/4 1418/2/4 1425/2/4
f 1424/2/4 1423/2/4 1427/2/4
f 1427/2/4 1423/2/4 1428/2/4
f 1417/2/4 1425/2/4 1429/2/4
f 1429/2/4 1425/2/4 1430/2/4
f 1426/2/4 1427/2/4 1432/2/4
f 1432/2/4 1427/2/4 1433/2/4
f 1431/1/4 1432/1/4 1434/1/4
f 1434/1/4 1432/1/4 1435/1/4
f 1429/1/4 1430/1/4 1439/1/4
f 1439/1/4 1430/1/4 1440/1/4
f 1437/1/4 1438/1/4 1445/1/4
f 1436/1/4 1437/1/4 1445/1/4
f 1445/1/4 1438/1/4 1446/1/4
f 1441/1/4 1442/1/4 1447/1/4
f 1440/1/4 1441/1/4 1447/1/4
f 1447/1/4 1442/1/4 1448/1/4
f 1443/2/4 1444/2/4 1451/2/4
f 1444/1/4 1445/1/4 1452/1/4
f 1451/2/4 1444/2/4 1452/2/4
f 1452/1/4 1445/1/4 1453/1/4
f 1449/2/4 1450/2/4 1454/2/4
f 1450/2/4 1451/2/4 1454/2/4
f 1448/2/4 1449/2/4 1454/2/4
f 1454/2/4 1451/2/4 1455/2/4
f 1456/1/4 1457/1/4 1461/1/4
f 1457/2/4 1458/2/4 1462/2/4
f 1461/1/4 1457/1/4 1462/1/4
f 1462/2/4 1458/2/4 1463/2/4
f 1458/1/4 1459/1/4 1464/1/4
f 1463/2/4 1458/2/4 1464/2/4
f 1464/1/4 1459/1/4 1465/1/4
f 1465/1/4 1466/1/4 1467/1/4
f 1467/1/4 1466/1/4 1468/1/4
f 1468/1/4 1469/1/4 1470/1/4
f 1470/1/4 1469/1/4 1471/1/4
f 1472/1/4 1473/1/4 1474/1/4
f 1472/1/4 1474/1/4 1476/1/4
f 1474/1/4 1475/1/4 1476/1/4
f 1476/1/4 1475/1/4 1477/1/4
f 1460/1/4 1461/1/4 1478/1/4
f 1478/1/4 1461/1/4 1479/1/4
f 1472/1/4 1476/1/4 1480/1/4
f 1476/2/4 1477/2/4 1481/2/4
f 1480/1/4 1476/1/4 1481/1/4
f 1481/2/4 1477/2/4 1482/2/4
f 1480/2/4 1481/2/4 1483/2/4
f 1483/2/4 1481/2/4 1484/2/4
f 1485/2/4 1486/2/4 1492/2/4
f 1486/2/4 1487/2/4 1492/2/4
f 1487/1/4 1488/1/4 1493/1/4
f 1492/2/4 1487/2/4 1493/2/4
f 1493/1/4 1488/1/4 1494/1/4
f 1478/2/4 1479/2/4 1495/2/4
f 1479/1/4 1461/1/4 1496/1/4
f 1495/2/4 1479/2/4 1496/2/4
f 1496/1/4 1461/1/4 1497/1/4
f 1489/1/4 1490/1/4 1500/1/4
f 1490/2/4 1491/2/4 1501/2/4
f 1491/2/4 1492/2/4 1501/2/4
f 1500/1/4 1490/1/4 1501/1/4
f 1501/2/4 1492/2/4 1502/2/4
f 1497/2/4 1498/2/4 1503/2/4
f 1498/1/4 1499/1/4 1504/1/4
f 1503/2/4 1498/2/4 1504/2/4
f 1499/2/4 1500/2/4 1505/2/4
f 1504/1/4 1499/1/4 1505/1/4
f 1505/2/4 1500/2/4 1506/2/4
f 1507/1/4 1508/1/4 1511/1/4
f 1508/2/4 1509/2/4 1511/2/4
f 1509/1/4 1510/1/4 1512/1/4
f 1511/2/4 1509/2/4 1512/2/4
f 1512/1/4 1510/1/4 1513/1/4
f 1511/1/4 1512/1/4 1515/1/4
f 1513/1/4 1514/1/4 1515/1/4
f 1512/1/4 1513/1/4 1515/1/4
f 1511/1/4 1515/1/4 1517/1/4
f 1515/1/4 1516/1/4 1517/1/4
f 1517/1/4 1516/1/4 1518/1/4
f 1511/1/4 1517/1/4 1519/1/4
f 1517/2/4 1518/2/4 1519/2/4
f 1518/1/4 1516/1/4 1520/1/4
f 1519/2/4 1518/2/4 1520/2/4
f 1519/1/4 1520/1/4 1521/1/4
f 1520/1/4 1516/1/4 1521/1/4
f 1521/1/4 1516/1/4 1522/1/4
f 1519/1/4 1521/1/4 1523/1/4
f 1523/1/4 1521/1/4 1524/1/4
f 1521/2/4 1522/2/4 1525/2/4
f 1524/1/4 1521/1/4 1525/1/4
f 1525/2/4 1522/2/4 1526/2/4
f 1519/1/4 1523/1/4 1527/1/4
f 1523/2/4 1524/2/4 1528/2/4
f 1527/1/4 1523/1/4 1528/1/4
f 1528/2/4 1524/2/4 1529/2/4
f 1507/1/4 1511/1/4 1530/1/4
f 1511/1/4 1519/1/4 1530/1/4
f 1519/1/4 1527/1/4 1530/1/4
f 1530/1/4 1527/1/4 1531/1/4
f 1536/1/5 1533/1/5 1532/1/5
f 1536/2/5 1534/2/5 1533/2/5
f 1537/2/5 1534/2/5 1536/2/5
f 1538/1/5 1535/1/5 1534/1/5
f 1538/2/5 1534/2/5 1537/2/5
f 1539/1/5 1535/1/5 1538/1/5
f 1540/1/5 1537/1/5 1536/1/5
f 1540/2/5 1538/2/5 1537/2/5
f 1540/2/5 1539/2/5 1538/2/5
f 1541/2/5 1539/2/5 1540/2/5
f 1542/1/5 1535/1/5 1539/1/5
f 1542/2/5 1539/2/5 1541/2/5
f 1543/1/5 1535/1/5 1542/1/5
f 1544/1/5 1541/1/5 1540/1/5
f 1544/1/5 1536/1/5 1532/1/5
f 1544/1/5 1540/1/5 1536/1/5
f 1545/1/5 1541/1/5 1544/1/5
f 1546/2/5 1543/2/5 1542/2/5
f 1546/1/5 1541/1/5 1545/1/5
f 1546/2/5 1542/2/5 1541/2/5
f 1547/2/5 1543/2/5 1546/2/5
f 1548/1/5 1535/1/5 1543/1/5
f 1548/2/5 1543/2/5 1547/2/5
f 1549/1/5 1535/1/5 1548/1/5
f 1550/2/5 1545/2/5 1544/2/5
f 1550/1/5 1544/1/5 1532/1/5
f 1551/1/5 1547/1/5 1546/1/5
f 1551/2/5 1545/2/5 1550/2/5
f 1551/1/5 1546/1/5 1545/1/5
f 1552/2/5 1549/2/5 1548/2/5
f 1552/1/5 1547/1/5 1551/1/5
f 1552/2/5 1548/2/5 1547/2/5
f 1553/2/5 1549/2/5 1552/2/5
f 1554/1/5 1535/1/5 1549/1/5
f 1554/2/5 1549/2/5 1553/2/5
f 1555/1/5 1535/1/5 1554/1/5
f 1556/1/5 1550/1/5 1532/1/5
f 1556/1/5 1553/1/5 1552/1/5
f 1556/1/5 1551/1/5 1550/1/5
f 1556/1/5 1552/1/5 1551/1/5
f 1557/1/5 1553/1/5 1556/1/5
f 1558/2/5 1555/2/5 1554/2/5
f 1558/1/5 1553/1/5 1557/1/5
f 1558/2/5 1554/2/5 1553/2/5
f 1559/2/5 1555/2/5 1558/2/5
f 1560/2/5 1557/2/5 1556/2/5
f 1560/1/5 1558/1/5 1557/1/5
f 1560/1/5 1559/1/5 1558/1/5
f 1561/1/5 1559/1/5 1560/1/5
f 1562/2/5 1555/2/5 1559/2/5
f 1562/1/5 1559/1/5 1561/1/5
f 1563/2/5 1555/2/5 1562/2/5
f 1564/2/5 1561/2/5 1560/2/5
f 1564/2/5 1560/2/5 1556/2/5
f 1565/2/5 1561/2/5 1564/2/5
f 1566/1/5 1563/1/5 1562/1/5
f 1566/2/5 1561/2/5 1565/2/5
f 1566/1/5 1562/1/5 1561/1/5
f 1567/1/5 1563/1/5 1566/1/5
f 1568/1/5 1565/1/5 1564/1/5
f 1568/2/5 1566/2/5 1565/2/5
f 1568/2/5 1567/2/5 1566/2/5
f 1569/2/5 1567/2/5 1568/2/5
f 1570/1/5 1563/1/5 1567/1/5
f 1570/2/5 1567/2/5 1569/2/5
f 1571/1/5 1563/1/5 1570/1/5
f 1572/1/5 1569/1/5 1568/1/5
f 1572/1/5 1568/1/5 1564/1/5
f 1573/2/5 1571/2/5 1570/2/5
f 1573/1/5 1569/1/5 1572/1/5
f 1573/2/5 1570/2/5 1569/2/5
f 1574/1/5 1563/1/5 1571/1/5
f 1574/2/5 1571/2/5 1573/2/5
f 1575/1/5 1563/1/5 1574/1/5
f 1581/1/5 1577/1/5 1576/1/5
f 1582/2/5 1578/2/5 1577/2/5
f 1582/1/5 1577/1/5 1581/1/5
f 1583/2/5 1578/2/5 1582/2/5
f 1584/1/5 1579/1/5 1578/1/5
f 1584/2/5 1578/2/5 1583/2/5
f 1585/1/5 1579/1/5 1584/1/5
f 1586/1/5 1579/1/5 1585/1/5
f 1588/1/5 1581/1/5 1580/1/5
f 1589/1/5 1581/1/5 1588/1/5
f 1590/1/5 1587/1/5 1586/1/5
f 1591/2/5 1589/2/5 1588/2/5
f 1592/1/5 1587/1/5 1590/1/5
f 1593/1/5 1587/1/5 1592/1/5
f 1594/2/5 1591/2/5 1588/2/5
f 1595/2/5 1591/2/5 1594/2/5
f 1596/2/5 1593/2/5 1592/2/5
f 1597/1/5 1595/1/5 1594/1/5
f 1598/2/5 1593/2/5 1596/2/5
f 1599/2/5 1593/2/5 1598/2/5
f 1600/1/5 1597/1/5 1594/1/5
f 1601/1/5 1597/1/5 1600/1/5
f 1606/1/5 1599/1/5 1598/1/5
f 1607/1/5 1599/1/5 1606/1/5
f 1608/1/5 1602/1/5 1601/1/5
f 1608/1/5 1603/1/5 1602/1/5
f 1609/2/5 1605/2/5 1604/2/5
f 1609/1/5 1603/1/5 1608/1/5
f 1609/2/5 1604/2/5 1603/2/5
f 1610/1/5 1606/1/5 1605/1/5
f 1610/2/5 1605/2/5 1609/2/5
f 1611/1/5 1606/1/5 1610/1/5
f 1616/2/5 1613/2/5 1612/2/5
f 1617/2/5 1613/2/5 1616/2/5
f 1618/1/5 1614/1/5 1613/1/5
f 1618/2/5 1613/2/5 1617/2/5
f 1619/1/5 1614/1/5 1618/1/5
f 1620/1/5 1614/1/5 1619/1/5
f 1623/1/5 1616/1/5 1615/1/5
f 1624/1/5 1616/1/5 1623/1/5
f 1625/1/5 1621/1/5 1620/1/5
f 1626/1/5 1621/1/5 1625/1/5
f 1628/2/5 1627/2/5 1626/2/5
f 1629/2/5 1627/2/5 1628/2/5
f 1630/1/5 1623/1/5 1622/1/5
f 1631/1/5 1623/1/5 1630/1/5
f 1632/2/5 1631/2/5 1630/2/5
f 1633/2/5 1632/2/5 1630/2/5
f 1634/2/5 1632/2/5 1633/2/5
f 1635/1/5 1629/1/5 1628/1/5
f 1636/1/5 1634/1/5 1633/1/5
f 1637/1/5 1629/1/5 1635/1/5
f 1638/1/5 1629/1/5 1637/1/5
f 1639/2/5 1638/2/5 1637/2/5
f 1640/2/5 1638/2/5 1639/2/5
f 1641/2/5 1638/2/5 1640/2/5
f 1642/1/5 1636/1/5 1633/1/5
f 1643/1/5 1636/1/5 1642/1/5
f 1646/1/5 1641/1/5 1640/1/5
f 1647/1/5 1641/1/5 1646/1/5
f 1648/1/5 1644/1/5 1643/1/5
f 1649/1/5 1644/1/5 1648/1/5
f 1653/1/5 1646/1/5 1645/1/5
f 1654/1/5 1646/1/5 1653/1/5
f 1655/1/5 1650/1/5 1649/1/5
f 1655/1/5 1651/1/5 1650/1/5
f 1656/2/5 1652/2/5 1651/2/5
f 1656/1/5 1651/1/5 1655/1/5
f 1656/2/5 1653/2/5 1652/2/5
f 1657/2/5 1653/2/5 1656/2/5
f 1661/1/5 1659/1/5 1658/1/5
f 1662/1/5 1659/1/5 1661/1/5
f 1663/1/5 1659/1/5 1662/1/5
f 1666/2/5 1661/2/5 1660/2/5
f 1667/2/5 1661/2/5 1666/2/5
f 1668/1/5 1664/1/5 1663/1/5
f 1669/1/5 1664/1/5 1668/1/5
f 1672/2/5 1666/2/5 1665/2/5
f 1673/2/5 1666/2/5 1672/2/5
f 1674/2/5 1670/2/5 1669/2/5
f 1675/2/5 1670/2/5 1674/2/5
f 1677/2/5 1672/2/5 1671/2/5
f 1678/2/5 1672/2/5 1677/2/5
f 1679/1/5 1678/1/5 1677/1/5
f 1680/1/5 1676/1/5 1675/1/5
f 1681/1/5 1676/1/5 1680/1/5
f 1682/1/5 1676/1/5 1681/1/5
f 1683/1/5 1679/1/5 1677/1/5
f 1684/1/5 1679/1/5 1683/1/5
f 1687/2/5 1682/2/5 1681/2/5
f 1688/2/5 1682/2/5 1687/2/5
f 1689/1/5 1685/1/5 1684/1/5
f 1690/1/5 1685/1/5 1689/1/5
f 1693/2/5 1687/2/5 1686/2/5
f 1694/2/5 1687/2/5 1693/2/5
f 1695/1/5 1691/1/5 1690/1/5
f 1696/1/5 1691/1/5 1695/1/5
f 1697/2/5 1693/2/5 1692/2/5
f 1698/2/5 1693/2/5 1697/2/5
f 1699/1/5 1697/1/5 1696/1/5
f 1700/1/5 1697/1/5 1699/1/5
f 1701/1/6 1702/1/6 1706/1/6
f 1706/1/6 1702/1/6 1707/1/6
f 1703/1/6 1704/1/6 1708/1/6
f 1708/1/6 1704/1/6 1709/1/6
f 1705/1/6 1706/1/6 1712/1/6
f 1712/1/6 1706/1/6 1713/1/6
f 1709/1/6 1710/1/6 1714/1/6
f 1714/1/6 1710/1/6 1715/1/6
f 1711/2/6 1712/2/6 1718/2/6
f 1718/2/6 1712/2/6 1719/2/6
f 1715/1/6 1716/1/6 1720/1/6
f 1720/1/6 1716/1/6 1721/1/6
f 1717/2/6 1718/2/6 1723/2/6
f 1723/2/6 1718/2/6 1724/2/6
f 1721/1/6 1722/1/6 1725/1/6
f 1725/1/6 1722/1/6 1726/1/6
f 1727/1/6 1728/1/6 1731/1/6
f 1731/1/6 1728/1/6 1732/1/6
f 1729/2/6 1730/2/6 1735/2/6
f 1735/2/6 1730/2/6 1736/2/6
f 1732/1/6 1733/1/6 1737/1/6
f 1737/1/6 1733/1/6 1738/1/6
f 1734/2/6 1735/2/6 1741/2/6
f 1741/2/6 1735/2/6 1742/2/6
f 1738/1/6 1739/1/6 1743/1/6
f 1743/1/6 1739/1/6 1744/1/6
f 1740/2/6 1741/2/6 1747/2/6
f 1747/2/6 1741/2/6 1748/2/6
f 1744/1/6 1745/1/6 1749/1/6
f 1749/1/6 1745/1/6 1750/1/6
f 1746/1/6 1747/1/6 1751/1/6
f 1751/1/6 1747/1/6 1752/1/6
f 1753/1/6 1754/1/6 1758/1/6
f 1758/1/6 1754/1/6 1759/1/6
f 1755/1/6 1756/1/6 1760/1/6
f 1760/1/6 1756/1/6 1761/1/6
f 1757/2/6 1758/2/6 1764/2/6
f 1764/2/6 1758/2/6 1765/2/6
f 1761/1/6 1762/1/6 1766/1/6
f 1766/1/6 1762/1/6 1767/1/6
f 1763/2/6 1764/2/6 1770/2/6
f 1770/2/6 1764/2/6 1771/2/6
f 1767/1/6 1768/1/6 1772/1/6
f 1772/1/6 1768/1/6 1773/1/6
f 1769/1/6 1770/1/6 1776/1/6
f 1776/1/6 1770/1/6 1777/1/6
f 1773/1/6 1774/1/6 1778/1/6
f 1778/1/6 1774/1/6 1779/1/6
f 1775/2/6 1776/2/6 1781/2/6
f 1781/2/6 1776/2/6 1782/2/6
f 1779/1/6 1780/1/6 1783/1/6
f 1783/1/6 1780/1/6 1784/1/6
f 1785/1/6 1786/1/6 1789/1/6
f 1789/1/6 1786/1/6 1790/1/6
f 1787/2/6 1788/2/6 1793/2/6
f 1793/2/6 1788/2/6 1794/2/6
f 1790/1/6 1791/1/6 1795/1/6
f 1795/1/6 1791/1/6 1796/1/6
f 1792/1/6 1793/1/6 1799/1/6
f 1799/1/6 1793/1/6 1800/1/6
f 1796/1/6 1797/1/6 1801/1/6
f 1801/1/6 1797/1/6 1802/1/6
f 1798/1/6 1799/1/6 1805/1/6
f 1805/1/6 1799/1/6 1806/1/6
f 1802/1/6 1803/1/6 1807/1/6
f 1807/1/6 1803/1/6 1808/1/6
f 1804/2/6 1805/2/6 1811/2/6
f 1811/2/6 1805/2/6 1812/2/6
f 1808/1/6 1809/1/6 1813/1/6
f 1813/1/6 1809/1/6 1814/1/6
f 1810/2/6 1811/2/6 1815/2/6
f 1815/2/6 1811/2/6 1816/2/6
f 1817/2/6 1818/2/6 1821/2/6
f 1821/2/6 1818/2/6 1822/2/6
f 1822/2/6 1818/2/6 1823/2/6
f 1818/1/6 1819/1/6 1824/1/6
f 1823/2/6 1818/2/6 1824/2/6
f 1824/1/6 1819/1/6 1825/1/6
f 1825/1/6 1819/1/6 1826/1/6
f 1826/1/6 1819/1/6 1827/1/6
f 1827/1/6 1819/1/6 1828/1/6
f 1820/1/6 1821/1/6 1831/1/6
f 1821/1/6 1822/1/6 1831/1/6
f 1831/1/6 1822/1/6 1832/1/6
f 1832/1/6 1822/1/6 1833/1/6
f 1828/1/6 1829/1/6 1834/1/6
f 1827/1/6 1828/1/6 1834/1/6
f 1834/1/6 1829/1/6 1835/1/6
f 1835/1/6 1829/1/6 1836/1/6
f 1831/1/6 1832/1/6 1839/1/6
f 1830/1/6 1831/1/6 1839/1/6
f 1839/1/6 1832/1/6 1840/1/6
f 1840/1/6 1832/1/6 1841/1/6
f 1836/1/6 1837/1/6 1842/1/6
f 1835/1/6 1836/1/6 1842/1/6
f 1842/1/6 1837/1/6 1843/1/6
f 1843/1/6 1837/1/6 1844/1/6
f 1839/1/6 1840/1/6 1847/1/6
f 1838/1/6 1839/1/6 1847/1/6
f 1847/1/6 1840/1/6 1848/1/6
f 1848/1/6 1840/1/6 1849/1/6
f 1844/1/6 1845/1/6 1850/1/6
f 1843/1/6 1844/1/6 1850/1/6
f 1850/1/6 1845/1/6 1851/1/6
f 1851/1/6 1845/1/6 1852/1/6
f 1847/1/6 1848/1/6 1855/1/6
f 1846/1/6 1847/1/6 1855/1/6
f 1855/1/6 1848/1/6 1856/1/6
f 1856/1/6 1848/1/6 1857/1/6
f 1852/1/6 1853/1/6 1858/1/6
f 1851/1/6 1852/1/6 1858/1/6
f 1858/1/6 1853/1/6 1859/1/6
f 1859/1/6 1853/1/6 1860/1/6
f 1855/1/6 1856/1/6 1862/1/6
f 1854/2/6 1855/2/6 1862/2/6
f 1862/1/6 1856/1/6 1863/1/6
f 1860/1/6 1861/1/6 1864/1/6
f 1859/1/6 1860/1/6 1864/1/6
f 1864/1/6 1861/1/6 1865/1/6
f 1854/2/6 1862/2/6 1866/2/6
f 1866/2/6 1862/2/6 1867/2/6
f 1865/1/6 1861/1/6 1868/1/6
f 1868/1/6 1861/1/6 1869/1/6
f 1866/1/6 1867/1/6 1870/1/6
f 1868/2/6 1869/2/6 1871/2/6
f 1866/1/6 1870/1/6 1872/1/6
f 1871/2/6 1869/2/6 1875/2/6
f 1875/2/6 1869/2/6 1876/2/6
f 1872/1/6 1873/1/6 1877/1/6
f 1866/1/6 1872/1/6 1877/1/6
f 1877/1/6 1873/1/6 1878/1/6
f 1878/1/6 1873/1/6 1879/1/6
f 1875/1/6 1876/1/6 1882/1/6
f 1874/1/6 1875/1/6 1882/1/6
f 1882/1/6 1876/1/6 1883/1/6
f 1883/1/6 1876/1/6 1884/1/6
f 1879/1/6 1880/1/6 1885/1/6
f 1878/1/6 1879/1/6 1885/1/6
f 1885/1/6 1880/1/6 1886/1/6
f 1886/1/6 1880/1/6 1887/1/6
f 1882/1/6 1883/1/6 1890/1/6
f 1881/1/6 1882/1/6 1890/1/6
f 1890/1/6 1883/1/6 1891/1/6
f 1891/1/6 1883/1/6 1892/1/6
f 1887/1/6 1888/1/6 1893/1/6
f 1886/1/6 1887/1/6 1893/1/6
f 1893/1/6 1888/1/6 1894/1/6
f 1894/1/6 1888/1/6 1895/1/6
f 1890/1/6 1891/1/6 1898/1/6
f 1889/1/6 1890/1/6 1898/1/6
f 1898/1/6 1891/1/6 1899/1/6
f 1899/1/6 1891/1/6 1900/1/6
f 1895/1/6 1896/1/6 1901/1/6
f 1894/1/6 1895/1/6 1901/1/6
f 1901/1/6 1896/1/6 1902/1/6
f 1902/1/6 1896/1/6 1903/1/6
f 1898/1/6 1899/1/6 1906/1/6
f 1897/1/6 1898/1/6 1906/1/6
f 1906/1/6 1899/1/6 1907/1/6
f 1907/1/6 1899/1/6 1908/1/6
f 1902/1/6 1903/1/6 1909/1/6
f 1903/2/6 1904/2/6 1910/2/6
f 1909/1/6 1903/1/6 1910/1/6
f 1910/2/6 1904/2/6 1911/2/6
f 1905/2/6 1906/2/6 1913/2/6
f 1906/1/6 1907/1/6 1914/1/6
f 1913/2/6 1906/2/6 1914/2/6
f 1914/1/6 1907/1/6 1915/1/6
f 1912/1/6 1913/1/6 1916/1/6
f 1911/1/6 1912/1/6 1916/1/6
f 1910/1/6 1911/1/6 1916/1/6
f 1913/2/6 1914/2/6 1917/2/6
f 1916/1/6 1913/1/6 1917/1/6
f 1917/2/6 1914/2/6 1918/2/6
f 1919/1/6 1920/1/6 1924/1/6
f 1924/1/6 1920/1/6 1925/1/6
f 1921/2/6 1922/2/6 1926/2/6
f 1926/2/6 1922/2/6 1927/2/6
f 1923/1/6 1924/1/6 1930/1/6
f 1930/1/6 1924/1/6 1931/1/6
f 1927/2/6 1928/2/6 1932/2/6
f 1932/2/6 1928/2/6 1933/2/6
f 1929/1/6 1930/1/6 1936/1/6
f 1936/1/6 1930/1/6 1937/1/6
f 1933/2/6 1934/2/6 1938/2/6
f 1938/2/6 1934/2/6 1939/2/6
f 1935/1/6 1936/1/6 1942/1/6
f 1942/1/6 1936/1/6 1943/1/6
f 1939/2/6 1940/2/6 1944/2/6
f 1944/2/6 1940/2/6 1945/2/6
f 1941/1/6 1942/1/6 1948/1/6
f 1948/1/6 1942/1/6 1949/1/6
f 1945/2/6 1946/2/6 1950/2/6
f 1950/2/6 1946/2/6 1951/2/6
f 1947/2/6 1948/2/6 1953/2/6
f 1953/2/6 1948/2/6 1954/2/6
f 1951/2/6 1952/2/6 1955/2/6
f 1955/2/6 1952/2/6 1956/2/6
f 1957/1/6 1958/1/6 1961/1/6
f 1961/1/6 1958/1/6 1962/1/6
f 1959/1/6 1960/1/6 1965/1/6
f 1965/1/6 1960/1/6 1966/1/6
f 1962/1/6 1963/1/6 1967/1/6
f 1967/1/6 1963/1/6 1968/1/6
f 1964/1/6 1965/1/6 1971/1/6
f 1971/1/6 1965/1/6 1972/1/6
f 1968/2/6 1969/2/6 1973/2/6
f 1973/2/6 1969/2/6 1974/2/6
f 1970/1/6 1971/1/6 1977/1/6
f 1977/1/6 1971/1/6 1978/1/6
f 1974/2/6 1975/2/6 1979/2/6
f 1979/2/6 1975/2/6 1980/2/6
f 1976/1/6 1977/1/6 1983/1/6
f 1983/1/6 1977/1/6 1984/1/6
f 1980/2/6 1981/2/6 1985/2/6
f 1985/2/6 1981/2/6 1986/2/6
f 1982/1/6 1983/1/6 1989/1/6
f 1989/1/6 1983/1/6 1990/1/6
f 1986/1/6 1987/1/6 1991/1/6
f 1991/1/6 1987/1/6 1992/1/6
f 1988/2/6 1989/2/6 1993/2/6
f 1993/2/6 1989/2/6 1994/2/6
f 1995/1/6 1996/1/6 1999/1/6
f 1996/2/6 1997/2/6 2000/2/6
f 1999/1/6 1996/1/6 2000/1/6
f 2000/2/6 1997/2/6 2001/2/6
f 1998/1/6 1999/1/6 2004/1/6
f 2004/1/6 1999/1/6 2005/1/6
f 2001/2/6 2002/2/6 2006/2/6
f 2006/2/6 2002/2/6 2007/2/6
f 2003/1/6 2004/1/6 2010/1/6
f 2010/1/6 2004/1/6 2011/1/6
f 2007/1/6 2008/1/6 2012/1/6
f 2012/1/6 2008/1/6 2013/1/6
f 2009/1/6 2010/1/6 2016/1/6
f 2016/1/6 2010/1/6 2017/1/6
f 2013/1/6 2014/1/6 2018/1/6
f 2018/1/6 2014/1/6 2019/1/6
f 2015/1/6 2016/1/6 2022/1/6
f 2022/1/6 2016/1/6 2023/1/6
f 2019/1/6 2020/1/6 2024/1/6
f 2024/1/6 2020/1/6 2025/1/6
f 2021/1/6 2022/1/6 2028/1/6
f 2028/1/6 2022/1/6 2029/1/6
f 2025/1/6 2026/1/6 2030/1/6
f 2030/1/6 2026/1/6 2031/1/6
f 2027/2/6 2028/2/6 2033/2/6
f 2027/2/6 2033/2/6 2034/2/6
f 2034/2/6 2033/2/6 2035/2/6
f 2034/1/6 2035/1/6 2036/1/6
f 2036/1/6 2035/1/6 2037/1/6
f 2031/1/6 2032/1/6 2040/1/6
f 2040/1/6 2032/1/6 2041/1/6
f 2037/1/6 2038/1/6 2042/1/6
f 2042/1/6 2038/1/6 2043/1/6
f 2039/1/6 2040/1/6 2046/1/6
f 2046/1/6 2040/1/6 2047/1/6
f 2043/1/6 2044/1/6 2048/1/6
f 2048/1/6 2044/1/6 2049/1/6
f 2045/1/6 2046/1/6 2052/1/6
f 2052/1/6 2046/1/6 2053/1/6
f 2049/1/6 2050/1/6 2054/1/6
f 2054/1/6 2050/1/6 2055/1/6
f 2051/1/6 2052/1/6 2058/1/6
f 2058/1/6 2052/1/6 2059/1/6
f 2055/1/6 2056/1/6 2060/1/6
f 2060/1/6 2056/1/6 2061/1/6
f 2057/1/6 2058/1/6 2064/1/6
f 2064/1/6 2058/1/6 2065/1/6
f 2061/1/6 2062/1/6 2066/1/6
f 2066/1/6 2062/1/6 2067/1/6
f 2063/2/6 2064/2/6 2070/2/6
f 2070/2/6 2064/2/6 2071/2/6
f 2068/1/6 2069/1/6 2072/1/6
f 2067/1/6 2068/1/6 2072/1/6
f 2069/2/6 2070/2/6 2073/2/6
f 2072/1/6 2069/1/6 2073/1/6
f 2073/2/6 2070/2/6 2074/2/6
f 2075/1/6 2076/1/6 2078/1/6
f 2078/1/6 2076/1/6 2079/1/6
f 2077/1/6 2078/1/6 2082/1/6
f 2082/1/6 2078/1/6 2083/1/6
f 2079/1/6 2080/1/6 2084/1/6
f 2084/1/6 2080/1/6 2085/1/6
f 2081/1/6 2082/1/6 2088/1/6
f 2088/1/6 2082/1/6 2089/1/6
f 2085/1/6 2086/1/6 2090/1/6
f 2090/1/6 2086/1/6 2091/1/6
f 2087/1/6 2088/1/6 2094/1/6
f 2094/1/6 2088/1/6 2095/1/6
f 2091/1/6 2092/1/6 2096/1/6
f 2096/1/6 2092/1/6 2097/1/6
f 2093/1/6 2094/1/6 2100/1/6
f 2100/1/6 2094/1/6 2101/1/6
f 2097/1/6 2098/1/6 2102/1/6
f 2102/1/6 2098/1/6 2103/1/6
f 2099/1/6 2100/1/6 2105/1/6
f 2105/1/6 2100/1/6 2106/1/6
f 2105/2/6 2106/2/6 2107/2/6
f 2105/2/6 2107/2/6 2108/2/6
f 2108/2/6 2107/2/6 2109/2/6
f 2103/1/6 2104/1/6 2112/1/6
f 2112/1/6 2104/1/6 2113/1/6
f 2109/2/6 2110/2/6 2114/2/6
f 2114/2/6 2110/2/6 2115/2/6
f 2111/1/6 2112/1/6 2118/1/6
f 2118/1/6 2112/1/6 2119/1/6
f 2115/1/6 2116/1/6 2120/1/6
f 2120/1/6 2116/1/6 2121/1/6
f 2117/1/6 2118/1/6 2124/1/6
f 2124/1/6 2118/1/6 2125/1/6
f 2121/1/6 2122/1/6 2126/1/6
f 2126/1/6 2122/1/6 2127/1/6
f 2123/1/6 2124/1/6 2130/1/6
f 2130/1/6 2124/1/6 2131/1/6
f 2127/1/6 2128/1/6 2132/1/6
f 2132/1/6 2128/1/6 2133/1/6
f 2129/1/6 2130/1/6 2136/1/6
f 2136/1/6 2130/1/6 2137/1/6
f 2133/1/6 2134/1/6 2138/1/6
f 2134/2/6 2135/2/6 2139/2/6
f 2138/1/6 2134/1/6 2139/1/6
f 2135/2/6 2136/2/6 2139/2/6
f 2139/2/6 2136/2/6 2140/2/6
f 2141/1/6 2142/1/6 2144/1/6
f 2144/1/6 2142/1/6 2145/1/6
f 2145/1/6 2142/1/6 2146/1/6
f 2146/1/6 2142/1/6 2147/1/6
f 2143/1/6 2144/1/6 2150/1/6
f 2144/1/6 2145/1/6 2150/1/6
f 2146/1/6 2147/1/6 2151/1/6
f 2147/1/6 2148/1/6 2151/1/6
f 2149/1/6 2150/1/6 2154/1/6
f 2150/1/6 2145/1/6 2155/1/6
f 2154/1/6 2150/1/6 2155/1/6
f 2155/1/6 2145/1/6 2156/1/6
f 2151/1/6 2152/1/6 2157/1/6
f 2146/1/6 2151/1/6 2157/1/6
f 2157/1/6 2152/1/6 2158/1/6
f 2158/1/6 2152/1/6 2159/1/6
f 2153/1/6 2154/1/6 2162/1/6
f 2154/1/6 2155/1/6 2162/1/6
f 2159/1/6 2160/1/6 2163/1/6
f 2158/1/6 2159/1/6 2163/1/6
f 2163/1/6 2160/1/6 2164/1/6
f 2164/1/6 2160/1/6 2165/1/6
f 2161/1/6 2162/1/6 2167/1/6
f 2162/1/6 2155/1/6 2167/1/6
f 2167/1/6 2155/1/6 2168/1/6
f 2165/1/6 2166/1/6 2169/1/6
f 2164/1/6 2165/1/6 2169/1/6
f 2169/1/6 2166/1/6 2170/1/6
f 2161/1/6 2167/1/6 2171/1/6
f 2171/1/6 2167/1/6 2172/1/6
f 2170/1/6 2166/1/6 2175/1/6
f 2171/2/6 2172/2/6 2176/2/6
f 2172/1/6 2173/1/6 2177/1/6
f 2176/2/6 2172/2/6 2177/2/6
f 2177/1/6 2173/1/6 2178/1/6
f 2174/1/6 2175/1/6 2179/1/6
f 2175/1/6 2166/1/6 2179/1/6
f 2179/1/6 2166/1/6 2180/1/6
f 2177/2/6 2178/2/6 2181/2/6
f 2178/1/6 2173/1/6 2182/1/6
f 2181/2/6 2178/2/6 2182/2/6
f 2182/1/6 2173/1/6 2183/1/6
f 2174/1/6 2179/1/6 2186/1/6
f 2186/1/6 2179/1/6 2187/1/6
f 2187/1/6 2179/1/6 2188/1/6
f 2182/2/6 2183/2/6 2189/2/6
f 2183/1/6 2184/1/6 2190/1/6
f 2189/2/6 2183/2/6 2190/2/6
f 2190/1/6 2184/1/6 2191/1/6
f 2186/1/6 2187/1/6 2192/1/6
f 2185/1/6 2186/1/6 2192/1/6
f 2192/1/6 2187/1/6 2193/1/6
f 2190/2/6 2191/2/6 2194/2/6
f 2191/1/6 2184/1/6 2195/1/6
f 2194/2/6 2191/2/6 2195/2/6
f 2195/1/6 2184/1/6 2196/1/6
f 2185/1/6 2192/1/6 2197/1/6
f 2197/1/6 2192/1/6 2198/1/6
f 2198/1/6 2192/1/6 2199/1/6
f 2195/2/6 2196/2/6 2200/2/6
f 2196/2/6 2197/2/6 2200/2/6
f 2197/1/6 2198/1/6 2201/1/6
f 2200/2/6 2197/2/6 2201/2/6
f 2201/1/6 2198/1/6 2202/1/6
f 2203/1/6 2204/1/6 2206/1/6
f 2206/1/6 2204/1/6 2207/1/6
f 2205/1/6 2206/1/6 2209/1/6
f 2209/1/6 2206/1/6 2210/1/6
f 2207/1/6 2208/1/6 2211/1/6
f 2211/1/6 2208/1/6 2212/1/6
f 2205/1/6 2209/1/6 2215/1/6
f 2215/1/6 2209/1/6 2216/1/6
f 2212/2/6 2213/2/6 2217/2/6
f 2217/2/6 2213/2/6 2218/2/6
f 2214/1/6 2215/1/6 2220/1/6
f 2220/1/6 2215/1/6 2221/1/6
f 2218/1/6 2219/1/6 2224/1/6
f 2224/1/6 2219/1/6 2225/1/6
f 2221/1/6 2222/1/6 2226/1/6
f 2223/1/6 2224/1/6 2229/1/6
f 2226/1/6 2227/1/6 2230/1/6
f 2221/1/6 2226/1/6 2230/1/6
f 2230/1/6 2227/1/6 2231/1/6
f 2228/1/6 2229/1/6 2232/1/6
f 2229/1/6 2224/1/6 2233/1/6
f 2232/1/6 2229/1/6 2233/1/6
f 2231/1/6 2232/1/6 2234/1/6
f 2234/1/6 2232/1/6 2235/1/6
f 2236/1/6 2237/1/6 2239/1/6
f 2239/1/6 2237/1/6 2240/1/6
f 2238/1/6 2239/1/6 2243/1/6
f 2243/1/6 2239/1/6 2244/1/6
f 2240/2/6 2241/2/6 2245/2/6
f 2245/2/6 2241/2/6 2246/2/6
f 2242/1/6 2243/1/6 2248/1/6
f 2248/1/6 2243/1/6 2249/1/6
f 2246/1/6 2247/1/6 2252/1/6
f 2252/1/6 2247/1/6 2253/1/6
f 2249/1/6 2250/1/6 2254/1/6
f 2254/1/6 2250/1/6 2255/1/6
f 2251/1/6 2252/1/6 2256/1/6
f 2256/1/6 2252/1/6 2257/1/6
f 2255/2/6 2256/2/6 2258/2/6
f 2258/2/6 2256/2/6 2259/2/6
f 2260/1/6 2261/1/6 2263/1/6
f 2263/1/6 2261/1/6 2264/1/6
f 2262/1/6 2263/1/6 2266/1/6
f 2266/1/6 2263/1/6 2267/1/6
f 2264/1/6 2265/1/6 2268/1/6
f 2268/1/6 2265/1/6 2269/1/6
f 2267/1/6 2268/1/6 2270/1/6
f 2270/1/6 2268/1/6 2271/1/6
f 2272/1/6 2273/1/6 2274/1/6
f 2274/1/6 2273/1/6 2275/1/6
