# MagicaVoxel @ Ephtracy

# group
o 

# material
mtllib turrethead.mtl
usemtl palette

# normals
vn -1 0 0
vn 1 0 0
vn 0 0 1
vn 0 0 -1
vn 0 -1 0
vn 0 1 0

# texcoords
vt 0.873047 0.5
vt 0.986328 0.5
vt 0.990234 0.5
vt 0.994141 0.5

# verts
v -0.8 0.8 0.7
v -0.8 0.8 -0.2
v -0.8 1 0.7
v -0.8 1 -0.2
v -0.7 0.7 0.7
v -0.7 0.7 -0.2
v -0.7 0.8 0.8
v -0.7 0.8 0.7
v -0.7 0.8 -0.2
v -0.7 0.8 -0.3
v -0.7 1 0.8
v -0.7 1 0.7
v -0.7 1 -0.2
v -0.7 1 -0.3
v -0.7 1.1 0.7
v -0.7 1.1 -0.2
v -0.6 0.7 0.8
v -0.6 0.7 0.7
v -0.6 0.7 -0.2
v -0.6 0.7 -0.3
v -0.6 0.8 0.9
v -0.6 0.8 0.8
v -0.6 0.8 0.7
v -0.6 0.8 -0.2
v -0.6 0.8 -0.3
v -0.6 0.8 -0.4
v -0.6 0.9 1
v -0.6 0.9 0.9
v -0.6 1 1.1
v -0.6 1 1
v -0.6 1 0.9
v -0.6 1 0.8
v -0.6 1 0.7
v -0.6 1 -0.2
v -0.6 1 -0.3
v -0.6 1 -0.4
v -0.6 1.1 1.1
v -0.6 1.1 0.7
v -0.6 1.1 -0.1
v -0.6 1.1 -0.2
v -0.6 1.1 -0.3
v -0.6 1.2 0.7
v -0.6 1.2 -0.1
v -0.5 0.7 -0.3
v -0.5 0.7 -0.4
v -0.5 0.8 -0.3
v -0.5 0.8 -0.4
v -0.5 0.8 -0.5
v -0.5 0.9 1.1
v -0.5 0.9 1
v -0.5 1 1.2
v -0.5 1 1.1
v -0.5 1 1
v -0.5 1 -0.3
v -0.5 1 -0.4
v -0.5 1 -0.5
v -0.5 1.1 1.2
v -0.5 1.1 1.1
v -0.5 1.1 0.8
v -0.5 1.1 0.7
v -0.5 1.1 -0.1
v -0.5 1.1 -0.2
v -0.5 1.1 -0.3
v -0.5 1.1 -0.4
v -0.5 1.2 0.8
v -0.5 1.2 0.7
v -0.5 1.2 -0.1
v -0.5 1.2 -0.2
v -0.4 0.7 -0.4
v -0.4 0.7 -0.5
v -0.4 0.8 -0.4
v -0.4 0.8 -0.5
v -0.4 0.8 -0.6
v -0.4 1 -0.4
v -0.4 1 -0.5
v -0.4 1 -0.6
v -0.4 1.1 -0.2
v -0.4 1.1 -0.3
v -0.4 1.1 -0.4
v -0.4 1.1 -0.5
v -0.4 1.2 -0.2
v -0.4 1.2 -0.3
v -0.3 1.1 -0.3
v -0.3 1.1 -0.4
v -0.3 1.2 -1.19209e-07
v -0.3 1.2 -0.1
v -0.3 1.2 -0.3
v -0.3 1.2 -0.4
v -0.3 1.3 -1.19209e-07
v -0.3 1.3 -0.1
v -0.2 0.5 0.4
v -0.2 0.5 0.2
v -0.2 0.6 0.5
v -0.2 0.6 0.4
v -0.2 0.6 0.2
v -0.2 0.6 0.0999999
v -0.2 0.7 0.5
v -0.2 0.7 0.4
v -0.2 0.7 0.0999999
v -0.2 1.2 -0.1
v -0.2 1.2 -0.2
v -0.2 1.3 -1.19209e-07
v -0.2 1.3 -0.1
v -0.2 1.3 -0.2
v -0.2 1.4 -1.19209e-07
v -0.2 1.4 -0.1
v -0.1 0.5 0.5
v -0.1 0.5 0.4
v -0.1 0.5 0.2
v -0.1 0.5 0.0999999
v -0.1 0.6 0.5
v -0.1 0.6 0.4
v -0.1 0.6 0.2
v -0.1 0.6 0.0999999
v -0.1 0.6 -1.19209e-07
v -0.1 0.7 0.5
v -0.1 0.7 0.4
v -0.1 0.7 0.0999999
v -0.1 0.7 -1.19209e-07
v -0.1 0.8 0.5
v -0.1 0.8 0.4
v -0.1 1.2 -0.2
v -0.1 1.2 -0.3
v -0.1 1.3 -0.1
v -0.1 1.3 -0.2
v -0.1 1.3 -0.3
v -0.1 1.4 -0.1
v -0.1 1.4 -0.2
v 5.96046e-08 0.5 0.0999999
v 5.96046e-08 0.5 -1.19209e-07
v 5.96046e-08 0.6 0.0999999
v 5.96046e-08 0.6 -1.19209e-07
v 5.96046e-08 0.6 -0.1
v 5.96046e-08 0.7 -1.19209e-07
v 5.96046e-08 0.7 -0.1
v 5.96046e-08 0.8 0.5
v 5.96046e-08 0.8 0.4
v 5.96046e-08 0.9 0.5
v 5.96046e-08 0.9 0.4
v 5.96046e-08 1.3 -0.2
v 5.96046e-08 1.3 -0.3
v 5.96046e-08 1.4 -0.2
v 5.96046e-08 1.4 -0.3
v 0.2 0.5 0.4
v 0.2 0.5 0.2
v 0.2 0.7 0.4
v 0.2 0.7 0.2
v 0.3 0.8 0.5
v 0.3 0.8 0.4
v 0.3 1 0.5
v 0.3 1 0.4
v 0.3 1 0.3
v 0.3 1.1 0.4
v 0.3 1.1 0.3
v 0.4 0.7 0.5
v 0.4 0.7 0.4
v 0.4 0.8 0.6
v 0.4 0.8 0.5
v 0.4 0.8 0.4
v 0.4 0.9 0.7
v 0.4 0.9 0.6
v 0.4 1 0.5
v 0.4 1 0.4
v 0.4 1.1 0.7
v 0.4 1.1 0.4
v 0.4 1.1 0.3
v 0.4 1.1 0.2
v 0.4 1.2 0.3
v 0.4 1.2 0.2
v 0.5 0.7 0.7
v 0.5 0.7 0.5
v 0.5 0.8 0.8
v 0.5 0.8 0.7
v 0.5 0.8 0.6
v 0.5 0.8 0.5
v 0.5 0.9 1.1
v 0.5 0.9 0.8
v 0.5 0.9 0.7
v 0.5 0.9 0.6
v 0.5 1 1.2
v 0.5 1 1.1
v 0.5 1 0.8
v 0.5 1 0.7
v 0.5 1.1 1.2
v 0.5 1.1 0.8
v 0.5 1.1 0.7
v 0.5 1.1 0.3
v 0.5 1.2 0.8
v 0.5 1.2 0.3
v 0.6 0.7 0.8
v 0.6 0.7 0.7
v 0.6 0.8 0.9
v 0.6 0.8 0.8
v 0.6 0.8 0.7
v 0.6 0.9 0.9
v 0.6 0.9 0.8
v -0.5 0.7 0.8
v -0.5 0.7 0.7
v -0.5 0.8 0.9
v -0.5 0.8 0.8
v -0.5 0.8 0.7
v -0.5 0.9 0.9
v -0.5 0.9 0.8
v -0.4 0.7 0.7
v -0.4 0.7 0.5
v -0.4 0.8 0.8
v -0.4 0.8 0.7
v -0.4 0.8 0.6
v -0.4 0.8 0.5
v -0.4 0.9 1.1
v -0.4 0.9 0.8
v -0.4 0.9 0.7
v -0.4 0.9 0.6
v -0.4 1 1.2
v -0.4 1 1.1
v -0.4 1 0.8
v -0.4 1 0.7
v -0.4 1.1 1.2
v -0.4 1.1 0.8
v -0.4 1.1 0.7
v -0.4 1.1 0.3
v -0.4 1.2 0.8
v -0.4 1.2 0.3
v -0.3 0.7 0.5
v -0.3 0.7 0.4
v -0.3 0.8 0.6
v -0.3 0.8 0.5
v -0.3 0.8 0.4
v -0.3 0.9 0.7
v -0.3 0.9 0.6
v -0.3 1 0.5
v -0.3 1 0.4
v -0.3 1.1 0.7
v -0.3 1.1 0.4
v -0.2 0.8 0.5
v -0.2 0.8 0.4
v -0.2 1 0.5
v -0.2 1 0.4
v -0.2 1 0.3
v -0.2 1.1 0.4
v -0.2 1.1 0.3
v -0.2 1.1 0.2
v -0.2 1.2 0.3
v -0.2 1.2 0.2
v -0.1 0.5 0.4
v -0.1 0.5 0.2
v -0.1 0.7 0.4
v -0.1 0.7 0.2
v 0.1 0.5 0.0999999
v 0.1 0.5 -1.19209e-07
v 0.1 0.6 0.0999999
v 0.1 0.6 -1.19209e-07
v 0.1 0.6 -0.1
v 0.1 0.7 -1.19209e-07
v 0.1 0.7 -0.1
v 0.1 0.8 0.5
v 0.1 0.8 0.4
v 0.1 0.9 0.5
v 0.1 0.9 0.4
v 0.1 1.3 -0.2
v 0.1 1.3 -0.3
v 0.1 1.4 -0.2
v 0.1 1.4 -0.3
v 0.2 0.5 0.5
v 0.2 0.5 0.4
v 0.2 0.5 0.2
v 0.2 0.5 0.0999999
v 0.2 0.6 0.5
v 0.2 0.6 0.4
v 0.2 0.6 0.2
v 0.2 0.6 0.0999999
v 0.2 0.6 -1.19209e-07
v 0.2 0.7 0.5
v 0.2 0.7 0.4
v 0.2 0.7 0.0999999
v 0.2 0.7 -1.19209e-07
v 0.2 0.8 0.5
v 0.2 0.8 0.4
v 0.2 1.2 -0.2
v 0.2 1.2 -0.3
v 0.2 1.3 -0.1
v 0.2 1.3 -0.2
v 0.2 1.3 -0.3
v 0.2 1.4 -0.1
v 0.2 1.4 -0.2
v 0.3 0.5 0.4
v 0.3 0.5 0.2
v 0.3 0.6 0.5
v 0.3 0.6 0.4
v 0.3 0.6 0.2
v 0.3 0.6 0.0999999
v 0.3 0.7 0.5
v 0.3 0.7 0.4
v 0.3 0.7 0.0999999
v 0.3 1.2 -0.1
v 0.3 1.2 -0.2
v 0.3 1.3 -1.19209e-07
v 0.3 1.3 -0.1
v 0.3 1.3 -0.2
v 0.3 1.4 -1.19209e-07
v 0.3 1.4 -0.1
v 0.4 1.1 -0.3
v 0.4 1.1 -0.4
v 0.4 1.2 -1.19209e-07
v 0.4 1.2 -0.1
v 0.4 1.2 -0.3
v 0.4 1.2 -0.4
v 0.4 1.3 -1.19209e-07
v 0.4 1.3 -0.1
v 0.5 0.7 -0.4
v 0.5 0.7 -0.5
v 0.5 0.8 -0.4
v 0.5 0.8 -0.5
v 0.5 0.8 -0.6
v 0.5 1 -0.4
v 0.5 1 -0.5
v 0.5 1 -0.6
v 0.5 1.1 -0.2
v 0.5 1.1 -0.3
v 0.5 1.1 -0.4
v 0.5 1.1 -0.5
v 0.5 1.2 -0.2
v 0.5 1.2 -0.3
v 0.6 0.7 -0.3
v 0.6 0.7 -0.4
v 0.6 0.8 -0.3
v 0.6 0.8 -0.4
v 0.6 0.8 -0.5
v 0.6 0.9 1.1
v 0.6 0.9 1
v 0.6 1 1.2
v 0.6 1 1.1
v 0.6 1 1
v 0.6 1 -0.3
v 0.6 1 -0.4
v 0.6 1 -0.5
v 0.6 1.1 1.2
v 0.6 1.1 1.1
v 0.6 1.1 0.8
v 0.6 1.1 0.7
v 0.6 1.1 -0.1
v 0.6 1.1 -0.2
v 0.6 1.1 -0.3
v 0.6 1.1 -0.4
v 0.6 1.2 0.8
v 0.6 1.2 0.7
v 0.6 1.2 -0.1
v 0.6 1.2 -0.2
v 0.7 0.7 0.8
v 0.7 0.7 0.7
v 0.7 0.7 -0.2
v 0.7 0.7 -0.3
v 0.7 0.8 0.9
v 0.7 0.8 0.8
v 0.7 0.8 0.7
v 0.7 0.8 -0.2
v 0.7 0.8 -0.3
v 0.7 0.8 -0.4
v 0.7 0.9 1
v 0.7 0.9 0.9
v 0.7 1 1.1
v 0.7 1 1
v 0.7 1 0.9
v 0.7 1 0.8
v 0.7 1 0.7
v 0.7 1 -0.2
v 0.7 1 -0.3
v 0.7 1 -0.4
v 0.7 1.1 1.1
v 0.7 1.1 0.7
v 0.7 1.1 -0.1
v 0.7 1.1 -0.2
v 0.7 1.1 -0.3
v 0.7 1.2 0.7
v 0.7 1.2 -0.1
v 0.8 0.7 0.7
v 0.8 0.7 -0.2
v 0.8 0.8 0.8
v 0.8 0.8 0.7
v 0.8 0.8 -0.2
v 0.8 0.8 -0.3
v 0.8 1 0.8
v 0.8 1 0.7
v 0.8 1 -0.2
v 0.8 1 -0.3
v 0.8 1.1 0.7
v 0.8 1.1 -0.2
v 0.9 0.8 0.7
v 0.9 0.8 -0.2
v 0.9 1 0.7
v 0.9 1 -0.2
v -0.5 1 1.2
v -0.5 1.1 1.2
v -0.4 1 1.2
v -0.4 1.1 1.2
v 0.5 1 1.2
v 0.5 1.1 1.2
v 0.6 1 1.2
v 0.6 1.1 1.2
v -0.6 1 1.1
v -0.6 1.1 1.1
v -0.5 0.9 1.1
v -0.5 1 1.1
v -0.5 1.1 1.1
v -0.4 0.9 1.1
v -0.4 1 1.1
v 0.5 0.9 1.1
v 0.5 1 1.1
v 0.6 0.9 1.1
v 0.6 1 1.1
v 0.6 1.1 1.1
v 0.7 1 1.1
v 0.7 1.1 1.1
v -0.6 0.9 1
v -0.6 1 1
v -0.5 0.9 1
v -0.5 1 1
v 0.6 0.9 1
v 0.6 1 1
v 0.7 0.9 1
v 0.7 1 1
v -0.6 0.8 0.9
v -0.6 0.9 0.9
v -0.5 0.8 0.9
v -0.5 0.9 0.9
v 0.6 0.8 0.9
v 0.6 0.9 0.9
v 0.7 0.8 0.9
v 0.7 0.9 0.9
v -0.7 0.8 0.8
v -0.7 1 0.8
v -0.6 0.7 0.8
v -0.6 0.8 0.8
v -0.6 1 0.8
v -0.5 0.7 0.8
v -0.5 0.8 0.8
v -0.5 0.9 0.8
v -0.5 1.1 0.8
v -0.5 1.2 0.8
v -0.4 0.8 0.8
v -0.4 0.9 0.8
v -0.4 1.1 0.8
v -0.4 1.2 0.8
v 0.5 0.8 0.8
v 0.5 0.9 0.8
v 0.5 1.1 0.8
v 0.5 1.2 0.8
v 0.6 0.7 0.8
v 0.6 0.8 0.8
v 0.6 0.9 0.8
v 0.6 1.1 0.8
v 0.6 1.2 0.8
v 0.7 0.7 0.8
v 0.7 0.8 0.8
v 0.7 1 0.8
v 0.8 0.8 0.8
v 0.8 1 0.8
v -0.8 0.8 0.7
v -0.8 1 0.7
v -0.7 0.7 0.7
v -0.7 0.8 0.7
v -0.7 1 0.7
v -0.7 1.1 0.7
v -0.6 0.7 0.7
v -0.6 0.8 0.7
v -0.6 1 0.7
v -0.6 1.1 0.7
v -0.6 1.2 0.7
v -0.5 0.7 0.7
v -0.5 0.8 0.7
v -0.5 1.1 0.7
v -0.5 1.2 0.7
v -0.4 0.7 0.7
v -0.4 0.8 0.7
v -0.4 0.9 0.7
v -0.4 1 0.7
v -0.4 1.1 0.7
v -0.3 0.9 0.7
v -0.3 1.1 0.7
v 0.4 0.9 0.7
v 0.4 1.1 0.7
v 0.5 0.7 0.7
v 0.5 0.8 0.7
v 0.5 0.9 0.7
v 0.5 1 0.7
v 0.5 1.1 0.7
v 0.6 0.7 0.7
v 0.6 0.8 0.7
v 0.6 1.1 0.7
v 0.6 1.2 0.7
v 0.7 0.7 0.7
v 0.7 0.8 0.7
v 0.7 1 0.7
v 0.7 1.1 0.7
v 0.7 1.2 0.7
v 0.8 0.7 0.7
v 0.8 0.8 0.7
v 0.8 1 0.7
v 0.8 1.1 0.7
v 0.9 0.8 0.7
v 0.9 1 0.7
v -0.4 0.8 0.6
v -0.4 0.9 0.6
v -0.3 0.8 0.6
v -0.3 0.9 0.6
v 0.4 0.8 0.6
v 0.4 0.9 0.6
v 0.5 0.8 0.6
v 0.5 0.9 0.6
v -0.4 0.7 0.5
v -0.4 0.8 0.5
v -0.3 0.7 0.5
v -0.3 0.8 0.5
v -0.3 1 0.5
v -0.2 0.6 0.5
v -0.2 0.7 0.5
v -0.2 0.8 0.5
v -0.2 1 0.5
v -0.1 0.5 0.5
v -0.1 0.6 0.5
v -0.1 0.7 0.5
v -0.1 0.8 0.5
v 5.96046e-08 0.8 0.5
v 5.96046e-08 0.9 0.5
v 0.1 0.8 0.5
v 0.1 0.9 0.5
v 0.2 0.5 0.5
v 0.2 0.6 0.5
v 0.2 0.7 0.5
v 0.2 0.8 0.5
v 0.3 0.6 0.5
v 0.3 0.7 0.5
v 0.3 0.8 0.5
v 0.3 1 0.5
v 0.4 0.7 0.5
v 0.4 0.8 0.5
v 0.4 1 0.5
v 0.5 0.7 0.5
v 0.5 0.8 0.5
v -0.3 0.7 0.4
v -0.3 0.8 0.4
v -0.3 1 0.4
v -0.3 1.1 0.4
v -0.2 0.5 0.4
v -0.2 0.6 0.4
v -0.2 0.7 0.4
v -0.2 0.8 0.4
v -0.2 1 0.4
v -0.2 1.1 0.4
v -0.1 0.5 0.4
v -0.1 0.6 0.4
v -0.1 0.7 0.4
v -0.1 0.8 0.4
v 5.96046e-08 0.8 0.4
v 5.96046e-08 0.9 0.4
v 0.1 0.8 0.4
v 0.1 0.9 0.4
v 0.2 0.5 0.4
v 0.2 0.6 0.4
v 0.2 0.7 0.4
v 0.2 0.8 0.4
v 0.3 0.5 0.4
v 0.3 0.6 0.4
v 0.3 0.7 0.4
v 0.3 0.8 0.4
v 0.3 1 0.4
v 0.3 1.1 0.4
v 0.4 0.7 0.4
v 0.4 0.8 0.4
v 0.4 1 0.4
v 0.4 1.1 0.4
v -0.4 1.1 0.3
v -0.4 1.2 0.3
v -0.2 1 0.3
v -0.2 1.1 0.3
v -0.2 1.2 0.3
v 0.3 1 0.3
v 0.3 1.1 0.3
v 0.4 1.1 0.3
v 0.4 1.2 0.3
v 0.5 1.1 0.3
v 0.5 1.2 0.3
v -0.2 1.1 0.2
v -0.2 1.2 0.2
v -0.1 0.5 0.2
v -0.1 0.7 0.2
v 0.2 0.5 0.2
v 0.2 0.7 0.2
v 0.4 1.1 0.2
v 0.4 1.2 0.2
v -0.3 1.2 -1.19209e-07
v -0.3 1.3 -1.19209e-07
v -0.2 1.2 -1.19209e-07
v -0.2 1.3 -1.19209e-07
v -0.2 1.4 -1.19209e-07
v -0.1 1.2 -1.19209e-07
v -0.1 1.3 -1.19209e-07
v 0.2 1.2 -1.19209e-07
v 0.2 1.3 -1.19209e-07
v 0.3 1.2 -1.19209e-07
v 0.3 1.3 -1.19209e-07
v 0.3 1.4 -1.19209e-07
v 0.4 1.2 -1.19209e-07
v 0.4 1.3 -1.19209e-07
v -0.1 0.5 0.4
v -0.1 0.7 0.4
v 0.2 0.5 0.4
v 0.2 0.7 0.4
v -0.2 0.5 0.2
v -0.2 0.6 0.2
v -0.1 0.5 0.2
v -0.1 0.6 0.2
v 0.2 0.5 0.2
v 0.2 0.6 0.2
v 0.3 0.5 0.2
v 0.3 0.6 0.2
v -0.2 0.6 0.0999999
v -0.2 0.7 0.0999999
v -0.1 0.5 0.0999999
v -0.1 0.6 0.0999999
v -0.1 0.7 0.0999999
v 5.96046e-08 0.5 0.0999999
v 5.96046e-08 0.6 0.0999999
v 0.1 0.5 0.0999999
v 0.1 0.6 0.0999999
v 0.2 0.5 0.0999999
v 0.2 0.6 0.0999999
v 0.2 0.7 0.0999999
v 0.3 0.6 0.0999999
v 0.3 0.7 0.0999999
v -0.1 0.6 -1.19209e-07
v -0.1 0.7 -1.19209e-07
v 5.96046e-08 0.5 -1.19209e-07
v 5.96046e-08 0.6 -1.19209e-07
v 5.96046e-08 0.7 -1.19209e-07
v 0.1 0.5 -1.19209e-07
v 0.1 0.6 -1.19209e-07
v 0.1 0.7 -1.19209e-07
v 0.2 0.6 -1.19209e-07
v 0.2 0.7 -1.19209e-07
v -0.6 1.1 -0.1
v -0.6 1.2 -0.1
v -0.5 1.1 -0.1
v -0.5 1.2 -0.1
v -0.3 1.2 -0.1
v -0.3 1.3 -0.1
v -0.2 1.2 -0.1
v -0.2 1.3 -0.1
v -0.2 1.4 -0.1
v -0.1 1.3 -0.1
v -0.1 1.4 -0.1
v 5.96046e-08 0.6 -0.1
v 5.96046e-08 0.7 -0.1
v 0.1 0.6 -0.1
v 0.1 0.7 -0.1
v 0.2 1.3 -0.1
v 0.2 1.4 -0.1
v 0.3 1.2 -0.1
v 0.3 1.3 -0.1
v 0.3 1.4 -0.1
v 0.4 1.2 -0.1
v 0.4 1.3 -0.1
v 0.6 1.1 -0.1
v 0.6 1.2 -0.1
v 0.7 1.1 -0.1
v 0.7 1.2 -0.1
v -0.8 0.8 -0.2
v -0.8 1 -0.2
v -0.7 0.7 -0.2
v -0.7 0.8 -0.2
v -0.7 1 -0.2
v -0.7 1.1 -0.2
v -0.6 0.7 -0.2
v -0.6 0.8 -0.2
v -0.6 1 -0.2
v -0.6 1.1 -0.2
v -0.5 1.1 -0.2
v -0.5 1.2 -0.2
v -0.4 1.1 -0.2
v -0.4 1.2 -0.2
v -0.2 1.2 -0.2
v -0.2 1.3 -0.2
v -0.1 1.2 -0.2
v -0.1 1.3 -0.2
v -0.1 1.4 -0.2
v 5.96046e-08 1.3 -0.2
v 5.96046e-08 1.4 -0.2
v 0.1 1.3 -0.2
v 0.1 1.4 -0.2
v 0.2 1.2 -0.2
v 0.2 1.3 -0.2
v 0.2 1.4 -0.2
v 0.3 1.2 -0.2
v 0.3 1.3 -0.2
v 0.5 1.1 -0.2
v 0.5 1.2 -0.2
v 0.6 1.1 -0.2
v 0.6 1.2 -0.2
v 0.7 0.7 -0.2
v 0.7 0.8 -0.2
v 0.7 1 -0.2
v 0.7 1.1 -0.2
v 0.8 0.7 -0.2
v 0.8 0.8 -0.2
v 0.8 1 -0.2
v 0.8 1.1 -0.2
v 0.9 0.8 -0.2
v 0.9 1 -0.2
v -0.7 0.8 -0.3
v -0.7 1 -0.3
v -0.6 0.7 -0.3
v -0.6 0.8 -0.3
v -0.6 1 -0.3
v -0.6 1.1 -0.3
v -0.5 0.7 -0.3
v -0.5 0.8 -0.3
v -0.5 1 -0.3
v -0.5 1.1 -0.3
v -0.4 1.1 -0.3
v -0.4 1.2 -0.3
v -0.3 1.1 -0.3
v -0.3 1.2 -0.3
v -0.1 1.2 -0.3
v -0.1 1.3 -0.3
v 5.96046e-08 1.3 -0.3
v 5.96046e-08 1.4 -0.3
v 0.1 1.3 -0.3
v 0.1 1.4 -0.3
v 0.2 1.2 -0.3
v 0.2 1.3 -0.3
v 0.4 1.1 -0.3
v 0.4 1.2 -0.3
v 0.5 1.1 -0.3
v 0.5 1.2 -0.3
v 0.6 0.7 -0.3
v 0.6 0.8 -0.3
v 0.6 1 -0.3
v 0.6 1.1 -0.3
v 0.7 0.7 -0.3
v 0.7 0.8 -0.3
v 0.7 1 -0.3
v 0.7 1.1 -0.3
v 0.8 0.8 -0.3
v 0.8 1 -0.3
v -0.6 0.8 -0.4
v -0.6 1 -0.4
v -0.5 0.7 -0.4
v -0.5 0.8 -0.4
v -0.5 1 -0.4
v -0.5 1.1 -0.4
v -0.4 0.7 -0.4
v -0.4 0.8 -0.4
v -0.4 1 -0.4
v -0.4 1.1 -0.4
v -0.3 1.1 -0.4
v -0.3 1.2 -0.4
v 0.4 1.1 -0.4
v 0.4 1.2 -0.4
v 0.5 0.7 -0.4
v 0.5 0.8 -0.4
v 0.5 1 -0.4
v 0.5 1.1 -0.4
v 0.6 0.7 -0.4
v 0.6 0.8 -0.4
v 0.6 1 -0.4
v 0.6 1.1 -0.4
v 0.7 0.8 -0.4
v 0.7 1 -0.4
v -0.5 0.8 -0.5
v -0.5 1 -0.5
v -0.4 0.7 -0.5
v -0.4 0.8 -0.5
v -0.4 1 -0.5
v -0.4 1.1 -0.5
v 0.5 0.7 -0.5
v 0.5 0.8 -0.5
v 0.5 1 -0.5
v 0.5 1.1 -0.5
v 0.6 0.8 -0.5
v 0.6 1 -0.5
v -0.4 0.8 -0.6
v -0.4 1 -0.6
v 0.5 0.8 -0.6
v 0.5 1 -0.6
v -0.1 0.5 0.5
v 0.2 0.5 0.5
v -0.2 0.5 0.4
v -0.1 0.5 0.4
v 0.2 0.5 0.4
v 0.3 0.5 0.4
v -0.2 0.5 0.2
v -0.1 0.5 0.2
v 0.2 0.5 0.2
v 0.3 0.5 0.2
v -0.1 0.5 0.0999999
v 5.96046e-08 0.5 0.0999999
v 0.1 0.5 0.0999999
v 0.2 0.5 0.0999999
v 5.96046e-08 0.5 -1.19209e-07
v 0.1 0.5 -1.19209e-07
v -0.2 0.6 0.5
v -0.1 0.6 0.5
v 0.2 0.6 0.5
v 0.3 0.6 0.5
v -0.2 0.6 0.4
v -0.1 0.6 0.4
v 0.2 0.6 0.4
v 0.3 0.6 0.4
v -0.2 0.6 0.2
v -0.1 0.6 0.2
v 0.2 0.6 0.2
v 0.3 0.6 0.2
v -0.2 0.6 0.0999999
v -0.1 0.6 0.0999999
v 5.96046e-08 0.6 0.0999999
v 0.1 0.6 0.0999999
v 0.2 0.6 0.0999999
v 0.3 0.6 0.0999999
v -0.1 0.6 -1.19209e-07
v 5.96046e-08 0.6 -1.19209e-07
v 0.1 0.6 -1.19209e-07
v 0.2 0.6 -1.19209e-07
v 5.96046e-08 0.6 -0.1
v 0.1 0.6 -0.1
v -0.6 0.7 0.8
v -0.5 0.7 0.8
v 0.6 0.7 0.8
v 0.7 0.7 0.8
v -0.7 0.7 0.7
v -0.6 0.7 0.7
v -0.5 0.7 0.7
v -0.4 0.7 0.7
v 0.5 0.7 0.7
v 0.6 0.7 0.7
v 0.7 0.7 0.7
v 0.8 0.7 0.7
v -0.4 0.7 0.5
v -0.3 0.7 0.5
v 0.4 0.7 0.5
v 0.5 0.7 0.5
v -0.3 0.7 0.4
v -0.2 0.7 0.4
v -0.1 0.7 0.4
v 0.2 0.7 0.4
v 0.3 0.7 0.4
v 0.4 0.7 0.4
v -0.1 0.7 0.2
v 0.2 0.7 0.2
v -0.2 0.7 0.0999999
v -0.1 0.7 0.0999999
v 0.2 0.7 0.0999999
v 0.3 0.7 0.0999999
v -0.1 0.7 -1.19209e-07
v 5.96046e-08 0.7 -1.19209e-07
v 0.1 0.7 -1.19209e-07
v 0.2 0.7 -1.19209e-07
v 5.96046e-08 0.7 -0.1
v 0.1 0.7 -0.1
v -0.7 0.7 -0.2
v -0.6 0.7 -0.2
v 0.7 0.7 -0.2
v 0.8 0.7 -0.2
v -0.6 0.7 -0.3
v -0.5 0.7 -0.3
v 0.6 0.7 -0.3
v 0.7 0.7 -0.3
v -0.5 0.7 -0.4
v -0.4 0.7 -0.4
v 0.5 0.7 -0.4
v 0.6 0.7 -0.4
v -0.4 0.7 -0.5
v 0.5 0.7 -0.5
v -0.6 0.8 0.9
v -0.5 0.8 0.9
v 0.6 0.8 0.9
v 0.7 0.8 0.9
v -0.7 0.8 0.8
v -0.6 0.8 0.8
v -0.5 0.8 0.8
v -0.4 0.8 0.8
v 0.5 0.8 0.8
v 0.6 0.8 0.8
v 0.7 0.8 0.8
v 0.8 0.8 0.8
v -0.8 0.8 0.7
v -0.7 0.8 0.7
v -0.6 0.8 0.7
v -0.5 0.8 0.7
v -0.4 0.8 0.7
v 0.5 0.8 0.7
v 0.6 0.8 0.7
v 0.7 0.8 0.7
v 0.8 0.8 0.7
v 0.9 0.8 0.7
v -0.4 0.8 0.6
v -0.3 0.8 0.6
v 0.4 0.8 0.6
v 0.5 0.8 0.6
v -0.4 0.8 0.5
v -0.3 0.8 0.5
v -0.2 0.8 0.5
v 0.3 0.8 0.5
v 0.4 0.8 0.5
v 0.5 0.8 0.5
v -0.3 0.8 0.4
v -0.2 0.8 0.4
v 0.3 0.8 0.4
v 0.4 0.8 0.4
v -0.8 0.8 -0.2
v -0.7 0.8 -0.2
v -0.6 0.8 -0.2
v 0.7 0.8 -0.2
v 0.8 0.8 -0.2
v 0.9 0.8 -0.2
v -0.7 0.8 -0.3
v -0.6 0.8 -0.3
v -0.5 0.8 -0.3
v 0.6 0.8 -0.3
v 0.7 0.8 -0.3
v 0.8 0.8 -0.3
v -0.6 0.8 -0.4
v -0.5 0.8 -0.4
v -0.4 0.8 -0.4
v 0.5 0.8 -0.4
v 0.6 0.8 -0.4
v 0.7 0.8 -0.4
v -0.5 0.8 -0.5
v -0.4 0.8 -0.5
v 0.5 0.8 -0.5
v 0.6 0.8 -0.5
v -0.4 0.8 -0.6
v 0.5 0.8 -0.6
v -0.5 0.9 1.1
v -0.4 0.9 1.1
v 0.5 0.9 1.1
v 0.6 0.9 1.1
v -0.6 0.9 1
v -0.5 0.9 1
v 0.6 0.9 1
v 0.7 0.9 1
v -0.6 0.9 0.9
v -0.5 0.9 0.9
v 0.6 0.9 0.9
v 0.7 0.9 0.9
v -0.5 0.9 0.8
v -0.4 0.9 0.8
v 0.5 0.9 0.8
v 0.6 0.9 0.8
v -0.4 0.9 0.7
v -0.3 0.9 0.7
v 0.4 0.9 0.7
v 0.5 0.9 0.7
v -0.4 0.9 0.6
v -0.3 0.9 0.6
v 0.4 0.9 0.6
v 0.5 0.9 0.6
v -0.5 1 1.2
v -0.4 1 1.2
v 0.5 1 1.2
v 0.6 1 1.2
v -0.6 1 1.1
v -0.5 1 1.1
v -0.4 1 1.1
v 0.5 1 1.1
v 0.6 1 1.1
v 0.7 1 1.1
v -0.6 1 1
v -0.5 1 1
v 0.6 1 1
v 0.7 1 1
v -0.2 0.7 0.5
v -0.1 0.7 0.5
v 0.2 0.7 0.5
v 0.3 0.7 0.5
v -0.2 0.7 0.4
v -0.1 0.7 0.4
v 0.2 0.7 0.4
v 0.3 0.7 0.4
v -0.1 0.8 0.5
v 5.96046e-08 0.8 0.5
v 0.1 0.8 0.5
v 0.2 0.8 0.5
v -0.1 0.8 0.4
v 5.96046e-08 0.8 0.4
v 0.1 0.8 0.4
v 0.2 0.8 0.4
v 5.96046e-08 0.9 0.5
v 0.1 0.9 0.5
v 5.96046e-08 0.9 0.4
v 0.1 0.9 0.4
v -0.7 1 0.8
v -0.6 1 0.8
v 0.7 1 0.8
v 0.8 1 0.8
v -0.8 1 0.7
v -0.7 1 0.7
v -0.6 1 0.7
v 0.7 1 0.7
v 0.8 1 0.7
v 0.9 1 0.7
v -0.3 1 0.5
v -0.2 1 0.5
v 0.3 1 0.5
v 0.4 1 0.5
v -0.3 1 0.4
v -0.2 1 0.4
v 0.3 1 0.4
v 0.4 1 0.4
v -0.2 1 0.3
v 0.3 1 0.3
v -0.8 1 -0.2
v -0.7 1 -0.2
v -0.6 1 -0.2
v 0.7 1 -0.2
v 0.8 1 -0.2
v 0.9 1 -0.2
v -0.7 1 -0.3
v -0.6 1 -0.3
v -0.5 1 -0.3
v 0.6 1 -0.3
v 0.7 1 -0.3
v 0.8 1 -0.3
v -0.6 1 -0.4
v -0.5 1 -0.4
v -0.4 1 -0.4
v 0.5 1 -0.4
v 0.6 1 -0.4
v 0.7 1 -0.4
v -0.5 1 -0.5
v -0.4 1 -0.5
v 0.5 1 -0.5
v 0.6 1 -0.5
v -0.4 1 -0.6
v 0.5 1 -0.6
v -0.5 1.1 1.2
v -0.4 1.1 1.2
v 0.5 1.1 1.2
v 0.6 1.1 1.2
v -0.6 1.1 1.1
v -0.5 1.1 1.1
v 0.6 1.1 1.1
v 0.7 1.1 1.1
v -0.5 1.1 0.8
v -0.4 1.1 0.8
v 0.5 1.1 0.8
v 0.6 1.1 0.8
v -0.7 1.1 0.7
v -0.6 1.1 0.7
v -0.5 1.1 0.7
v -0.4 1.1 0.7
v -0.3 1.1 0.7
v 0.4 1.1 0.7
v 0.5 1.1 0.7
v 0.6 1.1 0.7
v 0.7 1.1 0.7
v 0.8 1.1 0.7
v -0.3 1.1 0.4
v -0.2 1.1 0.4
v 0.3 1.1 0.4
v 0.4 1.1 0.4
v -0.4 1.1 0.3
v -0.2 1.1 0.3
v 0.3 1.1 0.3
v 0.4 1.1 0.3
v 0.5 1.1 0.3
v -0.2 1.1 0.2
v 0.4 1.1 0.2
v -0.6 1.1 -0.1
v -0.5 1.1 -0.1
v 0.6 1.1 -0.1
v 0.7 1.1 -0.1
v -0.7 1.1 -0.2
v -0.6 1.1 -0.2
v -0.5 1.1 -0.2
v -0.4 1.1 -0.2
v 0.5 1.1 -0.2
v 0.6 1.1 -0.2
v 0.7 1.1 -0.2
v 0.8 1.1 -0.2
v -0.6 1.1 -0.3
v -0.5 1.1 -0.3
v -0.4 1.1 -0.3
v -0.3 1.1 -0.3
v 0.4 1.1 -0.3
v 0.5 1.1 -0.3
v 0.6 1.1 -0.3
v 0.7 1.1 -0.3
v -0.5 1.1 -0.4
v -0.4 1.1 -0.4
v -0.3 1.1 -0.4
v 0.4 1.1 -0.4
v 0.5 1.1 -0.4
v 0.6 1.1 -0.4
v -0.4 1.1 -0.5
v 0.5 1.1 -0.5
v -0.5 1.2 0.8
v -0.4 1.2 0.8
v 0.5 1.2 0.8
v 0.6 1.2 0.8
v -0.6 1.2 0.7
v -0.5 1.2 0.7
v 0.6 1.2 0.7
v 0.7 1.2 0.7
v -0.4 1.2 0.3
v -0.2 1.2 0.3
v 0.4 1.2 0.3
v 0.5 1.2 0.3
v -0.2 1.2 0.2
v 0.4 1.2 0.2
v -0.2 1.2 0.0999999
v 0.3 1.2 0.0999999
v -0.3 1.2 -1.19209e-07
v -0.2 1.2 -1.19209e-07
v -0.1 1.2 -1.19209e-07
v 0.2 1.2 -1.19209e-07
v 0.3 1.2 -1.19209e-07
v 0.4 1.2 -1.19209e-07
v -0.6 1.2 -0.1
v -0.5 1.2 -0.1
v -0.3 1.2 -0.1
v -0.2 1.2 -0.1
v 0.3 1.2 -0.1
v 0.4 1.2 -0.1
v 0.6 1.2 -0.1
v 0.7 1.2 -0.1
v -0.5 1.2 -0.2
v -0.4 1.2 -0.2
v -0.2 1.2 -0.2
v -0.1 1.2 -0.2
v 0.2 1.2 -0.2
v 0.3 1.2 -0.2
v 0.5 1.2 -0.2
v 0.6 1.2 -0.2
v -0.4 1.2 -0.3
v -0.3 1.2 -0.3
v -0.1 1.2 -0.3
v 0.2 1.2 -0.3
v 0.4 1.2 -0.3
v 0.5 1.2 -0.3
v -0.3 1.2 -0.4
v 0.4 1.2 -0.4
v -0.3 1.3 -1.19209e-07
v -0.2 1.3 -1.19209e-07
v 0.3 1.3 -1.19209e-07
v 0.4 1.3 -1.19209e-07
v -0.3 1.3 -0.1
v -0.2 1.3 -0.1
v -0.1 1.3 -0.1
v 0.2 1.3 -0.1
v 0.3 1.3 -0.1
v 0.4 1.3 -0.1
v -0.2 1.3 -0.2
v -0.1 1.3 -0.2
v 5.96046e-08 1.3 -0.2
v 0.1 1.3 -0.2
v 0.2 1.3 -0.2
v 0.3 1.3 -0.2
v -0.1 1.3 -0.3
v 5.96046e-08 1.3 -0.3
v 0.1 1.3 -0.3
v 0.2 1.3 -0.3
v -0.2 1.4 -1.19209e-07
v 0.3 1.4 -1.19209e-07
v -0.2 1.4 -0.1
v -0.1 1.4 -0.1
v 0.2 1.4 -0.1
v 0.3 1.4 -0.1
v -0.1 1.4 -0.2
v 5.96046e-08 1.4 -0.2
v 0.1 1.4 -0.2
v 0.2 1.4 -0.2
v 5.96046e-08 1.4 -0.3
v 0.1 1.4 -0.3

# faces
f 3/2/1 2/2/1 1/2/1
f 4/2/1 2/2/1 3/2/1
f 8/2/1 6/2/1 5/2/1
f 9/2/1 6/2/1 8/2/1
f 11/2/1 8/2/1 7/2/1
f 12/2/1 8/2/1 11/2/1
f 13/2/1 10/2/1 9/2/1
f 14/2/1 10/2/1 13/2/1
f 15/2/1 13/2/1 12/2/1
f 16/2/1 13/2/1 15/2/1
f 22/2/1 18/2/1 17/2/1
f 23/2/1 18/2/1 22/2/1
f 24/2/1 20/2/1 19/2/1
f 25/2/1 20/2/1 24/2/1
f 28/2/1 22/2/1 21/2/1
f 30/3/1 28/3/1 27/3/1
f 31/2/1 22/2/1 28/2/1
f 31/3/1 28/3/1 30/3/1
f 32/2/1 22/2/1 31/2/1
f 35/2/1 26/2/1 25/2/1
f 36/2/1 26/2/1 35/2/1
f 37/3/1 33/3/1 32/3/1
f 37/3/1 30/3/1 29/3/1
f 37/3/1 31/3/1 30/3/1
f 37/3/1 32/3/1 31/3/1
f 38/3/1 33/3/1 37/3/1
f 40/2/1 35/2/1 34/2/1
f 41/2/1 35/2/1 40/2/1
f 42/2/1 39/2/1 38/2/1
f 43/2/1 39/2/1 42/2/1
f 46/2/1 45/2/1 44/2/1
f 47/2/1 45/2/1 46/2/1
f 52/3/1 50/3/1 49/3/1
f 53/3/1 50/3/1 52/3/1
f 55/2/1 48/2/1 47/2/1
f 56/2/1 48/2/1 55/2/1
f 57/3/1 52/3/1 51/3/1
f 58/3/1 52/3/1 57/3/1
f 63/2/1 55/2/1 54/2/1
f 64/2/1 55/2/1 63/2/1
f 65/2/1 60/2/1 59/2/1
f 66/2/1 60/2/1 65/2/1
f 67/2/1 62/2/1 61/2/1
f 68/2/1 62/2/1 67/2/1
f 71/2/1 70/2/1 69/2/1
f 72/2/1 70/2/1 71/2/1
f 75/2/1 73/2/1 72/2/1
f 76/2/1 73/2/1 75/2/1
f 79/2/1 75/2/1 74/2/1
f 80/2/1 75/2/1 79/2/1
f 81/2/1 78/2/1 77/2/1
f 82/2/1 78/2/1 81/2/1
f 87/2/1 84/2/1 83/2/1
f 88/2/1 84/2/1 87/2/1
f 89/4/1 86/4/1 85/4/1
f 90/4/1 86/4/1 89/4/1
f 94/2/1 92/2/1 91/2/1
f 95/2/1 92/2/1 94/2/1
f 97/2/1 94/2/1 93/2/1
f 97/2/1 96/2/1 95/2/1
f 97/2/1 95/2/1 94/2/1
f 98/2/1 96/2/1 97/2/1
f 99/2/1 96/2/1 98/2/1
f 103/4/1 101/4/1 100/4/1
f 104/4/1 101/4/1 103/4/1
f 105/4/1 103/4/1 102/4/1
f 106/4/1 103/4/1 105/4/1
f 111/2/1 108/2/1 107/2/1
f 112/2/1 108/2/1 111/2/1
f 113/2/1 110/2/1 109/2/1
f 114/2/1 110/2/1 113/2/1
f 118/2/1 115/2/1 114/2/1
f 119/2/1 115/2/1 118/2/1
f 120/2/1 117/2/1 116/2/1
f 121/2/1 117/2/1 120/2/1
f 125/4/1 123/4/1 122/4/1
f 126/4/1 123/4/1 125/4/1
f 127/4/1 125/4/1 124/4/1
f 128/4/1 125/4/1 127/4/1
f 131/2/1 130/2/1 129/2/1
f 132/2/1 130/2/1 131/2/1
f 134/2/1 133/2/1 132/2/1
f 135/2/1 133/2/1 134/2/1
f 138/2/1 137/2/1 136/2/1
f 139/2/1 137/2/1 138/2/1
f 142/4/1 141/4/1 140/4/1
f 143/4/1 141/4/1 142/4/1
f 146/2/1 145/2/1 144/2/1
f 147/2/1 145/2/1 146/2/1
f 150/2/1 149/2/1 148/2/1
f 151/2/1 149/2/1 150/2/1
f 153/2/1 152/2/1 151/2/1
f 154/2/1 152/2/1 153/2/1
f 158/2/1 156/2/1 155/2/1
f 159/2/1 156/2/1 158/2/1
f 161/2/1 158/2/1 157/2/1
f 162/2/1 158/2/1 161/2/1
f 162/2/1 161/2/1 160/2/1
f 164/2/1 162/2/1 160/2/1
f 164/2/1 163/2/1 162/2/1
f 165/2/1 163/2/1 164/2/1
f 168/2/1 167/2/1 166/2/1
f 169/2/1 167/2/1 168/2/1
f 173/2/1 171/2/1 170/2/1
f 174/2/1 171/2/1 173/2/1
f 175/2/1 171/2/1 174/2/1
f 177/2/1 173/2/1 172/2/1
f 177/2/1 174/2/1 173/2/1
f 178/2/1 174/2/1 177/2/1
f 179/2/1 174/2/1 178/2/1
f 181/3/1 177/3/1 176/3/1
f 182/2/1 178/2/1 177/2/1
f 182/3/1 177/3/1 181/3/1
f 183/2/1 178/2/1 182/2/1
f 184/3/1 181/3/1 180/3/1
f 184/3/1 182/3/1 181/3/1
f 184/3/1 183/3/1 182/3/1
f 185/3/1 183/3/1 184/3/1
f 186/3/1 183/3/1 185/3/1
f 188/2/1 186/2/1 185/2/1
f 188/2/1 187/2/1 186/2/1
f 189/2/1 187/2/1 188/2/1
f 193/2/1 191/2/1 190/2/1
f 194/2/1 191/2/1 193/2/1
f 195/2/1 193/2/1 192/2/1
f 196/2/1 193/2/1 195/2/1
f 197/2/2 198/2/2 200/2/2
f 200/2/2 198/2/2 201/2/2
f 199/2/2 200/2/2 202/2/2
f 202/2/2 200/2/2 203/2/2
f 204/2/2 205/2/2 207/2/2
f 207/2/2 205/2/2 208/2/2
f 208/2/2 205/2/2 209/2/2
f 206/2/2 207/2/2 211/2/2
f 207/2/2 208/2/2 211/2/2
f 211/2/2 208/2/2 212/2/2
f 212/2/2 208/2/2 213/2/2
f 210/3/2 211/3/2 215/3/2
f 211/2/2 212/2/2 216/2/2
f 215/3/2 211/3/2 216/3/2
f 216/2/2 212/2/2 217/2/2
f 214/3/2 215/3/2 218/3/2
f 215/3/2 216/3/2 218/3/2
f 216/3/2 217/3/2 218/3/2
f 218/3/2 217/3/2 219/3/2
f 219/3/2 217/3/2 220/3/2
f 219/2/2 220/2/2 222/2/2
f 220/2/2 221/2/2 222/2/2
f 222/2/2 221/2/2 223/2/2
f 224/2/2 225/2/2 227/2/2
f 227/2/2 225/2/2 228/2/2
f 226/2/2 227/2/2 230/2/2
f 230/2/2 227/2/2 231/2/2
f 229/2/2 230/2/2 231/2/2
f 229/2/2 231/2/2 233/2/2
f 231/2/2 232/2/2 233/2/2
f 233/2/2 232/2/2 234/2/2
f 235/2/2 236/2/2 237/2/2
f 237/2/2 236/2/2 238/2/2
f 238/2/2 239/2/2 240/2/2
f 240/2/2 239/2/2 241/2/2
f 241/2/2 242/2/2 243/2/2
f 243/2/2 242/2/2 244/2/2
f 245/2/2 246/2/2 247/2/2
f 247/2/2 246/2/2 248/2/2
f 249/2/2 250/2/2 251/2/2
f 251/2/2 250/2/2 252/2/2
f 252/2/2 253/2/2 254/2/2
f 254/2/2 253/2/2 255/2/2
f 256/2/2 257/2/2 258/2/2
f 258/2/2 257/2/2 259/2/2
f 260/4/2 261/4/2 262/4/2
f 262/4/2 261/4/2 263/4/2
f 264/2/2 265/2/2 268/2/2
f 268/2/2 265/2/2 269/2/2
f 266/2/2 267/2/2 270/2/2
f 270/2/2 267/2/2 271/2/2
f 271/2/2 272/2/2 275/2/2
f 275/2/2 272/2/2 276/2/2
f 273/2/2 274/2/2 277/2/2
f 277/2/2 274/2/2 278/2/2
f 279/4/2 280/4/2 282/4/2
f 282/4/2 280/4/2 283/4/2
f 281/4/2 282/4/2 284/4/2
f 284/4/2 282/4/2 285/4/2
f 286/2/2 287/2/2 289/2/2
f 289/2/2 287/2/2 290/2/2
f 288/2/2 289/2/2 292/2/2
f 290/2/2 291/2/2 292/2/2
f 289/2/2 290/2/2 292/2/2
f 292/2/2 291/2/2 293/2/2
f 293/2/2 291/2/2 294/2/2
f 295/4/2 296/4/2 298/4/2
f 298/4/2 296/4/2 299/4/2
f 297/4/2 298/4/2 300/4/2
f 300/4/2 298/4/2 301/4/2
f 302/2/2 303/2/2 306/2/2
f 306/2/2 303/2/2 307/2/2
f 304/4/2 305/4/2 308/4/2
f 308/4/2 305/4/2 309/4/2
f 310/2/2 311/2/2 312/2/2
f 312/2/2 311/2/2 313/2/2
f 313/2/2 314/2/2 316/2/2
f 316/2/2 314/2/2 317/2/2
f 315/2/2 316/2/2 320/2/2
f 320/2/2 316/2/2 321/2/2
f 318/2/2 319/2/2 322/2/2
f 322/2/2 319/2/2 323/2/2
f 324/2/2 325/2/2 326/2/2
f 326/2/2 325/2/2 327/2/2
f 329/3/2 330/3/2 332/3/2
f 332/3/2 330/3/2 333/3/2
f 327/2/2 328/2/2 335/2/2
f 335/2/2 328/2/2 336/2/2
f 331/3/2 332/3/2 337/3/2
f 337/3/2 332/3/2 338/3/2
f 334/2/2 335/2/2 343/2/2
f 343/2/2 335/2/2 344/2/2
f 339/2/2 340/2/2 345/2/2
f 345/2/2 340/2/2 346/2/2
f 341/2/2 342/2/2 347/2/2
f 347/2/2 342/2/2 348/2/2
f 349/2/2 350/2/2 354/2/2
f 354/2/2 350/2/2 355/2/2
f 351/2/2 352/2/2 356/2/2
f 356/2/2 352/2/2 357/2/2
f 353/2/2 354/2/2 360/2/2
f 359/3/2 360/3/2 362/3/2
f 360/2/2 354/2/2 363/2/2
f 362/3/2 360/3/2 363/3/2
f 363/2/2 354/2/2 364/2/2
f 357/2/2 358/2/2 367/2/2
f 367/2/2 358/2/2 368/2/2
f 364/3/2 365/3/2 369/3/2
f 361/3/2 362/3/2 369/3/2
f 362/3/2 363/3/2 369/3/2
f 363/3/2 364/3/2 369/3/2
f 369/3/2 365/3/2 370/3/2
f 366/2/2 367/2/2 372/2/2
f 372/2/2 367/2/2 373/2/2
f 370/2/2 371/2/2 374/2/2
f 374/2/2 371/2/2 375/2/2
f 376/2/2 377/2/2 379/2/2
f 379/2/2 377/2/2 380/2/2
f 378/2/2 379/2/2 382/2/2
f 382/2/2 379/2/2 383/2/2
f 380/2/2 381/2/2 384/2/2
f 384/2/2 381/2/2 385/2/2
f 383/2/2 384/2/2 386/2/2
f 386/2/2 384/2/2 387/2/2
f 388/2/2 389/2/2 390/2/2
f 390/2/2 389/2/2 391/2/2
f 394/3/3 393/3/3 392/3/3
f 395/3/3 393/3/3 394/3/3
f 398/3/3 397/3/3 396/3/3
f 399/3/3 397/3/3 398/3/3
f 403/3/3 401/3/3 400/3/3
f 404/3/3 401/3/3 403/3/3
f 405/3/3 403/3/3 402/3/3
f 406/3/3 403/3/3 405/3/3
f 409/3/3 408/3/3 407/3/3
f 410/3/3 408/3/3 409/3/3
f 412/3/3 411/3/3 410/3/3
f 413/3/3 411/3/3 412/3/3
f 416/3/3 415/3/3 414/3/3
f 417/3/3 415/3/3 416/3/3
f 420/3/3 419/3/3 418/3/3
f 421/3/3 419/3/3 420/3/3
f 424/2/3 423/2/3 422/2/3
f 425/2/3 423/2/3 424/2/3
f 428/2/3 427/2/3 426/2/3
f 429/2/3 427/2/3 428/2/3
f 433/2/3 431/2/3 430/2/3
f 434/2/3 431/2/3 433/2/3
f 435/2/3 433/2/3 432/2/3
f 436/2/3 433/2/3 435/2/3
f 440/2/3 437/2/3 436/2/3
f 441/2/3 437/2/3 440/2/3
f 442/2/3 439/2/3 438/2/3
f 443/2/3 439/2/3 442/2/3
f 449/2/3 445/2/3 444/2/3
f 450/2/3 445/2/3 449/2/3
f 451/2/3 447/2/3 446/2/3
f 452/2/3 447/2/3 451/2/3
f 453/2/3 449/2/3 448/2/3
f 454/2/3 449/2/3 453/2/3
f 456/2/3 455/2/3 454/2/3
f 457/2/3 455/2/3 456/2/3
f 461/2/3 459/2/3 458/2/3
f 462/2/3 459/2/3 461/2/3
f 464/2/3 461/2/3 460/2/3
f 465/2/3 461/2/3 464/2/3
f 466/2/3 463/2/3 462/2/3
f 467/2/3 463/2/3 466/2/3
f 471/2/3 468/2/3 467/2/3
f 472/2/3 468/2/3 471/2/3
f 473/2/3 470/2/3 469/2/3
f 474/2/3 470/2/3 473/2/3
f 478/2/3 477/2/3 476/2/3
f 478/2/3 476/2/3 475/2/3
f 479/2/3 477/2/3 478/2/3
f 484/2/3 481/2/3 480/2/3
f 485/2/3 481/2/3 484/2/3
f 486/2/3 481/2/3 485/2/3
f 487/2/3 483/2/3 482/2/3
f 488/2/3 483/2/3 487/2/3
f 494/2/3 490/2/3 489/2/3
f 495/2/3 490/2/3 494/2/3
f 496/2/3 492/2/3 491/2/3
f 497/2/3 492/2/3 496/2/3
f 498/2/3 494/2/3 493/2/3
f 499/2/3 494/2/3 498/2/3
f 500/2/3 498/2/3 497/2/3
f 501/2/3 498/2/3 500/2/3
f 504/2/3 503/2/3 502/2/3
f 505/2/3 503/2/3 504/2/3
f 508/2/3 507/2/3 506/2/3
f 509/2/3 507/2/3 508/2/3
f 512/2/3 511/2/3 510/2/3
f 513/2/3 511/2/3 512/2/3
f 517/2/3 514/2/3 513/2/3
f 518/2/3 514/2/3 517/2/3
f 520/2/3 516/2/3 515/2/3
f 521/2/3 516/2/3 520/2/3
f 523/2/3 520/2/3 519/2/3
f 523/2/3 522/2/3 521/2/3
f 523/2/3 521/2/3 520/2/3
f 525/2/3 523/2/3 519/2/3
f 525/2/3 524/2/3 523/2/3
f 526/2/3 524/2/3 525/2/3
f 527/2/3 525/2/3 519/2/3
f 528/2/3 525/2/3 527/2/3
f 529/2/3 525/2/3 528/2/3
f 530/2/3 525/2/3 529/2/3
f 531/2/3 529/2/3 528/2/3
f 532/2/3 529/2/3 531/2/3
f 536/2/3 534/2/3 533/2/3
f 537/2/3 534/2/3 536/2/3
f 538/2/3 536/2/3 535/2/3
f 539/2/3 536/2/3 538/2/3
f 546/2/3 541/2/3 540/2/3
f 547/2/3 541/2/3 546/2/3
f 548/2/3 543/2/3 542/2/3
f 549/2/3 543/2/3 548/2/3
f 550/2/3 545/2/3 544/2/3
f 551/2/3 545/2/3 550/2/3
f 552/2/3 547/2/3 546/2/3
f 552/2/3 548/2/3 547/2/3
f 553/2/3 548/2/3 552/2/3
f 554/2/3 548/2/3 553/2/3
f 555/2/3 548/2/3 554/2/3
f 557/2/3 548/2/3 555/2/3
f 561/2/3 557/2/3 556/2/3
f 562/2/3 559/2/3 558/2/3
f 563/2/3 559/2/3 562/2/3
f 564/2/3 561/2/3 560/2/3
f 565/2/3 557/2/3 561/2/3
f 565/2/3 561/2/3 564/2/3
f 566/2/3 548/2/3 557/2/3
f 566/2/3 557/2/3 565/2/3
f 568/2/3 565/2/3 564/2/3
f 569/2/3 565/2/3 568/2/3
f 570/2/3 567/2/3 566/2/3
f 571/2/3 567/2/3 570/2/3
f 575/2/3 573/2/3 572/2/3
f 576/2/3 573/2/3 575/2/3
f 577/2/3 575/2/3 574/2/3
f 578/2/3 575/2/3 577/2/3
f 581/2/3 580/2/3 579/2/3
f 582/2/3 580/2/3 581/2/3
f 587/2/3 586/2/3 585/2/3
f 588/2/3 586/2/3 587/2/3
f 589/2/3 584/2/3 583/2/3
f 590/2/3 584/2/3 589/2/3
f 593/4/3 592/4/3 591/4/3
f 594/4/3 592/4/3 593/4/3
f 596/4/3 594/4/3 593/4/3
f 596/4/3 595/4/3 594/4/3
f 597/4/3 595/4/3 596/4/3
f 598/1/3 597/1/3 596/1/3
f 599/4/3 595/4/3 597/4/3
f 599/1/3 597/1/3 598/1/3
f 600/4/3 599/4/3 598/4/3
f 601/4/3 595/4/3 599/4/3
f 601/4/3 599/4/3 600/4/3
f 602/4/3 595/4/3 601/4/3
f 603/4/3 601/4/3 600/4/3
f 604/4/3 601/4/3 603/4/3
f 605/2/4 606/2/4 607/2/4
f 607/2/4 606/2/4 608/2/4
f 609/2/4 610/2/4 611/2/4
f 611/2/4 610/2/4 612/2/4
f 613/2/4 614/2/4 615/2/4
f 615/2/4 614/2/4 616/2/4
f 617/2/4 618/2/4 620/2/4
f 620/2/4 618/2/4 621/2/4
f 619/2/4 620/2/4 622/2/4
f 622/2/4 620/2/4 623/2/4
f 624/2/4 625/2/4 626/2/4
f 626/2/4 625/2/4 627/2/4
f 627/2/4 628/2/4 629/2/4
f 629/2/4 628/2/4 630/2/4
f 631/2/4 632/2/4 634/2/4
f 634/2/4 632/2/4 635/2/4
f 633/2/4 634/2/4 636/2/4
f 636/2/4 634/2/4 637/2/4
f 637/2/4 638/2/4 639/2/4
f 639/2/4 638/2/4 640/2/4
f 641/2/4 642/2/4 643/2/4
f 643/2/4 642/2/4 644/2/4
f 645/4/4 646/4/4 647/4/4
f 647/4/4 646/4/4 648/4/4
f 648/4/4 649/4/4 650/4/4
f 650/4/4 649/4/4 651/4/4
f 652/2/4 653/2/4 654/2/4
f 654/2/4 653/2/4 655/2/4
f 656/4/4 657/4/4 659/4/4
f 659/4/4 657/4/4 660/4/4
f 658/4/4 659/4/4 661/4/4
f 661/4/4 659/4/4 662/4/4
f 663/2/4 664/2/4 665/2/4
f 665/2/4 664/2/4 666/2/4
f 667/2/4 668/2/4 670/2/4
f 670/2/4 668/2/4 671/2/4
f 669/2/4 670/2/4 673/2/4
f 673/2/4 670/2/4 674/2/4
f 671/2/4 672/2/4 675/2/4
f 675/2/4 672/2/4 676/2/4
f 677/2/4 678/2/4 679/2/4
f 679/2/4 678/2/4 680/2/4
f 681/4/4 682/4/4 683/4/4
f 683/4/4 682/4/4 684/4/4
f 684/4/4 685/4/4 686/4/4
f 686/4/4 685/4/4 687/4/4
f 688/4/4 689/4/4 691/4/4
f 691/4/4 689/4/4 692/4/4
f 690/4/4 691/4/4 693/4/4
f 693/4/4 691/4/4 694/4/4
f 695/2/4 696/2/4 697/2/4
f 697/2/4 696/2/4 698/2/4
f 699/2/4 700/2/4 703/2/4
f 703/2/4 700/2/4 704/2/4
f 701/2/4 702/2/4 705/2/4
f 705/2/4 702/2/4 706/2/4
f 704/2/4 705/2/4 707/2/4
f 707/2/4 705/2/4 708/2/4
f 709/2/4 710/2/4 712/2/4
f 712/2/4 710/2/4 713/2/4
f 711/2/4 712/2/4 715/2/4
f 715/2/4 712/2/4 716/2/4
f 713/2/4 714/2/4 717/2/4
f 717/2/4 714/2/4 718/2/4
f 719/2/4 720/2/4 721/2/4
f 721/2/4 720/2/4 722/2/4
f 723/4/4 724/4/4 725/4/4
f 723/4/4 725/4/4 727/4/4
f 725/4/4 726/4/4 727/4/4
f 727/4/4 726/4/4 728/4/4
f 723/4/4 727/4/4 729/4/4
f 729/4/4 727/4/4 730/4/4
f 731/2/4 732/2/4 733/2/4
f 733/2/4 732/2/4 734/2/4
f 735/2/4 736/2/4 739/2/4
f 739/2/4 736/2/4 740/2/4
f 737/2/4 738/2/4 741/2/4
f 741/2/4 738/2/4 742/2/4
f 740/2/4 741/2/4 743/2/4
f 743/2/4 741/2/4 744/2/4
f 745/2/4 746/2/4 748/2/4
f 748/2/4 746/2/4 749/2/4
f 747/2/4 748/2/4 751/2/4
f 751/2/4 748/2/4 752/2/4
f 749/2/4 750/2/4 753/2/4
f 753/2/4 750/2/4 754/2/4
f 755/2/4 756/2/4 757/2/4
f 757/2/4 756/2/4 758/2/4
f 759/2/4 760/2/4 763/2/4
f 763/2/4 760/2/4 764/2/4
f 761/2/4 762/2/4 765/2/4
f 765/2/4 762/2/4 766/2/4
f 764/2/4 765/2/4 767/2/4
f 767/2/4 765/2/4 768/2/4
f 769/2/4 770/2/4 772/2/4
f 772/2/4 770/2/4 773/2/4
f 771/2/4 772/2/4 775/2/4
f 775/2/4 772/2/4 776/2/4
f 773/2/4 774/2/4 777/2/4
f 777/2/4 774/2/4 778/2/4
f 776/2/4 777/2/4 779/2/4
f 779/2/4 777/2/4 780/2/4
f 781/2/4 782/2/4 783/2/4
f 783/2/4 782/2/4 784/2/4
f 788/2/5 786/2/5 785/2/5
f 789/2/5 786/2/5 788/2/5
f 791/2/5 788/2/5 787/2/5
f 792/2/5 788/2/5 791/2/5
f 793/2/5 790/2/5 789/2/5
f 794/2/5 790/2/5 793/2/5
f 795/2/5 793/2/5 792/2/5
f 796/2/5 793/2/5 795/2/5
f 797/2/5 793/2/5 796/2/5
f 798/2/5 793/2/5 797/2/5
f 799/2/5 797/2/5 796/2/5
f 800/2/5 797/2/5 799/2/5
f 805/2/5 802/2/5 801/2/5
f 806/2/5 802/2/5 805/2/5
f 807/2/5 804/2/5 803/2/5
f 808/2/5 804/2/5 807/2/5
f 813/2/5 810/2/5 809/2/5
f 814/2/5 810/2/5 813/2/5
f 817/2/5 812/2/5 811/2/5
f 818/2/5 812/2/5 817/2/5
f 819/2/5 815/2/5 814/2/5
f 820/2/5 815/2/5 819/2/5
f 821/2/5 817/2/5 816/2/5
f 822/2/5 817/2/5 821/2/5
f 823/2/5 821/2/5 820/2/5
f 824/2/5 821/2/5 823/2/5
f 830/2/5 826/2/5 825/2/5
f 831/2/5 826/2/5 830/2/5
f 834/2/5 828/2/5 827/2/5
f 835/2/5 828/2/5 834/2/5
f 837/2/5 832/2/5 831/2/5
f 837/2/5 830/2/5 829/2/5
f 837/2/5 831/2/5 830/2/5
f 840/2/5 836/2/5 835/2/5
f 840/2/5 835/2/5 834/2/5
f 840/2/5 834/2/5 833/2/5
f 841/2/5 838/2/5 837/2/5
f 846/2/5 840/2/5 839/2/5
f 847/2/5 844/2/5 843/2/5
f 848/2/5 844/2/5 847/2/5
f 849/2/5 842/2/5 841/2/5
f 852/2/5 846/2/5 845/2/5
f 853/2/5 850/2/5 849/2/5
f 856/2/5 852/2/5 851/2/5
f 857/2/5 854/2/5 853/2/5
f 858/2/5 856/2/5 855/2/5
f 859/2/5 857/2/5 853/2/5
f 859/2/5 858/2/5 857/2/5
f 859/2/5 837/2/5 829/2/5
f 859/2/5 841/2/5 837/2/5
f 859/2/5 849/2/5 841/2/5
f 859/2/5 853/2/5 849/2/5
f 860/2/5 858/2/5 859/2/5
f 861/2/5 856/2/5 858/2/5
f 861/2/5 858/2/5 860/2/5
f 861/2/5 836/2/5 840/2/5
f 861/2/5 852/2/5 856/2/5
f 861/2/5 846/2/5 852/2/5
f 861/2/5 840/2/5 846/2/5
f 862/2/5 836/2/5 861/2/5
f 863/2/5 861/2/5 860/2/5
f 864/2/5 861/2/5 863/2/5
f 865/2/5 861/2/5 864/2/5
f 866/2/5 861/2/5 865/2/5
f 867/2/5 865/2/5 864/2/5
f 868/2/5 865/2/5 867/2/5
f 869/2/5 865/2/5 868/2/5
f 870/2/5 865/2/5 869/2/5
f 871/2/5 869/2/5 868/2/5
f 872/2/5 869/2/5 871/2/5
f 878/2/5 874/2/5 873/2/5
f 879/2/5 874/2/5 878/2/5
f 882/2/5 876/2/5 875/2/5
f 883/2/5 876/2/5 882/2/5
f 886/2/5 878/2/5 877/2/5
f 887/2/5 878/2/5 886/2/5
f 888/2/5 880/2/5 879/2/5
f 889/2/5 880/2/5 888/2/5
f 890/2/5 882/2/5 881/2/5
f 891/2/5 882/2/5 890/2/5
f 892/2/5 884/2/5 883/2/5
f 893/2/5 884/2/5 892/2/5
f 899/2/5 896/2/5 895/2/5
f 900/2/5 896/2/5 899/2/5
f 903/2/5 898/2/5 897/2/5
f 904/2/5 898/2/5 903/2/5
f 905/2/5 901/2/5 900/2/5
f 906/2/5 901/2/5 905/2/5
f 907/2/5 903/2/5 902/2/5
f 908/2/5 903/2/5 907/2/5
f 909/2/5 886/2/5 885/2/5
f 910/2/5 886/2/5 909/2/5
f 913/2/5 894/2/5 893/2/5
f 914/2/5 894/2/5 913/2/5
f 915/2/5 911/2/5 910/2/5
f 916/2/5 911/2/5 915/2/5
f 919/2/5 913/2/5 912/2/5
f 920/2/5 913/2/5 919/2/5
f 921/2/5 917/2/5 916/2/5
f 922/2/5 917/2/5 921/2/5
f 925/2/5 919/2/5 918/2/5
f 926/2/5 919/2/5 925/2/5
f 927/2/5 923/2/5 922/2/5
f 928/2/5 923/2/5 927/2/5
f 929/2/5 925/2/5 924/2/5
f 930/2/5 925/2/5 929/2/5
f 931/2/5 929/2/5 928/2/5
f 932/2/5 929/2/5 931/2/5
f 938/3/5 934/3/5 933/3/5
f 939/3/5 936/3/5 935/3/5
f 941/3/5 938/3/5 937/3/5
f 942/3/5 934/3/5 938/3/5
f 942/3/5 938/3/5 941/3/5
f 943/3/5 940/3/5 939/3/5
f 943/3/5 939/3/5 935/3/5
f 944/3/5 940/3/5 943/3/5
f 945/3/5 934/3/5 942/3/5
f 946/3/5 934/3/5 945/3/5
f 947/3/5 943/3/5 935/3/5
f 948/3/5 943/3/5 947/3/5
f 953/2/5 950/2/5 949/2/5
f 954/2/5 950/2/5 953/2/5
f 955/2/5 952/2/5 951/2/5
f 956/2/5 952/2/5 955/2/5
f 962/3/5 958/3/5 957/3/5
f 963/3/5 958/3/5 962/3/5
f 964/3/5 960/3/5 959/3/5
f 965/3/5 960/3/5 964/3/5
f 967/3/5 962/3/5 961/3/5
f 968/3/5 962/3/5 967/3/5
f 969/3/5 966/3/5 965/3/5
f 970/3/5 966/3/5 969/3/5
f 971/2/6 972/2/6 975/2/6
f 975/2/6 972/2/6 976/2/6
f 973/2/6 974/2/6 977/2/6
f 977/2/6 974/2/6 978/2/6
f 979/2/6 980/2/6 983/2/6
f 983/2/6 980/2/6 984/2/6
f 981/2/6 982/2/6 985/2/6
f 985/2/6 982/2/6 986/2/6
f 987/2/6 988/2/6 989/2/6
f 989/2/6 988/2/6 990/2/6
f 991/2/6 992/2/6 996/2/6
f 996/2/6 992/2/6 997/2/6
f 993/2/6 994/2/6 998/2/6
f 998/2/6 994/2/6 999/2/6
f 1001/2/6 1002/2/6 1005/2/6
f 1005/2/6 1002/2/6 1006/2/6
f 1003/2/6 1004/2/6 1007/2/6
f 1007/2/6 1004/2/6 1008/2/6
f 1006/2/6 1007/2/6 1009/2/6
f 1009/2/6 1007/2/6 1010/2/6
f 995/2/6 996/2/6 1011/2/6
f 1011/2/6 996/2/6 1012/2/6
f 999/2/6 1000/2/6 1015/2/6
f 1015/2/6 1000/2/6 1016/2/6
f 1012/2/6 1013/2/6 1017/2/6
f 1017/2/6 1013/2/6 1018/2/6
f 1014/2/6 1015/2/6 1021/2/6
f 1021/2/6 1015/2/6 1022/2/6
f 1018/2/6 1019/2/6 1023/2/6
f 1023/2/6 1019/2/6 1024/2/6
f 1020/2/6 1021/2/6 1027/2/6
f 1027/2/6 1021/2/6 1028/2/6
f 1024/2/6 1025/2/6 1029/2/6
f 1029/2/6 1025/2/6 1030/2/6
f 1026/2/6 1027/2/6 1031/2/6
f 1031/2/6 1027/2/6 1032/2/6
f 1030/2/6 1031/2/6 1033/2/6
f 1033/2/6 1031/2/6 1034/2/6
f 1035/3/6 1036/3/6 1040/3/6
f 1037/3/6 1038/3/6 1041/3/6
f 1039/3/6 1040/3/6 1043/3/6
f 1040/3/6 1036/3/6 1043/3/6
f 1043/3/6 1036/3/6 1044/3/6
f 1041/3/6 1042/3/6 1045/3/6
f 1037/3/6 1041/3/6 1045/3/6
f 1045/3/6 1042/3/6 1046/3/6
f 1039/3/6 1043/3/6 1048/3/6
f 1048/3/6 1043/3/6 1049/3/6
f 1046/3/6 1042/3/6 1054/3/6
f 1054/3/6 1042/3/6 1055/3/6
f 1050/2/6 1051/2/6 1057/2/6
f 1052/2/6 1053/2/6 1060/2/6
f 1057/2/6 1058/2/6 1061/2/6
f 1050/2/6 1057/2/6 1061/2/6
f 1061/2/6 1058/2/6 1062/2/6
f 1059/2/6 1060/2/6 1063/2/6
f 1060/2/6 1053/2/6 1064/2/6
f 1063/2/6 1060/2/6 1064/2/6
f 1064/2/6 1053/2/6 1065/2/6
f 1062/2/6 1063/2/6 1066/2/6
f 1063/2/6 1064/2/6 1066/2/6
f 1066/2/6 1064/2/6 1067/2/6
f 1047/2/6 1048/2/6 1068/2/6
f 1055/2/6 1056/2/6 1071/2/6
f 1068/2/6 1069/2/6 1072/2/6
f 1047/2/6 1068/2/6 1072/2/6
f 1072/2/6 1069/2/6 1073/2/6
f 1073/2/6 1069/2/6 1074/2/6
f 1070/2/6 1071/2/6 1077/2/6
f 1071/2/6 1056/2/6 1078/2/6
f 1077/2/6 1071/2/6 1078/2/6
f 1078/2/6 1056/2/6 1079/2/6
f 1074/2/6 1075/2/6 1080/2/6
f 1073/2/6 1074/2/6 1080/2/6
f 1080/2/6 1075/2/6 1081/2/6
f 1081/2/6 1075/2/6 1082/2/6
f 1076/2/6 1077/2/6 1085/2/6
f 1077/2/6 1078/2/6 1085/2/6
f 1085/2/6 1078/2/6 1086/2/6
f 1086/2/6 1078/2/6 1087/2/6
f 1082/2/6 1083/2/6 1088/2/6
f 1081/2/6 1082/2/6 1088/2/6
f 1088/2/6 1083/2/6 1089/2/6
f 1089/2/6 1083/2/6 1090/2/6
f 1085/2/6 1086/2/6 1091/2/6
f 1084/2/6 1085/2/6 1091/2/6
f 1091/2/6 1086/2/6 1092/2/6
f 1092/2/6 1086/2/6 1093/2/6
f 1089/2/6 1090/2/6 1094/2/6
f 1091/2/6 1092/2/6 1094/2/6
f 1090/2/6 1091/2/6 1094/2/6
f 1094/2/6 1092/2/6 1095/2/6
f 1096/2/6 1097/2/6 1101/2/6
f 1098/2/6 1099/2/6 1102/2/6
f 1100/2/6 1101/2/6 1104/2/6
f 1101/2/6 1097/2/6 1104/2/6
f 1102/2/6 1103/2/6 1107/2/6
f 1098/2/6 1102/2/6 1107/2/6
f 1104/2/6 1105/2/6 1108/2/6
f 1106/2/6 1107/2/6 1109/2/6
f 1104/2/6 1108/2/6 1110/2/6
f 1108/2/6 1109/2/6 1110/2/6
f 1110/2/6 1109/2/6 1111/2/6
f 1104/2/6 1110/2/6 1112/2/6
f 1110/4/6 1111/4/6 1113/4/6
f 1112/2/6 1110/2/6 1113/2/6
f 1113/4/6 1111/4/6 1114/4/6
f 1114/4/6 1111/4/6 1115/4/6
f 1111/2/6 1109/2/6 1116/2/6
f 1115/4/6 1111/4/6 1116/4/6
f 1109/2/6 1107/2/6 1117/2/6
f 1116/2/6 1109/2/6 1117/2/6
f 1100/2/6 1104/2/6 1118/2/6
f 1104/2/6 1112/2/6 1118/2/6
f 1118/2/6 1112/2/6 1119/2/6
f 1119/2/6 1112/2/6 1120/2/6
f 1117/2/6 1107/2/6 1123/2/6
f 1107/2/6 1103/2/6 1124/2/6
f 1123/2/6 1107/2/6 1124/2/6
f 1124/2/6 1103/2/6 1125/2/6
f 1120/2/6 1121/2/6 1126/2/6
f 1119/2/6 1120/2/6 1126/2/6
f 1126/2/6 1121/2/6 1127/2/6
f 1127/2/6 1121/2/6 1128/2/6
f 1122/2/6 1123/2/6 1131/2/6
f 1123/2/6 1124/2/6 1131/2/6
f 1131/2/6 1124/2/6 1132/2/6
f 1132/2/6 1124/2/6 1133/2/6
f 1128/2/6 1129/2/6 1134/2/6
f 1127/2/6 1128/2/6 1134/2/6
f 1134/2/6 1129/2/6 1135/2/6
f 1135/2/6 1129/2/6 1136/2/6
f 1131/2/6 1132/2/6 1137/2/6
f 1130/2/6 1131/2/6 1137/2/6
f 1137/2/6 1132/2/6 1138/2/6
f 1138/2/6 1132/2/6 1139/2/6
f 1135/2/6 1136/2/6 1140/2/6
f 1137/2/6 1138/2/6 1140/2/6
f 1136/2/6 1137/2/6 1140/2/6
f 1140/2/6 1138/2/6 1141/2/6
f 1142/4/6 1143/4/6 1146/4/6
f 1146/4/6 1143/4/6 1147/4/6
f 1144/4/6 1145/4/6 1150/4/6
f 1150/4/6 1145/4/6 1151/4/6
f 1147/4/6 1148/4/6 1152/4/6
f 1152/4/6 1148/4/6 1153/4/6
f 1149/4/6 1150/4/6 1156/4/6
f 1156/4/6 1150/4/6 1157/4/6
f 1153/4/6 1154/4/6 1158/4/6
f 1158/4/6 1154/4/6 1159/4/6
f 1155/4/6 1156/4/6 1160/4/6
f 1160/4/6 1156/4/6 1161/4/6
f 1162/4/6 1163/4/6 1164/4/6
f 1164/4/6 1163/4/6 1165/4/6
f 1165/4/6 1163/4/6 1166/4/6
f 1166/4/6 1163/4/6 1167/4/6
f 1165/4/6 1166/4/6 1168/4/6
f 1168/4/6 1166/4/6 1169/4/6
f 1169/4/6 1166/4/6 1170/4/6
f 1170/4/6 1166/4/6 1171/4/6
f 1169/4/6 1170/4/6 1172/4/6
f 1172/4/6 1170/4/6 1173/4/6
